<?xml version="1.0" standalone="no"?>
<!DOCTYPE svg PUBLIC "-//W3C//DTD SVG 1.1//EN" "http://www.w3.org/Graphics/SVG/1.1/DTD/svg11.dtd" >
<svg>
<metadata>
Created by FontForge 20061220 at Thu Jun  7 17:33:29 2007
 By guest,,,
Copyright (c) 2005 Canonical Ltd.
made by Andrew Fitzsimon ( andrew@fitzsimon.com.au ) 
released under the LGPL ( http://www.gnu.org/copyleft/lesser.html )
accents and some fixes from Paulo Silva - may'07
</metadata>
<defs>
<font id="UbuntuTitleRegular" horiz-adv-x="450" >
  <font-face 
    font-family="UbuntuTitleRegular"
    font-weight="400"
    font-stretch="normal"
    units-per-em="1000"
    panose-1="2 0 5 3 0 0 0 0 0 0"
    ascent="800"
    descent="-200"
    x-height="466"
    cap-height="668"
    bbox="-62.1172 -186.483 876 800.727"
    underline-thickness="50"
    underline-position="-100"
    unicode-range="U+000D-U+02DD"
  />
<missing-glyph horiz-adv-x="338" 
 />
    <glyph glyph-name=".notdef" horiz-adv-x="338" 
 />
    <glyph glyph-name="glyph1" horiz-adv-x="0" 
 />
    <glyph glyph-name="nonmarkingreturn" unicode="&#xd;" horiz-adv-x="338" 
 />
    <glyph glyph-name="space" unicode=" " horiz-adv-x="338" 
 />
    <glyph glyph-name="exclam" unicode="!" horiz-adv-x="384" 
d="M186 0q-32 4 -44 36q-2 8 -2 18v6q0 32 26 48q28 16 54 0t26 -48v-6q0 -24 -18 -40q-16 -16 -42 -14zM192 192q-32 2 -48 30q-4 14 -4 24v368q0 30 26 46q28 16 54 0t26 -46v-368q0 -24 -14 -38q-16 -16 -40 -16z" />
    <glyph glyph-name="quotedbl" unicode="&#x22;" horiz-adv-x="462" 
d="M310 620q22 2 40 -16q18 -16 16 -40v-98q0 -30 -28 -48t-56 0t-28 48v98q0 24 16 40t40 16zM104 620q24 2 40 -16q18 -16 16 -40v-98q0 -30 -28 -48t-54 0q-30 18 -30 48v98q0 24 16 40t40 16z" />
    <glyph glyph-name="numbersign" unicode="#" horiz-adv-x="792" 
d="M214 710q26 2 46 -14q18 -16 18 -42v-104h180v104q-2 30 28 48q28 18 54 0q30 -18 30 -48v-104h90q32 0 48 -28t0 -56q-16 -30 -48 -26h-90v-182h90q32 0 48 -28t0 -56t-48 -28h-90v-90q0 -32 -30 -50q-26 -14 -54 0q-30 18 -28 50v90h-180v-90q0 -32 -30 -50
q-28 -14 -54 0q-30 18 -30 50v90h-88q-34 0 -50 28t0 56t50 28h88v182h-88q-34 -4 -50 26q-16 28 0 56t50 28h88v104q0 10 4 18q12 34 46 38zM278 440v-182h180v182h-180z" />
    <glyph glyph-name="dollar" unicode="$" horiz-adv-x="1000" 
d="M498 696q24 0 42 -16q16 -18 16 -42v-42h114q30 0 50 -28q16 -28 0 -56q-20 -28 -50 -28h-114v-82h40q36 2 76 -18q10 -4 22 -16q58 -44 58 -120q0 -28 -12 -52q-20 -56 -68 -82q-20 -10 -40 -14l-36 -4h-40v-40q0 -34 -28 -52q-28 -16 -56 0q-28 18 -28 52v40h-126
q-34 0 -50 28t0 56t50 28h126v84h-42q-36 -2 -74 16q-10 8 -22 16q-58 46 -58 120q0 28 12 54q20 58 68 82q18 8 40 12l34 4h42v42q0 24 16 40q16 18 38 18zM402 484q-12 0 -22 -4q-30 -16 -8 -4q-12 -6 -12 -32q0 -16 4 -24q0 -4 16 -12q20 -4 22 -6h42v82h-42zM556 292
v-84h40q14 0 24 8h8q12 6 12 32q0 16 -4 24q-2 8 -16 12l-2 2l-22 6h-40z" />
    <glyph glyph-name="quotesingle" unicode="'" horiz-adv-x="384" 
d="M192 628q24 2 42 -14q16 -18 14 -42v-96q0 -34 -28 -50q-26 -18 -56 0q-28 16 -28 50v96q0 24 18 40q14 16 38 16z" />
    <glyph glyph-name="parenleft" unicode="(" horiz-adv-x="380" 
d="M192 700q36 4 56 -26q0 -2 4 -6q14 -34 -10 -60q-2 -4 -2 -6l-20 -24q-10 -14 -20 -34q-40 -84 -40 -194q0 -106 40 -190q20 -44 40 -60q22 -24 16 -56q-8 -32 -40 -42q-36 -6 -56 18l-28 36q-18 24 -32 52q-54 108 -54 242q0 136 54 246q28 54 60 84q12 18 32 20z" />
    <glyph glyph-name="parenright" unicode=")" horiz-adv-x="332" 
d="M118 2q-36 -4 -58 26v6q-18 34 8 62q2 0 4 4l20 24q8 16 18 34q42 84 42 192q0 110 -42 194q-22 42 -38 58q-24 24 -16 58q6 32 40 40q32 8 54 -20l28 -32q18 -26 30 -52q56 -112 56 -246t-56 -242q-28 -56 -58 -88q-14 -16 -32 -18z" />
    <glyph glyph-name="asterisk" unicode="*" horiz-adv-x="530" 
d="M346 798q32 2 50 -28q16 -26 0 -54l-34 -64h74q34 0 50 -30q16 -26 0 -54q-16 -30 -50 -28h-72l40 -64q20 -32 0 -64q-8 -8 -18 -14q-30 -18 -62 2q-8 8 -16 18l-38 60l-34 -64q-16 -34 -54 -30q-10 0 -22 6q-32 18 -28 54q0 12 4 22l40 74h-80q-32 -2 -48 28
q-16 28 0 54q16 30 48 30h66l-34 52q-20 34 4 64q4 10 14 16q34 16 62 -4q10 -4 16 -16l36 -62l38 64q14 32 48 32z" />
    <glyph glyph-name="plus" unicode="+" horiz-adv-x="592" 
d="M318 642q24 0 42 -18q16 -16 16 -40v-138h138q30 0 48 -26q18 -30 0 -58t-48 -28h-138v-138q0 -32 -28 -50q-28 -16 -58 0q-28 18 -28 50v138h-138q-32 0 -48 28t0 58q16 26 48 26h138v138q0 24 18 40q14 18 38 18z" />
    <glyph glyph-name="comma" unicode="," horiz-adv-x="230" 
d="M100 212q22 0 40 -16q16 -18 16 -42v-98q0 -32 -28 -48t-58 0q-28 16 -28 48v98q0 24 18 42q14 16 40 16z" />
    <glyph glyph-name="hyphen" unicode="-" horiz-adv-x="356" 
d="M276 184h-190q-34 0 -50 28t0 56q18 28 50 28h190q32 0 48 -28t0 -56t-48 -28z" />
    <glyph glyph-name="period" unicode="." horiz-adv-x="196" 
d="M80 0q-32 4 -44 36q-2 8 -2 18v6q0 32 26 48q28 16 54 0t26 -48v-6q0 -26 -18 -42q-18 -14 -42 -12z" />
    <glyph glyph-name="slash" unicode="/" horiz-adv-x="1000" 
d="M716 700q34 2 52 -30t-4 -60l-438 -586q-22 -28 -58 -20q-12 2 -20 10q-32 22 -24 58q4 10 12 20l438 584q16 22 42 24z" />
    <glyph glyph-name="zero" unicode="0" horiz-adv-x="628" 
d="M316 696q84 0 148 -48l12 -8q108 -90 108 -294q0 -210 -120 -298q-64 -48 -148 -48q-96 0 -160 52q-112 88 -108 296q0 210 118 298q66 50 150 50zM316 112q48 0 82 24q74 56 74 210q0 158 -74 212q-34 26 -82 26t-84 -28q-72 -54 -72 -210q-4 -234 156 -234z" />
    <glyph glyph-name="one" unicode="1" horiz-adv-x="242" 
d="M142 668q22 0 38 -16t16 -38v-558q0 -32 -28 -48q-26 -16 -52 0q-28 16 -26 48v504h-36q-30 0 -46 26q-16 28 0 54q14 26 46 26z" />
    <glyph glyph-name="two" unicode="2" horiz-adv-x="562" 
d="M412 472q0 116 -92 116h-120q-22 0 -36 -8q-4 -4 -4 -8q0 -34 -28 -50q-30 -18 -56 0q-28 16 -28 50q2 64 52 100q42 28 100 28h120q84 0 142 -56q62 -62 62 -172q0 -112 -74 -172q-62 -52 -178 -52q-68 0 -92 -24q-20 -16 -20 -66v-42h308q32 0 48 -28t0 -56t-48 -28
h-366q-34 0 -50 32q-4 12 -4 24v98q0 98 56 150t168 52q74 0 108 26q32 26 32 86z" />
    <glyph glyph-name="three" unicode="3" horiz-adv-x="562" 
d="M154 132q26 -18 66 -18l98 -2q38 0 60 24q30 28 30 88q0 32 -8 46q-2 6 -10 10q-18 6 -122 6q-36 0 -48 38q-8 38 14 60q12 16 34 16q120 0 132 22q8 14 8 46q0 64 -30 92q-22 22 -60 22h-2l-96 2q-30 0 -54 -12q-12 -8 -12 -6q0 -32 -28 -50q-28 -16 -56 0
q-30 18 -30 50q4 70 76 106q46 24 104 24h98q82 0 138 -56q64 -62 64 -172q0 -56 -20 -96l-20 -26q16 -18 20 -24q20 -38 20 -98q0 -104 -64 -168q-56 -56 -138 -56h-2h-96q-56 0 -104 24q-76 36 -76 104q0 34 30 50q28 18 56 0q28 -16 28 -50v4z" />
    <glyph glyph-name="four" unicode="4" horiz-adv-x="600" 
d="M408 700q24 4 44 -14q18 -16 18 -42v-382h42q32 0 48 -26q18 -28 0 -58q-16 -28 -48 -26h-42v-92q2 -32 -28 -48q-26 -16 -56 0q-26 16 -26 48v92h-238q-38 0 -64 20q-26 28 -26 66q0 54 52 104l288 338q14 18 36 20zM360 494l-200 -232h200v232z" />
    <glyph glyph-name="five" unicode="5" horiz-adv-x="568" 
d="M52 398v242q0 36 30 50q10 6 18 6h372q32 0 48 -28t0 -56q-16 -30 -48 -28h-310v-132h116q114 0 178 -52q72 -60 72 -176q0 -106 -72 -170q-60 -54 -144 -54h-108q-56 0 -98 28q-54 36 -54 100q0 34 28 50q28 18 56 0q26 -16 26 -50q0 -4 6 -8q14 -8 36 -8h108
q42 0 70 26q34 30 34 86q0 64 -32 92q-32 24 -106 24h-170q-36 0 -50 32q-6 12 -6 26z" />
    <glyph glyph-name="six" unicode="6" horiz-adv-x="546" 
d="M292 404h4h4q48 0 100 -24q16 -8 30 -20q74 -60 74 -158q0 -40 -16 -76q-26 -70 -88 -102q-40 -22 -100 -24h-48q-84 0 -140 56q-60 64 -60 168v20q-2 4 0 4v264q8 84 74 136q62 46 152 46q88 0 150 -46q76 -64 76 -156q0 -32 -28 -48q-28 -18 -56 0q-28 16 -28 48
q0 42 -32 66t-82 24q-52 0 -86 -24q-30 -24 -30 -66v-112q70 24 130 24zM162 224q0 -60 30 -88q24 -24 60 -24h48q28 2 48 12q44 18 44 78q0 26 -8 42q-6 20 -36 36q-22 12 -46 12h-2h-4q-16 0 -20 -2q-76 -8 -106 -30q-8 -4 -8 -12v-24z" />
    <glyph glyph-name="seven" unicode="7" horiz-adv-x="588" 
d="M84 684h444q34 0 52 -30q14 -32 -6 -58l-438 -584q-22 -30 -58 -22q-14 4 -22 10q-30 22 -20 58q4 10 8 22l372 492h-326q-36 0 -52 28q-6 14 -6 26q-2 34 28 52q12 6 24 6z" />
    <glyph glyph-name="eight" unicode="8" horiz-adv-x="596" 
d="M300 700q106 0 168 -46q80 -62 80 -160q0 -86 -66 -148q22 -14 32 -26q38 -48 38 -120q0 -68 -38 -118q-34 -40 -86 -60q-56 -22 -128 -22q-76 0 -128 20q-54 20 -88 60q-38 50 -36 120v2q0 68 40 118q8 8 30 24q-68 60 -66 150v0q0 44 18 82q32 68 102 100q60 24 128 24
zM300 588q-60 0 -104 -24q-32 -20 -32 -70v-2q0 -28 6 -44q10 -22 44 -36q26 -12 68 -12h18h20q50 2 84 22t34 72q0 26 -10 42q-8 22 -44 38q-36 14 -84 14zM440 200q0 32 -14 48q-28 36 -106 40h-20h-16q-124 -8 -124 -88v0q0 -32 14 -48q30 -40 126 -40q140 0 140 88z" />
    <glyph glyph-name="nine" unicode="9" horiz-adv-x="528" 
d="M480 184q-6 -84 -74 -136q-62 -48 -150 -48t-152 48q-28 20 -24 52q4 36 36 48q30 12 56 -12q32 -24 84 -24q50 0 84 24q28 24 28 66v114q-22 -10 -26 -12q-26 -4 -100 -12h-10q-50 -2 -98 24q-16 8 -32 20q-72 56 -72 156q0 42 14 76q44 120 188 126h48q84 0 140 -56
q60 -62 60 -170v-284zM236 404h22q76 8 102 30q8 6 8 10v24q0 62 -28 92q-22 22 -60 22h-48q-32 0 -60 -18q-32 -18 -32 -72q0 -26 8 -40q8 -24 36 -36q22 -12 46 -12h6z" />
    <glyph glyph-name="colon" unicode=":" horiz-adv-x="280" 
d="M120 324q-32 4 -44 36q-2 8 -2 18v6q0 32 26 48q28 16 54 0t26 -48v-6q0 -24 -18 -40q-18 -18 -42 -14zM120 98q-32 2 -44 34q-2 8 -2 20v8q0 30 26 44q28 16 54 0q26 -14 26 -44v-8q0 -24 -18 -40q-18 -18 -42 -14z" />
    <glyph glyph-name="semicolon" unicode=";" horiz-adv-x="276" 
d="M138 212q22 0 40 -16q16 -16 16 -40v-98q0 -34 -28 -50q-28 -14 -56 0q-28 16 -28 50v98q0 24 16 40t40 16zM128 364q-32 4 -44 36q-4 8 -4 18v6q0 32 26 48q28 16 54 0t26 -48v-6q0 -26 -18 -40q-16 -18 -40 -14z" />
    <glyph glyph-name="less" unicode="&#x3c;" horiz-adv-x="518" 
d="M360 744q36 4 56 -32q16 -32 -10 -62l-256 -278l256 -278q26 -26 10 -60q-4 -10 -14 -18q-26 -26 -62 -12q-8 6 -16 14l-292 316q-26 28 -12 62q4 8 12 14l292 314q14 20 36 20z" />
    <glyph glyph-name="equal" unicode="=" horiz-adv-x="574" 
d="M426 440h-308q-34 0 -50 26q-16 28 0 56t50 28h308q32 0 50 -28q16 -28 0 -56q-18 -26 -50 -26zM426 202h-308q-34 0 -50 28t0 56q16 30 50 30h308q32 0 50 -30q16 -28 0 -56q-18 -28 -50 -28z" />
    <glyph glyph-name="greater" unicode="&#x3e;" horiz-adv-x="520" 
d="M120 740q20 0 38 -20l290 -314q8 -6 12 -16q14 -32 -12 -60l-290 -316q-8 -10 -18 -14q-36 -16 -62 10q-10 8 -14 18q-16 36 10 62l258 278l-258 278q-26 30 -10 62q20 36 56 32z" />
    <glyph glyph-name="question" unicode="?" horiz-adv-x="614" 
d="M200 8q-32 4 -42 34q-4 10 -4 18v10q0 30 26 48q28 14 56 0q24 -18 24 -48v-10q0 -22 -18 -38t-42 -14zM224 604q-40 0 -40 -16q0 -34 -28 -50q-28 -18 -56 0q-28 16 -28 50q0 48 48 92q2 4 8 10q40 26 96 26h114q64 2 112 -36q52 -40 64 -124q2 -8 2 -16q0 -96 -84 -144
q-54 -34 -118 -34q-14 -2 -26 -6q-12 -8 -12 -14q-4 -6 -4 -22v-48q0 -32 -28 -50q-28 -16 -58 0q-26 18 -26 50v48q0 74 56 120q10 10 24 16q38 20 74 18q34 0 62 16t28 50q0 38 -22 52q-18 12 -44 12h-114z" />
    <glyph glyph-name="at" unicode="@" horiz-adv-x="1000" 
d="M692 -100v0q-54 -2 -92 32q-40 38 -46 110q-34 -10 -74 -16q-50 0 -96 30q-10 4 -16 12q-72 64 -72 184q0 136 88 196q40 28 88 28v2h8q60 6 114 -36q68 -58 68 -174v-188q-2 -28 6 -48q4 -14 12 -20q0 -4 8 -4h4v4q8 4 20 16q52 60 52 224q0 286 -284 286
q-96 0 -160 -62q-84 -74 -84 -224q0 -136 68 -204q24 -28 60 -40q12 -4 20 -8q30 -24 20 -60q-2 -12 -8 -20q-24 -30 -58 -20q-60 16 -114 66q-100 102 -100 286q4 194 120 308q98 90 236 90q150 0 248 -70q12 -8 26 -20q122 -104 122 -308q0 -208 -78 -296
q-44 -56 -102 -56h-4zM552 268q0 24 -4 42q-10 54 -64 58v0q-4 0 -4 -2q-16 0 -36 -10q-38 -28 -38 -104v-12q4 -92 74 -102q20 0 38 10q6 4 10 4q24 14 24 56v60z" />
    <glyph glyph-name="A" unicode="A" 
d="M406 60q0 -40 -14 -58q-16 -18 -40 -16q-36 2 -48 34q-62 -32 -136 -8q-18 8 -34 18q-66 42 -84 126q-28 132 34 224q56 76 146 76q38 0 76 -20q18 -10 34 -24q60 -54 66 -148v-204zM226 348q-10 0 -22 -4q-40 -12 -48 -52q-16 -60 0 -122q0 -8 4 -16q16 -38 56 -44
q24 -2 38 2q40 16 46 82q2 92 -12 118q-22 36 -62 36z" />
    <glyph glyph-name="B" unicode="B" horiz-adv-x="472" 
d="M240 0q-46 -4 -92 20q-98 56 -98 198v386q0 14 6 24q12 32 46 32q22 0 38 -18q16 -14 16 -38v-150q36 14 84 20q64 0 116 -46q76 -64 76 -190q0 -26 -4 -48q-16 -110 -88 -158q-44 -30 -92 -32v0h-8zM156 218q0 -20 2 -38q10 -76 76 -76h6q20 2 40 16q46 32 46 118
t-46 116q-16 10 -40 14q-22 0 -44 -12l-12 -6q-28 -18 -28 -66v-66z" />
    <glyph glyph-name="C" unicode="C" horiz-adv-x="420" 
d="M242 476q62 0 112 -32q26 -18 26 -48q-4 -32 -32 -46q-28 -12 -52 6q-22 12 -54 12q-26 0 -50 -14q-44 -30 -44 -114v-2q0 -90 42 -118q22 -14 52 -14q32 0 54 14q24 20 52 6t32 -46q0 -32 -26 -46q-50 -34 -112 -34t-108 32q-92 58 -92 208q0 128 78 192q50 44 122 44z
" />
    <glyph glyph-name="D" unicode="D" horiz-adv-x="472" 
d="M424 218q0 -38 -8 -70q-20 -92 -88 -128q-48 -24 -96 -20v0h-4h-2v0q-46 2 -90 32l-16 10q-78 68 -78 194q0 144 94 206q38 26 96 30q42 0 86 -20v152q0 14 4 24q14 32 48 32q24 0 38 -18q16 -14 16 -38v-386zM318 282q0 22 -4 38q-8 20 -36 36q-18 8 -46 12
q-16 0 -40 -14q-44 -30 -44 -118q2 -76 44 -116q18 -10 40 -16h8q20 -2 38 10q42 18 40 104v64z" />
    <glyph glyph-name="E" unicode="E" horiz-adv-x="460" 
d="M246 110q70 0 88 12q24 20 54 10q28 -12 32 -44q4 -30 -20 -48q-32 -24 -72 -34q-28 -6 -100 -4q-50 0 -100 34q-86 64 -92 194v22q8 136 92 194q52 34 112 34q44 0 84 -20q96 -60 96 -200v-20q0 -10 -4 -20q-14 -32 -50 -32h-218q14 -68 80 -78h18zM240 372h-4h-8
q-20 0 -40 -12q-32 -22 -40 -66h164v4q-8 50 -40 66q-14 8 -32 8z" />
    <glyph glyph-name="F" unicode="F" horiz-adv-x="390" 
d="M284 660l28 -4q30 -8 40 -38q8 -32 -16 -54q-22 -22 -52 -12l-34 4q-18 0 -28 -12q-10 -10 -10 -40v-50h86q30 2 46 -26t0 -52q-16 -28 -46 -28h-86v-296q0 -32 -24 -48q-28 -16 -56 0q-26 16 -26 48v296h-12q-32 0 -48 28q-14 24 0 52q16 28 48 26h12v50q0 68 34 108
q28 36 78 46q32 6 66 2z" />
    <glyph glyph-name="G" unicode="G" horiz-adv-x="472" 
d="M424 52q0 -144 -64 -202q-20 -14 -42 -24q-30 -10 -104 -10h-8l-46 10q-2 0 -16 2q-46 14 -68 52q-16 24 -2 52t46 28q30 0 46 -26l-2 6l24 -12q14 -4 30 -6q62 0 76 10q20 16 24 88q-38 -16 -84 -20q-50 0 -98 32l-16 12q-78 66 -78 194q0 26 4 50q16 108 90 156
q48 32 110 32t108 -36q70 -62 70 -184v-204zM244 370h-4q-2 -2 -6 -2q-18 0 -40 -12q-46 -32 -46 -118v-6q2 -114 86 -126q24 2 46 14l10 2q30 18 30 70v64q0 84 -42 104q-14 10 -34 10z" />
    <glyph glyph-name="H" unicode="H" horiz-adv-x="478" 
d="M52 56v552q0 32 28 50q12 4 24 4q24 0 38 -14q16 -16 16 -40v-152q42 20 84 20q98 0 150 -70q44 -54 42 -120v-230q2 -32 -26 -48q-28 -14 -52 0q-28 16 -28 48v230q-8 68 -48 80q-14 6 -38 6q-50 0 -66 -32t-18 -54v-230q0 -40 -38 -52q-32 -8 -56 16q-12 14 -12 36z
" />
    <glyph glyph-name="I" unicode="I" horiz-adv-x="204" 
d="M100 668q22 4 40 -12q18 -18 18 -42v-8q0 -30 -26 -46q-28 -16 -54 0t-26 46v8q0 10 4 18q10 32 44 36zM104 476q24 0 38 -16q16 -16 16 -38v-368q0 -30 -26 -46q-28 -16 -54 0t-26 46v368q0 12 6 22q12 32 46 32z" />
    <glyph glyph-name="J" unicode="J" horiz-adv-x="270" 
d="M156 664q24 0 40 -14q16 -18 14 -40v-10q2 -28 -26 -44q-24 -16 -52 0t-28 44v10q0 12 6 22q14 30 46 32zM156 480q24 0 40 -16t14 -38v-454q0 -66 -32 -108q-46 -52 -134 -48l-40 8q-28 6 -36 36t12 52q24 22 56 12q44 -10 60 8q8 12 8 40v454q0 14 6 22q14 32 46 32z
" />
    <glyph glyph-name="K" unicode="K" horiz-adv-x="436" 
d="M90 670q22 0 38 -16t16 -38v-294l170 162q26 24 60 10q8 -4 16 -12q24 -26 10 -58q-6 -10 -12 -18l-124 -116l150 -204q22 -30 2 -60q-6 -8 -14 -14q-28 -22 -60 -2q-8 4 -14 12l-142 194l-42 -40v-122q0 -30 -26 -46q-28 -16 -54 0t-26 46v562q0 34 30 48q10 6 22 6z
" />
    <glyph glyph-name="L" unicode="L" horiz-adv-x="202" 
d="M156 600v-548q0 -10 -4 -20q-14 -30 -48 -30q-12 0 -22 4q-30 14 -30 46v548q0 14 4 24q16 30 48 30q12 0 20 -4q32 -14 32 -50z" />
    <glyph glyph-name="M" unicode="M" horiz-adv-x="628" 
d="M203 478q68 0 116 -42q48 42 114 42q84 0 132 -60q38 -46 36 -104v-258q0 -30 -26 -46t-54 0q-26 16 -26 46v258q-6 43 -32 54q-10 4 -30 4q-38 0 -50 -20q-10 -18 -12 -38v-111q0 -30 -26 -46t-54 0q-26 14 -26 46v111q-6 43 -32 54q-10 4 -30 4q-36 0 -48 -20
q-12 -21 -14 -38v-258q2 -30 -26 -46q-26 -16 -54 0q-26 16 -26 46v258q8 124 112 156q26 8 56 8z" />
    <glyph glyph-name="N" unicode="N" horiz-adv-x="466" 
d="M48 280q0 70 42 122q50 64 146 64q144 -14 178 -130q6 -26 8 -56v-228q0 -32 -30 -46q-12 -6 -22 -6q-34 0 -46 32q-4 10 -4 20v228q-4 74 -84 82q-68 0 -82 -64q-2 -10 -2 -18v-228q0 -32 -32 -46q-8 -6 -20 -6q-34 0 -48 32q-4 10 -4 20v228z" />
    <glyph glyph-name="O" unicode="O" horiz-adv-x="482" 
d="M242 474q64 0 112 -32q90 -68 90 -204q0 -146 -90 -206q-50 -32 -112 -32q-70 0 -124 40q-76 64 -74 198q0 142 90 202q48 34 108 34zM148 230q0 -126 94 -126q98 0 98 134q0 130 -98 130q-26 0 -50 -16q-44 -28 -44 -114v-8z" />
    <glyph glyph-name="P" unicode="P" horiz-adv-x="468" 
d="M244 474v-2q50 0 92 -30q92 -62 92 -204q0 -26 -2 -48q-16 -108 -90 -158q-40 -26 -98 -32q-42 0 -86 20v-152q0 -30 -24 -46q-28 -16 -56 0q-24 16 -24 46v388q0 36 8 68q20 94 88 130q44 24 94 20h6zM152 192q0 -24 6 -40q14 -36 80 -46q20 0 40 14q44 32 44 118
q0 98 -62 126l-22 4h-6q-20 2 -38 -8q-42 -20 -42 -104v-64z" />
    <glyph glyph-name="Q" unicode="Q" horiz-adv-x="492" 
d="M226 474h6q52 4 96 -20q68 -36 88 -130q8 -32 8 -68v-388q0 -30 -24 -46q-28 -16 -56 0q-26 16 -26 46v152q-44 -20 -86 -20q-56 6 -96 32q-94 64 -94 206t94 204q44 30 90 30v2zM318 192v64q2 84 -40 104q-18 10 -38 8h-8l-20 -4q-10 -4 -20 -10q-44 -30 -44 -116
t44 -118q24 -14 40 -14q28 4 46 14q28 12 36 32q4 16 4 40z" />
    <glyph glyph-name="R" unicode="R" horiz-adv-x="404" 
d="M228 476q112 0 168 -98q16 -30 0 -58q-16 -26 -52 -24q-28 4 -44 34q-12 28 -36 34q-12 4 -36 4q-50 0 -68 -28q-2 -4 -6 -10q-10 -22 -12 -46v-230q0 -30 -24 -46q-28 -16 -54 0t-26 46v230q10 138 122 178q32 14 68 14z" />
    <glyph glyph-name="S" unicode="S" horiz-adv-x="414" 
d="M198 478q58 0 100 -22q68 -38 58 -86q-4 -30 -38 -40q-30 -8 -50 14q-28 42 -90 34q-4 0 -6 -2q-34 -4 -46 -34q-6 -16 4 -34q24 -16 78 -14q32 0 48 -4q64 -6 104 -64q26 -36 24 -78q2 -64 -52 -106q-22 -16 -46 -24q-106 -34 -188 0q-66 32 -78 76q-8 34 26 54
q32 20 58 -2q4 -2 6 -4q34 -44 120 -30q34 2 46 26q8 14 0 30q-18 20 -64 20q-100 -4 -146 40q-50 42 -46 110q0 44 26 78q46 64 148 62h4z" />
    <glyph glyph-name="T" unicode="T" horiz-adv-x="346" 
d="M148 664q24 0 40 -16t14 -38v-138h66q32 0 48 -28q16 -24 0 -52t-48 -26h-66v-208q0 -30 10 -40q6 -8 20 -10q16 -6 40 2q32 10 56 -14q20 -20 12 -52q-8 -30 -38 -38l-38 -6q-88 -6 -132 48q-36 42 -36 110v208h-32q-32 -2 -46 26q-16 28 0 52q14 28 46 28h32v138
q0 32 28 50q12 4 24 4z" />
    <glyph glyph-name="U" unicode="U" horiz-adv-x="476" 
d="M100 476q22 0 40 -16q16 -16 16 -40v-228q0 -28 10 -46q14 -26 34 -34q18 -6 40 -6q50 0 68 30l6 10q10 22 10 46v228q0 32 28 48t52 0q28 -16 28 -48v-228q-12 -138 -124 -180q-32 -12 -68 -12q-96 0 -150 72q-10 12 -18 26q-24 46 -24 94v228q0 36 30 50q10 6 22 6z
" />
    <glyph glyph-name="V" unicode="V" horiz-adv-x="456" 
d="M70 484q34 2 50 -28l4 -8q44 -190 80 -278l16 -32q4 -6 8 6q44 94 94 284q4 40 36 52l8 4q34 8 58 -22q16 -18 12 -40q-22 -98 -60 -214q-40 -110 -66 -150q-8 -12 -16 -22q-28 -38 -74 -36q-10 0 -20 4q-50 16 -88 96q-4 6 -6 14q-48 112 -90 302q-8 34 22 58
q14 12 32 10z" />
    <glyph glyph-name="W" unicode="W" horiz-adv-x="620" 
d="M86 474q30 2 46 -26q6 -10 6 -22v-206l2 -64q2 -14 8 -26q12 -30 72 -24q32 2 40 48q2 2 2 4l2 90v4q6 28 38 38q26 6 46 -10q22 -16 20 -60l2 -64q2 -14 8 -26q10 -26 72 -24q32 2 40 48q2 4 2 6v246q-4 46 26 62q28 18 58 -4q20 -14 22 -36v-236q4 -86 -38 -136
q-48 -58 -130 -58q-68 2 -114 44q-58 -52 -138 -42q-34 4 -62 20q-62 32 -78 104q-4 14 -4 28v260q-6 34 22 54q14 10 30 8z" />
    <glyph glyph-name="X" unicode="X" horiz-adv-x="496" 
d="M74 476q26 0 42 -20l108 -134l108 134q20 24 50 20q30 -6 42 -34q10 -28 -10 -52l-122 -152l122 -150q20 -24 10 -54q-12 -28 -42 -32q-30 -6 -50 18l-108 134l-108 -134q-20 -24 -50 -18q-30 4 -42 32q-10 30 10 54l122 150l-122 152q-22 26 -8 56t48 30z" />
    <glyph glyph-name="Y" unicode="Y" horiz-adv-x="482" 
d="M432 422v-392q0 -120 -52 -170q-42 -44 -138 -44q-92 -12 -168 34q-26 16 -26 46q0 32 28 46q26 16 52 -2q32 -18 108 -18h4q52 0 66 14q18 16 18 84q-56 -28 -120 -16q-128 34 -152 184q-4 24 -4 50v184q0 36 32 50q8 4 20 4q24 0 40 -16t16 -38v-184q0 -86 44 -118
q20 -14 40 -14q26 2 44 14q28 12 36 32q4 16 4 40v230q0 30 28 48q28 14 52 0q28 -18 28 -48z" />
    <glyph glyph-name="Z" unicode="Z" horiz-adv-x="434" 
d="M74 466h276q32 0 46 -30q16 -28 -4 -56l-210 -274h168q30 0 46 -26t0 -54q-16 -26 -46 -26h-276q-32 0 -48 30q-14 30 6 56l210 274h-168q-30 0 -46 26q-16 28 0 54t46 26z" />
    <glyph glyph-name="bracketleft" unicode="[" horiz-adv-x="426" 
d="M114 744h150q34 2 50 -26t0 -58q-16 -28 -50 -28h-88v-518h88q34 0 50 -30q16 -28 0 -56t-50 -28h-144q-36 0 -52 32q-6 12 -6 24v634q0 34 34 50q8 4 18 4z" />
    <glyph glyph-name="backslash" unicode="\" horiz-adv-x="1000" 
d="M286 696q24 -2 42 -24l436 -584q8 -8 10 -20q8 -36 -22 -58q-8 -8 -20 -10q-36 -8 -56 20l-440 584q-20 30 -4 62q18 34 54 30z" />
    <glyph glyph-name="bracketright" unicode="]" horiz-adv-x="430" 
d="M284 744q8 0 16 -4q34 -16 34 -50v-634q0 -12 -6 -24q-16 -32 -48 -32h-148q-32 0 -50 28t0 56q18 30 50 30h88v518h-88q-32 0 -50 28q-18 30 0 58t50 26h152z" />
    <glyph glyph-name="asciicircum" unicode="^" horiz-adv-x="526" 
d="M240 800q26 4 44 -14l148 -146q24 -22 16 -56q-8 -32 -40 -40t-56 16l-106 108l-106 -108q-22 -24 -56 -16q-32 8 -40 40q-8 34 16 56l146 146q14 14 34 14z" />
    <glyph glyph-name="underscore" unicode="_" horiz-adv-x="596" 
d="M478 0h-390q-32 0 -48 28q-18 28 0 56q16 28 48 28h390q32 0 48 -28t0 -56t-48 -28z" />
    <glyph glyph-name="grave" unicode="`" 
d="M283.076 533.453l-175.213 73.488q-31.3532 13.148 -35.279 45.16q-3.9238 32.007 21.6592 51.641q27.4308 18.859 56.9398 6.48102l175.213 -73.486q29.507 -12.378 33.435 -44.387q3.923 -32.008 -21.661 -51.641q-25.584 -19.633 -55.094 -7.25598z" />
    <glyph glyph-name="a" unicode="a" 
d="M406 60q0 -40 -14 -58q-16 -18 -40 -16q-36 2 -48 34q-62 -32 -136 -8q-18 8 -34 18q-66 42 -84 126q-28 132 34 224q56 76 146 76q38 0 76 -20q18 -10 34 -24q60 -54 66 -148v-204zM226 348q-10 0 -22 -4q-40 -12 -48 -52q-16 -60 0 -122q0 -8 4 -16q16 -38 56 -44
q24 -2 38 2q40 16 46 82q2 92 -12 118q-22 36 -62 36z" />
    <glyph glyph-name="b" unicode="b" horiz-adv-x="472" 
d="M240 0q-46 -4 -92 20q-98 56 -98 198v386q0 14 6 24q12 32 46 32q22 0 38 -18q16 -14 16 -38v-150q36 14 84 20q64 0 116 -46q76 -64 76 -190q0 -26 -4 -48q-16 -110 -88 -158q-44 -30 -92 -32v0h-8zM156 218q0 -20 2 -38q10 -76 76 -76h6q20 2 40 16q46 32 46 118
t-46 116q-16 10 -40 14q-22 0 -44 -12l-12 -6q-28 -18 -28 -66v-66z" />
    <glyph glyph-name="c" unicode="c" horiz-adv-x="420" 
d="M242 476q62 0 112 -32q26 -18 26 -48q-4 -32 -32 -46q-28 -12 -52 6q-22 12 -54 12q-26 0 -50 -14q-44 -30 -44 -114v-2q0 -90 42 -118q22 -14 52 -14q32 0 54 14q24 20 52 6t32 -46q0 -32 -26 -46q-50 -34 -112 -34t-108 32q-92 58 -92 208q0 128 78 192q50 44 122 44z
" />
    <glyph glyph-name="d" unicode="d" horiz-adv-x="472" 
d="M424 218q0 -38 -8 -70q-20 -92 -88 -128q-48 -24 -96 -20v0h-4h-2v0q-46 2 -90 32l-16 10q-78 68 -78 194q0 144 94 206q38 26 96 30q42 0 86 -20v152q0 14 4 24q14 32 48 32q24 0 38 -18q16 -14 16 -38v-386zM318 282q0 22 -4 38q-8 20 -36 36q-18 8 -46 12
q-16 0 -40 -14q-44 -30 -44 -118q2 -76 44 -116q18 -10 40 -16h8q20 -2 38 10q42 18 40 104v64z" />
    <glyph glyph-name="e" unicode="e" horiz-adv-x="470" 
d="M252 110q70 0 88 12q24 20 54 10q26 -12 30 -44q6 -30 -20 -48q-28 -24 -70 -34q-30 -6 -100 -4q-50 0 -98 34q-88 64 -94 194q-2 10 0 22q6 136 94 194q48 34 110 34q46 0 82 -20q96 -60 96 -200v-20q0 -10 -4 -20q-12 -32 -48 -32h-218q14 -68 80 -78h18zM244 372h-4
h-6q-18 0 -40 -12q-32 -22 -40 -66h164v4q-8 50 -40 66q-14 8 -34 8z" />
    <glyph glyph-name="f" unicode="f" horiz-adv-x="390" 
d="M284 660l28 -4q30 -8 40 -38q8 -32 -16 -54q-22 -22 -52 -12l-34 4q-18 0 -28 -12q-10 -10 -10 -40v-50h86q30 2 46 -26t0 -52q-16 -28 -46 -28h-86v-296q0 -32 -24 -48q-28 -16 -56 0q-26 16 -26 48v296h-12q-32 0 -48 28q-14 24 0 52q16 28 48 26h12v50q0 68 34 108
q28 36 78 46q32 6 66 2z" />
    <glyph glyph-name="g" unicode="g" horiz-adv-x="472" 
d="M424 52q0 -144 -64 -202q-20 -14 -42 -24q-30 -10 -104 -10h-8l-46 10q-2 0 -16 2q-46 14 -68 52q-16 24 -2 52t46 28q30 0 46 -26l-2 6l24 -12q14 -4 30 -6q62 0 76 10q20 16 24 88q-38 -16 -84 -20q-50 0 -98 32l-16 12q-78 66 -78 194q0 26 4 50q16 108 90 156
q48 32 110 32t108 -36q70 -62 70 -184v-204zM244 370h-4q-2 -2 -6 -2q-18 0 -40 -12q-46 -32 -46 -118v-6q2 -114 86 -126q24 2 46 14l10 2q30 18 30 70v64q0 84 -42 104q-14 10 -34 10z" />
    <glyph glyph-name="h" unicode="h" horiz-adv-x="478" 
d="M52 56v552q0 32 28 50q12 4 24 4q24 0 38 -14q16 -16 16 -40v-152q42 20 84 20q98 0 150 -70q44 -54 42 -120v-230q2 -32 -26 -48q-28 -14 -52 0q-28 16 -28 48v230q-8 68 -48 80q-14 6 -38 6q-50 0 -66 -32t-18 -54v-230q0 -40 -38 -52q-32 -8 -56 16q-12 14 -12 36z
" />
    <glyph glyph-name="i" unicode="i" horiz-adv-x="204" 
d="M100 668q22 4 40 -12q18 -18 18 -42v-8q0 -30 -26 -46q-28 -16 -54 0t-26 46v8q0 10 4 18q10 32 44 36zM104 476q24 0 38 -16q16 -16 16 -38v-368q0 -30 -26 -46q-28 -16 -54 0t-26 46v368q0 12 6 22q12 32 46 32z" />
    <glyph glyph-name="j" unicode="j" horiz-adv-x="270" 
d="M156 664q24 0 40 -14q16 -18 14 -40v-10q2 -28 -26 -44q-24 -16 -52 0t-28 44v10q0 12 6 22q14 30 46 32zM156 480q24 0 40 -16t14 -38v-454q0 -66 -32 -108q-46 -52 -134 -48l-40 8q-28 6 -36 36t12 52q24 22 56 12q44 -10 60 8q8 12 8 40v454q0 14 6 22q14 32 46 32z
" />
    <glyph glyph-name="k" unicode="k" horiz-adv-x="436" 
d="M90 670q22 0 38 -16t16 -38v-294l170 162q26 24 60 10q8 -4 16 -12q24 -26 10 -58q-6 -10 -12 -18l-124 -116l150 -204q22 -30 2 -60q-6 -8 -14 -14q-28 -22 -60 -2q-8 4 -14 12l-142 194l-42 -40v-122q0 -30 -26 -46q-28 -16 -54 0t-26 46v562q0 34 30 48q10 6 22 6z
" />
    <glyph glyph-name="l" unicode="l" horiz-adv-x="202" 
d="M156 600v-548q0 -10 -4 -20q-14 -30 -48 -30q-12 0 -22 4q-30 14 -30 46v548q0 14 4 24q16 30 48 30q12 0 20 -4q32 -14 32 -50z" />
    <glyph glyph-name="m" unicode="m" horiz-adv-x="628" 
d="M203 478q68 0 116 -42q48 42 114 42q84 0 132 -60q38 -46 36 -104v-258q0 -30 -26 -46t-54 0q-26 16 -26 46v258q-6 43 -32 54q-10 4 -30 4q-38 0 -50 -20q-10 -18 -12 -38v-111q0 -30 -26 -46t-54 0q-26 14 -26 46v111q-6 43 -32 54q-10 4 -30 4q-36 0 -48 -20
q-12 -21 -14 -38v-258q2 -30 -26 -46q-26 -16 -54 0q-26 16 -26 46v258q8 124 112 156q26 8 56 8z" />
    <glyph glyph-name="n" unicode="n" horiz-adv-x="466" 
d="M48 280q0 70 42 122q50 64 146 64q144 -14 178 -130q6 -26 8 -56v-228q0 -32 -30 -46q-12 -6 -22 -6q-34 0 -46 32q-4 10 -4 20v228q-4 74 -84 82q-68 0 -82 -64q-2 -10 -2 -18v-228q0 -32 -32 -46q-8 -6 -20 -6q-34 0 -48 32q-4 10 -4 20v228z" />
    <glyph glyph-name="o" unicode="o" horiz-adv-x="482" 
d="M242 474q64 0 112 -32q90 -68 90 -204q0 -146 -90 -206q-50 -32 -112 -32q-70 0 -124 40q-76 64 -74 198q0 142 90 202q48 34 108 34zM148 230q0 -126 94 -126q98 0 98 134q0 130 -98 130q-26 0 -50 -16q-44 -28 -44 -114v-8z" />
    <glyph glyph-name="p" unicode="p" horiz-adv-x="468" 
d="M244 474v-2q50 0 92 -30q92 -62 92 -204q0 -26 -2 -48q-16 -108 -90 -158q-40 -26 -98 -32q-42 0 -86 20v-152q0 -30 -24 -46q-28 -16 -56 0q-24 16 -24 46v388q0 36 8 68q20 94 88 130q44 24 94 20h6zM152 192q0 -24 6 -40q14 -36 80 -46q20 0 40 14q44 32 44 118
q0 98 -62 126l-22 4h-6q-20 2 -38 -8q-42 -20 -42 -104v-64z" />
    <glyph glyph-name="q" unicode="q" horiz-adv-x="492" 
d="M226 474h6q52 4 96 -20q68 -36 88 -130q8 -32 8 -68v-388q0 -30 -24 -46q-28 -16 -56 0q-26 16 -26 46v152q-44 -20 -86 -20q-56 6 -96 32q-94 64 -94 206t94 204q44 30 90 30v2zM318 192v64q2 84 -40 104q-18 10 -38 8h-8l-20 -4q-10 -4 -20 -10q-44 -30 -44 -116
t44 -118q24 -14 40 -14q28 4 46 14q28 12 36 32q4 16 4 40z" />
    <glyph glyph-name="r" unicode="r" 
d="M240 476q110 0 166 -98q16 -30 0 -58q-18 -26 -50 -24q-32 4 -44 34q-14 28 -36 34q-16 4 -36 4q-52 0 -70 -28q-2 -4 -6 -10q-10 -22 -12 -46v-230q0 -30 -24 -46q-28 -16 -54 0t-26 46v230q10 138 122 178q32 14 70 14z" />
    <glyph glyph-name="s" unicode="s" horiz-adv-x="414" 
d="M198 478q58 0 100 -22q68 -38 58 -86q-4 -30 -38 -40q-30 -8 -50 14q-28 42 -90 34q-4 0 -6 -2q-34 -4 -46 -34q-6 -16 4 -34q24 -16 78 -14q32 0 48 -4q64 -6 104 -64q26 -36 24 -78q2 -64 -52 -106q-22 -16 -46 -24q-106 -34 -188 0q-66 32 -78 76q-8 34 26 54
q32 20 58 -2q4 -2 6 -4q34 -44 120 -30q34 2 46 26q8 14 0 30q-18 20 -64 20q-100 -4 -146 40q-50 42 -46 110q0 44 26 78q46 64 148 62h4z" />
    <glyph glyph-name="t" unicode="t" horiz-adv-x="346" 
d="M148 664q24 0 40 -16t14 -38v-138h66q32 0 48 -28q16 -24 0 -52t-48 -26h-66v-208q0 -30 10 -40q6 -8 20 -10q16 -6 40 2q32 10 56 -14q20 -20 12 -52q-8 -30 -38 -38l-38 -6q-88 -6 -132 48q-36 42 -36 110v208h-32q-32 -2 -46 26q-16 28 0 52q14 28 46 28h32v138
q0 32 28 50q12 4 24 4z" />
    <glyph glyph-name="u" unicode="u" horiz-adv-x="476" 
d="M100 476q22 0 40 -16q16 -16 16 -40v-228q0 -28 10 -46q14 -26 34 -34q18 -6 40 -6q50 0 68 30l6 10q10 22 10 46v228q0 32 28 48t52 0q28 -16 28 -48v-228q-12 -138 -124 -180q-32 -12 -68 -12q-96 0 -150 72q-10 12 -18 26q-24 46 -24 94v228q0 36 30 50q10 6 22 6z
" />
    <glyph glyph-name="v" unicode="v" horiz-adv-x="456" 
d="M70 484q34 2 50 -28l4 -8q44 -190 80 -278l16 -32q4 -6 8 6q44 94 94 284q4 40 36 52l8 4q34 8 58 -22q16 -18 12 -40q-22 -98 -60 -214q-40 -110 -66 -150q-8 -12 -16 -22q-28 -38 -74 -36q-10 0 -20 4q-50 16 -88 96q-4 6 -6 14q-48 112 -90 302q-8 34 22 58
q14 12 32 10z" />
    <glyph glyph-name="w" unicode="w" horiz-adv-x="626" 
d="M86 474q30 2 46 -26q6 -10 6 -22v-206l2 -64q2 -14 8 -26q12 -30 72 -24q32 2 40 48q2 2 2 4l2 90v4q6 28 38 38q26 6 46 -10q22 -16 20 -60l2 -64q2 -14 8 -26q10 -26 72 -24q32 2 40 48q2 4 2 6v246q-4 46 26 62q28 18 58 -4q20 -14 22 -36v-236q4 -86 -38 -136
q-48 -58 -130 -58q-68 2 -114 44q-58 -52 -138 -42q-34 4 -62 20q-62 32 -78 104q-4 14 -4 28v260q-6 34 22 54q14 10 30 8z" />
    <glyph glyph-name="x" unicode="x" horiz-adv-x="496" 
d="M74 476q26 0 42 -20l108 -134l108 134q20 24 50 20q30 -6 42 -34q10 -28 -10 -52l-122 -152l122 -150q20 -24 10 -54q-12 -28 -42 -32q-30 -6 -50 18l-108 134l-108 -134q-20 -24 -50 -18q-30 4 -42 32q-10 30 10 54l122 150l-122 152q-22 26 -8 56t48 30z" />
    <glyph glyph-name="y" unicode="y" horiz-adv-x="464" 
d="M432 422v-392q0 -120 -52 -170q-42 -44 -138 -44q-92 -12 -168 34q-26 16 -26 46q0 32 28 46q26 16 52 -2q32 -18 108 -18h4q52 0 66 14q18 16 18 84q-56 -28 -120 -16q-128 34 -152 184q-4 24 -4 50v184q0 36 32 50q8 4 20 4q24 0 40 -16t16 -38v-184q0 -86 44 -118
q20 -14 40 -14q26 2 44 14q28 12 36 32q4 16 4 40v230q0 30 28 48q28 14 52 0q28 -18 28 -48z" />
    <glyph glyph-name="z" unicode="z" horiz-adv-x="434" 
d="M74 466h276q32 0 46 -30q16 -28 -4 -56l-210 -274h168q30 0 46 -26t0 -54q-16 -26 -46 -26h-276q-32 0 -48 30q-14 30 6 56l210 274h-168q-30 0 -46 26q-16 28 0 54t46 26z" />
    <glyph glyph-name="braceleft" unicode="{" horiz-adv-x="462" 
d="M230 700h96q34 0 50 -30t0 -56q-16 -30 -50 -28h-78v-90q0 -80 -24 -128q-4 -4 -16 -18q14 -16 16 -18q24 -46 24 -128v-90h78q34 0 50 -28t0 -56t-50 -28h-96q-46 0 -72 38q-18 20 -20 58q-2 16 -2 100q2 2 2 6q0 82 -28 88q-10 2 -28 2q-34 0 -42 38q-12 38 12 62
q12 12 30 12q34 0 40 12q16 14 16 78l-2 92q0 8 2 14q10 86 82 96q4 2 10 2z" />
    <glyph glyph-name="bar" unicode="|" horiz-adv-x="378" 
d="M240 716v-824q0 -12 -2 -20q-16 -32 -48 -32q-12 0 -22 6q-30 14 -30 46v824q0 10 2 22q16 28 50 28q10 0 22 -6q28 -12 28 -44z" />
    <glyph glyph-name="braceright" unicode="}" horiz-adv-x="494" 
d="M196 700q4 0 8 -2q76 -10 84 -96q2 -6 2 -14v-92q0 -52 10 -74q2 -4 4 -4q6 -12 38 -12q18 0 32 -12q22 -24 12 -62q-8 -38 -44 -38q-18 0 -26 -2q-26 -6 -26 -88q2 -84 -2 -106q-4 -38 -20 -58q-28 -38 -72 -38h-96q-34 0 -48 28q-18 28 0 56q14 28 48 28h78v90
q0 82 24 128q2 2 16 18q-14 14 -16 18q-24 48 -24 128v90h-78q-34 -2 -48 28q-18 26 0 56q14 30 48 30h96z" />
    <glyph glyph-name="brokenbar" unicode="&#xa6;" horiz-adv-x="162" 
d="M134 234v-180q0 -12 -4 -20q-12 -32 -48 -32q-12 0 -22 4q-30 14 -30 48v180q0 10 4 22q14 28 48 28q12 0 22 -4q30 -16 30 -46zM134 600v-178q0 -10 -4 -20q-12 -30 -48 -30q-12 0 -22 4q-30 12 -30 46v178q0 14 4 24q14 30 48 30q12 0 22 -4q30 -16 30 -50z" />
    <glyph glyph-name="questiondown" unicode="&#xbf;" horiz-adv-x="556" 
d="M168 708q22 4 40 -12q16 -16 16 -40v-8q0 -32 -24 -48q-28 -16 -54 0t-26 48v8q0 8 2 18q12 30 46 34zM190 114l112 -2q66 -2 66 66v16q-4 18 -28 32q-24 18 -60 18q-56 -4 -100 32q-54 48 -54 122v46q-2 34 28 50q26 18 56 0q30 -16 28 -50v-46q0 -18 2 -24t16 -14
q10 0 24 -4q64 0 120 -34q8 -4 18 -12q62 -50 62 -132v-18q-10 -84 -64 -124q-48 -36 -114 -36h-112q-58 2 -98 28l-8 8q-46 46 -46 94q0 32 26 50q30 16 56 0q30 -18 30 -50q0 -16 40 -16z" />
    <glyph glyph-name="acute" unicode="&#xb4;" 
d="M325.139 626.055l-165.139 -93.965q-29.549 -16.816 -57.305 -0.392029q-27.7516 16.423 -27.695 48.672q1.7988 33.239 29.611 49.064l165.137 93.965q27.813 15.825 55.568 -0.596985q27.752 -16.424 27.694 -48.673q-0.059021 -32.248 -27.871 -48.074z" />
    <glyph glyph-name="asciitilde" unicode="~" horiz-adv-x="470" 
d="M183.842 701.531q51.346 0 72.332 -13.644q20.988 -13.646 20.988 -42.466q0 -1.48804 -0.0390015 -4.00403q-0.110992 -7.21899 1.32202 -8.81299q1.43399 -1.59399 9.11398 -1.59399q9.02902 0 10.494 1.82898q1.465 1.82904 1.465 10.617
q0.460999 20.009 14.269 31.212q13.809 11.202 35.42 12.319q22.022 -0.224976 36.572 -15.133q14.549 -14.907 15.428 -36.867q0 -107.977 -107.648 -107.977q-40.145 0 -65.577 16.524q-25.433 16.525 -25.433 43.435q0 8.125 -1.377 9.34302
q-1.377 1.21899 -11.33 1.21899q-9.069 0 -10.574 -1.00598q-1.50601 -1.005 -1.414 -6.95801q0.0289917 -1.88104 0.0289917 -2.97302q-0.474991 -20.629 -15.856 -35.778q-15.381 -15.149 -36.144 -16.222q-22.02 0.224976 -36.5705 15.133
q-14.5508 14.907 -15.4297 36.867q0.00200653 58.342 26.1172 86.639q26.115 28.298 83.842 28.298z" />
    <glyph glyph-name="cedilla" unicode="&#xb8;" horiz-adv-x="310" 
d="M250.527 -18.6162q-1.601 -59.2969 -36.709 -95.4548q-35.107 -36.158 -90.242 -34.667q-21.287 0.88501 -35.5916 16.391q-14.3028 15.506 -14.9864 36.9935q0.6856 21.7285 16.045 35.0107q15.359 13.2823 37.287 13.5674q8.69499 -0.235302 14.242 7.0791
q5.547 7.3135 5.832 17.8906q0.353989 13.1641 -4.908 20.7881q-5.26401 7.625 -13.717 7.85352q-20.609 1.0332 -35.3376 16.8164q-14.7266 15.7842 -15.2402 36.5684q0.820297 22.0078 16.1152 36.1494q15.2946 14.1429 37.2716 14.4279q57.301 -1.549 89.412 -36.1593
q32.111 -34.6104 30.527 -93.2549z" />
    <glyph glyph-name="dieresis" unicode="&#xa8;" horiz-adv-x="388" 
d="M100 667.756q22.002 3.99902 40 -12q18 -18 18 -42v-8q0 -30 -26 -46q-28 -16 -54 0q-25.998 15.999 -26 46v8q0 9.99902 4 18q10.002 32 44 36zM280 663.756q27.877 0 40 -14q14 -16.168 14 -40v-10q0 -26.667 -26 -44q-24 -16 -52 0q-28 15.999 -28 44v10
q0 9.14203 6 22q14.934 32 46 32z" />
    <glyph glyph-name="circumflex" unicode="&#x2c6;" horiz-adv-x="468" 
d="M138.805 647.5q46.576 29.4 71.507 37.301q24.932 7.89996 49.688 0.44696q24.756 -7.45398 66.461 -36.686l39.75 -28.874q27.49 -19.98 23.969 -52.063q-3.51801 -32.045 -32.907 -45.281q-31.043 -12.075 -56.906 6.71802l-67.219 48.844l-69.75 -51.437
q-27.373 -20.192 -56.875 -7.15698q-29.4996 13.035 -33.2496 45.063q-2.1367 33.219 23.625 52.219z" />
    <glyph glyph-name="caron" unicode="&#x2c7;" horiz-adv-x="468" 
d="M320.195 551.5q-46.576 -29.4 -71.507 -37.301q-24.932 -7.89996 -49.688 -0.44696q-24.756 7.45398 -66.461 36.686l-39.7499 28.874q-27.4903 19.98 -23.9688 52.063q3.5176 32.045 32.9067 45.281q31.043 12.075 56.906 -6.71802l67.219 -48.844l69.75 51.437
q27.373 20.192 56.875 7.15698q29.5 -13.035 33.25 -45.063q2.13602 -33.219 -23.625 -52.219z" />
    <glyph glyph-name="ring" unicode="&#x2da;" horiz-adv-x="409" 
d="M193.59 766.086q59.32 0 96.41 -34.11t37.09 -89.265q-0.0979919 -6.55902 -1.81299 -12.875q1.55899 -6.08899 1.81299 -12.438q-0.00198364 -57.321 -33.731 -90.348q-33.726 -33.027 -92.394 -33.027q-59.32 0 -96.41 34.111q-37.0902 34.109 -37.0902 89.264
q0.0957031 6.65399 1.8125 12.938q-1.5644 6.12799 -1.8125 12.375q-0.00189972 57.321 33.7262 90.349q33.729 33.026 92.399 33.026zM197.934 662.086q-12.426 -0.372009 -19.448 -5.78802q-7.021 -5.41595 -7.021 -13.587q-0.190002 -8.15698 -3.065 -16
q0.879013 -4.664 1.065 -9.31299q-0.0019989 -8.69598 7.457 -14.036q7.459 -5.33899 18.043 -5.33899q13.17 0 20.648 5.45996q7.47699 5.46002 7.47699 13.915q0.189011 8.15399 3.06 16q-0.875 4.677 -1.06 9.31299q-0.0019989 8.69598 -7.461 14.035
q-7.457 5.34003 -18.039 5.34003h-1.65599z" />
    <glyph glyph-name="breve" unicode="&#x2d8;" horiz-adv-x="356" 
d="M178.09 529.637q-59.319 0 -96.4103 34.116q-37.0918 34.117 -37.0918 89.274q0.310501 21.303 15.4258 36.021q15.1133 14.718 36.5742 15.979q21.7401 -0.0979614 35.4321 -15.092q13.691 -14.995 14.568 -36.908q0 -8.69696 7.461 -14.044
q7.461 -5.34595 18.041 -5.34595q13.168 0 20.648 5.46698q7.48099 5.46698 7.48099 13.923q0.476013 20.63 15.857 35.7791q15.379 15.1479 36.143 16.2209q22.019 -0.224976 36.57 -15.132q14.551 -14.909 15.43 -36.868q0 -57.322 -33.733 -90.356
q-33.73 -33.034 -92.396 -33.034z" />
    <glyph glyph-name="tilde" unicode="&#x2dc;" horiz-adv-x="470" 
d="M183.842 701.531q51.346 0 72.332 -13.644q20.988 -13.646 20.988 -42.466q0 -1.48804 -0.0390015 -4.00403q-0.110992 -7.21899 1.32202 -8.81299q1.43399 -1.59399 9.11398 -1.59399q9.02902 0 10.494 1.82898q1.465 1.82904 1.465 10.617
q0.460999 20.009 14.269 31.212q13.809 11.202 35.42 12.319q22.022 -0.224976 36.572 -15.133q14.549 -14.907 15.428 -36.867q0 -107.977 -107.648 -107.977q-40.145 0 -65.577 16.524q-25.433 16.525 -25.433 43.435q0 8.125 -1.377 9.34302
q-1.377 1.21899 -11.33 1.21899q-9.069 0 -10.574 -1.00598q-1.50601 -1.005 -1.414 -6.95801q0.0289917 -1.88104 0.0289917 -2.97302q-0.474991 -20.629 -15.856 -35.778q-15.381 -15.149 -36.144 -16.222q-22.02 0.224976 -36.5705 15.133
q-14.5508 14.907 -15.4297 36.867q0.00200653 58.342 26.1172 86.639q26.115 28.298 83.842 28.298z" />
    <glyph glyph-name="ogonek" unicode="&#x2db;" horiz-adv-x="297" 
d="M61.4727 -19.3838q1.6015 59.2969 36.7089 95.4551q35.1074 36.1577 90.2424 34.6667q21.287 -0.885002 35.592 -16.3913q14.302 -15.5059 14.986 -36.9932q-0.686005 -21.7285 -16.045 -35.0107q-15.359 -13.2823 -37.287 -13.5674q-8.69499 0.235351 -14.242 -7.0791
q-5.547 -7.31348 -5.832 -17.8906q-0.353989 -13.1641 4.908 -20.7881q5.26401 -7.625 13.717 -7.8535q20.609 -1.0332 35.338 -16.8164q14.726 -15.7842 15.24 -36.5684q-0.819992 -22.0083 -16.115 -36.1493q-15.295 -14.143 -37.272 -14.428
q-57.301 1.54901 -89.412 36.159q-32.1113 34.6107 -30.5273 93.2552z" />
    <glyph glyph-name="hungarumlaut" unicode="&#x2dd;" horiz-adv-x="641" 
d="M572.129 626.055l-165.139 -93.965q-29.549 -16.816 -57.304 -0.392029q-27.752 16.423 -27.696 48.672q1.79901 33.239 29.612 49.064l165.136 93.965q27.813 15.825 55.569 -0.596985q27.752 -16.424 27.693 -48.673q-0.059021 -32.248 -27.871 -48.074z
M325.139 626.055l-165.139 -93.965q-29.549 -16.816 -57.305 -0.392029q-27.7516 16.423 -27.695 48.672q1.7988 33.239 29.611 49.064l165.137 93.965q27.813 15.825 55.568 -0.596985q27.752 -16.424 27.694 -48.673q-0.059021 -32.248 -27.871 -48.074z" />
    <glyph glyph-name="dotaccent" unicode="&#x2d9;" horiz-adv-x="213" 
d="M100 667.756q22.002 3.99902 40 -12q18 -18 18 -42v-8q0 -30 -26 -46q-28 -16 -54 0q-25.998 15.999 -26 46v8q0 9.99902 4 18q10.002 32 44 36z" />
    <glyph glyph-name="agrave" unicode="&#xe0;" 
d="M283.076 533.453l-175.213 73.4883q-31.3535 13.1475 -35.2793 45.1592q-3.92383 32.0078 21.6592 51.6416q27.4307 18.8584 56.9395 6.48047l175.214 -73.4854q29.5068 -12.3779 33.4346 -44.3877q3.92285 -32.0078 -21.6611 -51.6406t-55.0938 -7.25586zM406 60
q0 -40 -14 -58q-16 -18 -40 -16q-36 2 -48 34q-62 -32 -136 -8q-18 8 -34 18q-66 42 -84 126q-28 132 34 224q56 76 146 76q38 0 76 -20q18 -10 34 -24q60 -54 66 -148v-204zM226 348q-10 0 -22 -4q-40 -12 -48 -52q-16 -60 0 -122q0 -8 4 -16q16 -38 56 -44q24 -2 38 2
q40 16 46 82q2 92 -12 118q-22 36 -62 36z" />
    <glyph glyph-name="aacute" unicode="&#xe1;" 
d="M353.139 626.055l-165.139 -93.9648q-29.5488 -16.8154 -57.3047 -0.391602q-27.752 16.4229 -27.6953 48.6719q1.79883 33.2393 29.6113 49.0635l165.137 93.9658q27.8125 15.8242 55.5684 -0.597656q27.752 -16.4238 27.6934 -48.6729
q-0.0585938 -32.248 -27.8711 -48.0742zM406 60q0 -40 -14 -58q-16 -18 -40 -16q-36 2 -48 34q-62 -32 -136 -8q-18 8 -34 18q-66 42 -84 126q-28 132 34 224q56 76 146 76q38 0 76 -20q18 -10 34 -24q60 -54 66 -148v-204zM226 348q-10 0 -22 -4q-40 -12 -48 -52
q-16 -60 0 -122q0 -8 4 -16q16 -38 56 -44q24 -2 38 2q40 16 46 82q2 92 -12 118q-22 36 -62 36z" />
    <glyph glyph-name="acircumflex" unicode="&#xe2;" 
d="M138.805 647.5q46.5762 29.4004 71.5068 37.3008q24.9326 7.90039 49.6885 0.447266q24.7559 -7.4541 66.4609 -36.6855l39.75 -28.875q27.4902 -19.9795 23.9688 -52.0625q-3.51758 -32.0449 -32.9062 -45.2812q-31.043 -12.0752 -56.9062 6.71875l-67.2188 48.8438
l-69.75 -51.4375q-27.373 -20.1914 -56.875 -7.15625q-29.5 13.0342 -33.25 45.0625q-2.13672 33.2188 23.625 52.2188zM406 60q0 -40 -14 -58q-16 -18 -40 -16q-36 2 -48 34q-62 -32 -136 -8q-18 8 -34 18q-66 42 -84 126q-28 132 34 224q56 76 146 76q38 0 76 -20
q18 -10 34 -24q60 -54 66 -148v-204zM226 348q-10 0 -22 -4q-40 -12 -48 -52q-16 -60 0 -122q0 -8 4 -16q16 -38 56 -44q24 -2 38 2q40 16 46 82q2 92 -12 118q-22 36 -62 36z" />
    <glyph glyph-name="atilde" unicode="&#xe3;" 
d="M162.842 701.531q51.3467 0 72.332 -13.6445q20.9883 -13.6455 20.9883 -42.4658q0 -1.48828 -0.0390625 -4.00391q-0.111328 -7.21875 1.32227 -8.81348q1.43359 -1.59375 9.11328 -1.59375q9.0293 0 10.4941 1.8291t1.46484 10.6172q0.460938 20.0088 14.2695 31.2119
q13.8086 11.2021 35.4199 12.3193q22.0215 -0.225586 36.5723 -15.1338q14.5488 -14.9062 15.4277 -36.8662q0 -107.978 -107.648 -107.978q-40.1445 0 -65.5762 16.5244q-25.4336 16.5244 -25.4336 43.4346q0 8.125 -1.37695 9.34375t-11.3301 1.21875
q-9.06836 0 -10.5742 -1.00586t-1.41406 -6.95801q0.0292969 -1.88184 0.0292969 -2.97363q-0.474609 -20.6289 -15.8555 -35.7773q-15.3809 -15.1494 -36.1445 -16.2227q-22.0195 0.225586 -36.5703 15.1328t-15.4297 36.8672q0.00195312 58.3418 26.1172 86.6396
t83.8418 28.2979zM406 60q0 -40 -14 -58q-16 -18 -40 -16q-36 2 -48 34q-62 -32 -136 -8q-18 8 -34 18q-66 42 -84 126q-28 132 34 224q56 76 146 76q38 0 76 -20q18 -10 34 -24q60 -54 66 -148v-204zM226 348q-10 0 -22 -4q-40 -12 -48 -52q-16 -60 0 -122q0 -8 4 -16
q16 -38 56 -44q24 -2 38 2q40 16 46 82q2 92 -12 118q-22 36 -62 36z" />
    <glyph glyph-name="adieresis" unicode="&#xe4;" 
d="M133 667.756q22.002 3.99902 40 -12q18 -18 18 -42v-8q0 -30 -26 -46q-28 -16 -54 0q-25.998 15.999 -26 46v8q0 9.99902 4 18q10.002 32 44 36zM313 663.756q27.877 0 40 -14q14 -16.168 14 -40v-10q0 -26.667 -26 -44q-24 -16 -52 0q-28 15.999 -28 44v10
q0 9.14258 6 22q14.9336 32 46 32zM406 60q0 -40 -14 -58q-16 -18 -40 -16q-36 2 -48 34q-62 -32 -136 -8q-18 8 -34 18q-66 42 -84 126q-28 132 34 224q56 76 146 76q38 0 76 -20q18 -10 34 -24q60 -54 66 -148v-204zM226 348q-10 0 -22 -4q-40 -12 -48 -52q-16 -60 0 -122
q0 -8 4 -16q16 -38 56 -44q24 -2 38 2q40 16 46 82q2 92 -12 118q-22 36 -62 36z" />
    <glyph glyph-name="aring" unicode="&#xe5;" 
d="M231.09 766.086q59.3203 0 96.4102 -34.1104q37.0898 -34.1094 37.0898 -89.2646q-0.0976562 -6.55859 -1.8125 -12.875q1.55859 -6.08887 1.8125 -12.4375q-0.00195312 -57.3213 -33.7305 -90.3486q-33.7266 -33.0264 -92.3945 -33.0264q-59.3203 0 -96.4102 34.1104
q-37.0898 34.1094 -37.0898 89.2646q0.0957031 6.65332 1.8125 12.9375q-1.56445 6.12793 -1.8125 12.375q-0.00195312 57.3213 33.7266 90.3486q33.7285 33.0264 92.3984 33.0264zM235.434 662.086q-12.4258 -0.37207 -19.4473 -5.78809t-7.02148 -13.5869
q-0.189453 -8.15723 -3.06445 -16q0.878906 -4.66406 1.06445 -9.3125q-0.00195312 -8.69629 7.45703 -14.0361q7.45898 -5.33887 18.043 -5.33887q13.1699 0 20.6484 5.45996q7.47656 5.45996 7.47656 13.915q0.189453 8.15332 3.06055 16q-0.875 4.67676 -1.06055 9.3125
q-0.00195312 8.69629 -7.46094 14.0352q-7.45703 5.33984 -18.0391 5.33984h-1.65625zM406 60q0 -40 -14 -58q-16 -18 -40 -16q-36 2 -48 34q-62 -32 -136 -8q-18 8 -34 18q-66 42 -84 126q-28 132 34 224q56 76 146 76q38 0 76 -20q18 -10 34 -24q60 -54 66 -148v-204z
M226 348q-10 0 -22 -4q-40 -12 -48 -52q-16 -60 0 -122q0 -8 4 -16q16 -38 56 -44q24 -2 38 2q40 16 46 82q2 92 -12 118q-22 36 -62 36z" />
    <glyph glyph-name="amacron" unicode="&#x101;" 
d="M406 60q0 -40 -14 -58q-16 -18 -40 -16q-36 2 -48 34q-62 -32 -136 -8q-18 8 -34 18q-66 42 -84 126q-28 132 34 224q56 76 146 76q38 0 76 -20q18 -10 34 -24q60 -54 66 -148v-204zM226 348q-10 0 -22 -4q-40 -12 -48 -52q-16 -60 0 -122q0 -8 4 -16q16 -38 56 -44
q24 -2 38 2q40 16 46 82q2 92 -12 118q-22 36 -62 36z" />
    <glyph glyph-name="abreve" unicode="&#x103;" 
d="M232.09 529.637q-59.3184 0 -96.4102 34.1162q-37.0918 34.1172 -37.0918 89.2744q0.310547 21.3027 15.4258 36.0205q15.1133 14.7178 36.5742 15.9795q21.7402 -0.0986328 35.4316 -15.0928t14.5684 -36.9072q0 -8.69727 7.46094 -14.0439t18.041 -5.34668
q13.168 0 20.6484 5.4668q7.48047 5.46777 7.48047 13.9238q0.476562 20.6299 15.8574 35.7783q15.3789 15.1484 36.1426 16.2217q22.0195 -0.225586 36.5703 -15.1328q14.5508 -14.9082 15.4297 -36.8672q0 -57.3223 -33.7324 -90.3564
q-33.7305 -33.0342 -92.3965 -33.0342zM406 60q0 -40 -14 -58q-16 -18 -40 -16q-36 2 -48 34q-62 -32 -136 -8q-18 8 -34 18q-66 42 -84 126q-28 132 34 224q56 76 146 76q38 0 76 -20q18 -10 34 -24q60 -54 66 -148v-204zM226 348q-10 0 -22 -4q-40 -12 -48 -52
q-16 -60 0 -122q0 -8 4 -16q16 -38 56 -44q24 -2 38 2q40 16 46 82q2 92 -12 118q-22 36 -62 36z" />
    <glyph glyph-name="aogonek" unicode="&#x105;" 
d="M227.973 -19.3838q1.60156 59.2969 36.709 95.4551q35.1074 36.1572 90.2422 34.667q21.2871 -0.885742 35.5918 -16.3916q14.3027 -15.5059 14.9863 -36.9932q-0.685547 -21.7285 -16.0449 -35.0107t-37.2871 -13.5674q-8.69531 0.235352 -14.2422 -7.0791
q-5.54688 -7.31348 -5.83203 -17.8906q-0.353516 -13.1641 4.9082 -20.7881q5.26367 -7.625 13.7168 -7.85352q20.6094 -1.0332 35.3379 -16.8164q14.7266 -15.7842 15.2402 -36.5684q-0.820312 -22.0078 -16.1152 -36.1494q-15.2949 -14.1426 -37.2715 -14.4277
q-57.3008 1.54883 -89.4121 36.1592t-30.5273 93.2549zM406 60q0 -40 -14 -58q-16 -18 -40 -16q-36 2 -48 34q-62 -32 -136 -8q-18 8 -34 18q-66 42 -84 126q-28 132 34 224q56 76 146 76q38 0 76 -20q18 -10 34 -24q60 -54 66 -148v-204zM226 348q-10 0 -22 -4
q-40 -12 -48 -52q-16 -60 0 -122q0 -8 4 -16q16 -38 56 -44q24 -2 38 2q40 16 46 82q2 92 -12 118q-22 36 -62 36z" />
    <glyph glyph-name="uni01CE" unicode="&#x1ce;" 
d="M320.195 551.5q-46.5762 -29.4004 -71.5068 -37.3008q-24.9326 -7.90039 -49.6885 -0.447266q-24.7559 7.4541 -66.4609 36.6855l-39.75 28.875q-27.4902 19.9795 -23.9688 52.0625q3.51758 32.0449 32.9062 45.2812q31.043 12.0752 56.9062 -6.71875l67.2188 -48.8438
l69.75 51.4375q27.373 20.1914 56.875 7.15625q29.5 -13.0342 33.25 -45.0625q2.13672 -33.2188 -23.625 -52.2188zM406 60q0 -40 -14 -58q-16 -18 -40 -16q-36 2 -48 34q-62 -32 -136 -8q-18 8 -34 18q-66 42 -84 126q-28 132 34 224q56 76 146 76q38 0 76 -20
q18 -10 34 -24q60 -54 66 -148v-204zM226 348q-10 0 -22 -4q-40 -12 -48 -52q-16 -60 0 -122q0 -8 4 -16q16 -38 56 -44q24 -2 38 2q40 16 46 82q2 92 -12 118q-22 36 -62 36z" />
    <glyph glyph-name="aringacute" unicode="&#x1fb;" 
d="M219.09 766.086q59.3203 0 96.4102 -34.1104q37.0898 -34.1094 37.0898 -89.2646q-0.0976562 -6.55859 -1.8125 -12.875q1.55859 -6.08887 1.8125 -12.4375q-0.00195312 -57.3213 -33.7305 -90.3486q-33.7266 -33.0264 -92.3945 -33.0264q-59.3203 0 -96.4102 34.1104
q-37.0898 34.1094 -37.0898 89.2646q0.0957031 6.65332 1.8125 12.9375q-1.56445 6.12793 -1.8125 12.375q-0.00195312 57.3213 33.7266 90.3486q33.7285 33.0264 92.3984 33.0264zM223.434 662.086q-12.4258 -0.37207 -19.4473 -5.78809t-7.02148 -13.5869
q-0.189453 -8.15723 -3.06445 -16q0.878906 -4.66406 1.06445 -9.3125q-0.00195312 -8.69629 7.45703 -14.0361q7.45898 -5.33887 18.043 -5.33887q13.1699 0 20.6484 5.45996q7.47656 5.45996 7.47656 13.915q0.189453 8.15332 3.06055 16q-0.875 4.67676 -1.06055 9.3125
q-0.00195312 8.69629 -7.46094 14.0352q-7.45703 5.33984 -18.0391 5.33984h-1.65625zM406 60q0 -40 -14 -58q-16 -18 -40 -16q-36 2 -48 34q-62 -32 -136 -8q-18 8 -34 18q-66 42 -84 126q-28 132 34 224q56 76 146 76q38 0 76 -20q18 -10 34 -24q60 -54 66 -148v-204z
M226 348q-10 0 -22 -4q-40 -12 -48 -52q-16 -60 0 -122q0 -8 4 -16q16 -38 56 -44q24 -2 38 2q40 16 46 82q2 92 -12 118q-22 36 -62 36z" />
    <glyph glyph-name="aeacute" unicode="&#x1fd;" 
d="M406 60q0 -40 -14 -58q-16 -18 -40 -16q-36 2 -48 34q-62 -32 -136 -8q-18 8 -34 18q-66 42 -84 126q-28 132 34 224q56 76 146 76q38 0 76 -20q18 -10 34 -24q60 -54 66 -148v-204zM226 348q-10 0 -22 -4q-40 -12 -48 -52q-16 -60 0 -122q0 -8 4 -16q16 -38 56 -44
q24 -2 38 2q40 16 46 82q2 92 -12 118q-22 36 -62 36z" />
    <glyph glyph-name="uni0201" unicode="&#x201;" 
d="M406 60q0 -40 -14 -58q-16 -18 -40 -16q-36 2 -48 34q-62 -32 -136 -8q-18 8 -34 18q-66 42 -84 126q-28 132 34 224q56 76 146 76q38 0 76 -20q18 -10 34 -24q60 -54 66 -148v-204zM226 348q-10 0 -22 -4q-40 -12 -48 -52q-16 -60 0 -122q0 -8 4 -16q16 -38 56 -44
q24 -2 38 2q40 16 46 82q2 92 -12 118q-22 36 -62 36z" />
    <glyph glyph-name="uni0203" unicode="&#x203;" 
d="M406 60q0 -40 -14 -58q-16 -18 -40 -16q-36 2 -48 34q-62 -32 -136 -8q-18 8 -34 18q-66 42 -84 126q-28 132 34 224q56 76 146 76q38 0 76 -20q18 -10 34 -24q60 -54 66 -148v-204zM226 348q-10 0 -22 -4q-40 -12 -48 -52q-16 -60 0 -122q0 -8 4 -16q16 -38 56 -44
q24 -2 38 2q40 16 46 82q2 92 -12 118q-22 36 -62 36z" />
    <glyph glyph-name="uni01DF" unicode="&#x1df;" 
d="M406 60q0 -40 -14 -58q-16 -18 -40 -16q-36 2 -48 34q-62 -32 -136 -8q-18 8 -34 18q-66 42 -84 126q-28 132 34 224q56 76 146 76q38 0 76 -20q18 -10 34 -24q60 -54 66 -148v-204zM226 348q-10 0 -22 -4q-40 -12 -48 -52q-16 -60 0 -122q0 -8 4 -16q16 -38 56 -44
q24 -2 38 2q40 16 46 82q2 92 -12 118q-22 36 -62 36z" />
    <glyph glyph-name="uni01E1" unicode="&#x1e1;" 
d="M406 60q0 -40 -14 -58q-16 -18 -40 -16q-36 2 -48 34q-62 -32 -136 -8q-18 8 -34 18q-66 42 -84 126q-28 132 34 224q56 76 146 76q38 0 76 -20q18 -10 34 -24q60 -54 66 -148v-204zM226 348q-10 0 -22 -4q-40 -12 -48 -52q-16 -60 0 -122q0 -8 4 -16q16 -38 56 -44
q24 -2 38 2q40 16 46 82q2 92 -12 118q-22 36 -62 36z" />
    <glyph glyph-name="uni01E3" unicode="&#x1e3;" 
d="M406 60q0 -40 -14 -58q-16 -18 -40 -16q-36 2 -48 34q-62 -32 -136 -8q-18 8 -34 18q-66 42 -84 126q-28 132 34 224q56 76 146 76q38 0 76 -20q18 -10 34 -24q60 -54 66 -148v-204zM226 348q-10 0 -22 -4q-40 -12 -48 -52q-16 -60 0 -122q0 -8 4 -16q16 -38 56 -44
q24 -2 38 2q40 16 46 82q2 92 -12 118q-22 36 -62 36z" />
    <glyph glyph-name="uni0227" unicode="&#x227;" 
d="M230 667.756q22.002 3.99902 40 -12q18 -18 18 -42v-8q0 -30 -26 -46q-28 -16 -54 0q-25.998 15.999 -26 46v8q0 9.99902 4 18q10.002 32 44 36zM406 60q0 -40 -14 -58q-16 -18 -40 -16q-36 2 -48 34q-62 -32 -136 -8q-18 8 -34 18q-66 42 -84 126q-28 132 34 224
q56 76 146 76q38 0 76 -20q18 -10 34 -24q60 -54 66 -148v-204zM226 348q-10 0 -22 -4q-40 -12 -48 -52q-16 -60 0 -122q0 -8 4 -16q16 -38 56 -44q24 -2 38 2q40 16 46 82q2 92 -12 118q-22 36 -62 36z" />
    <glyph glyph-name="ae" unicode="&#xe6;" 
d="M511.5 89q70 0 88 12q24 20 54 10q26 -12 30 -44q6 -30 -20 -48q-28 -24 -70 -34q-30 -6 -100 -4q-50 0 -98 34q-88 64 -94 194q-2 10 0 22q6 136 94 194q48 34 110 34q46 0 82 -20q96 -60 96 -200v-20q0 -10 -4 -20q-12 -32 -48 -32h-218q14 -68 80 -78h18zM503.5 351
h-4h-6q-18 0 -40 -12q-32 -22 -40 -66h164v4q-8 50 -40 66q-14 8 -34 8zM406 60q0 -40 -14 -58q-16 -18 -40 -16q-36 2 -48 34q-62 -32 -136 -8q-18 8 -34 18q-66 42 -84 126q-28 132 34 224q56 76 146 76q38 0 76 -20q18 -10 34 -24q60 -54 66 -148v-204zM226 348
q-10 0 -22 -4q-40 -12 -48 -52q-16 -60 0 -122q0 -8 4 -16q16 -38 56 -44q24 -2 38 2q40 16 46 82q2 92 -12 118q-22 36 -62 36z" />
    <glyph glyph-name="egrave" unicode="&#xe8;" horiz-adv-x="470" 
d="M283.076 533.453l-175.213 73.4883q-31.3535 13.1475 -35.2793 45.1592q-3.92383 32.0078 21.6592 51.6416q27.4307 18.8584 56.9395 6.48047l175.214 -73.4854q29.5068 -12.3779 33.4346 -44.3877q3.92285 -32.0078 -21.6611 -51.6406t-55.0938 -7.25586zM252 110
q70 0 88 12q24 20 54 10q26 -12 30 -44q6 -30 -20 -48q-28 -24 -70 -34q-30 -6 -100 -4q-50 0 -98 34q-88 64 -94 194q-2 10 0 22q6 136 94 194q48 34 110 34q46 0 82 -20q96 -60 96 -200v-20q0 -10 -4 -20q-12 -32 -48 -32h-218q14 -68 80 -78h18zM244 372h-4h-6
q-18 0 -40 -12q-32 -22 -40 -66h164v4q-8 50 -40 66q-14 8 -34 8z" />
    <glyph glyph-name="eacute" unicode="&#xe9;" horiz-adv-x="470" 
d="M327.139 626.055l-165.139 -93.9648q-29.5488 -16.8154 -57.3047 -0.391602q-27.752 16.4229 -27.6953 48.6719q1.79883 33.2393 29.6113 49.0635l165.137 93.9658q27.8125 15.8242 55.5684 -0.597656q27.752 -16.4238 27.6934 -48.6729
q-0.0585938 -32.248 -27.8711 -48.0742zM252 110q70 0 88 12q24 20 54 10q26 -12 30 -44q6 -30 -20 -48q-28 -24 -70 -34q-30 -6 -100 -4q-50 0 -98 34q-88 64 -94 194q-2 10 0 22q6 136 94 194q48 34 110 34q46 0 82 -20q96 -60 96 -200v-20q0 -10 -4 -20q-12 -32 -48 -32
h-218q14 -68 80 -78h18zM244 372h-4h-6q-18 0 -40 -12q-32 -22 -40 -66h164v4q-8 50 -40 66q-14 8 -34 8z" />
    <glyph glyph-name="ecircumflex" unicode="&#xea;" horiz-adv-x="470" 
d="M138.805 647.5q46.5762 29.4004 71.5068 37.3008q24.9326 7.90039 49.6885 0.447266q24.7559 -7.4541 66.4609 -36.6855l39.75 -28.875q27.4902 -19.9795 23.9688 -52.0625q-3.51758 -32.0449 -32.9062 -45.2812q-31.043 -12.0752 -56.9062 6.71875l-67.2188 48.8438
l-69.75 -51.4375q-27.373 -20.1914 -56.875 -7.15625q-29.5 13.0342 -33.25 45.0625q-2.13672 33.2188 23.625 52.2188zM252 110q70 0 88 12q24 20 54 10q26 -12 30 -44q6 -30 -20 -48q-28 -24 -70 -34q-30 -6 -100 -4q-50 0 -98 34q-88 64 -94 194q-2 10 0 22q6 136 94 194
q48 34 110 34q46 0 82 -20q96 -60 96 -200v-20q0 -10 -4 -20q-12 -32 -48 -32h-218q14 -68 80 -78h18zM244 372h-4h-6q-18 0 -40 -12q-32 -22 -40 -66h164v4q-8 50 -40 66q-14 8 -34 8z" />
    <glyph glyph-name="edieresis" unicode="&#xeb;" horiz-adv-x="470" 
d="M150 667.756q22.002 3.99902 40 -12q18 -18 18 -42v-8q0 -30 -26 -46q-28 -16 -54 0q-25.998 15.999 -26 46v8q0 9.99902 4 18q10.002 32 44 36zM330 663.756q27.877 0 40 -14q14 -16.168 14 -40v-10q0 -26.667 -26 -44q-24 -16 -52 0q-28 15.999 -28 44v10
q0 9.14258 6 22q14.9336 32 46 32zM252 110q70 0 88 12q24 20 54 10q26 -12 30 -44q6 -30 -20 -48q-28 -24 -70 -34q-30 -6 -100 -4q-50 0 -98 34q-88 64 -94 194q-2 10 0 22q6 136 94 194q48 34 110 34q46 0 82 -20q96 -60 96 -200v-20q0 -10 -4 -20q-12 -32 -48 -32h-218
q14 -68 80 -78h18zM244 372h-4h-6q-18 0 -40 -12q-32 -22 -40 -66h164v4q-8 50 -40 66q-14 8 -34 8z" />
    <glyph glyph-name="emacron" unicode="&#x113;" horiz-adv-x="470" 
d="M252 110q70 0 88 12q24 20 54 10q26 -12 30 -44q6 -30 -20 -48q-28 -24 -70 -34q-30 -6 -100 -4q-50 0 -98 34q-88 64 -94 194q-2 10 0 22q6 136 94 194q48 34 110 34q46 0 82 -20q96 -60 96 -200v-20q0 -10 -4 -20q-12 -32 -48 -32h-218q14 -68 80 -78h18zM244 372h-4
h-6q-18 0 -40 -12q-32 -22 -40 -66h164v4q-8 50 -40 66q-14 8 -34 8z" />
    <glyph glyph-name="ebreve" unicode="&#x115;" horiz-adv-x="470" 
d="M242.09 529.637q-59.3184 0 -96.4102 34.1162q-37.0918 34.1172 -37.0918 89.2744q0.310547 21.3027 15.4258 36.0205q15.1133 14.7178 36.5742 15.9795q21.7402 -0.0986328 35.4316 -15.0928t14.5684 -36.9072q0 -8.69727 7.46094 -14.0439t18.041 -5.34668
q13.168 0 20.6484 5.4668q7.48047 5.46777 7.48047 13.9238q0.476562 20.6299 15.8574 35.7783q15.3789 15.1484 36.1426 16.2217q22.0195 -0.225586 36.5703 -15.1328q14.5508 -14.9082 15.4297 -36.8672q0 -57.3223 -33.7324 -90.3564
q-33.7305 -33.0342 -92.3965 -33.0342zM252 110q70 0 88 12q24 20 54 10q26 -12 30 -44q6 -30 -20 -48q-28 -24 -70 -34q-30 -6 -100 -4q-50 0 -98 34q-88 64 -94 194q-2 10 0 22q6 136 94 194q48 34 110 34q46 0 82 -20q96 -60 96 -200v-20q0 -10 -4 -20q-12 -32 -48 -32
h-218q14 -68 80 -78h18zM244 372h-4h-6q-18 0 -40 -12q-32 -22 -40 -66h164v4q-8 50 -40 66q-14 8 -34 8z" />
    <glyph glyph-name="edotaccent" unicode="&#x117;" horiz-adv-x="470" 
d="M230 667.756q22.002 3.99902 40 -12q18 -18 18 -42v-8q0 -30 -26 -46q-28 -16 -54 0q-25.998 15.999 -26 46v8q0 9.99902 4 18q10.002 32 44 36zM252 110q70 0 88 12q24 20 54 10q26 -12 30 -44q6 -30 -20 -48q-28 -24 -70 -34q-30 -6 -100 -4q-50 0 -98 34
q-88 64 -94 194q-2 10 0 22q6 136 94 194q48 34 110 34q46 0 82 -20q96 -60 96 -200v-20q0 -10 -4 -20q-12 -32 -48 -32h-218q14 -68 80 -78h18zM244 372h-4h-6q-18 0 -40 -12q-32 -22 -40 -66h164v4q-8 50 -40 66q-14 8 -34 8z" />
    <glyph glyph-name="eogonek" unicode="&#x119;" horiz-adv-x="470" 
d="M217.473 -19.3838q1.60156 59.2969 36.709 95.4551q35.1074 36.1572 90.2422 34.667q21.2871 -0.885742 35.5918 -16.3916q14.3027 -15.5059 14.9863 -36.9932q-0.685547 -21.7285 -16.0449 -35.0107t-37.2871 -13.5674q-8.69531 0.235352 -14.2422 -7.0791
q-5.54688 -7.31348 -5.83203 -17.8906q-0.353516 -13.1641 4.9082 -20.7881q5.26367 -7.625 13.7168 -7.85352q20.6094 -1.0332 35.3379 -16.8164q14.7266 -15.7842 15.2402 -36.5684q-0.820312 -22.0078 -16.1152 -36.1494q-15.2949 -14.1426 -37.2715 -14.4277
q-57.3008 1.54883 -89.4121 36.1592t-30.5273 93.2549zM252 110q70 0 88 12q24 20 54 10q26 -12 30 -44q6 -30 -20 -48q-28 -24 -70 -34q-30 -6 -100 -4q-50 0 -98 34q-88 64 -94 194q-2 10 0 22q6 136 94 194q48 34 110 34q46 0 82 -20q96 -60 96 -200v-20q0 -10 -4 -20
q-12 -32 -48 -32h-218q14 -68 80 -78h18zM244 372h-4h-6q-18 0 -40 -12q-32 -22 -40 -66h164v4q-8 50 -40 66q-14 8 -34 8z" />
    <glyph glyph-name="dotlessi" unicode="&#x131;" horiz-adv-x="204" 
d="M104 476q24 0 38 -16q16 -16 16 -38v-368q0 -30 -26 -46q-28 -16 -54 0t-26 46v368q0 12 6 22q12 32 46 32z" />
    <glyph glyph-name="igrave" unicode="&#xec;" horiz-adv-x="204" 
d="M179.076 533.453l-175.213 73.4883q-31.3535 13.1475 -35.2793 45.1592q-3.92383 32.0078 21.6592 51.6416q27.4307 18.8584 56.9395 6.48047l175.214 -73.4854q29.5068 -12.3779 33.4346 -44.3877q3.92285 -32.0078 -21.6611 -51.6406t-55.0938 -7.25586zM104 476
q24 0 38 -16q16 -16 16 -38v-368q0 -30 -26 -46q-28 -16 -54 0t-26 46v368q0 12 6 22q12 32 46 32z" />
    <glyph glyph-name="iacute" unicode="&#xed;" horiz-adv-x="204" 
d="M230.139 626.055l-165.139 -93.9648q-29.5488 -16.8154 -57.3047 -0.391602q-27.752 16.4229 -27.6953 48.6719q1.79883 33.2393 29.6113 49.0635l165.137 93.9658q27.8125 15.8242 55.5684 -0.597656q27.752 -16.4238 27.6934 -48.6729
q-0.0585938 -32.248 -27.8711 -48.0742zM104 476q24 0 38 -16q16 -16 16 -38v-368q0 -30 -26 -46q-28 -16 -54 0t-26 46v368q0 12 6 22q12 32 46 32z" />
    <glyph glyph-name="icircumflex" unicode="&#xee;" horiz-adv-x="204" 
d="M18.8047 647.5q46.5762 29.4004 71.5068 37.3008q24.9326 7.90039 49.6885 0.447266q24.7559 -7.4541 66.4609 -36.6855l39.75 -28.875q27.4902 -19.9795 23.9688 -52.0625q-3.51758 -32.0449 -32.9062 -45.2812q-31.043 -12.0752 -56.9062 6.71875l-67.2188 48.8438
l-69.75 -51.4375q-27.373 -20.1914 -56.875 -7.15625q-29.5 13.0342 -33.25 45.0625q-2.13672 33.2188 23.625 52.2188zM104 476q24 0 38 -16q16 -16 16 -38v-368q0 -30 -26 -46q-28 -16 -54 0t-26 46v368q0 12 6 22q12 32 46 32z" />
    <glyph glyph-name="idieresis" unicode="&#xef;" horiz-adv-x="204" 
d="M20 667.756q22.002 3.99902 40 -12q18 -18 18 -42v-8q0 -30 -26 -46q-28 -16 -54 0q-25.998 15.999 -26 46v8q0 9.99902 4 18q10.002 32 44 36zM200 663.756q27.877 0 40 -14q14 -16.168 14 -40v-10q0 -26.667 -26 -44q-24 -16 -52 0q-28 15.999 -28 44v10
q0 9.14258 6 22q14.9336 32 46 32zM104 476q24 0 38 -16q16 -16 16 -38v-368q0 -30 -26 -46q-28 -16 -54 0t-26 46v368q0 12 6 22q12 32 46 32z" />
    <glyph glyph-name="itilde" unicode="&#x129;" horiz-adv-x="204" 
d="M47.8418 701.531q51.3467 0 72.332 -13.6445q20.9883 -13.6455 20.9883 -42.4658q0 -1.48828 -0.0390625 -4.00391q-0.111328 -7.21875 1.32227 -8.81348q1.43359 -1.59375 9.11328 -1.59375q9.0293 0 10.4941 1.8291t1.46484 10.6172q0.460938 20.0088 14.2695 31.2119
q13.8086 11.2021 35.4199 12.3193q22.0215 -0.225586 36.5723 -15.1338q14.5488 -14.9062 15.4277 -36.8662q0 -107.978 -107.648 -107.978q-40.1445 0 -65.5762 16.5244q-25.4336 16.5244 -25.4336 43.4346q0 8.125 -1.37695 9.34375t-11.3301 1.21875
q-9.06836 0 -10.5742 -1.00586t-1.41406 -6.95801q0.0292969 -1.88184 0.0292969 -2.97363q-0.474609 -20.6289 -15.8555 -35.7773q-15.3809 -15.1494 -36.1445 -16.2227q-22.0195 0.225586 -36.5703 15.1328t-15.4297 36.8672q0.00195312 58.3418 26.1172 86.6396
t83.8418 28.2979zM104 476q24 0 38 -16q16 -16 16 -38v-368q0 -30 -26 -46q-28 -16 -54 0t-26 46v368q0 12 6 22q12 32 46 32z" />
    <glyph glyph-name="imacron" unicode="&#x12b;" horiz-adv-x="204" 
d="M104 476q24 0 38 -16q16 -16 16 -38v-368q0 -30 -26 -46q-28 -16 -54 0t-26 46v368q0 12 6 22q12 32 46 32z" />
    <glyph glyph-name="ibreve" unicode="&#x12d;" horiz-adv-x="204" 
d="M104.09 529.637q-59.3184 0 -96.4102 34.1162q-37.0918 34.1172 -37.0918 89.2744q0.310547 21.3027 15.4258 36.0205q15.1133 14.7178 36.5742 15.9795q21.7402 -0.0986328 35.4316 -15.0928t14.5684 -36.9072q0 -8.69727 7.46094 -14.0439t18.041 -5.34668
q13.168 0 20.6484 5.4668q7.48047 5.46777 7.48047 13.9238q0.476562 20.6299 15.8574 35.7783q15.3789 15.1484 36.1426 16.2217q22.0195 -0.225586 36.5703 -15.1328q14.5508 -14.9082 15.4297 -36.8672q0 -57.3223 -33.7324 -90.3564
q-33.7305 -33.0342 -92.3965 -33.0342zM104 476q24 0 38 -16q16 -16 16 -38v-368q0 -30 -26 -46q-28 -16 -54 0t-26 46v368q0 12 6 22q12 32 46 32z" />
    <glyph glyph-name="iogonek" unicode="&#x12f;" horiz-adv-x="204" 
d="M-18.5273 -19.3838q1.60156 59.2969 36.709 95.4551q35.1074 36.1572 90.2422 34.667q21.2871 -0.885742 35.5918 -16.3916q14.3027 -15.5059 14.9863 -36.9932q-0.685547 -21.7285 -16.0449 -35.0107t-37.2871 -13.5674q-8.69531 0.235352 -14.2422 -7.0791
q-5.54688 -7.31348 -5.83203 -17.8906q-0.353516 -13.1641 4.9082 -20.7881q5.26367 -7.625 13.7168 -7.85352q20.6094 -1.0332 35.3379 -16.8164q14.7266 -15.7842 15.2402 -36.5684q-0.820312 -22.0078 -16.1152 -36.1494q-15.2949 -14.1426 -37.2715 -14.4277
q-57.3008 1.54883 -89.4121 36.1592t-30.5273 93.2549zM100 668q22 4 40 -12q18 -18 18 -42v-8q0 -30 -26 -46q-28 -16 -54 0t-26 46v8q0 10 4 18q10 32 44 36zM104 476q24 0 38 -16q16 -16 16 -38v-368q0 -30 -26 -46q-28 -16 -54 0t-26 46v368q0 12 6 22q12 32 46 32z" />
    <glyph glyph-name="odieresis" unicode="&#xf6;" horiz-adv-x="482" 
d="M148 667.756q22.002 3.99902 40 -12q18 -18 18 -42v-8q0 -30 -26 -46q-28 -16 -54 0q-25.998 15.999 -26 46v8q0 9.99902 4 18q10.002 32 44 36zM328 663.756q27.877 0 40 -14q14 -16.168 14 -40v-10q0 -26.667 -26 -44q-24 -16 -52 0q-28 15.999 -28 44v10
q0 9.14258 6 22q14.9336 32 46 32zM242 474q64 0 112 -32q90 -68 90 -204q0 -146 -90 -206q-50 -32 -112 -32q-70 0 -124 40q-76 64 -74 198q0 142 90 202q48 34 108 34zM148 230q0 -126 94 -126q98 0 98 134q0 130 -98 130q-26 0 -50 -16q-44 -28 -44 -114v-8z" />
    <glyph glyph-name="ccedilla" unicode="&#xe7;" horiz-adv-x="420" 
d="M332.527 -18.6162q-1.60156 -59.2969 -36.709 -95.4551q-35.1074 -36.1572 -90.2422 -34.667q-21.2871 0.885742 -35.5918 16.3916q-14.3027 15.5059 -14.9863 36.9932q0.685547 21.7285 16.0449 35.0107t37.2871 13.5674q8.69531 -0.235352 14.2422 7.0791
q5.54688 7.31348 5.83203 17.8906q0.353516 13.1641 -4.9082 20.7881q-5.26367 7.625 -13.7168 7.85352q-20.6094 1.0332 -35.3379 16.8164q-14.7266 15.7842 -15.2402 36.5684q0.820312 22.0078 16.1152 36.1494q15.2949 14.1426 37.2715 14.4277
q57.3008 -1.54883 89.4121 -36.1592t30.5273 -93.2549zM242 476q62 0 112 -32q26 -18 26 -48q-4 -32 -32 -46q-28 -12 -52 6q-22 12 -54 12q-26 0 -50 -14q-44 -30 -44 -114v-2q0 -90 42 -118q22 -14 52 -14q32 0 54 14q24 20 52 6t32 -46q0 -32 -26 -46q-50 -34 -112 -34
t-108 32q-92 58 -92 208q0 128 78 192q50 44 122 44z" />
    <glyph glyph-name="ntilde" unicode="&#xf1;" horiz-adv-x="466" 
d="M173.842 701.531q51.3467 0 72.332 -13.6445q20.9883 -13.6455 20.9883 -42.4658q0 -1.48828 -0.0390625 -4.00391q-0.111328 -7.21875 1.32227 -8.81348q1.43359 -1.59375 9.11328 -1.59375q9.0293 0 10.4941 1.8291t1.46484 10.6172q0.460938 20.0088 14.2695 31.2119
q13.8086 11.2021 35.4199 12.3193q22.0215 -0.225586 36.5723 -15.1338q14.5488 -14.9062 15.4277 -36.8662q0 -107.978 -107.648 -107.978q-40.1445 0 -65.5762 16.5244q-25.4336 16.5244 -25.4336 43.4346q0 8.125 -1.37695 9.34375t-11.3301 1.21875
q-9.06836 0 -10.5742 -1.00586t-1.41406 -6.95801q0.0292969 -1.88184 0.0292969 -2.97363q-0.474609 -20.6289 -15.8555 -35.7773q-15.3809 -15.1494 -36.1445 -16.2227q-22.0195 0.225586 -36.5703 15.1328t-15.4297 36.8672q0.00195312 58.3418 26.1172 86.6396
t83.8418 28.2979zM48 280q0 70 42 122q50 64 146 64q144 -14 178 -130q6 -26 8 -56v-228q0 -32 -30 -46q-12 -6 -22 -6q-34 0 -46 32q-4 10 -4 20v228q-4 74 -84 82q-68 0 -82 -64q-2 -10 -2 -18v-228q0 -32 -32 -46q-8 -6 -20 -6q-34 0 -48 32q-4 10 -4 20v228z" />
    <glyph glyph-name="ograve" unicode="&#xf2;" horiz-adv-x="482" 
d="M283.076 533.453l-175.213 73.4883q-31.3535 13.1475 -35.2793 45.1592q-3.92383 32.0078 21.6592 51.6416q27.4307 18.8584 56.9395 6.48047l175.214 -73.4854q29.5068 -12.3779 33.4346 -44.3877q3.92285 -32.0078 -21.6611 -51.6406t-55.0938 -7.25586zM242 474
q64 0 112 -32q90 -68 90 -204q0 -146 -90 -206q-50 -32 -112 -32q-70 0 -124 40q-76 64 -74 198q0 142 90 202q48 34 108 34zM148 230q0 -126 94 -126q98 0 98 134q0 130 -98 130q-26 0 -50 -16q-44 -28 -44 -114v-8z" />
    <glyph glyph-name="oacute" unicode="&#xf3;" horiz-adv-x="482" 
d="M335.139 626.055l-165.139 -93.9648q-29.5488 -16.8154 -57.3047 -0.391602q-27.752 16.4229 -27.6953 48.6719q1.79883 33.2393 29.6113 49.0635l165.137 93.9658q27.8125 15.8242 55.5684 -0.597656q27.752 -16.4238 27.6934 -48.6729
q-0.0585938 -32.248 -27.8711 -48.0742zM242 474q64 0 112 -32q90 -68 90 -204q0 -146 -90 -206q-50 -32 -112 -32q-70 0 -124 40q-76 64 -74 198q0 142 90 202q48 34 108 34zM148 230q0 -126 94 -126q98 0 98 134q0 130 -98 130q-26 0 -50 -16q-44 -28 -44 -114v-8z" />
    <glyph glyph-name="ocircumflex" unicode="&#xf4;" horiz-adv-x="482" 
d="M138.805 647.5q46.5762 29.4004 71.5068 37.3008q24.9326 7.90039 49.6885 0.447266q24.7559 -7.4541 66.4609 -36.6855l39.75 -28.875q27.4902 -19.9795 23.9688 -52.0625q-3.51758 -32.0449 -32.9062 -45.2812q-31.043 -12.0752 -56.9062 6.71875l-67.2188 48.8438
l-69.75 -51.4375q-27.373 -20.1914 -56.875 -7.15625q-29.5 13.0342 -33.25 45.0625q-2.13672 33.2188 23.625 52.2188zM242 474q64 0 112 -32q90 -68 90 -204q0 -146 -90 -206q-50 -32 -112 -32q-70 0 -124 40q-76 64 -74 198q0 142 90 202q48 34 108 34zM148 230
q0 -126 94 -126q98 0 98 134q0 130 -98 130q-26 0 -50 -16q-44 -28 -44 -114v-8z" />
    <glyph glyph-name="otilde" unicode="&#xf5;" horiz-adv-x="482" 
d="M183.842 701.531q51.3467 0 72.332 -13.6445q20.9883 -13.6455 20.9883 -42.4658q0 -1.48828 -0.0390625 -4.00391q-0.111328 -7.21875 1.32227 -8.81348q1.43359 -1.59375 9.11328 -1.59375q9.0293 0 10.4941 1.8291t1.46484 10.6172q0.460938 20.0088 14.2695 31.2119
q13.8086 11.2021 35.4199 12.3193q22.0215 -0.225586 36.5723 -15.1338q14.5488 -14.9062 15.4277 -36.8662q0 -107.978 -107.648 -107.978q-40.1445 0 -65.5762 16.5244q-25.4336 16.5244 -25.4336 43.4346q0 8.125 -1.37695 9.34375t-11.3301 1.21875
q-9.06836 0 -10.5742 -1.00586t-1.41406 -6.95801q0.0292969 -1.88184 0.0292969 -2.97363q-0.474609 -20.6289 -15.8555 -35.7773q-15.3809 -15.1494 -36.1445 -16.2227q-22.0195 0.225586 -36.5703 15.1328t-15.4297 36.8672q0.00195312 58.3418 26.1172 86.6396
t83.8418 28.2979zM242 474q64 0 112 -32q90 -68 90 -204q0 -146 -90 -206q-50 -32 -112 -32q-70 0 -124 40q-76 64 -74 198q0 142 90 202q48 34 108 34zM148 230q0 -126 94 -126q98 0 98 134q0 130 -98 130q-26 0 -50 -16q-44 -28 -44 -114v-8z" />
    <glyph glyph-name="oslash" unicode="&#xf8;" horiz-adv-x="482" 
d="M242 474q64 0 112 -32q90 -68 90 -204q0 -146 -90 -206q-50 -32 -112 -32q-70 0 -124 40q-76 64 -74 198q0 142 90 202q48 34 108 34zM148 230q0 -126 94 -126q98 0 98 134q0 130 -98 130q-26 0 -50 -16q-44 -28 -44 -114v-8z" />
    <glyph glyph-name="ugrave" unicode="&#xf9;" horiz-adv-x="476" 
d="M283.076 533.453l-175.213 73.4883q-31.3535 13.1475 -35.2793 45.1592q-3.92383 32.0078 21.6592 51.6416q27.4307 18.8584 56.9395 6.48047l175.214 -73.4854q29.5068 -12.3779 33.4346 -44.3877q3.92285 -32.0078 -21.6611 -51.6406t-55.0938 -7.25586zM100 476
q22 0 40 -16q16 -16 16 -40v-228q0 -28 10 -46q14 -26 34 -34q18 -6 40 -6q50 0 68 30l6 10q10 22 10 46v228q0 32 28 48t52 0q28 -16 28 -48v-228q-12 -138 -124 -180q-32 -12 -68 -12q-96 0 -150 72q-10 12 -18 26q-24 46 -24 94v228q0 36 30 50q10 6 22 6z" />
    <glyph glyph-name="uacute" unicode="&#xfa;" horiz-adv-x="476" 
d="M326.139 626.055l-165.139 -93.9648q-29.5488 -16.8154 -57.3047 -0.391602q-27.752 16.4229 -27.6953 48.6719q1.79883 33.2393 29.6113 49.0635l165.137 93.9658q27.8125 15.8242 55.5684 -0.597656q27.752 -16.4238 27.6934 -48.6729
q-0.0585938 -32.248 -27.8711 -48.0742zM100 476q22 0 40 -16q16 -16 16 -40v-228q0 -28 10 -46q14 -26 34 -34q18 -6 40 -6q50 0 68 30l6 10q10 22 10 46v228q0 32 28 48t52 0q28 -16 28 -48v-228q-12 -138 -124 -180q-32 -12 -68 -12q-96 0 -150 72q-10 12 -18 26
q-24 46 -24 94v228q0 36 30 50q10 6 22 6z" />
    <glyph glyph-name="ucircumflex" unicode="&#xfb;" horiz-adv-x="476" 
d="M138.805 647.5q46.5762 29.4004 71.5068 37.3008q24.9326 7.90039 49.6885 0.447266q24.7559 -7.4541 66.4609 -36.6855l39.75 -28.875q27.4902 -19.9795 23.9688 -52.0625q-3.51758 -32.0449 -32.9062 -45.2812q-31.043 -12.0752 -56.9062 6.71875l-67.2188 48.8438
l-69.75 -51.4375q-27.373 -20.1914 -56.875 -7.15625q-29.5 13.0342 -33.25 45.0625q-2.13672 33.2188 23.625 52.2188zM100 476q22 0 40 -16q16 -16 16 -40v-228q0 -28 10 -46q14 -26 34 -34q18 -6 40 -6q50 0 68 30l6 10q10 22 10 46v228q0 32 28 48t52 0q28 -16 28 -48
v-228q-12 -138 -124 -180q-32 -12 -68 -12q-96 0 -150 72q-10 12 -18 26q-24 46 -24 94v228q0 36 30 50q10 6 22 6z" />
    <glyph glyph-name="udieresis" unicode="&#xfc;" horiz-adv-x="476" 
d="M136 667.756q22.002 3.99902 40 -12q18 -18 18 -42v-8q0 -30 -26 -46q-28 -16 -54 0q-25.998 15.999 -26 46v8q0 9.99902 4 18q10.002 32 44 36zM316 663.756q27.877 0 40 -14q14 -16.168 14 -40v-10q0 -26.667 -26 -44q-24 -16 -52 0q-28 15.999 -28 44v10
q0 9.14258 6 22q14.9336 32 46 32zM100 476q22 0 40 -16q16 -16 16 -40v-228q0 -28 10 -46q14 -26 34 -34q18 -6 40 -6q50 0 68 30l6 10q10 22 10 46v228q0 32 28 48t52 0q28 -16 28 -48v-228q-12 -138 -124 -180q-32 -12 -68 -12q-96 0 -150 72q-10 12 -18 26
q-24 46 -24 94v228q0 36 30 50q10 6 22 6z" />
    <glyph glyph-name="yacute" unicode="&#xfd;" horiz-adv-x="464" 
d="M328.139 626.055l-165.139 -93.9648q-29.5488 -16.8154 -57.3047 -0.391602q-27.752 16.4229 -27.6953 48.6719q1.79883 33.2393 29.6113 49.0635l165.137 93.9658q27.8125 15.8242 55.5684 -0.597656q27.752 -16.4238 27.6934 -48.6729
q-0.0585938 -32.248 -27.8711 -48.0742zM432 422v-392q0 -120 -52 -170q-42 -44 -138 -44q-92 -12 -168 34q-26 16 -26 46q0 32 28 46q26 16 52 -2q32 -18 108 -18h4q52 0 66 14q18 16 18 84q-56 -28 -120 -16q-128 34 -152 184q-4 24 -4 50v184q0 36 32 50q8 4 20 4
q24 0 40 -16t16 -38v-184q0 -86 44 -118q20 -14 40 -14q26 2 44 14q28 12 36 32q4 16 4 40v230q0 30 28 48q28 14 52 0q28 -18 28 -48z" />
    <glyph glyph-name="ydieresis" unicode="&#xff;" horiz-adv-x="464" 
d="M134 667.756q22.002 3.99902 40 -12q18 -18 18 -42v-8q0 -30 -26 -46q-28 -16 -54 0q-25.998 15.999 -26 46v8q0 9.99902 4 18q10.002 32 44 36zM314 663.756q27.877 0 40 -14q14 -16.168 14 -40v-10q0 -26.667 -26 -44q-24 -16 -52 0q-28 15.999 -28 44v10
q0 9.14258 6 22q14.9336 32 46 32zM432 422v-392q0 -120 -52 -170q-42 -44 -138 -44q-92 -12 -168 34q-26 16 -26 46q0 32 28 46q26 16 52 -2q32 -18 108 -18h4q52 0 66 14q18 16 18 84q-56 -28 -120 -16q-128 34 -152 184q-4 24 -4 50v184q0 36 32 50q8 4 20 4q24 0 40 -16
t16 -38v-184q0 -86 44 -118q20 -14 40 -14q26 2 44 14q28 12 36 32q4 16 4 40v230q0 30 28 48q28 14 52 0q28 -18 28 -48z" />
    <glyph glyph-name="cacute" unicode="&#x107;" horiz-adv-x="420" 
d="M328.139 626.055l-165.139 -93.9648q-29.5488 -16.8154 -57.3047 -0.391602q-27.752 16.4229 -27.6953 48.6719q1.79883 33.2393 29.6113 49.0635l165.137 93.9658q27.8125 15.8242 55.5684 -0.597656q27.752 -16.4238 27.6934 -48.6729
q-0.0585938 -32.248 -27.8711 -48.0742zM242 476q62 0 112 -32q26 -18 26 -48q-4 -32 -32 -46q-28 -12 -52 6q-22 12 -54 12q-26 0 -50 -14q-44 -30 -44 -114v-2q0 -90 42 -118q22 -14 52 -14q32 0 54 14q24 20 52 6t32 -46q0 -32 -26 -46q-50 -34 -112 -34t-108 32
q-92 58 -92 208q0 128 78 192q50 44 122 44z" />
    <glyph glyph-name="ccircumflex" unicode="&#x109;" horiz-adv-x="420" 
d="M138.805 647.5q46.5762 29.4004 71.5068 37.3008q24.9326 7.90039 49.6885 0.447266q24.7559 -7.4541 66.4609 -36.6855l39.75 -28.875q27.4902 -19.9795 23.9688 -52.0625q-3.51758 -32.0449 -32.9062 -45.2812q-31.043 -12.0752 -56.9062 6.71875l-67.2188 48.8438
l-69.75 -51.4375q-27.373 -20.1914 -56.875 -7.15625q-29.5 13.0342 -33.25 45.0625q-2.13672 33.2188 23.625 52.2188zM242 476q62 0 112 -32q26 -18 26 -48q-4 -32 -32 -46q-28 -12 -52 6q-22 12 -54 12q-26 0 -50 -14q-44 -30 -44 -114v-2q0 -90 42 -118q22 -14 52 -14
q32 0 54 14q24 20 52 6t32 -46q0 -32 -26 -46q-50 -34 -112 -34t-108 32q-92 58 -92 208q0 128 78 192q50 44 122 44z" />
    <glyph glyph-name="cdotaccent" unicode="&#x10b;" horiz-adv-x="420" 
d="M232 667.756q22.002 3.99902 40 -12q18 -18 18 -42v-8q0 -30 -26 -46q-28 -16 -54 0q-25.998 15.999 -26 46v8q0 9.99902 4 18q10.002 32 44 36zM242 476q62 0 112 -32q26 -18 26 -48q-4 -32 -32 -46q-28 -12 -52 6q-22 12 -54 12q-26 0 -50 -14q-44 -30 -44 -114v-2
q0 -90 42 -118q22 -14 52 -14q32 0 54 14q24 20 52 6t32 -46q0 -32 -26 -46q-50 -34 -112 -34t-108 32q-92 58 -92 208q0 128 78 192q50 44 122 44z" />
    <glyph glyph-name="ccaron" unicode="&#x10d;" horiz-adv-x="420" 
d="M320.195 551.5q-46.5762 -29.4004 -71.5068 -37.3008q-24.9326 -7.90039 -49.6885 -0.447266q-24.7559 7.4541 -66.4609 36.6855l-39.75 28.875q-27.4902 19.9795 -23.9688 52.0625q3.51758 32.0449 32.9062 45.2812q31.043 12.0752 56.9062 -6.71875l67.2188 -48.8438
l69.75 51.4375q27.373 20.1914 56.875 7.15625q29.5 -13.0342 33.25 -45.0625q2.13672 -33.2188 -23.625 -52.2188zM242 476q62 0 112 -32q26 -18 26 -48q-4 -32 -32 -46q-28 -12 -52 6q-22 12 -54 12q-26 0 -50 -14q-44 -30 -44 -114v-2q0 -90 42 -118q22 -14 52 -14
q32 0 54 14q24 20 52 6t32 -46q0 -32 -26 -46q-50 -34 -112 -34t-108 32q-92 58 -92 208q0 128 78 192q50 44 122 44z" />
    <glyph glyph-name="Amacron" unicode="&#x100;" 
d="M406 60q0 -40 -14 -58q-16 -18 -40 -16q-36 2 -48 34q-62 -32 -136 -8q-18 8 -34 18q-66 42 -84 126q-28 132 34 224q56 76 146 76q38 0 76 -20q18 -10 34 -24q60 -54 66 -148v-204zM226 348q-10 0 -22 -4q-40 -12 -48 -52q-16 -60 0 -122q0 -8 4 -16q16 -38 56 -44
q24 -2 38 2q40 16 46 82q2 92 -12 118q-22 36 -62 36z" />
    <glyph glyph-name="Abreve" unicode="&#x102;" 
d="M406 60q0 -40 -14 -58q-16 -18 -40 -16q-36 2 -48 34q-62 -32 -136 -8q-18 8 -34 18q-66 42 -84 126q-28 132 34 224q56 76 146 76q38 0 76 -20q18 -10 34 -24q60 -54 66 -148v-204zM226 348q-10 0 -22 -4q-40 -12 -48 -52q-16 -60 0 -122q0 -8 4 -16q16 -38 56 -44
q24 -2 38 2q40 16 46 82q2 92 -12 118q-22 36 -62 36zM232.09 529.637q-59.3184 0 -96.4102 34.1162q-37.0918 34.1172 -37.0918 89.2744q0.310547 21.3027 15.4258 36.0205q15.1133 14.7178 36.5742 15.9795q21.7402 -0.0986328 35.4316 -15.0928t14.5684 -36.9072
q0 -8.69727 7.46094 -14.0439t18.041 -5.34668q13.168 0 20.6484 5.4668q7.48047 5.46777 7.48047 13.9238q0.476562 20.6299 15.8574 35.7783q15.3789 15.1484 36.1426 16.2217q22.0195 -0.225586 36.5703 -15.1328q14.5508 -14.9082 15.4297 -36.8672
q0 -57.3223 -33.7324 -90.3564q-33.7305 -33.0342 -92.3965 -33.0342z" />
    <glyph glyph-name="Aogonek" unicode="&#x104;" 
d="M406 60q0 -40 -14 -58q-16 -18 -40 -16q-36 2 -48 34q-62 -32 -136 -8q-18 8 -34 18q-66 42 -84 126q-28 132 34 224q56 76 146 76q38 0 76 -20q18 -10 34 -24q60 -54 66 -148v-204zM226 348q-10 0 -22 -4q-40 -12 -48 -52q-16 -60 0 -122q0 -8 4 -16q16 -38 56 -44
q24 -2 38 2q40 16 46 82q2 92 -12 118q-22 36 -62 36zM227.973 -19.3838q1.60156 59.2969 36.709 95.4551q35.1074 36.1572 90.2422 34.667q21.2871 -0.885742 35.5918 -16.3916q14.3027 -15.5059 14.9863 -36.9932q-0.685547 -21.7285 -16.0449 -35.0107t-37.2871 -13.5674
q-8.69531 0.235352 -14.2422 -7.0791q-5.54688 -7.31348 -5.83203 -17.8906q-0.353516 -13.1641 4.9082 -20.7881q5.26367 -7.625 13.7168 -7.85352q20.6094 -1.0332 35.3379 -16.8164q14.7266 -15.7842 15.2402 -36.5684q-0.820312 -22.0078 -16.1152 -36.1494
q-15.2949 -14.1426 -37.2715 -14.4277q-57.3008 1.54883 -89.4121 36.1592t-30.5273 93.2549z" />
    <glyph glyph-name="Cacute" unicode="&#x106;" horiz-adv-x="420" 
d="M242 476q62 0 112 -32q26 -18 26 -48q-4 -32 -32 -46q-28 -12 -52 6q-22 12 -54 12q-26 0 -50 -14q-44 -30 -44 -114v-2q0 -90 42 -118q22 -14 52 -14q32 0 54 14q24 20 52 6t32 -46q0 -32 -26 -46q-50 -34 -112 -34t-108 32q-92 58 -92 208q0 128 78 192q50 44 122 44z
M328.139 626.055l-165.139 -93.9648q-29.5488 -16.8154 -57.3047 -0.391602q-27.752 16.4229 -27.6953 48.6719q1.79883 33.2393 29.6113 49.0635l165.137 93.9658q27.8125 15.8242 55.5684 -0.597656q27.752 -16.4238 27.6934 -48.6729
q-0.0585938 -32.248 -27.8711 -48.0742z" />
    <glyph glyph-name="Ccircumflex" unicode="&#x108;" horiz-adv-x="420" 
d="M242 476q62 0 112 -32q26 -18 26 -48q-4 -32 -32 -46q-28 -12 -52 6q-22 12 -54 12q-26 0 -50 -14q-44 -30 -44 -114v-2q0 -90 42 -118q22 -14 52 -14q32 0 54 14q24 20 52 6t32 -46q0 -32 -26 -46q-50 -34 -112 -34t-108 32q-92 58 -92 208q0 128 78 192q50 44 122 44z
M138.805 647.5q46.5762 29.4004 71.5068 37.3008q24.9326 7.90039 49.6885 0.447266q24.7559 -7.4541 66.4609 -36.6855l39.75 -28.875q27.4902 -19.9795 23.9688 -52.0625q-3.51758 -32.0449 -32.9062 -45.2812q-31.043 -12.0752 -56.9062 6.71875l-67.2188 48.8438
l-69.75 -51.4375q-27.373 -20.1914 -56.875 -7.15625q-29.5 13.0342 -33.25 45.0625q-2.13672 33.2188 23.625 52.2188z" />
    <glyph glyph-name="Cdotaccent" unicode="&#x10a;" horiz-adv-x="420" 
d="M242 476q62 0 112 -32q26 -18 26 -48q-4 -32 -32 -46q-28 -12 -52 6q-22 12 -54 12q-26 0 -50 -14q-44 -30 -44 -114v-2q0 -90 42 -118q22 -14 52 -14q32 0 54 14q24 20 52 6t32 -46q0 -32 -26 -46q-50 -34 -112 -34t-108 32q-92 58 -92 208q0 128 78 192q50 44 122 44z
M232 667.756q22.002 3.99902 40 -12q18 -18 18 -42v-8q0 -30 -26 -46q-28 -16 -54 0q-25.998 15.999 -26 46v8q0 9.99902 4 18q10.002 32 44 36z" />
    <glyph glyph-name="Ccaron" unicode="&#x10c;" horiz-adv-x="420" 
d="M242 476q62 0 112 -32q26 -18 26 -48q-4 -32 -32 -46q-28 -12 -52 6q-22 12 -54 12q-26 0 -50 -14q-44 -30 -44 -114v-2q0 -90 42 -118q22 -14 52 -14q32 0 54 14q24 20 52 6t32 -46q0 -32 -26 -46q-50 -34 -112 -34t-108 32q-92 58 -92 208q0 128 78 192q50 44 122 44z
M320.195 551.5q-46.5762 -29.4004 -71.5068 -37.3008q-24.9326 -7.90039 -49.6885 -0.447266q-24.7559 7.4541 -66.4609 36.6855l-39.75 28.875q-27.4902 19.9795 -23.9688 52.0625q3.51758 32.0449 32.9062 45.2812q31.043 12.0752 56.9062 -6.71875l67.2188 -48.8438
l69.75 51.4375q27.373 20.1914 56.875 7.15625q29.5 -13.0342 33.25 -45.0625q2.13672 -33.2188 -23.625 -52.2188z" />
    <glyph glyph-name="Emacron" unicode="&#x112;" horiz-adv-x="470" 
d="M252 110q70 0 88 12q24 20 54 10q26 -12 30 -44q6 -30 -20 -48q-28 -24 -70 -34q-30 -6 -100 -4q-50 0 -98 34q-88 64 -94 194q-2 10 0 22q6 136 94 194q48 34 110 34q46 0 82 -20q96 -60 96 -200v-20q0 -10 -4 -20q-12 -32 -48 -32h-218q14 -68 80 -78h18zM244 372h-4
h-6q-18 0 -40 -12q-32 -22 -40 -66h164v4q-8 50 -40 66q-14 8 -34 8z" />
    <glyph glyph-name="Ebreve" unicode="&#x114;" horiz-adv-x="470" 
d="M252 110q70 0 88 12q24 20 54 10q26 -12 30 -44q6 -30 -20 -48q-28 -24 -70 -34q-30 -6 -100 -4q-50 0 -98 34q-88 64 -94 194q-2 10 0 22q6 136 94 194q48 34 110 34q46 0 82 -20q96 -60 96 -200v-20q0 -10 -4 -20q-12 -32 -48 -32h-218q14 -68 80 -78h18zM244 372h-4
h-6q-18 0 -40 -12q-32 -22 -40 -66h164v4q-8 50 -40 66q-14 8 -34 8zM242.09 529.637q-59.3184 0 -96.4102 34.1162q-37.0918 34.1172 -37.0918 89.2744q0.310547 21.3027 15.4258 36.0205q15.1133 14.7178 36.5742 15.9795q21.7402 -0.0986328 35.4316 -15.0928
t14.5684 -36.9072q0 -8.69727 7.46094 -14.0439t18.041 -5.34668q13.168 0 20.6484 5.4668q7.48047 5.46777 7.48047 13.9238q0.476562 20.6299 15.8574 35.7783q15.3789 15.1484 36.1426 16.2217q22.0195 -0.225586 36.5703 -15.1328q14.5508 -14.9082 15.4297 -36.8672
q0 -57.3223 -33.7324 -90.3564q-33.7305 -33.0342 -92.3965 -33.0342z" />
    <glyph glyph-name="Edotaccent" unicode="&#x116;" horiz-adv-x="470" 
d="M252 110q70 0 88 12q24 20 54 10q26 -12 30 -44q6 -30 -20 -48q-28 -24 -70 -34q-30 -6 -100 -4q-50 0 -98 34q-88 64 -94 194q-2 10 0 22q6 136 94 194q48 34 110 34q46 0 82 -20q96 -60 96 -200v-20q0 -10 -4 -20q-12 -32 -48 -32h-218q14 -68 80 -78h18zM244 372h-4
h-6q-18 0 -40 -12q-32 -22 -40 -66h164v4q-8 50 -40 66q-14 8 -34 8zM230 667.756q22.002 3.99902 40 -12q18 -18 18 -42v-8q0 -30 -26 -46q-28 -16 -54 0q-25.998 15.999 -26 46v8q0 9.99902 4 18q10.002 32 44 36z" />
    <glyph glyph-name="Eogonek" unicode="&#x118;" horiz-adv-x="470" 
d="M252 110q70 0 88 12q24 20 54 10q26 -12 30 -44q6 -30 -20 -48q-28 -24 -70 -34q-30 -6 -100 -4q-50 0 -98 34q-88 64 -94 194q-2 10 0 22q6 136 94 194q48 34 110 34q46 0 82 -20q96 -60 96 -200v-20q0 -10 -4 -20q-12 -32 -48 -32h-218q14 -68 80 -78h18zM244 372h-4
h-6q-18 0 -40 -12q-32 -22 -40 -66h164v4q-8 50 -40 66q-14 8 -34 8zM217.473 -19.3838q1.60156 59.2969 36.709 95.4551q35.1074 36.1572 90.2422 34.667q21.2871 -0.885742 35.5918 -16.3916q14.3027 -15.5059 14.9863 -36.9932q-0.685547 -21.7285 -16.0449 -35.0107
t-37.2871 -13.5674q-8.69531 0.235352 -14.2422 -7.0791q-5.54688 -7.31348 -5.83203 -17.8906q-0.353516 -13.1641 4.9082 -20.7881q5.26367 -7.625 13.7168 -7.85352q20.6094 -1.0332 35.3379 -16.8164q14.7266 -15.7842 15.2402 -36.5684
q-0.820312 -22.0078 -16.1152 -36.1494q-15.2949 -14.1426 -37.2715 -14.4277q-57.3008 1.54883 -89.4121 36.1592t-30.5273 93.2549z" />
    <glyph glyph-name="Itilde" unicode="&#x128;" horiz-adv-x="204" 
d="M104 476q24 0 38 -16q16 -16 16 -38v-368q0 -30 -26 -46q-28 -16 -54 0t-26 46v368q0 12 6 22q12 32 46 32zM47.8418 701.531q51.3467 0 72.332 -13.6445q20.9883 -13.6455 20.9883 -42.4658q0 -1.48828 -0.0390625 -4.00391q-0.111328 -7.21875 1.32227 -8.81348
q1.43359 -1.59375 9.11328 -1.59375q9.0293 0 10.4941 1.8291t1.46484 10.6172q0.460938 20.0088 14.2695 31.2119q13.8086 11.2021 35.4199 12.3193q22.0215 -0.225586 36.5723 -15.1338q14.5488 -14.9062 15.4277 -36.8662q0 -107.978 -107.648 -107.978
q-40.1445 0 -65.5762 16.5244q-25.4336 16.5244 -25.4336 43.4346q0 8.125 -1.37695 9.34375t-11.3301 1.21875q-9.06836 0 -10.5742 -1.00586t-1.41406 -6.95801q0.0292969 -1.88184 0.0292969 -2.97363q-0.474609 -20.6289 -15.8555 -35.7773
q-15.3809 -15.1494 -36.1445 -16.2227q-22.0195 0.225586 -36.5703 15.1328t-15.4297 36.8672q0.00195312 58.3418 26.1172 86.6396t83.8418 28.2979z" />
    <glyph glyph-name="Imacron" unicode="&#x12a;" horiz-adv-x="204" 
d="M104 476q24 0 38 -16q16 -16 16 -38v-368q0 -30 -26 -46q-28 -16 -54 0t-26 46v368q0 12 6 22q12 32 46 32z" />
    <glyph glyph-name="Ibreve" unicode="&#x12c;" horiz-adv-x="204" 
d="M104 476q24 0 38 -16q16 -16 16 -38v-368q0 -30 -26 -46q-28 -16 -54 0t-26 46v368q0 12 6 22q12 32 46 32zM104.09 529.637q-59.3184 0 -96.4102 34.1162q-37.0918 34.1172 -37.0918 89.2744q0.310547 21.3027 15.4258 36.0205q15.1133 14.7178 36.5742 15.9795
q21.7402 -0.0986328 35.4316 -15.0928t14.5684 -36.9072q0 -8.69727 7.46094 -14.0439t18.041 -5.34668q13.168 0 20.6484 5.4668q7.48047 5.46777 7.48047 13.9238q0.476562 20.6299 15.8574 35.7783q15.3789 15.1484 36.1426 16.2217q22.0195 -0.225586 36.5703 -15.1328
q14.5508 -14.9082 15.4297 -36.8672q0 -57.3223 -33.7324 -90.3564q-33.7305 -33.0342 -92.3965 -33.0342z" />
    <glyph glyph-name="Iogonek" unicode="&#x12e;" horiz-adv-x="204" 
d="M100 668q22 4 40 -12q18 -18 18 -42v-8q0 -30 -26 -46q-28 -16 -54 0t-26 46v8q0 10 4 18q10 32 44 36zM104 476q24 0 38 -16q16 -16 16 -38v-368q0 -30 -26 -46q-28 -16 -54 0t-26 46v368q0 12 6 22q12 32 46 32zM-18.5273 -19.3838q1.60156 59.2969 36.709 95.4551
q35.1074 36.1572 90.2422 34.667q21.2871 -0.885742 35.5918 -16.3916q14.3027 -15.5059 14.9863 -36.9932q-0.685547 -21.7285 -16.0449 -35.0107t-37.2871 -13.5674q-8.69531 0.235352 -14.2422 -7.0791q-5.54688 -7.31348 -5.83203 -17.8906
q-0.353516 -13.1641 4.9082 -20.7881q5.26367 -7.625 13.7168 -7.85352q20.6094 -1.0332 35.3379 -16.8164q14.7266 -15.7842 15.2402 -36.5684q-0.820312 -22.0078 -16.1152 -36.1494q-15.2949 -14.1426 -37.2715 -14.4277q-57.3008 1.54883 -89.4121 36.1592
t-30.5273 93.2549z" />
    <glyph glyph-name="uni01CD" unicode="&#x1cd;" 
d="M406 60q0 -40 -14 -58q-16 -18 -40 -16q-36 2 -48 34q-62 -32 -136 -8q-18 8 -34 18q-66 42 -84 126q-28 132 34 224q56 76 146 76q38 0 76 -20q18 -10 34 -24q60 -54 66 -148v-204zM226 348q-10 0 -22 -4q-40 -12 -48 -52q-16 -60 0 -122q0 -8 4 -16q16 -38 56 -44
q24 -2 38 2q40 16 46 82q2 92 -12 118q-22 36 -62 36zM320.195 551.5q-46.5762 -29.4004 -71.5068 -37.3008q-24.9326 -7.90039 -49.6885 -0.447266q-24.7559 7.4541 -66.4609 36.6855l-39.75 28.875q-27.4902 19.9795 -23.9688 52.0625q3.51758 32.0449 32.9062 45.2812
q31.043 12.0752 56.9062 -6.71875l67.2188 -48.8438l69.75 51.4375q27.373 20.1914 56.875 7.15625q29.5 -13.0342 33.25 -45.0625q2.13672 -33.2188 -23.625 -52.2188z" />
    <glyph glyph-name="uni01DE" unicode="&#x1de;" 
d="M406 60q0 -40 -14 -58q-16 -18 -40 -16q-36 2 -48 34q-62 -32 -136 -8q-18 8 -34 18q-66 42 -84 126q-28 132 34 224q56 76 146 76q38 0 76 -20q18 -10 34 -24q60 -54 66 -148v-204zM226 348q-10 0 -22 -4q-40 -12 -48 -52q-16 -60 0 -122q0 -8 4 -16q16 -38 56 -44
q24 -2 38 2q40 16 46 82q2 92 -12 118q-22 36 -62 36z" />
    <glyph glyph-name="uni01E0" unicode="&#x1e0;" 
d="M406 60q0 -40 -14 -58q-16 -18 -40 -16q-36 2 -48 34q-62 -32 -136 -8q-18 8 -34 18q-66 42 -84 126q-28 132 34 224q56 76 146 76q38 0 76 -20q18 -10 34 -24q60 -54 66 -148v-204zM226 348q-10 0 -22 -4q-40 -12 -48 -52q-16 -60 0 -122q0 -8 4 -16q16 -38 56 -44
q24 -2 38 2q40 16 46 82q2 92 -12 118q-22 36 -62 36z" />
    <glyph glyph-name="uni01E2" unicode="&#x1e2;" 
d="M406 60q0 -40 -14 -58q-16 -18 -40 -16q-36 2 -48 34q-62 -32 -136 -8q-18 8 -34 18q-66 42 -84 126q-28 132 34 224q56 76 146 76q38 0 76 -20q18 -10 34 -24q60 -54 66 -148v-204zM226 348q-10 0 -22 -4q-40 -12 -48 -52q-16 -60 0 -122q0 -8 4 -16q16 -38 56 -44
q24 -2 38 2q40 16 46 82q2 92 -12 118q-22 36 -62 36z" />
    <glyph glyph-name="Agrave" unicode="&#xc0;" 
d="M406 60q0 -40 -14 -58q-16 -18 -40 -16q-36 2 -48 34q-62 -32 -136 -8q-18 8 -34 18q-66 42 -84 126q-28 132 34 224q56 76 146 76q38 0 76 -20q18 -10 34 -24q60 -54 66 -148v-204zM226 348q-10 0 -22 -4q-40 -12 -48 -52q-16 -60 0 -122q0 -8 4 -16q16 -38 56 -44
q24 -2 38 2q40 16 46 82q2 92 -12 118q-22 36 -62 36zM283.076 533.453l-175.213 73.4883q-31.3535 13.1475 -35.2793 45.1592q-3.92383 32.0078 21.6592 51.6416q27.4307 18.8584 56.9395 6.48047l175.214 -73.4854q29.5068 -12.3779 33.4346 -44.3877
q3.92285 -32.0078 -21.6611 -51.6406t-55.0938 -7.25586z" />
    <glyph glyph-name="Aacute" unicode="&#xc1;" 
d="M406 60q0 -40 -14 -58q-16 -18 -40 -16q-36 2 -48 34q-62 -32 -136 -8q-18 8 -34 18q-66 42 -84 126q-28 132 34 224q56 76 146 76q38 0 76 -20q18 -10 34 -24q60 -54 66 -148v-204zM226 348q-10 0 -22 -4q-40 -12 -48 -52q-16 -60 0 -122q0 -8 4 -16q16 -38 56 -44
q24 -2 38 2q40 16 46 82q2 92 -12 118q-22 36 -62 36zM353.139 626.055l-165.139 -93.9648q-29.5488 -16.8154 -57.3047 -0.391602q-27.752 16.4229 -27.6953 48.6719q1.79883 33.2393 29.6113 49.0635l165.137 93.9658q27.8125 15.8242 55.5684 -0.597656
q27.752 -16.4238 27.6934 -48.6729q-0.0585938 -32.248 -27.8711 -48.0742z" />
    <glyph glyph-name="Acircumflex" unicode="&#xc2;" 
d="M406 60q0 -40 -14 -58q-16 -18 -40 -16q-36 2 -48 34q-62 -32 -136 -8q-18 8 -34 18q-66 42 -84 126q-28 132 34 224q56 76 146 76q38 0 76 -20q18 -10 34 -24q60 -54 66 -148v-204zM226 348q-10 0 -22 -4q-40 -12 -48 -52q-16 -60 0 -122q0 -8 4 -16q16 -38 56 -44
q24 -2 38 2q40 16 46 82q2 92 -12 118q-22 36 -62 36zM138.805 647.5q46.5762 29.4004 71.5068 37.3008q24.9326 7.90039 49.6885 0.447266q24.7559 -7.4541 66.4609 -36.6855l39.75 -28.875q27.4902 -19.9795 23.9688 -52.0625q-3.51758 -32.0449 -32.9062 -45.2812
q-31.043 -12.0752 -56.9062 6.71875l-67.2188 48.8438l-69.75 -51.4375q-27.373 -20.1914 -56.875 -7.15625q-29.5 13.0342 -33.25 45.0625q-2.13672 33.2188 23.625 52.2188z" />
    <glyph glyph-name="Atilde" unicode="&#xc3;" 
d="M406 60q0 -40 -14 -58q-16 -18 -40 -16q-36 2 -48 34q-62 -32 -136 -8q-18 8 -34 18q-66 42 -84 126q-28 132 34 224q56 76 146 76q38 0 76 -20q18 -10 34 -24q60 -54 66 -148v-204zM226 348q-10 0 -22 -4q-40 -12 -48 -52q-16 -60 0 -122q0 -8 4 -16q16 -38 56 -44
q24 -2 38 2q40 16 46 82q2 92 -12 118q-22 36 -62 36zM162.842 701.531q51.3467 0 72.332 -13.6445q20.9883 -13.6455 20.9883 -42.4658q0 -1.48828 -0.0390625 -4.00391q-0.111328 -7.21875 1.32227 -8.81348q1.43359 -1.59375 9.11328 -1.59375q9.0293 0 10.4941 1.8291
t1.46484 10.6172q0.460938 20.0088 14.2695 31.2119q13.8086 11.2021 35.4199 12.3193q22.0215 -0.225586 36.5723 -15.1338q14.5488 -14.9062 15.4277 -36.8662q0 -107.978 -107.648 -107.978q-40.1445 0 -65.5762 16.5244q-25.4336 16.5244 -25.4336 43.4346
q0 8.125 -1.37695 9.34375t-11.3301 1.21875q-9.06836 0 -10.5742 -1.00586t-1.41406 -6.95801q0.0292969 -1.88184 0.0292969 -2.97363q-0.474609 -20.6289 -15.8555 -35.7773q-15.3809 -15.1494 -36.1445 -16.2227q-22.0195 0.225586 -36.5703 15.1328t-15.4297 36.8672
q0.00195312 58.3418 26.1172 86.6396t83.8418 28.2979z" />
    <glyph glyph-name="Adieresis" unicode="&#xc4;" 
d="M406 60q0 -40 -14 -58q-16 -18 -40 -16q-36 2 -48 34q-62 -32 -136 -8q-18 8 -34 18q-66 42 -84 126q-28 132 34 224q56 76 146 76q38 0 76 -20q18 -10 34 -24q60 -54 66 -148v-204zM226 348q-10 0 -22 -4q-40 -12 -48 -52q-16 -60 0 -122q0 -8 4 -16q16 -38 56 -44
q24 -2 38 2q40 16 46 82q2 92 -12 118q-22 36 -62 36zM133 667.756q22.002 3.99902 40 -12q18 -18 18 -42v-8q0 -30 -26 -46q-28 -16 -54 0q-25.998 15.999 -26 46v8q0 9.99902 4 18q10.002 32 44 36zM313 663.756q27.877 0 40 -14q14 -16.168 14 -40v-10q0 -26.667 -26 -44
q-24 -16 -52 0q-28 15.999 -28 44v10q0 9.14258 6 22q14.9336 32 46 32z" />
    <glyph glyph-name="Aring" unicode="&#xc5;" 
d="M406 60q0 -40 -14 -58q-16 -18 -40 -16q-36 2 -48 34q-62 -32 -136 -8q-18 8 -34 18q-66 42 -84 126q-28 132 34 224q56 76 146 76q38 0 76 -20q18 -10 34 -24q60 -54 66 -148v-204zM226 348q-10 0 -22 -4q-40 -12 -48 -52q-16 -60 0 -122q0 -8 4 -16q16 -38 56 -44
q24 -2 38 2q40 16 46 82q2 92 -12 118q-22 36 -62 36zM231.09 766.086q59.3203 0 96.4102 -34.1104q37.0898 -34.1094 37.0898 -89.2646q-0.0976562 -6.55859 -1.8125 -12.875q1.55859 -6.08887 1.8125 -12.4375q-0.00195312 -57.3213 -33.7305 -90.3486
q-33.7266 -33.0264 -92.3945 -33.0264q-59.3203 0 -96.4102 34.1104q-37.0898 34.1094 -37.0898 89.2646q0.0957031 6.65332 1.8125 12.9375q-1.56445 6.12793 -1.8125 12.375q-0.00195312 57.3213 33.7266 90.3486q33.7285 33.0264 92.3984 33.0264zM235.434 662.086
q-12.4258 -0.37207 -19.4473 -5.78809t-7.02148 -13.5869q-0.189453 -8.15723 -3.06445 -16q0.878906 -4.66406 1.06445 -9.3125q-0.00195312 -8.69629 7.45703 -14.0361q7.45898 -5.33887 18.043 -5.33887q13.1699 0 20.6484 5.45996q7.47656 5.45996 7.47656 13.915
q0.189453 8.15332 3.06055 16q-0.875 4.67676 -1.06055 9.3125q-0.00195312 8.69629 -7.46094 14.0352q-7.45703 5.33984 -18.0391 5.33984h-1.65625z" />
    <glyph glyph-name="Ccedilla" unicode="&#xc7;" horiz-adv-x="420" 
d="M242 476q62 0 112 -32q26 -18 26 -48q-4 -32 -32 -46q-28 -12 -52 6q-22 12 -54 12q-26 0 -50 -14q-44 -30 -44 -114v-2q0 -90 42 -118q22 -14 52 -14q32 0 54 14q24 20 52 6t32 -46q0 -32 -26 -46q-50 -34 -112 -34t-108 32q-92 58 -92 208q0 128 78 192q50 44 122 44z
M332.527 -18.6162q-1.60156 -59.2969 -36.709 -95.4551q-35.1074 -36.1572 -90.2422 -34.667q-21.2871 0.885742 -35.5918 16.3916q-14.3027 15.5059 -14.9863 36.9932q0.685547 21.7285 16.0449 35.0107t37.2871 13.5674q8.69531 -0.235352 14.2422 7.0791
q5.54688 7.31348 5.83203 17.8906q0.353516 13.1641 -4.9082 20.7881q-5.26367 7.625 -13.7168 7.85352q-20.6094 1.0332 -35.3379 16.8164q-14.7266 15.7842 -15.2402 36.5684q0.820312 22.0078 16.1152 36.1494q15.2949 14.1426 37.2715 14.4277
q57.3008 -1.54883 89.4121 -36.1592t30.5273 -93.2549z" />
    <glyph glyph-name="Egrave" unicode="&#xc8;" horiz-adv-x="470" 
d="M252 110q70 0 88 12q24 20 54 10q26 -12 30 -44q6 -30 -20 -48q-28 -24 -70 -34q-30 -6 -100 -4q-50 0 -98 34q-88 64 -94 194q-2 10 0 22q6 136 94 194q48 34 110 34q46 0 82 -20q96 -60 96 -200v-20q0 -10 -4 -20q-12 -32 -48 -32h-218q14 -68 80 -78h18zM244 372h-4
h-6q-18 0 -40 -12q-32 -22 -40 -66h164v4q-8 50 -40 66q-14 8 -34 8zM283.076 533.453l-175.213 73.4883q-31.3535 13.1475 -35.2793 45.1592q-3.92383 32.0078 21.6592 51.6416q27.4307 18.8584 56.9395 6.48047l175.214 -73.4854q29.5068 -12.3779 33.4346 -44.3877
q3.92285 -32.0078 -21.6611 -51.6406t-55.0938 -7.25586z" />
    <glyph glyph-name="Eacute" unicode="&#xc9;" horiz-adv-x="470" 
d="M252 110q70 0 88 12q24 20 54 10q26 -12 30 -44q6 -30 -20 -48q-28 -24 -70 -34q-30 -6 -100 -4q-50 0 -98 34q-88 64 -94 194q-2 10 0 22q6 136 94 194q48 34 110 34q46 0 82 -20q96 -60 96 -200v-20q0 -10 -4 -20q-12 -32 -48 -32h-218q14 -68 80 -78h18zM244 372h-4
h-6q-18 0 -40 -12q-32 -22 -40 -66h164v4q-8 50 -40 66q-14 8 -34 8zM327.139 626.055l-165.139 -93.9648q-29.5488 -16.8154 -57.3047 -0.391602q-27.752 16.4229 -27.6953 48.6719q1.79883 33.2393 29.6113 49.0635l165.137 93.9658q27.8125 15.8242 55.5684 -0.597656
q27.752 -16.4238 27.6934 -48.6729q-0.0585938 -32.248 -27.8711 -48.0742z" />
    <glyph glyph-name="Ecircumflex" unicode="&#xca;" horiz-adv-x="470" 
d="M252 110q70 0 88 12q24 20 54 10q26 -12 30 -44q6 -30 -20 -48q-28 -24 -70 -34q-30 -6 -100 -4q-50 0 -98 34q-88 64 -94 194q-2 10 0 22q6 136 94 194q48 34 110 34q46 0 82 -20q96 -60 96 -200v-20q0 -10 -4 -20q-12 -32 -48 -32h-218q14 -68 80 -78h18zM244 372h-4
h-6q-18 0 -40 -12q-32 -22 -40 -66h164v4q-8 50 -40 66q-14 8 -34 8zM138.805 647.5q46.5762 29.4004 71.5068 37.3008q24.9326 7.90039 49.6885 0.447266q24.7559 -7.4541 66.4609 -36.6855l39.75 -28.875q27.4902 -19.9795 23.9688 -52.0625
q-3.51758 -32.0449 -32.9062 -45.2812q-31.043 -12.0752 -56.9062 6.71875l-67.2188 48.8438l-69.75 -51.4375q-27.373 -20.1914 -56.875 -7.15625q-29.5 13.0342 -33.25 45.0625q-2.13672 33.2188 23.625 52.2188z" />
    <glyph glyph-name="Edieresis" unicode="&#xcb;" horiz-adv-x="470" 
d="M252 110q70 0 88 12q24 20 54 10q26 -12 30 -44q6 -30 -20 -48q-28 -24 -70 -34q-30 -6 -100 -4q-50 0 -98 34q-88 64 -94 194q-2 10 0 22q6 136 94 194q48 34 110 34q46 0 82 -20q96 -60 96 -200v-20q0 -10 -4 -20q-12 -32 -48 -32h-218q14 -68 80 -78h18zM244 372h-4
h-6q-18 0 -40 -12q-32 -22 -40 -66h164v4q-8 50 -40 66q-14 8 -34 8zM150 667.756q22.002 3.99902 40 -12q18 -18 18 -42v-8q0 -30 -26 -46q-28 -16 -54 0q-25.998 15.999 -26 46v8q0 9.99902 4 18q10.002 32 44 36zM330 663.756q27.877 0 40 -14q14 -16.168 14 -40v-10
q0 -26.667 -26 -44q-24 -16 -52 0q-28 15.999 -28 44v10q0 9.14258 6 22q14.9336 32 46 32z" />
    <glyph glyph-name="Igrave" unicode="&#xcc;" horiz-adv-x="204" 
d="M104 476q24 0 38 -16q16 -16 16 -38v-368q0 -30 -26 -46q-28 -16 -54 0t-26 46v368q0 12 6 22q12 32 46 32zM179.076 533.453l-175.213 73.4883q-31.3535 13.1475 -35.2793 45.1592q-3.92383 32.0078 21.6592 51.6416q27.4307 18.8584 56.9395 6.48047l175.214 -73.4854
q29.5068 -12.3779 33.4346 -44.3877q3.92285 -32.0078 -21.6611 -51.6406t-55.0938 -7.25586z" />
    <glyph glyph-name="Iacute" unicode="&#xcd;" horiz-adv-x="204" 
d="M104 476q24 0 38 -16q16 -16 16 -38v-368q0 -30 -26 -46q-28 -16 -54 0t-26 46v368q0 12 6 22q12 32 46 32zM230.139 626.055l-165.139 -93.9648q-29.5488 -16.8154 -57.3047 -0.391602q-27.752 16.4229 -27.6953 48.6719q1.79883 33.2393 29.6113 49.0635
l165.137 93.9658q27.8125 15.8242 55.5684 -0.597656q27.752 -16.4238 27.6934 -48.6729q-0.0585938 -32.248 -27.8711 -48.0742z" />
    <glyph glyph-name="Icircumflex" unicode="&#xce;" horiz-adv-x="204" 
d="M104 476q24 0 38 -16q16 -16 16 -38v-368q0 -30 -26 -46q-28 -16 -54 0t-26 46v368q0 12 6 22q12 32 46 32zM18.8047 647.5q46.5762 29.4004 71.5068 37.3008q24.9326 7.90039 49.6885 0.447266q24.7559 -7.4541 66.4609 -36.6855l39.75 -28.875
q27.4902 -19.9795 23.9688 -52.0625q-3.51758 -32.0449 -32.9062 -45.2812q-31.043 -12.0752 -56.9062 6.71875l-67.2188 48.8438l-69.75 -51.4375q-27.373 -20.1914 -56.875 -7.15625q-29.5 13.0342 -33.25 45.0625q-2.13672 33.2188 23.625 52.2188z" />
    <glyph glyph-name="Idieresis" unicode="&#xcf;" horiz-adv-x="204" 
d="M104 476q24 0 38 -16q16 -16 16 -38v-368q0 -30 -26 -46q-28 -16 -54 0t-26 46v368q0 12 6 22q12 32 46 32zM20 667.756q22.002 3.99902 40 -12q18 -18 18 -42v-8q0 -30 -26 -46q-28 -16 -54 0q-25.998 15.999 -26 46v8q0 9.99902 4 18q10.002 32 44 36zM200 663.756
q27.877 0 40 -14q14 -16.168 14 -40v-10q0 -26.667 -26 -44q-24 -16 -52 0q-28 15.999 -28 44v10q0 9.14258 6 22q14.9336 32 46 32z" />
    <glyph glyph-name="Ntilde" unicode="&#xd1;" horiz-adv-x="466" 
d="M48 280q0 70 42 122q50 64 146 64q144 -14 178 -130q6 -26 8 -56v-228q0 -32 -30 -46q-12 -6 -22 -6q-34 0 -46 32q-4 10 -4 20v228q-4 74 -84 82q-68 0 -82 -64q-2 -10 -2 -18v-228q0 -32 -32 -46q-8 -6 -20 -6q-34 0 -48 32q-4 10 -4 20v228zM173.842 701.531
q51.3467 0 72.332 -13.6445q20.9883 -13.6455 20.9883 -42.4658q0 -1.48828 -0.0390625 -4.00391q-0.111328 -7.21875 1.32227 -8.81348q1.43359 -1.59375 9.11328 -1.59375q9.0293 0 10.4941 1.8291t1.46484 10.6172q0.460938 20.0088 14.2695 31.2119
q13.8086 11.2021 35.4199 12.3193q22.0215 -0.225586 36.5723 -15.1338q14.5488 -14.9062 15.4277 -36.8662q0 -107.978 -107.648 -107.978q-40.1445 0 -65.5762 16.5244q-25.4336 16.5244 -25.4336 43.4346q0 8.125 -1.37695 9.34375t-11.3301 1.21875
q-9.06836 0 -10.5742 -1.00586t-1.41406 -6.95801q0.0292969 -1.88184 0.0292969 -2.97363q-0.474609 -20.6289 -15.8555 -35.7773q-15.3809 -15.1494 -36.1445 -16.2227q-22.0195 0.225586 -36.5703 15.1328t-15.4297 36.8672q0.00195312 58.3418 26.1172 86.6396
t83.8418 28.2979z" />
    <glyph glyph-name="Ograve" unicode="&#xd2;" horiz-adv-x="482" 
d="M242 474q64 0 112 -32q90 -68 90 -204q0 -146 -90 -206q-50 -32 -112 -32q-70 0 -124 40q-76 64 -74 198q0 142 90 202q48 34 108 34zM148 230q0 -126 94 -126q98 0 98 134q0 130 -98 130q-26 0 -50 -16q-44 -28 -44 -114v-8zM283.076 533.453l-175.213 73.4883
q-31.3535 13.1475 -35.2793 45.1592q-3.92383 32.0078 21.6592 51.6416q27.4307 18.8584 56.9395 6.48047l175.214 -73.4854q29.5068 -12.3779 33.4346 -44.3877q3.92285 -32.0078 -21.6611 -51.6406t-55.0938 -7.25586z" />
    <glyph glyph-name="Oacute" unicode="&#xd3;" horiz-adv-x="482" 
d="M242 474q64 0 112 -32q90 -68 90 -204q0 -146 -90 -206q-50 -32 -112 -32q-70 0 -124 40q-76 64 -74 198q0 142 90 202q48 34 108 34zM148 230q0 -126 94 -126q98 0 98 134q0 130 -98 130q-26 0 -50 -16q-44 -28 -44 -114v-8zM335.139 626.055l-165.139 -93.9648
q-29.5488 -16.8154 -57.3047 -0.391602q-27.752 16.4229 -27.6953 48.6719q1.79883 33.2393 29.6113 49.0635l165.137 93.9658q27.8125 15.8242 55.5684 -0.597656q27.752 -16.4238 27.6934 -48.6729q-0.0585938 -32.248 -27.8711 -48.0742z" />
    <glyph glyph-name="Ocircumflex" unicode="&#xd4;" horiz-adv-x="482" 
d="M242 474q64 0 112 -32q90 -68 90 -204q0 -146 -90 -206q-50 -32 -112 -32q-70 0 -124 40q-76 64 -74 198q0 142 90 202q48 34 108 34zM148 230q0 -126 94 -126q98 0 98 134q0 130 -98 130q-26 0 -50 -16q-44 -28 -44 -114v-8zM138.805 647.5
q46.5762 29.4004 71.5068 37.3008q24.9326 7.90039 49.6885 0.447266q24.7559 -7.4541 66.4609 -36.6855l39.75 -28.875q27.4902 -19.9795 23.9688 -52.0625q-3.51758 -32.0449 -32.9062 -45.2812q-31.043 -12.0752 -56.9062 6.71875l-67.2188 48.8438l-69.75 -51.4375
q-27.373 -20.1914 -56.875 -7.15625q-29.5 13.0342 -33.25 45.0625q-2.13672 33.2188 23.625 52.2188z" />
    <glyph glyph-name="Otilde" unicode="&#xd5;" horiz-adv-x="482" 
d="M242 474q64 0 112 -32q90 -68 90 -204q0 -146 -90 -206q-50 -32 -112 -32q-70 0 -124 40q-76 64 -74 198q0 142 90 202q48 34 108 34zM148 230q0 -126 94 -126q98 0 98 134q0 130 -98 130q-26 0 -50 -16q-44 -28 -44 -114v-8zM183.842 701.531q51.3467 0 72.332 -13.6445
q20.9883 -13.6455 20.9883 -42.4658q0 -1.48828 -0.0390625 -4.00391q-0.111328 -7.21875 1.32227 -8.81348q1.43359 -1.59375 9.11328 -1.59375q9.0293 0 10.4941 1.8291t1.46484 10.6172q0.460938 20.0088 14.2695 31.2119q13.8086 11.2021 35.4199 12.3193
q22.0215 -0.225586 36.5723 -15.1338q14.5488 -14.9062 15.4277 -36.8662q0 -107.978 -107.648 -107.978q-40.1445 0 -65.5762 16.5244q-25.4336 16.5244 -25.4336 43.4346q0 8.125 -1.37695 9.34375t-11.3301 1.21875q-9.06836 0 -10.5742 -1.00586t-1.41406 -6.95801
q0.0292969 -1.88184 0.0292969 -2.97363q-0.474609 -20.6289 -15.8555 -35.7773q-15.3809 -15.1494 -36.1445 -16.2227q-22.0195 0.225586 -36.5703 15.1328t-15.4297 36.8672q0.00195312 58.3418 26.1172 86.6396t83.8418 28.2979z" />
    <glyph glyph-name="Odieresis" unicode="&#xd6;" horiz-adv-x="482" 
d="M242 474q64 0 112 -32q90 -68 90 -204q0 -146 -90 -206q-50 -32 -112 -32q-70 0 -124 40q-76 64 -74 198q0 142 90 202q48 34 108 34zM148 230q0 -126 94 -126q98 0 98 134q0 130 -98 130q-26 0 -50 -16q-44 -28 -44 -114v-8zM148 667.756q22.002 3.99902 40 -12
q18 -18 18 -42v-8q0 -30 -26 -46q-28 -16 -54 0q-25.998 15.999 -26 46v8q0 9.99902 4 18q10.002 32 44 36zM328 663.756q27.877 0 40 -14q14 -16.168 14 -40v-10q0 -26.667 -26 -44q-24 -16 -52 0q-28 15.999 -28 44v10q0 9.14258 6 22q14.9336 32 46 32z" />
    <glyph glyph-name="Ugrave" unicode="&#xd9;" horiz-adv-x="476" 
d="M100 476q22 0 40 -16q16 -16 16 -40v-228q0 -28 10 -46q14 -26 34 -34q18 -6 40 -6q50 0 68 30l6 10q10 22 10 46v228q0 32 28 48t52 0q28 -16 28 -48v-228q-12 -138 -124 -180q-32 -12 -68 -12q-96 0 -150 72q-10 12 -18 26q-24 46 -24 94v228q0 36 30 50q10 6 22 6z
M283.076 533.453l-175.213 73.4883q-31.3535 13.1475 -35.2793 45.1592q-3.92383 32.0078 21.6592 51.6416q27.4307 18.8584 56.9395 6.48047l175.214 -73.4854q29.5068 -12.3779 33.4346 -44.3877q3.92285 -32.0078 -21.6611 -51.6406t-55.0938 -7.25586z" />
    <glyph glyph-name="Uacute" unicode="&#xda;" horiz-adv-x="476" 
d="M100 476q22 0 40 -16q16 -16 16 -40v-228q0 -28 10 -46q14 -26 34 -34q18 -6 40 -6q50 0 68 30l6 10q10 22 10 46v228q0 32 28 48t52 0q28 -16 28 -48v-228q-12 -138 -124 -180q-32 -12 -68 -12q-96 0 -150 72q-10 12 -18 26q-24 46 -24 94v228q0 36 30 50q10 6 22 6z
M326.139 626.055l-165.139 -93.9648q-29.5488 -16.8154 -57.3047 -0.391602q-27.752 16.4229 -27.6953 48.6719q1.79883 33.2393 29.6113 49.0635l165.137 93.9658q27.8125 15.8242 55.5684 -0.597656q27.752 -16.4238 27.6934 -48.6729
q-0.0585938 -32.248 -27.8711 -48.0742z" />
    <glyph glyph-name="Ucircumflex" unicode="&#xdb;" horiz-adv-x="476" 
d="M100 476q22 0 40 -16q16 -16 16 -40v-228q0 -28 10 -46q14 -26 34 -34q18 -6 40 -6q50 0 68 30l6 10q10 22 10 46v228q0 32 28 48t52 0q28 -16 28 -48v-228q-12 -138 -124 -180q-32 -12 -68 -12q-96 0 -150 72q-10 12 -18 26q-24 46 -24 94v228q0 36 30 50q10 6 22 6z
M138.805 647.5q46.5762 29.4004 71.5068 37.3008q24.9326 7.90039 49.6885 0.447266q24.7559 -7.4541 66.4609 -36.6855l39.75 -28.875q27.4902 -19.9795 23.9688 -52.0625q-3.51758 -32.0449 -32.9062 -45.2812q-31.043 -12.0752 -56.9062 6.71875l-67.2188 48.8438
l-69.75 -51.4375q-27.373 -20.1914 -56.875 -7.15625q-29.5 13.0342 -33.25 45.0625q-2.13672 33.2188 23.625 52.2188z" />
    <glyph glyph-name="Udieresis" unicode="&#xdc;" horiz-adv-x="476" 
d="M100 476q22 0 40 -16q16 -16 16 -40v-228q0 -28 10 -46q14 -26 34 -34q18 -6 40 -6q50 0 68 30l6 10q10 22 10 46v228q0 32 28 48t52 0q28 -16 28 -48v-228q-12 -138 -124 -180q-32 -12 -68 -12q-96 0 -150 72q-10 12 -18 26q-24 46 -24 94v228q0 36 30 50q10 6 22 6z
M136 667.756q22.002 3.99902 40 -12q18 -18 18 -42v-8q0 -30 -26 -46q-28 -16 -54 0q-25.998 15.999 -26 46v8q0 9.99902 4 18q10.002 32 44 36zM316 663.756q27.877 0 40 -14q14 -16.168 14 -40v-10q0 -26.667 -26 -44q-24 -16 -52 0q-28 15.999 -28 44v10q0 9.14258 6 22
q14.9336 32 46 32z" />
    <glyph glyph-name="Yacute" unicode="&#xdd;" horiz-adv-x="464" 
d="M432 422v-392q0 -120 -52 -170q-42 -44 -138 -44q-92 -12 -168 34q-26 16 -26 46q0 32 28 46q26 16 52 -2q32 -18 108 -18h4q52 0 66 14q18 16 18 84q-56 -28 -120 -16q-128 34 -152 184q-4 24 -4 50v184q0 36 32 50q8 4 20 4q24 0 40 -16t16 -38v-184q0 -86 44 -118
q20 -14 40 -14q26 2 44 14q28 12 36 32q4 16 4 40v230q0 30 28 48q28 14 52 0q28 -18 28 -48zM328.139 626.055l-165.139 -93.9648q-29.5488 -16.8154 -57.3047 -0.391602q-27.752 16.4229 -27.6953 48.6719q1.79883 33.2393 29.6113 49.0635l165.137 93.9658
q27.8125 15.8242 55.5684 -0.597656q27.752 -16.4238 27.6934 -48.6729q-0.0585938 -32.248 -27.8711 -48.0742z" />
    <glyph glyph-name="nacute" unicode="&#x144;" horiz-adv-x="466" 
d="M48 280q0 70 42 122q50 64 146 64q144 -14 178 -130q6 -26 8 -56v-228q0 -32 -30 -46q-12 -6 -22 -6q-34 0 -46 32q-4 10 -4 20v228q-4 74 -84 82q-68 0 -82 -64q-2 -10 -2 -18v-228q0 -32 -32 -46q-8 -6 -20 -6q-34 0 -48 32q-4 10 -4 20v228z" />
    <glyph glyph-name="ncommaaccent" unicode="&#x146;" horiz-adv-x="466" 
d="M48 280q0 70 42 122q50 64 146 64q144 -14 178 -130q6 -26 8 -56v-228q0 -32 -30 -46q-12 -6 -22 -6q-34 0 -46 32q-4 10 -4 20v228q-4 74 -84 82q-68 0 -82 -64q-2 -10 -2 -18v-228q0 -32 -32 -46q-8 -6 -20 -6q-34 0 -48 32q-4 10 -4 20v228z" />
    <glyph glyph-name="ncaron" unicode="&#x148;" horiz-adv-x="466" 
d="M48 280q0 70 42 122q50 64 146 64q144 -14 178 -130q6 -26 8 -56v-228q0 -32 -30 -46q-12 -6 -22 -6q-34 0 -46 32q-4 10 -4 20v228q-4 74 -84 82q-68 0 -82 -64q-2 -10 -2 -18v-228q0 -32 -32 -46q-8 -6 -20 -6q-34 0 -48 32q-4 10 -4 20v228z" />
    <glyph glyph-name="napostrophe" unicode="&#x149;" horiz-adv-x="466" 
d="M48 280q0 70 42 122q50 64 146 64q144 -14 178 -130q6 -26 8 -56v-228q0 -32 -30 -46q-12 -6 -22 -6q-34 0 -46 32q-4 10 -4 20v228q-4 74 -84 82q-68 0 -82 -64q-2 -10 -2 -18v-228q0 -32 -32 -46q-8 -6 -20 -6q-34 0 -48 32q-4 10 -4 20v228z" />
    <glyph glyph-name="gcircumflex" unicode="&#x11d;" horiz-adv-x="472" 
d="M424 52q0 -144 -64 -202q-20 -14 -42 -24q-30 -10 -104 -10h-8l-46 10q-2 0 -16 2q-46 14 -68 52q-16 24 -2 52t46 28q30 0 46 -26l-2 6l24 -12q14 -4 30 -6q62 0 76 10q20 16 24 88q-38 -16 -84 -20q-50 0 -98 32l-16 12q-78 66 -78 194q0 26 4 50q16 108 90 156
q48 32 110 32t108 -36q70 -62 70 -184v-204zM244 370h-4q-2 -2 -6 -2q-18 0 -40 -12q-46 -32 -46 -118v-6q2 -114 86 -126q24 2 46 14l10 2q30 18 30 70v64q0 84 -42 104q-14 10 -34 10z" />
    <glyph glyph-name="gbreve" unicode="&#x11f;" horiz-adv-x="472" 
d="M424 52q0 -144 -64 -202q-20 -14 -42 -24q-30 -10 -104 -10h-8l-46 10q-2 0 -16 2q-46 14 -68 52q-16 24 -2 52t46 28q30 0 46 -26l-2 6l24 -12q14 -4 30 -6q62 0 76 10q20 16 24 88q-38 -16 -84 -20q-50 0 -98 32l-16 12q-78 66 -78 194q0 26 4 50q16 108 90 156
q48 32 110 32t108 -36q70 -62 70 -184v-204zM244 370h-4q-2 -2 -6 -2q-18 0 -40 -12q-46 -32 -46 -118v-6q2 -114 86 -126q24 2 46 14l10 2q30 18 30 70v64q0 84 -42 104q-14 10 -34 10z" />
    <glyph glyph-name="gdotaccent" unicode="&#x121;" horiz-adv-x="472" 
d="M424 52q0 -144 -64 -202q-20 -14 -42 -24q-30 -10 -104 -10h-8l-46 10q-2 0 -16 2q-46 14 -68 52q-16 24 -2 52t46 28q30 0 46 -26l-2 6l24 -12q14 -4 30 -6q62 0 76 10q20 16 24 88q-38 -16 -84 -20q-50 0 -98 32l-16 12q-78 66 -78 194q0 26 4 50q16 108 90 156
q48 32 110 32t108 -36q70 -62 70 -184v-204zM244 370h-4q-2 -2 -6 -2q-18 0 -40 -12q-46 -32 -46 -118v-6q2 -114 86 -126q24 2 46 14l10 2q30 18 30 70v64q0 84 -42 104q-14 10 -34 10z" />
    <glyph glyph-name="gcommaaccent" unicode="&#x123;" horiz-adv-x="472" 
d="M424 52q0 -144 -64 -202q-20 -14 -42 -24q-30 -10 -104 -10h-8l-46 10q-2 0 -16 2q-46 14 -68 52q-16 24 -2 52t46 28q30 0 46 -26l-2 6l24 -12q14 -4 30 -6q62 0 76 10q20 16 24 88q-38 -16 -84 -20q-50 0 -98 32l-16 12q-78 66 -78 194q0 26 4 50q16 108 90 156
q48 32 110 32t108 -36q70 -62 70 -184v-204zM244 370h-4q-2 -2 -6 -2q-18 0 -40 -12q-46 -32 -46 -118v-6q2 -114 86 -126q24 2 46 14l10 2q30 18 30 70v64q0 84 -42 104q-14 10 -34 10z" />
    </font>
</defs>
</svg>
