<?xml version="1.0" standalone="no"?>
<!DOCTYPE svg PUBLIC "-//W3C//DTD SVG 1.1//EN" "http://www.w3.org/Graphics/SVG/1.1/DTD/svg11.dtd" >
<svg>
<metadata>
Created by FontForge 20061220 at Mon Jun 25 19:08:24 2007
 By guest,,,
Copyright (c) 2005 Canonical Ltd.
made by Andrew Fitzsimon ( andrew@fitzsimon.com.au ) 
released under the LGPL ( http://www.gnu.org/copyleft/lesser.html )
skinny version from Paulo Silva - may'07
</metadata>
<defs>
<font id="UbuntuTitleUltralight" horiz-adv-x="370" >
  <font-face 
    font-family="UbuntuTitleUltralight"
    font-weight="400"
    font-stretch="normal"
    units-per-em="1000"
    panose-1="2 0 5 3 0 0 0 0 0 0"
    ascent="800"
    descent="-200"
    x-height="468.719"
    cap-height="668.572"
    bbox="-62.5322 -187.157 722.5 800.25"
    underline-thickness="50"
    underline-position="-100"
    unicode-range="U+000D-U+02DD"
  />
<missing-glyph horiz-adv-x="258" 
 />
    <glyph glyph-name=".notdef" horiz-adv-x="258" 
 />
    <glyph glyph-name="glyph1" horiz-adv-x="0" 
 />
    <glyph glyph-name="nonmarkingreturn" unicode="&#xd;" horiz-adv-x="258" 
 />
    <glyph glyph-name="space" unicode=" " horiz-adv-x="258" 
 />
    <glyph glyph-name="exclam" unicode="!" horiz-adv-x="254" 
d="M152.594 666.979q3.688 -4.48999 10.037 -4.48999q3.369 0 3.369 -8.91699v-447.21q0 -5.54401 -3.92799 -9.459q-3.927 -3.916 -9.47801 -3.916q-5.547 0 -9.461 3.914t-3.914 9.461v447.21q0 5.55096 3.91501 9.479q3.91499 3.92798 9.45999 3.92798zM166.011 12.9629
q0 -5.57716 -3.92599 -9.50392q-3.92601 -3.92578 -9.47401 -3.92578q-5.54799 0 -9.474 3.92578q-3.92599 3.92676 -3.92599 9.47462v0.0712996q0 5.5478 3.92599 9.4736q3.92601 3.9258 9.474 3.9258q5.548 0 9.47401 -3.9258q3.92599 -3.9267 3.92599 -9.5156z" />
    <glyph glyph-name="quotedbl" unicode="&#x22;" horiz-adv-x="382" 
d="M266.594 627.469q5.547 0 9.47702 -3.92999q3.92899 -3.92902 3.92899 -9.47699v-183.312q0 -5.54401 -3.92801 -9.45999q-3.92798 -3.91501 -9.478 -3.91501q-5.548 0 -9.46201 3.914q-3.91299 3.91299 -3.91299 9.461v183.312q0 5.55096 3.91501 9.479
q3.91501 3.92798 9.45999 3.92798zM61.958 627.469q5.5469 0 12.1699 -1.96497q1.2364 -1.96503 1.2364 -11.442v-183.312q0 -5.54401 -3.9288 -9.45999q-3.9277 -3.91501 -9.4775 -3.91501q-5.5469 0 -9.4609 3.914q-3.9141 3.914 -3.9141 9.461v183.312
q0 5.55096 3.915 9.479q3.9161 3.92798 9.46 3.92798z" />
    <glyph glyph-name="numbersign" unicode="#" horiz-adv-x="712" 
d="M196.924 712.844q5.438 0 9.291 -3.92999q3.85201 -3.92902 3.85201 -9.47601v-192.938h205.676v192.938q0 5.54999 3.83899 9.47803q3.83899 3.92798 9.27399 3.92798q5.43903 0 9.29102 -3.92999q3.853 -3.92902 3.853 -9.47601v-192.938h161.271
q5.44098 0 9.27502 -3.92801q3.84296 -3.92798 3.84296 -9.478q0 -5.548 -3.84296 -9.461q-3.83405 -3.914 -9.27502 -3.914h-161.271v-264.813h161.271q5.44098 0 9.27502 -3.92801q3.84296 -3.92799 3.84296 -9.478q0 -5.547 -3.84296 -9.461
q-3.83405 -3.914 -9.27502 -3.914h-161.271v-174.531q0 -5.544 -3.85199 -9.46001q-3.85001 -3.91504 -9.29202 -3.91504q-5.43799 0 -9.27499 3.91406q-3.83798 3.91407 -3.83798 9.46099v174.531h-205.676v-174.531q0 -5.544 -3.851 -9.46001
q-3.851 -3.91504 -9.29201 -3.91504q-5.439 0 -9.27699 3.91406q-3.83501 3.91407 -3.83501 9.46099v174.531h-154.1q-5.4404 0 -9.292 3.91499q-3.8506 3.916 -3.8506 9.46001q0 5.547 3.8516 9.47701q3.8535 3.929 9.291 3.929h154.1v264.813h-154.1
q-5.4404 0 -9.292 3.91501q-3.8506 3.91501 -3.8506 9.45999q0 5.547 3.8516 9.47702q3.8535 3.92899 9.291 3.92899h154.1v192.938q0 5.54999 3.83701 9.47803q3.838 3.92798 9.27499 3.92798zM210.067 479.719v-264.813h205.676v264.813h-205.676z" />
    <glyph glyph-name="dollar" unicode="$" horiz-adv-x="513" 
d="M241.594 696.531q5.548 0 9.47601 -3.92902q3.92999 -3.92999 3.92999 -9.47699v-87.375l159.375 0.125q5.47 0 9.392 -3.76099q3.92099 -3.76099 3.92099 -8.703q0 -14.317 -13.313 -14.317h-159.375v-208.782h39.594q73.569 0 115.527 -34.165t40.473 -92.397
q0 -69.137 -41.445 -103.568q-41.445 -34.432 -114.555 -34.432h-39.594v-86.9375q0 -5.54395 -3.92799 -9.45996q-3.92801 -3.91504 -9.47801 -3.91504q-5.54799 0 -9.461 3.91406q-3.914 3.91406 -3.914 9.46094v86.9375h-169.391q-13.5898 0 -13.5898 13.375
q0 5.688 3.8301 9.501q3.8291 3.812 9.7597 3.812h169.391v209.531h-40.969q-71.552 0 -112.776 34.223q-41.2236 34.224 -41.2236 91.558q0 61.572 45.0605 99.786q45.0615 38.214 108.939 38.214h40.969v87.375q0 5.55103 3.91501 9.479q3.916 3.927 9.45999 3.927z
M187.25 569.094q-50.872 0 -89.7168 -30.61q-38.8457 -30.609 -38.8457 -80.734q0 -41.187 36.8838 -69.312q36.8827 -28.126 91.6787 -28.126h40.969v208.782h-40.969zM255 331.969v-209.531h39.594q54.659 0 89.564 30.919q34.904 30.92 34.904 78.549
q0 46.503 -34.42 73.283q-34.422 26.78 -90.048 26.78h-39.594z" />
    <glyph glyph-name="quotesingle" unicode="'" horiz-adv-x="304" 
d="M142.5 627.469q3.599 0 9.96899 -1.96497q-1.27299 -1.96503 -1.27299 -11.442v-183.312q0 -5.54401 -2.549 -9.45999q-2.548 -3.91501 -6.147 -3.91501q-3.60001 0 -6.13499 3.914q-2.543 3.914 -2.543 9.461v183.312q0 5.55096 2.543 9.479
q2.53499 3.92798 6.13499 3.92798z" />
    <glyph glyph-name="parenleft" unicode="(" horiz-adv-x="300" 
d="M182.438 700.531q5.54599 0 9.476 -3.92902q3.92999 -3.92999 3.92999 -9.47699q0 -7.73499 -5.04399 -9.573q-116.553 -123.667 -118.8 -326.927q0 -220.58 119 -325.438l1.09399 -0.8125q-0.0499878 -0.1054 -0.0629883 -0.125q3.81299 -3.9121 3.81299 -9.375
q0 -5.54392 -3.92799 -9.45994q-3.92799 -3.91504 -9.478 -3.91504q-5.755 0 -9.71901 4.1875q-64.206 62.8018 -94.8176 153.247q-30.6114 90.447 -32.7139 191.69q0 109.212 27.7617 188.806q27.7618 79.593 98.1728 156.754q5.819 4.34601 11.316 4.34698z" />
    <glyph glyph-name="parenright" unicode=")" horiz-adv-x="252" 
d="M63.5117 700.531q5.4961 -0.000976562 11.3154 -4.34698q70.4109 -77.161 98.1729 -156.754q27.762 -79.594 27.762 -188.806q-2.103 -101.243 -32.714 -191.69q-30.61 -90.4457 -94.8175 -153.247q-3.9639 -4.1875 -9.7188 -4.1875q-5.5508 0 -9.4785 3.91504
q-3.9277 3.91602 -3.9277 9.45994q0 5.4629 3.8125 9.375q-0.0126991 0.0195999 -0.0625 0.125l1.0937 0.8125q119 104.858 119 325.438q-2.24701 203.26 -118.8 326.927q-5.0439 1.83801 -5.0439 9.573q0 5.547 3.9297 9.47699q3.9296 3.92902 9.4765 3.92902z" />
    <glyph glyph-name="asterisk" unicode="*" horiz-adv-x="450" 
d="M160.438 793.281q7.955 0.210022 11.937 -6.68701l95.156 -164.782l95.125 164.813q6.689 11.586 18.314 4.875q11.57 -6.68201 4.875 -18.281l-95.125 -164.781h190.28q5.54401 0 9.45999 -3.92798q3.91501 -3.92804 3.91501 -9.479q0 -5.547 -3.914 -9.461
q-3.91299 -3.914 -9.461 -3.914h-190.312l95.157 -164.75q6.70898 -11.623 -4.875 -18.312q-11.612 -6.703 -18.314 4.90601l-95.125 164.75l-95.125 -164.75q-6.694 -11.597 -18.281 -4.90601q-11.609 6.702 -4.905 18.312l95.092 164.75h-190.217
q-5.5517 0 -9.4795 3.91498q-3.9277 3.91504 -3.9277 9.46002q0 5.54797 3.9287 9.47699q3.9297 3.92999 9.4785 3.92999h190.25l-95.157 164.781q-6.683 11.573 4.937 18.281q2.929 1.69202 6.313 1.78101z" />
    <glyph glyph-name="plus" unicode="+" horiz-adv-x="664" 
d="M324.616 641.75q5.548 0 9.461 -3.914q3.914 -3.91302 3.914 -9.461v-225.875h225.875q5.54498 0 9.45996 -3.92801q3.91504 -3.927 3.91504 -9.478q0 -5.548 -3.914 -9.461q-3.91302 -3.914 -9.461 -3.914h-225.875v-225.813q0 -5.55101 -3.91501 -9.47801
q-3.91498 -3.92799 -9.45999 -3.92799q-5.547 0 -9.47598 3.92999q-3.93002 3.929 -3.93002 9.47601v225.813h-225.812q-5.5508 0 -9.4786 3.91501q-3.9277 3.91599 -3.9277 9.45999q0 5.547 3.9297 9.47601q3.9297 3.92999 9.4766 3.92999h225.812v225.875
q0 5.54401 3.92801 9.46002q3.927 3.91498 9.478 3.91498z" />
    <glyph glyph-name="comma" unicode="," horiz-adv-x="150" 
d="M55.2168 210.627q5.29 0 9.0371 -3.92999q3.7461 -3.929 3.7461 -9.47601v-183.313q0 -5.54394 -3.7461 -9.45996q-3.7471 -3.91504 -9.0371 -3.91504q-5.291 0 -9.0186 3.91407q-3.7363 3.91406 -3.7363 9.46093v183.313q0 5.55 3.7363 9.47801
q3.7276 3.92799 9.0186 3.92799z" />
    <glyph glyph-name="hyphen" unicode="-" horiz-adv-x="276" 
d="M26.1973 238.366q0 5.548 3.0537 9.478q3.0537 3.92801 7.3662 3.92801h214.987q4.312 0 7.35001 -3.927q3.04599 -3.92799 3.04599 -9.479q0 -5.548 -3.04599 -9.461q-3.03801 -3.914 -7.35001 -3.914h-214.987q-4.3125 0 -7.3662 3.91501
q-3.0537 3.916 -3.0537 9.45999z" />
    <glyph glyph-name="period" unicode="." horiz-adv-x="116" 
d="M55.5 13.4629q0 -5.57716 -3.0459 -9.50392q-3.0391 -3.92578 -7.3418 -3.92578q-4.3018 0 -7.3408 3.92578q-3.0459 3.92676 -3.0459 9.47462v0.0712996q0 5.5478 3.0459 9.4736q3.039 3.9258 7.3408 3.9258q4.3027 0 7.3418 -3.9258q3.0459 -3.9267 3.0459 -9.4736
v-0.0419998z" />
    <glyph glyph-name="slash" unicode="/" horiz-adv-x="636" 
d="M45.1055 9.87695q-10.6741 8.04215 -2.6387 18.7744l502.645 671.349q8.01703 10.707 18.756 2.61401q10.648 -8.02502 2.63202 -18.731l-502.645 -671.349q-8.0346 -10.7312 -18.75 -2.65725z" />
    <glyph glyph-name="zero" unicode="0" horiz-adv-x="548" 
d="M273.781 696.406q118.956 0 172.01 -93.474q53.053 -93.474 53.053 -269.182q0 -174.878 -52.397 -252.924q-52.397 -78.045 -174.728 -78.045q-113.805 0 -168.762 81.0411q-54.957 81.0397 -54.957 251.928q0 171.211 55.886 265.934q55.885 94.722 169.895 94.722z
M273.938 670.516q-101.505 0 -150.299 -81.601q-48.7952 -81.601 -48.7952 -255.165q0 -303.653 197.406 -303.653q107.357 0 153.554 68.2969q46.196 68.2964 46.196 235.356q0 336.766 -198.062 336.766z" />
    <glyph glyph-name="one" unicode="1" horiz-adv-x="162" 
d="M13.2812 700.531h89.9998q6.302 0 10.313 -4.875q0.0769958 -0.10498 0.0940018 -0.125q0.479996 -0.599976 0.686996 -0.906006q0.0510025 -0.0770264 0.0630035 -0.0939941q0.0119934 -0.0200195 0.034996 -0.0540161q2.308 -3.41498 2.308 -7.508v-674.031
q0 -5.54395 -3.927 -9.45996q-3.92799 -3.91504 -9.479 -3.91504q-5.5479 0 -9.4609 3.91406q-3.9141 3.91309 -3.9141 9.46094v660.812h-76.7188q-5.55073 0 -9.47847 3.91498q-3.92773 3.91504 -3.92773 9.46002q0 5.54797 3.92969 9.47699
q3.92871 3.92902 9.47651 3.92902z" />
    <glyph glyph-name="two" unicode="2" horiz-adv-x="482" 
d="M216.688 699.75q121.414 0 170.972 -49.825q49.559 -49.825 49.559 -170.175q0 -66.506 -18.676 -106.275q-18.675 -39.771 -67.098 -61.217q-48.424 -21.446 -132.695 -21.446q-66.417 0 -105.584 -37.282q-39.166 -37.282 -39.166 -104.092l-0.781197 -119.282
l350.156 0.5313q8.397 0 12.063 -7.5625q2.14502 -0.7617 1 -2.9062q0.343018 -1.5948 0.343018 -2.9063q0 -5.5469 -3.92902 -9.47656q-3.92999 -3.92969 -9.47699 -3.92969q-1.46899 0 -2.68701 0.25l-355.282 -0.40625q-7.0107 0.15625 -12.5859 5.27539
q-5.5762 5.11911 -5.5762 11.4434l0.224701 137.281q0 24.632 9.4687 50.851q9.4687 26.219 28.584 51.498q19.1145 25.278 54.3285 41.433q35.212 16.156 80.556 16.156q103.631 0 147.347 35.166q43.716 35.167 43.716 126.896q0 108.988 -42.411 153.541
q-42.412 44.553 -152.37 44.553q-67.647 0 -105.558 -26.424q-37.9112 -26.425 -37.9112 -79.67q0.656197 -2.11603 0.656197 -4.125q0 -5.547 -3.9297 -9.47699q-3.9297 -3.92902 -9.4765 -3.92902q-5.5479 0 -9.4766 3.92902q-3.9297 3.92902 -3.9297 9.47699
q0 2.45001 0.875 4.75l-0.4687 -0.625q0 61.194 42.4042 94.598q42.403 33.402 126.815 33.402z" />
    <glyph glyph-name="three" unicode="3" horiz-adv-x="482" 
d="M219.312 695.75q213.782 0 213.782 -228q0 -44.139 -7.98199 -69.438q-7.98099 -25.3 -32.018 -52.562q23.793 -27.01 31.717 -53.457q7.923 -26.448 8.28299 -68.543q0 -116.362 -44.28 -170.181q-44.278 -53.8193 -159.72 -53.8193q-98.198 0 -143.724 36.3174
q-45.5263 36.3174 -45.5263 92.4636q0 5.547 3.9296 9.47699q3.9297 3.93001 9.4766 3.93001q13.0645 -2.112 13.375 -14.25q0.0537033 0.00699615 0.214798 0.0259933q0.254005 -50.0431 45.4802 -75.4572q45.227 -25.413 118.774 -25.413q96.309 0 136.263 45.8359
q39.955 45.8373 39.955 151.07q-1.27502 48.125 -23.388 88.338q-16.444 12.723 -39.528 14.989q-23.084 2.267 -114.99 2.267q-5.55101 0 -9.47801 3.91501q-3.92799 3.91599 -3.92799 9.45999q0 5.547 3.92999 9.47601q3.929 3.92999 9.47601 3.92999
q76.18 -2.952 107.249 -1.23499q31.07 1.71597 47.876 21.048q4.633 8.10501 13.707 42.608q9.07401 34.503 9.07401 49.204q0 92.761 -46.912 146.834q-46.912 54.072 -141.088 54.072q-146.381 0 -153.093 -106.218q0 -5.54797 -3.9297 -9.47699
q-3.9287 -3.92999 -9.4766 -3.92999q-5.5469 0 -9.4766 3.92999t-3.9297 9.47699q0 71.812 44.1856 102.562q44.1862 30.75 135.72 30.75z" />
    <glyph glyph-name="four" unicode="4" horiz-adv-x="520" 
d="M370.375 698.781q1.31299 0 2.68701 -0.281006q0.0780029 -0.0280151 0.0939941 -0.0310059q3.186 -0.477966 5.81299 -2.34399q8.29102 -5.89203 4.81201 -15.437v-461h86.719q5.54401 0 9.45901 -3.92801q3.91599 -3.929 3.91599 -9.47899q0 -5.54701 -3.914 -9.461
q-3.914 -3.914 -9.461 -3.914h-86.719v-178.781q0 -5.54395 -3.927 -9.45996q-3.92801 -3.91504 -9.479 -3.91504q-5.547 0 -9.461 3.91406t-3.914 9.46094v178.781h-292.688q-3.4902 -0.968002 -7.1875 -0.968002q-11.0947 0 -18.9375 7.842q-7.8437 7.843 -7.8437 18.939
q0.316401 3.99901 5.3437 15.125l321.812 455.187q2.76401 9.75 12.875 9.75zM357 641.969l-298.5 -422.281h298.5v422.281z" />
    <glyph glyph-name="five" unicode="5" horiz-adv-x="488" 
d="M66.875 696.5h364.781q5.547 0 9.47699 -3.92999q3.92902 -3.92798 3.92902 -9.47601q0 -5.54797 -3.92902 -9.47699q-3.92999 -3.92902 -9.47699 -3.92902l-352.156 0.124023v-260.124h137.5q130.924 0 179.711 -41.036q48.789 -41.035 48.789 -150.902
q0 -118.117 -46.602 -168.059q-46.599 -49.9414 -169.398 -49.9414q-54.039 0 -88.666 7.99512q-34.625 7.99418 -53.6074 26.2735q-18.9825 18.2793 -26.4864 41.4531q-7.5039 23.1738 -9.3027 59.8403q0 5.547 3.9297 9.47701q3.9297 3.92999 9.4766 3.92999
q5.5468 0 9.47649 -3.92999q3.9297 -3.93001 3.9297 -9.47701q0 -59.0151 34.316 -84.8042q34.315 -25.789 116.934 -25.789q53.541 0 91.111 14.5605q37.569 14.5605 57.871 41.9258q20.303 27.3659 29.036 60.4399q8.73199 33.074 8.73199 76.105
q0 77.937 -38.514 121.484q-38.511 43.547 -117.174 43.547l-194.75 -1.09302q-5.5469 0 -9.4766 3.92902q-3.9297 3.92999 -3.9297 9.47699l-0.9062 288q0 5.39099 4.8203 9.39801q4.8203 4.008 10.5547 4.008z" />
    <glyph glyph-name="six" unicode="6" horiz-adv-x="466" 
d="M229.625 695.031q36.365 0 68.049 -8.40302q31.685 -8.40399 59.933 -26.847q28.247 -18.442 44.68 -52.977q16.432 -34.534 16.432 -81.742q-0.28299 -5.31403 -4.13901 -9q-3.85699 -3.68701 -9.20499 -3.68701q-5.547 0 -9.47699 3.92999
q-3.92902 3.92902 -3.92902 9.47601q0 71.491 -42.826 106.731q-42.825 35.238 -120.268 35.238q-80.355 0 -113.865 -54.907q-33.51 -54.907 -33.51 -164.249l1.0312 -124.25q19.5738 18.751 51.7758 27.64q32.201 8.88898 93.974 13.735q94.758 7.43201 142.957 -35.067
q48.2 -42.498 48.2 -149.246q0 -96.5154 -47.528 -139.354q-47.525 -42.8389 -138.129 -43.2393q-179.121 -0.22461 -181.625 180.344l1.3438 295.313q0 117.963 45.584 169.262q45.586 51.3 130.541 51.3zM247.719 340.969q-18.76 0.0690002 -40.188 -2.53101
q-25.215 -3.06 -37.802 -5.151q-12.586 -2.09097 -32.575 -8.72098q-19.988 -6.629 -29.74 -16.103q-9.7499 -9.47501 -17.5976 -27.012q-7.8476 -17.538 -7.8476 -41.732q0 -58.74 8.18159 -99.731q8.1797 -40.99 19.9886 -62.9851q11.808 -21.9951 32.923 -33.7929
q21.118 -11.7979 38.756 -14.4414q17.639 -2.6436 45.713 -2.6436q80.416 0 122.52 36.4482q42.105 36.4483 42.105 116.708q0 161.159 -144.437 161.688z" />
    <glyph glyph-name="seven" unicode="7" horiz-adv-x="508" 
d="M484.5 682.217q23.441 6.28101 31.715 -5.737q8.27496 -12.017 -8.52704 -34.451l-451.413 -643.076q-6.6934 -11.5957 -18.2813 -4.90624q-11.6093 6.70117 -4.9062 18.3125l451.381 643.077h-440.219q-5.5508 0 -9.4785 3.91504q-3.9277 3.91602 -3.9277 9.45996
q0 5.54602 3.9296 9.47601q3.9297 3.92999 9.4766 3.92999h440.25z" />
    <glyph glyph-name="eight" unicode="8" horiz-adv-x="516" 
d="M261.335 700.052q-103.892 0 -157.685 -50.337q-53.7906 -50.337 -53.7906 -140.819q0 -74.909 30.9209 -116q30.9227 -41.092 83.5807 -48.469q-52.894 -12.083 -83.3688 -55.444q-30.4736 -43.361 -30.4736 -116.837q0 -91.7974 47.6816 -132.961
q47.6828 -41.1641 161.82 -41.1641q113.116 0 161.417 40.169q48.301 40.1699 48.301 133.956q0 78.615 -28.884 122.447q-28.88 43.832 -81.499 51.178q52.658 7.754 81.19 48.501q28.533 40.748 28.533 110.624q0 95.07 -49.104 145.113q-49.105 50.043 -158.639 50.043z
M259.469 672.771q98.834 0 141.069 -43.594q42.234 -43.593 42.234 -125.031q0 -144.063 -183.303 -144.063q-92.152 0 -137.727 38.229q-45.5779 38.228 -45.5779 109.834q0 76.734 49.6639 120.679q49.665 43.946 133.641 43.946zM259.358 330.771
q38.682 0.17099 69.628 -7.10699q30.946 -7.27802 57.749 -24.343q26.8 -17.064 41.648 -49.514q14.848 -32.45 15.05 -78.411q0 -75.2398 -41.962 -109.651q-41.963 -34.4121 -141.345 -34.4121q-92.173 0 -137.737 37.165q-45.5638 37.165 -45.5638 106.898
q0 74.733 53.0578 119.909q53.058 45.174 129.475 39.466z" />
    <glyph glyph-name="nine" unicode="9" horiz-adv-x="448" 
d="M215.656 696.438q179.121 0.223999 181.625 -180.344l-1.34302 -295.313q0 -120.882 -37.075 -170.722q-37.075 -49.8399 -119.051 -49.8399q-58.078 0 -103.091 25.1954q-45.014 25.1953 -59.9749 60.04q-7.7676 14.207 2.8955 21.9379q12.6123 9.14301 21.4934 -6.95
q18.074 -36.5924 56.765 -54.7672q38.693 -18.1748 82.662 -18.1748q32.958 0 56.105 9.9961q23.147 9.9971 37.006 26.8223q13.857 16.8261 21.562 45.9206q7.70502 29.095 10.203 60.026q2.496 30.931 2.496 76.404l-1.02798 124.237q-19.572 -18.751 -51.774 -27.64
q-32.202 -8.88898 -93.976 -13.735q-94.758 -7.43201 -142.957 35.067q-48.1992 42.498 -48.1992 149.246q0 96.515 47.5264 139.354q47.5266 42.839 138.13 43.24zM221.906 669.125q-80.416 0 -122.52 -36.448q-42.1045 -36.448 -42.1045 -116.708
q0 -181.556 184.625 -159.157q25.215 3.06 37.802 5.151q12.587 2.09097 32.575 8.72098q19.988 6.629 29.739 16.103q9.75101 9.47501 17.599 27.012q7.84799 17.538 7.84799 41.732q0 58.74 -8.18201 99.731q-8.181 40.99 -19.988 62.985q-11.809 21.995 -32.925 33.793
q-21.116 11.798 -38.755 14.441q-17.639 2.64398 -45.713 2.64398z" />
    <glyph glyph-name="colon" unicode=":" horiz-adv-x="200" 
d="M101 380.056q0 -5.577 -3.9258 -9.50299q-3.9258 -3.92599 -9.4736 -3.92599q-5.5479 0 -9.4736 3.92599q-3.9268 3.92599 -3.9268 9.47299v0.071991q0 5.548 3.9268 9.47302q3.9257 3.92697 9.4736 3.92697q5.5478 0 9.4736 -3.92697q3.9258 -3.92502 3.9258 -9.51501z
M101 153.723q0 -5.57701 -3.9258 -9.50301q-3.9258 -3.927 -9.4736 -3.927q-5.5479 0 -9.4736 3.927q-3.9268 3.92599 -3.9268 9.47299v0.0720062q0 5.547 3.9268 9.47301q3.9257 3.92699 9.4736 3.92699q5.5478 0 9.4736 -3.92699q3.9258 -3.92601 3.9258 -9.515z" />
    <glyph glyph-name="semicolon" unicode=";" horiz-adv-x="196" 
d="M96.0918 211.329q5.5482 0 10.0122 -4.465q3.396 -4.465 3.396 -8.94099v-183.313q0 -5.54497 -3.929 -9.46001q-3.928 -3.91504 -9.4792 -3.91504q-5.5469 0 -9.4609 3.91309q-3.9141 3.91406 -3.9141 9.46196v183.313q0 5.55099 3.916 9.478
q3.9151 3.92799 9.459 3.92799zM108.801 419.633q0 -5.577 -3.926 -9.50299t-9.4736 -3.92599q-5.5479 0 -9.4737 3.92599q-3.9257 3.92599 -3.9257 9.474v0.0709839q0 5.548 3.9257 9.474q3.9258 3.92603 9.4737 3.92603q5.5476 0 9.4736 -3.92603
q3.926 -3.92599 3.926 -9.51599z" />
    <glyph glyph-name="less" unicode="&#x3c;" horiz-adv-x="438" 
d="M11.0371 372.16q0.00979996 5.54199 4.4297 9.46899q0.974601 0.867004 2.1094 1.56299l311.119 356.147q10.654 9.47003 21.305 0q10.653 -9.46802 0 -18.938l-145.178 -168.75q-145.178 -168.75 -157.293 -179.647q12.3994 -11.049 156.762 -180.509l144.359 -169.461
q10.669 -9.4834 0.0360107 -18.9365q-10.668 -9.48536 -21.34 0l-311.913 359.594q-0.0176001 0.0160217 -0.8096 0.844025q-3.5957 3.767 -3.5859 8.62399z" />
    <glyph glyph-name="equal" unicode="=" horiz-adv-x="494" 
d="M59.2969 495.032q0 5.54797 3.9297 9.478q3.9287 3.92798 9.4765 3.92798h324.797q5.54501 0.00100708 9.45999 -3.92599q3.91501 -3.92798 3.91501 -9.47998q0 -5.548 -3.91299 -9.46201q-3.914 -3.91299 -9.46201 -3.91299h-324.797q-5.5508 0 -9.4785 3.91498
q-3.9277 3.91602 -3.9277 9.46002zM59.2969 258.244q0 5.548 3.9297 9.47702q3.9287 3.92899 9.4765 3.92899h324.797q5.54501 0 9.45999 -3.927q3.91501 -3.92798 3.91501 -9.479q0 -5.54799 -3.91299 -9.46199q-3.914 -3.91299 -9.46201 -3.91299h-324.797
q-5.5508 0 -9.4785 3.91499q-3.9277 3.91501 -3.9277 9.45999z" />
    <glyph glyph-name="greater" unicode="&#x3e;" horiz-adv-x="440" 
d="M402.963 372.16q-0.0100098 5.54199 -4.43002 9.46899q-0.973999 0.867004 -2.10898 1.56299l-311.119 356.147q-10.6533 9.47003 -21.3047 0q-10.6533 -9.46802 0 -18.938l145.178 -168.75q145.178 -168.75 157.293 -179.647q-12.4 -11.049 -156.762 -180.509
l-144.359 -169.461q-10.6689 -9.4834 -0.0351028 -18.9365q10.6679 -9.48536 21.3398 0l311.913 359.594q0.0180054 0.0160217 0.810028 0.844025q3.59598 3.767 3.586 8.62399z" />
    <glyph glyph-name="question" unicode="?" horiz-adv-x="534" 
d="M244 717.375q104.552 0 148.526 -40.935q43.974 -40.934 43.974 -135.065q0 -71.209 -33.353 -105.073q-33.351 -33.864 -107.084 -33.864q-52.598 0 -78.673 -30.548q-26.077 -30.548 -26.077 -108.828l-0.563004 -34.624q0 -5.55101 -3.91499 -9.479
q-3.914 -3.92799 -9.459 -3.92799q-5.548 0 -9.47801 3.92999q-3.929 3.929 -3.929 9.47701l0.875 40.812q0 160.062 132.875 160.062q61.271 0 87.151 26.55t25.88 85.513q0 76.689 -42.756 115.392q-42.756 38.702 -123.994 38.702q-67.168 0 -104.989 -24.181
q-37.823 -24.182 -37.823 -86.038q0 -5.54401 -3.9429 -9.47601q-3.94431 -3.92999 -9.4951 -3.92999q-5.543 0 -9.458 3.927q-3.916 3.92902 -3.916 9.479q0 66.084 41.322 99.104q41.322 33.021 128.302 33.021zM180.802 21.3066q0 -5.5771 -3.92599 -9.5039
q-3.92601 -3.92575 -9.47401 -3.92575q-5.54799 0 -9.47299 3.92575q-3.92599 3.9268 -3.92599 9.4746v0.0704002q0 5.5478 3.92599 9.4746q3.925 3.9257 9.47299 3.9257q5.548 0 9.47401 -3.9257q3.92599 -3.9268 3.92599 -9.5157z" />
    <glyph glyph-name="at" unicode="@" horiz-adv-x="775" 
d="M373.938 647.875q96.906 0 164.978 -26.237q68.075 -26.238 108.032 -78.683q39.958 -52.444 57.755 -123.398q17.797 -70.955 17.797 -167.807q0 -104.398 -14.248 -179.911q-14.25 -75.5117 -47.172 -120.895q-32.92 -45.3818 -82.705 -45.3818
q-29.604 0 -51.599 26.3965q-21.994 26.3965 -31.767 58.8633q-9.77499 32.4658 -13.102 68.1777q-18.105 -14.3184 -51.517 -23.791q-33.411 -9.4727 -56.67 -9.1152q-63.075 0 -104.006 60.2519q-40.932 60.2523 -40.932 165.404q0 105.368 36.322 163.605
q36.321 58.239 109.616 58.239q64.721 0 100.252 -58.649q35.528 -58.649 35.528 -165.195l-2 -170q-0.608002 -8.5273 4.03497 -31.2842q4.64502 -22.7568 13.249 -49.5547q8.60498 -26.7988 24.606 -47.0742q16 -20.2744 34.798 -20.2744q48.712 0 80.153 91.9785
q31.441 91.98 31.441 228.209q0 191.261 -81.808 278.209q-81.811 86.947 -238.662 86.947q-63.198 0 -114.185 -20.936q-50.987 -20.937 -84.278 -55.92q-33.292 -34.985 -55.481 -82.597q-22.189 -47.613 -31.4149 -98.869q-9.2236 -51.256 -8.4531 -106.834
q0 -94.213 42.313 -183.807q42.313 -89.5938 116.499 -132.443q10.626 -2.2578 10.626 -13.0938q0 -5.5478 -3.929 -9.47649q-3.931 -3.9297 -9.47701 -3.9297q-4.07899 0 -7.5 2.3125q-68.781 40.4287 -122.515 133.994q-53.7348 93.5664 -53.7348 206.443
q0 177.612 86.6648 286.869q86.665 109.256 232.491 109.256zM373.22 447.312q-58.222 0 -87.471 -50.917q-29.249 -50.918 -29.249 -144.645q0 -90.081 31.874 -144.229q31.874 -54.146 82.408 -54.146q30.779 0 50.061 5.3447q19.28 5.3448 34.821 20.8877
q15.542 15.543 22.33 45.4906q6.78802 29.947 6.78802 77.433q0 122.957 -24.691 183.869q-24.691 60.912 -86.871 60.912z" />
    <glyph glyph-name="A" unicode="A" 
d="M192.95 456.007q62.8809 0 99.502 -55.2861q36.6211 -55.2852 36.6211 -173.276l-1.65527 -226.62q0.000976562 -5.54688 -3.91406 -9.46094q-3.91406 -3.91406 -9.46094 -3.91406q-5.5498 0 -9.47852 3.91504q-3.92773 3.91504 -3.92773 9.45996v48.3506
q-41.0469 -50.043 -107.687 -50.043q-75.3408 0 -113.249 61.1299t-37.9082 169.432q0 105.42 42.0264 165.867q42.0264 60.4463 109.131 60.4463zM193.7 428.726q-55.7744 0 -90.2002 -53.7646q-34.4268 -53.7656 -34.4268 -147.392q0 -93.4053 31.0674 -147.281
q31.0684 -53.875 93.5596 -53.875q52.5459 0 79.3037 37.333t26.7578 129.92q0 128.896 -25.1758 181.979q-25.1748 53.0811 -80.8857 53.0811z" />
    <glyph glyph-name="B" unicode="B" horiz-adv-x="392" 
d="M194.75 -4.19043q-76.1348 0 -110.129 55.3711q-33.9951 55.3701 -33.9951 183.191l1.65625 409.562q-0.000976562 5.54688 3.91309 9.46191q3.91406 3.91309 9.46191 3.91309q5.5498 0 9.47754 -3.91504q3.92871 -3.91602 3.92871 -9.45996v-221.293
q41.0469 50.043 115.687 50.043q86.4863 0 122.822 -58.3096q36.335 -58.3125 36.335 -182.253q-0.000976562 -130.777 -34.626 -183.545q-34.624 -52.7676 -124.531 -52.7676v0zM194 23.0908q75.7324 0 104.18 46.0732q28.4463 46.0732 28.4463 165.083
q-0.000976562 102.485 -29.7627 156.82q-29.7627 54.3359 -102.863 54.3359q-69.3965 0 -91.7285 -37.8906q-22.333 -37.8916 -22.333 -139.362q0 -135.228 25.0566 -190.144t89.0049 -54.916z" />
    <glyph glyph-name="C" unicode="C" horiz-adv-x="340" 
d="M203.585 476.625q60.0264 0 89.4375 -40.2188q4.59277 -4.02734 4.59277 -10.0625q0 -5.54492 -3.92773 -9.45996q-3.92578 -3.91504 -9.47754 -3.91504q-8.13477 0.886719 -11.6875 6.84375q-26.4805 30.6875 -69.8438 30.6875q-33.7422 0 -59.3701 -19.5156
q-25.6289 -19.5166 -39.8799 -51.9658t-21.4287 -67.7803q-7.17676 -35.3301 -8.16504 -73.4883q0.988281 -38.1582 8.16504 -73.4883q7.17773 -35.3311 21.4287 -67.7803t39.8799 -51.9658q25.6279 -19.5156 59.3701 -19.5156q43.3633 0 69.8438 30.6875
q3.55176 5.95703 11.6875 6.84375q5.55176 0 9.47754 -3.91504q3.92773 -3.91504 3.92773 -9.45996q0 -6.03516 -4.59277 -10.0625q-29.4111 -40.2188 -89.4375 -40.2188q-69.6885 0 -114.954 60.2568t-45.2656 179.557q1.03125 40.1104 5.52051 72.5967t15.5801 64.3096
q11.0908 31.8252 28.3672 53.2451q17.2754 21.4209 45.4639 34.6016q28.1865 13.1836 65.2881 13.1836z" />
    <glyph glyph-name="D" unicode="D" horiz-adv-x="392" 
d="M201.376 -4.19043v0q-89.9062 0 -124.531 52.7676t-34.626 183.545q0 123.94 36.335 182.253q36.3359 58.3096 122.822 58.3096q74.6396 0 115.687 -50.043v221.293q0 5.54395 3.92871 9.45996q3.92773 3.91504 9.47754 3.91504q5.54785 0 9.46191 -3.91309
q3.91406 -3.91504 3.91309 -9.46191l1.65625 -409.562q0 -127.821 -33.9951 -183.191q-33.9941 -55.3711 -110.129 -55.3711zM202.126 23.0908q63.9482 0 89.0049 54.916t25.0566 190.144q0 101.471 -22.334 139.362q-22.332 37.8906 -91.7275 37.8906
q-73.1006 0 -102.863 -54.3359q-29.7617 -54.335 -29.7627 -156.82q0 -119.01 28.4463 -165.083q28.4473 -46.0732 104.18 -46.0732z" />
    <glyph glyph-name="E" unicode="E" horiz-adv-x="390" 
d="M202.219 479.562q141.633 0 140.188 -239.251q0.000976562 -5.5498 -3.91406 -9.47754q-3.91602 -3.92773 -9.46094 -3.92773l-0.875 -0.0947266h-255.875q0 -42.9277 16.1904 -87.6396t50.8604 -78.3018q34.6699 -33.5889 78.7295 -33.5889q18.167 0 31.9365 2.75684
q13.7686 2.75684 22.9268 7.79102q9.15918 5.03418 16.874 12.1064q7.71582 7.07129 13.7793 15.7021l13.6406 18.5811q8.89648 12.0938 15.3438 12.0938q5.54395 0 9.45898 -3.92773q3.91602 -3.92773 3.91602 -9.47852q-0.396484 -3.58984 -5.03125 -11.7812
q-5.30762 -6.95605 -9.84082 -15.8896t-14.7529 -18.6416q-10.2217 -9.70898 -22.3242 -17.7852t-32.5508 -13.3174q-20.4502 -5.24121 -45.4365 -5.24121q-75.875 0 -124.938 67.0488q-49.0615 67.0479 -49.0615 174.451q0 119.114 45.1631 178.463
q45.1621 59.3496 115.055 59.3496zM201.312 453.438q-54.1133 0 -91.5713 -53.4023q-37.459 -53.4033 -37.459 -145.347h245.719q0 94.6689 -32.2676 146.708q-32.2666 52.041 -84.4209 52.041z" />
    <glyph glyph-name="F" unicode="F" horiz-adv-x="310" 
d="M192.088 662.406q47.2607 -2.37012 71.7178 -26.3125q7.03223 -3.82031 7.03223 -11.7812q0 -5.54785 -3.92969 -9.47656q-3.92969 -3.92969 -9.47754 -3.92969q-7.66602 0.771484 -11.1865 6.03125q-14.5654 18.8984 -54.0322 19.9688q-36.6797 0 -47.5264 -26.9258
t-10.8477 -103.324v-53.1875h128.093q5.54395 0 9.45996 -3.92773q3.91504 -3.92773 3.91504 -9.47852q0 -5.54688 -3.91406 -9.46094t-9.46094 -3.91406h-128.093l-0.0625 -414.5q0 -5.55078 -3.91602 -9.47852q-3.91504 -3.92773 -9.45898 -3.92773
q-5.54785 0 -9.47656 3.92871q-3.92969 3.92969 -3.92969 9.47754q0 62.7568 -0.494141 202.027q-0.495117 139.271 -0.412109 212.473h-53.3125q-5.55078 0 -9.47852 3.91504q-3.92871 3.91602 -3.92773 9.45996q0 5.54883 3.92871 9.47754t9.47754 3.92871h53.3438
q0.0771484 32.4873 0.186523 53.1875q0 87.6104 18.7979 121.681q18.7969 34.0693 66.9844 34.0693z" />
    <glyph glyph-name="G" unicode="G" horiz-adv-x="392" 
d="M203.522 476.406q76.4795 0 111.302 -58.0068q34.8223 -58.0059 34.8223 -180.306l-1.34375 -237.312q0 -186.562 -150.125 -186.562q-56.8955 0 -95.4619 32.2734t-40.8193 68.7891q3.45508 13.4062 13.4062 13.4062q11.5498 0 13.25 -11.4062
q8.75977 -32.6963 39.7402 -54.2383q30.9785 -21.543 70.6348 -21.543q43.6133 0 72.5215 29.9072q28.9082 29.9082 39.4609 72.0547q10.5518 42.1475 8.36133 91.4443q-15.1455 -20.5527 -43.043 -27.9639q-27.8965 -7.41113 -72.707 -7.41113q-90.1934 0 -125.674 52.9971
q-35.4814 52.9971 -35.4814 183.316q0 123.476 37.21 182.019q37.2109 58.543 123.946 58.543zM204.272 449.125q-73.3145 0 -103.97 -54.6191t-30.6553 -156.537q0 -118.518 29.2979 -164.837t105.327 -46.3193q42.4678 0 66.0625 11.3701q23.5947 11.3691 36.5469 44.5674
q12.9521 33.1973 12.9521 94.7812l0.21875 82.2812q-2.63477 96.5215 -30.5195 142.916q-27.8857 46.3965 -85.2607 46.3965z" />
    <glyph glyph-name="H" unicode="H" horiz-adv-x="398" 
d="M65.375 659.25q5.54785 0 9.47656 -3.92969q3.92871 -3.92871 3.92871 -9.47656v-238.906q35.9082 59.375 118.375 59.375q86.0254 0 122.59 -45.1885q36.5674 -45.1895 36.5674 -141.374l-0.782227 -266.281q0 -5.54688 -3.92871 -9.47656
q-3.93066 -3.92969 -9.47656 -3.92969q-5.54785 0 -9.47754 3.92969q-3.92871 3.92871 -3.92773 9.47656l0.155273 133.141q0.15625 133.141 0.155273 133.141q0 83.7158 -32.8359 121.498q-32.835 37.7832 -99.7891 37.7832q-51.4893 0 -83.791 -41.042
q-32.3027 -41.042 -32.3027 -118.239l-1.09277 -266.281q-0.000976562 -5.54688 -3.93066 -9.47656t-9.47656 -3.92969q-11.1797 0 -13.1865 11q-0.625 1.94727 -0.625 4.09375v77q-0.96875 187.594 -0.969727 187.594q0 15.2822 0.969727 29.2197v336.875
q0 5.55176 3.91504 9.47754q3.91602 3.92773 9.45996 3.92773z" />
    <glyph glyph-name="I" unicode="I" horiz-adv-x="124" 
d="M66.9785 475.612q5.54883 0 9.47852 -3.92969t3.92969 -9.47656v-449.25q0 -5.54395 -3.92871 -9.45996q-3.92773 -3.91504 -9.47949 -3.91504q-5.5459 0 -9.45996 3.91406q-3.91504 3.91406 -3.91504 9.46094v449.25q0 5.5498 3.91797 9.47852
q3.91406 3.92773 9.45703 3.92773zM79.8506 655.13q0 -5.57617 -3.92676 -9.50293q-3.92676 -3.92578 -9.47363 -3.92578t-9.47363 3.92578q-3.92676 3.92676 -3.92676 9.47363v0.0712891q0 5.54688 3.92676 9.47461q3.92676 3.92578 9.47363 3.92578t9.47363 -3.92578
q3.92676 -3.92773 3.92676 -9.5166z" />
    <glyph glyph-name="J" unicode="J" horiz-adv-x="190" 
d="M117.265 475.625q5.54688 0 9.47754 -3.92969q3.92969 -3.92871 3.92969 -9.47656q0 -49.8418 0.592773 -223.058q0.59375 -173.216 0.09375 -267.411q0 -87.6123 -18.7969 -121.681q-18.7969 -34.0693 -66.9844 -34.0693q-47.2627 2.37109 -71.7188 26.3115
q-7.03125 3.82129 -7.03125 11.7822q0 5.54688 3.92969 9.47656q3.93066 3.92969 9.47656 3.92969q7.13281 0 11.125 -5.90625l0.0634766 -0.125q14.5664 -18.9004 54.0303 -19.9688q36.6807 0 47.5273 26.9258q10.8467 26.9248 10.8477 103.324l0.0625 490.469
q0 5.5498 3.91602 9.47852q3.91504 3.92773 9.45898 3.92773zM130.127 655.13q0 -5.57715 -3.92578 -9.50293t-9.47363 -3.92578q-5.54883 0 -9.47461 3.92578t-3.92578 9.47363v0.0712891q0 5.54785 3.92578 9.47461q3.92676 3.92578 9.47461 3.92578t9.47363 -3.92578
q3.92578 -3.92676 3.92578 -9.5166z" />
    <glyph glyph-name="K" unicode="K" horiz-adv-x="356" 
d="M51.0947 669.25q5.54785 0 9.47656 -3.92969q3.92871 -3.92871 3.92871 -9.47656v-386.812l238.875 224.781q9.74805 9.15625 18.9375 -0.625q9.15723 -9.75 -0.594727 -18.9062l-189.718 -178.5l210.656 -273.5q8.10742 -10.6797 -2.56152 -18.7812
q-10.6787 -8.10449 -18.7822 2.5625l-208.906 271.25l-47.9062 -45.0625v-221.094q0 -5.54395 -3.92773 -9.45996q-3.92773 -3.91504 -9.47754 -3.91504q-5.54883 0 -9.46289 3.91406q-3.91406 3.91309 -3.91406 9.46094v644.688q0 5.55176 3.91504 9.47754
q3.91602 3.92773 9.46191 3.92773z" />
    <glyph glyph-name="L" unicode="L" horiz-adv-x="122" 
d="M65.5215 653.243q5.54785 0 9.47754 -3.93066q3.92969 -3.92773 3.92969 -9.47559v-624.669q0 -5.54492 -3.92773 -9.45996q-3.92871 -3.91504 -9.47949 -3.91504q-5.54688 0 -9.46094 3.91406q-3.91406 3.91309 -3.91406 9.46094v624.669q0 5.5498 3.91504 9.47852
q3.91602 3.92773 9.45996 3.92773z" />
    <glyph glyph-name="M" unicode="M" horiz-adv-x="548" 
d="M160.125 478.312q93.207 0 121.594 -73.625q28.3877 73.625 121.594 73.625q27.8291 0 48.1729 -6.34961q20.3447 -6.35059 38.6406 -22.9531q18.2959 -16.6016 27.8047 -50.0654q9.50684 -33.4639 9.50684 -83.1943l-1.375 -302.281q0 -5.54785 -3.92871 -9.47656
q-3.92969 -3.92969 -9.47754 -3.92969q-5.5459 0 -9.47559 3.92969t-3.93066 9.47656l-1.09375 302.281q0.000976562 73.4629 -26.7881 104.372q-26.79 30.9092 -67.3057 30.9092q-57.7246 0 -83.1748 -32.3623q-25.4502 -32.3613 -25.4502 -102.919l0.15625 -77.1406
l0.15625 -77.1406q0.000976562 -5.54785 -3.92871 -9.47656q-3.92969 -3.93066 -9.47754 -3.93066q-0.597656 0.03125 -0.625 0.0322266q-0.0292969 -0.000976562 -0.264648 -0.0166016q-5.90625 -0.015625 -9.83594 3.91504q-3.93066 3.92969 -3.93066 9.47656
l0.3125 154.281q0 70.5576 -25.4502 102.919q-25.4492 32.3623 -83.1748 32.3623q-40.5146 0 -67.3037 -30.9092t-26.7891 -104.372l-1.09375 -302.281q0 -5.54785 -3.92969 -9.47656q-3.92969 -3.92969 -9.47656 -3.92969q-5.54883 0 -9.47852 3.92871
q-3.92871 3.92969 -3.92871 9.47754l-1.375 302.281q0 49.7285 9.50879 83.1943q9.50879 33.4639 27.8047 50.0664q18.2949 16.6016 38.6387 22.9521q20.3438 6.34961 48.1729 6.34961z" />
    <glyph glyph-name="N" unicode="N" horiz-adv-x="386" 
d="M189.843 466.312q85.7734 0 121.466 -45.0039q35.6914 -45.0049 35.6914 -141.559l-0.782227 -266.281q0 -5.54785 -3.92871 -9.47656q-3.92871 -3.92969 -9.47656 -3.92969q-5.54688 0 -9.47656 3.92969t-3.92969 9.47656l0.311523 266.281q0 84.0059 -31.9756 121.647
q-31.9746 37.6416 -98.6494 37.6416q-50.9844 0 -81.5381 -40.7822q-30.5547 -40.7822 -30.5547 -118.507l-1.09375 -266.281q-0.000976562 -5.54785 -3.92969 -9.47656q-3.92969 -3.92969 -9.47656 -3.92969q-5.54785 0 -9.47754 3.92969
q-3.92969 3.92871 -3.92969 9.47656l-1.375 266.281q0 98.957 36.8086 142.76t105.316 43.8027z" />
    <glyph glyph-name="O" unicode="O" horiz-adv-x="402" 
d="M197.92 474.312q91.3418 0 130.249 -53.8311q37.9072 -53.832 37.9072 -182.481q0 -123.241 -39.7109 -181.172q-40.71 -59.3906 -128.445 -59.3906q-154.125 0 -154.125 238.312q0 125.847 38.292 182.204q38.292 56.3594 115.833 56.3594zM196.17 447.031
q-65.3457 0 -94.7041 -48.6582q-29.3584 -48.6592 -29.3584 -162.498q0 -211.156 124.062 -211.156q142.625 0 142.625 211.156q0 116.765 -32.7031 163.961q-32.7041 47.1953 -109.922 47.1953z" />
    <glyph glyph-name="P" unicode="P" horiz-adv-x="388" 
d="M191.75 476.125q89.9072 0 124.532 -52.7676q34.624 -52.7676 34.625 -183.546q0 -123.94 -36.3359 -182.251q-36.3359 -58.3096 -122.821 -58.3096q-74.6396 0 -115.687 50.043v-221.294q0 -5.54395 -3.92871 -9.45996q-3.92871 -3.91504 -9.47852 -3.91504
q-5.5459 0 -9.45996 3.91406q-3.91602 3.91406 -3.91504 9.46094l-1.65527 409.562q0 127.824 33.9932 183.194q33.9951 55.3691 110.131 55.3691zM191 448.844q-63.9482 0 -89.0049 -54.916t-25.0566 -190.144q0 -101.471 22.333 -139.362
q22.332 -37.8906 91.7285 -37.8906q73.1006 0 102.862 54.3359q29.7627 54.335 29.7637 156.821q0 119.008 -28.4473 165.083q-28.4473 46.0732 -104.179 46.0723z" />
    <glyph glyph-name="Q" unicode="Q" horiz-adv-x="412" 
d="M201.157 476.125q76.1348 0 110.13 -55.3691q33.9941 -55.3701 33.9941 -183.194l-1.65625 -409.562q0.000976562 -5.54688 -3.91406 -9.46094q-3.91406 -3.91406 -9.46094 -3.91406q-5.5498 0 -9.47852 3.91504q-3.92773 3.91602 -3.92773 9.45996v221.294
q-41.0469 -50.043 -115.687 -50.043q-86.4854 0 -122.821 58.3096q-36.3359 58.3105 -36.3359 182.251q0.000976562 130.778 34.625 183.546q34.625 52.7676 124.532 52.7676zM201.907 448.844q-75.7314 0.000976562 -104.179 -46.0723q-28.4473 -46.0752 -28.4473 -165.083
q0.000976562 -102.486 29.7637 -156.821q29.7617 -54.3359 102.862 -54.3359q69.3955 0 91.7285 37.8906q22.333 37.8916 22.333 139.362q0 135.228 -25.0566 190.144t-89.0049 54.916z" />
    <glyph glyph-name="R" unicode="R" 
d="M196.845 476.312q55.3594 0 94.6035 -42.8174t41.6768 -82.2451q-3.4541 -13.4062 -13.4053 -13.4062q-11.5479 0 -13.25 11.4062q-9.68555 36.1475 -41.3936 67.9648q-31.709 31.8164 -68.9814 31.8164q-51.9951 0 -86.0449 -41.2803t-34.0498 -118.001
l-1.09277 -276.281q-0.00195312 -5.54785 -3.93066 -9.47656q-3.92969 -3.92969 -9.47656 -3.92969t-9.47559 3.92969t-3.92969 9.47656q0 276.281 -1.375 276.281q0 186.562 150.125 186.562z" />
    <glyph glyph-name="S" unicode="S" horiz-adv-x="334" 
d="M170.219 476.625q104.094 0 134.438 -62.2188q4.59277 -4.0293 4.59277 -10.0625q0 -5.54492 -3.92676 -9.45996t-9.47949 -3.91504q-8.13477 0.886719 -11.6865 6.84375q-9.31934 20.4844 -32.4688 36.5859q-23.1514 16.1016 -82.377 16.1016
q-67.6729 0 -94.2578 -23.9395q-26.585 -23.9404 -26.585 -86.8105q0 -39.2012 24.3936 -62.1631t88.0127 -22.9619q81.4561 0 120.837 -27.0059q39.3818 -27.0059 39.3818 -92.8076q0 -43.1084 -8.94043 -69.8086q-8.93945 -26.7012 -30.416 -40.7363
q-21.4756 -14.0352 -48.7266 -18.7139q-27.25 -4.67773 -72.1357 -4.67773q-43.2744 0 -83.9814 22.124t-47.4561 52.0947q-4.59375 4.02832 -4.59375 10.0625q0 5.54492 3.92676 9.45996q3.92773 3.91504 9.47949 3.91504q8.13477 -0.887695 11.6875 -6.84375
q9.72656 -29.6514 44.1299 -47.1699q34.4023 -17.5176 67.7139 -17.5176q74.5303 0 101.808 20.4023q29.0361 21.7188 29.0361 88.3477q0 39.4512 -26.3799 64.751q-27.5 26.374 -88.0264 26.374q-30.0215 0 -50.2783 1.86621t-42.9023 9.11621
q-22.6455 7.25098 -35.9746 20.3691t-22.1963 36.9434q-8.86719 23.8242 -8.86719 57.5176q0 63.8994 35.8877 93.918q35.8867 30.0195 116.331 30.0195z" />
    <glyph glyph-name="T" unicode="T" horiz-adv-x="266" 
d="M188.25 -1.21875q-48.1885 0 -66.9854 34.0693q-18.7969 34.0703 -18.7969 121.68l-0.186523 288.25h-74.4736q-5.54785 0 -9.47656 3.93066q-3.92871 3.92871 -3.92871 9.47656q-0.000976562 5.54297 3.92676 9.45898q3.92871 3.91602 9.47852 3.91602h74.4424
q-0.0791016 69.8574 0.413086 90.9365q0.493164 21.0801 0.493164 88.501q0 5.54785 3.92871 9.47656t9.47656 3.92871q5.54395 0 9.45996 -3.92676q3.91504 -3.92773 3.91504 -9.47852l0.0634766 -179.438h102.436q5.5459 0 9.46094 -3.91504
q3.91406 -3.91406 3.91406 -9.45996q0 -5.5498 -3.91406 -9.47852q-3.91797 -3.92871 -9.46094 -3.92871h-102.436v-288.25q0.000976562 -76.3975 10.8477 -103.323t47.5264 -26.9258q39.4648 1.06836 54.0322 19.9688q3.52051 5.25977 11.1865 6.03125
q5.54785 0 9.47754 -3.92969q3.92969 -3.92871 3.92969 -9.47656q0 -7.95996 -7.03223 -11.7812q-24.457 -23.9424 -71.7178 -26.3125v0z" />
    <glyph glyph-name="U" unicode="U" horiz-adv-x="396" 
d="M205.899 2.58496q-85.7734 0 -121.466 45.0039q-35.6914 45.0049 -35.6914 141.558l0.782227 266.282q0 5.54785 3.92871 9.47656q3.92871 3.92969 9.47656 3.92969q5.54688 0 9.47656 -3.92969t3.92969 -9.47656l-0.311523 -266.282q0 -84.0049 31.9756 -121.646
t98.6494 -37.6416q50.9854 0 81.5381 40.7822q30.5547 40.7822 30.5547 118.506l1.09375 266.282q0.00195312 5.54785 3.93066 9.47559q3.92871 3.92969 9.47559 3.92969q5.54785 0 9.47852 -3.92969q3.92871 -3.92773 3.92871 -9.47559l1.375 -266.282
q0 -98.957 -36.8076 -142.759q-36.8096 -43.8027 -105.317 -43.8027v0z" />
    <glyph glyph-name="V" unicode="V" horiz-adv-x="376" 
d="M30.4336 485.156q5.54883 0 9.47754 -3.92969q3.93066 -3.92871 3.92969 -9.47656q0 -91.1562 28.1592 -200.204q28.1611 -109.048 60.6816 -177.562t48.8457 -68.5146q16.6504 0 48.6699 71.4531q32.0195 71.4521 59.082 180.295q27.0615 108.842 27.0615 194.532
q0 5.54883 3.92871 9.47754t9.47559 3.92871q11.29 0 13.1885 -11.1562q0.0322266 -78.1045 -25.957 -190.988q-25.9902 -112.884 -64.9189 -198.713t-70.748 -85.8291q-32.9053 0 -72.2881 82.4863q-39.3848 82.4854 -65.6895 194.765q-26.3047 112.278 -26.3047 196.03
q0.000976562 5.54785 3.92969 9.47656q3.92871 3.92969 9.47656 3.92969z" />
    <glyph glyph-name="W" unicode="W" horiz-adv-x="546" 
d="M399.263 0.356445q-93.207 0 -121.594 73.625q-28.3877 -73.625 -121.595 -73.625q-27.8281 0 -48.1719 6.34961q-20.3447 6.35059 -38.6406 22.9531q-18.2959 16.6016 -27.8047 50.0654q-9.50781 33.4639 -9.50781 83.1943l1.375 302.281
q0.000976562 5.54785 3.92969 9.47656q3.92969 3.92969 9.47754 3.92969q5.5459 0 9.47559 -3.92969t3.93066 -9.47656l1.09375 -302.281q-0.000976562 -73.4629 26.7881 -104.372q26.79 -30.9092 67.3047 -30.9092q57.7256 0 83.1758 32.3623
q25.4492 32.3613 25.4492 102.919q0.000976562 0 -0.155273 77.1416l-0.15625 77.1396q-0.000976562 5.54785 3.92871 9.47656q3.92969 3.92969 9.47754 3.92969q0.597656 -0.0302734 0.625 -0.03125q0.0292969 0.000976562 0.264648 0.0166016
q5.90625 0.0146484 9.83594 -3.91504t3.92969 -9.47656l-0.311523 -154.281q0 -70.5576 25.4502 -102.919q25.4492 -32.3623 83.1748 -32.3623q40.5146 0 67.3037 30.9092t26.7891 104.372l1.09375 302.281q0.000976562 5.54785 3.92969 9.47656
q3.92969 3.92969 9.47656 3.92969q5.54883 0 9.47852 -3.92871q3.92871 -3.92969 3.92871 -9.47754l1.375 -302.281q0 -49.7295 -9.50879 -83.1943q-9.50879 -33.4639 -27.8047 -50.0664q-18.2949 -16.6016 -38.6387 -22.9521q-20.3438 -6.34961 -48.1729 -6.34961v0z" />
    <glyph glyph-name="X" unicode="X" horiz-adv-x="416" 
d="M33.6768 479.001q5.44531 -0.0126953 9.2959 -3.93848l148.639 -215.75l150.914 213.782q9.29785 9.46973 18.5947 0q9.29785 -9.46582 0 -18.9375l-152.604 -214.438l152.604 -214.469q9.29785 -9.47168 0 -18.9375q-9.29688 -9.46973 -18.5947 0l-150.914 213.782
l-148.639 -215.75q-9.31055 -9.4834 -18.5918 -0.03125q-9.31152 9.48535 0 18.9688l151.003 216.438l-151.003 216.406q-9.31152 9.48535 0 18.9688q3.84961 3.91895 9.2959 3.90527z" />
    <glyph glyph-name="Y" unicode="Y" horiz-adv-x="384" 
d="M63.0938 477.53q5.54688 0 9.47559 -3.92871q3.92871 -3.92969 3.92969 -9.47754l1.09473 -278.281q0 -77.4551 31.4277 -118.368t82.667 -40.9131q36.0977 0 58.123 4.3125q22.0283 4.3125 40.3799 17.5146t26.2363 39.3477q7.88281 26.1455 7.88281 68.1074
l-0.310547 308.28q0 5.54883 3.92969 9.47754t9.47559 3.92871q5.5498 0 9.47754 -3.92773q3.92773 -3.92871 3.92773 -9.47852l1.09473 -410.719q0 -75.4531 -5.93848 -119.34q-5.94141 -43.8867 -23.6436 -72.5811q-17.7002 -28.6934 -46.5244 -38.668
q-28.8223 -9.97363 -78.0186 -9.97363q-57.3564 0 -98.7861 21.4287q-41.4307 21.4268 -51.4951 49.2285q-2.83301 10.5215 5.02734 17.0527q5.06348 4.03027 11.7764 2.20312t7.45898 -6.82617q13.3906 -24.3223 49.792 -40.0645q36.4014 -15.7412 76.9766 -15.7412
q45.9141 0 71.7607 16.5762q25.8477 16.5752 39.1367 60.6328q13.291 44.0576 13.291 124.229q-16.8477 -25.377 -47.123 -33.8291q-30.2764 -8.45215 -83.1572 -8.45215q-144.127 0 -144.127 186.563l1.37598 278.281q-0.000976562 5.54785 3.92871 9.47754
q3.92969 3.92871 9.47754 3.92773z" />
    <glyph glyph-name="Z" unicode="Z" horiz-adv-x="354" 
d="M38.2188 468.594l299.781 0.125q11.6074 -6.70215 4.90625 -18.3125l-285.688 -421.312h276.219q5.55078 0 9.47852 -3.91504q3.92773 -3.91602 3.92773 -9.45996q0 -5.54688 -3.92969 -9.47656t-9.47656 -3.92969q-306.441 -0.210938 -311.781 -0.125
q-11.6074 6.70215 -4.90625 18.3125l285.688 421.312h-264.219q-5.55078 0 -9.47852 3.91602t-3.92773 9.45898q0 5.54688 3.92969 9.47656t9.47656 3.92969z" />
    <glyph glyph-name="bracketleft" unicode="[" horiz-adv-x="346" 
d="M76.7188 743.375h143.906q5.548 0 9.47701 -3.92999q3.92799 -3.92798 3.92799 -9.47601q0.00100708 -5.54401 -3.92599 -9.46002q-3.92801 -3.91498 -9.479 -3.91498h-130.625v-692h130.625q5.55099 0 9.479 -3.9151q3.927 -3.916 3.92599 -9.4599
q0 -5.5479 -3.92799 -9.47661q-3.929 -3.92969 -9.47701 -3.92969h-143.906q-6.3028 0 -10.3135 4.875q-0.554695 0.69531 -0.780296 1.03125l-0.125 0.1875q-2.2812 3.375 -2.2812 7.46875v718.437q0 4.09399 2.2812 7.46899l0.125 0.187988
q0.225601 0.335999 0.686501 0.906006q4.1045 5 10.4073 5z" />
    <glyph glyph-name="backslash" unicode="\" horiz-adv-x="640" 
d="M585.007 9.87695q10.674 8.04195 2.63898 18.7744l-502.646 671.349q-8.0166 10.707 -18.7559 2.61401q-10.6474 -8.02502 -2.6318 -18.731l502.645 -671.349q8.034 -10.7315 18.75 -2.65725z" />
    <glyph glyph-name="bracketright" unicode="]" horiz-adv-x="350" 
d="M233.281 743.375q6.30299 0 10.407 -5q0.460999 -0.570007 0.686996 -0.906006l0.125 -0.187988q2.28101 -3.375 2.28101 -7.46899v-718.437q0 -4.09375 -2.28101 -7.46875l-0.125 -0.1875q-0.225998 -0.33594 -0.779999 -1.03125q-4.011 -4.875 -10.314 -4.875h-143.906
q-5.5479 0 -9.4766 3.92969q-3.9287 3.92871 -3.9287 9.47661q-0.000900269 5.5439 3.9268 9.4599q3.9277 3.9151 9.4785 3.9151h130.625v692h-130.625q-5.5508 0 -9.4785 3.91498q-3.9277 3.91602 -3.9268 9.46002q0 5.54803 3.9287 9.47601q3.9287 3.92999 9.4766 3.92999
h143.906z" />
    <glyph glyph-name="asciicircum" unicode="^" horiz-adv-x="446" 
d="M244.838 800.25q5.54201 -0.0100098 9.47 -3.93799q0.863998 -0.864014 1.562 -1.87402l191.488 -227.469q9.46799 -9.46997 0 -18.938q-9.46799 -9.46899 -18.938 0l-86.42 104.506q-86.42 104.507 -97.317 115.275q-11.049 -11.021 -94.223 -116.385l-83.1729 -105.365
q-9.4824 -9.48401 -18.9365 -0.0310059q-9.4844 9.48499 0 18.969l187.018 231.344l0.845001 0.718018q3.765 3.19598 8.62399 3.18799z" />
    <glyph glyph-name="underscore" unicode="_" horiz-adv-x="516" 
d="M33.0947 14.2217q0 5.5478 4.6123 8.4131q4.9922 4.9931 8.793 4.9931h402.117q5.54401 0 9.45898 -3.9277q3.91602 -3.9287 3.91602 -9.4785q0 -5.5469 -3.914 -9.46096q-3.914 -3.91406 -9.461 -3.91406h-402.117q-5.5508 0 -9.4785 3.91504
q-3.9268 3.91504 -3.9268 9.45998z" />
    <glyph glyph-name="grave" unicode="`" 
d="M77.2285 712.897q8.68652 10.3574 18.8857 1.65137l187.261 -159.845q10.1748 -8.68555 1.625 -18.8691q-8.66895 -10.3301 -18.8408 -1.64746l-187.26 159.847q-10.1982 8.70508 -1.6709 18.8633z" />
    <glyph glyph-name="a" unicode="a" 
d="M192.95 456.007q62.881 0 99.502 -55.286q36.621 -55.285 36.621 -173.277l-1.655 -226.62q0.00100708 -5.54688 -3.914 -9.46094q-3.914 -3.91408 -9.461 -3.91408q-5.54999 0 -9.479 3.91506q-3.927 3.91504 -3.927 9.45996v48.3506q-41.047 -50.043 -107.687 -50.043
q-75.341 0 -113.249 61.1299q-37.9082 61.1303 -37.9082 169.431q0 105.42 42.0263 165.868q42.0267 60.446 109.131 60.446zM193.7 428.726q-55.774 0 -90.2 -53.765q-34.4268 -53.766 -34.4268 -147.392q0 -93.405 31.0678 -147.281q31.068 -53.875 93.559 -53.875
q52.546 0 79.304 37.333q26.758 37.3329 26.758 129.92q0 128.896 -25.176 181.979q-25.175 53.081 -80.886 53.081z" />
    <glyph glyph-name="b" unicode="b" horiz-adv-x="392" 
d="M194.75 -4.19043q-76.135 0 -110.129 55.3711q-33.9951 55.3703 -33.9951 183.191l1.6562 409.563q-0.000999451 5.54602 3.9131 9.461q3.9141 3.914 9.4619 3.914q5.5498 0 9.4776 -3.91498q3.9287 -3.91602 3.9287 -9.46002v-221.293q41.0465 50.043 115.687 50.043
q86.486 0 122.822 -58.31q36.335 -58.312 36.335 -182.253q-0.00100708 -130.777 -34.626 -183.545q-34.624 -52.7675 -124.531 -52.7675v0zM194 23.0908q75.732 0 104.18 46.0733q28.446 46.0729 28.446 165.083q-0.00100708 102.485 -29.763 156.82
q-29.762 54.336 -102.863 54.336q-69.396 0 -91.729 -37.89q-22.3325 -37.892 -22.3325 -139.363q0 -135.227 25.0565 -190.143q25.057 -54.916 89.005 -54.916z" />
    <glyph glyph-name="c" unicode="c" horiz-adv-x="340" 
d="M203.585 476.625q60.026 0 89.437 -40.219q4.59299 -4.02701 4.59299 -10.062q0 -5.54498 -3.927 -9.45999q-3.92599 -3.91501 -9.478 -3.91501q-8.13498 0.886017 -11.688 6.84302q-26.48 30.688 -69.843 30.688q-33.742 0 -59.37 -19.516
q-25.629 -19.516 -39.88 -51.965q-14.2513 -32.45 -21.429 -67.781q-7.1768 -35.33 -8.165 -73.488q0.988197 -38.158 8.165 -73.488q7.1777 -35.331 21.429 -67.7806q14.251 -32.4492 39.88 -51.9658q25.628 -19.5156 59.37 -19.5156q43.363 0 69.843 30.6875
q3.552 5.957 11.688 6.8437q5.552 0 9.478 -3.915q3.927 -3.915 3.927 -9.46q0 -6.0351 -4.59299 -10.0624q-29.411 -40.2188 -89.437 -40.2188q-69.689 0 -114.954 60.2568q-45.2657 60.2572 -45.2657 179.556q1.0313 40.111 5.5205 72.597q4.4893 32.486 15.5801 64.31
q11.0908 31.825 28.3672 53.245q17.275 21.421 45.464 34.601q28.186 13.184 65.288 13.184z" />
    <glyph glyph-name="d" unicode="d" horiz-adv-x="392" 
d="M201.376 -4.19043v0q-89.906 0 -124.531 52.7675q-34.625 52.7679 -34.6259 183.545q0 123.941 36.3349 182.253q36.3363 58.31 122.822 58.31q74.64 0 115.686 -50.043v221.293q0 5.54401 3.92899 9.46002q3.92801 3.91498 9.478 3.91498q5.548 0 9.46201 -3.914
q3.914 -3.91498 3.91299 -9.461l1.65601 -409.563q0 -127.821 -33.995 -183.191q-33.994 -55.3711 -110.129 -55.3711zM202.126 23.0908q63.948 0 89.005 54.916q25.057 54.9162 25.057 190.143q0 101.471 -22.334 139.363q-22.333 37.89 -91.728 37.89
q-73.101 0 -102.863 -54.336q-29.7617 -54.335 -29.7627 -156.82q0 -119.01 28.4463 -165.083q28.4477 -46.0733 104.18 -46.0733z" />
    <glyph glyph-name="e" unicode="e" horiz-adv-x="390" 
d="M202.219 479.562q141.633 0 140.187 -239.25q0.00100708 -5.55 -3.914 -9.478q-3.91602 -3.92799 -9.461 -3.92799l-0.875 -0.0940094h-255.875q0 -42.928 16.1905 -87.64q16.1903 -44.712 50.8603 -78.3019q34.67 -33.5889 78.73 -33.5889q18.167 0 31.936 2.7569
q13.769 2.7568 22.927 7.791q9.15903 5.0342 16.874 12.1064q7.716 7.0713 13.779 15.7022l13.641 18.5811q8.896 12.0937 15.343 12.0937q5.54398 0 9.45898 -3.9277q3.91699 -3.9278 3.91699 -9.47861q-0.397003 -3.5898 -5.03198 -11.7812
q-5.30701 -6.9561 -9.841 -15.8896q-4.53299 -8.9336 -14.753 -18.6416q-10.221 -9.709 -22.324 -17.7852q-12.102 -8.0762 -32.551 -13.3174q-20.45 -5.24121 -45.436 -5.24121q-75.875 0 -124.939 67.0488q-49.0615 67.0482 -49.0615 174.451q0 119.114 45.1631 178.463
q45.1619 59.349 115.055 59.349zM201.312 453.438q-54.114 0 -91.572 -53.403q-37.4588 -53.403 -37.4588 -145.347h245.719q0 94.669 -32.268 146.708q-32.266 52.042 -84.42 52.042z" />
    <glyph glyph-name="f" unicode="f" horiz-adv-x="310" 
d="M192.088 662.406q47.261 -2.37 71.718 -26.312q7.03201 -3.82098 7.03201 -11.782q0 -5.547 -3.93002 -9.47601q-3.92899 -3.92999 -9.47699 -3.92999q-7.666 0.771973 -11.187 6.03198q-14.565 18.898 -54.032 19.968q-36.68 0 -47.526 -26.926
q-10.847 -26.925 -10.848 -103.324v-53.187h128.093q5.54401 0 9.45999 -3.92801q3.91501 -3.92798 3.91501 -9.47897q0 -5.54602 -3.914 -9.46002t-9.461 -3.914h-128.093l-0.0630035 -414.5q0 -5.55078 -3.916 -9.47852q-3.91499 -3.92773 -9.45899 -3.92773
q-5.547 0 -9.476 3.92871q-3.93 3.92969 -3.93 9.47754q0 62.7568 -0.494003 202.027q-0.495003 139.27 -0.412003 212.473h-53.3126q-5.5508 0 -9.4785 3.91501q-3.9287 3.91602 -3.9278 9.45901q0 5.54898 3.9288 9.478q3.9287 3.92899 9.4775 3.92899h53.3436
q0.0769958 32.487 0.186996 53.187q0 87.611 18.798 121.681q18.796 34.069 66.984 34.069z" />
    <glyph glyph-name="g" unicode="g" horiz-adv-x="392" 
d="M203.522 476.406q76.48 0 111.302 -58.007q34.822 -58.005 34.822 -180.305l-1.34299 -237.313q0 -186.562 -150.125 -186.562q-56.896 0 -95.462 32.273q-38.5666 32.274 -40.8195 68.7892q3.4551 13.4063 13.4062 13.4063q11.5498 0 13.25 -11.4063
q8.7598 -32.6962 39.7403 -54.2382q30.978 -21.543 70.635 -21.543q43.613 0 72.521 29.907q28.908 29.9084 39.461 72.0549q10.552 42.1475 8.36099 91.4443q-15.145 -20.5527 -43.042 -27.9638q-27.897 -7.41113 -72.708 -7.41113q-90.193 0 -125.673 52.9971
q-35.4815 52.9967 -35.4815 183.317q0 123.475 37.21 182.018q37.2108 58.543 123.946 58.543zM204.272 449.125q-73.314 0 -103.969 -54.619q-30.6555 -54.619 -30.6555 -156.537q0 -118.518 29.2978 -164.837q29.2977 -46.3193 105.327 -46.3193q42.468 0 66.063 11.3701
q23.595 11.3692 36.547 44.5674q12.952 33.197 12.952 94.781l0.218994 82.281q-2.63501 96.522 -30.52 142.917q-27.886 46.396 -85.261 46.396z" />
    <glyph glyph-name="h" unicode="h" horiz-adv-x="398" 
d="M65.375 659.25q5.5479 0 9.4766 -3.92999q3.9287 -3.92798 3.9287 -9.47601v-238.906q35.9077 59.374 118.375 59.374q86.026 0 122.59 -45.188q36.567 -45.189 36.567 -141.374l-0.782013 -266.281q0 -5.54692 -3.92801 -9.47661q-3.931 -3.92969 -9.47699 -3.92969
q-5.548 0 -9.478 3.92969q-3.92801 3.92871 -3.927 9.47661l0.154999 133.14q0.156006 133.141 0.154999 133.141q0 83.716 -32.836 121.498q-32.835 37.783 -99.789 37.783q-51.489 0 -83.791 -41.042q-32.3025 -41.042 -32.3025 -118.239l-1.0927 -266.281
q-0.00100708 -5.54692 -3.9307 -9.47661q-3.9297 -3.92969 -9.4766 -3.92969q-11.1797 0 -13.1865 11q-0.625 1.9473 -0.625 4.0937v77q-0.9688 187.594 -0.9697 187.594q0 15.282 0.9697 29.22v336.875q0 5.55103 3.915 9.47705q3.9161 3.92798 9.46 3.92798z" />
    <glyph glyph-name="i" unicode="i" horiz-adv-x="124" 
d="M66.9785 475.612q5.5488 0 9.4785 -3.92899q3.9297 -3.93002 3.9297 -9.47702v-449.25q0 -5.54399 -3.9287 -9.46001q-3.9277 -3.91503 -9.4795 -3.91503q-5.5459 0 -9.4599 3.91407q-3.9151 3.91406 -3.9151 9.46098v449.25q0 5.55002 3.918 9.479
q3.914 3.927 9.457 3.927zM79.8506 655.13q0 -5.57599 -3.9268 -9.50299q-3.9267 -3.92603 -9.47359 -3.92603q-5.5469 0 -9.4736 3.92603q-3.9268 3.927 -3.9268 9.474v0.0709839q0 5.547 3.9268 9.474q3.9267 3.92603 9.4736 3.92603q5.5469 0 9.47359 -3.92603
q3.9268 -3.927 3.9268 -9.51599z" />
    <glyph glyph-name="j" unicode="j" horiz-adv-x="190" 
d="M117.265 475.625q5.547 0 9.477 -3.92999q3.93 -3.92801 3.93 -9.47601q0 -49.842 0.593002 -223.058q0.593002 -173.216 0.0930023 -267.411q0 -87.612 -18.796 -121.681q-18.7974 -34.069 -66.9849 -34.069q-47.2626 2.371 -71.7187 26.312
q-7.0313 3.821 -7.0313 11.782q0 5.54701 3.9297 9.47601q3.9307 3.92999 9.4766 3.92999q7.1328 0 11.125 -5.90601l0.0634794 -0.125q14.5664 -18.901 54.0302 -19.969q36.6807 0 47.5274 26.926q10.8465 26.925 10.8475 103.324l0.0629959 490.469q0 5.55002 3.916 9.478
q3.915 3.92801 9.459 3.92801zM130.127 655.13q0 -5.57703 -3.926 -9.50299q-3.92599 -3.92603 -9.473 -3.92603q-5.549 0 -9.475 3.92603q-3.92599 3.92596 -3.92599 9.474v0.0709839q0 5.54797 3.92599 9.474q3.927 3.92603 9.475 3.92603q5.547 0 9.473 -3.92603
q3.926 -3.92603 3.926 -9.51599z" />
    <glyph glyph-name="k" unicode="k" horiz-adv-x="356" 
d="M51.0947 669.25q5.5479 0 9.4766 -3.92999q3.9287 -3.92798 3.9287 -9.47601v-386.813l238.875 224.781q9.74799 9.15698 18.937 -0.624023q9.15799 -9.75 -0.594025 -18.907l-189.718 -178.5l210.656 -273.5q8.108 -10.6796 -2.561 -18.7812
q-10.679 -8.10449 -18.783 2.5625l-208.906 271.25l-47.906 -45.062v-221.094q0 -5.5439 -3.9277 -9.45991q-3.9278 -3.91504 -9.4776 -3.91504q-5.5488 0 -9.4629 3.91406q-3.914 3.91309 -3.914 9.46089v644.689q0 5.55103 3.915 9.47705q3.916 3.92798 9.4619 3.92798z
" />
    <glyph glyph-name="l" unicode="l" horiz-adv-x="122" 
d="M65.5215 653.243q5.5478 0 9.4775 -3.93097q3.9297 -3.927 3.9297 -9.47504v-624.669q0 -5.54495 -3.9277 -9.45999q-3.9287 -3.91504 -9.4795 -3.91504q-5.5469 0 -9.461 3.91406q-3.914 3.91309 -3.914 9.46097v624.669q0 5.55005 3.915 9.47803
q3.916 3.92798 9.46 3.92798z" />
    <glyph glyph-name="m" unicode="m" horiz-adv-x="548" 
d="M160.125 478.312q93.207 0 121.594 -73.624q28.387 73.624 121.593 73.624q27.83 0 48.173 -6.349q20.345 -6.35101 38.641 -22.953q18.296 -16.602 27.805 -50.066q9.50696 -33.464 9.50696 -83.194l-1.375 -302.281q-0.000976562 -5.5479 -3.92902 -9.47661
q-3.92999 -3.92969 -9.47797 -3.92969q-5.54602 0 -9.47501 3.92969q-3.92999 3.92969 -3.931 9.47661l-1.09399 302.281q0.00100708 73.463 -26.788 104.372q-26.79 30.909 -67.305 30.909q-57.725 0 -83.175 -32.362q-25.45 -32.361 -25.45 -102.919l0.156006 -77.141
l0.156006 -77.14q0.00100708 -5.54799 -3.92899 -9.47699q-3.92902 -3.93001 -9.47702 -3.93001q-0.597992 0.0310059 -0.625 0.0319977q-0.0299988 -0.000991821 -0.264984 -0.0169983q-5.90601 -0.0149994 -9.836 3.91501q-3.93002 3.92999 -3.93002 9.47699
l0.312012 154.281q0 70.558 -25.45 102.919q-25.449 32.362 -83.175 32.362q-40.515 0 -67.3037 -30.909q-26.7891 -30.909 -26.7891 -104.372l-1.0937 -302.281q0 -5.5479 -3.9297 -9.47661q-3.9297 -3.92969 -9.4766 -3.92969q-5.5488 0 -9.4785 3.92871
q-3.9287 3.92969 -3.9287 9.47759l-1.375 302.281q0 49.729 9.5088 83.194q9.5088 33.464 27.8047 50.067q18.2949 16.601 38.6385 22.952q20.344 6.349 48.173 6.349z" />
    <glyph glyph-name="n" unicode="n" horiz-adv-x="386" 
d="M189.843 466.312q85.773 0 121.466 -45.003q35.691 -45.005 35.691 -141.559l-0.782013 -266.281q0 -5.5479 -3.92899 -9.47661q-3.92902 -3.92969 -9.47699 -3.92969q-5.54602 0 -9.47601 3.92969t-3.92999 9.47661l0.311981 266.281q0 84.006 -31.976 121.647
q-31.974 37.642 -98.649 37.642q-50.985 0 -81.538 -40.782q-30.555 -40.782 -30.555 -118.507l-1.0938 -266.281q-0.000900269 -5.5479 -3.9296 -9.47661q-3.9297 -3.92969 -9.4766 -3.92969q-5.5479 0 -9.4775 3.92969q-3.9297 3.92871 -3.9297 9.47661l-1.375 266.281
q0 98.957 36.8086 142.76q36.8086 43.802 105.317 43.802z" />
    <glyph glyph-name="o" unicode="o" horiz-adv-x="402" 
d="M197.92 474.312q91.342 0 130.249 -53.831q37.907 -53.832 37.907 -182.481q0 -123.241 -39.711 -181.172q-40.71 -59.3906 -128.445 -59.3906q-154.125 0 -154.125 238.311q0 125.847 38.292 182.204q38.2921 56.359 115.833 56.359zM196.17 447.031
q-65.346 0 -94.704 -48.658q-29.3586 -48.659 -29.3586 -162.498q0 -211.156 124.063 -211.156q142.625 0 142.625 211.156q0 116.765 -32.703 163.961q-32.704 47.195 -109.922 47.195z" />
    <glyph glyph-name="p" unicode="p" horiz-adv-x="388" 
d="M191.75 476.125q89.907 0 124.532 -52.768q34.624 -52.767 34.625 -183.545q0 -123.941 -36.336 -182.251q-36.336 -58.3095 -122.821 -58.3095q-74.64 0 -115.687 50.0429v-221.294q0 -5.54401 -3.9287 -9.46001q-3.9287 -3.91499 -9.4786 -3.91499
q-5.5458 0 -9.4599 3.914q-3.916 3.914 -3.9151 9.461l-1.6552 409.562q0 127.824 33.9931 183.194q33.9949 55.369 110.131 55.369zM191 448.844q-63.948 0 -89.005 -54.916q-25.0565 -54.916 -25.0565 -190.144q0 -101.471 22.333 -139.362
q22.3325 -37.8907 91.7285 -37.8907q73.101 0 102.862 54.336q29.763 54.3348 29.764 156.821q0 119.008 -28.447 165.083q-28.448 46.074 -104.179 46.073z" />
    <glyph glyph-name="q" unicode="q" horiz-adv-x="412" 
d="M201.157 476.125q76.135 0 110.13 -55.369q33.994 -55.37 33.994 -183.194l-1.65601 -409.562q0.00100708 -5.547 -3.914 -9.461q-3.914 -3.914 -9.461 -3.914q-5.54999 0 -9.479 3.91499q-3.927 3.916 -3.927 9.46001v221.294q-41.047 -50.0429 -115.687 -50.0429
q-86.485 0 -122.821 58.3095q-36.3359 58.3105 -36.3359 182.251q0.000999451 130.778 34.625 183.545q34.625 52.768 124.532 52.768zM201.907 448.844q-75.731 0.00100708 -104.178 -46.073q-28.4473 -46.075 -28.4473 -165.083q0.00100708 -102.486 29.7637 -156.821
q29.7621 -54.336 102.862 -54.336q69.396 0 91.729 37.8907q22.333 37.8911 22.333 139.362q0 135.228 -25.057 190.144q-25.057 54.916 -89.005 54.916z" />
    <glyph glyph-name="r" unicode="r" 
d="M196.845 476.312q55.359 0 94.603 -42.817q39.244 -42.817 41.677 -82.245q-3.45401 -13.406 -13.405 -13.406q-11.548 0 -13.25 11.406q-9.686 36.147 -41.394 67.965q-31.709 31.816 -68.981 31.816q-51.995 0 -86.045 -41.28t-34.05 -118.001l-1.0928 -276.281
q-0.00190735 -5.5479 -3.9306 -9.47661q-3.9297 -3.92969 -9.4766 -3.92969q-5.5469 0 -9.4756 3.92969t-3.9297 9.47661q0 276.281 -1.375 276.281q0 186.562 150.125 186.562z" />
    <glyph glyph-name="s" unicode="s" horiz-adv-x="334" 
d="M170.219 476.625q104.093 0 134.438 -62.219q4.59299 -4.02899 4.59299 -10.062q0 -5.54498 -3.927 -9.45999t-9.479 -3.91501q-8.13498 0.886017 -11.687 6.84302q-9.319 20.485 -32.469 36.586q-23.151 16.102 -82.376 16.102q-67.673 0 -94.2583 -23.939
q-26.5849 -23.941 -26.5849 -86.811q0 -39.201 24.3935 -62.163q24.3936 -22.962 88.0127 -22.962q81.456 0 120.837 -27.006q39.382 -27.006 39.382 -92.807q0 -43.1089 -8.94098 -69.8091q-8.93903 -26.7011 -30.416 -40.7363q-21.475 -14.0352 -48.726 -18.7139
q-27.25 -4.67773 -72.136 -4.67773q-43.274 0 -83.9814 22.124q-40.7071 22.124 -47.4561 52.0948q-4.5937 4.0283 -4.5937 10.0624q0 5.54501 3.9267 9.46001q3.9277 3.91499 9.4795 3.91499q8.1348 -0.887596 11.6875 -6.8437q9.7266 -29.6514 44.1299 -47.1699
q34.4026 -17.5176 67.7136 -17.5176q74.531 0 101.808 20.4023q29.036 21.7186 29.036 88.3477q0 39.451 -26.38 64.751q-27.5 26.374 -88.026 26.374q-30.022 0 -50.279 1.866q-20.256 1.866 -42.9019 9.116q-22.6455 7.25101 -35.9746 20.37
q-13.3291 13.118 -22.1963 36.943q-8.8672 23.824 -8.8672 57.518q0 63.899 35.8877 93.917q35.8867 30.02 116.331 30.02z" />
    <glyph glyph-name="t" unicode="t" horiz-adv-x="266" 
d="M188.25 -1.21875q-48.188 0 -66.985 34.0694q-18.797 34.0703 -18.797 121.679l-0.187004 288.25h-74.4734q-5.5478 0 -9.4765 3.931q-3.9288 3.92902 -3.9288 9.47699q-0.000900269 5.54202 3.9268 9.45801q3.9287 3.91602 9.4785 3.91602h74.4424
q-0.0790024 69.858 0.413002 90.937q0.492996 21.08 0.492996 88.501q0 5.54797 3.929 9.47699q3.929 3.92804 9.477 3.92804q5.54301 0 9.45901 -3.92603q3.91599 -3.92798 3.91599 -9.479l0.0630035 -179.438h102.436q5.545 0 9.45999 -3.91501
q3.91501 -3.914 3.91501 -9.45901q0 -5.54999 -3.91501 -9.47897q-3.91699 -3.92902 -9.45999 -3.92902h-102.436v-288.25q0.00100708 -76.3972 10.848 -103.323q10.846 -26.9258 47.526 -26.9258q39.465 1.0684 54.032 19.9688q3.521 5.2598 11.187 6.0312
q5.54799 0 9.47701 -3.9296q3.92999 -3.9287 3.92999 -9.4766q0 -7.96 -7.03201 -11.7812q-24.457 -23.9424 -71.718 -26.3125v0z" />
    <glyph glyph-name="u" unicode="u" horiz-adv-x="396" 
d="M205.899 2.58496q-85.773 0 -121.465 45.0039q-35.6914 45.0049 -35.6914 141.557l0.7822 266.283q0 5.548 3.9287 9.47601q3.9287 3.92999 9.4766 3.92999q5.5469 0 9.4765 -3.92999q3.9297 -3.92899 3.9297 -9.47601l-0.311501 -266.283q0 -84.004 31.9756 -121.646
q31.976 -37.6416 98.649 -37.6416q50.986 0 81.539 40.7822q30.554 40.7824 30.554 118.505l1.09399 266.283q0.00201416 5.548 3.931 9.47501q3.92801 3.93002 9.47501 3.93002q5.548 0 9.479 -3.93002q3.92798 -3.927 3.92798 -9.47501l1.375 -266.283
q0 -98.9565 -36.807 -142.758q-36.81 -43.8027 -105.318 -43.8027v0z" />
    <glyph glyph-name="v" unicode="v" horiz-adv-x="376" 
d="M30.4336 485.156q5.5488 0 9.4775 -3.92902q3.9307 -3.92899 3.9297 -9.47699q0 -91.156 28.1592 -200.204q28.161 -109.048 60.682 -177.563q32.52 -68.5146 48.845 -68.5146q16.651 0 48.67 71.4531q32.02 71.4521 59.082 180.295q27.062 108.842 27.062 194.532
q0 5.54901 3.92899 9.478q3.92801 3.92801 9.47501 3.92801q11.29 0 13.189 -11.156q0.0320129 -78.104 -25.957 -190.988q-25.991 -112.884 -64.919 -198.713q-38.929 -85.8291 -70.748 -85.8291q-32.906 0 -72.289 82.4864q-39.3843 82.4849 -65.689 194.765
q-26.3047 112.278 -26.3047 196.03q0.000999451 5.548 3.9297 9.47699q3.9287 3.92902 9.4766 3.92902z" />
    <glyph glyph-name="w" unicode="w" horiz-adv-x="546" 
d="M399.263 0.356445q-93.207 0 -121.594 73.625q-28.388 -73.625 -121.595 -73.625q-27.828 0 -48.172 6.3496q-20.3444 6.35055 -38.6403 22.9532q-18.2959 16.6015 -27.8047 50.0654q-9.5078 33.4634 -9.5078 83.1944l1.375 302.281q0.000999451 5.54797 3.9297 9.47699
q3.9297 3.92899 9.4775 3.92899q5.5459 0 9.4756 -3.92899q3.9297 -3.92999 3.9307 -9.47699l1.0937 -302.281q-0.000900269 -73.4629 26.7881 -104.372q26.7905 -30.9092 67.3045 -30.9092q57.726 0 83.176 32.3623q25.449 32.3613 25.449 102.919
q0.00100708 0 -0.154999 77.142l-0.156006 77.139q-0.00100708 5.54797 3.92801 9.47699q3.92999 3.92899 9.478 3.92899q0.597992 -0.0299988 0.625 -0.0309753q0.0289917 0.000976562 0.264984 0.0169983q5.90601 0.0139771 9.836 -3.91501
q3.92902 -3.92999 3.92902 -9.47699l-0.311005 -154.281q0 -70.5577 25.45 -102.919q25.449 -32.3623 83.175 -32.3623q40.514 0 67.303 30.9092q26.789 30.9092 26.789 104.372l1.09399 302.281q0.00100708 5.54797 3.92999 9.47699q3.92999 3.92899 9.47601 3.92899
q5.54898 0 9.47897 -3.92798q3.92902 -3.93002 3.92902 -9.478l1.375 -302.281q0 -49.73 -9.50897 -83.1944q-9.50903 -33.4639 -27.805 -50.0664q-18.295 -16.6016 -38.638 -22.9521q-20.344 -6.3496 -48.173 -6.3496v0z" />
    <glyph glyph-name="x" unicode="x" horiz-adv-x="416" 
d="M33.6768 479.001q5.4453 -0.0130005 9.2959 -3.939l148.638 -215.75l150.914 213.783q9.298 9.46899 18.595 0q9.298 -9.466 0 -18.938l-152.603 -214.437l152.603 -214.469q9.298 -9.4717 0 -18.9375q-9.297 -9.46973 -18.595 0l-150.914 213.783l-148.638 -215.75
q-9.3106 -9.4834 -18.5918 -0.03125q-9.3116 9.48535 0 18.9687l151.003 216.438l-151.003 216.406q-9.3116 9.48499 0 18.969q3.8496 3.91901 9.2959 3.905z" />
    <glyph glyph-name="y" unicode="y" horiz-adv-x="384" 
d="M63.0938 477.53q5.5468 0 9.4755 -3.92801q3.9287 -3.92999 3.9297 -9.478l1.0948 -278.281q0 -77.455 31.4272 -118.368q31.428 -40.9131 82.667 -40.9131q36.098 0 58.124 4.3125q22.028 4.3125 40.379 17.5147q18.352 13.2021 26.237 39.3476
q7.883 26.1457 7.883 68.1077l-0.311005 308.28q0 5.54901 3.92999 9.478q3.92902 3.92801 9.47501 3.92801q5.54999 0 9.478 -3.927q3.92801 -3.92899 3.92801 -9.479l1.09399 -410.719q0 -75.4532 -5.93799 -119.34q-5.94202 -43.8864 -23.644 -72.5814
q-17.7 -28.693 -46.524 -38.668q-28.822 -9.97299 -78.019 -9.97299q-57.356 0 -98.7859 21.428q-41.4306 21.427 -51.4951 49.229q-2.833 10.521 5.0274 17.0527q5.0634 4.0303 11.7763 2.2032q6.71291 -1.82719 7.45901 -6.8259q13.3906 -24.323 49.7923 -40.065
q36.401 -15.741 76.976 -15.741q45.914 0 71.761 16.576q25.848 16.575 39.137 60.633q13.291 44.0576 13.291 124.229q-16.848 -25.3769 -47.123 -33.8291q-30.277 -8.45215 -83.158 -8.45215q-144.127 0 -144.127 186.564l1.376 278.281q-0.000999451 5.548 3.9287 9.478
q3.9297 3.92801 9.4776 3.927z" />
    <glyph glyph-name="z" unicode="z" horiz-adv-x="354" 
d="M38.2188 468.594l299.781 0.125q11.607 -6.702 4.90601 -18.313l-285.687 -421.312h276.219q5.55002 0 9.478 -3.9151q3.92801 -3.916 3.92801 -9.4599q0 -5.5469 -3.92999 -9.47661q-3.92999 -3.92969 -9.47601 -3.92969q-306.442 -0.21094 -311.782 -0.125
q-11.6074 6.70215 -4.9062 18.3125l285.688 421.312h-264.219q-5.5508 0 -9.4786 3.91699q-3.9277 3.91599 -3.9277 9.45898q0 5.54602 3.9297 9.47601t9.4766 3.92999z" />
    <glyph glyph-name="braceleft" unicode="{" horiz-adv-x="382" 
d="M211.342 700.5q47.982 0.122009 76.312 -0.781006q5.54501 0 9.461 -3.92902q3.914 -3.92798 3.914 -9.47797q0 -5.54602 -3.914 -9.46002t-9.461 -3.914h-121.154q0 -36.888 0.610992 -82.909l0.977005 -71.92q0.365005 -25.898 0.0579987 -56.434
q-0.306 -30.536 -2.144 -46.724q-1.838 -16.186 -5.63499 -31.83q-3.797 -15.642 -10.404 -22.712q-6.608 -7.06799 -16.463 -9.09698q9.795 -5.08801 16.057 -11.885q6.25899 -6.79599 10.199 -21.159q3.94101 -14.363 5.69701 -27.442q1.756 -13.079 2.248 -42.514
q0.494003 -29.438 0.167999 -53.815q-0.324005 -24.377 -0.848007 -73.902q-0.520996 -49.5266 -0.520996 -91.0012h121.154q5.54501 0 9.461 -3.9278q3.914 -3.9287 3.914 -9.4785q0 -5.5469 -3.914 -9.46094q-3.914 -3.91406 -9.461 -3.91406l-121.404 -0.34375
q-26.533 0 -26.533 27.75l-0.937988 236.785q0 29.859 -8.75401 49.475q-8.75199 19.615 -24.275 19.615h-55.0332q-5.5508 0 -9.4766 3.91501q-3.9277 3.91501 -3.9297 9.45999q0 5.548 3.9297 9.47601q3.9297 3.92999 9.4766 3.92999h54.2832q15.711 0 24.432 20.474
q8.722 20.473 8.722 54.73l1.56299 234.327q0 11.958 8.121 19.868q8.123 7.914 20.785 7.914z" />
    <glyph glyph-name="bar" unicode="|" horiz-adv-x="298" 
d="M151.594 765.924q5.54701 0 9.47601 -3.92999q3.92999 -3.92999 3.92999 -9.47601v-898.242q0 -5.54401 -3.92799 -9.46001q-3.927 -3.91499 -9.47801 -3.91499q-5.547 0 -9.461 3.914t-3.914 9.461v898.242q0 5.54901 3.916 9.47797q3.914 3.92804 9.459 3.92804z" />
    <glyph glyph-name="braceright" unicode="}" horiz-adv-x="414" 
d="M138.375 700.5l42.719 -0.312012q12.662 0 23.721 -10.955q5.10699 -5.05499 5.185 -16.827l1.562 -234.327q0 -34.257 8.72301 -54.73q8.72099 -20.474 24.432 -20.474h54.283q5.547 0 9.47699 -3.92999q3.92902 -3.92801 3.92902 -9.47601
q-0.00201416 -5.54498 -3.92902 -9.45999q-3.92599 -3.91501 -9.47699 -3.91501h-55.033q-15.524 0 -24.276 -19.615q-8.75299 -19.616 -8.75299 -49.475l-0.938004 -236.785q0 -27.75 -26.533 -27.75l-121.404 0.34375q-5.5469 0 -9.4609 3.91406
q-3.9141 3.91404 -3.9141 9.46094q0 5.5498 3.9141 9.4785q3.916 3.9278 9.4609 3.9278h121.154q0 41.4746 -0.521988 91.0012q-0.52301 49.525 -0.847 73.902q-0.327011 24.377 0.167999 53.814q0.491989 29.436 2.248 42.515q1.756 13.079 5.69699 27.442
q3.939 14.363 10.199 21.159q6.26199 6.797 16.057 11.885q-9.856 2.02899 -16.463 9.09698q-6.608 7.069 -10.404 22.712q-3.79701 15.644 -5.63501 31.83l-2.14499 46.724l0.0589905 56.434l0.975998 71.92q0.612 46.021 0.612 82.909h-121.154q-5.5469 0 -9.4609 3.914
q-3.9141 3.914 -3.9141 9.46002q0 5.54999 3.9141 9.47797q3.916 3.92902 9.4609 3.92902q28.3301 0.903015 76.3125 0.781006z" />
    <glyph glyph-name="brokenbar" unicode="&#xa6;" horiz-adv-x="82" 
d="M44.0938 653.74q5.5468 0 9.4765 -3.92902q3.9297 -3.92896 3.9297 -9.47699v-254.896q0 -5.54498 -3.9277 -9.45999q-3.9278 -3.91599 -9.4785 -3.91599q-5.5469 0 -9.461 3.91498q-3.914 3.91302 -3.914 9.461v254.896q0 5.55103 3.914 9.47803
q3.916 3.92798 9.461 3.92798zM44.0938 283.732q5.5468 0 9.4765 -3.92899q3.9297 -3.93002 3.9297 -9.47702v-254.897q0 -5.54393 -3.9277 -9.45995q-3.9278 -3.91504 -9.4785 -3.91504q-5.5469 0 -9.461 3.91406q-3.914 3.91407 -3.914 9.46093v254.897
q0 5.55002 3.914 9.479q3.916 3.927 9.461 3.927z" />
    <glyph glyph-name="questiondown" unicode="&#xbf;" horiz-adv-x="534" 
d="M263.344 1.875q-104.552 0 -148.527 40.9346q-43.9732 40.9345 -43.9732 135.065q0 71.209 33.3522 105.073q33.352 33.864 107.084 33.864q52.599 0 78.674 30.548q26.076 30.548 26.076 108.828l0.563995 34.624q0 5.55099 3.91501 9.47897
q3.914 3.92801 9.45898 3.92801q5.548 0 9.47702 -3.92999q3.92999 -3.92902 3.92999 -9.47699l-0.875 -40.812q0 -160.062 -132.875 -160.062q-61.271 0 -87.151 -26.55q-25.8802 -26.55 -25.8802 -85.513q0 -76.689 42.7562 -115.392q42.755 -38.7022 123.994 -38.7022
q67.168 0 104.989 24.1807q37.822 24.1817 37.822 86.0381q0 5.54401 3.944 9.476q3.944 3.93001 9.495 3.93001q5.543 0 9.45801 -3.927q3.91599 -3.929 3.91599 -9.479q0 -66.084 -41.322 -99.1045t-128.302 -33.0205zM326.542 697.943q0 5.578 3.92599 9.50403
q3.92603 3.92596 9.47302 3.92596q5.548 0 9.474 -3.92596q3.92599 -3.92603 3.92599 -9.474v-0.0710449q0 -5.54797 -3.92599 -9.474q-3.92599 -3.92596 -9.474 -3.92596q-5.547 0 -9.47302 3.92596q-3.92599 3.92603 -3.92599 9.51501z" />
    <glyph glyph-name="acute" unicode="&#xb4;" 
d="M289.771 724.897q-8.68652 10.3574 -18.8857 1.65137l-187.261 -159.845q-10.1748 -8.68555 -1.625 -18.8691q8.66895 -10.3301 18.8408 -1.64746l187.26 159.847q10.1982 8.70508 1.6709 18.8633z" />
    <glyph glyph-name="asciitilde" unicode="~" horiz-adv-x="390" 
d="M146.187 695.812q40.6045 0 56.2285 -22.6973q15.624 -22.6963 15.085 -65.6152q5.5625 -26.5156 12.8379 -36.8359q7.27637 -10.3203 26.5674 -10.3203q41.3125 0 41.3125 96.0625q0 5.54785 3.92969 9.47656q3.92969 3.92969 9.47656 3.92969t9.47656 -3.92969
t3.92969 -9.47656q0 -123.344 -67.375 -123.344q-71.5391 0 -69.6875 89.9688l-3.375 16.6172q-1.49805 7.33887 -3.87793 12.7695q-2.37988 5.42969 -6.44141 9.01074t-11.0625 5.3418t-17.7432 1.76074q-26.335 0 -35.7607 -25.8379q-9.42676 -25.8389 -9.42676 -71.2246
q-0.000976562 -5.54785 -3.93066 -9.47656q-3.92871 -3.92969 -9.47559 -3.92969q-5.54785 0 -9.47656 3.92969t-3.92969 9.47656q0 56.1475 17.876 90.2461q17.876 34.0977 54.8428 34.0977z" />
    <glyph glyph-name="cedilla" unicode="&#xb8;" horiz-adv-x="1000" 
d="M190.273 -60.0332q0 47.8535 -26.0879 70.3018q-26.0869 22.4482 -79.2529 22.4482q-5.54785 0 -9.47754 -3.92871q-3.92871 -3.92969 -3.92871 -9.47754t3.92871 -9.47656t9.47754 -3.92969q39.8193 0 58.9434 -15.0908q19.124 -15.0918 19.124 -50.0967
q0 -34.6865 -18.5186 -48.999q-18.5186 -14.3135 -59.5488 -14.3135q-5.54785 0 -9.47754 -3.92871q-3.92871 -3.92969 -3.92871 -9.47754t3.92871 -9.47656q3.92969 -3.92969 9.47754 -3.92969q56.5967 0 80.9688 21.2373t24.3721 68.1377z" />
    <glyph glyph-name="dieresis" unicode="&#xa8;" horiz-adv-x="308" 
d="M256.023 655.13q0 -5.57715 -3.92578 -9.50293t-9.47461 -3.92578q-5.54785 0 -9.47363 3.92578q-3.92578 3.92676 -3.92578 9.47363v0.0712891q0 5.54785 3.92578 9.47461q3.92578 3.92578 9.47363 3.92578t9.47461 -3.92578q3.92578 -3.92676 3.92578 -9.5166z
M79.9258 655.13q0 -5.57715 -3.92578 -9.50293t-9.47461 -3.92578q-5.54785 0 -9.47363 3.92578q-3.92578 3.92676 -3.92578 9.47363v0.0712891q0 5.54785 3.92578 9.47461q3.92578 3.92578 9.47363 3.92578t9.47461 -3.92578q3.92578 -3.92676 3.92578 -9.5166z" />
    <glyph glyph-name="circumflex" unicode="&#x2c6;" horiz-adv-x="388" 
d="M83.9688 517.281q6.83008 0.183594 10.2197 5.125l88.3115 128.75l88.3125 -128.75q7.59668 -11.0752 18.8125 -2.3125q9.8877 7.72363 2.28125 18.8125l-96.7812 141.094q-1.3418 3.37793 -4.21875 5.625q-3.60059 2.8125 -8.25 2.8125h-0.3125
q-4.67969 0 -8.28125 -2.8125q-2.87402 -2.24512 -4.21875 -5.65625l-96.75 -141.062q-7.60645 -11.0898 2.28125 -18.8125q3.7666 -2.94336 8.59375 -2.8125z" />
    <glyph glyph-name="caron" unicode="&#x2c7;" horiz-adv-x="388" 
d="M76.9688 680.719q6.83008 -0.183594 10.2197 -5.125l88.3115 -128.75l88.3125 128.75q7.59668 11.0752 18.8125 2.3125q9.8877 -7.72363 2.28125 -18.8125l-96.7812 -141.094q-1.3418 -3.37793 -4.21875 -5.625q-3.60059 -2.8125 -8.25 -2.8125h-0.3125
q-4.67969 0 -8.28125 2.8125q-2.87402 2.24512 -4.21875 5.65625l-96.75 141.062q-7.60645 11.0898 2.28125 18.8125q3.7666 2.94336 8.59375 2.8125z" />
    <glyph glyph-name="ring" unicode="&#x2da;" horiz-adv-x="329" 
d="M157.743 744.711h3q41.9072 0 63.1455 -19.2334q15.4932 -14.0303 25.2295 -63.0166q1.03418 -2.58203 1 -5.03125l-0.125 -9.03125l0.125 -9.03125q0.0332031 -2.41699 -1 -5q-9.81641 -49.082 -25.2246 -63.041q-21.2373 -19.2402 -63.1504 -19.2402
q-82.4121 0 -91.5 81.7188q-1.30664 2.83398 -1.25 5.5625l0.1875 9.03125l-0.1875 9.03125q-0.0576172 2.77539 1.25 5.59375q9.09473 81.6875 88.5 81.6875zM159.993 717.461q-32.9824 0 -48.2051 -16.9736q-16.7646 -18.6943 -16.7646 -52.0889
q0 -33.3896 16.7646 -52.0693q15.2207 -16.9619 48.2051 -16.9619q32.7734 0 47.2734 16.4707q15.8848 16.4443 15.8838 52.5605q-0.000976562 36.1221 -15.8867 52.5791q-14.501 16.4834 -47.2705 16.4834z" />
    <glyph glyph-name="breve" unicode="&#x2d8;" horiz-adv-x="276" 
d="M137.862 572.972q-47.8535 0 -70.3018 26.0869t-22.4482 79.2539q0 5.54785 3.92969 9.47656q3.92969 3.92969 9.47656 3.92969t9.47559 -3.92871q3.92969 -3.92969 3.93066 -9.47754q0 -39.8193 15.0908 -58.9434q15.0918 -19.124 50.0967 -19.124
q34.6865 0 48.999 18.5195q14.3135 18.5186 14.3135 59.5479q0 5.54785 3.92969 9.47656q3.92969 3.92969 9.47656 3.92969t9.47656 -3.92969q3.92969 -3.92871 3.92969 -9.47656q0 -56.5967 -21.2373 -80.9688q-21.2363 -24.3721 -68.1377 -24.3721z" />
    <glyph glyph-name="tilde" unicode="&#x2dc;" horiz-adv-x="390" 
d="M146.187 695.812q40.6045 0 56.2285 -22.6973q15.624 -22.6963 15.085 -65.6152q5.5625 -26.5156 12.8379 -36.8359q7.27637 -10.3203 26.5674 -10.3203q41.3125 0 41.3125 96.0625q0 5.54785 3.92969 9.47656q3.92969 3.92969 9.47656 3.92969t9.47656 -3.92969
t3.92969 -9.47656q0 -123.344 -67.375 -123.344q-71.5391 0 -69.6875 89.9688l-3.375 16.6172q-1.49805 7.33887 -3.87793 12.7695q-2.37988 5.42969 -6.44141 9.01074t-11.0625 5.3418t-17.7432 1.76074q-26.335 0 -35.7607 -25.8379q-9.42676 -25.8389 -9.42676 -71.2246
q-0.000976562 -5.54785 -3.93066 -9.47656q-3.92871 -3.92969 -9.47559 -3.92969q-5.54785 0 -9.47656 3.92969t-3.92969 9.47656q0 56.1475 17.876 90.2461q17.876 34.0977 54.8428 34.0977z" />
    <glyph glyph-name="ogonek" unicode="&#x2db;" horiz-adv-x="217" 
d="M65.7266 -60.0332q0 47.8535 26.0879 70.3018q26.0869 22.4482 79.2529 22.4482q5.54785 0 9.47754 -3.92871q3.92871 -3.92969 3.92871 -9.47754t-3.92871 -9.47656t-9.47754 -3.92969q-39.8193 0 -58.9434 -15.0908q-19.124 -15.0918 -19.124 -50.0967
q0 -34.6865 18.5186 -48.999q18.5186 -14.3135 59.5488 -14.3135q5.54785 0 9.47754 -3.92871q3.92871 -3.92969 3.92871 -9.47754t-3.92871 -9.47656q-3.92969 -3.92969 -9.47754 -3.92969q-56.5967 0 -80.9688 21.2373t-24.3721 68.1377z" />
    <glyph glyph-name="hungarumlaut" unicode="&#x2dd;" horiz-adv-x="561" 
d="M289.771 724.897q-8.68652 10.3574 -18.8857 1.65137l-187.261 -159.845q-10.1748 -8.68555 -1.625 -18.8691q8.66895 -10.3301 18.8408 -1.64746l187.26 159.847q10.1982 8.70508 1.6709 18.8633zM537.771 724.897q-8.68652 10.3574 -18.8857 1.65137l-187.261 -159.845
q-10.1748 -8.68555 -1.625 -18.8691q8.66895 -10.3301 18.8408 -1.64746l187.26 159.847q10.1982 8.70508 1.6709 18.8633z" />
    <glyph glyph-name="dotaccent" unicode="&#x2d9;" horiz-adv-x="133" 
d="M79.9258 655.13q0 -5.57715 -3.92578 -9.50293t-9.47461 -3.92578q-5.54785 0 -9.47363 3.92578q-3.92578 3.92676 -3.92578 9.47363v0.0712891q0 5.54785 3.92578 9.47461q3.92578 3.92578 9.47363 3.92578t9.47461 -3.92578q3.92578 -3.92676 3.92578 -9.5166z" />
    <glyph glyph-name="agrave" unicode="&#xe0;" 
d="M77.2285 712.897q8.68652 10.3574 18.8857 1.65137l187.261 -159.845q10.1748 -8.68555 1.625 -18.8691q-8.66895 -10.3301 -18.8408 -1.64746l-187.26 159.847q-10.1982 8.70508 -1.6709 18.8633zM192.95 456.007q62.8809 0 99.502 -55.2861
q36.6211 -55.2852 36.6211 -173.276l-1.65527 -226.62q0.000976562 -5.54688 -3.91406 -9.46094q-3.91406 -3.91406 -9.46094 -3.91406q-5.5498 0 -9.47852 3.91504q-3.92773 3.91504 -3.92773 9.45996v48.3506q-41.0469 -50.043 -107.687 -50.043
q-75.3408 0 -113.249 61.1299t-37.9082 169.432q0 105.42 42.0264 165.867q42.0264 60.4463 109.131 60.4463zM193.7 428.726q-55.7744 0 -90.2002 -53.7646q-34.4268 -53.7656 -34.4268 -147.392q0 -93.4053 31.0674 -147.281q31.0684 -53.875 93.5596 -53.875
q52.5459 0 79.3037 37.333t26.7578 129.92q0 128.896 -25.1758 181.979q-25.1748 53.0811 -80.8857 53.0811z" />
    <glyph glyph-name="aacute" unicode="&#xe1;" 
d="M317.771 724.897q-8.68652 10.3574 -18.8857 1.65137l-187.261 -159.845q-10.1748 -8.68555 -1.625 -18.8691q8.66895 -10.3301 18.8408 -1.64746l187.26 159.847q10.1982 8.70508 1.6709 18.8633zM192.95 456.007q62.8809 0 99.502 -55.2861
q36.6211 -55.2852 36.6211 -173.276l-1.65527 -226.62q0.000976562 -5.54688 -3.91406 -9.46094q-3.91406 -3.91406 -9.46094 -3.91406q-5.5498 0 -9.47852 3.91504q-3.92773 3.91504 -3.92773 9.45996v48.3506q-41.0469 -50.043 -107.687 -50.043
q-75.3408 0 -113.249 61.1299t-37.9082 169.432q0 105.42 42.0264 165.867q42.0264 60.4463 109.131 60.4463zM193.7 428.726q-55.7744 0 -90.2002 -53.7646q-34.4268 -53.7656 -34.4268 -147.392q0 -93.4053 31.0674 -147.281q31.0684 -53.875 93.5596 -53.875
q52.5459 0 79.3037 37.333t26.7578 129.92q0 128.896 -25.1758 181.979q-25.1748 53.0811 -80.8857 53.0811z" />
    <glyph glyph-name="acircumflex" unicode="&#xe2;" 
d="M83.9688 517.281q6.83008 0.183594 10.2197 5.125l88.3115 128.75l88.3125 -128.75q7.59668 -11.0752 18.8125 -2.3125q9.8877 7.72363 2.28125 18.8125l-96.7812 141.094q-1.3418 3.37793 -4.21875 5.625q-3.60059 2.8125 -8.25 2.8125h-0.3125
q-4.67969 0 -8.28125 -2.8125q-2.87402 -2.24512 -4.21875 -5.65625l-96.75 -141.062q-7.60645 -11.0898 2.28125 -18.8125q3.7666 -2.94336 8.59375 -2.8125zM192.95 456.007q62.8809 0 99.502 -55.2861q36.6211 -55.2852 36.6211 -173.276l-1.65527 -226.62
q0.000976562 -5.54688 -3.91406 -9.46094q-3.91406 -3.91406 -9.46094 -3.91406q-5.5498 0 -9.47852 3.91504q-3.92773 3.91504 -3.92773 9.45996v48.3506q-41.0469 -50.043 -107.687 -50.043q-75.3408 0 -113.249 61.1299t-37.9082 169.432q0 105.42 42.0264 165.867
q42.0264 60.4463 109.131 60.4463zM193.7 428.726q-55.7744 0 -90.2002 -53.7646q-34.4268 -53.7656 -34.4268 -147.392q0 -93.4053 31.0674 -147.281q31.0684 -53.875 93.5596 -53.875q52.5459 0 79.3037 37.333t26.7578 129.92q0 128.896 -25.1758 181.979
q-25.1748 53.0811 -80.8857 53.0811z" />
    <glyph glyph-name="atilde" unicode="&#xe3;" 
d="M125.187 695.812q40.6045 0 56.2285 -22.6973q15.624 -22.6963 15.085 -65.6152q5.5625 -26.5156 12.8379 -36.8359q7.27637 -10.3203 26.5674 -10.3203q41.3125 0 41.3125 96.0625q0 5.54785 3.92969 9.47656q3.92969 3.92969 9.47656 3.92969t9.47656 -3.92969
t3.92969 -9.47656q0 -123.344 -67.375 -123.344q-71.5391 0 -69.6875 89.9688l-3.375 16.6172q-1.49805 7.33887 -3.87793 12.7695q-2.37988 5.42969 -6.44141 9.01074t-11.0625 5.3418t-17.7432 1.76074q-26.335 0 -35.7607 -25.8379q-9.42676 -25.8389 -9.42676 -71.2246
q-0.000976562 -5.54785 -3.93066 -9.47656q-3.92871 -3.92969 -9.47559 -3.92969q-5.54785 0 -9.47656 3.92969t-3.92969 9.47656q0 56.1475 17.876 90.2461q17.876 34.0977 54.8428 34.0977zM192.95 456.007q62.8809 0 99.502 -55.2861q36.6211 -55.2852 36.6211 -173.276
l-1.65527 -226.62q0.000976562 -5.54688 -3.91406 -9.46094q-3.91406 -3.91406 -9.46094 -3.91406q-5.5498 0 -9.47852 3.91504q-3.92773 3.91504 -3.92773 9.45996v48.3506q-41.0469 -50.043 -107.687 -50.043q-75.3408 0 -113.249 61.1299t-37.9082 169.432
q0 105.42 42.0264 165.867q42.0264 60.4463 109.131 60.4463zM193.7 428.726q-55.7744 0 -90.2002 -53.7646q-34.4268 -53.7656 -34.4268 -147.392q0 -93.4053 31.0674 -147.281q31.0684 -53.875 93.5596 -53.875q52.5459 0 79.3037 37.333t26.7578 129.92
q0 128.896 -25.1758 181.979q-25.1748 53.0811 -80.8857 53.0811z" />
    <glyph glyph-name="adieresis" unicode="&#xe4;" 
d="M289.023 655.13q0 -5.57715 -3.92578 -9.50293t-9.47461 -3.92578q-5.54785 0 -9.47363 3.92578q-3.92578 3.92676 -3.92578 9.47363v0.0712891q0 5.54785 3.92578 9.47461q3.92578 3.92578 9.47363 3.92578t9.47461 -3.92578q3.92578 -3.92676 3.92578 -9.5166z
M112.926 655.13q0 -5.57715 -3.92578 -9.50293t-9.47461 -3.92578q-5.54785 0 -9.47363 3.92578q-3.92578 3.92676 -3.92578 9.47363v0.0712891q0 5.54785 3.92578 9.47461q3.92578 3.92578 9.47363 3.92578t9.47461 -3.92578q3.92578 -3.92676 3.92578 -9.5166z
M192.95 456.007q62.8809 0 99.502 -55.2861q36.6211 -55.2852 36.6211 -173.276l-1.65527 -226.62q0.000976562 -5.54688 -3.91406 -9.46094q-3.91406 -3.91406 -9.46094 -3.91406q-5.5498 0 -9.47852 3.91504q-3.92773 3.91504 -3.92773 9.45996v48.3506
q-41.0469 -50.043 -107.687 -50.043q-75.3408 0 -113.249 61.1299t-37.9082 169.432q0 105.42 42.0264 165.867q42.0264 60.4463 109.131 60.4463zM193.7 428.726q-55.7744 0 -90.2002 -53.7646q-34.4268 -53.7656 -34.4268 -147.392q0 -93.4053 31.0674 -147.281
q31.0684 -53.875 93.5596 -53.875q52.5459 0 79.3037 37.333t26.7578 129.92q0 128.896 -25.1758 181.979q-25.1748 53.0811 -80.8857 53.0811z" />
    <glyph glyph-name="aring" unicode="&#xe5;" 
d="M195.243 744.711h3q41.9072 0 63.1455 -19.2334q15.4932 -14.0303 25.2295 -63.0166q1.03418 -2.58203 1 -5.03125l-0.125 -9.03125l0.125 -9.03125q0.0332031 -2.41699 -1 -5q-9.81641 -49.082 -25.2246 -63.041q-21.2373 -19.2402 -63.1504 -19.2402
q-82.4121 0 -91.5 81.7188q-1.30664 2.83398 -1.25 5.5625l0.1875 9.03125l-0.1875 9.03125q-0.0576172 2.77539 1.25 5.59375q9.09473 81.6875 88.5 81.6875zM197.493 717.461q-32.9824 0 -48.2051 -16.9736q-16.7646 -18.6943 -16.7646 -52.0889
q0 -33.3896 16.7646 -52.0693q15.2207 -16.9619 48.2051 -16.9619q32.7734 0 47.2734 16.4707q15.8848 16.4443 15.8838 52.5605q-0.000976562 36.1221 -15.8867 52.5791q-14.501 16.4834 -47.2705 16.4834zM192.95 456.007q62.8809 0 99.502 -55.2861
q36.6211 -55.2852 36.6211 -173.276l-1.65527 -226.62q0.000976562 -5.54688 -3.91406 -9.46094q-3.91406 -3.91406 -9.46094 -3.91406q-5.5498 0 -9.47852 3.91504q-3.92773 3.91504 -3.92773 9.45996v48.3506q-41.0469 -50.043 -107.687 -50.043
q-75.3408 0 -113.249 61.1299t-37.9082 169.432q0 105.42 42.0264 165.867q42.0264 60.4463 109.131 60.4463zM193.7 428.726q-55.7744 0 -90.2002 -53.7646q-34.4268 -53.7656 -34.4268 -147.392q0 -93.4053 31.0674 -147.281q31.0684 -53.875 93.5596 -53.875
q52.5459 0 79.3037 37.333t26.7578 129.92q0 128.896 -25.1758 181.979q-25.1748 53.0811 -80.8857 53.0811z" />
    <glyph glyph-name="amacron" unicode="&#x101;" 
d="M192.95 456.007q62.8809 0 99.502 -55.2861q36.6211 -55.2852 36.6211 -173.276l-1.65527 -226.62q0.000976562 -5.54688 -3.91406 -9.46094q-3.91406 -3.91406 -9.46094 -3.91406q-5.5498 0 -9.47852 3.91504q-3.92773 3.91504 -3.92773 9.45996v48.3506
q-41.0469 -50.043 -107.687 -50.043q-75.3408 0 -113.249 61.1299t-37.9082 169.432q0 105.42 42.0264 165.867q42.0264 60.4463 109.131 60.4463zM193.7 428.726q-55.7744 0 -90.2002 -53.7646q-34.4268 -53.7656 -34.4268 -147.392q0 -93.4053 31.0674 -147.281
q31.0684 -53.875 93.5596 -53.875q52.5459 0 79.3037 37.333t26.7578 129.92q0 128.896 -25.1758 181.979q-25.1748 53.0811 -80.8857 53.0811z" />
    <glyph glyph-name="abreve" unicode="&#x103;" 
d="M191.862 572.972q-47.8535 0 -70.3018 26.0869t-22.4482 79.2539q0 5.54785 3.92969 9.47656q3.92969 3.92969 9.47656 3.92969t9.47559 -3.92871q3.92969 -3.92969 3.93066 -9.47754q0 -39.8193 15.0908 -58.9434q15.0918 -19.124 50.0967 -19.124
q34.6865 0 48.999 18.5195q14.3135 18.5186 14.3135 59.5479q0 5.54785 3.92969 9.47656q3.92969 3.92969 9.47656 3.92969t9.47656 -3.92969q3.92969 -3.92871 3.92969 -9.47656q0 -56.5967 -21.2373 -80.9688q-21.2363 -24.3721 -68.1377 -24.3721zM192.95 456.007
q62.8809 0 99.502 -55.2861q36.6211 -55.2852 36.6211 -173.276l-1.65527 -226.62q0.000976562 -5.54688 -3.91406 -9.46094q-3.91406 -3.91406 -9.46094 -3.91406q-5.5498 0 -9.47852 3.91504q-3.92773 3.91504 -3.92773 9.45996v48.3506
q-41.0469 -50.043 -107.687 -50.043q-75.3408 0 -113.249 61.1299t-37.9082 169.432q0 105.42 42.0264 165.867q42.0264 60.4463 109.131 60.4463zM193.7 428.726q-55.7744 0 -90.2002 -53.7646q-34.4268 -53.7656 -34.4268 -147.392q0 -93.4053 31.0674 -147.281
q31.0684 -53.875 93.5596 -53.875q52.5459 0 79.3037 37.333t26.7578 129.92q0 128.896 -25.1758 181.979q-25.1748 53.0811 -80.8857 53.0811z" />
    <glyph glyph-name="aogonek" unicode="&#x105;" 
d="M232.227 -60.0332q0 47.8535 26.0879 70.3018q26.0869 22.4482 79.2529 22.4482q5.54785 0 9.47754 -3.92871q3.92871 -3.92969 3.92871 -9.47754t-3.92871 -9.47656t-9.47754 -3.92969q-39.8193 0 -58.9434 -15.0908q-19.124 -15.0918 -19.124 -50.0967
q0 -34.6865 18.5186 -48.999q18.5186 -14.3135 59.5488 -14.3135q5.54785 0 9.47754 -3.92871q3.92871 -3.92969 3.92871 -9.47754t-3.92871 -9.47656q-3.92969 -3.92969 -9.47754 -3.92969q-56.5967 0 -80.9688 21.2373t-24.3721 68.1377zM192.95 456.007
q62.8809 0 99.502 -55.2861q36.6211 -55.2852 36.6211 -173.276l-1.65527 -226.62q0.000976562 -5.54688 -3.91406 -9.46094q-3.91406 -3.91406 -9.46094 -3.91406q-5.5498 0 -9.47852 3.91504q-3.92773 3.91504 -3.92773 9.45996v48.3506
q-41.0469 -50.043 -107.687 -50.043q-75.3408 0 -113.249 61.1299t-37.9082 169.432q0 105.42 42.0264 165.867q42.0264 60.4463 109.131 60.4463zM193.7 428.726q-55.7744 0 -90.2002 -53.7646q-34.4268 -53.7656 -34.4268 -147.392q0 -93.4053 31.0674 -147.281
q31.0684 -53.875 93.5596 -53.875q52.5459 0 79.3037 37.333t26.7578 129.92q0 128.896 -25.1758 181.979q-25.1748 53.0811 -80.8857 53.0811z" />
    <glyph glyph-name="uni01CE" unicode="&#x1ce;" 
d="M76.9688 680.719q6.83008 -0.183594 10.2197 -5.125l88.3115 -128.75l88.3125 128.75q7.59668 11.0752 18.8125 2.3125q9.8877 -7.72363 2.28125 -18.8125l-96.7812 -141.094q-1.3418 -3.37793 -4.21875 -5.625q-3.60059 -2.8125 -8.25 -2.8125h-0.3125
q-4.67969 0 -8.28125 2.8125q-2.87402 2.24512 -4.21875 5.65625l-96.75 141.062q-7.60645 11.0898 2.28125 18.8125q3.7666 2.94336 8.59375 2.8125zM192.95 456.007q62.8809 0 99.502 -55.2861q36.6211 -55.2852 36.6211 -173.276l-1.65527 -226.62
q0.000976562 -5.54688 -3.91406 -9.46094q-3.91406 -3.91406 -9.46094 -3.91406q-5.5498 0 -9.47852 3.91504q-3.92773 3.91504 -3.92773 9.45996v48.3506q-41.0469 -50.043 -107.687 -50.043q-75.3408 0 -113.249 61.1299t-37.9082 169.432q0 105.42 42.0264 165.867
q42.0264 60.4463 109.131 60.4463zM193.7 428.726q-55.7744 0 -90.2002 -53.7646q-34.4268 -53.7656 -34.4268 -147.392q0 -93.4053 31.0674 -147.281q31.0684 -53.875 93.5596 -53.875q52.5459 0 79.3037 37.333t26.7578 129.92q0 128.896 -25.1758 181.979
q-25.1748 53.0811 -80.8857 53.0811z" />
    <glyph glyph-name="aringacute" unicode="&#x1fb;" 
d="M183.243 744.711h3q41.9072 0 63.1455 -19.2334q15.4932 -14.0303 25.2295 -63.0166q1.03418 -2.58203 1 -5.03125l-0.125 -9.03125l0.125 -9.03125q0.0332031 -2.41699 -1 -5q-9.81641 -49.082 -25.2246 -63.041q-21.2373 -19.2402 -63.1504 -19.2402
q-82.4121 0 -91.5 81.7188q-1.30664 2.83398 -1.25 5.5625l0.1875 9.03125l-0.1875 9.03125q-0.0576172 2.77539 1.25 5.59375q9.09473 81.6875 88.5 81.6875zM185.493 717.461q-32.9824 0 -48.2051 -16.9736q-16.7646 -18.6943 -16.7646 -52.0889
q0 -33.3896 16.7646 -52.0693q15.2207 -16.9619 48.2051 -16.9619q32.7734 0 47.2734 16.4707q15.8848 16.4443 15.8838 52.5605q-0.000976562 36.1221 -15.8867 52.5791q-14.501 16.4834 -47.2705 16.4834zM192.95 456.007q62.8809 0 99.502 -55.2861
q36.6211 -55.2852 36.6211 -173.276l-1.65527 -226.62q0.000976562 -5.54688 -3.91406 -9.46094q-3.91406 -3.91406 -9.46094 -3.91406q-5.5498 0 -9.47852 3.91504q-3.92773 3.91504 -3.92773 9.45996v48.3506q-41.0469 -50.043 -107.687 -50.043
q-75.3408 0 -113.249 61.1299t-37.9082 169.432q0 105.42 42.0264 165.867q42.0264 60.4463 109.131 60.4463zM193.7 428.726q-55.7744 0 -90.2002 -53.7646q-34.4268 -53.7656 -34.4268 -147.392q0 -93.4053 31.0674 -147.281q31.0684 -53.875 93.5596 -53.875
q52.5459 0 79.3037 37.333t26.7578 129.92q0 128.896 -25.1758 181.979q-25.1748 53.0811 -80.8857 53.0811z" />
    <glyph glyph-name="aeacute" unicode="&#x1fd;" 
d="M192.95 456.007q62.8809 0 99.502 -55.2861q36.6211 -55.2852 36.6211 -173.276l-1.65527 -226.62q0.000976562 -5.54688 -3.91406 -9.46094q-3.91406 -3.91406 -9.46094 -3.91406q-5.5498 0 -9.47852 3.91504q-3.92773 3.91504 -3.92773 9.45996v48.3506
q-41.0469 -50.043 -107.687 -50.043q-75.3408 0 -113.249 61.1299t-37.9082 169.432q0 105.42 42.0264 165.867q42.0264 60.4463 109.131 60.4463zM193.7 428.726q-55.7744 0 -90.2002 -53.7646q-34.4268 -53.7656 -34.4268 -147.392q0 -93.4053 31.0674 -147.281
q31.0684 -53.875 93.5596 -53.875q52.5459 0 79.3037 37.333t26.7578 129.92q0 128.896 -25.1758 181.979q-25.1748 53.0811 -80.8857 53.0811z" />
    <glyph glyph-name="uni0201" unicode="&#x201;" 
d="M192.95 456.007q62.8809 0 99.502 -55.2861q36.6211 -55.2852 36.6211 -173.276l-1.65527 -226.62q0.000976562 -5.54688 -3.91406 -9.46094q-3.91406 -3.91406 -9.46094 -3.91406q-5.5498 0 -9.47852 3.91504q-3.92773 3.91504 -3.92773 9.45996v48.3506
q-41.0469 -50.043 -107.687 -50.043q-75.3408 0 -113.249 61.1299t-37.9082 169.432q0 105.42 42.0264 165.867q42.0264 60.4463 109.131 60.4463zM193.7 428.726q-55.7744 0 -90.2002 -53.7646q-34.4268 -53.7656 -34.4268 -147.392q0 -93.4053 31.0674 -147.281
q31.0684 -53.875 93.5596 -53.875q52.5459 0 79.3037 37.333t26.7578 129.92q0 128.896 -25.1758 181.979q-25.1748 53.0811 -80.8857 53.0811z" />
    <glyph glyph-name="uni0203" unicode="&#x203;" 
d="M192.95 456.007q62.8809 0 99.502 -55.2861q36.6211 -55.2852 36.6211 -173.276l-1.65527 -226.62q0.000976562 -5.54688 -3.91406 -9.46094q-3.91406 -3.91406 -9.46094 -3.91406q-5.5498 0 -9.47852 3.91504q-3.92773 3.91504 -3.92773 9.45996v48.3506
q-41.0469 -50.043 -107.687 -50.043q-75.3408 0 -113.249 61.1299t-37.9082 169.432q0 105.42 42.0264 165.867q42.0264 60.4463 109.131 60.4463zM193.7 428.726q-55.7744 0 -90.2002 -53.7646q-34.4268 -53.7656 -34.4268 -147.392q0 -93.4053 31.0674 -147.281
q31.0684 -53.875 93.5596 -53.875q52.5459 0 79.3037 37.333t26.7578 129.92q0 128.896 -25.1758 181.979q-25.1748 53.0811 -80.8857 53.0811z" />
    <glyph glyph-name="uni01DF" unicode="&#x1df;" 
d="M192.95 456.007q62.8809 0 99.502 -55.2861q36.6211 -55.2852 36.6211 -173.276l-1.65527 -226.62q0.000976562 -5.54688 -3.91406 -9.46094q-3.91406 -3.91406 -9.46094 -3.91406q-5.5498 0 -9.47852 3.91504q-3.92773 3.91504 -3.92773 9.45996v48.3506
q-41.0469 -50.043 -107.687 -50.043q-75.3408 0 -113.249 61.1299t-37.9082 169.432q0 105.42 42.0264 165.867q42.0264 60.4463 109.131 60.4463zM193.7 428.726q-55.7744 0 -90.2002 -53.7646q-34.4268 -53.7656 -34.4268 -147.392q0 -93.4053 31.0674 -147.281
q31.0684 -53.875 93.5596 -53.875q52.5459 0 79.3037 37.333t26.7578 129.92q0 128.896 -25.1758 181.979q-25.1748 53.0811 -80.8857 53.0811z" />
    <glyph glyph-name="uni01E1" unicode="&#x1e1;" 
d="M192.95 456.007q62.8809 0 99.502 -55.2861q36.6211 -55.2852 36.6211 -173.276l-1.65527 -226.62q0.000976562 -5.54688 -3.91406 -9.46094q-3.91406 -3.91406 -9.46094 -3.91406q-5.5498 0 -9.47852 3.91504q-3.92773 3.91504 -3.92773 9.45996v48.3506
q-41.0469 -50.043 -107.687 -50.043q-75.3408 0 -113.249 61.1299t-37.9082 169.432q0 105.42 42.0264 165.867q42.0264 60.4463 109.131 60.4463zM193.7 428.726q-55.7744 0 -90.2002 -53.7646q-34.4268 -53.7656 -34.4268 -147.392q0 -93.4053 31.0674 -147.281
q31.0684 -53.875 93.5596 -53.875q52.5459 0 79.3037 37.333t26.7578 129.92q0 128.896 -25.1758 181.979q-25.1748 53.0811 -80.8857 53.0811z" />
    <glyph glyph-name="uni01E3" unicode="&#x1e3;" 
d="M192.95 456.007q62.8809 0 99.502 -55.2861q36.6211 -55.2852 36.6211 -173.276l-1.65527 -226.62q0.000976562 -5.54688 -3.91406 -9.46094q-3.91406 -3.91406 -9.46094 -3.91406q-5.5498 0 -9.47852 3.91504q-3.92773 3.91504 -3.92773 9.45996v48.3506
q-41.0469 -50.043 -107.687 -50.043q-75.3408 0 -113.249 61.1299t-37.9082 169.432q0 105.42 42.0264 165.867q42.0264 60.4463 109.131 60.4463zM193.7 428.726q-55.7744 0 -90.2002 -53.7646q-34.4268 -53.7656 -34.4268 -147.392q0 -93.4053 31.0674 -147.281
q31.0684 -53.875 93.5596 -53.875q52.5459 0 79.3037 37.333t26.7578 129.92q0 128.896 -25.1758 181.979q-25.1748 53.0811 -80.8857 53.0811z" />
    <glyph glyph-name="uni0227" unicode="&#x227;" 
d="M209.926 655.13q0 -5.57715 -3.92578 -9.50293t-9.47461 -3.92578q-5.54785 0 -9.47363 3.92578q-3.92578 3.92676 -3.92578 9.47363v0.0712891q0 5.54785 3.92578 9.47461q3.92578 3.92578 9.47363 3.92578t9.47461 -3.92578q3.92578 -3.92676 3.92578 -9.5166z
M192.95 456.007q62.8809 0 99.502 -55.2861q36.6211 -55.2852 36.6211 -173.276l-1.65527 -226.62q0.000976562 -5.54688 -3.91406 -9.46094q-3.91406 -3.91406 -9.46094 -3.91406q-5.5498 0 -9.47852 3.91504q-3.92773 3.91504 -3.92773 9.45996v48.3506
q-41.0469 -50.043 -107.687 -50.043q-75.3408 0 -113.249 61.1299t-37.9082 169.432q0 105.42 42.0264 165.867q42.0264 60.4463 109.131 60.4463zM193.7 428.726q-55.7744 0 -90.2002 -53.7646q-34.4268 -53.7656 -34.4268 -147.392q0 -93.4053 31.0674 -147.281
q31.0684 -53.875 93.5596 -53.875q52.5459 0 79.3037 37.333t26.7578 129.92q0 128.896 -25.1758 181.979q-25.1748 53.0811 -80.8857 53.0811z" />
    <glyph glyph-name="ae" unicode="&#xe6;" 
d="M461.719 458.562q141.633 0 140.188 -239.251q0.000976562 -5.5498 -3.91406 -9.47754q-3.91602 -3.92773 -9.46094 -3.92773l-0.875 -0.0947266h-255.875q0 -42.9277 16.1904 -87.6396t50.8604 -78.3018q34.6699 -33.5889 78.7305 -33.5889q18.166 0 31.9355 2.75684
q13.7686 2.75684 22.9268 7.79102q9.15918 5.03418 16.874 12.1064q7.71582 7.07129 13.7793 15.7021l13.6406 18.5811q8.89648 12.0938 15.3438 12.0938q5.54297 0 9.45898 -3.92773t3.91602 -9.47852q-0.396484 -3.58984 -5.03125 -11.7812
q-5.30762 -6.95605 -9.84082 -15.8896t-14.7529 -18.6416q-10.2217 -9.70898 -22.3242 -17.7852t-32.5508 -13.3174q-20.4502 -5.24121 -45.4365 -5.24121q-75.875 0 -124.938 67.0488q-49.0615 67.0479 -49.0615 174.451q0 119.114 45.1631 178.463
q45.1621 59.3496 115.055 59.3496zM460.812 432.438q-54.1143 0 -91.5723 -53.4023q-37.459 -53.4033 -37.459 -145.347h245.719q0 94.6689 -32.2676 146.708q-32.2666 52.041 -84.4199 52.041zM192.95 456.007q62.8809 0 99.502 -55.2861
q36.6211 -55.2852 36.6211 -173.276l-1.65527 -226.62q0.000976562 -5.54688 -3.91406 -9.46094q-3.91406 -3.91406 -9.46094 -3.91406q-5.5498 0 -9.47852 3.91504q-3.92773 3.91504 -3.92773 9.45996v48.3506q-41.0469 -50.043 -107.687 -50.043
q-75.3408 0 -113.249 61.1299t-37.9082 169.432q0 105.42 42.0264 165.867q42.0264 60.4463 109.131 60.4463zM193.7 428.726q-55.7744 0 -90.2002 -53.7646q-34.4268 -53.7656 -34.4268 -147.392q0 -93.4053 31.0674 -147.281q31.0684 -53.875 93.5596 -53.875
q52.5459 0 79.3037 37.333t26.7578 129.92q0 128.896 -25.1758 181.979q-25.1748 53.0811 -80.8857 53.0811z" />
    <glyph glyph-name="egrave" unicode="&#xe8;" horiz-adv-x="390" 
d="M77.2285 712.897q8.68652 10.3574 18.8857 1.65137l187.261 -159.845q10.1748 -8.68555 1.625 -18.8691q-8.66895 -10.3301 -18.8408 -1.64746l-187.26 159.847q-10.1982 8.70508 -1.6709 18.8633zM202.219 479.562q141.633 0 140.188 -239.251
q0.000976562 -5.5498 -3.91406 -9.47754q-3.91602 -3.92773 -9.46094 -3.92773l-0.875 -0.0947266h-255.875q0 -42.9277 16.1904 -87.6396t50.8604 -78.3018q34.6699 -33.5889 78.7295 -33.5889q18.167 0 31.9365 2.75684q13.7686 2.75684 22.9268 7.79102
q9.15918 5.03418 16.874 12.1064q7.71582 7.07129 13.7793 15.7021l13.6406 18.5811q8.89648 12.0938 15.3438 12.0938q5.54395 0 9.45898 -3.92773q3.91602 -3.92773 3.91602 -9.47852q-0.396484 -3.58984 -5.03125 -11.7812q-5.30762 -6.95605 -9.84082 -15.8896
t-14.7529 -18.6416q-10.2217 -9.70898 -22.3242 -17.7852t-32.5508 -13.3174q-20.4502 -5.24121 -45.4365 -5.24121q-75.875 0 -124.938 67.0488q-49.0615 67.0479 -49.0615 174.451q0 119.114 45.1631 178.463q45.1621 59.3496 115.055 59.3496zM201.312 453.438
q-54.1133 0 -91.5713 -53.4023q-37.459 -53.4033 -37.459 -145.347h245.719q0 94.6689 -32.2676 146.708q-32.2666 52.041 -84.4209 52.041z" />
    <glyph glyph-name="eacute" unicode="&#xe9;" horiz-adv-x="390" 
d="M291.771 724.897q-8.68652 10.3574 -18.8857 1.65137l-187.261 -159.845q-10.1748 -8.68555 -1.625 -18.8691q8.66895 -10.3301 18.8408 -1.64746l187.26 159.847q10.1982 8.70508 1.6709 18.8633zM202.219 479.562q141.633 0 140.188 -239.251
q0.000976562 -5.5498 -3.91406 -9.47754q-3.91602 -3.92773 -9.46094 -3.92773l-0.875 -0.0947266h-255.875q0 -42.9277 16.1904 -87.6396t50.8604 -78.3018q34.6699 -33.5889 78.7295 -33.5889q18.167 0 31.9365 2.75684q13.7686 2.75684 22.9268 7.79102
q9.15918 5.03418 16.874 12.1064q7.71582 7.07129 13.7793 15.7021l13.6406 18.5811q8.89648 12.0938 15.3438 12.0938q5.54395 0 9.45898 -3.92773q3.91602 -3.92773 3.91602 -9.47852q-0.396484 -3.58984 -5.03125 -11.7812q-5.30762 -6.95605 -9.84082 -15.8896
t-14.7529 -18.6416q-10.2217 -9.70898 -22.3242 -17.7852t-32.5508 -13.3174q-20.4502 -5.24121 -45.4365 -5.24121q-75.875 0 -124.938 67.0488q-49.0615 67.0479 -49.0615 174.451q0 119.114 45.1631 178.463q45.1621 59.3496 115.055 59.3496zM201.312 453.438
q-54.1133 0 -91.5713 -53.4023q-37.459 -53.4033 -37.459 -145.347h245.719q0 94.6689 -32.2676 146.708q-32.2666 52.041 -84.4209 52.041z" />
    <glyph glyph-name="ecircumflex" unicode="&#xea;" horiz-adv-x="390" 
d="M83.9688 517.281q6.83008 0.183594 10.2197 5.125l88.3115 128.75l88.3125 -128.75q7.59668 -11.0752 18.8125 -2.3125q9.8877 7.72363 2.28125 18.8125l-96.7812 141.094q-1.3418 3.37793 -4.21875 5.625q-3.60059 2.8125 -8.25 2.8125h-0.3125
q-4.67969 0 -8.28125 -2.8125q-2.87402 -2.24512 -4.21875 -5.65625l-96.75 -141.062q-7.60645 -11.0898 2.28125 -18.8125q3.7666 -2.94336 8.59375 -2.8125zM202.219 479.562q141.633 0 140.188 -239.251q0.000976562 -5.5498 -3.91406 -9.47754
q-3.91602 -3.92773 -9.46094 -3.92773l-0.875 -0.0947266h-255.875q0 -42.9277 16.1904 -87.6396t50.8604 -78.3018q34.6699 -33.5889 78.7295 -33.5889q18.167 0 31.9365 2.75684q13.7686 2.75684 22.9268 7.79102q9.15918 5.03418 16.874 12.1064
q7.71582 7.07129 13.7793 15.7021l13.6406 18.5811q8.89648 12.0938 15.3438 12.0938q5.54395 0 9.45898 -3.92773q3.91602 -3.92773 3.91602 -9.47852q-0.396484 -3.58984 -5.03125 -11.7812q-5.30762 -6.95605 -9.84082 -15.8896t-14.7529 -18.6416
q-10.2217 -9.70898 -22.3242 -17.7852t-32.5508 -13.3174q-20.4502 -5.24121 -45.4365 -5.24121q-75.875 0 -124.938 67.0488q-49.0615 67.0479 -49.0615 174.451q0 119.114 45.1631 178.463q45.1621 59.3496 115.055 59.3496zM201.312 453.438
q-54.1133 0 -91.5713 -53.4023q-37.459 -53.4033 -37.459 -145.347h245.719q0 94.6689 -32.2676 146.708q-32.2666 52.041 -84.4209 52.041z" />
    <glyph glyph-name="edieresis" unicode="&#xeb;" horiz-adv-x="390" 
d="M306.023 655.13q0 -5.57715 -3.92578 -9.50293t-9.47461 -3.92578q-5.54785 0 -9.47363 3.92578q-3.92578 3.92676 -3.92578 9.47363v0.0712891q0 5.54785 3.92578 9.47461q3.92578 3.92578 9.47363 3.92578t9.47461 -3.92578q3.92578 -3.92676 3.92578 -9.5166z
M129.926 655.13q0 -5.57715 -3.92578 -9.50293t-9.47461 -3.92578q-5.54785 0 -9.47363 3.92578q-3.92578 3.92676 -3.92578 9.47363v0.0712891q0 5.54785 3.92578 9.47461q3.92578 3.92578 9.47363 3.92578t9.47461 -3.92578q3.92578 -3.92676 3.92578 -9.5166z
M202.219 479.562q141.633 0 140.188 -239.251q0.000976562 -5.5498 -3.91406 -9.47754q-3.91602 -3.92773 -9.46094 -3.92773l-0.875 -0.0947266h-255.875q0 -42.9277 16.1904 -87.6396t50.8604 -78.3018q34.6699 -33.5889 78.7295 -33.5889q18.167 0 31.9365 2.75684
q13.7686 2.75684 22.9268 7.79102q9.15918 5.03418 16.874 12.1064q7.71582 7.07129 13.7793 15.7021l13.6406 18.5811q8.89648 12.0938 15.3438 12.0938q5.54395 0 9.45898 -3.92773q3.91602 -3.92773 3.91602 -9.47852q-0.396484 -3.58984 -5.03125 -11.7812
q-5.30762 -6.95605 -9.84082 -15.8896t-14.7529 -18.6416q-10.2217 -9.70898 -22.3242 -17.7852t-32.5508 -13.3174q-20.4502 -5.24121 -45.4365 -5.24121q-75.875 0 -124.938 67.0488q-49.0615 67.0479 -49.0615 174.451q0 119.114 45.1631 178.463
q45.1621 59.3496 115.055 59.3496zM201.312 453.438q-54.1133 0 -91.5713 -53.4023q-37.459 -53.4033 -37.459 -145.347h245.719q0 94.6689 -32.2676 146.708q-32.2666 52.041 -84.4209 52.041z" />
    <glyph glyph-name="emacron" unicode="&#x113;" horiz-adv-x="390" 
d="M202.219 479.562q141.633 0 140.188 -239.251q0.000976562 -5.5498 -3.91406 -9.47754q-3.91602 -3.92773 -9.46094 -3.92773l-0.875 -0.0947266h-255.875q0 -42.9277 16.1904 -87.6396t50.8604 -78.3018q34.6699 -33.5889 78.7295 -33.5889q18.167 0 31.9365 2.75684
q13.7686 2.75684 22.9268 7.79102q9.15918 5.03418 16.874 12.1064q7.71582 7.07129 13.7793 15.7021l13.6406 18.5811q8.89648 12.0938 15.3438 12.0938q5.54395 0 9.45898 -3.92773q3.91602 -3.92773 3.91602 -9.47852q-0.396484 -3.58984 -5.03125 -11.7812
q-5.30762 -6.95605 -9.84082 -15.8896t-14.7529 -18.6416q-10.2217 -9.70898 -22.3242 -17.7852t-32.5508 -13.3174q-20.4502 -5.24121 -45.4365 -5.24121q-75.875 0 -124.938 67.0488q-49.0615 67.0479 -49.0615 174.451q0 119.114 45.1631 178.463
q45.1621 59.3496 115.055 59.3496zM201.312 453.438q-54.1133 0 -91.5713 -53.4023q-37.459 -53.4033 -37.459 -145.347h245.719q0 94.6689 -32.2676 146.708q-32.2666 52.041 -84.4209 52.041z" />
    <glyph glyph-name="ebreve" unicode="&#x115;" horiz-adv-x="390" 
d="M201.862 572.972q-47.8535 0 -70.3018 26.0869t-22.4482 79.2539q0 5.54785 3.92969 9.47656q3.92969 3.92969 9.47656 3.92969t9.47559 -3.92871q3.92969 -3.92969 3.93066 -9.47754q0 -39.8193 15.0908 -58.9434q15.0918 -19.124 50.0967 -19.124
q34.6865 0 48.999 18.5195q14.3135 18.5186 14.3135 59.5479q0 5.54785 3.92969 9.47656q3.92969 3.92969 9.47656 3.92969t9.47656 -3.92969q3.92969 -3.92871 3.92969 -9.47656q0 -56.5967 -21.2373 -80.9688q-21.2363 -24.3721 -68.1377 -24.3721zM202.219 479.562
q141.633 0 140.188 -239.251q0.000976562 -5.5498 -3.91406 -9.47754q-3.91602 -3.92773 -9.46094 -3.92773l-0.875 -0.0947266h-255.875q0 -42.9277 16.1904 -87.6396t50.8604 -78.3018q34.6699 -33.5889 78.7295 -33.5889q18.167 0 31.9365 2.75684
q13.7686 2.75684 22.9268 7.79102q9.15918 5.03418 16.874 12.1064q7.71582 7.07129 13.7793 15.7021l13.6406 18.5811q8.89648 12.0938 15.3438 12.0938q5.54395 0 9.45898 -3.92773q3.91602 -3.92773 3.91602 -9.47852q-0.396484 -3.58984 -5.03125 -11.7812
q-5.30762 -6.95605 -9.84082 -15.8896t-14.7529 -18.6416q-10.2217 -9.70898 -22.3242 -17.7852t-32.5508 -13.3174q-20.4502 -5.24121 -45.4365 -5.24121q-75.875 0 -124.938 67.0488q-49.0615 67.0479 -49.0615 174.451q0 119.114 45.1631 178.463
q45.1621 59.3496 115.055 59.3496zM201.312 453.438q-54.1133 0 -91.5713 -53.4023q-37.459 -53.4033 -37.459 -145.347h245.719q0 94.6689 -32.2676 146.708q-32.2666 52.041 -84.4209 52.041z" />
    <glyph glyph-name="edotaccent" unicode="&#x117;" horiz-adv-x="390" 
d="M209.926 655.13q0 -5.57715 -3.92578 -9.50293t-9.47461 -3.92578q-5.54785 0 -9.47363 3.92578q-3.92578 3.92676 -3.92578 9.47363v0.0712891q0 5.54785 3.92578 9.47461q3.92578 3.92578 9.47363 3.92578t9.47461 -3.92578q3.92578 -3.92676 3.92578 -9.5166z
M202.219 479.562q141.633 0 140.188 -239.251q0.000976562 -5.5498 -3.91406 -9.47754q-3.91602 -3.92773 -9.46094 -3.92773l-0.875 -0.0947266h-255.875q0 -42.9277 16.1904 -87.6396t50.8604 -78.3018q34.6699 -33.5889 78.7295 -33.5889q18.167 0 31.9365 2.75684
q13.7686 2.75684 22.9268 7.79102q9.15918 5.03418 16.874 12.1064q7.71582 7.07129 13.7793 15.7021l13.6406 18.5811q8.89648 12.0938 15.3438 12.0938q5.54395 0 9.45898 -3.92773q3.91602 -3.92773 3.91602 -9.47852q-0.396484 -3.58984 -5.03125 -11.7812
q-5.30762 -6.95605 -9.84082 -15.8896t-14.7529 -18.6416q-10.2217 -9.70898 -22.3242 -17.7852t-32.5508 -13.3174q-20.4502 -5.24121 -45.4365 -5.24121q-75.875 0 -124.938 67.0488q-49.0615 67.0479 -49.0615 174.451q0 119.114 45.1631 178.463
q45.1621 59.3496 115.055 59.3496zM201.312 453.438q-54.1133 0 -91.5713 -53.4023q-37.459 -53.4033 -37.459 -145.347h245.719q0 94.6689 -32.2676 146.708q-32.2666 52.041 -84.4209 52.041z" />
    <glyph glyph-name="eogonek" unicode="&#x119;" horiz-adv-x="390" 
d="M221.727 -60.0332q0 47.8535 26.0879 70.3018q26.0869 22.4482 79.2529 22.4482q5.54785 0 9.47754 -3.92871q3.92871 -3.92969 3.92871 -9.47754t-3.92871 -9.47656t-9.47754 -3.92969q-39.8193 0 -58.9434 -15.0908q-19.124 -15.0918 -19.124 -50.0967
q0 -34.6865 18.5186 -48.999q18.5186 -14.3135 59.5488 -14.3135q5.54785 0 9.47754 -3.92871q3.92871 -3.92969 3.92871 -9.47754t-3.92871 -9.47656q-3.92969 -3.92969 -9.47754 -3.92969q-56.5967 0 -80.9688 21.2373t-24.3721 68.1377zM202.219 479.562
q141.633 0 140.188 -239.251q0.000976562 -5.5498 -3.91406 -9.47754q-3.91602 -3.92773 -9.46094 -3.92773l-0.875 -0.0947266h-255.875q0 -42.9277 16.1904 -87.6396t50.8604 -78.3018q34.6699 -33.5889 78.7295 -33.5889q18.167 0 31.9365 2.75684
q13.7686 2.75684 22.9268 7.79102q9.15918 5.03418 16.874 12.1064q7.71582 7.07129 13.7793 15.7021l13.6406 18.5811q8.89648 12.0938 15.3438 12.0938q5.54395 0 9.45898 -3.92773q3.91602 -3.92773 3.91602 -9.47852q-0.396484 -3.58984 -5.03125 -11.7812
q-5.30762 -6.95605 -9.84082 -15.8896t-14.7529 -18.6416q-10.2217 -9.70898 -22.3242 -17.7852t-32.5508 -13.3174q-20.4502 -5.24121 -45.4365 -5.24121q-75.875 0 -124.938 67.0488q-49.0615 67.0479 -49.0615 174.451q0 119.114 45.1631 178.463
q45.1621 59.3496 115.055 59.3496zM201.312 453.438q-54.1133 0 -91.5713 -53.4023q-37.459 -53.4033 -37.459 -145.347h245.719q0 94.6689 -32.2676 146.708q-32.2666 52.041 -84.4209 52.041z" />
    <glyph glyph-name="dotlessi" unicode="&#x131;" horiz-adv-x="124" 
d="M66.9785 475.612q5.5488 0 9.4785 -3.92899q3.9297 -3.93002 3.9297 -9.47702v-449.25q0 -5.54399 -3.9287 -9.46001q-3.9277 -3.91503 -9.4795 -3.91503q-5.5459 0 -9.4599 3.91407q-3.9151 3.91406 -3.9151 9.46098v449.25q0 5.55002 3.918 9.479
q3.914 3.927 9.457 3.927z" />
    <glyph glyph-name="igrave" unicode="&#xec;" horiz-adv-x="124" 
d="M-26.7715 712.897q8.68652 10.3574 18.8857 1.65137l187.261 -159.845q10.1748 -8.68555 1.625 -18.8691q-8.66895 -10.3301 -18.8408 -1.64746l-187.26 159.847q-10.1982 8.70508 -1.6709 18.8633zM66.9785 475.612q5.54883 0 9.47852 -3.92969t3.92969 -9.47656
v-449.25q0 -5.54395 -3.92871 -9.45996q-3.92773 -3.91504 -9.47949 -3.91504q-5.5459 0 -9.45996 3.91406q-3.91504 3.91406 -3.91504 9.46094v449.25q0 5.5498 3.91797 9.47852q3.91406 3.92773 9.45703 3.92773z" />
    <glyph glyph-name="iacute" unicode="&#xed;" horiz-adv-x="124" 
d="M194.771 724.897q-8.68652 10.3574 -18.8857 1.65137l-187.261 -159.845q-10.1748 -8.68555 -1.625 -18.8691q8.66895 -10.3301 18.8408 -1.64746l187.26 159.847q10.1982 8.70508 1.6709 18.8633zM66.9785 475.612q5.54883 0 9.47852 -3.92969t3.92969 -9.47656v-449.25
q0 -5.54395 -3.92871 -9.45996q-3.92773 -3.91504 -9.47949 -3.91504q-5.5459 0 -9.45996 3.91406q-3.91504 3.91406 -3.91504 9.46094v449.25q0 5.5498 3.91797 9.47852q3.91406 3.92773 9.45703 3.92773z" />
    <glyph glyph-name="icircumflex" unicode="&#xee;" horiz-adv-x="124" 
d="M-36.0312 517.281q6.83008 0.183594 10.2197 5.125l88.3115 128.75l88.3125 -128.75q7.59668 -11.0752 18.8125 -2.3125q9.8877 7.72363 2.28125 18.8125l-96.7812 141.094q-1.3418 3.37793 -4.21875 5.625q-3.60059 2.8125 -8.25 2.8125h-0.3125
q-4.67969 0 -8.28125 -2.8125q-2.87402 -2.24512 -4.21875 -5.65625l-96.75 -141.062q-7.60645 -11.0898 2.28125 -18.8125q3.7666 -2.94336 8.59375 -2.8125zM66.9785 475.612q5.54883 0 9.47852 -3.92969t3.92969 -9.47656v-449.25q0 -5.54395 -3.92871 -9.45996
q-3.92773 -3.91504 -9.47949 -3.91504q-5.5459 0 -9.45996 3.91406q-3.91504 3.91406 -3.91504 9.46094v449.25q0 5.5498 3.91797 9.47852q3.91406 3.92773 9.45703 3.92773z" />
    <glyph glyph-name="idieresis" unicode="&#xef;" horiz-adv-x="124" 
d="M176.023 655.13q0 -5.57715 -3.92578 -9.50293t-9.47461 -3.92578q-5.54785 0 -9.47363 3.92578q-3.92578 3.92676 -3.92578 9.47363v0.0712891q0 5.54785 3.92578 9.47461q3.92578 3.92578 9.47363 3.92578t9.47461 -3.92578q3.92578 -3.92676 3.92578 -9.5166z
M-0.0742188 655.13q0 -5.57715 -3.92578 -9.50293t-9.47461 -3.92578q-5.54785 0 -9.47363 3.92578q-3.92578 3.92676 -3.92578 9.47363v0.0712891q0 5.54785 3.92578 9.47461q3.92578 3.92578 9.47363 3.92578t9.47461 -3.92578q3.92578 -3.92676 3.92578 -9.5166z
M66.9785 475.612q5.54883 0 9.47852 -3.92969t3.92969 -9.47656v-449.25q0 -5.54395 -3.92871 -9.45996q-3.92773 -3.91504 -9.47949 -3.91504q-5.5459 0 -9.45996 3.91406q-3.91504 3.91406 -3.91504 9.46094v449.25q0 5.5498 3.91797 9.47852
q3.91406 3.92773 9.45703 3.92773z" />
    <glyph glyph-name="itilde" unicode="&#x129;" horiz-adv-x="124" 
d="M10.1865 695.812q40.6045 0 56.2285 -22.6973q15.624 -22.6963 15.085 -65.6152q5.5625 -26.5156 12.8379 -36.8359q7.27637 -10.3203 26.5674 -10.3203q41.3125 0 41.3125 96.0625q0 5.54785 3.92969 9.47656q3.92969 3.92969 9.47656 3.92969t9.47656 -3.92969
t3.92969 -9.47656q0 -123.344 -67.375 -123.344q-71.5391 0 -69.6875 89.9688l-3.375 16.6172q-1.49805 7.33887 -3.87793 12.7695q-2.37988 5.42969 -6.44141 9.01074t-11.0625 5.3418t-17.7432 1.76074q-26.335 0 -35.7607 -25.8379q-9.42676 -25.8389 -9.42676 -71.2246
q-0.000976562 -5.54785 -3.93066 -9.47656q-3.92871 -3.92969 -9.47559 -3.92969q-5.54785 0 -9.47656 3.92969t-3.92969 9.47656q0 56.1475 17.876 90.2461q17.876 34.0977 54.8428 34.0977zM66.9785 475.612q5.54883 0 9.47852 -3.92969t3.92969 -9.47656v-449.25
q0 -5.54395 -3.92871 -9.45996q-3.92773 -3.91504 -9.47949 -3.91504q-5.5459 0 -9.45996 3.91406q-3.91504 3.91406 -3.91504 9.46094v449.25q0 5.5498 3.91797 9.47852q3.91406 3.92773 9.45703 3.92773z" />
    <glyph glyph-name="imacron" unicode="&#x12b;" horiz-adv-x="124" 
d="M66.9785 475.612q5.54883 0 9.47852 -3.92969t3.92969 -9.47656v-449.25q0 -5.54395 -3.92871 -9.45996q-3.92773 -3.91504 -9.47949 -3.91504q-5.5459 0 -9.45996 3.91406q-3.91504 3.91406 -3.91504 9.46094v449.25q0 5.5498 3.91797 9.47852
q3.91406 3.92773 9.45703 3.92773z" />
    <glyph glyph-name="ibreve" unicode="&#x12d;" horiz-adv-x="124" 
d="M63.8623 572.972q-47.8535 0 -70.3018 26.0869t-22.4482 79.2539q0 5.54785 3.92969 9.47656q3.92969 3.92969 9.47656 3.92969t9.47559 -3.92871q3.92969 -3.92969 3.93066 -9.47754q0 -39.8193 15.0908 -58.9434q15.0918 -19.124 50.0967 -19.124
q34.6865 0 48.999 18.5195q14.3135 18.5186 14.3135 59.5479q0 5.54785 3.92969 9.47656q3.92969 3.92969 9.47656 3.92969t9.47656 -3.92969q3.92969 -3.92871 3.92969 -9.47656q0 -56.5967 -21.2373 -80.9688q-21.2363 -24.3721 -68.1377 -24.3721zM66.9785 475.612
q5.54883 0 9.47852 -3.92969t3.92969 -9.47656v-449.25q0 -5.54395 -3.92871 -9.45996q-3.92773 -3.91504 -9.47949 -3.91504q-5.5459 0 -9.45996 3.91406q-3.91504 3.91406 -3.91504 9.46094v449.25q0 5.5498 3.91797 9.47852q3.91406 3.92773 9.45703 3.92773z" />
    <glyph glyph-name="iogonek" unicode="&#x12f;" horiz-adv-x="124" 
d="M-14.2734 -60.0332q0 47.8535 26.0879 70.3018q26.0869 22.4482 79.2529 22.4482q5.54785 0 9.47754 -3.92871q3.92871 -3.92969 3.92871 -9.47754t-3.92871 -9.47656t-9.47754 -3.92969q-39.8193 0 -58.9434 -15.0908q-19.124 -15.0918 -19.124 -50.0967
q0 -34.6865 18.5186 -48.999q18.5186 -14.3135 59.5488 -14.3135q5.54785 0 9.47754 -3.92871q3.92871 -3.92969 3.92871 -9.47754t-3.92871 -9.47656q-3.92969 -3.92969 -9.47754 -3.92969q-56.5967 0 -80.9688 21.2373t-24.3721 68.1377zM66.9785 475.612
q5.54883 0 9.47852 -3.92969t3.92969 -9.47656v-449.25q0 -5.54395 -3.92871 -9.45996q-3.92773 -3.91504 -9.47949 -3.91504q-5.5459 0 -9.45996 3.91406q-3.91504 3.91406 -3.91504 9.46094v449.25q0 5.5498 3.91797 9.47852q3.91406 3.92773 9.45703 3.92773z
M79.8506 655.13q0 -5.57617 -3.92676 -9.50293q-3.92676 -3.92578 -9.47363 -3.92578t-9.47363 3.92578q-3.92676 3.92676 -3.92676 9.47363v0.0712891q0 5.54688 3.92676 9.47461q3.92676 3.92578 9.47363 3.92578t9.47363 -3.92578q3.92676 -3.92773 3.92676 -9.5166z" />
    <glyph glyph-name="odieresis" unicode="&#xf6;" horiz-adv-x="402" 
d="M304.023 655.13q0 -5.57715 -3.92578 -9.50293t-9.47461 -3.92578q-5.54785 0 -9.47363 3.92578q-3.92578 3.92676 -3.92578 9.47363v0.0712891q0 5.54785 3.92578 9.47461q3.92578 3.92578 9.47363 3.92578t9.47461 -3.92578q3.92578 -3.92676 3.92578 -9.5166z
M127.926 655.13q0 -5.57715 -3.92578 -9.50293t-9.47461 -3.92578q-5.54785 0 -9.47363 3.92578q-3.92578 3.92676 -3.92578 9.47363v0.0712891q0 5.54785 3.92578 9.47461q3.92578 3.92578 9.47363 3.92578t9.47461 -3.92578q3.92578 -3.92676 3.92578 -9.5166z
M197.92 474.312q91.3418 0 130.249 -53.8311q37.9072 -53.832 37.9072 -182.481q0 -123.241 -39.7109 -181.172q-40.71 -59.3906 -128.445 -59.3906q-154.125 0 -154.125 238.312q0 125.847 38.292 182.204q38.292 56.3594 115.833 56.3594zM196.17 447.031
q-65.3457 0 -94.7041 -48.6582q-29.3584 -48.6592 -29.3584 -162.498q0 -211.156 124.062 -211.156q142.625 0 142.625 211.156q0 116.765 -32.7031 163.961q-32.7041 47.1953 -109.922 47.1953z" />
    <glyph glyph-name="ccedilla" unicode="&#xe7;" horiz-adv-x="340" 
d="M272.273 -60.0332q0 47.8535 -26.0879 70.3018q-26.0869 22.4482 -79.2529 22.4482q-5.54785 0 -9.47754 -3.92871q-3.92871 -3.92969 -3.92871 -9.47754t3.92871 -9.47656t9.47754 -3.92969q39.8193 0 58.9434 -15.0908q19.124 -15.0918 19.124 -50.0967
q0 -34.6865 -18.5186 -48.999q-18.5186 -14.3135 -59.5488 -14.3135q-5.54785 0 -9.47754 -3.92871q-3.92871 -3.92969 -3.92871 -9.47754t3.92871 -9.47656q3.92969 -3.92969 9.47754 -3.92969q56.5967 0 80.9688 21.2373t24.3721 68.1377zM203.585 476.625
q60.0264 0 89.4375 -40.2188q4.59277 -4.02734 4.59277 -10.0625q0 -5.54492 -3.92773 -9.45996q-3.92578 -3.91504 -9.47754 -3.91504q-8.13477 0.886719 -11.6875 6.84375q-26.4805 30.6875 -69.8438 30.6875q-33.7422 0 -59.3701 -19.5156
q-25.6289 -19.5166 -39.8799 -51.9658t-21.4287 -67.7803q-7.17676 -35.3301 -8.16504 -73.4883q0.988281 -38.1582 8.16504 -73.4883q7.17773 -35.3311 21.4287 -67.7803t39.8799 -51.9658q25.6279 -19.5156 59.3701 -19.5156q43.3633 0 69.8438 30.6875
q3.55176 5.95703 11.6875 6.84375q5.55176 0 9.47754 -3.91504q3.92773 -3.91504 3.92773 -9.45996q0 -6.03516 -4.59277 -10.0625q-29.4111 -40.2188 -89.4375 -40.2188q-69.6885 0 -114.954 60.2568t-45.2656 179.557q1.03125 40.1104 5.52051 72.5967t15.5801 64.3096
q11.0908 31.8252 28.3672 53.2451q17.2754 21.4209 45.4639 34.6016q28.1865 13.1836 65.2881 13.1836z" />
    <glyph glyph-name="ntilde" unicode="&#xf1;" horiz-adv-x="386" 
d="M136.187 695.812q40.6045 0 56.2285 -22.6973q15.624 -22.6963 15.085 -65.6152q5.5625 -26.5156 12.8379 -36.8359q7.27637 -10.3203 26.5674 -10.3203q41.3125 0 41.3125 96.0625q0 5.54785 3.92969 9.47656q3.92969 3.92969 9.47656 3.92969t9.47656 -3.92969
t3.92969 -9.47656q0 -123.344 -67.375 -123.344q-71.5391 0 -69.6875 89.9688l-3.375 16.6172q-1.49805 7.33887 -3.87793 12.7695q-2.37988 5.42969 -6.44141 9.01074t-11.0625 5.3418t-17.7432 1.76074q-26.335 0 -35.7607 -25.8379q-9.42676 -25.8389 -9.42676 -71.2246
q-0.000976562 -5.54785 -3.93066 -9.47656q-3.92871 -3.92969 -9.47559 -3.92969q-5.54785 0 -9.47656 3.92969t-3.92969 9.47656q0 56.1475 17.876 90.2461q17.876 34.0977 54.8428 34.0977zM189.843 466.312q85.7734 0 121.466 -45.0039
q35.6914 -45.0049 35.6914 -141.559l-0.782227 -266.281q0 -5.54785 -3.92871 -9.47656q-3.92871 -3.92969 -9.47656 -3.92969q-5.54688 0 -9.47656 3.92969t-3.92969 9.47656l0.311523 266.281q0 84.0059 -31.9756 121.647q-31.9746 37.6416 -98.6494 37.6416
q-50.9844 0 -81.5381 -40.7822q-30.5547 -40.7822 -30.5547 -118.507l-1.09375 -266.281q-0.000976562 -5.54785 -3.92969 -9.47656q-3.92969 -3.92969 -9.47656 -3.92969q-5.54785 0 -9.47754 3.92969q-3.92969 3.92871 -3.92969 9.47656l-1.375 266.281
q0 98.957 36.8086 142.76t105.316 43.8027z" />
    <glyph glyph-name="ograve" unicode="&#xf2;" horiz-adv-x="402" 
d="M77.2285 712.897q8.68652 10.3574 18.8857 1.65137l187.261 -159.845q10.1748 -8.68555 1.625 -18.8691q-8.66895 -10.3301 -18.8408 -1.64746l-187.26 159.847q-10.1982 8.70508 -1.6709 18.8633zM197.92 474.312q91.3418 0 130.249 -53.8311
q37.9072 -53.832 37.9072 -182.481q0 -123.241 -39.7109 -181.172q-40.71 -59.3906 -128.445 -59.3906q-154.125 0 -154.125 238.312q0 125.847 38.292 182.204q38.292 56.3594 115.833 56.3594zM196.17 447.031q-65.3457 0 -94.7041 -48.6582
q-29.3584 -48.6592 -29.3584 -162.498q0 -211.156 124.062 -211.156q142.625 0 142.625 211.156q0 116.765 -32.7031 163.961q-32.7041 47.1953 -109.922 47.1953z" />
    <glyph glyph-name="oacute" unicode="&#xf3;" horiz-adv-x="402" 
d="M299.771 724.897q-8.68652 10.3574 -18.8857 1.65137l-187.261 -159.845q-10.1748 -8.68555 -1.625 -18.8691q8.66895 -10.3301 18.8408 -1.64746l187.26 159.847q10.1982 8.70508 1.6709 18.8633zM197.92 474.312q91.3418 0 130.249 -53.8311
q37.9072 -53.832 37.9072 -182.481q0 -123.241 -39.7109 -181.172q-40.71 -59.3906 -128.445 -59.3906q-154.125 0 -154.125 238.312q0 125.847 38.292 182.204q38.292 56.3594 115.833 56.3594zM196.17 447.031q-65.3457 0 -94.7041 -48.6582
q-29.3584 -48.6592 -29.3584 -162.498q0 -211.156 124.062 -211.156q142.625 0 142.625 211.156q0 116.765 -32.7031 163.961q-32.7041 47.1953 -109.922 47.1953z" />
    <glyph glyph-name="ocircumflex" unicode="&#xf4;" horiz-adv-x="402" 
d="M83.9688 517.281q6.83008 0.183594 10.2197 5.125l88.3115 128.75l88.3125 -128.75q7.59668 -11.0752 18.8125 -2.3125q9.8877 7.72363 2.28125 18.8125l-96.7812 141.094q-1.3418 3.37793 -4.21875 5.625q-3.60059 2.8125 -8.25 2.8125h-0.3125
q-4.67969 0 -8.28125 -2.8125q-2.87402 -2.24512 -4.21875 -5.65625l-96.75 -141.062q-7.60645 -11.0898 2.28125 -18.8125q3.7666 -2.94336 8.59375 -2.8125zM197.92 474.312q91.3418 0 130.249 -53.8311q37.9072 -53.832 37.9072 -182.481q0 -123.241 -39.7109 -181.172
q-40.71 -59.3906 -128.445 -59.3906q-154.125 0 -154.125 238.312q0 125.847 38.292 182.204q38.292 56.3594 115.833 56.3594zM196.17 447.031q-65.3457 0 -94.7041 -48.6582q-29.3584 -48.6592 -29.3584 -162.498q0 -211.156 124.062 -211.156q142.625 0 142.625 211.156
q0 116.765 -32.7031 163.961q-32.7041 47.1953 -109.922 47.1953z" />
    <glyph glyph-name="otilde" unicode="&#xf5;" horiz-adv-x="402" 
d="M146.187 695.812q40.6045 0 56.2285 -22.6973q15.624 -22.6963 15.085 -65.6152q5.5625 -26.5156 12.8379 -36.8359q7.27637 -10.3203 26.5674 -10.3203q41.3125 0 41.3125 96.0625q0 5.54785 3.92969 9.47656q3.92969 3.92969 9.47656 3.92969t9.47656 -3.92969
t3.92969 -9.47656q0 -123.344 -67.375 -123.344q-71.5391 0 -69.6875 89.9688l-3.375 16.6172q-1.49805 7.33887 -3.87793 12.7695q-2.37988 5.42969 -6.44141 9.01074t-11.0625 5.3418t-17.7432 1.76074q-26.335 0 -35.7607 -25.8379q-9.42676 -25.8389 -9.42676 -71.2246
q-0.000976562 -5.54785 -3.93066 -9.47656q-3.92871 -3.92969 -9.47559 -3.92969q-5.54785 0 -9.47656 3.92969t-3.92969 9.47656q0 56.1475 17.876 90.2461q17.876 34.0977 54.8428 34.0977zM197.92 474.312q91.3418 0 130.249 -53.8311q37.9072 -53.832 37.9072 -182.481
q0 -123.241 -39.7109 -181.172q-40.71 -59.3906 -128.445 -59.3906q-154.125 0 -154.125 238.312q0 125.847 38.292 182.204q38.292 56.3594 115.833 56.3594zM196.17 447.031q-65.3457 0 -94.7041 -48.6582q-29.3584 -48.6592 -29.3584 -162.498
q0 -211.156 124.062 -211.156q142.625 0 142.625 211.156q0 116.765 -32.7031 163.961q-32.7041 47.1953 -109.922 47.1953z" />
    <glyph glyph-name="oslash" unicode="&#xf8;" horiz-adv-x="402" 
d="M197.92 474.312q91.3418 0 130.249 -53.8311q37.9072 -53.832 37.9072 -182.481q0 -123.241 -39.7109 -181.172q-40.71 -59.3906 -128.445 -59.3906q-154.125 0 -154.125 238.312q0 125.847 38.292 182.204q38.292 56.3594 115.833 56.3594zM196.17 447.031
q-65.3457 0 -94.7041 -48.6582q-29.3584 -48.6592 -29.3584 -162.498q0 -211.156 124.062 -211.156q142.625 0 142.625 211.156q0 116.765 -32.7031 163.961q-32.7041 47.1953 -109.922 47.1953z" />
    <glyph glyph-name="ugrave" unicode="&#xf9;" horiz-adv-x="396" 
d="M77.2285 712.897q8.68652 10.3574 18.8857 1.65137l187.261 -159.845q10.1748 -8.68555 1.625 -18.8691q-8.66895 -10.3301 -18.8408 -1.64746l-187.26 159.847q-10.1982 8.70508 -1.6709 18.8633zM205.899 2.58496q-85.7734 0 -121.466 45.0039
q-35.6914 45.0049 -35.6914 141.558l0.782227 266.282q0 5.54785 3.92871 9.47656q3.92871 3.92969 9.47656 3.92969q5.54688 0 9.47656 -3.92969t3.92969 -9.47656l-0.311523 -266.282q0 -84.0049 31.9756 -121.646t98.6494 -37.6416q50.9854 0 81.5381 40.7822
q30.5547 40.7822 30.5547 118.506l1.09375 266.282q0.00195312 5.54785 3.93066 9.47559q3.92871 3.92969 9.47559 3.92969q5.54785 0 9.47852 -3.92969q3.92871 -3.92773 3.92871 -9.47559l1.375 -266.282q0 -98.957 -36.8076 -142.759
q-36.8096 -43.8027 -105.317 -43.8027v0z" />
    <glyph glyph-name="uacute" unicode="&#xfa;" horiz-adv-x="396" 
d="M290.771 724.897q-8.68652 10.3574 -18.8857 1.65137l-187.261 -159.845q-10.1748 -8.68555 -1.625 -18.8691q8.66895 -10.3301 18.8408 -1.64746l187.26 159.847q10.1982 8.70508 1.6709 18.8633zM205.899 2.58496q-85.7734 0 -121.466 45.0039
q-35.6914 45.0049 -35.6914 141.558l0.782227 266.282q0 5.54785 3.92871 9.47656q3.92871 3.92969 9.47656 3.92969q5.54688 0 9.47656 -3.92969t3.92969 -9.47656l-0.311523 -266.282q0 -84.0049 31.9756 -121.646t98.6494 -37.6416q50.9854 0 81.5381 40.7822
q30.5547 40.7822 30.5547 118.506l1.09375 266.282q0.00195312 5.54785 3.93066 9.47559q3.92871 3.92969 9.47559 3.92969q5.54785 0 9.47852 -3.92969q3.92871 -3.92773 3.92871 -9.47559l1.375 -266.282q0 -98.957 -36.8076 -142.759
q-36.8096 -43.8027 -105.317 -43.8027v0z" />
    <glyph glyph-name="ucircumflex" unicode="&#xfb;" horiz-adv-x="396" 
d="M83.9688 517.281q6.83008 0.183594 10.2197 5.125l88.3115 128.75l88.3125 -128.75q7.59668 -11.0752 18.8125 -2.3125q9.8877 7.72363 2.28125 18.8125l-96.7812 141.094q-1.3418 3.37793 -4.21875 5.625q-3.60059 2.8125 -8.25 2.8125h-0.3125
q-4.67969 0 -8.28125 -2.8125q-2.87402 -2.24512 -4.21875 -5.65625l-96.75 -141.062q-7.60645 -11.0898 2.28125 -18.8125q3.7666 -2.94336 8.59375 -2.8125zM205.899 2.58496q-85.7734 0 -121.466 45.0039q-35.6914 45.0049 -35.6914 141.558l0.782227 266.282
q0 5.54785 3.92871 9.47656q3.92871 3.92969 9.47656 3.92969q5.54688 0 9.47656 -3.92969t3.92969 -9.47656l-0.311523 -266.282q0 -84.0049 31.9756 -121.646t98.6494 -37.6416q50.9854 0 81.5381 40.7822q30.5547 40.7822 30.5547 118.506l1.09375 266.282
q0.00195312 5.54785 3.93066 9.47559q3.92871 3.92969 9.47559 3.92969q5.54785 0 9.47852 -3.92969q3.92871 -3.92773 3.92871 -9.47559l1.375 -266.282q0 -98.957 -36.8076 -142.759q-36.8096 -43.8027 -105.317 -43.8027v0z" />
    <glyph glyph-name="udieresis" unicode="&#xfc;" horiz-adv-x="396" 
d="M292.023 655.13q0 -5.57715 -3.92578 -9.50293t-9.47461 -3.92578q-5.54785 0 -9.47363 3.92578q-3.92578 3.92676 -3.92578 9.47363v0.0712891q0 5.54785 3.92578 9.47461q3.92578 3.92578 9.47363 3.92578t9.47461 -3.92578q3.92578 -3.92676 3.92578 -9.5166z
M115.926 655.13q0 -5.57715 -3.92578 -9.50293t-9.47461 -3.92578q-5.54785 0 -9.47363 3.92578q-3.92578 3.92676 -3.92578 9.47363v0.0712891q0 5.54785 3.92578 9.47461q3.92578 3.92578 9.47363 3.92578t9.47461 -3.92578q3.92578 -3.92676 3.92578 -9.5166z
M205.899 2.58496q-85.7734 0 -121.466 45.0039q-35.6914 45.0049 -35.6914 141.558l0.782227 266.282q0 5.54785 3.92871 9.47656q3.92871 3.92969 9.47656 3.92969q5.54688 0 9.47656 -3.92969t3.92969 -9.47656l-0.311523 -266.282q0 -84.0049 31.9756 -121.646
t98.6494 -37.6416q50.9854 0 81.5381 40.7822q30.5547 40.7822 30.5547 118.506l1.09375 266.282q0.00195312 5.54785 3.93066 9.47559q3.92871 3.92969 9.47559 3.92969q5.54785 0 9.47852 -3.92969q3.92871 -3.92773 3.92871 -9.47559l1.375 -266.282
q0 -98.957 -36.8076 -142.759q-36.8096 -43.8027 -105.317 -43.8027v0z" />
    <glyph glyph-name="yacute" unicode="&#xfd;" horiz-adv-x="384" 
d="M292.771 724.897q-8.68652 10.3574 -18.8857 1.65137l-187.261 -159.845q-10.1748 -8.68555 -1.625 -18.8691q8.66895 -10.3301 18.8408 -1.64746l187.26 159.847q10.1982 8.70508 1.6709 18.8633zM63.0938 477.53q5.54688 0 9.47559 -3.92871
q3.92871 -3.92969 3.92969 -9.47754l1.09473 -278.281q0 -77.4551 31.4277 -118.368t82.667 -40.9131q36.0977 0 58.123 4.3125q22.0283 4.3125 40.3799 17.5146t26.2363 39.3477q7.88281 26.1455 7.88281 68.1074l-0.310547 308.28q0 5.54883 3.92969 9.47754
t9.47559 3.92871q5.5498 0 9.47754 -3.92773q3.92773 -3.92871 3.92773 -9.47852l1.09473 -410.719q0 -75.4531 -5.93848 -119.34q-5.94141 -43.8867 -23.6436 -72.5811q-17.7002 -28.6934 -46.5244 -38.668q-28.8223 -9.97363 -78.0186 -9.97363
q-57.3564 0 -98.7861 21.4287q-41.4307 21.4268 -51.4951 49.2285q-2.83301 10.5215 5.02734 17.0527q5.06348 4.03027 11.7764 2.20312t7.45898 -6.82617q13.3906 -24.3223 49.792 -40.0645q36.4014 -15.7412 76.9766 -15.7412q45.9141 0 71.7607 16.5762
q25.8477 16.5752 39.1367 60.6328q13.291 44.0576 13.291 124.229q-16.8477 -25.377 -47.123 -33.8291q-30.2764 -8.45215 -83.1572 -8.45215q-144.127 0 -144.127 186.563l1.37598 278.281q-0.000976562 5.54785 3.92871 9.47754q3.92969 3.92871 9.47754 3.92773z" />
    <glyph glyph-name="ydieresis" unicode="&#xff;" horiz-adv-x="384" 
d="M290.023 655.13q0 -5.57715 -3.92578 -9.50293t-9.47461 -3.92578q-5.54785 0 -9.47363 3.92578q-3.92578 3.92676 -3.92578 9.47363v0.0712891q0 5.54785 3.92578 9.47461q3.92578 3.92578 9.47363 3.92578t9.47461 -3.92578q3.92578 -3.92676 3.92578 -9.5166z
M113.926 655.13q0 -5.57715 -3.92578 -9.50293t-9.47461 -3.92578q-5.54785 0 -9.47363 3.92578q-3.92578 3.92676 -3.92578 9.47363v0.0712891q0 5.54785 3.92578 9.47461q3.92578 3.92578 9.47363 3.92578t9.47461 -3.92578q3.92578 -3.92676 3.92578 -9.5166z
M63.0938 477.53q5.54688 0 9.47559 -3.92871q3.92871 -3.92969 3.92969 -9.47754l1.09473 -278.281q0 -77.4551 31.4277 -118.368t82.667 -40.9131q36.0977 0 58.123 4.3125q22.0283 4.3125 40.3799 17.5146t26.2363 39.3477q7.88281 26.1455 7.88281 68.1074
l-0.310547 308.28q0 5.54883 3.92969 9.47754t9.47559 3.92871q5.5498 0 9.47754 -3.92773q3.92773 -3.92871 3.92773 -9.47852l1.09473 -410.719q0 -75.4531 -5.93848 -119.34q-5.94141 -43.8867 -23.6436 -72.5811q-17.7002 -28.6934 -46.5244 -38.668
q-28.8223 -9.97363 -78.0186 -9.97363q-57.3564 0 -98.7861 21.4287q-41.4307 21.4268 -51.4951 49.2285q-2.83301 10.5215 5.02734 17.0527q5.06348 4.03027 11.7764 2.20312t7.45898 -6.82617q13.3906 -24.3223 49.792 -40.0645q36.4014 -15.7412 76.9766 -15.7412
q45.9141 0 71.7607 16.5762q25.8477 16.5752 39.1367 60.6328q13.291 44.0576 13.291 124.229q-16.8477 -25.377 -47.123 -33.8291q-30.2764 -8.45215 -83.1572 -8.45215q-144.127 0 -144.127 186.563l1.37598 278.281q-0.000976562 5.54785 3.92871 9.47754
q3.92969 3.92871 9.47754 3.92773z" />
    <glyph glyph-name="cacute" unicode="&#x107;" horiz-adv-x="340" 
d="M292.771 724.897q-8.68652 10.3574 -18.8857 1.65137l-187.261 -159.845q-10.1748 -8.68555 -1.625 -18.8691q8.66895 -10.3301 18.8408 -1.64746l187.26 159.847q10.1982 8.70508 1.6709 18.8633zM203.585 476.625q60.0264 0 89.4375 -40.2188
q4.59277 -4.02734 4.59277 -10.0625q0 -5.54492 -3.92773 -9.45996q-3.92578 -3.91504 -9.47754 -3.91504q-8.13477 0.886719 -11.6875 6.84375q-26.4805 30.6875 -69.8438 30.6875q-33.7422 0 -59.3701 -19.5156q-25.6289 -19.5166 -39.8799 -51.9658t-21.4287 -67.7803
q-7.17676 -35.3301 -8.16504 -73.4883q0.988281 -38.1582 8.16504 -73.4883q7.17773 -35.3311 21.4287 -67.7803t39.8799 -51.9658q25.6279 -19.5156 59.3701 -19.5156q43.3633 0 69.8438 30.6875q3.55176 5.95703 11.6875 6.84375q5.55176 0 9.47754 -3.91504
q3.92773 -3.91504 3.92773 -9.45996q0 -6.03516 -4.59277 -10.0625q-29.4111 -40.2188 -89.4375 -40.2188q-69.6885 0 -114.954 60.2568t-45.2656 179.557q1.03125 40.1104 5.52051 72.5967t15.5801 64.3096q11.0908 31.8252 28.3672 53.2451
q17.2754 21.4209 45.4639 34.6016q28.1865 13.1836 65.2881 13.1836z" />
    <glyph glyph-name="ccircumflex" unicode="&#x109;" horiz-adv-x="340" 
d="M83.9688 517.281q6.83008 0.183594 10.2197 5.125l88.3115 128.75l88.3125 -128.75q7.59668 -11.0752 18.8125 -2.3125q9.8877 7.72363 2.28125 18.8125l-96.7812 141.094q-1.3418 3.37793 -4.21875 5.625q-3.60059 2.8125 -8.25 2.8125h-0.3125
q-4.67969 0 -8.28125 -2.8125q-2.87402 -2.24512 -4.21875 -5.65625l-96.75 -141.062q-7.60645 -11.0898 2.28125 -18.8125q3.7666 -2.94336 8.59375 -2.8125zM203.585 476.625q60.0264 0 89.4375 -40.2188q4.59277 -4.02734 4.59277 -10.0625q0 -5.54492 -3.92773 -9.45996
q-3.92578 -3.91504 -9.47754 -3.91504q-8.13477 0.886719 -11.6875 6.84375q-26.4805 30.6875 -69.8438 30.6875q-33.7422 0 -59.3701 -19.5156q-25.6289 -19.5166 -39.8799 -51.9658t-21.4287 -67.7803q-7.17676 -35.3301 -8.16504 -73.4883
q0.988281 -38.1582 8.16504 -73.4883q7.17773 -35.3311 21.4287 -67.7803t39.8799 -51.9658q25.6279 -19.5156 59.3701 -19.5156q43.3633 0 69.8438 30.6875q3.55176 5.95703 11.6875 6.84375q5.55176 0 9.47754 -3.91504q3.92773 -3.91504 3.92773 -9.45996
q0 -6.03516 -4.59277 -10.0625q-29.4111 -40.2188 -89.4375 -40.2188q-69.6885 0 -114.954 60.2568t-45.2656 179.557q1.03125 40.1104 5.52051 72.5967t15.5801 64.3096q11.0908 31.8252 28.3672 53.2451q17.2754 21.4209 45.4639 34.6016q28.1865 13.1836 65.2881 13.1836
z" />
    <glyph glyph-name="cdotaccent" unicode="&#x10b;" horiz-adv-x="340" 
d="M211.926 655.13q0 -5.57715 -3.92578 -9.50293t-9.47461 -3.92578q-5.54785 0 -9.47363 3.92578q-3.92578 3.92676 -3.92578 9.47363v0.0712891q0 5.54785 3.92578 9.47461q3.92578 3.92578 9.47363 3.92578t9.47461 -3.92578q3.92578 -3.92676 3.92578 -9.5166z
M203.585 476.625q60.0264 0 89.4375 -40.2188q4.59277 -4.02734 4.59277 -10.0625q0 -5.54492 -3.92773 -9.45996q-3.92578 -3.91504 -9.47754 -3.91504q-8.13477 0.886719 -11.6875 6.84375q-26.4805 30.6875 -69.8438 30.6875q-33.7422 0 -59.3701 -19.5156
q-25.6289 -19.5166 -39.8799 -51.9658t-21.4287 -67.7803q-7.17676 -35.3301 -8.16504 -73.4883q0.988281 -38.1582 8.16504 -73.4883q7.17773 -35.3311 21.4287 -67.7803t39.8799 -51.9658q25.6279 -19.5156 59.3701 -19.5156q43.3633 0 69.8438 30.6875
q3.55176 5.95703 11.6875 6.84375q5.55176 0 9.47754 -3.91504q3.92773 -3.91504 3.92773 -9.45996q0 -6.03516 -4.59277 -10.0625q-29.4111 -40.2188 -89.4375 -40.2188q-69.6885 0 -114.954 60.2568t-45.2656 179.557q1.03125 40.1104 5.52051 72.5967t15.5801 64.3096
q11.0908 31.8252 28.3672 53.2451q17.2754 21.4209 45.4639 34.6016q28.1865 13.1836 65.2881 13.1836z" />
    <glyph glyph-name="ccaron" unicode="&#x10d;" horiz-adv-x="340" 
d="M76.9688 680.719q6.83008 -0.183594 10.2197 -5.125l88.3115 -128.75l88.3125 128.75q7.59668 11.0752 18.8125 2.3125q9.8877 -7.72363 2.28125 -18.8125l-96.7812 -141.094q-1.3418 -3.37793 -4.21875 -5.625q-3.60059 -2.8125 -8.25 -2.8125h-0.3125
q-4.67969 0 -8.28125 2.8125q-2.87402 2.24512 -4.21875 5.65625l-96.75 141.062q-7.60645 11.0898 2.28125 18.8125q3.7666 2.94336 8.59375 2.8125zM203.585 476.625q60.0264 0 89.4375 -40.2188q4.59277 -4.02734 4.59277 -10.0625q0 -5.54492 -3.92773 -9.45996
q-3.92578 -3.91504 -9.47754 -3.91504q-8.13477 0.886719 -11.6875 6.84375q-26.4805 30.6875 -69.8438 30.6875q-33.7422 0 -59.3701 -19.5156q-25.6289 -19.5166 -39.8799 -51.9658t-21.4287 -67.7803q-7.17676 -35.3301 -8.16504 -73.4883
q0.988281 -38.1582 8.16504 -73.4883q7.17773 -35.3311 21.4287 -67.7803t39.8799 -51.9658q25.6279 -19.5156 59.3701 -19.5156q43.3633 0 69.8438 30.6875q3.55176 5.95703 11.6875 6.84375q5.55176 0 9.47754 -3.91504q3.92773 -3.91504 3.92773 -9.45996
q0 -6.03516 -4.59277 -10.0625q-29.4111 -40.2188 -89.4375 -40.2188q-69.6885 0 -114.954 60.2568t-45.2656 179.557q1.03125 40.1104 5.52051 72.5967t15.5801 64.3096q11.0908 31.8252 28.3672 53.2451q17.2754 21.4209 45.4639 34.6016q28.1865 13.1836 65.2881 13.1836
z" />
    <glyph glyph-name="uni02C5" unicode="&#x2c5;" horiz-adv-x="1000" 
 />
    </font>
</defs>
</svg>
