<?xml version="1.0" standalone="no"?>
<!DOCTYPE svg PUBLIC "-//W3C//DTD SVG 1.1//EN" "http://www.w3.org/Graphics/SVG/1.1/DTD/svg11.dtd" >
<svg>
<metadata>
Created by FontForge 20061220 at Wed Jun  6 17:50:00 2007
 By guest,,,
Copyright (c) 2005 Canonical Ltd.
made by Andrew Fitzsimon ( andrew@fitzsimon.com.au ) 
released under the LGPL ( http://www.gnu.org/copyleft/lesser.html )
book version from Paulo Silva - june'07
</metadata>
<defs>
<font id="UbuntuTitleBook" horiz-adv-x="418" >
  <font-face 
    font-family="UbuntuTitleBook"
    font-weight="400"
    font-stretch="normal"
    units-per-em="1000"
    panose-1="2 0 5 3 0 0 0 0 0 0"
    ascent="800"
    descent="-200"
    x-height="463.812"
    cap-height="668.688"
    bbox="-63.0996 -187.542 779.342 799.802"
    underline-thickness="50"
    underline-position="-100"
    unicode-range="U+000D-U+02DD"
  />
<missing-glyph horiz-adv-x="306" 
 />
    <glyph glyph-name=".notdef" horiz-adv-x="306" 
 />
    <glyph glyph-name="glyph1" horiz-adv-x="0" 
 />
    <glyph glyph-name="nonmarkingreturn" unicode="&#xd;" horiz-adv-x="306" 
 />
    <glyph glyph-name="space" unicode=" " horiz-adv-x="306" 
 />
    <glyph glyph-name="exclam" unicode="!" horiz-adv-x="352" 
d="M176.629 668.828q15.525 0 26.513 -10.987q10.987 -10.987 10.987 -26.513v-402.094q0 -15.524 -10.987 -26.512q-10.988 -10.988 -26.513 -10.988q-15.525 0 -26.513 10.988q-10.987 10.988 -10.987 26.512v402.094q0 15.526 10.987 26.513q10.988 10.987 26.513 10.987
zM214.133 37.1797q0 -15.5254 -10.987 -26.5127q-10.989 -10.9873 -26.513 -10.9873q-15.526 0 -26.513 10.9873q-10.987 10.9873 -10.987 26.5127q0 15.5254 10.987 26.5127t26.513 10.9873q15.524 0 26.513 -10.9873q10.987 -10.9873 10.987 -26.5127z" />
    <glyph glyph-name="quotedbl" unicode="&#x22;" horiz-adv-x="430" 
d="M86.1348 620.198q15.5252 0 26.5122 -10.987q10.988 -10.987 10.988 -26.513v-135.696q0 -15.525 -10.988 -26.513q-10.987 -10.987 -26.5122 -10.987q-15.5254 0 -26.5127 10.987q-10.9873 10.988 -10.9873 26.513v135.696q0 15.526 10.9873 26.513
q10.9873 10.987 26.5127 10.987zM291.993 620.198q15.526 0 26.513 -10.987t10.987 -26.513v-135.696q0 -15.525 -10.987 -26.513q-10.987 -10.987 -26.513 -10.987q-15.525 0 -26.513 10.987q-10.987 10.988 -10.987 26.513v135.696q0 15.526 10.987 26.513
q10.988 10.987 26.513 10.987z" />
    <glyph glyph-name="numbersign" unicode="#" horiz-adv-x="760" 
d="M199.344 711.096q15.525 0 26.512 -10.988q10.989 -10.987 10.988 -26.512v-142.344h219.875v142.344q0 15.525 10.987 26.512q10.988 10.988 26.513 10.988t26.512 -10.988q10.988 -10.987 10.988 -26.512v-142.344h102.343q15.526 0 26.513 -10.987
q10.987 -10.988 10.987 -26.513q0 -15.525 -10.987 -26.513q-10.987 -10.987 -26.513 -10.987h-102.343v-217.344h102.343q15.526 0 26.513 -10.987t10.987 -26.513q0 -15.525 -10.987 -26.512q-10.987 -10.988 -26.513 -10.988h-102.343v-126.344
q0 -15.5254 -10.988 -26.5127q-10.987 -10.9873 -26.512 -10.9873t-26.513 10.9873q-10.987 10.9873 -10.987 26.5127v126.344h-219.875v-126.344q0 -15.5254 -10.988 -26.5127q-10.987 -10.9873 -26.512 -10.9873q-15.525 0 -26.512 10.9873
q-10.987 10.9873 -10.988 26.5127v126.344h-106.344q-15.5244 0 -26.5127 10.988q-10.9873 10.987 -10.9873 26.512q0 15.526 10.9873 26.513q10.9883 10.987 26.5127 10.987h106.344v217.344h-106.344q-15.5244 0 -26.5127 10.987q-10.9873 10.988 -10.9873 26.513
q0 15.525 10.9873 26.513q10.9883 10.987 26.5127 10.987h106.344v142.344q0 15.525 10.987 26.512q10.988 10.988 26.513 10.988zM236.844 456.252v-217.344h219.875v217.344h-219.875z" />
    <glyph glyph-name="dollar" unicode="$" horiz-adv-x="567" 
d="M288.566 696.219q15.526 0 26.513 -10.988q10.987 -10.987 10.987 -26.512v-64.344h132.344q15.526 0 26.513 -10.987q10.987 -10.988 10.987 -26.513t-10.987 -26.513q-10.987 -10.987 -26.513 -10.987h-132.344v-135.5l59.563 0.75q56.801 0.714996 97.847 -42.89
q40.372 -42.888 40.372 -98.61q0 -52.441 -40.788 -98.971q-39.318 -44.8522 -97.431 -46.529l-59.563 -1.7188v-60.3437q0 -15.5254 -10.987 -26.5127t-26.513 -10.9873q-15.524 0 -26.512 10.9873q-10.988 10.9873 -10.988 26.5127v60.3437h-146.343
q-15.5257 0 -26.513 10.9878q-10.9873 10.987 -10.9873 26.512q0 15.526 10.9873 26.513q10.9873 10.987 26.513 10.987h146.343v137.969l-55.062 0.968994q-58.826 1.035 -99.0167 42.089q-41.2021 42.089 -41.2021 97.411q0 52.218 41.7148 98.859
q42.143 47.12 98.504 46.641l55.062 -0.468994v64.344q0 15.525 10.988 26.512q10.988 10.988 26.512 10.988zM251.066 519.375l-55.062 0.468994q-22.186 0.187988 -44.022 -24.065q-21.666 -24.065 -21.666 -43.591q0 -24.361 21.31 -45.853q20.9 -21.078 44.378 -21.491
l55.062 -0.968994v135.5zM385.629 309.625l-59.563 -0.75v-137.969l59.563 1.71899q22.815 0.658005 42.967 23.974q20.72 23.974 20.72 43.682q0 24.676 -20.463 47.01q-20.724 22.617 -43.224 22.334z" />
    <glyph glyph-name="quotesingle" unicode="'" horiz-adv-x="352" 
d="M172.238 628.198q15.526 0 26.513 -10.987t10.987 -26.513v-135.696q0 -15.524 -10.987 -26.513q-10.987 -10.987 -26.513 -10.987q-15.525 0 -26.512 10.987q-10.988 10.989 -10.988 26.513v135.696q0 15.526 10.988 26.513q10.987 10.987 26.512 10.987z" />
    <glyph glyph-name="parenleft" unicode="(" horiz-adv-x="348" 
d="M182.719 700.094q15.525 0 26.512 -10.988q10.988 -10.987 10.988 -26.512q0 -19.337 -15.875 -30.594q-81.719 -94.834 -81.719 -282.25q3.339 -86.632 21.361 -153.141q18.023 -66.507 60.483 -126.171q15.75 -11.2646 15.75 -30.5q0 -15.5254 -10.988 -26.5127
q-10.987 -10.9873 -26.512 -10.9873q-22.69 1.82715 -34.719 17.3125q-56.1826 70.6924 -78.0918 149.647q-21.9082 78.956 -21.9082 180.353q0 106.282 20.3223 188.041q20.3232 81.759 79.6777 141.959q14.916 20.228 34.719 20.344z" />
    <glyph glyph-name="parenright" unicode=")" horiz-adv-x="348" 
d="M119.125 700.094q19.803 -0.115967 34.719 -20.344q59.354 -60.2 79.677 -141.959q20.323 -81.759 20.323 -188.041q0 -101.397 -21.908 -180.353q-21.91 -78.9546 -78.092 -149.647q-12.03 -15.4854 -34.719 -17.3125q-15.525 0 -26.5127 10.9873
q-10.9873 10.9873 -10.9873 26.5127q0 19.2354 15.75 30.5q42.46 59.6645 60.482 126.171q18.023 66.509 21.362 153.141q0 187.416 -81.719 282.25q-15.875 11.257 -15.875 30.594q0 15.525 10.9873 26.512q10.9877 10.988 26.5127 10.988z" />
    <glyph glyph-name="asterisk" unicode="*" horiz-adv-x="498" 
d="M169.531 795.812q22.312 0.575989 33.469 -18.75l61.969 -107.312l61.938 107.312q7.76398 13.449 22.768 17.479q15.004 4.03101 28.45 -3.729q13.443 -7.76099 17.464 -22.783q4.01901 -15.022 -3.745 -28.467l-61.937 -107.281h123.905q15.526 0 26.513 -10.987
q10.988 -10.987 10.987 -26.513q0 -15.525 -10.987 -26.512q-10.987 -10.988 -26.513 -10.988h-123.937l61.969 -107.312q7.763 -13.445 3.745 -28.451q-4.01999 -15.006 -17.464 -22.768q-13.444 -7.763 -28.45 -3.74399q-15.006 4.01797 -22.768 17.463l-61.938 107.312
l-61.969 -107.312q-7.76199 -13.445 -22.768 -17.463q-15.006 -4.01901 -28.451 3.74399q-13.444 7.76199 -17.463 22.768q-4.01799 15.006 3.744 28.451l61.969 107.312h-123.906q-15.5254 0 -26.5127 10.988q-10.9873 10.987 -10.9873 26.512q0 15.526 10.9873 26.513
t26.5127 10.987h123.875l-61.938 107.281q-7.763 13.445 -3.744 28.467q4.02 15.022 17.463 22.783q8.23599 4.75397 17.75 5z" />
    <glyph glyph-name="plus" unicode="+" horiz-adv-x="560" 
d="M317.5 639.75q15.525 0 26.513 -10.987q10.987 -10.988 10.987 -26.513v-176.344h176.344q15.525 0 26.512 -10.987q10.988 -10.987 10.988 -26.513q0 -15.525 -10.988 -26.512q-10.987 -10.988 -26.512 -10.988h-176.344v-176.344q0 -15.525 -10.987 -26.512
q-10.988 -10.988 -26.513 -10.988t-26.513 10.988q-10.987 10.987 -10.987 26.512v176.344h-176.344q-15.5251 0 -26.5124 10.988q-10.9874 10.987 -10.9874 26.512q0 15.526 10.9874 26.513q10.9873 10.987 26.5124 10.987h176.344v176.344q0 15.525 10.987 26.513
q10.988 10.987 26.513 10.987z" />
    <glyph glyph-name="comma" unicode="," horiz-adv-x="198" 
d="M79.5 210.47q15.5244 0 26.512 -10.988q10.988 -10.987 10.988 -26.512v-135.697q0 -15.5244 -10.988 -26.5117q-10.9876 -10.9883 -26.512 -10.9883q-15.5254 0 -26.5127 10.9873q-10.9873 10.9883 -10.9873 26.5127v135.697q0 15.525 10.9873 26.512
q10.9873 10.988 26.5127 10.988z" />
    <glyph glyph-name="hyphen" unicode="-" horiz-adv-x="324" 
d="M28.1152 238.417q0 15.525 10.9883 26.513q10.9873 10.987 26.5117 10.987h197.697q15.525 0 26.512 -10.987q10.988 -10.988 10.988 -26.513q0 -15.525 -10.988 -26.513q-10.987 -10.987 -26.512 -10.987h-197.697q-15.5244 0 -26.5117 10.987
q-10.9883 10.988 -10.9883 26.513z" />
    <glyph glyph-name="period" unicode="." horiz-adv-x="164" 
d="M108.688 37.5625q0 -15.5254 -10.9878 -26.5127q-10.9873 -10.9873 -26.5127 -10.9873q-15.5244 0 -26.5117 10.9873q-10.9883 10.9873 -10.9883 26.5127q0 15.5254 10.9883 26.5127q10.9873 10.9873 26.5117 10.9873q15.5254 0 26.5127 -10.9873
q10.9878 -10.9873 10.9878 -26.5127z" />
    <glyph glyph-name="slash" unicode="/" horiz-adv-x="622" 
d="M82.3809 9.2002q-12.3995 9.3437 -14.5616 24.7314q-2.16209 15.3868 7.1807 27.7862l429.773 622.794q9.34302 12.399 24.731 14.561t27.7859 -7.17999q12.399 -9.34399 14.562 -24.731q2.16302 -15.388 -7.18097 -27.786l-429.774 -622.795
q-9.343 -12.3985 -24.731 -14.5616q-15.3867 -2.16211 -27.7851 7.18067z" />
    <glyph glyph-name="zero" unicode="0" horiz-adv-x="596" 
d="M295.968 697.345q64.656 0 113.803 -27.318q49.145 -27.317 78.494 -75.907q29.347 -48.59 43.854 -110.484q14.506 -61.894 14.506 -135.823q0 -76.696 -14.567 -138.888q-14.568 -62.194 -44.224 -109.509q-29.657 -47.3154 -78.63 -73.2246
q-48.972 -25.9092 -113.954 -25.9092q-124.593 0 -185.922 91.6494q-61.328 91.6494 -61.328 255.881q0 175.894 63.326 262.713q63.325 86.819 184.642 86.819zM297.125 622.813q-174.5 0 -174.5 -275q0 -130.61 46.887 -201.882q46.886 -71.2738 125.956 -71.2738
q83.378 0 129.955 68.1708q46.577 68.17 46.577 204.985q0 275 -174.875 275z" />
    <glyph glyph-name="one" unicode="1" horiz-adv-x="210" 
d="M125.688 698.063q16.315 -0.73999 27.077 -12.046q10.762 -11.308 11.735 -27.6411v-617.499q-0.445999 -16.3272 -11.383 -27.1016q-10.936 -10.7735 -27.429 -12.586q-16.595 0 -25.8921 9.85155q-9.2959 9.8516 -9.2959 27.6485l-1 584.373h-49.5
q-15.5244 0 -26.5127 10.988q-10.9873 10.988 -10.9873 26.512q0 15.526 10.9873 26.513q10.9883 10.987 26.5127 10.987h85.688z" />
    <glyph glyph-name="two" unicode="2" horiz-adv-x="530" 
d="M258.156 701.466q229.188 0 229.188 -213.531q0 -55.567 -9.72998 -93.684q-9.729 -38.117 -34.86 -68.65q-25.132 -30.535 -72.335 -45.178q-47.205 -14.645 -118.45 -14.645q-51.212 0 -90.107 -30.785q-38.893 -30.784 -38.893 -63.715l-0.438004 -91.3747l327.191 -1
q17.796 0 27.648 -9.2969q9.85199 -9.2959 9.85199 -25.8906q-1.81299 -16.4931 -12.587 -27.4297q-10.775 -10.9355 -27.101 -11.3828h-360.315q-16.3331 0.97266 -27.6397 11.7354q-11.3066 10.7627 -12.0479 27.0771q0 86.4132 0.9063 129.687q0 64.57 60.5385 115.785
q60.537 51.215 142.993 51.215q93.119 0 126.684 29.36q33.566 29.359 33.566 115.265q0 82.438 -31.761 112.172q-31.76 29.735 -123.458 29.735q-34.249 0 -51.497 -0.419006q-17.248 -0.417969 -35.555 -3.03101q-18.307 -2.612 -25.254 -6.73297
q-6.94701 -4.12299 -13.523 -13.155q-6.576 -9.034 -7.90401 -20.56q-1.32899 -11.525 -1.32899 -30.571q-3.646 -11.528 -13.488 -18.858q-9.8416 -7.32996 -22.2625 -7.32996q-15.5264 0 -26.5127 10.988q-10.9883 10.987 -10.9873 26.512q0 35.522 7.9814 58.863
q7.9805 23.34 29.9278 42.322q21.9463 18.98 64.1323 27.742q42.186 8.76099 107.427 8.76099z" />
    <glyph glyph-name="three" unicode="3" horiz-adv-x="530" 
d="M258.699 696.75q113.102 0 171.301 -58.172t58.199 -159.203q0 -56.505 -8.02899 -84.202q-8.02802 -27.698 -38.346 -48.267q10.414 -6.39999 17.886 -12.938q7.47302 -6.53699 12.533 -13.649q5.06097 -7.112 8.12698 -15.111q3.06702 -8 4.67001 -17.324
q1.60498 -9.32501 2.16199 -20.288q0.557007 -10.963 0.60199 -24.003q0.0440063 -13.039 -0.0109863 -28.468q0 -98.304 -58.487 -156.777q-58.489 -58.4727 -165.044 -58.4727q-104.809 0 -162.67 29.9512q-57.8615 29.9511 -57.8615 87.6428q0 30.242 22.8593 43.301
q22.8594 13.059 45.7192 0.664993q22.859 -12.394 22.859 -43.966q0 -42.969 129.094 -42.969q67.712 0 108.434 40.986q40.722 40.987 40.722 99.858q0 23.576 -0.792999 35.236q-0.794006 11.66 -6.33499 24.045q-5.54102 12.386 -13.832 16.875
q-8.29202 4.48901 -27.402 8.798q-19.112 4.30701 -42.655 5.06699q-23.543 0.76001 -63.702 0.76001q-20.845 0.0830078 -30.688 7.854q-9.84399 7.76999 -9.84399 31.545q0 19.195 11.425 28.085q11.425 8.89099 26.67 8.89099q28.52 0 44.582 0.468994
q16.061 0.468018 35.576 2.349q19.515 1.883 29.54 5.86401q10.024 3.97998 20.971 10.785q10.945 6.80499 15.739 17.353q4.79398 10.549 7.974 25.333q3.17999 14.784 3.17999 34.941q0 64.499 -39.253 103.515q-39.254 39.016 -115.872 39.016
q-100.142 0 -134.75 -51.781q0 -26.165 -20.492 -39.921q-20.4922 -13.757 -40.9843 -3.27197q-20.4922 10.485 -20.4922 43.193q0 44.62 32.2646 74.063q32.2649 29.445 78.8669 40.894q46.602 11.449 105.587 11.449z" />
    <glyph glyph-name="four" unicode="4" horiz-adv-x="568" 
d="M400.281 703.375q10.466 0.234009 19.531 -5q22.791 -13.158 18.157 -39.094v-416.562h62.937q15.526 0 26.513 -10.988q10.987 -10.987 10.987 -26.512q0 -15.526 -10.987 -26.513t-26.513 -10.987h-62.937v-126.25q0 -15.5254 -10.988 -26.5127
q-10.987 -10.9874 -26.512 -10.9874t-26.513 10.9874q-10.987 10.9873 -10.987 26.5127v126.25h-247.938q-58.9773 0 -75.7351 32.926q-16.7578 32.925 10.7666 79.574l317.188 402.719q5.43701 10.363 15.781 15.812l1.18799 0.625q7.59302 3.81097 16.062 4z
M362.969 557.562l-247.969 -314.843h247.969v314.843z" />
    <glyph glyph-name="five" unicode="5" horiz-adv-x="536" 
d="M89.8125 696.965h362.438q15.524 0 26.513 -10.987q10.987 -10.989 10.987 -26.513q0 -15.526 -10.987 -26.513q-10.988 -10.987 -26.513 -10.987h-326.25v-188.807l125.5 0.781006q237.531 0 237.531 -201q0 -116.918 -52.192 -174.927
q-52.193 -58.0097 -173.277 -58.0097q-63.1 0 -105.602 8.65821q-42.502 8.65824 -65.1465 26.1162q-22.6446 17.458 -31.6817 38.9941q-9.038 21.5352 -9.038 51.9185q-0.000999451 15.526 10.9873 26.513q10.9863 10.987 26.5127 10.987q12.4222 0 22.2622 -7.33
q9.842 -7.32999 13.488 -18.857q0 -14.459 0.895996 -20.89q0.898003 -6.429 7.562 -16.363q6.66499 -9.9336 20.498 -14.1299q13.833 -4.1972 40.777 -7.6416q26.945 -3.4443 67.329 -3.4443q81.197 0.027298 116.645 35.4358q35.449 35.408 35.449 120.845
q0 127.625 -137.656 127.625l-187.031 -0.281006q-16.3154 0.740021 -27.0771 12.047q-10.7637 11.308 -11.7354 27.641v259.431q0.971699 16.332 11.7344 27.64q10.7627 11.308 27.0781 12.048z" />
    <glyph glyph-name="six" unicode="6" horiz-adv-x="514" 
d="M258.188 692.748q54.336 0 96.721 -19.992t65.835 -51.634q23.45 -31.643 35.182 -65.464q11.73 -33.821 11.73 -66.597q0.00100708 -15.526 -10.985 -26.513q-10.988 -10.987 -26.515 -10.987q-12.42 0 -22.26 7.32999q-9.84201 7.33002 -13.49 18.857
q0 59.308 -34.307 99.889q-34.309 40.58 -100.754 40.58q-26.578 0 -46.598 -5.96796q-20.019 -5.96899 -34.174 -15.59q-14.154 -9.62097 -23.672 -28.552q-9.519 -18.929 -15.076 -37.805q-5.556 -18.876 -8.403 -50.87q-2.84599 -31.994 -3.634 -60.228
q-0.788002 -28.232 -0.788002 -72.925q19.933 15.977 58.757 25.551q38.824 9.57401 75.431 9.57401q40.764 0 77.507 -11.027q36.743 -11.027 67.042 -32.723q30.299 -21.696 48.203 -58.298q17.905 -36.601 17.905 -83.483q0 -51.366 -17.888 -90.619
q-17.888 -39.252 -48.449 -61.9083q-30.562 -22.6553 -67.15 -33.8301q-36.587 -11.1738 -77.888 -11.1738q-90.153 0 -145.888 56.8379q-55.7353 56.8383 -60.6758 153.818l-1.6865 212.219q0 146.837 52.3883 209.183q52.389 62.348 153.58 62.348zM262.345 306.873
q-63.93 0 -99.215 -18.872q-35.285 -18.871 -35.285 -52.128q0 -69.886 38.093 -116.521q38.092 -46.6352 94.75 -46.6352q136.533 0 136.532 123.156q0 111 -134.875 111z" />
    <glyph glyph-name="seven" unicode="7" horiz-adv-x="556" 
d="M456.637 685.291q58.977 0 75.735 -32.926q16.758 -32.926 -10.767 -79.574l-415.968 -561.313q-7.763 -13.4443 -22.7688 -17.4629q-15.0059 -4.01952 -28.4502 3.74415q-13.4453 7.76171 -17.4639 22.7675q-4.0186 15.0069 3.7451 28.4512l415.969 561.313h-385.906
q-15.5254 0 -26.5127 10.987q-10.9873 10.988 -10.9873 26.513q0 15.525 10.9873 26.513q10.9873 10.987 26.5127 10.987h385.875z" />
    <glyph glyph-name="eight" unicode="8" horiz-adv-x="564" 
d="M50.5 500.105q0 93.421 61.23 145.039q61.23 51.618 166.332 51.618q229.5 0 229.5 -197.375q0 -49.937 -17.885 -90.143q-17.887 -40.207 -50.489 -62.326q73.968 -45.463 73.968 -157.781q0 -94.6175 -59.435 -141.934q-59.436 -47.3164 -170.096 -47.3164
q-104.286 0 -169.909 47.8848q-65.6222 47.8857 -65.6222 142.083q0 48.206 22.5781 88.04q22.5791 39.834 59.1401 64.085q-36.9399 22.049 -58.1265 63.7q-21.1855 41.65 -21.1855 94.425zM125.062 501.262q13.953 -128.692 158.563 -118.75
q137.082 -0.548004 149.563 117.093q0 61.902 -37.987 92.217q-37.985 30.315 -117.139 30.315q-153 0 -153 -120.875zM122.625 191.012q0 -62.974 38.845 -89.737q38.843 -26.7633 122.155 -26.7633q71.601 0 113.379 29.7093q41.777 29.71 41.777 85.134
q-15.263 126.59 -160.719 116.782q-70.935 0.389008 -110.68 -23.981q-39.746 -24.37 -44.757 -91.144z" />
    <glyph glyph-name="nine" unicode="9" horiz-adv-x="496" 
d="M239.175 0.522461q-86.879 0 -130.469 47.8125q-10.0771 10.4697 -13.9785 14.9472q-3.9004 4.4776 -8.4609 13.8164q-4.5605 9.3389 -4.5605 19.1114q-0.000999451 15.525 10.9863 26.513q10.9876 10.987 26.5136 10.987q12.421 0 22.262 -7.33001
q9.841 -7.32999 13.488 -18.858q23.123 -32.4683 83.063 -32.4683q34.509 0 56.146 6.6709q21.636 6.6699 37.202 21.4974q15.566 14.826 23.11 45.516q7.54401 30.691 10.714 71.527q3.17099 40.835 3.17099 106.726q-20.094 -16.105 -57.069 -25.615
q-36.977 -9.51001 -73.118 -9.51001q-100.538 0 -153.598 51.113q-53.0585 51.112 -53.0585 148.418q0 51.521 17.3505 91.895q17.3516 40.373 46.8985 64.606q29.5484 24.234 65.9504 36.632q36.401 12.399 77.176 12.399q103.36 0 152.961 -50.912
q49.601 -50.913 49.601 -159.745l1.68802 -212.218q0 -82.101 -13.41 -136.779q-13.409 -54.6773 -41.281 -84.1275q-27.871 -29.4502 -63.08 -41.0381q-35.21 -11.5869 -86.198 -11.5869zM237.019 366.397q70.282 0 100.391 18.164q30.109 18.163 30.109 74.836
q0 88.339 -28.019 125.748q-28.02 37.409 -100.825 37.409q-24.481 0 -46.005 -5.90399q-21.524 -5.90302 -42.01 -19.574q-20.486 -13.671 -32.502 -40.764q-12.015 -27.095 -12.014 -64.915q0 -68.919 31.364 -96.959q31.365 -28.041 99.511 -28.041z" />
    <glyph glyph-name="colon" unicode=":" horiz-adv-x="248" 
d="M150 403.256q0 -15.525 -10.987 -26.513q-10.988 -10.987 -26.513 -10.987q-15.5254 0 -26.5127 10.987q-10.9873 10.988 -10.9873 26.513q0 15.525 10.9873 26.513q10.9873 10.987 26.5127 10.987q15.525 0 26.513 -10.987q10.987 -10.988 10.987 -26.513zM150 136.697
q0 -15.525 -10.987 -26.512q-10.988 -10.9877 -26.513 -10.9877q-15.5254 0 -26.5127 10.9877q-10.9873 10.987 -10.9873 26.512q0 15.526 10.9873 26.513q10.9873 10.987 26.5127 10.987q15.525 0 26.513 -10.987q10.987 -10.987 10.987 -26.513z" />
    <glyph glyph-name="semicolon" unicode=";" horiz-adv-x="244" 
d="M156.351 443.256q0 -15.525 -10.988 -26.513q-10.987 -10.987 -26.512 -10.987q-15.525 0 -26.5131 10.988q-10.9873 10.987 -10.9873 26.512q0 15.525 10.9873 26.513q10.9881 10.987 26.5131 10.987q15.525 0 26.512 -10.987q10.988 -10.988 10.988 -26.513z
M118.837 212.156q15.524 0 26.513 -10.987q10.987 -10.987 10.987 -26.513v-136q0 -15.5253 -10.987 -26.5126q-10.988 -10.9874 -26.513 -10.9874t-26.5128 10.9874q-10.9873 10.9873 -10.9873 26.5126v136q0 15.526 10.9873 26.513q10.9878 10.987 26.5128 10.987z" />
    <glyph glyph-name="less" unicode="&#x3c;" horiz-adv-x="486" 
d="M25.3984 353.597q-14.8886 17.85 0 45.307l280.034 327.55q7.763 13.448 22.767 17.479q15.004 4.03003 28.451 -3.729q13.444 -7.76196 17.463 -22.784q4.01999 -15.022 -3.74402 -28.466l-268.869 -317.75l268.869 -315.845q7.76401 -13.4453 3.74402 -28.4502
q-4.017 -15.0059 -17.463 -22.7686q-13.445 -7.76269 -28.451 -3.74414q-15.006 4.01856 -22.767 17.4629z" />
    <glyph glyph-name="equal" unicode="=" horiz-adv-x="542" 
d="M59.2871 494.606q0 15.526 10.9883 26.513q10.9863 10.987 26.5117 10.987h317.695q15.526 0 26.514 -10.987q10.986 -10.987 10.986 -26.513q0 -15.524 -10.986 -26.512q-10.988 -10.988 -26.514 -10.988h-317.695q-15.5254 0 -26.5117 10.988
q-10.9883 10.988 -10.9883 26.512zM59.2871 258.217q0 15.524 10.9883 26.512q10.9863 10.988 26.5117 10.988h317.695q15.526 0 26.514 -10.988q10.986 -10.988 10.986 -26.512q0 -15.526 -10.986 -26.513q-10.988 -10.987 -26.514 -10.987h-317.695
q-15.5254 0 -26.5117 10.987q-10.9883 10.987 -10.9883 26.513z" />
    <glyph glyph-name="greater" unicode="&#x3e;" horiz-adv-x="486" 
d="M413.602 353.597l-280.034 -335.738q-7.76099 -13.4444 -22.767 -17.4629q-15.0061 -4.01855 -28.4514 3.74414q-13.4453 7.76268 -17.4629 22.7686q-4.0195 15.0049 3.74419 28.4502l268.869 315.845l-268.869 317.75q-7.7637 13.444 -3.74419 28.466
q4.01949 15.022 17.4629 22.784q13.4473 7.75903 28.4514 3.729q15.004 -4.03101 22.767 -17.479l280.034 -327.55q14.888 -27.457 0 -45.307z" />
    <glyph glyph-name="question" unicode="?" horiz-adv-x="582" 
d="M273.803 716.543q38.318 0 73.349 -9.85101q35.03 -9.85004 65.348 -29.942q30.316 -20.092 48.402 -55.641q18.086 -35.548 18.086 -82.097q0 -158.157 -149.375 -158.157q-38.701 0 -57.754 -8.52002q-19.05 -8.51999 -29.148 -36.234q-10.098 -27.714 -10.098 -83.746
q0 -24.37 -18.633 -33.803q-18.632 -9.43401 -37.265 1.138q-18.631 10.573 -18.631 34.79q0 61.542 10.576 101.57q10.576 40.026 33.672 61.602q23.094 21.576 52.758 29.702q29.666 8.12601 74.523 8.12601q39.496 0 56.873 24.16q17.377 24.16 17.377 56.465
q0 105.907 -131.218 105.907q-83.36 0 -105.211 -12.362q-21.85 -12.36 -21.85 -66.107q-3.646 -11.527 -13.488 -18.8571q-9.842 -7.33099 -22.262 -7.33099q-15.5274 0 -26.5137 10.988q-10.9883 10.987 -10.9863 26.512q0 79.391 42.277 110.54
q42.28 31.148 159.192 31.148zM232.752 44.5635q0 -15.5254 -10.986 -26.5127q-10.989 -10.9873 -26.514 -10.9873q-15.523 0 -26.512 10.9873q-10.988 10.9883 -10.988 26.5127t10.988 26.5117q10.989 10.9883 26.512 10.9883q15.525 0 26.514 -10.9873
q10.986 -10.9873 10.986 -26.5127z" />
    <glyph glyph-name="at" unicode="@" horiz-adv-x="823" 
d="M401.812 643.156q185.674 0 281.602 -101.164t95.928 -296.804q0 -153.215 -45.565 -245.217q-45.564 -92.0019 -120.06 -92.0019q-55.498 0 -88.764 23.2353q-33.265 23.2363 -33.265 57.0771v57.6563q-19.579 -15.4365 -37.868 -19.9053
q-18.289 -4.4697 -51.382 -4.4697q-77.719 0 -122.19 63.2432q-44.469 63.2443 -44.467 168.288q0 116.384 40.303 170.957q40.303 54.574 127.07 54.574q81.723 0 122.487 -57.744q40.763 -57.744 40.763 -167.787l0.283997 -228.813q-0.622009 -15.915 13.462 -28.0976
q14.084 -12.1836 31.162 -12.1836q40.868 0 67.184 72.7246q26.316 72.7254 26.316 187.306q0 150.303 -78.816 237.402q-78.814 87.098 -228.998 87.098q-126.81 0 -191.904 -82.411q-65.094 -82.411 -65.094 -242.089q0 -65.388 13.35 -114.508
q13.349 -49.1177 33.07 -75.2574q19.719 -26.1406 39.514 -43.2832l35.587 -29.8408q15.791 -12.6982 18.383 -23.6728q0 -14.8604 -12.539 -24.1807q-12.541 -9.3193 -28.961 -9.3193q-17.746 0 -39.383 10.9863q-21.636 10.9863 -45.47 36.4072
q-23.834 25.4209 -43.27 61.252q-19.4333 35.83 -32.1228 91.4667q-12.6894 55.636 -12.6894 121.107q0 179.055 88.5682 288.511q88.57 109.457 247.775 109.457zM402.938 404.25q-51.01 0 -71.772 -35.128q-20.762 -35.128 -20.762 -116.028q0 -80.231 22.291 -118.615
q22.291 -38.3852 68.586 -38.3852q37.895 0 55.844 8.8332q17.949 8.833 26.303 35.077q8.35098 26.245 8.353 81.09q0 101.607 -20.187 142.382q-20.188 40.774 -68.656 40.774z" />
    <glyph glyph-name="A" unicode="A" 
d="M339.406 -13.207q-15.5254 0 -26.5117 10.9873q-10.9873 10.9873 -10.9883 26.5127v9.65625q-23.2617 -18.3408 -42.0869 -26.3574q-18.8252 -8.01758 -47.1631 -8.01758q-78.0254 0 -122.342 61.4727q-44.3154 61.4746 -44.3145 166.059q0 116.913 40.4922 173.223
q40.4912 56.3086 126.883 56.3086q81.3975 0 122.323 -59.4893q40.9258 -59.4883 40.9268 -170.042l0.28125 -202.812q-0.000976562 -15.5254 -10.9883 -26.5127q-10.9863 -10.9873 -26.5117 -10.9873zM211.5 74.1055q52.0498 0 71.2744 34.6133
q19.2246 34.6123 19.2256 118.387q0 155.156 -88.8438 155.156q-50.7021 0 -71.6172 -36.8301t-20.9141 -118.326q0 -79.7168 22.1338 -116.358t68.7412 -36.6416z" />
    <glyph glyph-name="B" unicode="B" horiz-adv-x="440" 
d="M86.5547 660.062q15.5244 0 26.5117 -10.9873q10.9863 -10.9873 10.9883 -26.5127v-183.656q43.5977 34.375 99.25 34.375q90.6465 0 133.651 -63.0137t43.0039 -172.518q0 -120.109 -41.0732 -178.82q-41.0742 -58.7109 -136.302 -58.7109q-92.1641 0 -132.706 61.3701
q-40.543 61.3691 -40.5439 176.161l-0.280273 384.812q0.000976562 15.5264 10.9883 26.5127q10.9863 10.9873 26.5117 10.9873zM224.46 398.75q-60.9434 0 -80.7217 -36.6807q-19.7773 -36.6816 -19.7783 -124.319q0 -163.156 98.8447 -163.156q58.7217 0 80.627 39.2402
q21.9043 39.2393 21.9033 123.916q0 83.3203 -22.667 122.16q-22.668 38.8398 -78.208 38.8398z" />
    <glyph glyph-name="C" unicode="C" horiz-adv-x="420" 
d="M205.969 473.188q73.5684 0 109.394 -19.7471q35.8252 -19.7461 35.8252 -51.8779q0 -17.0332 -11.4648 -30.3428q-11.4639 -13.3086 -26.0352 -7.15723q-6.78418 1.81738 -14.6279 7.9834l-15.1934 11.7812q-7.34863 5.61426 -27.251 10.2217t-49.4902 4.60742
q-38.6631 0 -64.582 -46.6367q-25.9189 -46.6377 -25.918 -119.176q0 -73.1953 24.8096 -117.098t65.6904 -43.9023q34.3398 0 53.1963 5.49512q18.8555 5.49414 23.0557 12.418t12.3076 14.8184q8.10645 7.89355 22.0029 11.1748q14.8594 0 24.1787 -12.54
q9.32129 -12.54 9.32129 -28.96q0 -76.9375 -145.219 -76.9375q-67.7773 0 -114.266 67.7012t-49.7031 172.643q0 101.892 47.7607 168.711q47.7607 66.8203 116.208 66.8203z" />
    <glyph glyph-name="D" unicode="D" horiz-adv-x="388" 
d="M355.405 660.062q15.5254 0 26.5117 -10.9873q10.9873 -10.9863 10.9883 -26.5127l-0.280273 -384.812q-0.000976562 -114.792 -40.5439 -176.161q-40.542 -61.3701 -132.706 -61.3701q-95.2275 0 -136.302 58.7109q-41.0732 58.7109 -41.0732 178.82
q-0.000976562 109.504 43.0039 172.518t133.651 63.0137q55.6523 0 99.25 -34.375v183.656q0.00195312 15.5254 10.9883 26.5127q10.9873 10.9873 26.5117 10.9873zM217.5 398.75q-55.54 0 -78.208 -38.8398q-22.667 -38.8398 -22.667 -122.16
q-0.000976562 -84.6768 21.9033 -123.916q21.9053 -39.2402 80.627 -39.2402q98.8447 0 98.8447 163.156q-0.000976562 87.6377 -19.7783 124.319q-19.7783 36.6807 -80.7217 36.6807z" />
    <glyph glyph-name="E" unicode="E" horiz-adv-x="438" 
d="M225.969 479.188q90.2871 0 127.939 -61.502q37.6543 -61.502 37.6543 -176.497q0 -15.5264 -10.9883 -26.5137q-10.9863 -10.9863 -26.5117 -10.9863h-236.281q4.67578 -58.1533 37.6504 -94.999q32.9756 -36.8457 71.6934 -36.8457q34.4014 0 56.3643 5.50195
q21.9629 5.50293 29.8447 12.4033q7.88281 6.90137 19.2686 14.834t25.085 11.167q14.8604 0 24.1797 -12.54q9.31836 -12.54 9.32031 -28.96q0 -39.293 -46.2188 -58.1152t-119 -18.8223q-69.8418 0 -125.338 69.0049q-57.1152 71.0195 -58.6309 171.339
q-1.55762 103.075 50.4609 173.355q50.46 68.1758 133.508 68.1758zM223.125 398.656q-46.6094 0 -70.8887 -30.9736q-24.2783 -30.9736 -32.4863 -88.9951h198.656q-5.85938 119.969 -95.2812 119.969z" />
    <glyph glyph-name="F" unicode="F" horiz-adv-x="358" 
d="M221.25 659.281q99.4678 0 99.4688 -45.6875q0.000976562 -14.8867 -5.65039 -22.1152q-6.96484 -8.91016 -20.5684 -13.9785q-15.2832 -5.69336 -35.1738 1.0625q-18.2188 6.1875 -36.9189 6.1875q-22.1934 0 -32.3477 -17.5547q-10.2363 -17.6826 -10.1523 -63.4453
l0.0927734 -50.625h101.719q15.5254 0 26.5127 -10.9873t10.9873 -26.5127q0 -15.5244 -10.9873 -26.5127q-10.9873 -10.9873 -26.5127 -10.9873h-101.593l0.373047 -207.223q0.251953 -139.84 0.250977 -139.84q0.000976562 -15.5244 -10.9863 -26.5117
q-10.9873 -10.9883 -26.5137 -10.9883q-15.5244 0 -26.5107 10.9873q-10.9736 10.9395 -10.9893 26.5127l-0.342773 347.062h-29.4072q-15.5254 0 -26.5127 10.9873q-10.9863 10.9873 -10.9873 26.5127q0 15.5254 10.9873 26.5127t26.5127 10.9873h29.3438
l-0.0615234 52.625q-0.0957031 81.4434 29.2109 117.542q29.21 35.9893 86.7568 35.9893z" />
    <glyph glyph-name="G" unicode="G" horiz-adv-x="440" 
d="M220.656 -183.908q-80.8799 0 -124.468 47.8125q-10.0811 10.4736 -13.9805 14.9482q-3.89844 4.47559 -8.45898 13.8145q-4.56055 9.33984 -4.56055 19.1123q-0.000976562 15.5254 10.9863 26.5127t26.5137 10.9873q12.4199 0 22.2617 -7.33008
q9.84082 -7.33008 13.4883 -18.8574q23.1211 -32.4688 77.0615 -32.4688q58.248 0 78.5029 33.541q20.2559 33.54 21.8408 112.396q-43.8223 -35.125 -100.188 -35.125q-77.5449 0 -127.101 68.1357t-49.5557 167.396q0 106.672 48.9961 172.102t128.379 65.4297
q86.3896 0 126.869 -54.1367t45.6934 -156.52l1.6875 -212.219q0 -120.696 -40.2627 -178.113q-40.2627 -57.418 -133.706 -57.418zM218.5 75.9668q60.9434 0 80.7217 36.6816q19.7773 36.6816 19.7783 124.318q0 163.156 -98.8438 163.156q-45.6895 0 -74.1104 -42.8672
q-28.4219 -42.8672 -28.4209 -120.289q0 -72.2754 26.8896 -116.638t73.9854 -44.3623z" />
    <glyph glyph-name="H" unicode="H" horiz-adv-x="446" 
d="M89.5 662.062q15.5264 0 26.5137 -10.9873q10.9873 -10.9863 10.9863 -26.5127v-176.688q38.6553 27.4062 100.969 27.4062q90.4395 0 132.547 -62.8057q42.1084 -62.8066 42.1094 -172.726l-1.15625 -202.688q0.000976562 -15.5244 -10.9873 -26.5117
q-10.9883 -10.9883 -26.5127 -10.9883q-15.5234 0 -26.5117 10.9883q-10.9893 10.9883 -10.9883 26.5117l1.53125 202.688q0 83.8574 -21.793 122.429q-21.792 38.5713 -77.082 38.5713q-56.123 0 -78.0879 -31.0791q-21.9639 -31.0791 -24.0371 -100.921l0.46875 -231.688
q0.000976562 -15.5254 -10.9863 -26.5127t-26.5137 -10.9873q-13.4424 0 -23.7422 8.47754q-10.2998 8.47656 -12.9766 21.3662l-0.03125 0.09375l-1.21875 595.062q0.000976562 15.5254 10.9883 26.5127t26.5117 10.9873z" />
    <glyph glyph-name="I" unicode="I" horiz-adv-x="172" 
d="M130.211 631.188q0 -15.5254 -10.9873 -26.5127t-26.5127 -10.9873t-26.5127 10.9873q-10.9873 10.9883 -10.9873 26.5127q0 15.5254 10.9873 26.5127t26.5127 10.9873q15.5244 0 26.5127 -10.9873q10.9873 -10.9873 10.9873 -26.5127zM92.7178 476.062
q15.5254 0 26.5127 -10.9873t10.9873 -26.5127v-401.5q0.000976562 -15.5244 -10.9863 -26.5117q-10.9883 -10.9883 -26.5137 -10.9883q-15.5244 0 -26.5117 10.9883q-10.9883 10.9873 -10.9883 26.5117v401.5q0.000976562 15.5254 10.9883 26.5127t26.5117 10.9873z" />
    <glyph glyph-name="J" unicode="J" horiz-adv-x="238" 
d="M180.717 -31.8545q0 -81.8467 -28.3545 -117.688q-28.3555 -35.8418 -85.6152 -35.8418q-97.4678 0 -97.4678 45.6875q-0.000976562 14.8877 5.64941 22.1143q5.64941 7.22754 20.5674 13.9756q16.8809 5.10449 34.04 -1.07129q17.1582 -6.1748 36.0557 -6.1748
q21.8691 0 31.1846 17.3242q9.31543 17.3262 9.31543 63.6748l-0.422852 236.345q-0.422852 236.344 -0.421875 236.344q-0.000976562 15.5264 10.9863 26.5127q10.9873 10.9873 26.5137 10.9873q15.5244 0 26.5117 -10.9873q10.9863 -10.9863 10.9883 -26.5127
q0 -474.688 0.469727 -474.688zM180.829 631.188q0 -15.5244 -10.9873 -26.5127q-10.9883 -10.9873 -26.5127 -10.9873t-26.5117 10.9883q-10.9883 10.9873 -10.9883 26.5117t10.9883 26.5127q10.9883 10.9873 26.5117 10.9873q15.5244 0 26.5127 -10.9873
q10.9873 -10.9873 10.9873 -26.5127z" />
    <glyph glyph-name="K" unicode="K" horiz-adv-x="404" 
d="M75.1553 670.062q15.5254 0 26.5127 -10.9873t10.9873 -26.5127v-350.281l198.438 205.5q10.7822 11.166 26.3232 11.4297t26.708 -10.5234q11.165 -10.7822 11.4287 -26.3223q0.263672 -15.541 -10.5225 -26.709l-145.25 -150.406l168.188 -224.688
q9.3418 -12.3984 7.18164 -27.7773q-2.16016 -15.3799 -14.5566 -24.7227q-12.4004 -9.34277 -27.7773 -7.18262q-15.377 2.15918 -24.7227 14.5576l-161.094 215.188l-54.3447 -56.2812v-139.281q0.00195312 -15.5244 -10.9863 -26.5127
q-10.9883 -10.9873 -26.5137 -10.9873q-15.5244 0 -26.5117 10.9883q-10.9883 10.9873 -10.9883 26.5117v597.5q0.00195312 15.5254 10.9883 26.5127q10.9873 10.9873 26.5117 10.9873z" />
    <glyph glyph-name="L" unicode="L" horiz-adv-x="170" 
d="M90.9873 654.062q15.5254 0 26.5127 -10.9873t10.9873 -26.5127v-577.5q0.000976562 -15.5244 -10.9873 -26.5117q-10.9883 -10.9883 -26.5127 -10.9883t-26.5117 10.9883q-10.9883 10.9873 -10.9883 26.5117v577.5q0.000976562 15.5254 10.9883 26.5127t26.5117 10.9873
z" />
    <glyph glyph-name="M" unicode="M" horiz-adv-x="596" 
d="M185.922 465.281q44.4951 0 68.3379 -15.8086q23.8418 -15.8096 47.3496 -51.7852q22.8047 35.9023 46.1396 51.748t68.4854 15.8457q79.2363 0 115.945 -53.5312q36.71 -53.5312 36.71 -182q0 -192.688 -1.15527 -192.688q0.000976562 -15.5244 -10.9873 -26.5117
q-10.9883 -10.9883 -26.5127 -10.9883t-26.5117 10.9883q-11.1104 11.1084 -10.9883 26.5117l1.53125 192.688q0.760742 95.7061 -15.4902 129.136q-15.4912 31.8643 -61.3857 31.8643q-47.6377 0 -62.7715 -25.5889q-15.377 -26.0039 -15.1338 -100.974l0.25 -77.126
q-9.40332 -38.6904 -39.4062 -37.4365q-15.0049 0.626953 -25.4551 11.4854q-10.5947 11.0078 -10.4512 25.9512l0.717773 74.5947q0.71582 74.3174 -14.4395 102.367q-14.4395 26.7266 -63.6221 26.7266q-48.4043 0 -62.4521 -31.7256q-14.4707 -32.6816 -14.0479 -129.274
l0.421875 -96.3438l0.421875 -96.3438q0.0683594 -15.458 -10.9863 -26.5127q-10.9873 -10.9873 -26.5137 -10.9873q-15.5244 0 -26.5117 10.9873q-10.9863 10.9873 -10.9883 26.5127q0 192.688 -0.46875 192.688q0 93.2832 15.9199 144.734q15.9209 51.4512 47.2324 71.124
q31.3125 19.6729 86.8164 19.6729z" />
    <glyph glyph-name="N" unicode="N" horiz-adv-x="434" 
d="M219.845 465.281q90.4385 0 132.546 -62.8066q42.1084 -62.8066 42.1094 -172.725l-1.15527 -192.688q0.000976562 -15.5244 -10.9873 -26.5117q-10.9883 -10.9883 -26.5127 -10.9883t-26.5127 10.9883q-10.9883 10.9873 -10.9873 26.5117l1.53027 192.688
q0 83.8574 -21.793 122.429q-21.792 38.5713 -77.082 38.5713q-60.6904 0 -79.5957 -36.3232q-18.9053 -36.3242 -18.9043 -124.677l0.844727 -192.688q0.000976562 -15.5244 -10.9873 -26.5117q-10.9873 -10.9883 -26.5127 -10.9883q-15.5244 0 -26.5117 10.9883
q-10.9873 10.9873 -10.9883 26.5117l-0.469727 192.688q0 235.531 171.97 235.531z" />
    <glyph glyph-name="O" unicode="O" horiz-adv-x="450" 
d="M227.344 473.281q91.6846 0 139.17 -63.9482q47.4863 -63.9492 47.4863 -171.583q0 -118.195 -45.4697 -177.863t-141.905 -59.668q-93.2607 0 -138.256 62.3896q-44.9941 62.3896 -44.9941 175.142q0 105.432 45.1738 170.481q45.1729 65.0498 138.795 65.0498z
M228.5 398.75q-62.2109 0 -86.3555 -38.1533q-24.1445 -38.1543 -24.1445 -122.847q0 -73.7773 27.2949 -118.467q27.2959 -44.6895 81.5488 -44.6895q59.9248 0 86.2285 40.5264q26.3027 40.5264 26.3027 122.63q0 81.0693 -27.0449 121.034
q-27.0439 39.9658 -83.8301 39.9658z" />
    <glyph glyph-name="P" unicode="P" horiz-adv-x="436" 
d="M86.0938 -185.544q-15.5254 0 -26.5127 10.9873q-10.9863 10.9873 -10.9873 26.5127l0.28125 384.812q0.000976562 114.792 40.5439 176.162q40.542 61.3691 132.706 61.3691q95.2275 0 136.302 -58.7109q41.0732 -58.7109 41.0732 -178.82
q0.000976562 -109.503 -43.0039 -172.518q-43.0049 -63.0137 -133.652 -63.0137q-55.6504 0 -99.25 34.375v-183.656q-0.000976562 -15.5254 -10.9873 -26.5127q-10.9873 -10.9873 -26.5127 -10.9873zM224 75.7686q55.5391 0 78.207 38.8408t22.668 122.159
q0.000976562 84.6777 -21.9033 123.917q-21.9053 39.2393 -80.6279 39.2393q-98.8438 0 -98.8438 -163.156q0.000976562 -87.6367 19.7783 -124.318q19.7783 -36.6816 80.7217 -36.6816z" />
    <glyph glyph-name="Q" unicode="Q" horiz-adv-x="460" 
d="M355.406 -185.544q-15.5254 0 -26.5127 10.9873q-10.9863 10.9873 -10.9873 26.5127v183.656q-43.5996 -34.375 -99.25 -34.375q-90.6475 0 -133.652 63.0137q-43.0049 63.0146 -43.0039 172.518q0 120.109 41.0732 178.82q41.0742 58.7109 136.302 58.7109
q92.1641 0 132.706 -61.3691q40.543 -61.3701 40.5439 -176.162l0.28125 -384.812q-0.000976562 -15.5254 -10.9873 -26.5127q-10.9873 -10.9873 -26.5127 -10.9873zM217.5 75.7686q60.9434 0 80.7217 36.6816q19.7773 36.6816 19.7783 124.318q0 163.156 -98.8438 163.156
q-58.7227 0 -80.6279 -39.2393q-21.9043 -39.2393 -21.9033 -123.917q0 -83.3184 22.668 -122.159t78.207 -38.8408z" />
    <glyph glyph-name="R" unicode="R" 
d="M46.875 239.75q0 119.522 42.8887 177.527q42.8887 58.0039 137.08 58.0039q84.877 0 128.469 -47.8125q10.0781 -10.4707 13.9785 -14.9473q3.89941 -4.47656 8.46094 -13.8154q4.56055 -9.33984 4.56055 -19.1123q0 -15.5244 -10.9863 -26.5117
q-10.9883 -10.9883 -26.5137 -10.9883q-12.4219 0 -22.2627 7.33008t-13.4873 18.8574q-23.125 32.4688 -81.0625 32.4688q-61.7051 0 -84.1025 -37.6201q-22.3975 -37.6191 -22.3975 -123.38l0.421875 -101.344l0.421875 -101.344q0.000976562 -15.5254 -10.9863 -26.5127
t-26.5137 -10.9873q-15.5244 0 -26.5117 10.9873q-10.9863 10.9873 -10.9883 26.5127q0 202.688 -0.46875 202.688z" />
    <glyph glyph-name="S" unicode="S" horiz-adv-x="382" 
d="M175.062 477.293q40.5752 0 76.2539 -12.6436q35.6797 -12.6426 56.2148 -35.1689q10.082 -10.4756 13.9805 -14.9482q3.89453 -4.47363 8.45703 -13.8135q4.5625 -9.34082 4.5625 -19.1133q0 -15.5244 -10.9883 -26.5117q-10.9883 -10.9883 -26.5117 -10.9883
q-12.4219 0 -22.2617 7.33008q-9.84375 7.33008 -13.4883 18.8574q-23.1201 32.4688 -85.0615 32.4688q-43.1631 0 -62.1904 -16.4492q-19.0283 -16.4482 -19.0283 -49.457q0 -27.3965 21.8643 -43.0107t64.3857 -15.6143q83.7061 0 127.62 -33.7559
q43.9102 -33.7568 43.9102 -97.2441q0 -76.2139 -39.3828 -108.671q-39.3867 -32.457 -138.086 -36.2666q-38.9834 0 -73.0117 14.1553q-34.0293 14.1553 -55.457 37.6572q-10.0781 10.4717 -13.9785 14.9482q-3.89941 4.47559 -8.46094 13.8154
q-4.56055 9.33984 -4.56055 19.1113q-0.000976562 15.5244 10.9863 26.5127q10.9883 10.9873 26.5137 10.9873q12.4219 0 22.2627 -7.33008t13.4873 -18.8574q11.6904 -16.4141 33.6699 -26.4414q21.9785 -10.0273 47.3936 -10.0273q55.9688 0 80.0303 14.9219
q24.0625 14.9209 24.0625 53.3594q0 31.373 -21.9727 44.9365q-21.9717 13.5635 -75.0264 13.5635q-77.1689 0 -119.272 36.9434q-42.1025 36.9434 -42.1025 99.2129q0 67.7021 40.5869 102.617q40.5869 34.9141 114.6 34.9141z" />
    <glyph glyph-name="T" unicode="T" horiz-adv-x="314" 
d="M215.902 0.630859q-57.5469 0 -86.7539 35.9902q-29.2109 35.9902 -29.2109 117.541l0.0625 242.625h-47.3477q-15.5234 0 -26.5117 10.9883t-10.9883 26.5117q0.00390625 15.5254 10.9883 26.5127q10.9883 10.9873 26.5117 10.9873h47.4092l0.34082 157.062
q0.00390625 15.5264 10.9883 26.5127q10.9883 10.9873 26.5117 10.9873q15.5273 0 26.5156 -10.9873t10.9844 -26.5127l-0.015625 -1.19824q-0.015625 -1.19922 -0.0429688 -4.28906q-0.0322266 -3.09082 -0.0742188 -8.49902q-0.0390625 -5.40918 -0.0859375 -13.7451
q-0.046875 -8.33691 -0.0976562 -20.1172t-0.105469 -27.5244t-0.105469 -36.0576q-0.0507812 -20.3125 -0.09375 -45.6318h85.5938q15.5234 0 26.5117 -10.9873t10.9883 -26.5127q0 -15.5234 -10.9883 -26.5117t-26.5117 -10.9883h-85.7227l-0.0908203 -240.625
q-0.00292969 -45.8896 10.1533 -63.4453q10.1523 -17.5547 32.3467 -17.5547q18.6963 0 36.9189 6.18848q18.2188 6.18848 35.1719 1.06152q14.918 -6.74609 20.5703 -13.9766q5.65234 -7.22949 5.65234 -22.1172q-0.00390625 -45.6875 -99.4727 -45.6875z" />
    <glyph glyph-name="U" unicode="U" horiz-adv-x="444" 
d="M222.03 3.46875q-90.4385 0 -132.546 62.8066q-42.1084 62.8066 -42.1094 172.725l1.15527 192.688q-0.000976562 15.5244 10.9873 26.5117q10.9883 10.9883 26.5127 10.9883t26.5127 -10.9883q10.9883 -10.9873 10.9873 -26.5117l-1.53027 -192.688
q0 -83.8574 21.793 -122.429q21.792 -38.5713 77.082 -38.5713q60.6904 0 79.5957 36.3232q18.9053 36.3242 18.9043 124.677l-0.844727 192.688q-0.000976562 15.5244 10.9873 26.5117q10.9873 10.9883 26.5127 10.9883q15.5244 0 26.5117 -10.9883
q10.9873 -10.9873 10.9883 -26.5117l0.469727 -192.688q0 -235.531 -171.97 -235.531z" />
    <glyph glyph-name="V" unicode="V" horiz-adv-x="424" 
d="M188.973 4.35742q-31.0703 11.9688 -68.3242 88.5986q-37.2539 76.6309 -63.8008 166.652q-26.5469 90.0205 -35.6133 156.782q-8.08203 27.9453 -2.11719 42.0928q5.96484 14.1465 20.9297 19.3613q15.8281 9.89355 29.8047 2.53711t21.4141 -26.3457
q14.0938 -75.0049 56.7383 -221.291q42.6406 -146.286 58.5742 -146.286q16.1953 0 66.9336 154.574q50.7383 154.575 57.4648 216.414q11.1719 34.6035 52.957 16.9854q37.3281 -15.7393 19.8945 -64.8652q-5.99219 -45.8535 -31.8281 -135.464
q-25.8359 -89.6094 -65.6992 -176.136q-39.8594 -86.5264 -72.0195 -93.6104q-3.40625 -0.749023 -10.0469 -2.49219q-6.64453 -1.74219 -9.625 -2.24805q-2.97656 -0.505859 -7.82422 -0.75q-4.84668 -0.244141 -9 1.16211q-4.15625 1.40625 -8.8125 4.32812z" />
    <glyph glyph-name="W" unicode="W" horiz-adv-x="594" 
d="M417.047 -1.90625q-44.4951 0 -68.3379 15.8086q-23.8418 15.8096 -47.3496 51.7852q-22.8047 -35.9023 -46.1396 -51.748t-68.4854 -15.8457q-79.2363 0 -115.945 53.5312q-36.71 53.5312 -36.71 182q0 192.688 1.15527 192.688q-0.000976562 15.5244 10.9873 26.5117
q10.9883 10.9883 26.5127 10.9883t26.5117 -10.9883q11.1104 -11.1084 10.9883 -26.5117l-1.53125 -192.688q-0.760742 -95.7061 15.4902 -129.136q15.4912 -31.8643 61.3857 -31.8643q47.6377 0 62.7715 25.5889q15.377 26.0049 15.1338 100.975l-0.25 77.124
q9.40332 38.6914 39.4062 37.4375q15.0059 -0.626953 25.4551 -11.4854q10.5947 -11.0078 10.4512 -25.9521l-0.717773 -74.5938q-0.714844 -74.3184 14.4395 -102.367q14.4395 -26.7266 63.6221 -26.7266q48.4043 0 62.4521 31.7256q14.4697 32.6816 14.0479 129.274
l-0.421875 96.3438l-0.421875 96.3438q-0.0683594 15.459 10.9863 26.5127q10.9883 10.9873 26.5137 10.9873q15.5244 0 26.5117 -10.9873q10.9863 -10.9873 10.9883 -26.5127q0 -192.688 0.46875 -192.688q0 -93.2832 -15.9199 -144.734
q-15.9209 -51.4512 -47.2324 -71.124q-31.3125 -19.6729 -86.8164 -19.6729z" />
    <glyph glyph-name="X" unicode="X" horiz-adv-x="464" 
d="M59.2109 476.734q22.3125 0.575195 33.4688 -18.75l111.969 -161.312l119.938 161.312q7.76562 13.4482 22.7695 17.4795q15.0039 4.03027 28.4492 -3.72949q13.4453 -7.7627 17.4648 -22.7832q4.01953 -15.0215 -3.74609 -28.4668l-142.488 -182.062l142.488 -183.532
q7.76562 -13.4443 3.74609 -28.4502q-4.01953 -15.0068 -17.4648 -22.7686q-13.4453 -7.7627 -28.4492 -3.74414q-15.0078 4.01855 -22.7695 17.4629l-119.938 157.312l-111.969 -157.312q-7.76172 -13.4443 -22.7656 -17.4629q-15.0078 -4.01855 -28.4531 3.74414
q-13.4414 7.76172 -17.4609 22.7686q-4.01953 15.0059 3.74219 28.4502l131.328 177.209l-131.328 188.385q-7.76172 13.4443 -3.74219 28.4668t17.4609 22.7832q8.23438 4.75488 17.75 5z" />
    <glyph glyph-name="Y" unicode="Y" horiz-adv-x="432" 
d="M213.531 -187.542q-41.043 0 -78.5859 12.749q-37.5391 12.749 -57.8828 35.0645q-10.0781 10.4697 -13.9766 14.9463q-3.90234 4.47754 -8.46484 13.8164q-4.55859 9.33887 -4.55859 19.1113q0 15.5254 10.9883 26.5127q10.9844 10.9873 26.5117 10.9873
q12.418 0 22.2617 -7.33008q9.83984 -7.33008 13.4873 -18.8574q10.9814 -15.4199 36.2705 -23.9443q25.2852 -8.52441 52.793 -8.52441q53.9531 0 83.1328 35.3867q29.1797 35.3857 29.1797 105.426q-38.6562 -27.4375 -103.031 -27.4375q-90.4414 0 -132.547 62.8076
q-42.1094 62.8066 -42.1094 172.725l1.15625 202.687q0 15.5244 10.9883 26.5127q10.9883 10.9873 26.5117 10.9873t26.5117 -10.9873q10.9883 -10.9883 10.9883 -26.5127l-1.53125 -202.687q0 -83.8574 21.793 -122.429q21.793 -38.5723 77.082 -38.5723
q61.4492 0 82.9766 37.3271q21.5234 37.3271 21.5234 123.674l-0.84375 202.687q0 15.5254 10.9883 26.5127q10.9844 10.9873 26.5117 10.9873q15.7148 0 27.6055 -11.0762t11.8945 -26.4238l0.34375 -358.594q0 -141.994 -45.4727 -204.763
q-45.4766 -62.7686 -142.496 -62.7686z" />
    <glyph glyph-name="Z" unicode="Z" horiz-adv-x="402" 
d="M62.1719 469h215.875q60.5547 0 79.9531 -29.1436q19.4023 -29.1436 -12.9844 -69.3564l-222.125 -292.906h203.938q15.5234 0 26.5117 -10.9873t10.9883 -26.5127t-10.9883 -26.5127q-10.9844 -10.9873 -26.5117 -10.9873h-223.875h-0.03125q-125.07 0 -64.9375 88.5
l228.094 302.906h-203.906q-15.5234 0 -26.5117 10.9883q-10.9883 10.9873 -10.9883 26.5117t10.9883 26.5127q10.9883 10.9873 26.5117 10.9873z" />
    <glyph glyph-name="bracketleft" unicode="[" horiz-adv-x="394" 
d="M101.812 745.969h145.688q15.525 0 26.514 -10.988q10.986 -10.987 10.986 -26.512q0 -15.526 -10.986 -26.513q-10.989 -10.987 -26.514 -10.987h-109.5v-594.875h109.5q15.525 0 26.514 -10.9874q10.986 -10.9873 10.986 -26.5126q0 -15.5254 -10.986 -26.5127
q-10.989 -10.9874 -26.514 -10.9874h-145.688q-14.6538 0 -27.4292 12.587q-11.3828 10.7734 -11.3828 27.1005v665.5q0 15.312 11.7363 27.641q11.4649 12.047 27.0757 12.047z" />
    <glyph glyph-name="backslash" unicode="\" horiz-adv-x="622" 
d="M82.3809 700.8q12.3984 9.34302 27.7851 7.17999q15.388 -2.16296 24.731 -14.561l429.774 -622.795q9.34399 -12.3984 7.18097 -27.7861q-2.16296 -15.3867 -14.562 -24.7305q-12.3979 -9.34275 -27.7859 -7.1806q-15.388 2.1621 -24.731 14.5615l-429.773 622.794
q-9.3428 12.4 -7.1807 27.786q2.1621 15.388 14.5616 24.732z" />
    <glyph glyph-name="bracketright" unicode="]" horiz-adv-x="401" 
d="M245.188 745.969q15.611 0 27.076 -12.047q11.736 -12.329 11.736 -27.641v-665.5q0 -16.3271 -11.383 -27.1005q-12.775 -12.587 -27.429 -12.587h-145.688q-15.5254 0 -26.5137 10.9874q-10.9863 10.9873 -10.9863 26.5127q0 15.5253 10.9863 26.5126
q10.9883 10.9874 26.5137 10.9874h109.5v594.875h-109.5q-15.5254 0 -26.5137 10.987q-10.9863 10.987 -10.9863 26.513q0 15.525 10.9863 26.512q10.9883 10.988 26.5137 10.988h145.688z" />
    <glyph glyph-name="asciicircum" unicode="^" horiz-adv-x="436" 
d="M221.652 793.212q20.998 13.1801 45.307 0l145.551 -180.033q3.24799 -4.01703 9.59198 -14.107q2.58002 -4.099 5.91901 -11.484q3.34 -7.383 2.65302 -13.276q-0.686005 -5.89398 -4.414 -12.352q-7.76202 -13.443 -22.785 -17.4641q-15.022 -4.01898 -28.465 3.74506
l-135.75 162.87l-127.846 -162.87q-13.4433 -7.763 -28.4492 -3.74402q-15.0058 4.01898 -22.7695 17.463q-6.0117 15.65 -2.7441 25.119q3.5937 10.417 16.4629 26.1z" />
    <glyph glyph-name="underscore" unicode="_" horiz-adv-x="564" 
d="M32.293 36.3428q0 15.5254 10.9863 26.5127q10.9883 10.9873 26.5117 10.9873h393.697q15.526 0 26.512 -10.9873q10.988 -10.9873 10.988 -26.5127q0 -15.5254 -10.988 -26.5127q-10.986 -10.9873 -26.512 -10.9873h-393.697q-15.5234 0 -26.5117 10.9873
q-10.9863 10.9873 -10.9863 26.5127z" />
    <glyph glyph-name="grave" unicode="`" 
d="M81.7383 695.021q7.9961 13.307 23.0737 17.066q15.377 3.83502 28.383 -4.23596l182.987 -113.555q13.382 -8.30603 17.066 -23.073q3.76001 -15.077 -4.23798 -28.385q-7.996 -13.307 -23.074 -17.066q-15.377 -3.83398 -28.383 4.23602l-182.987 113.554
q-13.3848 8.30701 -17.0664 23.075q-3.7598 15.076 4.2383 28.384z" />
    <glyph glyph-name="a" unicode="a" 
d="M339.406 -13.207q-15.525 0 -26.511 10.9873q-10.988 10.9873 -10.989 26.5127v9.6562q-23.261 -18.3408 -42.087 -26.3574q-18.825 -8.01758 -47.163 -8.01758q-78.025 0 -122.342 61.4727q-44.3155 61.4741 -44.3145 166.058q0 116.914 40.4922 173.223
q40.4908 56.309 126.883 56.309q81.397 0 122.323 -59.49q40.926 -59.488 40.927 -170.042l0.281006 -202.812q-0.00100708 -15.5254 -10.988 -26.5127q-10.986 -10.9873 -26.512 -10.9873zM211.5 74.1055q52.05 0 71.274 34.6135q19.225 34.612 19.226 118.386
q0 155.157 -88.844 155.157q-50.702 0 -71.617 -36.83q-20.915 -36.83 -20.914 -118.327q0 -79.716 22.134 -116.358q22.134 -36.6415 68.741 -36.6415z" />
    <glyph glyph-name="b" unicode="b" horiz-adv-x="440" 
d="M86.5547 660.062q15.5243 0 26.5113 -10.987t10.989 -26.513v-183.656q43.597 34.375 99.25 34.375q90.646 0 133.651 -63.013q43.005 -63.014 43.004 -172.518q0 -120.109 -41.073 -178.82q-41.075 -58.7109 -136.302 -58.7109q-92.164 0 -132.706 61.3702
q-40.543 61.3691 -40.5439 176.161l-0.2803 384.812q0.000999451 15.527 10.9883 26.513q10.9863 10.987 26.5117 10.987zM224.46 398.75q-60.943 0 -80.722 -36.681q-19.777 -36.681 -19.778 -124.319q0 -163.156 98.845 -163.156q58.721 0 80.627 39.2402
q21.904 39.239 21.903 123.916q0 83.32 -22.667 122.16q-22.668 38.84 -78.208 38.84z" />
    <glyph glyph-name="c" unicode="c" horiz-adv-x="388" 
d="M205.969 473.188q73.568 0 109.393 -19.748q35.825 -19.746 35.825 -51.878q0 -17.033 -11.464 -30.342q-11.464 -13.309 -26.036 -7.15799q-6.784 1.81799 -14.627 7.98398l-15.194 11.781q-7.34799 5.61401 -27.251 10.222q-19.902 4.60699 -49.49 4.60699
q-38.663 0 -64.582 -46.636q-25.919 -46.638 -25.918 -119.176q0 -73.196 24.81 -117.098q24.809 -43.9022 65.69 -43.9022q34.34 0 53.196 5.49509q18.856 5.4941 23.056 12.4179q4.19998 6.9239 12.308 14.8182q8.10599 7.894 22.002 11.175q14.86 0 24.179 -12.54
q9.32101 -12.5401 9.32101 -28.96q0 -76.9375 -145.218 -76.9375q-67.778 0 -114.266 67.7012q-46.4883 67.7013 -49.7031 172.642q0 101.892 47.7607 168.711q47.7603 66.821 116.208 66.821z" />
    <glyph glyph-name="d" unicode="d" horiz-adv-x="440" 
d="M355.405 660.062q15.526 0 26.512 -10.987q10.987 -10.986 10.988 -26.513l-0.279999 -384.812q-0.00100708 -114.792 -40.544 -176.161q-40.542 -61.3702 -132.706 -61.3702q-95.228 0 -136.302 58.7109q-41.0732 58.7113 -41.0732 178.82
q-0.000999451 109.504 43.0039 172.518q43.0051 63.013 133.651 63.013q55.653 0 99.25 -34.375v183.656q0.00201416 15.526 10.989 26.513t26.511 10.987zM217.5 398.75q-55.54 0 -78.208 -38.84q-22.667 -38.84 -22.667 -122.16q-0.000999451 -84.677 21.903 -123.916
q21.906 -39.2402 80.627 -39.2402q98.845 0 98.845 163.156q-0.00100708 87.638 -19.778 124.319q-19.779 36.681 -80.722 36.681z" />
    <glyph glyph-name="e" unicode="e" horiz-adv-x="438" 
d="M225.969 479.188q90.287 0 127.939 -61.502q37.654 -61.502 37.654 -176.498q0 -15.526 -10.988 -26.513q-10.986 -10.987 -26.512 -10.987h-236.281q4.676 -58.153 37.651 -94.999q32.975 -36.8452 71.693 -36.8452q34.401 0 56.364 5.5019
q21.963 5.5029 29.845 12.4033q7.883 6.9014 19.269 14.834q11.385 7.933 25.085 11.167q14.86 0 24.179 -12.54q9.319 -12.5401 9.32098 -28.96q0 -39.293 -46.219 -58.1152q-46.219 -18.8223 -119 -18.8223q-69.842 0 -125.338 69.0049q-57.1154 71.0196 -58.631 171.339
q-1.5576 103.075 50.4609 173.356q50.4601 68.176 133.508 68.176zM223.125 398.656q-46.609 0 -70.889 -30.973q-24.278 -30.974 -32.486 -88.995h198.656q-5.85901 119.968 -95.281 119.968z" />
    <glyph glyph-name="f" unicode="f" horiz-adv-x="358" 
d="M221.25 659.281q99.468 0 99.469 -45.687q0.00100708 -14.887 -5.651 -22.116q-6.96399 -8.91003 -20.568 -13.978q-15.283 -5.69299 -35.174 1.06201q-18.219 6.18799 -36.919 6.18799q-22.193 0 -32.347 -17.555q-10.237 -17.682 -10.153 -63.445l0.0930023 -50.625
h101.719q15.525 0 26.512 -10.987q10.988 -10.988 10.988 -26.513q0 -15.524 -10.988 -26.513q-10.987 -10.987 -26.512 -10.987h-101.593l0.372986 -207.223q0.252014 -139.839 0.251007 -139.839q0.00100708 -15.5244 -10.986 -26.5117q-10.988 -10.9883 -26.514 -10.9883
q-15.524 0 -26.511 10.9873q-10.973 10.9395 -10.989 26.5127l-0.343002 347.062h-29.407q-15.5254 0 -26.5127 10.987q-10.9863 10.988 -10.9873 26.513q0 15.525 10.9873 26.513q10.9873 10.987 26.5127 10.987h29.344l-0.0620041 52.625
q-0.0950012 81.443 29.211 117.542q29.21 35.989 86.757 35.989z" />
    <glyph glyph-name="g" unicode="g" horiz-adv-x="440" 
d="M220.656 -183.908q-80.88 0 -124.468 47.812q-10.0811 10.474 -13.9805 14.949q-3.8984 4.47501 -8.459 13.814q-4.5605 9.3398 -4.5605 19.1123q-0.000999451 15.5254 10.9863 26.5127q10.9873 10.9873 26.5132 10.9873q12.42 0 22.262 -7.3301
q9.841 -7.3301 13.488 -18.8574q23.122 -32.4688 77.062 -32.4688q58.248 0 78.503 33.5411q20.256 33.54 21.841 112.396q-43.823 -35.125 -100.188 -35.125q-77.545 0 -127.1 68.1357q-49.5557 68.1357 -49.5557 167.396q0 106.672 48.9961 172.101
q48.9959 65.43 128.379 65.43q86.39 0 126.869 -54.137q40.48 -54.136 45.694 -156.519l1.68701 -212.219q0 -120.696 -40.263 -178.113q-40.262 -57.418 -133.706 -57.418zM218.5 75.9668q60.943 0 80.722 36.6812q19.777 36.682 19.778 124.319q0 163.156 -98.844 163.156
q-45.689 0 -74.11 -42.867q-28.422 -42.867 -28.421 -120.289q0 -72.276 26.89 -116.638q26.889 -44.3622 73.985 -44.3622z" />
    <glyph glyph-name="h" unicode="h" horiz-adv-x="446" 
d="M89.5 662.062q15.526 0 26.514 -10.987q10.987 -10.986 10.986 -26.513v-176.687q38.655 27.406 100.969 27.406q90.439 0 132.547 -62.805q42.108 -62.807 42.109 -172.726l-1.15601 -202.688q0.00100708 -15.5244 -10.988 -26.5117q-10.988 -10.9883 -26.512 -10.9883
q-15.524 0 -26.512 10.9883q-10.989 10.9883 -10.988 26.5117l1.53101 202.688q0 83.857 -21.793 122.429q-21.792 38.571 -77.082 38.571q-56.123 0 -78.088 -31.079q-21.964 -31.079 -24.037 -100.921l0.469002 -231.688q0.000999451 -15.5254 -10.987 -26.5127
q-10.987 -10.9873 -26.5132 -10.9873q-13.4424 0 -23.7422 8.47754q-10.2998 8.47656 -12.9766 21.3662l-0.0312004 0.0937996l-1.2188 595.062q0.000999451 15.526 10.9883 26.513t26.5117 10.987z" />
    <glyph glyph-name="i" unicode="i" horiz-adv-x="172" 
d="M130.211 631.188q0 -15.526 -10.987 -26.513q-10.988 -10.987 -26.5131 -10.987q-15.5254 0 -26.5127 10.987q-10.9873 10.988 -10.9873 26.513q0 15.525 10.9873 26.512q10.9873 10.988 26.5127 10.988q15.5241 0 26.5131 -10.988q10.987 -10.987 10.987 -26.512z
M92.7178 476.062q15.5252 0 26.5122 -10.987q10.988 -10.987 10.988 -26.513v-401.5q0.000991821 -15.5244 -10.987 -26.5117q-10.988 -10.9883 -26.5132 -10.9883q-15.5244 0 -26.5117 10.9883q-10.9883 10.9873 -10.9883 26.5117v401.5q0.000999451 15.526 10.9883 26.513
q10.9873 10.987 26.5117 10.987z" />
    <glyph glyph-name="j" unicode="j" horiz-adv-x="238" 
d="M180.717 -31.8545q0 -81.8465 -28.355 -117.688q-28.355 -35.842 -85.6149 -35.842q-97.4678 0 -97.4678 45.688q-0.00100136 14.887 5.6494 22.114q5.6494 7.228 20.5674 13.976q16.8809 5.1041 34.04 -1.072q17.1582 -6.175 36.0557 -6.175q21.8691 0 31.1846 17.3247
q9.31561 17.3262 9.31561 63.6748l-0.423004 236.345q-0.422997 236.344 -0.421997 236.344q-0.000999451 15.526 10.986 26.513q10.988 10.987 26.514 10.987q15.524 0 26.512 -10.987q10.986 -10.987 10.988 -26.513q0 -474.689 0.470001 -474.689zM180.829 631.188
q0 -15.525 -10.987 -26.513q-10.988 -10.987 -26.513 -10.987q-15.524 0 -26.512 10.988q-10.988 10.987 -10.988 26.512q0 15.524 10.988 26.512q10.989 10.988 26.512 10.988q15.525 0 26.513 -10.988q10.987 -10.987 10.987 -26.512z" />
    <glyph glyph-name="k" unicode="k" horiz-adv-x="404" 
d="M75.1553 670.062q15.5254 0 26.5127 -10.987q10.987 -10.987 10.987 -26.513v-350.281l198.439 205.5q10.782 11.166 26.323 11.43q15.541 0.264008 26.708 -10.523q11.165 -10.783 11.429 -26.323q0.263 -15.541 -10.523 -26.709l-145.25 -150.406l168.188 -224.688
q9.34201 -12.3984 7.181 -27.7773q-2.16 -15.3799 -14.556 -24.7227q-12.401 -9.34277 -27.778 -7.18262q-15.377 2.15918 -24.722 14.5576l-161.094 215.188l-54.345 -56.281v-139.281q0.0019989 -15.5244 -10.986 -26.5127q-10.9883 -10.9873 -26.5137 -10.9873
q-15.5244 0 -26.5117 10.9883q-10.9883 10.9873 -10.9883 26.5117v597.5q0.00189972 15.526 10.9883 26.513q10.9873 10.987 26.5117 10.987z" />
    <glyph glyph-name="l" unicode="l" horiz-adv-x="170" 
d="M90.9873 654.062q15.5257 0 26.5127 -10.987t10.987 -26.513v-577.5q0.00100708 -15.5244 -10.987 -26.5117q-10.988 -10.9883 -26.5127 -10.9883q-15.5244 0 -26.5117 10.9883q-10.9883 10.9873 -10.9883 26.5117v577.5q0.000999451 15.526 10.9883 26.513
q10.9873 10.987 26.5117 10.987z" />
    <glyph glyph-name="m" unicode="m" horiz-adv-x="596" 
d="M185.922 465.281q44.495 0 68.338 -15.808q23.842 -15.81 47.349 -51.785q22.805 35.902 46.14 51.748q23.335 15.845 68.485 15.845q79.237 0 115.946 -53.531q36.71 -53.531 36.71 -182q0 -192.688 -1.15601 -192.688q0.000976562 -15.5244 -10.987 -26.5117
q-10.988 -10.9883 -26.513 -10.9883q-15.524 0 -26.511 10.9883q-11.111 11.1085 -10.989 26.5117l1.53198 192.688q0.76001 95.706 -15.491 129.136q-15.491 31.864 -61.385 31.864q-47.638 0 -62.772 -25.589q-15.377 -26.004 -15.134 -100.973l0.25 -77.126
q-9.40302 -38.691 -39.406 -37.437q-15.005 0.626999 -25.455 11.485q-10.595 11.008 -10.451 25.952l0.718018 74.594q0.714996 74.318 -14.44 102.367q-14.439 26.727 -63.622 26.727q-48.404 0 -62.452 -31.726q-14.471 -32.681 -14.048 -129.274l0.421997 -96.344
l0.421997 -96.3435q0.0680008 -15.4579 -10.986 -26.5127q-10.9878 -10.9873 -26.5141 -10.9873q-15.5244 0 -26.5117 10.9873q-10.9864 10.9873 -10.9883 26.5127q0 192.688 -0.468803 192.688q0 93.283 15.9199 144.734q15.9209 51.452 47.2325 71.124
q31.3125 19.673 86.8165 19.673z" />
    <glyph glyph-name="n" unicode="n" horiz-adv-x="434" 
d="M219.845 465.281q90.438 0 132.546 -62.806q42.108 -62.807 42.109 -172.725l-1.155 -192.688q0.00100708 -15.5244 -10.988 -26.5117q-10.988 -10.9883 -26.512 -10.9883q-15.525 0 -26.513 10.9883q-10.988 10.9873 -10.987 26.5117l1.53 192.688
q0 83.857 -21.793 122.429q-21.792 38.571 -77.082 38.571q-60.69 0 -79.596 -36.323q-18.905 -36.324 -18.904 -124.677l0.845001 -192.688q0.000999451 -15.5244 -10.988 -26.5117q-10.987 -10.9883 -26.5123 -10.9883q-15.5244 0 -26.5117 10.9883
q-10.9873 10.9873 -10.9883 26.5117l-0.4697 192.688q0 235.531 171.97 235.531z" />
    <glyph glyph-name="o" unicode="o" horiz-adv-x="450" 
d="M227.344 473.281q91.684 0 139.17 -63.948q47.486 -63.949 47.486 -171.583q0 -118.195 -45.47 -177.863q-45.469 -59.6679 -141.905 -59.6679q-93.261 0 -138.256 62.3896q-44.9941 62.3896 -44.9941 175.142q0 105.432 45.1738 170.481q45.1732 65.05 138.795 65.05z
M228.5 398.75q-62.211 0 -86.355 -38.153q-24.145 -38.155 -24.145 -122.847q0 -73.777 27.295 -118.467q27.296 -44.6892 81.549 -44.6892q59.925 0 86.228 40.5262q26.303 40.526 26.303 122.63q0 81.069 -27.045 121.034q-27.044 39.966 -83.83 39.966z" />
    <glyph glyph-name="p" unicode="p" horiz-adv-x="436" 
d="M86.0938 -185.544q-15.5254 0 -26.5127 10.987q-10.9864 10.988 -10.9873 26.513l0.2812 384.813q0.000999451 114.792 40.5439 176.162q40.5421 61.369 132.706 61.369q95.228 0 136.302 -58.711q41.073 -58.711 41.073 -178.82q0.00100708 -109.503 -43.004 -172.518
q-43.005 -63.0137 -133.652 -63.0137q-55.651 0 -99.25 34.375v-183.656q-0.000999451 -15.525 -10.988 -26.513q-10.987 -10.987 -26.5122 -10.987zM224 75.7686q55.539 0 78.207 38.8404q22.668 38.841 22.668 122.16q0.00100708 84.677 -21.903 123.917
q-21.906 39.239 -80.628 39.239q-98.844 0 -98.844 -163.156q0.000999451 -87.637 19.778 -124.319q19.779 -36.6814 80.722 -36.6814z" />
    <glyph glyph-name="q" unicode="q" horiz-adv-x="460" 
d="M355.406 -185.544q-15.525 0 -26.512 10.987q-10.987 10.988 -10.988 26.513v183.656q-43.599 -34.375 -99.25 -34.375q-90.647 0 -133.652 63.0137q-43.0049 63.015 -43.0039 172.518q0 120.109 41.0732 178.82q41.0738 58.711 136.302 58.711q92.164 0 132.706 -61.369
q40.543 -61.37 40.544 -176.162l0.281006 -384.813q-0.00100708 -15.525 -10.987 -26.513q-10.987 -10.987 -26.513 -10.987zM217.5 75.7686q60.943 0 80.722 36.6814q19.777 36.682 19.778 124.319q0 163.156 -98.844 163.156q-58.722 0 -80.628 -39.239
q-21.904 -39.24 -21.903 -123.917q0 -83.319 22.668 -122.16q22.668 -38.8404 78.207 -38.8404z" />
    <glyph glyph-name="r" unicode="r" 
d="M46.875 239.75q0 119.522 42.8887 177.527q42.8883 58.004 137.08 58.004q84.877 0 128.468 -47.812q10.079 -10.471 13.979 -14.948q3.89902 -4.47598 8.46103 -13.815q4.56 -9.34 4.56 -19.112q0.000976562 -15.525 -10.986 -26.512q-10.988 -10.988 -26.514 -10.988
q-12.421 0 -22.262 7.33002q-9.84097 7.32999 -13.488 18.857q-23.124 32.469 -81.062 32.469q-61.705 0 -84.103 -37.62q-22.397 -37.619 -22.397 -123.38l0.421997 -101.344l0.422005 -101.344q0.000999451 -15.5254 -10.987 -26.5127q-10.987 -10.9873 -26.5132 -10.9873
q-15.5245 0 -26.5118 10.9873q-10.9863 10.9873 -10.9882 26.5127q0 202.688 -0.4688 202.688z" />
    <glyph glyph-name="s" unicode="s" horiz-adv-x="382" 
d="M175.062 477.293q40.575 0 76.253 -12.644q35.68 -12.642 56.215 -35.169q10.082 -10.475 13.981 -14.948q3.89401 -4.47302 8.457 -13.813q4.56201 -9.341 4.56201 -19.114q0 -15.524 -10.988 -26.511q-10.988 -10.989 -26.512 -10.989q-12.422 0 -22.261 7.33099
q-9.84402 7.32999 -13.489 18.857q-23.12 32.469 -85.061 32.469q-43.163 0 -62.191 -16.449q-19.028 -16.449 -19.028 -49.458q0 -27.396 21.864 -43.01q21.865 -15.615 64.386 -15.615q83.706 0 127.62 -33.755q43.91 -33.757 43.91 -97.245q0 -76.2134 -39.383 -108.67
q-39.386 -32.4571 -138.085 -36.2666q-38.984 0 -73.012 14.1552q-34.0295 14.1553 -55.4572 37.6573q-10.0782 10.4716 -13.9785 14.9482q-3.8995 4.47559 -8.461 13.8154q-4.5605 9.3399 -4.5605 19.1109q-0.000999451 15.525 10.9863 26.513
q10.9883 10.987 26.5137 10.987q12.4218 0 22.2627 -7.33q9.8408 -7.32999 13.4873 -18.857q11.6902 -16.4141 33.6702 -26.4414q21.978 -10.0274 47.393 -10.0274q55.969 0 80.031 14.9219q24.062 14.9209 24.062 53.3589q0 31.374 -21.973 44.937
q-21.971 13.563 -75.026 13.563q-77.169 0 -119.272 36.944q-42.1025 36.943 -42.1025 99.213q0 67.702 40.5869 102.617q40.5871 34.914 114.6 34.914z" />
    <glyph glyph-name="t" unicode="t" horiz-adv-x="314" 
d="M215.902 0.630859q-57.547 0 -86.754 35.9902q-29.2105 35.9902 -29.2105 117.541l0.0625 242.625h-47.3477q-15.5234 0 -26.5117 10.988q-10.9883 10.989 -10.9883 26.512q0.00390053 15.526 10.9883 26.513q10.9883 10.987 26.5117 10.987h47.4097l0.340004 157.063
q0.0039978 15.526 10.989 26.512q10.988 10.988 26.511 10.988q15.528 0 26.516 -10.988q10.988 -10.987 10.984 -26.512l-0.0149994 -1.19897q-0.0159912 -1.19897 -0.0429993 -4.289q-0.0319977 -3.091 -0.0739899 -8.49902q-0.0400085 -5.409 -0.0859985 -13.745
q-0.0470123 -8.33698 -0.0980072 -20.117q-0.0509949 -11.78 -0.106003 -27.524q-0.0540009 -15.745 -0.104996 -36.058q-0.0509949 -20.313 -0.0939941 -45.632h85.594q15.523 0 26.512 -10.987q10.988 -10.988 10.988 -26.513q0 -15.523 -10.988 -26.512
q-10.989 -10.988 -26.512 -10.988h-85.723l-0.0899963 -240.625q-0.00299072 -45.89 10.153 -63.4452q10.152 -17.5547 32.347 -17.5547q18.696 0 36.918 6.1885q18.219 6.1885 35.172 1.0615q14.918 -6.7461 20.571 -13.9766q5.65201 -7.2294 5.65201 -22.1171
q-0.0039978 -45.6875 -99.473 -45.6875z" />
    <glyph glyph-name="u" unicode="u" horiz-adv-x="444" 
d="M222.03 3.46875q-90.438 0 -132.546 62.8066q-42.1084 62.8066 -42.1094 172.725l1.1553 192.688q-0.000999451 15.524 10.9873 26.511q10.9883 10.989 26.5127 10.989q15.5247 0 26.5127 -10.989q10.988 -10.987 10.987 -26.511l-1.53 -192.688
q0 -83.857 21.793 -122.429q21.792 -38.571 77.082 -38.571q60.69 0 79.596 36.323q18.905 36.324 18.904 124.677l-0.845001 192.688q-0.00100708 15.524 10.988 26.511q10.987 10.989 26.512 10.989t26.512 -10.989q10.987 -10.987 10.988 -26.511l0.470001 -192.688
q0 -235.531 -171.97 -235.531z" />
    <glyph glyph-name="v" unicode="v" horiz-adv-x="424" 
d="M188.973 4.35742q-31.071 11.9688 -68.325 88.5987q-37.2535 76.6309 -63.8003 166.652q-26.5469 90.021 -35.6133 156.783q-8.0821 27.945 -2.1172 42.092q5.9648 14.147 20.9297 19.362q15.8281 9.89301 29.8047 2.53699q13.9765 -7.35699 21.414 -26.346
q14.0934 -75.005 56.7384 -221.291q42.641 -146.286 58.574 -146.286q16.195 0 66.934 154.574q50.738 154.575 57.465 216.414q11.171 34.604 52.957 16.986q37.328 -15.74 19.894 -64.866q-5.992 -45.853 -31.828 -135.463q-25.836 -89.61 -65.699 -176.136
q-39.86 -86.5264 -72.02 -93.6104q-3.40601 -0.74902 -10.047 -2.49219q-6.644 -1.74218 -9.625 -2.24804q-2.976 -0.50586 -7.82399 -0.749998q-4.847 -0.24414 -9 1.16211q-4.15601 1.40625 -8.812 4.32812z" />
    <glyph glyph-name="w" unicode="w" horiz-adv-x="594" 
d="M417.047 -1.90625q-44.495 0 -68.338 15.8085q-23.842 15.8096 -47.35 51.7852q-22.804 -35.9023 -46.139 -51.748q-23.335 -15.8457 -68.486 -15.8457q-79.236 0 -115.945 53.5312q-36.71 53.531 -36.71 182q0 192.687 1.1553 192.687
q-0.00100327 15.525 10.9873 26.512q10.9883 10.988 26.5127 10.988t26.5117 -10.988q11.1099 -11.108 10.9879 -26.512l-1.531 -192.687q-0.761002 -95.706 15.49 -129.136q15.492 -31.864 61.386 -31.864q47.638 0 62.772 25.5889q15.377 26.0051 15.133 100.974
l-0.25 77.124q9.40399 38.692 39.407 37.438q15.005 -0.627014 25.455 -11.485q10.594 -11.008 10.451 -25.953l-0.717987 -74.593q-0.714996 -74.319 14.44 -102.367q14.439 -26.7266 63.622 -26.7266q48.404 0 62.452 31.726q14.47 32.681 14.048 129.274
l-0.421997 96.344l-0.421997 96.343q-0.0679932 15.459 10.986 26.513q10.988 10.987 26.514 10.987q15.524 0 26.512 -10.987q10.986 -10.987 10.988 -26.513q0 -192.687 0.468994 -192.687q0 -93.283 -15.92 -144.734q-15.921 -51.4511 -47.233 -71.124
q-31.312 -19.6728 -86.816 -19.6728z" />
    <glyph glyph-name="x" unicode="x" horiz-adv-x="464" 
d="M59.2109 476.734q22.3125 0.575989 33.4688 -18.75l111.968 -161.312l119.938 161.312q7.76599 13.449 22.769 17.48q15.004 4.03 28.45 -3.72998q13.445 -7.76202 17.465 -22.783q4.01901 -15.021 -3.74698 -28.467l-142.488 -182.061l142.488 -183.532
q7.76599 -13.4443 3.74698 -28.4502q-4.01999 -15.0068 -17.465 -22.7685q-13.446 -7.7627 -28.45 -3.74415q-15.007 4.01856 -22.769 17.4629l-119.938 157.312l-111.968 -157.312q-7.7617 -13.4443 -22.7656 -17.4629q-15.0079 -4.01855 -28.4532 3.74415
q-13.4414 7.76172 -17.4609 22.7685q-4.0195 15.0059 3.7422 28.4502l131.328 177.209l-131.328 188.384q-7.7617 13.445 -3.7422 28.467q4.0195 15.023 17.4609 22.783q8.2344 4.755 17.75 5z" />
    <glyph glyph-name="y" unicode="y" horiz-adv-x="432" 
d="M213.531 -187.542q-41.043 0 -78.586 12.749q-37.5388 12.749 -57.8825 35.064q-10.0781 10.47 -13.9766 14.947q-3.9023 4.477 -8.4648 13.816q-4.5586 9.339 -4.5586 19.1115q0 15.5254 10.9883 26.5127q10.9844 10.9873 26.5117 10.9873q12.418 0 22.2615 -7.3301
q9.84 -7.33 13.488 -18.8574q10.981 -15.4199 36.27 -23.944q25.285 -8.525 52.793 -8.525q53.953 0 83.133 35.387q29.18 35.3857 29.18 105.426q-38.657 -27.4375 -103.032 -27.4375q-90.441 0 -132.547 62.8076q-42.1094 62.8071 -42.1094 172.724l1.1562 202.687
q0 15.524 10.9883 26.513q10.9883 10.987 26.5117 10.987q15.5238 0 26.5118 -10.987q10.988 -10.989 10.988 -26.513l-1.531 -202.687q0 -83.857 21.793 -122.428q21.793 -38.5725 77.082 -38.5725q61.449 0 82.977 37.3275q21.523 37.327 21.523 123.673
l-0.843994 202.687q0 15.525 10.989 26.513q10.984 10.987 26.511 10.987q15.715 0 27.606 -11.076q11.89 -11.076 11.894 -26.424l0.343994 -358.594q0 -141.994 -45.473 -204.762q-45.476 -62.769 -142.496 -62.769z" />
    <glyph glyph-name="z" unicode="z" horiz-adv-x="402" 
d="M62.1719 469h215.875q60.555 0 79.953 -29.144q19.402 -29.143 -12.984 -69.356l-222.125 -292.906h203.937q15.524 0 26.512 -10.9874q10.988 -10.9873 10.988 -26.5126q0 -15.5254 -10.988 -26.5127q-10.985 -10.9874 -26.512 -10.9874h-223.875h-0.0310059
q-125.07 0 -64.9376 88.5001l228.094 302.906h-203.906q-15.5235 0 -26.5117 10.988q-10.9883 10.988 -10.9883 26.512t10.9883 26.513q10.9882 10.987 26.5117 10.987z" />
    <glyph glyph-name="braceleft" unicode="{" horiz-adv-x="430" 
d="M176.391 697.969h133.687q15.527 0 26.514 -10.988q10.986 -10.986 10.986 -26.512q0 -15.525 -10.988 -26.513q-10.988 -10.987 -26.512 -10.987h-97.5q-0.048996 -84.498 1.02 -141.247q1.06799 -56.748 -7.04501 -89.722q-8.114 -32.974 -30.27 -43
q22.578 -10.172 29.938 -34.096q7.35901 -23.924 7.21101 -80.869q-0.149002 -56.944 -0.854004 -157.941h97.5q15.527 0 26.514 -10.9874q10.986 -10.9873 10.986 -26.5126q0 -15.5245 -10.988 -26.5127q-10.988 -10.9874 -26.512 -10.9874h-133.687
q-14.653 0 -27.43 12.587q-10.936 10.7744 -11.383 27.1005q-0.307999 85.0918 0.0179901 138.028q0.326004 52.936 -2.47099 82.423t-8.744 39.877q-5.947 10.391 -18.803 10.391h-33.0624q-15.5254 0 -26.5117 10.987q-10.9863 10.988 -10.9883 26.513
q0 15.524 10.9883 26.513q10.9883 10.987 26.5117 10.987h33.0624q5.805 0 9.742 1.34299q3.938 1.34402 7.315 8.43503q3.37699 7.09097 5.363 13.143q1.98599 6.052 3.57201 24.768q1.586 18.718 2.282 33.392q0.694992 14.674 1.14799 48.931
q0.755997 57.156 0.516006 61.467q-2.28401 40.964 0.0619965 80.302q0.974991 16.333 11.736 27.64q11.467 12.048 27.077 12.048z" />
    <glyph glyph-name="bar" unicode="|" horiz-adv-x="346" 
d="M175.104 766.71q15.527 0 26.513 -10.987q10.987 -10.988 10.987 -26.513v-851.5q0 -15.527 -10.987 -26.513q-10.988 -10.987 -26.513 -10.987q-15.524 0 -26.512 10.987q-10.988 10.989 -10.988 26.513v851.5q0 15.5229 10.988 26.513q10.986 10.987 26.512 10.987z
" />
    <glyph glyph-name="braceright" unicode="}" horiz-adv-x="430" 
d="M239.609 697.969q15.61 0 27.077 -12.048q10.761 -11.307 11.736 -27.64q2.34601 -39.338 0.0620117 -80.302q-0.240021 -4.31097 0.515991 -61.467q0.453003 -34.257 1.14801 -48.931q0.695984 -14.674 2.28198 -33.392q1.586 -18.716 3.57202 -24.768
q1.98599 -6.052 5.36298 -13.143q3.37701 -7.091 7.315 -8.43503q3.93701 -1.34299 9.742 -1.34299h33.062q15.524 0 26.512 -10.987q10.988 -10.989 10.988 -26.513q-0.00201416 -15.525 -10.988 -26.513q-10.986 -10.987 -26.512 -10.987h-33.062
q-12.856 0 -18.803 -10.391q-5.94699 -10.39 -8.74399 -39.877t-2.47101 -82.423q0.326019 -52.936 0.0180054 -138.028q-0.446991 -16.3261 -11.383 -27.1005q-12.777 -12.587 -27.43 -12.587h-133.687q-15.5236 0 -26.5118 10.9874q-10.9883 10.9882 -10.9883 26.5127
q0 15.5253 10.9863 26.5126q10.9863 10.9874 26.5138 10.9874h97.5q-0.705002 100.997 -0.854004 157.941q-0.147995 56.945 7.21101 80.869q7.36 23.924 29.938 34.096q-22.156 10.026 -30.27 43q-8.11301 32.974 -7.04501 89.722q1.069 56.749 1.02 141.247h-97.5
q-15.5236 0 -26.5118 10.987q-10.9883 10.988 -10.9883 26.513q0 15.526 10.9863 26.512q10.9863 10.988 26.5138 10.988h133.687z" />
    <glyph glyph-name="brokenbar" unicode="&#xa6;" horiz-adv-x="130" 
d="M67.6328 653.721q15.5274 0 26.5137 -10.988q10.9865 -10.986 10.9865 -26.512v-207.5q0 -15.525 -10.9885 -26.513q-10.9883 -10.987 -26.5117 -10.987q-15.5234 0 -26.5117 10.987q-10.9883 10.988 -10.9883 26.513v207.5q0 15.526 10.9863 26.512
q10.9864 10.988 26.5137 10.988zM67.6328 283.721q15.5274 0 26.5137 -10.988q10.9865 -10.987 10.9865 -26.512v-207.5q0 -15.5244 -10.9885 -26.5127q-10.9883 -10.9873 -26.5117 -10.9873q-15.5234 0 -26.5117 10.9873q-10.9883 10.9883 -10.9883 26.5127v207.5
q0 15.525 10.9863 26.512q10.9864 10.988 26.5137 10.988z" />
    <glyph glyph-name="questiondown" unicode="&#xbf;" horiz-adv-x="524" 
d="M244.197 -1.54297q-38.318 0 -73.349 9.85059q-35.03 9.85058 -65.348 29.9424q-30.3164 20.0918 -48.4023 55.6406q-18.086 35.5484 -18.086 82.0974q0 158.157 149.375 158.157q38.701 0 57.754 8.52002q19.05 8.51999 29.148 36.234q10.098 27.714 10.098 83.746
q0 24.37 18.633 33.803q18.632 9.43399 37.265 -1.138q18.631 -10.573 18.631 -34.79q0 -61.542 -10.576 -101.57q-10.576 -40.026 -33.672 -61.602q-23.094 -21.576 -52.758 -29.702q-29.666 -8.12601 -74.523 -8.12601q-39.496 0 -56.873 -24.16
q-17.377 -24.16 -17.377 -56.465q0 -105.907 131.218 -105.907q83.36 0 105.211 12.3613q21.85 12.3604 21.85 66.1074q3.64603 11.527 13.488 18.857q9.84201 7.33101 22.262 7.33101q15.527 0 26.514 -10.988q10.988 -10.987 10.986 -26.512q0 -79.3911 -42.277 -110.54
q-42.28 -31.1485 -159.192 -31.1485zM285.248 670.437q0 15.525 10.986 26.512q10.989 10.988 26.514 10.988q15.523 0 26.512 -10.988q10.988 -10.988 10.988 -26.512q0 -15.525 -10.988 -26.512q-10.989 -10.988 -26.512 -10.988q-15.525 0 -26.514 10.987
q-10.986 10.987 -10.986 26.513z" />
    <glyph glyph-name="acute" unicode="&#xb4;" 
d="M328.975 695.021q7.99698 -13.308 4.23801 -28.384q-3.68201 -14.768 -17.067 -23.075l-182.987 -113.554q-13.005 -8.07001 -28.383 -4.23602q-15.0768 3.75903 -23.0739 17.066q-7.997 13.308 -4.2373 28.385q3.6827 14.767 17.0664 23.073l182.987 113.555
q13.005 8.07098 28.382 4.23596q15.078 -3.75897 23.075 -17.066z" />
    <glyph glyph-name="asciitilde" unicode="~" horiz-adv-x="438" 
d="M168.4 692.318q28.966 0 46.246 -8.56799q17.281 -8.56702 23.238 -20.797q5.957 -12.228 9.564 -24.457q3.608 -12.228 10.706 -20.797q7.099 -8.56799 21.183 -8.56799q13.199 0 16.271 5.40302q3.07401 5.40399 3.07401 28.284q-0.00100708 15.525 10.987 26.513
q10.988 10.987 26.513 10.987q15.524 0 26.512 -10.987q10.989 -10.988 10.988 -26.513q0 -57.981 -25.183 -83.1q-25.182 -25.118 -80.317 -25.118q-27.247 0 -43.581 8.56805q-16.333 8.56799 -21.957 20.797q-5.623 12.228 -8.912 24.457
q-3.28799 12.229 -9.50299 20.797q-6.213 8.56799 -18.672 8.56799q-10.502 0 -14.079 -10.378q-3.57899 -10.378 -3.578 -35.309q0.00100708 -15.525 -10.987 -26.512q-10.987 -10.988 -26.513 -10.988q-15.525 0 -26.5123 10.987q-10.9873 10.987 -10.9873 26.513
q0 120.218 95.4996 120.218z" />
    <glyph glyph-name="cedilla" unicode="&#xb8;" horiz-adv-x="278" 
d="M233.319 -33.7305q0 -51.2812 -31.374 -83.3905q-31.374 -32.109 -88.844 -32.109q-15.5248 0.000991821 -26.5121 10.989q-10.9883 10.987 -10.9883 26.511q0 15.5249 10.9883 26.5132q10.9873 10.9873 26.5121 10.9863q45.687 0 45.687 37.6563
q0 23.8838 -11.019 33.6142q-11.021 9.72949 -34.668 9.72949q-15.5239 0 -26.5121 10.9883q-10.9883 10.9883 -10.9883 26.5117q0 15.5244 10.9883 26.5127q10.9882 10.9883 26.5121 10.9873q58.213 0 89.216 -30.3037q31.002 -30.3047 31.002 -85.1963z" />
    <glyph glyph-name="dieresis" unicode="&#xa8;" horiz-adv-x="356" 
d="M304.723 629.637q0 -15.525 -10.989 -26.512q-10.987 -10.988 -26.511 -10.988q-15.526 0 -26.513 10.987q-10.987 10.988 -10.987 26.513q0 15.525 10.987 26.512q10.987 10.988 26.513 10.988q15.524 0 26.511 -10.988q10.989 -10.988 10.989 -26.512zM128.651 629.637
q0 -15.525 -10.987 -26.513q-10.987 -10.987 -26.5126 -10.987q-15.5254 0 -26.5127 10.987q-10.9873 10.988 -10.9873 26.513q0 15.525 10.9873 26.512q10.9873 10.988 26.5127 10.988q15.5256 0 26.5126 -10.988q10.987 -10.987 10.987 -26.512z" />
    <glyph glyph-name="circumflex" unicode="&#x2c6;" horiz-adv-x="436" 
d="M192.775 680.809q20.999 13.181 45.307 0l101.55 -92.034q13.448 -7.763 17.479 -22.767q4.03201 -15.003 -3.729 -28.451q-7.76199 -13.444 -22.783 -17.463q-15.022 -4.02002 -28.467 3.74402l-91.75 80.87l-91.844 -80.87q-13.445 -7.763 -28.4511 -3.74304
q-15.0058 4.01801 -22.7676 17.462q-7.7636 13.446 -3.7451 28.451q4.0186 15.006 17.4639 22.767z" />
    <glyph glyph-name="caron" unicode="&#x2c7;" horiz-adv-x="436" 
d="M195.775 513.191l-111.737 92.034q-13.4453 7.76105 -17.4639 22.767q-4.01851 15.005 3.74509 28.451q7.7618 13.444 22.7676 17.462q15.0061 4.01996 28.4511 -3.74304l91.844 -80.87l91.75 80.87q13.445 7.76404 28.467 3.74402q15.021 -4.01898 22.783 -17.463
q7.76102 -13.448 3.729 -28.451q-4.03101 -15.004 -17.479 -22.767l-101.55 -92.034q-24.308 -13.181 -45.307 0z" />
    <glyph glyph-name="ring" unicode="&#x2da;" horiz-adv-x="377" 
d="M183.324 754.75q52.369 0 82.454 -28.303q30.085 -28.302 32.796 -81.666q0.25 -2.15698 0.25 -4.375l-0.0310059 -2.25v-0.687012l0.0310059 -2.93799q0 -2.21802 -0.25 -4.375q-2.702 -53.373 -32.785 -81.671q-30.084 -28.297 -82.465 -28.297
q-48.689 0 -80.328 28.439q-31.6386 28.439 -34.828 80.873q-0.343796 2.60999 -0.343796 5.03101l0.0312958 2.18799v1.46899l-0.0312958 2.21802q0 2.37097 0.343796 4.96899q3.207 52.503 34.846 80.939q31.639 28.436 80.31 28.436zM180.48 680.219
q-36.41 0 -37.625 -42.719v-0.0310059q1.216 -42.75 37.625 -42.75q23.11 0 32.935 10.304q9.82501 10.305 10.378 32.289v0.281982q-0.552994 21.989 -10.38 32.307q-9.827 10.318 -32.933 10.318z" />
    <glyph glyph-name="breve" unicode="&#x2d8;" horiz-adv-x="324" 
d="M159.77 539.186q-51.283 0 -83.3911 31.374q-32.1094 31.374 -32.1094 88.844q0.000999451 15.526 10.9883 26.513t26.5117 10.987q15.5264 0 26.5135 -10.987q10.988 -10.986 10.987 -26.513q0 -45.687 37.656 -45.687q23.884 0 33.613 11.02q9.731 11.02 9.731 34.667
q-0.00100708 15.526 10.987 26.513q10.988 10.987 26.513 10.987q15.524 0 26.512 -10.987q10.989 -10.987 10.988 -26.513q0 -58.214 -30.305 -89.216t-85.195 -31.002z" />
    <glyph glyph-name="tilde" unicode="&#x2dc;" horiz-adv-x="438" 
d="M168.4 692.318q28.966 0 46.246 -8.56799q17.281 -8.56702 23.238 -20.797q5.957 -12.228 9.564 -24.457q3.608 -12.228 10.706 -20.797q7.099 -8.56799 21.183 -8.56799q13.199 0 16.271 5.40302q3.07401 5.40399 3.07401 28.284q-0.00100708 15.525 10.987 26.513
q10.988 10.987 26.513 10.987q15.524 0 26.512 -10.987q10.989 -10.988 10.988 -26.513q0 -57.981 -25.183 -83.1q-25.182 -25.118 -80.317 -25.118q-27.247 0 -43.581 8.56805q-16.333 8.56799 -21.957 20.797q-5.623 12.228 -8.912 24.457
q-3.28799 12.229 -9.50299 20.797q-6.213 8.56799 -18.672 8.56799q-10.502 0 -14.079 -10.378q-3.57899 -10.378 -3.578 -35.309q0.00100708 -15.525 -10.987 -26.512q-10.987 -10.988 -26.513 -10.988q-15.525 0 -26.5123 10.987q-10.9873 10.987 -10.9873 26.513
q0 120.218 95.4996 120.218z" />
    <glyph glyph-name="ogonek" unicode="&#x2db;" horiz-adv-x="265" 
d="M62 -33.7305q0 54.8916 31.002 85.1963q31.003 30.3037 89.217 30.3037q15.523 0.000999451 26.511 -10.9873q10.989 -10.9883 10.989 -26.5127q0 -15.5234 -10.989 -26.5117q-10.988 -10.9883 -26.511 -10.9883q-23.648 0 -34.668 -9.72949
q-11.02 -9.73044 -11.02 -33.6142q0 -37.6563 45.688 -37.6563q15.524 0.000999451 26.511 -10.9863q10.989 -10.9883 10.989 -26.5132q0 -15.524 -10.989 -26.511q-10.987 -10.988 -26.511 -10.989q-57.471 0 -88.845 32.109q-31.374 32.1093 -31.374 83.3905z" />
    <glyph glyph-name="hungarumlaut" unicode="&#x2dd;" horiz-adv-x="609" 
d="M328.975 695.021q7.99698 -13.308 4.23801 -28.384q-3.68201 -14.768 -17.067 -23.075l-182.987 -113.554q-13.005 -8.07001 -28.383 -4.23602q-15.0768 3.75903 -23.0739 17.066q-7.997 13.308 -4.2373 28.385q3.6827 14.767 17.0664 23.073l182.987 113.555
q13.005 8.07098 28.382 4.23596q15.078 -3.75897 23.075 -17.066zM575.329 695.021q7.99701 -13.308 4.23804 -28.384q-3.68103 -14.768 -17.067 -23.075l-182.986 -113.554q-13.005 -8.07001 -28.383 -4.23602q-15.077 3.75903 -23.074 17.066
q-7.99701 13.308 -4.23801 28.385q3.68301 14.767 17.067 23.073l182.986 113.555q13.006 8.07098 28.383 4.23596q15.077 -3.75897 23.074 -17.066z" />
    <glyph glyph-name="dotaccent" unicode="&#x2d9;" horiz-adv-x="181" 
d="M100 667.756q22.002 3.99902 40 -12q18 -18 18 -42v-8q0 -30 -26 -46q-28 -16 -54 0q-25.998 15.999 -26 46v8q0 9.99902 4 18q10.002 32 44 36z" />
    <glyph glyph-name="agrave" unicode="&#xe0;" 
d="M81.7383 695.021q7.99609 13.3066 23.0732 17.0654q15.3779 3.83496 28.3838 -4.23633l182.986 -113.555q13.3828 -8.30566 17.0664 -23.0732q3.75977 -15.0762 -4.23828 -28.3848q-7.99609 -13.3066 -23.0742 -17.0664q-15.377 -3.83398 -28.3828 4.23633
l-182.986 113.555q-13.3848 8.30664 -17.0664 23.0742q-3.75977 15.0762 4.23828 28.3848zM339.406 -13.207q-15.5254 0 -26.5117 10.9873q-10.9873 10.9873 -10.9883 26.5127v9.65625q-23.2617 -18.3408 -42.0869 -26.3574q-18.8252 -8.01758 -47.1631 -8.01758
q-78.0254 0 -122.342 61.4727q-44.3154 61.4746 -44.3145 166.059q0 116.913 40.4922 173.223q40.4912 56.3086 126.883 56.3086q81.3975 0 122.323 -59.4893q40.9258 -59.4883 40.9268 -170.042l0.28125 -202.812q-0.000976562 -15.5254 -10.9883 -26.5127
q-10.9863 -10.9873 -26.5117 -10.9873zM211.5 74.1055q52.0498 0 71.2744 34.6133q19.2246 34.6123 19.2256 118.387q0 155.156 -88.8438 155.156q-50.7021 0 -71.6172 -36.8301t-20.9141 -118.326q0 -79.7168 22.1338 -116.358t68.7412 -36.6416z" />
    <glyph glyph-name="aacute" unicode="&#xe1;" 
d="M356.975 695.021q7.99707 -13.3086 4.23828 -28.3848q-3.68164 -14.7676 -17.0664 -23.0742l-182.987 -113.555q-13.0049 -8.07031 -28.3828 -4.23633q-15.0771 3.75977 -23.0742 17.0664q-7.99707 13.3086 -4.2373 28.3848q3.68262 14.7676 17.0664 23.0732
l182.986 113.555q13.0059 8.07129 28.3828 4.23633q15.0771 -3.75879 23.0742 -17.0654zM339.406 -13.207q-15.5254 0 -26.5117 10.9873q-10.9873 10.9873 -10.9883 26.5127v9.65625q-23.2617 -18.3408 -42.0869 -26.3574q-18.8252 -8.01758 -47.1631 -8.01758
q-78.0254 0 -122.342 61.4727q-44.3154 61.4746 -44.3145 166.059q0 116.913 40.4922 173.223q40.4912 56.3086 126.883 56.3086q81.3975 0 122.323 -59.4893q40.9258 -59.4883 40.9268 -170.042l0.28125 -202.812q-0.000976562 -15.5254 -10.9883 -26.5127
q-10.9863 -10.9873 -26.5117 -10.9873zM211.5 74.1055q52.0498 0 71.2744 34.6133q19.2246 34.6123 19.2256 118.387q0 155.156 -88.8438 155.156q-50.7021 0 -71.6172 -36.8301t-20.9141 -118.326q0 -79.7168 22.1338 -116.358t68.7412 -36.6416z" />
    <glyph glyph-name="acircumflex" unicode="&#xe2;" 
d="M192.775 680.809q20.999 13.1816 45.3066 0l101.55 -92.0332q13.4482 -7.76367 17.4795 -22.7676q4.03125 -15.0029 -3.72949 -28.4512q-7.76172 -13.4434 -22.7832 -17.4629t-28.4668 3.74414l-91.75 80.8701l-91.8438 -80.8701q-13.4453 -7.7627 -28.4512 -3.74316
q-15.0059 4.01855 -22.7676 17.4619q-7.76367 13.4463 -3.74512 28.4512q4.01855 15.0059 17.4639 22.7676zM339.406 -13.207q-15.5254 0 -26.5117 10.9873q-10.9873 10.9873 -10.9883 26.5127v9.65625q-23.2617 -18.3408 -42.0869 -26.3574
q-18.8252 -8.01758 -47.1631 -8.01758q-78.0254 0 -122.342 61.4727q-44.3154 61.4746 -44.3145 166.059q0 116.913 40.4922 173.223q40.4912 56.3086 126.883 56.3086q81.3975 0 122.323 -59.4893q40.9258 -59.4883 40.9268 -170.042l0.28125 -202.812
q-0.000976562 -15.5254 -10.9883 -26.5127q-10.9863 -10.9873 -26.5117 -10.9873zM211.5 74.1055q52.0498 0 71.2744 34.6133q19.2246 34.6123 19.2256 118.387q0 155.156 -88.8438 155.156q-50.7021 0 -71.6172 -36.8301t-20.9141 -118.326q0 -79.7168 22.1338 -116.358
t68.7412 -36.6416z" />
    <glyph glyph-name="atilde" unicode="&#xe3;" 
d="M147.4 692.318q28.9658 0 46.2461 -8.56836q17.2803 -8.56738 23.2373 -20.7969q5.95703 -12.2285 9.56445 -24.457t10.7061 -20.7969t21.1826 -8.56836q13.1992 0 16.2715 5.40332q3.07324 5.40332 3.07324 28.2842q-0.000976562 15.5244 10.9873 26.5127
q10.9883 10.9873 26.5127 10.9873t26.5127 -10.9873q10.9883 -10.9883 10.9873 -26.5127q0 -57.9814 -25.1826 -83.1006q-25.1816 -25.1182 -80.3174 -25.1182q-27.2471 0 -43.5811 8.56836q-16.333 8.56836 -21.957 20.7969q-5.62207 12.2285 -8.91113 24.457
q-3.28809 12.2295 -9.50391 20.7969q-6.21289 8.56836 -18.6719 8.56836q-10.502 0 -14.0791 -10.3779q-3.57812 -10.3779 -3.57715 -35.3096q0.000976562 -15.5244 -10.9873 -26.5117q-10.9873 -10.9883 -26.5127 -10.9883t-26.5127 10.9873t-10.9873 26.5127
q0 120.219 95.5 120.219zM339.406 -13.207q-15.5254 0 -26.5117 10.9873q-10.9873 10.9873 -10.9883 26.5127v9.65625q-23.2617 -18.3408 -42.0869 -26.3574q-18.8252 -8.01758 -47.1631 -8.01758q-78.0254 0 -122.342 61.4727q-44.3154 61.4746 -44.3145 166.059
q0 116.913 40.4922 173.223q40.4912 56.3086 126.883 56.3086q81.3975 0 122.323 -59.4893q40.9258 -59.4883 40.9268 -170.042l0.28125 -202.812q-0.000976562 -15.5254 -10.9883 -26.5127q-10.9863 -10.9873 -26.5117 -10.9873zM211.5 74.1055q52.0498 0 71.2744 34.6133
q19.2246 34.6123 19.2256 118.387q0 155.156 -88.8438 155.156q-50.7021 0 -71.6172 -36.8301t-20.9141 -118.326q0 -79.7168 22.1338 -116.358t68.7412 -36.6416z" />
    <glyph glyph-name="adieresis" unicode="&#xe4;" 
d="M337.723 629.637q0 -15.5244 -10.9883 -26.5117q-10.9873 -10.9883 -26.5117 -10.9883q-15.5254 0 -26.5127 10.9873q-10.9873 10.9883 -10.9873 26.5127q0 15.5254 10.9873 26.5127t26.5127 10.9873q15.5244 0 26.5117 -10.9873q10.9883 -10.9883 10.9883 -26.5127z
M161.651 629.637q0 -15.5244 -10.9873 -26.5127q-10.9873 -10.9873 -26.5127 -10.9873t-26.5127 10.9873q-10.9873 10.9883 -10.9873 26.5127q0 15.5254 10.9873 26.5127t26.5127 10.9873t26.5127 -10.9873t10.9873 -26.5127zM339.406 -13.207q-15.5254 0 -26.5117 10.9873
q-10.9873 10.9873 -10.9883 26.5127v9.65625q-23.2617 -18.3408 -42.0869 -26.3574q-18.8252 -8.01758 -47.1631 -8.01758q-78.0254 0 -122.342 61.4727q-44.3154 61.4746 -44.3145 166.059q0 116.913 40.4922 173.223q40.4912 56.3086 126.883 56.3086
q81.3975 0 122.323 -59.4893q40.9258 -59.4883 40.9268 -170.042l0.28125 -202.812q-0.000976562 -15.5254 -10.9883 -26.5127q-10.9863 -10.9873 -26.5117 -10.9873zM211.5 74.1055q52.0498 0 71.2744 34.6133q19.2246 34.6123 19.2256 118.387q0 155.156 -88.8438 155.156
q-50.7021 0 -71.6172 -36.8301t-20.9141 -118.326q0 -79.7168 22.1338 -116.358t68.7412 -36.6416z" />
    <glyph glyph-name="aring" unicode="&#xe5;" 
d="M220.824 754.75q52.3691 0 82.4541 -28.3027t32.7959 -81.666q0.25 -2.15723 0.25 -4.375l-0.03125 -2.25v-0.6875l0.03125 -2.9375q0 -2.21875 -0.25 -4.375q-2.70215 -53.373 -32.7852 -81.6709q-30.084 -28.2979 -82.4648 -28.2979q-48.6895 0 -80.3281 28.4395
t-34.8281 80.873q-0.34375 2.61035 -0.34375 5.03125l0.03125 2.1875v1.46875l-0.03125 2.21875q0 2.37109 0.34375 4.96875q3.20703 52.5029 34.8457 80.9395q31.6396 28.4355 80.3105 28.4355zM217.98 680.219q-36.4102 0 -37.625 -42.7188v-0.03125
q1.21582 -42.75 37.625 -42.75q23.1094 0 32.9346 10.3047t10.3779 32.2891v0.28125q-0.552734 21.9893 -10.3799 32.3076q-9.82715 10.3174 -32.9326 10.3174zM339.406 -13.207q-15.5254 0 -26.5117 10.9873q-10.9873 10.9873 -10.9883 26.5127v9.65625
q-23.2617 -18.3408 -42.0869 -26.3574q-18.8252 -8.01758 -47.1631 -8.01758q-78.0254 0 -122.342 61.4727q-44.3154 61.4746 -44.3145 166.059q0 116.913 40.4922 173.223q40.4912 56.3086 126.883 56.3086q81.3975 0 122.323 -59.4893q40.9258 -59.4883 40.9268 -170.042
l0.28125 -202.812q-0.000976562 -15.5254 -10.9883 -26.5127q-10.9863 -10.9873 -26.5117 -10.9873zM211.5 74.1055q52.0498 0 71.2744 34.6133q19.2246 34.6123 19.2256 118.387q0 155.156 -88.8438 155.156q-50.7021 0 -71.6172 -36.8301t-20.9141 -118.326
q0 -79.7168 22.1338 -116.358t68.7412 -36.6416z" />
    <glyph glyph-name="amacron" unicode="&#x101;" 
d="M339.406 -13.207q-15.5254 0 -26.5117 10.9873q-10.9873 10.9873 -10.9883 26.5127v9.65625q-23.2617 -18.3408 -42.0869 -26.3574q-18.8252 -8.01758 -47.1631 -8.01758q-78.0254 0 -122.342 61.4727q-44.3154 61.4746 -44.3145 166.059q0 116.913 40.4922 173.223
q40.4912 56.3086 126.883 56.3086q81.3975 0 122.323 -59.4893q40.9258 -59.4883 40.9268 -170.042l0.28125 -202.812q-0.000976562 -15.5254 -10.9883 -26.5127q-10.9863 -10.9873 -26.5117 -10.9873zM211.5 74.1055q52.0498 0 71.2744 34.6133
q19.2246 34.6123 19.2256 118.387q0 155.156 -88.8438 155.156q-50.7021 0 -71.6172 -36.8301t-20.9141 -118.326q0 -79.7168 22.1338 -116.358t68.7412 -36.6416z" />
    <glyph glyph-name="abreve" unicode="&#x103;" 
d="M213.77 539.186q-51.2822 0 -83.3906 31.374q-32.1094 31.374 -32.1094 88.8447q0.000976562 15.5254 10.9883 26.5127t26.5117 10.9873q15.5264 0 26.5137 -10.9873q10.9883 -10.9863 10.9863 -26.5127q0 -45.6875 37.6562 -45.6875q23.8838 0 33.6133 11.0205
q9.73047 11.0195 9.73047 34.667q-0.000976562 15.5254 10.9873 26.5127t26.5127 10.9873t26.5127 -10.9873q10.9893 -10.9873 10.9873 -26.5127q0 -58.2139 -30.3047 -89.2168q-30.3047 -31.002 -85.1953 -31.002zM339.406 -13.207q-15.5254 0 -26.5117 10.9873
q-10.9873 10.9873 -10.9883 26.5127v9.65625q-23.2617 -18.3408 -42.0869 -26.3574q-18.8252 -8.01758 -47.1631 -8.01758q-78.0254 0 -122.342 61.4727q-44.3154 61.4746 -44.3145 166.059q0 116.913 40.4922 173.223q40.4912 56.3086 126.883 56.3086
q81.3975 0 122.323 -59.4893q40.9258 -59.4883 40.9268 -170.042l0.28125 -202.812q-0.000976562 -15.5254 -10.9883 -26.5127q-10.9863 -10.9873 -26.5117 -10.9873zM211.5 74.1055q52.0498 0 71.2744 34.6133q19.2246 34.6123 19.2256 118.387q0 155.156 -88.8438 155.156
q-50.7021 0 -71.6172 -36.8301t-20.9141 -118.326q0 -79.7168 22.1338 -116.358t68.7412 -36.6416z" />
    <glyph glyph-name="aogonek" unicode="&#x105;" 
d="M228.5 -33.7305q0 54.8916 31.002 85.1963q31.0029 30.3037 89.2168 30.3037q15.5234 0.000976562 26.5117 -10.9873t10.9883 -26.5127q0 -15.5234 -10.9883 -26.5117t-26.5117 -10.9883q-23.6475 0 -34.668 -9.72949q-11.0195 -9.73047 -11.0195 -33.6143
q0 -37.6562 45.6875 -37.6562q15.5244 0.000976562 26.5117 -10.9863q10.9883 -10.9883 10.9883 -26.5137q0 -15.5234 -10.9883 -26.5107q-10.9873 -10.9873 -26.5117 -10.9893q-57.4707 0 -88.8447 32.1094t-31.374 83.3906zM339.406 -13.207q-15.5254 0 -26.5117 10.9873
q-10.9873 10.9873 -10.9883 26.5127v9.65625q-23.2617 -18.3408 -42.0869 -26.3574q-18.8252 -8.01758 -47.1631 -8.01758q-78.0254 0 -122.342 61.4727q-44.3154 61.4746 -44.3145 166.059q0 116.913 40.4922 173.223q40.4912 56.3086 126.883 56.3086
q81.3975 0 122.323 -59.4893q40.9258 -59.4883 40.9268 -170.042l0.28125 -202.812q-0.000976562 -15.5254 -10.9883 -26.5127q-10.9863 -10.9873 -26.5117 -10.9873zM211.5 74.1055q52.0498 0 71.2744 34.6133q19.2246 34.6123 19.2256 118.387q0 155.156 -88.8438 155.156
q-50.7021 0 -71.6172 -36.8301t-20.9141 -118.326q0 -79.7168 22.1338 -116.358t68.7412 -36.6416z" />
    <glyph glyph-name="uni01CE" unicode="&#x1ce;" 
d="M195.775 513.191l-111.737 92.0332q-13.4453 7.76172 -17.4639 22.7676q-4.01855 15.0049 3.74512 28.4512q7.76172 13.4434 22.7676 17.4619q15.0059 4.01953 28.4512 -3.74316l91.8438 -80.8701l91.75 80.8701q13.4453 7.76367 28.4668 3.74414t22.7832 -17.4629
q7.76074 -13.4482 3.72949 -28.4512q-4.03125 -15.0039 -17.4795 -22.7676l-101.55 -92.0332q-24.3076 -13.1816 -45.3066 0zM339.406 -13.207q-15.5254 0 -26.5117 10.9873q-10.9873 10.9873 -10.9883 26.5127v9.65625q-23.2617 -18.3408 -42.0869 -26.3574
q-18.8252 -8.01758 -47.1631 -8.01758q-78.0254 0 -122.342 61.4727q-44.3154 61.4746 -44.3145 166.059q0 116.913 40.4922 173.223q40.4912 56.3086 126.883 56.3086q81.3975 0 122.323 -59.4893q40.9258 -59.4883 40.9268 -170.042l0.28125 -202.812
q-0.000976562 -15.5254 -10.9883 -26.5127q-10.9863 -10.9873 -26.5117 -10.9873zM211.5 74.1055q52.0498 0 71.2744 34.6133q19.2246 34.6123 19.2256 118.387q0 155.156 -88.8438 155.156q-50.7021 0 -71.6172 -36.8301t-20.9141 -118.326q0 -79.7168 22.1338 -116.358
t68.7412 -36.6416z" />
    <glyph glyph-name="aringacute" unicode="&#x1fb;" 
d="M208.824 754.75q52.3691 0 82.4541 -28.3027t32.7959 -81.666q0.25 -2.15723 0.25 -4.375l-0.03125 -2.25v-0.6875l0.03125 -2.9375q0 -2.21875 -0.25 -4.375q-2.70215 -53.373 -32.7852 -81.6709q-30.084 -28.2979 -82.4648 -28.2979q-48.6895 0 -80.3281 28.4395
t-34.8281 80.873q-0.34375 2.61035 -0.34375 5.03125l0.03125 2.1875v1.46875l-0.03125 2.21875q0 2.37109 0.34375 4.96875q3.20703 52.5029 34.8457 80.9395q31.6396 28.4355 80.3105 28.4355zM205.98 680.219q-36.4102 0 -37.625 -42.7188v-0.03125
q1.21582 -42.75 37.625 -42.75q23.1094 0 32.9346 10.3047t10.3779 32.2891v0.28125q-0.552734 21.9893 -10.3799 32.3076q-9.82715 10.3174 -32.9326 10.3174zM339.406 -13.207q-15.5254 0 -26.5117 10.9873q-10.9873 10.9873 -10.9883 26.5127v9.65625
q-23.2617 -18.3408 -42.0869 -26.3574q-18.8252 -8.01758 -47.1631 -8.01758q-78.0254 0 -122.342 61.4727q-44.3154 61.4746 -44.3145 166.059q0 116.913 40.4922 173.223q40.4912 56.3086 126.883 56.3086q81.3975 0 122.323 -59.4893q40.9258 -59.4883 40.9268 -170.042
l0.28125 -202.812q-0.000976562 -15.5254 -10.9883 -26.5127q-10.9863 -10.9873 -26.5117 -10.9873zM211.5 74.1055q52.0498 0 71.2744 34.6133q19.2246 34.6123 19.2256 118.387q0 155.156 -88.8438 155.156q-50.7021 0 -71.6172 -36.8301t-20.9141 -118.326
q0 -79.7168 22.1338 -116.358t68.7412 -36.6416z" />
    <glyph glyph-name="aeacute" unicode="&#x1fd;" 
d="M339.406 -13.207q-15.5254 0 -26.5117 10.9873q-10.9873 10.9873 -10.9883 26.5127v9.65625q-23.2617 -18.3408 -42.0869 -26.3574q-18.8252 -8.01758 -47.1631 -8.01758q-78.0254 0 -122.342 61.4727q-44.3154 61.4746 -44.3145 166.059q0 116.913 40.4922 173.223
q40.4912 56.3086 126.883 56.3086q81.3975 0 122.323 -59.4893q40.9258 -59.4883 40.9268 -170.042l0.28125 -202.812q-0.000976562 -15.5254 -10.9883 -26.5127q-10.9863 -10.9873 -26.5117 -10.9873zM211.5 74.1055q52.0498 0 71.2744 34.6133
q19.2246 34.6123 19.2256 118.387q0 155.156 -88.8438 155.156q-50.7021 0 -71.6172 -36.8301t-20.9141 -118.326q0 -79.7168 22.1338 -116.358t68.7412 -36.6416z" />
    <glyph glyph-name="uni0201" unicode="&#x201;" 
d="M339.406 -13.207q-15.5254 0 -26.5117 10.9873q-10.9873 10.9873 -10.9883 26.5127v9.65625q-23.2617 -18.3408 -42.0869 -26.3574q-18.8252 -8.01758 -47.1631 -8.01758q-78.0254 0 -122.342 61.4727q-44.3154 61.4746 -44.3145 166.059q0 116.913 40.4922 173.223
q40.4912 56.3086 126.883 56.3086q81.3975 0 122.323 -59.4893q40.9258 -59.4883 40.9268 -170.042l0.28125 -202.812q-0.000976562 -15.5254 -10.9883 -26.5127q-10.9863 -10.9873 -26.5117 -10.9873zM211.5 74.1055q52.0498 0 71.2744 34.6133
q19.2246 34.6123 19.2256 118.387q0 155.156 -88.8438 155.156q-50.7021 0 -71.6172 -36.8301t-20.9141 -118.326q0 -79.7168 22.1338 -116.358t68.7412 -36.6416z" />
    <glyph glyph-name="uni0203" unicode="&#x203;" 
d="M339.406 -13.207q-15.5254 0 -26.5117 10.9873q-10.9873 10.9873 -10.9883 26.5127v9.65625q-23.2617 -18.3408 -42.0869 -26.3574q-18.8252 -8.01758 -47.1631 -8.01758q-78.0254 0 -122.342 61.4727q-44.3154 61.4746 -44.3145 166.059q0 116.913 40.4922 173.223
q40.4912 56.3086 126.883 56.3086q81.3975 0 122.323 -59.4893q40.9258 -59.4883 40.9268 -170.042l0.28125 -202.812q-0.000976562 -15.5254 -10.9883 -26.5127q-10.9863 -10.9873 -26.5117 -10.9873zM211.5 74.1055q52.0498 0 71.2744 34.6133
q19.2246 34.6123 19.2256 118.387q0 155.156 -88.8438 155.156q-50.7021 0 -71.6172 -36.8301t-20.9141 -118.326q0 -79.7168 22.1338 -116.358t68.7412 -36.6416z" />
    <glyph glyph-name="uni01DF" unicode="&#x1df;" 
d="M339.406 -13.207q-15.5254 0 -26.5117 10.9873q-10.9873 10.9873 -10.9883 26.5127v9.65625q-23.2617 -18.3408 -42.0869 -26.3574q-18.8252 -8.01758 -47.1631 -8.01758q-78.0254 0 -122.342 61.4727q-44.3154 61.4746 -44.3145 166.059q0 116.913 40.4922 173.223
q40.4912 56.3086 126.883 56.3086q81.3975 0 122.323 -59.4893q40.9258 -59.4883 40.9268 -170.042l0.28125 -202.812q-0.000976562 -15.5254 -10.9883 -26.5127q-10.9863 -10.9873 -26.5117 -10.9873zM211.5 74.1055q52.0498 0 71.2744 34.6133
q19.2246 34.6123 19.2256 118.387q0 155.156 -88.8438 155.156q-50.7021 0 -71.6172 -36.8301t-20.9141 -118.326q0 -79.7168 22.1338 -116.358t68.7412 -36.6416z" />
    <glyph glyph-name="uni01E1" unicode="&#x1e1;" 
d="M339.406 -13.207q-15.5254 0 -26.5117 10.9873q-10.9873 10.9873 -10.9883 26.5127v9.65625q-23.2617 -18.3408 -42.0869 -26.3574q-18.8252 -8.01758 -47.1631 -8.01758q-78.0254 0 -122.342 61.4727q-44.3154 61.4746 -44.3145 166.059q0 116.913 40.4922 173.223
q40.4912 56.3086 126.883 56.3086q81.3975 0 122.323 -59.4893q40.9258 -59.4883 40.9268 -170.042l0.28125 -202.812q-0.000976562 -15.5254 -10.9883 -26.5127q-10.9863 -10.9873 -26.5117 -10.9873zM211.5 74.1055q52.0498 0 71.2744 34.6133
q19.2246 34.6123 19.2256 118.387q0 155.156 -88.8438 155.156q-50.7021 0 -71.6172 -36.8301t-20.9141 -118.326q0 -79.7168 22.1338 -116.358t68.7412 -36.6416z" />
    <glyph glyph-name="uni01E3" unicode="&#x1e3;" 
d="M339.406 -13.207q-15.5254 0 -26.5117 10.9873q-10.9873 10.9873 -10.9883 26.5127v9.65625q-23.2617 -18.3408 -42.0869 -26.3574q-18.8252 -8.01758 -47.1631 -8.01758q-78.0254 0 -122.342 61.4727q-44.3154 61.4746 -44.3145 166.059q0 116.913 40.4922 173.223
q40.4912 56.3086 126.883 56.3086q81.3975 0 122.323 -59.4893q40.9258 -59.4883 40.9268 -170.042l0.28125 -202.812q-0.000976562 -15.5254 -10.9883 -26.5127q-10.9863 -10.9873 -26.5117 -10.9873zM211.5 74.1055q52.0498 0 71.2744 34.6133
q19.2246 34.6123 19.2256 118.387q0 155.156 -88.8438 155.156q-50.7021 0 -71.6172 -36.8301t-20.9141 -118.326q0 -79.7168 22.1338 -116.358t68.7412 -36.6416z" />
    <glyph glyph-name="uni0227" unicode="&#x227;" 
d="M230 667.756q22.002 3.99902 40 -12q18 -18 18 -42v-8q0 -30 -26 -46q-28 -16 -54 0q-25.998 15.999 -26 46v8q0 9.99902 4 18q10.002 32 44 36zM339.406 -13.207q-15.5254 0 -26.5117 10.9873q-10.9873 10.9873 -10.9883 26.5127v9.65625
q-23.2617 -18.3408 -42.0869 -26.3574q-18.8252 -8.01758 -47.1631 -8.01758q-78.0254 0 -122.342 61.4727q-44.3154 61.4746 -44.3145 166.059q0 116.913 40.4922 173.223q40.4912 56.3086 126.883 56.3086q81.3975 0 122.323 -59.4893q40.9258 -59.4883 40.9268 -170.042
l0.28125 -202.812q-0.000976562 -15.5254 -10.9883 -26.5127q-10.9863 -10.9873 -26.5117 -10.9873zM211.5 74.1055q52.0498 0 71.2744 34.6133q19.2246 34.6123 19.2256 118.387q0 155.156 -88.8438 155.156q-50.7021 0 -71.6172 -36.8301t-20.9141 -118.326
q0 -79.7168 22.1338 -116.358t68.7412 -36.6416z" />
    <glyph glyph-name="ae" unicode="&#xe6;" horiz-adv-x="710" 
d="M485.469 458.188q90.2871 0 127.939 -61.502q37.6543 -61.502 37.6543 -176.497q0 -15.5264 -10.9883 -26.5137q-10.9863 -10.9863 -26.5117 -10.9863h-236.281q4.67578 -58.1533 37.6504 -94.999q32.9756 -36.8457 71.6934 -36.8457q34.4014 0 56.3643 5.50195
q21.9629 5.50293 29.8447 12.4033q7.88281 6.90137 19.2695 14.834q11.3848 7.93262 25.084 11.167q14.8604 0 24.1797 -12.54q9.31836 -12.54 9.32031 -28.96q0 -39.293 -46.2188 -58.1152t-119 -18.8223q-69.8418 0 -125.338 69.0049q-57.1152 71.0195 -58.6309 171.339
q-1.55762 103.075 50.4609 173.355q50.46 68.1758 133.508 68.1758zM482.625 377.656q-46.6094 0 -70.8887 -30.9736q-24.2783 -30.9736 -32.4863 -88.9951h198.656q-5.85938 119.969 -95.2812 119.969zM339.406 -13.207q-15.5254 0 -26.5117 10.9873
q-10.9873 10.9873 -10.9883 26.5127v9.65625q-23.2617 -18.3408 -42.0869 -26.3574q-18.8252 -8.01758 -47.1631 -8.01758q-78.0254 0 -122.342 61.4727q-44.3154 61.4746 -44.3145 166.059q0 116.913 40.4922 173.223q40.4912 56.3086 126.883 56.3086
q81.3975 0 122.323 -59.4893q40.9258 -59.4883 40.9268 -170.042l0.28125 -202.812q-0.000976562 -15.5254 -10.9883 -26.5127q-10.9863 -10.9873 -26.5117 -10.9873zM211.5 74.1055q52.0498 0 71.2744 34.6133q19.2246 34.6123 19.2256 118.387q0 155.156 -88.8438 155.156
q-50.7021 0 -71.6172 -36.8301t-20.9141 -118.326q0 -79.7168 22.1338 -116.358t68.7412 -36.6416z" />
    <glyph glyph-name="egrave" unicode="&#xe8;" horiz-adv-x="438" 
d="M81.7383 695.021q7.99609 13.3066 23.0732 17.0654q15.3779 3.83496 28.3838 -4.23633l182.986 -113.555q13.3828 -8.30566 17.0664 -23.0732q3.75977 -15.0762 -4.23828 -28.3848q-7.99609 -13.3066 -23.0742 -17.0664q-15.377 -3.83398 -28.3828 4.23633
l-182.986 113.555q-13.3848 8.30664 -17.0664 23.0742q-3.75977 15.0762 4.23828 28.3848zM225.969 479.188q90.2871 0 127.939 -61.502q37.6543 -61.502 37.6543 -176.497q0 -15.5264 -10.9883 -26.5137q-10.9863 -10.9863 -26.5117 -10.9863h-236.281
q4.67578 -58.1533 37.6504 -94.999q32.9756 -36.8457 71.6934 -36.8457q34.4014 0 56.3643 5.50195q21.9629 5.50293 29.8447 12.4033q7.88281 6.90137 19.2686 14.834t25.085 11.167q14.8604 0 24.1797 -12.54q9.31836 -12.54 9.32031 -28.96q0 -39.293 -46.2188 -58.1152
t-119 -18.8223q-69.8418 0 -125.338 69.0049q-57.1152 71.0195 -58.6309 171.339q-1.55762 103.075 50.4609 173.355q50.46 68.1758 133.508 68.1758zM223.125 398.656q-46.6094 0 -70.8887 -30.9736q-24.2783 -30.9736 -32.4863 -88.9951h198.656
q-5.85938 119.969 -95.2812 119.969z" />
    <glyph glyph-name="eacute" unicode="&#xe9;" horiz-adv-x="438" 
d="M330.975 695.021q7.99707 -13.3086 4.23828 -28.3848q-3.68164 -14.7676 -17.0664 -23.0742l-182.987 -113.555q-13.0049 -8.07031 -28.3828 -4.23633q-15.0771 3.75977 -23.0742 17.0664q-7.99707 13.3086 -4.2373 28.3848q3.68262 14.7676 17.0664 23.0732
l182.986 113.555q13.0059 8.07129 28.3828 4.23633q15.0771 -3.75879 23.0742 -17.0654zM225.969 479.188q90.2871 0 127.939 -61.502q37.6543 -61.502 37.6543 -176.497q0 -15.5264 -10.9883 -26.5137q-10.9863 -10.9863 -26.5117 -10.9863h-236.281
q4.67578 -58.1533 37.6504 -94.999q32.9756 -36.8457 71.6934 -36.8457q34.4014 0 56.3643 5.50195q21.9629 5.50293 29.8447 12.4033q7.88281 6.90137 19.2686 14.834t25.085 11.167q14.8604 0 24.1797 -12.54q9.31836 -12.54 9.32031 -28.96q0 -39.293 -46.2188 -58.1152
t-119 -18.8223q-69.8418 0 -125.338 69.0049q-57.1152 71.0195 -58.6309 171.339q-1.55762 103.075 50.4609 173.355q50.46 68.1758 133.508 68.1758zM223.125 398.656q-46.6094 0 -70.8887 -30.9736q-24.2783 -30.9736 -32.4863 -88.9951h198.656
q-5.85938 119.969 -95.2812 119.969z" />
    <glyph glyph-name="ecircumflex" unicode="&#xea;" horiz-adv-x="438" 
d="M192.775 680.809q20.999 13.1816 45.3066 0l101.55 -92.0332q13.4482 -7.76367 17.4795 -22.7676q4.03125 -15.0029 -3.72949 -28.4512q-7.76172 -13.4434 -22.7832 -17.4629t-28.4668 3.74414l-91.75 80.8701l-91.8438 -80.8701q-13.4453 -7.7627 -28.4512 -3.74316
q-15.0059 4.01855 -22.7676 17.4619q-7.76367 13.4463 -3.74512 28.4512q4.01855 15.0059 17.4639 22.7676zM225.969 479.188q90.2871 0 127.939 -61.502q37.6543 -61.502 37.6543 -176.497q0 -15.5264 -10.9883 -26.5137q-10.9863 -10.9863 -26.5117 -10.9863h-236.281
q4.67578 -58.1533 37.6504 -94.999q32.9756 -36.8457 71.6934 -36.8457q34.4014 0 56.3643 5.50195q21.9629 5.50293 29.8447 12.4033q7.88281 6.90137 19.2686 14.834t25.085 11.167q14.8604 0 24.1797 -12.54q9.31836 -12.54 9.32031 -28.96q0 -39.293 -46.2188 -58.1152
t-119 -18.8223q-69.8418 0 -125.338 69.0049q-57.1152 71.0195 -58.6309 171.339q-1.55762 103.075 50.4609 173.355q50.46 68.1758 133.508 68.1758zM223.125 398.656q-46.6094 0 -70.8887 -30.9736q-24.2783 -30.9736 -32.4863 -88.9951h198.656
q-5.85938 119.969 -95.2812 119.969z" />
    <glyph glyph-name="edieresis" unicode="&#xeb;" horiz-adv-x="438" 
d="M354.723 629.637q0 -15.5244 -10.9883 -26.5117q-10.9873 -10.9883 -26.5117 -10.9883q-15.5254 0 -26.5127 10.9873q-10.9873 10.9883 -10.9873 26.5127q0 15.5254 10.9873 26.5127t26.5127 10.9873q15.5244 0 26.5117 -10.9873q10.9883 -10.9883 10.9883 -26.5127z
M178.651 629.637q0 -15.5244 -10.9873 -26.5127q-10.9873 -10.9873 -26.5127 -10.9873t-26.5127 10.9873q-10.9873 10.9883 -10.9873 26.5127q0 15.5254 10.9873 26.5127t26.5127 10.9873t26.5127 -10.9873t10.9873 -26.5127zM225.969 479.188q90.2871 0 127.939 -61.502
q37.6543 -61.502 37.6543 -176.497q0 -15.5264 -10.9883 -26.5137q-10.9863 -10.9863 -26.5117 -10.9863h-236.281q4.67578 -58.1533 37.6504 -94.999q32.9756 -36.8457 71.6934 -36.8457q34.4014 0 56.3643 5.50195q21.9629 5.50293 29.8447 12.4033
q7.88281 6.90137 19.2686 14.834t25.085 11.167q14.8604 0 24.1797 -12.54q9.31836 -12.54 9.32031 -28.96q0 -39.293 -46.2188 -58.1152t-119 -18.8223q-69.8418 0 -125.338 69.0049q-57.1152 71.0195 -58.6309 171.339q-1.55762 103.075 50.4609 173.355
q50.46 68.1758 133.508 68.1758zM223.125 398.656q-46.6094 0 -70.8887 -30.9736q-24.2783 -30.9736 -32.4863 -88.9951h198.656q-5.85938 119.969 -95.2812 119.969z" />
    <glyph glyph-name="emacron" unicode="&#x113;" horiz-adv-x="438" 
d="M225.969 479.188q90.2871 0 127.939 -61.502q37.6543 -61.502 37.6543 -176.497q0 -15.5264 -10.9883 -26.5137q-10.9863 -10.9863 -26.5117 -10.9863h-236.281q4.67578 -58.1533 37.6504 -94.999q32.9756 -36.8457 71.6934 -36.8457q34.4014 0 56.3643 5.50195
q21.9629 5.50293 29.8447 12.4033q7.88281 6.90137 19.2686 14.834t25.085 11.167q14.8604 0 24.1797 -12.54q9.31836 -12.54 9.32031 -28.96q0 -39.293 -46.2188 -58.1152t-119 -18.8223q-69.8418 0 -125.338 69.0049q-57.1152 71.0195 -58.6309 171.339
q-1.55762 103.075 50.4609 173.355q50.46 68.1758 133.508 68.1758zM223.125 398.656q-46.6094 0 -70.8887 -30.9736q-24.2783 -30.9736 -32.4863 -88.9951h198.656q-5.85938 119.969 -95.2812 119.969z" />
    <glyph glyph-name="ebreve" unicode="&#x115;" horiz-adv-x="438" 
d="M223.77 539.186q-51.2822 0 -83.3906 31.374q-32.1094 31.374 -32.1094 88.8447q0.000976562 15.5254 10.9883 26.5127t26.5117 10.9873q15.5264 0 26.5137 -10.9873q10.9883 -10.9863 10.9863 -26.5127q0 -45.6875 37.6562 -45.6875q23.8838 0 33.6133 11.0205
q9.73047 11.0195 9.73047 34.667q-0.000976562 15.5254 10.9873 26.5127t26.5127 10.9873t26.5127 -10.9873q10.9893 -10.9873 10.9873 -26.5127q0 -58.2139 -30.3047 -89.2168q-30.3047 -31.002 -85.1953 -31.002zM225.969 479.188q90.2871 0 127.939 -61.502
q37.6543 -61.502 37.6543 -176.497q0 -15.5264 -10.9883 -26.5137q-10.9863 -10.9863 -26.5117 -10.9863h-236.281q4.67578 -58.1533 37.6504 -94.999q32.9756 -36.8457 71.6934 -36.8457q34.4014 0 56.3643 5.50195q21.9629 5.50293 29.8447 12.4033
q7.88281 6.90137 19.2686 14.834t25.085 11.167q14.8604 0 24.1797 -12.54q9.31836 -12.54 9.32031 -28.96q0 -39.293 -46.2188 -58.1152t-119 -18.8223q-69.8418 0 -125.338 69.0049q-57.1152 71.0195 -58.6309 171.339q-1.55762 103.075 50.4609 173.355
q50.46 68.1758 133.508 68.1758zM223.125 398.656q-46.6094 0 -70.8887 -30.9736q-24.2783 -30.9736 -32.4863 -88.9951h198.656q-5.85938 119.969 -95.2812 119.969z" />
    <glyph glyph-name="edotaccent" unicode="&#x117;" horiz-adv-x="438" 
d="M230 667.756q22.002 3.99902 40 -12q18 -18 18 -42v-8q0 -30 -26 -46q-28 -16 -54 0q-25.998 15.999 -26 46v8q0 9.99902 4 18q10.002 32 44 36zM225.969 479.188q90.2871 0 127.939 -61.502q37.6543 -61.502 37.6543 -176.497q0 -15.5264 -10.9883 -26.5137
q-10.9863 -10.9863 -26.5117 -10.9863h-236.281q4.67578 -58.1533 37.6504 -94.999q32.9756 -36.8457 71.6934 -36.8457q34.4014 0 56.3643 5.50195q21.9629 5.50293 29.8447 12.4033q7.88281 6.90137 19.2686 14.834t25.085 11.167q14.8604 0 24.1797 -12.54
q9.31836 -12.54 9.32031 -28.96q0 -39.293 -46.2188 -58.1152t-119 -18.8223q-69.8418 0 -125.338 69.0049q-57.1152 71.0195 -58.6309 171.339q-1.55762 103.075 50.4609 173.355q50.46 68.1758 133.508 68.1758zM223.125 398.656q-46.6094 0 -70.8887 -30.9736
q-24.2783 -30.9736 -32.4863 -88.9951h198.656q-5.85938 119.969 -95.2812 119.969z" />
    <glyph glyph-name="eogonek" unicode="&#x119;" horiz-adv-x="438" 
d="M218 -33.7305q0 54.8916 31.002 85.1963q31.0029 30.3037 89.2168 30.3037q15.5234 0.000976562 26.5117 -10.9873t10.9883 -26.5127q0 -15.5234 -10.9883 -26.5117t-26.5117 -10.9883q-23.6475 0 -34.668 -9.72949q-11.0195 -9.73047 -11.0195 -33.6143
q0 -37.6562 45.6875 -37.6562q15.5244 0.000976562 26.5117 -10.9863q10.9883 -10.9883 10.9883 -26.5137q0 -15.5234 -10.9883 -26.5107q-10.9873 -10.9873 -26.5117 -10.9893q-57.4707 0 -88.8447 32.1094t-31.374 83.3906zM225.969 479.188q90.2871 0 127.939 -61.502
q37.6543 -61.502 37.6543 -176.497q0 -15.5264 -10.9883 -26.5137q-10.9863 -10.9863 -26.5117 -10.9863h-236.281q4.67578 -58.1533 37.6504 -94.999q32.9756 -36.8457 71.6934 -36.8457q34.4014 0 56.3643 5.50195q21.9629 5.50293 29.8447 12.4033
q7.88281 6.90137 19.2686 14.834t25.085 11.167q14.8604 0 24.1797 -12.54q9.31836 -12.54 9.32031 -28.96q0 -39.293 -46.2188 -58.1152t-119 -18.8223q-69.8418 0 -125.338 69.0049q-57.1152 71.0195 -58.6309 171.339q-1.55762 103.075 50.4609 173.355
q50.46 68.1758 133.508 68.1758zM223.125 398.656q-46.6094 0 -70.8887 -30.9736q-24.2783 -30.9736 -32.4863 -88.9951h198.656q-5.85938 119.969 -95.2812 119.969z" />
    <glyph glyph-name="dotlessi" unicode="&#x131;" horiz-adv-x="172" 
d="M92.7178 476.062q15.5252 0 26.5122 -10.987q10.988 -10.987 10.988 -26.513v-401.5q0.000991821 -15.5244 -10.987 -26.5117q-10.988 -10.9883 -26.5132 -10.9883q-15.5244 0 -26.5117 10.9883q-10.9883 10.9873 -10.9883 26.5117v401.5
q0.000999451 15.526 10.9883 26.513q10.9873 10.987 26.5117 10.987z" />
    <glyph glyph-name="igrave" unicode="&#xec;" horiz-adv-x="172" 
d="M-22.2617 695.021q7.99609 13.3066 23.0732 17.0654q15.3779 3.83496 28.3838 -4.23633l182.986 -113.555q13.3828 -8.30566 17.0664 -23.0732q3.75977 -15.0762 -4.23828 -28.3848q-7.99609 -13.3066 -23.0742 -17.0664q-15.377 -3.83398 -28.3828 4.23633
l-182.986 113.555q-13.3848 8.30664 -17.0664 23.0742q-3.75977 15.0762 4.23828 28.3848zM92.7178 476.062q15.5254 0 26.5127 -10.9873t10.9873 -26.5127v-401.5q0.000976562 -15.5244 -10.9863 -26.5117q-10.9883 -10.9883 -26.5137 -10.9883
q-15.5244 0 -26.5117 10.9883q-10.9883 10.9873 -10.9883 26.5117v401.5q0.000976562 15.5254 10.9883 26.5127t26.5117 10.9873z" />
    <glyph glyph-name="iacute" unicode="&#xed;" horiz-adv-x="172" 
d="M233.975 695.021q7.99707 -13.3086 4.23828 -28.3848q-3.68164 -14.7676 -17.0664 -23.0742l-182.987 -113.555q-13.0049 -8.07031 -28.3828 -4.23633q-15.0771 3.75977 -23.0742 17.0664q-7.99707 13.3086 -4.2373 28.3848q3.68262 14.7676 17.0664 23.0732
l182.986 113.555q13.0059 8.07129 28.3828 4.23633q15.0771 -3.75879 23.0742 -17.0654zM92.7178 476.062q15.5254 0 26.5127 -10.9873t10.9873 -26.5127v-401.5q0.000976562 -15.5244 -10.9863 -26.5117q-10.9883 -10.9883 -26.5137 -10.9883q-15.5244 0 -26.5117 10.9883
q-10.9883 10.9873 -10.9883 26.5117v401.5q0.000976562 15.5254 10.9883 26.5127t26.5117 10.9873z" />
    <glyph glyph-name="icircumflex" unicode="&#xee;" horiz-adv-x="172" 
d="M72.7754 680.809q20.999 13.1816 45.3066 0l101.55 -92.0332q13.4482 -7.76367 17.4795 -22.7676q4.03125 -15.0029 -3.72949 -28.4512q-7.76172 -13.4434 -22.7832 -17.4629t-28.4668 3.74414l-91.75 80.8701l-91.8438 -80.8701q-13.4453 -7.7627 -28.4512 -3.74316
q-15.0059 4.01855 -22.7676 17.4619q-7.76367 13.4463 -3.74512 28.4512q4.01855 15.0059 17.4639 22.7676zM92.7178 476.062q15.5254 0 26.5127 -10.9873t10.9873 -26.5127v-401.5q0.000976562 -15.5244 -10.9863 -26.5117q-10.9883 -10.9883 -26.5137 -10.9883
q-15.5244 0 -26.5117 10.9883q-10.9883 10.9873 -10.9883 26.5117v401.5q0.000976562 15.5254 10.9883 26.5127t26.5117 10.9873z" />
    <glyph glyph-name="idieresis" unicode="&#xef;" horiz-adv-x="172" 
d="M224.723 629.637q0 -15.5244 -10.9883 -26.5117q-10.9873 -10.9883 -26.5117 -10.9883q-15.5254 0 -26.5127 10.9873q-10.9873 10.9883 -10.9873 26.5127q0 15.5254 10.9873 26.5127t26.5127 10.9873q15.5244 0 26.5117 -10.9873q10.9883 -10.9883 10.9883 -26.5127z
M48.6514 629.637q0 -15.5244 -10.9873 -26.5127q-10.9873 -10.9873 -26.5127 -10.9873t-26.5127 10.9873q-10.9873 10.9883 -10.9873 26.5127q0 15.5254 10.9873 26.5127t26.5127 10.9873t26.5127 -10.9873t10.9873 -26.5127zM92.7178 476.062q15.5254 0 26.5127 -10.9873
t10.9873 -26.5127v-401.5q0.000976562 -15.5244 -10.9863 -26.5117q-10.9883 -10.9883 -26.5137 -10.9883q-15.5244 0 -26.5117 10.9883q-10.9883 10.9873 -10.9883 26.5117v401.5q0.000976562 15.5254 10.9883 26.5127t26.5117 10.9873z" />
    <glyph glyph-name="itilde" unicode="&#x129;" horiz-adv-x="172" 
d="M32.4004 692.318q28.9658 0 46.2461 -8.56836q17.2803 -8.56738 23.2373 -20.7969q5.95703 -12.2285 9.56445 -24.457t10.7061 -20.7969t21.1826 -8.56836q13.1992 0 16.2715 5.40332q3.07324 5.40332 3.07324 28.2842q-0.000976562 15.5244 10.9873 26.5127
q10.9883 10.9873 26.5127 10.9873t26.5127 -10.9873q10.9883 -10.9883 10.9873 -26.5127q0 -57.9814 -25.1826 -83.1006q-25.1816 -25.1182 -80.3174 -25.1182q-27.2471 0 -43.5811 8.56836q-16.333 8.56836 -21.957 20.7969q-5.62207 12.2285 -8.91113 24.457
q-3.28809 12.2295 -9.50391 20.7969q-6.21289 8.56836 -18.6719 8.56836q-10.502 0 -14.0791 -10.3779q-3.57812 -10.3779 -3.57715 -35.3096q0.000976562 -15.5244 -10.9873 -26.5117q-10.9873 -10.9883 -26.5127 -10.9883t-26.5127 10.9873t-10.9873 26.5127
q0 120.219 95.5 120.219zM92.7178 476.062q15.5254 0 26.5127 -10.9873t10.9873 -26.5127v-401.5q0.000976562 -15.5244 -10.9863 -26.5117q-10.9883 -10.9883 -26.5137 -10.9883q-15.5244 0 -26.5117 10.9883q-10.9883 10.9873 -10.9883 26.5117v401.5
q0.000976562 15.5254 10.9883 26.5127t26.5117 10.9873z" />
    <glyph glyph-name="imacron" unicode="&#x12b;" horiz-adv-x="172" 
d="M92.7178 476.062q15.5254 0 26.5127 -10.9873t10.9873 -26.5127v-401.5q0.000976562 -15.5244 -10.9863 -26.5117q-10.9883 -10.9883 -26.5137 -10.9883q-15.5244 0 -26.5117 10.9883q-10.9883 10.9873 -10.9883 26.5117v401.5q0.000976562 15.5254 10.9883 26.5127
t26.5117 10.9873z" />
    <glyph glyph-name="ibreve" unicode="&#x12d;" horiz-adv-x="172" 
d="M85.7695 539.186q-51.2822 0 -83.3906 31.374q-32.1094 31.374 -32.1094 88.8447q0.000976562 15.5254 10.9883 26.5127t26.5117 10.9873q15.5264 0 26.5137 -10.9873q10.9883 -10.9863 10.9863 -26.5127q0 -45.6875 37.6562 -45.6875q23.8838 0 33.6133 11.0205
q9.73047 11.0195 9.73047 34.667q-0.000976562 15.5254 10.9873 26.5127t26.5127 10.9873t26.5127 -10.9873q10.9893 -10.9873 10.9873 -26.5127q0 -58.2139 -30.3047 -89.2168q-30.3047 -31.002 -85.1953 -31.002zM92.7178 476.062q15.5254 0 26.5127 -10.9873
t10.9873 -26.5127v-401.5q0.000976562 -15.5244 -10.9863 -26.5117q-10.9883 -10.9883 -26.5137 -10.9883q-15.5244 0 -26.5117 10.9883q-10.9883 10.9873 -10.9883 26.5117v401.5q0.000976562 15.5254 10.9883 26.5127t26.5117 10.9873z" />
    <glyph glyph-name="iogonek" unicode="&#x12f;" horiz-adv-x="172" 
d="M-18 -33.7305q0 54.8916 31.002 85.1963q31.0029 30.3037 89.2168 30.3037q15.5234 0.000976562 26.5117 -10.9873t10.9883 -26.5127q0 -15.5234 -10.9883 -26.5117t-26.5117 -10.9883q-23.6475 0 -34.668 -9.72949q-11.0195 -9.73047 -11.0195 -33.6143
q0 -37.6562 45.6875 -37.6562q15.5244 0.000976562 26.5117 -10.9863q10.9883 -10.9883 10.9883 -26.5137q0 -15.5234 -10.9883 -26.5107q-10.9873 -10.9873 -26.5117 -10.9893q-57.4707 0 -88.8447 32.1094t-31.374 83.3906zM130.211 631.188q0 -15.5254 -10.9873 -26.5127
t-26.5127 -10.9873t-26.5127 10.9873q-10.9873 10.9883 -10.9873 26.5127q0 15.5254 10.9873 26.5127t26.5127 10.9873q15.5244 0 26.5127 -10.9873q10.9873 -10.9873 10.9873 -26.5127zM92.7178 476.062q15.5254 0 26.5127 -10.9873t10.9873 -26.5127v-401.5
q0.000976562 -15.5244 -10.9863 -26.5117q-10.9883 -10.9883 -26.5137 -10.9883q-15.5244 0 -26.5117 10.9883q-10.9883 10.9873 -10.9883 26.5117v401.5q0.000976562 15.5254 10.9883 26.5127t26.5117 10.9873z" />
    <glyph glyph-name="odieresis" unicode="&#xf6;" horiz-adv-x="450" 
d="M352.723 629.637q0 -15.5244 -10.9883 -26.5117q-10.9873 -10.9883 -26.5117 -10.9883q-15.5254 0 -26.5127 10.9873q-10.9873 10.9883 -10.9873 26.5127q0 15.5254 10.9873 26.5127t26.5127 10.9873q15.5244 0 26.5117 -10.9873q10.9883 -10.9883 10.9883 -26.5127z
M176.651 629.637q0 -15.5244 -10.9873 -26.5127q-10.9873 -10.9873 -26.5127 -10.9873t-26.5127 10.9873q-10.9873 10.9883 -10.9873 26.5127q0 15.5254 10.9873 26.5127t26.5127 10.9873t26.5127 -10.9873t10.9873 -26.5127zM227.344 473.281q91.6846 0 139.17 -63.9482
q47.4863 -63.9492 47.4863 -171.583q0 -118.195 -45.4697 -177.863t-141.905 -59.668q-93.2607 0 -138.256 62.3896q-44.9941 62.3896 -44.9941 175.142q0 105.432 45.1738 170.481q45.1729 65.0498 138.795 65.0498zM228.5 398.75q-62.2109 0 -86.3555 -38.1533
q-24.1445 -38.1543 -24.1445 -122.847q0 -73.7773 27.2949 -118.467q27.2959 -44.6895 81.5488 -44.6895q59.9248 0 86.2285 40.5264q26.3027 40.5264 26.3027 122.63q0 81.0693 -27.0449 121.034q-27.0439 39.9658 -83.8301 39.9658z" />
    <glyph glyph-name="ccedilla" unicode="&#xe7;" horiz-adv-x="388" 
d="M315.319 -33.7305q0 -51.2812 -31.374 -83.3906t-88.8447 -32.1094q-15.5244 0.00195312 -26.5117 10.9893q-10.9883 10.9873 -10.9883 26.5107q0 15.5254 10.9883 26.5137q10.9873 10.9873 26.5117 10.9863q45.6875 0 45.6875 37.6562q0 23.8838 -11.0195 33.6143
q-11.0205 9.72949 -34.668 9.72949q-15.5234 0 -26.5117 10.9883t-10.9883 26.5117q0 15.5244 10.9883 26.5127t26.5117 10.9873q58.2139 0 89.2168 -30.3037q31.002 -30.3047 31.002 -85.1963zM205.969 473.188q73.5684 0 109.394 -19.7471
q35.8252 -19.7461 35.8252 -51.8779q0 -17.0332 -11.4648 -30.3428q-11.4639 -13.3086 -26.0352 -7.15723q-6.78418 1.81738 -14.6279 7.9834l-15.1934 11.7812q-7.34863 5.61426 -27.251 10.2217t-49.4902 4.60742q-38.6631 0 -64.582 -46.6367
q-25.9189 -46.6377 -25.918 -119.176q0 -73.1953 24.8096 -117.098t65.6904 -43.9023q34.3398 0 53.1963 5.49512q18.8555 5.49414 23.0557 12.418t12.3076 14.8184q8.10645 7.89355 22.0029 11.1748q14.8594 0 24.1787 -12.54q9.32129 -12.54 9.32129 -28.96
q0 -76.9375 -145.219 -76.9375q-67.7773 0 -114.266 67.7012t-49.7031 172.643q0 101.892 47.7607 168.711q47.7607 66.8203 116.208 66.8203z" />
    <glyph glyph-name="ntilde" unicode="&#xf1;" horiz-adv-x="434" 
d="M158.4 692.318q28.9658 0 46.2461 -8.56836q17.2803 -8.56738 23.2373 -20.7969q5.95703 -12.2285 9.56445 -24.457t10.7061 -20.7969t21.1826 -8.56836q13.1992 0 16.2715 5.40332q3.07324 5.40332 3.07324 28.2842q-0.000976562 15.5244 10.9873 26.5127
q10.9883 10.9873 26.5127 10.9873t26.5127 -10.9873q10.9883 -10.9883 10.9873 -26.5127q0 -57.9814 -25.1826 -83.1006q-25.1816 -25.1182 -80.3174 -25.1182q-27.2471 0 -43.5811 8.56836q-16.333 8.56836 -21.957 20.7969q-5.62207 12.2285 -8.91113 24.457
q-3.28809 12.2295 -9.50391 20.7969q-6.21289 8.56836 -18.6719 8.56836q-10.502 0 -14.0791 -10.3779q-3.57812 -10.3779 -3.57715 -35.3096q0.000976562 -15.5244 -10.9873 -26.5117q-10.9873 -10.9883 -26.5127 -10.9883t-26.5127 10.9873t-10.9873 26.5127
q0 120.219 95.5 120.219zM219.845 465.281q90.4385 0 132.546 -62.8066q42.1084 -62.8066 42.1094 -172.725l-1.15527 -192.688q0.000976562 -15.5244 -10.9873 -26.5117q-10.9883 -10.9883 -26.5127 -10.9883t-26.5127 10.9883q-10.9883 10.9873 -10.9873 26.5117
l1.53027 192.688q0 83.8574 -21.793 122.429q-21.792 38.5713 -77.082 38.5713q-60.6904 0 -79.5957 -36.3232q-18.9053 -36.3242 -18.9043 -124.677l0.844727 -192.688q0.000976562 -15.5244 -10.9873 -26.5117q-10.9873 -10.9883 -26.5127 -10.9883
q-15.5244 0 -26.5117 10.9883q-10.9873 10.9873 -10.9883 26.5117l-0.469727 192.688q0 235.531 171.97 235.531z" />
    <glyph glyph-name="ograve" unicode="&#xf2;" horiz-adv-x="450" 
d="M81.7383 695.021q7.99609 13.3066 23.0732 17.0654q15.3779 3.83496 28.3838 -4.23633l182.986 -113.555q13.3828 -8.30566 17.0664 -23.0732q3.75977 -15.0762 -4.23828 -28.3848q-7.99609 -13.3066 -23.0742 -17.0664q-15.377 -3.83398 -28.3828 4.23633
l-182.986 113.555q-13.3848 8.30664 -17.0664 23.0742q-3.75977 15.0762 4.23828 28.3848zM227.344 473.281q91.6846 0 139.17 -63.9482q47.4863 -63.9492 47.4863 -171.583q0 -118.195 -45.4697 -177.863t-141.905 -59.668q-93.2607 0 -138.256 62.3896
q-44.9941 62.3896 -44.9941 175.142q0 105.432 45.1738 170.481q45.1729 65.0498 138.795 65.0498zM228.5 398.75q-62.2109 0 -86.3555 -38.1533q-24.1445 -38.1543 -24.1445 -122.847q0 -73.7773 27.2949 -118.467q27.2959 -44.6895 81.5488 -44.6895
q59.9248 0 86.2285 40.5264q26.3027 40.5264 26.3027 122.63q0 81.0693 -27.0449 121.034q-27.0439 39.9658 -83.8301 39.9658z" />
    <glyph glyph-name="oacute" unicode="&#xf3;" horiz-adv-x="450" 
d="M338.975 695.021q7.99707 -13.3086 4.23828 -28.3848q-3.68164 -14.7676 -17.0664 -23.0742l-182.987 -113.555q-13.0049 -8.07031 -28.3828 -4.23633q-15.0771 3.75977 -23.0742 17.0664q-7.99707 13.3086 -4.2373 28.3848q3.68262 14.7676 17.0664 23.0732
l182.986 113.555q13.0059 8.07129 28.3828 4.23633q15.0771 -3.75879 23.0742 -17.0654zM227.344 473.281q91.6846 0 139.17 -63.9482q47.4863 -63.9492 47.4863 -171.583q0 -118.195 -45.4697 -177.863t-141.905 -59.668q-93.2607 0 -138.256 62.3896
q-44.9941 62.3896 -44.9941 175.142q0 105.432 45.1738 170.481q45.1729 65.0498 138.795 65.0498zM228.5 398.75q-62.2109 0 -86.3555 -38.1533q-24.1445 -38.1543 -24.1445 -122.847q0 -73.7773 27.2949 -118.467q27.2959 -44.6895 81.5488 -44.6895
q59.9248 0 86.2285 40.5264q26.3027 40.5264 26.3027 122.63q0 81.0693 -27.0449 121.034q-27.0439 39.9658 -83.8301 39.9658z" />
    <glyph glyph-name="ocircumflex" unicode="&#xf4;" horiz-adv-x="450" 
d="M192.775 680.809q20.999 13.1816 45.3066 0l101.55 -92.0332q13.4482 -7.76367 17.4795 -22.7676q4.03125 -15.0029 -3.72949 -28.4512q-7.76172 -13.4434 -22.7832 -17.4629t-28.4668 3.74414l-91.75 80.8701l-91.8438 -80.8701q-13.4453 -7.7627 -28.4512 -3.74316
q-15.0059 4.01855 -22.7676 17.4619q-7.76367 13.4463 -3.74512 28.4512q4.01855 15.0059 17.4639 22.7676zM227.344 473.281q91.6846 0 139.17 -63.9482q47.4863 -63.9492 47.4863 -171.583q0 -118.195 -45.4697 -177.863t-141.905 -59.668q-93.2607 0 -138.256 62.3896
q-44.9941 62.3896 -44.9941 175.142q0 105.432 45.1738 170.481q45.1729 65.0498 138.795 65.0498zM228.5 398.75q-62.2109 0 -86.3555 -38.1533q-24.1445 -38.1543 -24.1445 -122.847q0 -73.7773 27.2949 -118.467q27.2959 -44.6895 81.5488 -44.6895
q59.9248 0 86.2285 40.5264q26.3027 40.5264 26.3027 122.63q0 81.0693 -27.0449 121.034q-27.0439 39.9658 -83.8301 39.9658z" />
    <glyph glyph-name="otilde" unicode="&#xf5;" horiz-adv-x="450" 
d="M168.4 692.318q28.9658 0 46.2461 -8.56836q17.2803 -8.56738 23.2373 -20.7969q5.95703 -12.2285 9.56445 -24.457t10.7061 -20.7969t21.1826 -8.56836q13.1992 0 16.2715 5.40332q3.07324 5.40332 3.07324 28.2842q-0.000976562 15.5244 10.9873 26.5127
q10.9883 10.9873 26.5127 10.9873t26.5127 -10.9873q10.9883 -10.9883 10.9873 -26.5127q0 -57.9814 -25.1826 -83.1006q-25.1816 -25.1182 -80.3174 -25.1182q-27.2471 0 -43.5811 8.56836q-16.333 8.56836 -21.957 20.7969q-5.62207 12.2285 -8.91113 24.457
q-3.28809 12.2295 -9.50391 20.7969q-6.21289 8.56836 -18.6719 8.56836q-10.502 0 -14.0791 -10.3779q-3.57812 -10.3779 -3.57715 -35.3096q0.000976562 -15.5244 -10.9873 -26.5117q-10.9873 -10.9883 -26.5127 -10.9883t-26.5127 10.9873t-10.9873 26.5127
q0 120.219 95.5 120.219zM227.344 473.281q91.6846 0 139.17 -63.9482q47.4863 -63.9492 47.4863 -171.583q0 -118.195 -45.4697 -177.863t-141.905 -59.668q-93.2607 0 -138.256 62.3896q-44.9941 62.3896 -44.9941 175.142q0 105.432 45.1738 170.481
q45.1729 65.0498 138.795 65.0498zM228.5 398.75q-62.2109 0 -86.3555 -38.1533q-24.1445 -38.1543 -24.1445 -122.847q0 -73.7773 27.2949 -118.467q27.2959 -44.6895 81.5488 -44.6895q59.9248 0 86.2285 40.5264q26.3027 40.5264 26.3027 122.63
q0 81.0693 -27.0449 121.034q-27.0439 39.9658 -83.8301 39.9658z" />
    <glyph glyph-name="oslash" unicode="&#xf8;" horiz-adv-x="450" 
d="M227.344 473.281q91.6846 0 139.17 -63.9482q47.4863 -63.9492 47.4863 -171.583q0 -118.195 -45.4697 -177.863t-141.905 -59.668q-93.2607 0 -138.256 62.3896q-44.9941 62.3896 -44.9941 175.142q0 105.432 45.1738 170.481q45.1729 65.0498 138.795 65.0498z
M228.5 398.75q-62.2109 0 -86.3555 -38.1533q-24.1445 -38.1543 -24.1445 -122.847q0 -73.7773 27.2949 -118.467q27.2959 -44.6895 81.5488 -44.6895q59.9248 0 86.2285 40.5264q26.3027 40.5264 26.3027 122.63q0 81.0693 -27.0449 121.034
q-27.0439 39.9658 -83.8301 39.9658z" />
    <glyph glyph-name="ugrave" unicode="&#xf9;" horiz-adv-x="444" 
d="M81.7383 695.021q7.99609 13.3066 23.0732 17.0654q15.3779 3.83496 28.3838 -4.23633l182.986 -113.555q13.3828 -8.30566 17.0664 -23.0732q3.75977 -15.0762 -4.23828 -28.3848q-7.99609 -13.3066 -23.0742 -17.0664q-15.377 -3.83398 -28.3828 4.23633
l-182.986 113.555q-13.3848 8.30664 -17.0664 23.0742q-3.75977 15.0762 4.23828 28.3848zM222.03 3.46875q-90.4385 0 -132.546 62.8066q-42.1084 62.8066 -42.1094 172.725l1.15527 192.688q-0.000976562 15.5244 10.9873 26.5117q10.9883 10.9883 26.5127 10.9883
t26.5127 -10.9883q10.9883 -10.9873 10.9873 -26.5117l-1.53027 -192.688q0 -83.8574 21.793 -122.429q21.792 -38.5713 77.082 -38.5713q60.6904 0 79.5957 36.3232q18.9053 36.3242 18.9043 124.677l-0.844727 192.688q-0.000976562 15.5244 10.9873 26.5117
q10.9873 10.9883 26.5127 10.9883q15.5244 0 26.5117 -10.9883q10.9873 -10.9873 10.9883 -26.5117l0.469727 -192.688q0 -235.531 -171.97 -235.531z" />
    <glyph glyph-name="uacute" unicode="&#xfa;" horiz-adv-x="444" 
d="M329.975 695.021q7.99707 -13.3086 4.23828 -28.3848q-3.68164 -14.7676 -17.0664 -23.0742l-182.987 -113.555q-13.0049 -8.07031 -28.3828 -4.23633q-15.0771 3.75977 -23.0742 17.0664q-7.99707 13.3086 -4.2373 28.3848q3.68262 14.7676 17.0664 23.0732
l182.986 113.555q13.0059 8.07129 28.3828 4.23633q15.0771 -3.75879 23.0742 -17.0654zM222.03 3.46875q-90.4385 0 -132.546 62.8066q-42.1084 62.8066 -42.1094 172.725l1.15527 192.688q-0.000976562 15.5244 10.9873 26.5117q10.9883 10.9883 26.5127 10.9883
t26.5127 -10.9883q10.9883 -10.9873 10.9873 -26.5117l-1.53027 -192.688q0 -83.8574 21.793 -122.429q21.792 -38.5713 77.082 -38.5713q60.6904 0 79.5957 36.3232q18.9053 36.3242 18.9043 124.677l-0.844727 192.688q-0.000976562 15.5244 10.9873 26.5117
q10.9873 10.9883 26.5127 10.9883q15.5244 0 26.5117 -10.9883q10.9873 -10.9873 10.9883 -26.5117l0.469727 -192.688q0 -235.531 -171.97 -235.531z" />
    <glyph glyph-name="ucircumflex" unicode="&#xfb;" horiz-adv-x="444" 
d="M192.775 680.809q20.999 13.1816 45.3066 0l101.55 -92.0332q13.4482 -7.76367 17.4795 -22.7676q4.03125 -15.0029 -3.72949 -28.4512q-7.76172 -13.4434 -22.7832 -17.4629t-28.4668 3.74414l-91.75 80.8701l-91.8438 -80.8701q-13.4453 -7.7627 -28.4512 -3.74316
q-15.0059 4.01855 -22.7676 17.4619q-7.76367 13.4463 -3.74512 28.4512q4.01855 15.0059 17.4639 22.7676zM222.03 3.46875q-90.4385 0 -132.546 62.8066q-42.1084 62.8066 -42.1094 172.725l1.15527 192.688q-0.000976562 15.5244 10.9873 26.5117
q10.9883 10.9883 26.5127 10.9883t26.5127 -10.9883q10.9883 -10.9873 10.9873 -26.5117l-1.53027 -192.688q0 -83.8574 21.793 -122.429q21.792 -38.5713 77.082 -38.5713q60.6904 0 79.5957 36.3232q18.9053 36.3242 18.9043 124.677l-0.844727 192.688
q-0.000976562 15.5244 10.9873 26.5117q10.9873 10.9883 26.5127 10.9883q15.5244 0 26.5117 -10.9883q10.9873 -10.9873 10.9883 -26.5117l0.469727 -192.688q0 -235.531 -171.97 -235.531z" />
    <glyph glyph-name="udieresis" unicode="&#xfc;" horiz-adv-x="444" 
d="M340.723 629.637q0 -15.5244 -10.9883 -26.5117q-10.9873 -10.9883 -26.5117 -10.9883q-15.5254 0 -26.5127 10.9873q-10.9873 10.9883 -10.9873 26.5127q0 15.5254 10.9873 26.5127t26.5127 10.9873q15.5244 0 26.5117 -10.9873q10.9883 -10.9883 10.9883 -26.5127z
M164.651 629.637q0 -15.5244 -10.9873 -26.5127q-10.9873 -10.9873 -26.5127 -10.9873t-26.5127 10.9873q-10.9873 10.9883 -10.9873 26.5127q0 15.5254 10.9873 26.5127t26.5127 10.9873t26.5127 -10.9873t10.9873 -26.5127zM222.03 3.46875q-90.4385 0 -132.546 62.8066
q-42.1084 62.8066 -42.1094 172.725l1.15527 192.688q-0.000976562 15.5244 10.9873 26.5117q10.9883 10.9883 26.5127 10.9883t26.5127 -10.9883q10.9883 -10.9873 10.9873 -26.5117l-1.53027 -192.688q0 -83.8574 21.793 -122.429q21.792 -38.5713 77.082 -38.5713
q60.6904 0 79.5957 36.3232q18.9053 36.3242 18.9043 124.677l-0.844727 192.688q-0.000976562 15.5244 10.9873 26.5117q10.9873 10.9883 26.5127 10.9883q15.5244 0 26.5117 -10.9883q10.9873 -10.9873 10.9883 -26.5117l0.469727 -192.688q0 -235.531 -171.97 -235.531z
" />
    <glyph glyph-name="yacute" unicode="&#xfd;" horiz-adv-x="432" 
d="M331.975 695.021q7.99707 -13.3086 4.23828 -28.3848q-3.68164 -14.7676 -17.0664 -23.0742l-182.987 -113.555q-13.0049 -8.07031 -28.3828 -4.23633q-15.0771 3.75977 -23.0742 17.0664q-7.99707 13.3086 -4.2373 28.3848q3.68262 14.7676 17.0664 23.0732
l182.986 113.555q13.0059 8.07129 28.3828 4.23633q15.0771 -3.75879 23.0742 -17.0654zM213.531 -187.542q-41.043 0 -78.5859 12.749q-37.5391 12.749 -57.8828 35.0645q-10.0781 10.4697 -13.9766 14.9463q-3.90234 4.47754 -8.46484 13.8164
q-4.55859 9.33887 -4.55859 19.1113q0 15.5254 10.9883 26.5127q10.9844 10.9873 26.5117 10.9873q12.418 0 22.2617 -7.33008q9.83984 -7.33008 13.4873 -18.8574q10.9814 -15.4199 36.2705 -23.9443q25.2852 -8.52441 52.793 -8.52441q53.9531 0 83.1328 35.3867
q29.1797 35.3857 29.1797 105.426q-38.6562 -27.4375 -103.031 -27.4375q-90.4414 0 -132.547 62.8076q-42.1094 62.8066 -42.1094 172.725l1.15625 202.687q0 15.5244 10.9883 26.5127q10.9883 10.9873 26.5117 10.9873t26.5117 -10.9873
q10.9883 -10.9883 10.9883 -26.5127l-1.53125 -202.687q0 -83.8574 21.793 -122.429q21.793 -38.5723 77.082 -38.5723q61.4492 0 82.9766 37.3271q21.5234 37.3271 21.5234 123.674l-0.84375 202.687q0 15.5254 10.9883 26.5127q10.9844 10.9873 26.5117 10.9873
q15.7148 0 27.6055 -11.0762t11.8945 -26.4238l0.34375 -358.594q0 -141.994 -45.4727 -204.763q-45.4766 -62.7686 -142.496 -62.7686z" />
    <glyph glyph-name="ydieresis" unicode="&#xff;" horiz-adv-x="432" 
d="M338.723 629.637q0 -15.5244 -10.9883 -26.5117q-10.9873 -10.9883 -26.5117 -10.9883q-15.5254 0 -26.5127 10.9873q-10.9873 10.9883 -10.9873 26.5127q0 15.5254 10.9873 26.5127t26.5127 10.9873q15.5244 0 26.5117 -10.9873q10.9883 -10.9883 10.9883 -26.5127z
M162.651 629.637q0 -15.5244 -10.9873 -26.5127q-10.9873 -10.9873 -26.5127 -10.9873t-26.5127 10.9873q-10.9873 10.9883 -10.9873 26.5127q0 15.5254 10.9873 26.5127t26.5127 10.9873t26.5127 -10.9873t10.9873 -26.5127zM213.531 -187.542q-41.043 0 -78.5859 12.749
q-37.5391 12.749 -57.8828 35.0645q-10.0781 10.4697 -13.9766 14.9463q-3.90234 4.47754 -8.46484 13.8164q-4.55859 9.33887 -4.55859 19.1113q0 15.5254 10.9883 26.5127q10.9844 10.9873 26.5117 10.9873q12.418 0 22.2617 -7.33008q9.83984 -7.33008 13.4873 -18.8574
q10.9814 -15.4199 36.2705 -23.9443q25.2852 -8.52441 52.793 -8.52441q53.9531 0 83.1328 35.3867q29.1797 35.3857 29.1797 105.426q-38.6562 -27.4375 -103.031 -27.4375q-90.4414 0 -132.547 62.8076q-42.1094 62.8066 -42.1094 172.725l1.15625 202.687
q0 15.5244 10.9883 26.5127q10.9883 10.9873 26.5117 10.9873t26.5117 -10.9873q10.9883 -10.9883 10.9883 -26.5127l-1.53125 -202.687q0 -83.8574 21.793 -122.429q21.793 -38.5723 77.082 -38.5723q61.4492 0 82.9766 37.3271q21.5234 37.3271 21.5234 123.674
l-0.84375 202.687q0 15.5254 10.9883 26.5127q10.9844 10.9873 26.5117 10.9873q15.7148 0 27.6055 -11.0762t11.8945 -26.4238l0.34375 -358.594q0 -141.994 -45.4727 -204.763q-45.4766 -62.7686 -142.496 -62.7686z" />
    <glyph glyph-name="cacute" unicode="&#x107;" horiz-adv-x="388" 
d="M331.975 695.021q7.99707 -13.3086 4.23828 -28.3848q-3.68164 -14.7676 -17.0664 -23.0742l-182.987 -113.555q-13.0049 -8.07031 -28.3828 -4.23633q-15.0771 3.75977 -23.0742 17.0664q-7.99707 13.3086 -4.2373 28.3848q3.68262 14.7676 17.0664 23.0732
l182.986 113.555q13.0059 8.07129 28.3828 4.23633q15.0771 -3.75879 23.0742 -17.0654zM205.969 473.188q73.5684 0 109.394 -19.7471q35.8252 -19.7461 35.8252 -51.8779q0 -17.0332 -11.4648 -30.3428q-11.4639 -13.3086 -26.0352 -7.15723
q-6.78418 1.81738 -14.6279 7.9834l-15.1934 11.7812q-7.34863 5.61426 -27.251 10.2217t-49.4902 4.60742q-38.6631 0 -64.582 -46.6367q-25.9189 -46.6377 -25.918 -119.176q0 -73.1953 24.8096 -117.098t65.6904 -43.9023q34.3398 0 53.1963 5.49512
q18.8555 5.49414 23.0557 12.418t12.3076 14.8184q8.10645 7.89355 22.0029 11.1748q14.8594 0 24.1787 -12.54q9.32129 -12.54 9.32129 -28.96q0 -76.9375 -145.219 -76.9375q-67.7773 0 -114.266 67.7012t-49.7031 172.643q0 101.892 47.7607 168.711
q47.7607 66.8203 116.208 66.8203z" />
    <glyph glyph-name="ccircumflex" unicode="&#x109;" horiz-adv-x="388" 
d="M192.775 680.809q20.999 13.1816 45.3066 0l101.55 -92.0332q13.4482 -7.76367 17.4795 -22.7676q4.03125 -15.0029 -3.72949 -28.4512q-7.76172 -13.4434 -22.7832 -17.4629t-28.4668 3.74414l-91.75 80.8701l-91.8438 -80.8701q-13.4453 -7.7627 -28.4512 -3.74316
q-15.0059 4.01855 -22.7676 17.4619q-7.76367 13.4463 -3.74512 28.4512q4.01855 15.0059 17.4639 22.7676zM205.969 473.188q73.5684 0 109.394 -19.7471q35.8252 -19.7461 35.8252 -51.8779q0 -17.0332 -11.4648 -30.3428q-11.4639 -13.3086 -26.0352 -7.15723
q-6.78418 1.81738 -14.6279 7.9834l-15.1934 11.7812q-7.34863 5.61426 -27.251 10.2217t-49.4902 4.60742q-38.6631 0 -64.582 -46.6367q-25.9189 -46.6377 -25.918 -119.176q0 -73.1953 24.8096 -117.098t65.6904 -43.9023q34.3398 0 53.1963 5.49512
q18.8555 5.49414 23.0557 12.418t12.3076 14.8184q8.10645 7.89355 22.0029 11.1748q14.8594 0 24.1787 -12.54q9.32129 -12.54 9.32129 -28.96q0 -76.9375 -145.219 -76.9375q-67.7773 0 -114.266 67.7012t-49.7031 172.643q0 101.892 47.7607 168.711
q47.7607 66.8203 116.208 66.8203z" />
    <glyph glyph-name="cdotaccent" unicode="&#x10b;" horiz-adv-x="388" 
d="M232 667.756q22.002 3.99902 40 -12q18 -18 18 -42v-8q0 -30 -26 -46q-28 -16 -54 0q-25.998 15.999 -26 46v8q0 9.99902 4 18q10.002 32 44 36zM205.969 473.188q73.5684 0 109.394 -19.7471q35.8252 -19.7461 35.8252 -51.8779q0 -17.0332 -11.4648 -30.3428
q-11.4639 -13.3086 -26.0352 -7.15723q-6.78418 1.81738 -14.6279 7.9834l-15.1934 11.7812q-7.34863 5.61426 -27.251 10.2217t-49.4902 4.60742q-38.6631 0 -64.582 -46.6367q-25.9189 -46.6377 -25.918 -119.176q0 -73.1953 24.8096 -117.098t65.6904 -43.9023
q34.3398 0 53.1963 5.49512q18.8555 5.49414 23.0557 12.418t12.3076 14.8184q8.10645 7.89355 22.0029 11.1748q14.8594 0 24.1787 -12.54q9.32129 -12.54 9.32129 -28.96q0 -76.9375 -145.219 -76.9375q-67.7773 0 -114.266 67.7012t-49.7031 172.643
q0 101.892 47.7607 168.711q47.7607 66.8203 116.208 66.8203z" />
    <glyph glyph-name="ccaron" unicode="&#x10d;" horiz-adv-x="388" 
d="M195.775 513.191l-111.737 92.0332q-13.4453 7.76172 -17.4639 22.7676q-4.01855 15.0049 3.74512 28.4512q7.76172 13.4434 22.7676 17.4619q15.0059 4.01953 28.4512 -3.74316l91.8438 -80.8701l91.75 80.8701q13.4453 7.76367 28.4668 3.74414t22.7832 -17.4629
q7.76074 -13.4482 3.72949 -28.4512q-4.03125 -15.0039 -17.4795 -22.7676l-101.55 -92.0332q-24.3076 -13.1816 -45.3066 0zM205.969 473.188q73.5684 0 109.394 -19.7471q35.8252 -19.7461 35.8252 -51.8779q0 -17.0332 -11.4648 -30.3428
q-11.4639 -13.3086 -26.0352 -7.15723q-6.78418 1.81738 -14.6279 7.9834l-15.1934 11.7812q-7.34863 5.61426 -27.251 10.2217t-49.4902 4.60742q-38.6631 0 -64.582 -46.6367q-25.9189 -46.6377 -25.918 -119.176q0 -73.1953 24.8096 -117.098t65.6904 -43.9023
q34.3398 0 53.1963 5.49512q18.8555 5.49414 23.0557 12.418t12.3076 14.8184q8.10645 7.89355 22.0029 11.1748q14.8594 0 24.1787 -12.54q9.32129 -12.54 9.32129 -28.96q0 -76.9375 -145.219 -76.9375q-67.7773 0 -114.266 67.7012t-49.7031 172.643
q0 101.892 47.7607 168.711q47.7607 66.8203 116.208 66.8203z" />
    </font>
</defs>
</svg>
