<?xml version="1.0" encoding="UTF-8" standalone="no"?>
<!-- Created with Inkscape (http://www.inkscape.org/) -->
<svg
   xmlns:dc="http://purl.org/dc/elements/1.1/"
   xmlns:cc="http://web.resource.org/cc/"
   xmlns:rdf="http://www.w3.org/1999/02/22-rdf-syntax-ns#"
   xmlns:svg="http://www.w3.org/2000/svg"
   xmlns="http://www.w3.org/2000/svg"
   xmlns:sodipodi="http://sodipodi.sourceforge.net/DTD/sodipodi-0.dtd"
   xmlns:inkscape="http://www.inkscape.org/namespaces/inkscape"
   width="20000"
   height="1000"
   id="svg1282"
   sodipodi:version="0.32"
   inkscape:version="0.45"
   sodipodi:docname="UbuntuTitle45_book_sketch.svg"
   sodipodi:docbase="/home/guest/Documents/Trabalhos/UbuntuTitleFont/svg_pesos/sketches_svg"
   inkscape:output_extension="org.inkscape.output.svg.inkscape"
   sodipodi:modified="true">
  <defs
     id="defs3" />
  <sodipodi:namedview
     inkscape:document-units="px"
     id="base"
     pagecolor="#ffffff"
     bordercolor="#666666"
     borderopacity="1.0"
     inkscape:pageopacity="0.0"
     inkscape:pageshadow="2"
     inkscape:zoom="0.17478998"
     inkscape:cx="173.73972"
     inkscape:cy="793.43458"
     inkscape:current-layer="layer1"
     inkscape:window-width="1264"
     inkscape:window-height="728"
     inkscape:window-x="0"
     inkscape:window-y="6"
     showguides="true"
     inkscape:guide-bbox="true">
    <sodipodi:guide
       orientation="horizontal"
       position="200"
       id="guide1331" />
    <sodipodi:guide
       orientation="horizontal"
       position="897.46189"
       id="guide1435" />
  </sodipodi:namedview>
  <metadata
     id="metadata4">
    <rdf:RDF>
      <cc:Work
         rdf:about="">
        <dc:format>image/svg+xml</dc:format>
        <dc:type
           rdf:resource="http://purl.org/dc/dcmitype/StillImage" />
      </cc:Work>
    </rdf:RDF>
  </metadata>
  <g
     inkscape:label="Layer 1"
     inkscape:groupmode="layer"
     id="layer1">
    <path
       style="fill:#000000;fill-opacity:1;stroke:none;stroke-width:1;stroke-miterlimit:4;stroke-dasharray:none;stroke-dashoffset:0;stroke-opacity:1"
       d="M 9325.3542,156.84375 C 9108.3082,156.84375 8989.0112,321.97108 8989.0112,554.8125 C 8989.0112,784.22948 9106.3372,876.03125 9161.9472,876.03125 C 9182.6472,876.03126 9203.4472,863.23125 9203.4472,842.53125 C 9192.9612,798.12926 9063.5422,789.60991 9063.5422,555.96875 C 9063.5422,343.3548 9151.2302,231.46875 9320.5412,231.46875 C 9525.5112,231.46875 9628.3542,360.78687 9628.3542,555.96875 C 9628.3542,709.29219 9589.1462,816 9534.8542,816 C 9512.7292,816 9489.3802,797.47914 9490.2292,775.71875 C 9490.2292,775.71878 9489.9472,546.90625 9489.9472,546.90625 C 9489.9462,402.09024 9437.0082,321.375 9326.6972,321.375 C 9210.7352,321.375 9159.3232,392.0965 9159.3232,546.90625 C 9159.3212,685.13773 9221.0702,778.4375 9325.9792,778.4375 C 9366.6062,778.43753 9387.5542,775.88239 9415.2292,754.0625 C 9415.2292,754.06253 9415.2292,811.71875 9415.2292,811.71875 C 9415.2292,855.19881 9460.9112,892.03125 9537.2602,892.03125 C 9636.1262,892.03125 9702.8852,760.02922 9702.8852,554.8125 C 9702.8852,294.01366 9572.9732,156.84375 9325.3542,156.84375 z M 9326.4792,395.75 C 9390.4912,395.75 9415.3232,442.19286 9415.3232,578.90625 C 9415.3212,687.29124 9396.0612,703.90625 9324.8232,703.90625 C 9263.1952,703.90628 9233.9472,654.04915 9233.9472,546.90625 C 9233.9462,440.84075 9257.4022,395.75 9326.4792,395.75 z "
       id="path1372"
       sodipodi:nodetypes="csscscscccscssccscccscc" />
    <path
       style="fill:#000000;stroke:none;stroke-width:1;stroke-miterlimit:4;stroke-dasharray:none;stroke-opacity:1;fill-opacity:1"
       d="M 1823.4076,99.90625 C 1808.3919,99.993729 1797.19,108.72176 1788.6889,120.25 C 1701.5377,208.64192 1688.6889,332.64166 1688.6889,450.25 C 1688.6889,575.31877 1709.4603,680.56012 1788.6889,780.25 C 1797.6218,791.74991 1809.5258,796.44393 1823.4076,797.5625 C 1844.1077,797.5625 1860.9076,780.7625 1860.9076,760.0625 C 1860.9076,747.4841 1854.6698,736.36645 1845.1576,729.5625 C 1785.2311,645.35495 1767.4251,556.93312 1763.3139,450.25 C 1763.3139,297.36961 1803.6606,216.01159 1845.0326,168 C 1854.6164,161.20455 1860.9076,150.0404 1860.9076,137.40625 C 1860.9076,116.70625 1844.1076,99.906248 1823.4076,99.90625 z "
       id="path1376"
       sodipodi:nodetypes="cccccscccsc" />
    <path
       sodipodi:nodetypes="cccsccc"
       id="path1433"
       d="M 13938.355,145.9375 C 13917.655,145.9375 13900.856,162.73751 13900.855,183.4375 C 13900.855,183.4375 13900.855,760.9375 13900.855,760.9375 C 13900.855,781.6375 13917.656,798.4375 13938.355,798.4375 C 13959.055,798.4375 13975.856,781.6375 13975.855,760.9375 C 13975.855,760.9375 13975.855,183.4375 13975.855,183.4375 C 13975.855,162.7375 13959.056,145.93751 13938.355,145.9375 z "
       style="fill:#000000;fill-opacity:1;stroke:none;stroke-width:1;stroke-miterlimit:4;stroke-dasharray:none;stroke-dashoffset:0;stroke-opacity:1" />
    <path
       style="fill:#000000;fill-opacity:1;stroke:none;stroke-width:1;stroke-miterlimit:4;stroke-dasharray:none;stroke-dashoffset:0;stroke-opacity:1"
       d="M 1979.9037,4.1875 C 1973.8584,4.3434706 1967.7556,5.953132 1962.1537,9.1875 C 1944.227,19.537478 1938.0849,42.510774 1948.4349,60.4375 C 1948.4349,60.437499 1983.0684,120.42692 2010.3724,167.71875 C 1955.7646,167.71875 1886.4974,167.71875 1886.4974,167.71875 C 1865.7973,167.71875 1848.9974,184.51875 1848.9974,205.21875 C 1848.9973,225.91875 1865.7974,242.71875 1886.4974,242.71875 C 1886.4974,242.71875 1952.7371,242.71875 2010.4037,242.71875 C 1983.0855,290.03522 1948.4349,350.03125 1948.4349,350.03125 C 1938.0848,367.95797 1944.227,390.9 1962.1537,401.25 C 1980.0804,411.6 2003.0224,405.45797 2013.3724,387.53125 C 2013.3724,387.53125 2048.023,327.53522 2075.3411,280.21875 C 2104.1694,330.15757 2137.2787,387.53125 2137.2787,387.53125 C 2147.6287,405.45798 2170.5707,411.59998 2188.4974,401.25 C 2206.424,390.90002 2212.5661,367.95797 2202.2161,350.03125 C 2202.2162,350.03125 2167.5656,290.03522 2140.2474,242.71875 C 2194.8969,242.71875 2264.1849,242.71875 2264.1849,242.71875 C 2284.885,242.71875 2301.6849,225.91875 2301.6849,205.21875 C 2301.685,184.51875 2284.8849,167.71875 2264.1849,167.71875 C 2264.185,167.71875 2197.9414,167.71875 2140.2787,167.71875 C 2167.5826,120.42692 2202.2161,60.4375 2202.2161,60.4375 C 2212.5663,42.510773 2206.4241,19.5375 2188.4974,9.1875 C 2170.5706,-1.1624999 2147.6286,5.0107737 2137.2787,22.9375 C 2137.2787,22.9375 2102.6541,82.942549 2075.3411,130.25 C 2046.5024,80.301835 2013.3724,22.9375 2013.3724,22.9375 C 2006.2568,10.612876 1993.2032,3.8443646 1979.9037,4.1875 z "
       id="path1400" />
    <path
       style="fill:#000000;fill-opacity:1;stroke:none;stroke-width:1;stroke-miterlimit:4;stroke-dasharray:none;stroke-dashoffset:0;stroke-opacity:1"
       d="M 2474.3195,160.25 C 2453.6197,160.25 2436.8195,177.05 2436.8195,197.75 C 2436.8196,197.75 2436.8196,288.63161 2436.8195,374.09375 C 2351.3574,374.09375 2260.4758,374.09375 2260.4758,374.09375 C 2239.7758,374.09376 2222.9758,390.89375 2222.9758,411.59375 C 2222.9758,432.29376 2239.7758,449.09375 2260.4758,449.09375 C 2260.4758,449.09375 2351.3574,449.09375 2436.8195,449.09375 C 2436.8195,534.55589 2436.8195,625.4375 2436.8195,625.4375 C 2436.8197,646.13752 2453.6196,662.9375 2474.3195,662.9375 C 2495.0197,662.93752 2511.8195,646.1375 2511.8195,625.4375 C 2511.8196,625.43751 2511.8196,534.55589 2511.8195,449.09375 C 2597.2817,449.09375 2688.1633,449.09375 2688.1633,449.09375 C 2708.8633,449.09376 2725.6633,432.29375 2725.6633,411.59375 C 2725.6633,390.89376 2708.8633,374.09375 2688.1633,374.09375 C 2688.1633,374.09375 2597.2817,374.09375 2511.8195,374.09375 C 2511.8195,288.63161 2511.8195,197.75 2511.8195,197.75 C 2511.8197,177.05 2495.0196,160.25 2474.3195,160.25 z "
       id="path1396" />
    <path
       sodipodi:nodetypes="cccsccc"
       id="path1394"
       d="M 2618.358,561.58307 C 2618.358,582.28307 2635.158,599.08307 2655.858,599.08307 C 2655.858,599.08307 2853.554,599.08307 2853.554,599.08307 C 2874.254,599.08307 2891.054,582.28307 2891.054,561.58307 C 2891.054,540.88307 2874.254,524.08307 2853.554,524.08307 C 2853.554,524.08307 2655.858,524.08307 2655.858,524.08307 C 2635.158,524.08307 2618.358,540.88307 2618.358,561.58307 z "
       style="fill:#000000;fill-opacity:1;stroke:none;stroke-width:1;stroke-miterlimit:4;stroke-dasharray:none;stroke-dashoffset:0;stroke-opacity:1" />
    <path
       style="fill:#000000;fill-opacity:1;stroke:none;stroke-width:1;stroke-miterlimit:4;stroke-dashoffset:0;stroke-opacity:1;stroke-dasharray:none"
       d="M 83.628737,131.17145 C 62.928737,131.17145 46.128727,147.97145 46.128737,168.67145 C 46.128737,168.67145 46.128737,570.7652 46.128737,570.7652 C 46.128737,591.4652 62.928727,608.26522 83.628737,608.2652 C 104.32874,608.2652 121.12873,591.46519 121.12874,570.7652 C 121.12874,570.7652 121.12874,168.67145 121.12874,168.67145 C 121.12874,147.97145 104.32873,131.17145 83.628737,131.17145 z "
       id="path1345"
       sodipodi:nodetypes="cccsccc" />
    <path
       d="M 15201.947,326.71875 C 15070.316,326.71875 15017.979,431.46879 15017.979,562.25 C 15017.979,707.06604 15072.899,799.78125 15201.229,799.78125 C 15331.931,799.78125 15388.604,717.05975 15388.604,562.25 C 15388.604,424.01855 15328.114,326.71875 15201.947,326.71875 z M 15203.104,401.25 C 15279.461,401.25 15313.979,455.1071 15313.979,562.25 C 15313.979,668.31553 15283.56,725.40625 15201.447,725.40625 C 15126.045,725.40625 15092.604,655.60537 15092.604,562.25 C 15092.604,453.86504 15117.282,401.25 15203.104,401.25 z "
       id="o"
       sodipodi:nodetypes="cccccccccc"
       style="fill:#000000;stroke:none;stroke-width:1;stroke-miterlimit:4;stroke-dasharray:none;stroke-opacity:1;fill-opacity:1" />
    <path
       style="fill:#000000;fill-opacity:1;stroke:none;stroke-width:1;stroke-miterlimit:4;stroke-dashoffset:0;stroke-opacity:1;stroke-dasharray:none"
       d="M 121.13233,762.82006 C 121.13233,783.52006 104.33233,800.32006 83.632327,800.32006 C 62.932327,800.32006 46.132327,783.52006 46.132327,762.82006 C 46.132327,742.12006 62.932327,725.32006 83.632327,725.32006 C 104.33233,725.32006 121.13233,742.12006 121.13233,762.82006 z "
       id="path1343" />
    <path
       id="path1353"
       d="M 2754.9301,762.4375 C 2754.9301,783.1375 2738.1301,799.9375 2717.4301,799.9375 C 2696.7301,799.9375 2679.9301,783.1375 2679.9301,762.4375 C 2679.9301,741.7375 2696.7301,724.9375 2717.4301,724.9375 C 2738.1301,724.9375 2754.9301,741.7375 2754.9301,762.4375 z "
       style="fill:#000000;fill-opacity:1;stroke:none;stroke-width:1;stroke-miterlimit:4;stroke-dasharray:none;stroke-dashoffset:0;stroke-opacity:1" />
    <path
       sodipodi:nodetypes="cccsccc"
       id="path1511"
       d="M 176.13476,179.80203 C 155.43476,179.80203 138.63475,196.60203 138.63476,217.30203 C 138.63476,217.30203 138.63476,352.99803 138.63476,352.99803 C 138.63476,373.69803 155.43475,390.49805 176.13476,390.49803 C 196.83476,390.49803 213.63475,373.69802 213.63476,352.99803 C 213.63476,352.99803 213.63476,217.30203 213.63476,217.30203 C 213.63476,196.60203 196.83475,179.80203 176.13476,179.80203 z "
       style="fill:#000000;fill-opacity:1;stroke:none;stroke-width:1;stroke-miterlimit:4;stroke-dashoffset:0;stroke-opacity:1;stroke-dasharray:none" />
    <path
       style="fill:#000000;fill-opacity:1;stroke:none;stroke-width:1;stroke-miterlimit:4;stroke-dashoffset:0;stroke-opacity:1;stroke-dasharray:none"
       d="M 381.99323,179.80203 C 361.29323,179.80203 344.49322,196.60203 344.49323,217.30203 C 344.49323,217.30203 344.49323,352.99803 344.49323,352.99803 C 344.49323,373.69803 361.29322,390.49805 381.99323,390.49803 C 402.69323,390.49803 419.49322,373.69802 419.49323,352.99803 C 419.49323,352.99803 419.49323,217.30203 419.49323,217.30203 C 419.49323,196.60203 402.69322,179.80203 381.99323,179.80203 z "
       id="path1513"
       sodipodi:nodetypes="cccsccc" />
    <path
       sodipodi:nodetypes="cccsccc"
       id="path1515"
       d="M 1637.0986,171.80203 C 1616.3986,171.80203 1599.5986,188.60203 1599.5986,209.30203 C 1599.5986,209.30203 1599.5986,344.99803 1599.5986,344.99803 C 1599.5986,365.69803 1616.3986,382.49805 1637.0986,382.49803 C 1657.7986,382.49803 1674.5986,365.69802 1674.5986,344.99803 C 1674.5986,344.99803 1674.5986,209.30203 1674.5986,209.30203 C 1674.5986,188.60203 1657.7986,171.80203 1637.0986,171.80203 z "
       style="fill:#000000;fill-opacity:1;stroke:none;stroke-width:1;stroke-miterlimit:4;stroke-dasharray:none;stroke-dashoffset:0;stroke-opacity:1" />
    <path
       style="fill:#000000;fill-opacity:1;stroke:none;stroke-width:1;stroke-miterlimit:4;stroke-dasharray:none;stroke-dashoffset:0;stroke-opacity:1"
       d="M 2575.7419,589.53008 C 2555.0419,589.53008 2538.2419,606.33008 2538.2419,627.03008 C 2538.2419,627.03008 2538.2419,762.72608 2538.2419,762.72608 C 2538.2419,783.42608 2555.0419,800.2261 2575.7419,800.22608 C 2596.4419,800.22608 2613.2419,783.42607 2613.2419,762.72608 C 2613.2419,762.72608 2613.2419,627.03008 2613.2419,627.03008 C 2613.2419,606.33008 2596.4419,589.53008 2575.7419,589.53008 z "
       id="path1392"
       sodipodi:nodetypes="cccsccc" />
    <path
       id="path1410"
       d="M 13304.233,168.81278 C 13304.233,189.51278 13287.433,206.31278 13266.733,206.31278 C 13246.033,206.31278 13229.233,189.51278 13229.233,168.81278 C 13229.233,148.11278 13246.033,131.31278 13266.733,131.31278 C 13287.433,131.31278 13304.233,148.11278 13304.233,168.81278 z "
       style="fill:#000000;fill-opacity:1;stroke:none;stroke-width:1;stroke-miterlimit:4;stroke-dasharray:none;stroke-dashoffset:0;stroke-opacity:1" />
    <path
       style="fill:#000000;fill-opacity:1;stroke:none;stroke-width:1;stroke-miterlimit:4;stroke-dashoffset:0;stroke-opacity:1;stroke-dasharray:none"
       d="M 635.96912,88.904231 C 615.26932,88.904231 598.46912,105.70413 598.46912,126.40423 C 598.46922,126.40423 598.46912,268.74793 598.46912,268.74793 C 598.46912,268.74793 492.12532,268.74793 492.12532,268.74793 C 471.42542,268.74795 454.62532,285.54793 454.62532,306.24793 C 454.62542,326.94795 471.42542,343.74793 492.12532,343.74793 C 492.12542,343.74794 598.46912,343.74793 598.46912,343.74793 C 598.46912,343.74793 598.46912,561.09168 598.46912,561.09168 C 598.46912,561.09168 492.12532,561.09168 492.12532,561.09168 C 471.42542,561.09166 454.62532,577.89168 454.62532,598.59168 C 454.62542,619.29169 471.42542,636.09168 492.12532,636.09168 C 492.12542,636.09168 598.46912,636.09168 598.46912,636.09168 C 598.46912,636.09168 598.46912,762.43543 598.46912,762.43543 C 598.46932,783.13545 615.26922,799.93543 635.96912,799.93543 C 656.6693,799.93545 673.4691,783.13543 673.4691,762.43543 C 673.4692,762.43544 673.4691,636.09168 673.4691,636.09168 C 673.4691,636.09168 893.3441,636.09168 893.3441,636.09168 C 893.3441,636.09168 893.3441,762.43543 893.3441,762.43543 C 893.3442,783.13545 910.1442,799.93543 930.8441,799.93543 C 951.5442,799.93545 968.3441,783.13543 968.3441,762.43543 C 968.3441,762.43544 968.3441,636.09168 968.3441,636.09168 C 968.3441,636.09168 1070.6879,636.09168 1070.6879,636.09168 C 1091.3878,636.09169 1108.1879,619.29168 1108.1879,598.59168 C 1108.1878,577.89169 1091.3879,561.09168 1070.6879,561.09168 C 1070.6878,561.09165 968.3441,561.09168 968.3441,561.09168 C 968.3441,561.09168 968.3441,343.74793 968.3441,343.74793 C 968.3441,343.74793 1070.6879,343.74793 1070.6879,343.74793 C 1091.3878,343.74795 1108.1879,326.94793 1108.1879,306.24793 C 1108.1878,285.54795 1091.3879,268.74793 1070.6879,268.74793 C 1070.6878,268.74794 968.3441,268.74793 968.3441,268.74793 C 968.3441,268.74793 968.3441,126.40423 968.3441,126.40423 C 968.3442,105.70423 951.5442,88.904231 930.8441,88.904231 C 910.1442,88.904231 893.3441,105.70413 893.3441,126.40423 C 893.3441,126.40423 893.3441,268.74793 893.3441,268.74793 C 893.3441,268.74793 673.4691,268.74793 673.4691,268.74793 C 673.4691,268.74793 673.4691,126.40423 673.4691,126.40423 C 673.4693,105.70423 656.6692,88.904231 635.96912,88.904231 z M 673.4691,343.74793 C 673.4691,343.74793 893.3441,343.74793 893.3441,343.74793 C 893.3441,343.74793 893.3441,561.09168 893.3441,561.09168 C 893.3441,561.09168 673.4691,561.09168 673.4691,561.09168 C 673.4691,561.09168 673.4691,343.74793 673.4691,343.74793 z "
       id="path1416"
       sodipodi:nodetypes="csccsscccssccsscccssccsscccssccscccccccccc" />
    <path
       style="fill:#000000;fill-opacity:1;stroke:none;stroke-width:1;stroke-miterlimit:4;stroke-dasharray:none;stroke-dashoffset:0;stroke-opacity:1"
       d="M 10577.039,179.80203 C 10556.339,179.80203 10539.539,196.60203 10539.539,217.30203 C 10539.539,217.30203 10539.539,352.99803 10539.539,352.99803 C 10539.539,373.69803 10556.339,390.49805 10577.039,390.49803 C 10597.739,390.49803 10614.539,373.69802 10614.539,352.99803 C 10614.539,352.99803 10614.539,217.30203 10614.539,217.30203 C 10614.539,196.60203 10597.739,179.80203 10577.039,179.80203 z "
       id="path1425"
       sodipodi:nodetypes="cccsccc" />
    <path
       style="fill:#000000;fill-opacity:1;stroke:none;stroke-width:1;stroke-miterlimit:4;stroke-dasharray:none;stroke-dashoffset:0;stroke-opacity:1"
       d="M 13266.74,323.9375 C 13246.04,323.9375 13229.241,340.73751 13229.24,361.4375 C 13229.24,361.4375 13229.24,762.9375 13229.24,762.9375 C 13229.24,783.6375 13246.041,800.4375 13266.74,800.4375 C 13287.44,800.4375 13304.241,783.6375 13304.24,762.9375 C 13304.24,762.9375 13304.24,361.4375 13304.24,361.4375 C 13304.24,340.7375 13287.441,323.93751 13266.74,323.9375 z "
       id="path1428"
       sodipodi:nodetypes="cccsccc" />
    <path
       style="fill:#000000;fill-opacity:1;stroke:none;stroke-width:1;stroke-miterlimit:4;stroke-dasharray:none;stroke-dashoffset:0;stroke-opacity:1"
       d="M 14898.943,169.36314 C 14898.943,190.06314 14882.143,206.86314 14861.443,206.86314 C 14840.743,206.86314 14823.943,190.06314 14823.943,169.36314 C 14823.943,148.66314 14840.743,131.86314 14861.443,131.86314 C 14882.143,131.86314 14898.943,148.66314 14898.943,169.36314 z "
       id="path1438" />
    <path
       id="path1440"
       d="M 14722.872,169.36314 C 14722.872,190.06314 14706.072,206.86314 14685.372,206.86314 C 14664.672,206.86314 14647.872,190.06314 14647.872,169.36314 C 14647.872,148.66314 14664.672,131.86314 14685.372,131.86314 C 14706.072,131.86314 14722.872,148.66314 14722.872,169.36314 z "
       style="fill:#000000;fill-opacity:1;stroke:none;stroke-width:1;stroke-miterlimit:4;stroke-dasharray:none;stroke-dashoffset:0;stroke-opacity:1" />
    <path
       d="M 14779.065,334.71875 C 14647.434,334.71875 14607.096,439.46879 14607.096,570.25 C 14607.096,570.25 14607.565,762.9375 14607.565,762.9375 C 14607.566,783.6375 14624.366,800.4375 14645.065,800.4375 C 14665.766,800.4375 14682.566,783.6375 14682.565,762.9375 C 14682.565,762.9375 14681.721,570.25 14681.721,570.25 C 14681.72,461.86504 14694.399,409.25 14780.221,409.25 C 14856.577,409.25 14879.096,463.1071 14879.096,570.25 C 14879.096,570.25 14877.565,762.9375 14877.565,762.9375 C 14877.564,783.6375 14894.366,800.4375 14915.065,800.4375 C 14935.764,800.4375 14952.566,783.6375 14952.565,762.9375 C 14952.565,762.9375 14953.721,570.25 14953.721,570.25 C 14953.72,432.01855 14905.232,334.71875 14779.065,334.71875 z "
       id="path1442"
       sodipodi:nodetypes="cccsccsccsccc"
       style="fill:#000000;stroke:none;stroke-width:1;stroke-miterlimit:4;stroke-dasharray:none;stroke-opacity:1;fill-opacity:1" />
    <path
       d="M 14180.549,334.71875 C 14074.205,334.71875 14030.58,382.65947 14030.58,570.25 C 14030.581,570.25 14031.049,762.9375 14031.049,762.9375 C 14031.051,783.6375 14047.85,800.4375 14068.549,800.4375 C 14089.251,800.4375 14106.05,783.6375 14106.049,762.9375 C 14106.05,762.9375 14105.205,570.25 14105.205,570.25 C 14105.205,444.11046 14115.429,409.25 14181.705,409.25 C 14250.055,409.25 14259.767,442.62203 14259.767,538.34375 C 14259.767,538.34375 14259.049,612.9375 14259.049,612.9375 C 14259.049,633.10527 14274.992,649.54162 14294.955,650.375 C 14319.231,652.22878 14329.478,633.03414 14334.361,612.9375 C 14334.361,612.9375 14334.111,535.8125 14334.111,535.8125 C 14334.111,437.02384 14347.482,409.25 14412.017,409.25 C 14472.745,409.25 14488.893,439.60204 14488.893,570.25 C 14488.893,570.25 14487.361,762.9375 14487.361,762.9375 C 14487.361,783.6375 14504.162,800.4375 14524.861,800.4375 C 14545.561,800.4375 14562.362,783.6375 14562.361,762.9375 C 14562.362,762.9375 14563.517,570.25 14563.517,570.25 C 14563.517,394.65076 14513.556,334.71875 14410.861,334.71875 C 14345.633,334.71875 14322.829,360.446 14296.236,402.3125 C 14268.396,359.70704 14244.458,334.71875 14180.549,334.71875 z "
       id="path1454"
       sodipodi:nodetypes="cccsccscccccsccsccscc"
       style="fill:#000000;stroke:none;stroke-width:1;stroke-miterlimit:4;stroke-dasharray:none;stroke-opacity:1;fill-opacity:1" />
    <path
       style="fill:#000000;fill-opacity:1;stroke:none;stroke-width:1;stroke-miterlimit:4;stroke-dasharray:none;stroke-dashoffset:0;stroke-opacity:1"
       d="M 12839.756,137.9375 C 12819.057,137.9375 12802.257,154.73751 12802.256,175.4375 C 12802.256,175.4375 12803.475,770.5 12803.475,770.5 C 12803.483,770.53176 12803.498,770.56202 12803.506,770.59375 C 12807.043,787.62851 12822.148,800.4375 12840.225,800.4375 C 12860.926,800.4375 12877.726,783.6375 12877.725,762.9375 C 12877.725,762.9375 12877.256,531.25 12877.256,531.25 C 12879.891,442.47753 12901.605,399.25 12979.381,399.25 C 13055.737,399.25 13078.256,453.1071 13078.256,560.25 C 13078.256,560.25 13076.725,762.9375 13076.725,762.9375 C 13076.724,783.6375 13093.526,800.4375 13114.225,800.4375 C 13134.924,800.4375 13151.726,783.6375 13151.725,762.9375 C 13151.725,762.9375 13152.881,560.25 13152.881,560.25 C 13152.88,422.01855 13104.392,324.71875 12978.225,324.71875 C 12937.769,324.71875 12901.944,334.62125 12877.256,352.125 C 12877.256,352.125 12877.256,175.4375 12877.256,175.4375 C 12877.257,154.7375 12860.457,137.93751 12839.756,137.9375 z "
       id="path1459"
       sodipodi:nodetypes="ccccsccsccsccsccc" />
    <path
       style="fill:#000000;fill-opacity:1;stroke:none;stroke-width:1;stroke-miterlimit:4;stroke-dasharray:none;stroke-dashoffset:0;stroke-opacity:1"
       d="M 10996.355,139.9375 C 10975.654,139.9375 10958.856,156.73751 10958.855,177.4375 C 10958.855,177.4375 10959.136,562.25 10959.136,562.25 C 10959.137,707.06604 11004.056,799.78125 11132.386,799.78125 C 11263.089,799.78125 11309.761,717.05975 11309.761,562.25 C 11309.762,424.01855 11259.272,326.71875 11133.105,326.71875 C 11087.56,326.71875 11061.53,339.27386 11033.855,361.09375 C 11033.855,278.80097 11033.855,177.4375 11033.855,177.4375 C 11033.854,156.7375 11017.056,139.93751 10996.355,139.9375 z M 11134.261,401.25 C 11210.619,401.25 11235.136,455.1071 11235.136,562.25 C 11235.137,668.31553 11214.718,725.40625 11132.605,725.40625 C 11057.203,725.40625 11033.761,655.60537 11033.761,562.25 C 11033.762,453.86504 11048.439,401.25 11134.261,401.25 z "
       id="path1465"
       sodipodi:nodetypes="cccscscccccscc" />
    <path
       sodipodi:nodetypes="cccscscccccscc"
       id="path1470"
       d="M 15443.003,985.54375 C 15422.302,985.54375 15405.504,968.74374 15405.503,948.04375 C 15405.503,948.04375 15405.784,563.23125 15405.784,563.23125 C 15405.785,418.41521 15450.704,325.7 15579.034,325.7 C 15709.737,325.7 15756.409,408.4215 15756.409,563.23125 C 15756.41,701.4627 15705.92,798.7625 15579.753,798.7625 C 15534.208,798.7625 15508.178,786.20739 15480.503,764.3875 C 15480.503,846.68028 15480.503,948.04375 15480.503,948.04375 C 15480.502,968.74375 15463.704,985.54374 15443.003,985.54375 z M 15580.909,724.23125 C 15657.267,724.23125 15681.784,670.37415 15681.784,563.23125 C 15681.785,457.16572 15661.366,400.075 15579.253,400.075 C 15503.851,400.075 15480.409,469.87588 15480.409,563.23125 C 15480.41,671.61621 15495.087,724.23125 15580.909,724.23125 z "
       style="fill:#000000;fill-opacity:1;stroke:none;stroke-width:1;stroke-miterlimit:4;stroke-dasharray:none;stroke-dashoffset:0;stroke-opacity:1" />
    <path
       sodipodi:nodetypes="cccscscccccscc"
       id="path1472"
       d="M 10889.207,813.20718 C 10909.908,813.20718 10926.706,796.40717 10926.707,775.70718 C 10926.707,775.70718 10926.426,572.89468 10926.426,572.89468 C 10926.425,428.07864 10873.487,343.36343 10763.176,343.36343 C 10647.214,343.36343 10595.801,418.08493 10595.801,572.89468 C 10595.8,711.12613 10657.548,800.42593 10762.457,800.42593 C 10803.084,800.42593 10824.032,787.87082 10851.707,766.05093 C 10851.707,766.05093 10851.707,775.70718 10851.707,775.70718 C 10851.708,796.40718 10868.506,813.20717 10889.207,813.20718 z M 10761.301,725.89468 C 10699.674,725.89468 10670.426,680.03758 10670.426,572.89468 C 10670.425,466.82915 10693.88,417.73843 10762.957,417.73843 C 10826.969,417.73843 10851.801,479.53931 10851.801,572.89468 C 10851.8,681.27964 10832.54,725.89468 10761.301,725.89468 z "
       style="fill:#000000;fill-opacity:1;stroke:none;stroke-width:1;stroke-miterlimit:4;stroke-dasharray:none;stroke-dashoffset:0;stroke-opacity:1" />
    <path
       sodipodi:nodetypes="cccsccc"
       id="path1474"
       d="M 9999.1842,763.65693 C 9999.1842,784.35693 10015.984,801.15693 10036.684,801.15693 C 10036.684,801.15693 10430.38,801.15693 10430.38,801.15693 C 10451.08,801.15693 10467.88,784.35693 10467.88,763.65693 C 10467.88,742.95693 10451.08,726.15693 10430.38,726.15693 C 10430.38,726.15693 10036.684,726.15693 10036.684,726.15693 C 10015.984,726.15693 9999.1842,742.95693 9999.1842,763.65693 z "
       style="fill:#000000;fill-opacity:1;stroke:none;stroke-width:1;stroke-miterlimit:4;stroke-dasharray:none;stroke-dashoffset:0;stroke-opacity:1" />
    <path
       style="fill:#000000;fill-opacity:1;stroke:none;stroke-width:1;stroke-miterlimit:4;stroke-dasharray:none;stroke-dashoffset:0;stroke-opacity:1"
       d="M 1355.4739,103.78125 C 1334.774,103.78115 1317.9739,120.58115 1317.9739,141.28125 C 1317.9739,141.28115 1317.9739,205.625 1317.9739,205.625 C 1317.9739,205.625 1262.9114,205.15625 1262.9114,205.15625 C 1183.8294,205.15625 1122.6927,284.79224 1122.6926,350.65625 C 1122.6926,423.17325 1184.6064,490.15624 1262.9114,490.15625 C 1262.9114,490.15625 1317.9739,491.125 1317.9739,491.125 C 1317.9739,491.12501 1317.9739,629.09375 1317.9739,629.09375 C 1317.9739,629.09373 1171.6302,629.09375 1171.6302,629.09375 C 1150.9301,629.09375 1134.1302,645.89375 1134.1302,666.59375 C 1134.1301,687.29375 1150.9302,704.09375 1171.6302,704.09375 C 1171.6301,704.09374 1317.9739,704.09375 1317.9739,704.09375 C 1317.9739,704.09373 1317.9739,764.4375 1317.9739,764.4375 C 1317.974,785.1375 1334.774,801.9375 1355.4739,801.9375 C 1376.174,801.9375 1392.9739,785.1375 1392.9739,764.4375 C 1392.9739,764.4375 1392.9739,704.09375 1392.9739,704.09375 C 1392.9739,704.09375 1452.5364,702.375 1452.5364,702.375 C 1531.6184,702.375 1590.7552,622.73903 1590.7552,556.875 C 1590.7552,484.358 1530.8414,415.375 1452.5364,415.375 C 1452.5364,415.375 1392.9739,416.125 1392.9739,416.125 C 1392.9739,416.12501 1392.9739,280.625 1392.9739,280.625 C 1392.9739,280.62501 1525.3176,280.625 1525.3176,280.625 C 1546.0177,280.62491 1562.8176,263.825 1562.8176,243.125 C 1562.8177,222.42491 1546.0177,205.625 1525.3176,205.625 C 1525.3177,205.62491 1392.9739,205.625 1392.9739,205.625 C 1392.9739,205.62501 1392.9739,141.28125 1392.9739,141.28125 C 1392.974,120.58115 1376.174,103.78125 1355.4739,103.78125 z M 1317.9739,280.625 C 1317.9739,280.62501 1317.9739,416.125 1317.9739,416.125 C 1317.9739,416.125 1262.9114,415.15625 1262.9114,415.15625 C 1232.5154,415.15625 1197.2239,380.65849 1197.2239,347.8125 C 1197.2239,323.5445 1231.5124,280.15624 1262.9114,280.15625 C 1262.9114,280.15625 1317.9739,280.625 1317.9739,280.625 z M 1452.5364,490.375 C 1482.9324,490.375 1516.2239,526.87272 1516.2239,559.71875 C 1516.2239,583.98675 1483.9354,627.37503 1452.5364,627.375 C 1452.5364,627.375 1392.9739,629.09375 1392.9739,629.09375 C 1392.9739,629.09373 1392.9739,491.125 1392.9739,491.125 C 1392.9739,491.125 1452.5364,490.375 1452.5364,490.375 z "
       id="path1389"
       sodipodi:nodetypes="csccsccccssccscccsccccssccccccscccscccc" />
    <path
       style="fill:#000000;fill-opacity:1;stroke:none;stroke-width:1;stroke-miterlimit:4;stroke-dasharray:none;stroke-dashoffset:0;stroke-opacity:1"
       d="M 8143.5173,305.39314 C 8143.5173,326.09314 8160.3173,342.89314 8181.0173,342.89314 C 8181.0173,342.89314 8498.7133,342.89314 8498.7133,342.89314 C 8519.4133,342.89314 8536.2133,326.09314 8536.2133,305.39314 C 8536.2133,284.69314 8519.4133,267.89314 8498.7133,267.89314 C 8498.7133,267.89314 8181.0173,267.89314 8181.0173,267.89314 C 8160.3173,267.89314 8143.5173,284.69314 8143.5173,305.39314 z "
       id="path1398"
       sodipodi:nodetypes="cccsccc" />
    <path
       sodipodi:nodetypes="cccsccc"
       id="path1402"
       d="M 8143.5173,541.78368 C 8143.5173,562.48368 8160.3173,579.28368 8181.0173,579.28368 C 8181.0173,579.28368 8498.7133,579.28368 8498.7133,579.28368 C 8519.4133,579.28368 8536.2133,562.48368 8536.2133,541.78368 C 8536.2133,521.08368 8519.4133,504.28368 8498.7133,504.28368 C 8498.7133,504.28368 8181.0173,504.28368 8181.0173,504.28368 C 8160.3173,504.28368 8143.5173,521.08368 8143.5173,541.78368 z "
       style="fill:#000000;fill-opacity:1;stroke:none;stroke-width:1;stroke-miterlimit:4;stroke-dasharray:none;stroke-dashoffset:0;stroke-opacity:1" />
    <path
       style="fill:#000000;fill-opacity:1;stroke:none;stroke-width:1;stroke-miterlimit:4;stroke-dasharray:none;stroke-dashoffset:0;stroke-opacity:1"
       d="M 7801.8703,396.74371 C 7801.8703,417.44371 7785.0703,434.24371 7764.3703,434.24371 C 7743.6703,434.24371 7726.8703,417.44371 7726.8703,396.74371 C 7726.8703,376.04371 7743.6703,359.24371 7764.3703,359.24371 C 7785.0703,359.24371 7801.8703,376.04371 7801.8703,396.74371 z "
       id="path1404" />
    <path
       id="path1406"
       d="M 7801.8703,663.30259 C 7801.8703,684.00259 7785.0703,700.80259 7764.3703,700.80259 C 7743.6703,700.80259 7726.8703,684.00259 7726.8703,663.30259 C 7726.8703,642.60259 7743.6703,625.80259 7764.3703,625.80259 C 7785.0703,625.80259 7801.8703,642.60259 7801.8703,663.30259 z "
       style="fill:#000000;fill-opacity:1;stroke:none;stroke-width:1;stroke-miterlimit:4;stroke-dasharray:none;stroke-dashoffset:0;stroke-opacity:1" />
    <path
       id="path1408"
       d="M 7904.2213,356.74371 C 7904.2213,377.44371 7887.4213,394.24371 7866.7213,394.24371 C 7846.0213,394.24371 7829.2213,377.44371 7829.2213,356.74371 C 7829.2213,336.04371 7846.0213,319.24371 7866.7213,319.24371 C 7887.4213,319.24371 7904.2213,336.04371 7904.2213,356.74371 z "
       style="fill:#000000;fill-opacity:1;stroke:none;stroke-width:1;stroke-miterlimit:4;stroke-dasharray:none;stroke-dashoffset:0;stroke-opacity:1" />
    <path
       style="fill:#000000;fill-opacity:1;stroke:none;stroke-width:1;stroke-miterlimit:4;stroke-dasharray:none;stroke-dashoffset:0;stroke-opacity:1"
       d="M 7866.7073,587.84375 C 7846.0073,587.84375 7829.2063,604.64377 7829.2073,625.34375 C 7829.2073,625.34375 7829.2073,761.34375 7829.2073,761.34375 C 7829.2073,782.04375 7846.0063,798.84377 7866.7073,798.84375 C 7887.4073,798.84375 7904.2063,782.04377 7904.2073,761.34375 C 7904.2073,761.34375 7904.2073,625.34375 7904.2073,625.34375 C 7904.2073,604.64375 7887.4063,587.84377 7866.7073,587.84375 z "
       id="path1412"
       sodipodi:nodetypes="cccsccc" />
    <path
       id="path1417"
       d="M 6689.6168,114.70921 C 6635.009,114.70921 6303.7418,114.70921 6303.7418,114.70921 C 6283.0417,114.70921 6266.2418,131.50921 6266.2418,152.20921 C 6266.2417,172.90921 6283.0418,189.70921 6303.7418,189.70921 C 6303.7418,189.70921 6689.6481,189.70921 6689.6481,189.70921 C 6689.6481,189.70921 6273.6793,751.02171 6273.6793,751.02171 C 6263.3292,768.94843 6269.4714,791.89046 6287.3981,802.24046 C 6305.3248,812.59046 6328.2668,806.44843 6338.6168,788.52171 C 6338.6168,788.52171 6754.5855,227.20921 6754.5855,227.20921 C 6788.7156,165.01128 6770.8233,114.70921 6689.6168,114.70921 z "
       style="fill:#000000;fill-opacity:1;stroke:none;stroke-width:1;stroke-miterlimit:4;stroke-dasharray:none;stroke-dashoffset:0;stroke-opacity:1"
       sodipodi:nodetypes="ccscccsccc" />
    <path
       sodipodi:nodetypes="cccsccc"
       id="path1419"
       d="M 2813.1013,790.79945 C 2829.6331,803.25701 2853.1607,799.95046 2865.6182,783.41857 C 2865.6182,783.41857 3295.3917,160.62427 3295.3917,160.62427 C 3307.8492,144.09258 3304.5428,120.56502 3288.0111,108.10744 C 3271.4793,95.64987 3247.9517,98.95644 3235.4942,115.48831 C 3235.4942,115.48831 2805.7207,738.28261 2805.7207,738.28261 C 2793.2632,754.81431 2796.5696,778.34187 2813.1013,790.79945 z "
       style="fill:#000000;fill-opacity:1;stroke:none;stroke-width:1;stroke-miterlimit:4;stroke-dasharray:none;stroke-dashoffset:0;stroke-opacity:1" />
    <path
       d="M 15819.334,560.25 C 15819.335,560.25 15819.803,762.9375 15819.803,762.9375 C 15819.805,783.6375 15836.604,800.4375 15857.303,800.4375 C 15878.005,800.4375 15894.804,783.6375 15894.803,762.9375 C 15894.804,762.9375 15893.959,560.25 15893.959,560.25 C 15893.959,451.86504 15914.637,399.25 16000.459,399.25 C 16034.719,399.25 16066.115,410.08689 16081.521,431.71875 C 16086.322,446.89683 16100.513,457.90625 16117.271,457.90625 C 16137.972,457.90625 16154.772,441.10625 16154.771,420.40625 C 16154.771,399.4832 16141.897,387.20813 16127.771,372.53125 C 16099.998,342.06857 16052.586,324.71875 15999.303,324.71875 C 15871.776,324.71875 15819.334,403.50783 15819.334,560.25 z "
       id="path1422"
       sodipodi:nodetypes="ccsccscscccc"
       style="fill:#000000;stroke:none;stroke-width:1;stroke-miterlimit:4;stroke-dasharray:none;stroke-opacity:1;fill-opacity:1" />
    <path
       style="fill:#000000;fill-opacity:1;stroke:none;stroke-width:1;stroke-miterlimit:4;stroke-dasharray:none;stroke-dashoffset:0;stroke-opacity:1"
       d="M 18993.44,33.289868 C 18972.74,33.289868 18955.941,50.089878 18955.94,70.789868 C 18955.94,70.789868 18955.94,922.28987 18955.94,922.28987 C 18955.94,942.98987 18972.741,959.78987 18993.44,959.78987 C 19014.14,959.78987 19030.941,942.98987 19030.94,922.28987 C 19030.94,922.28987 19030.94,70.789868 19030.94,70.789868 C 19030.94,50.089868 19014.141,33.289878 18993.44,33.289868 z "
       id="path1434"
       sodipodi:nodetypes="cccsccc" />
    <path
       style="fill:#000000;fill-opacity:1;stroke:none;stroke-width:1;stroke-miterlimit:4;stroke-dasharray:none;stroke-dashoffset:0;stroke-opacity:1"
       d="M 7913.5373,446.40315 C 7913.5373,446.40315 8193.5703,782.14015 8193.5703,782.14015 C 8203.9203,800.06715 8226.8623,806.20915 8244.7893,795.85915 C 8262.7153,785.50915 8268.8583,762.56715 8258.5083,744.64015 C 8258.5083,744.64015 7989.6383,428.79615 7989.6383,428.79615 C 7989.6383,428.79615 8258.5083,111.04615 8258.5083,111.04615 C 8268.8583,93.11915 8262.7163,70.14615 8244.7893,59.79615 C 8226.8623,49.44615 8203.9203,55.61915 8193.5703,73.54615 C 8193.5703,73.54615 7913.5373,401.09615 7913.5373,401.09615 C 7904.2293,418.26215 7903.4393,430.31515 7913.5373,446.40315 z "
       id="path1441"
       sodipodi:nodetypes="ccccccsccc" />
    <path
       style="fill:#000000;fill-opacity:1;stroke:none;stroke-width:1;stroke-miterlimit:4;stroke-dasharray:none;stroke-dashoffset:0;stroke-opacity:1"
       d="M 17404.713,323.26591 C 17398.668,323.42188 17392.565,325.03155 17386.963,328.26591 C 17369.036,338.61589 17362.894,361.58919 17373.244,379.51591 C 17373.244,379.51591 17504.572,567.90076 17504.572,567.90076 C 17504.572,567.90076 17373.244,745.10967 17373.244,745.10967 C 17362.894,763.03639 17369.036,785.97842 17386.963,796.32841 C 17404.89,806.67841 17427.832,800.53638 17438.182,782.60967 C 17438.182,782.60967 17550.151,625.29717 17550.151,625.29717 C 17550.151,625.29717 17670.088,782.60967 17670.088,782.60967 C 17680.438,800.53639 17703.38,806.67839 17721.307,796.32841 C 17739.233,785.97844 17745.376,763.03639 17735.026,745.10967 C 17735.026,745.10967 17592.536,561.57713 17592.536,561.57713 C 17592.536,561.57713 17735.026,379.51591 17735.026,379.51591 C 17745.376,361.58919 17739.234,338.61591 17721.307,328.26591 C 17703.38,317.91591 17680.438,324.08919 17670.088,342.01591 C 17670.088,342.01591 17550.151,503.32841 17550.151,503.32841 C 17550.151,503.32841 17438.182,342.01591 17438.182,342.01591 C 17431.066,329.69129 17418.013,322.92278 17404.713,323.26591 z "
       id="path1445"
       sodipodi:nodetypes="cscccscccccccscccc" />
    <path
       sodipodi:nodetypes="cccsccc"
       id="path1450"
       d="M 19125.968,146.27951 C 19105.268,146.27951 19088.469,163.07952 19088.468,183.77951 C 19088.468,183.77951 19088.468,391.2795 19088.468,391.2795 C 19088.468,411.9795 19105.269,428.7795 19125.968,428.7795 C 19146.668,428.7795 19163.469,411.9795 19163.468,391.2795 C 19163.468,391.2795 19163.468,183.77951 19163.468,183.77951 C 19163.468,163.07951 19146.669,146.27952 19125.968,146.27951 z "
       style="fill:#000000;fill-opacity:1;stroke:none;stroke-width:1;stroke-miterlimit:4;stroke-dasharray:none;stroke-dashoffset:0;stroke-opacity:1" />
    <path
       style="fill:#000000;fill-opacity:1;stroke:none;stroke-width:1;stroke-miterlimit:4;stroke-dasharray:none;stroke-dashoffset:0;stroke-opacity:1"
       d="M 19125.968,516.27951 C 19105.268,516.27951 19088.469,533.07952 19088.468,553.77951 C 19088.468,553.77951 19088.468,761.2795 19088.468,761.2795 C 19088.468,781.9795 19105.269,798.7795 19125.968,798.7795 C 19146.668,798.7795 19163.469,781.9795 19163.468,761.2795 C 19163.468,761.2795 19163.468,553.77951 19163.468,553.77951 C 19163.468,533.07951 19146.669,516.27952 19125.968,516.27951 z "
       id="path1452"
       sodipodi:nodetypes="cccsccc" />
    <path
       d="M 12562.413,983.90825 C 12689.939,983.90825 12736.382,905.11917 12736.382,748.377 C 12736.382,748.377 12734.695,536.15825 12734.695,536.15825 C 12728.108,406.8486 12682.334,325.502 12562.132,325.502 C 12456.454,325.502 12384.757,420.5821 12384.757,563.03325 C 12384.757,692.92816 12456.236,798.5645 12561.413,798.5645 C 12607.474,798.5645 12633.803,785.71955 12661.601,763.4395 C 12659.628,861.60864 12642.991,909.377 12561.257,909.377 C 12526.996,909.377 12499.6,898.54011 12484.195,876.90825 C 12479.393,861.73017 12465.202,850.72075 12448.445,850.72075 C 12427.743,850.72076 12410.943,867.52075 12410.945,888.22075 C 12410.944,909.1438 12423.818,921.41887 12437.945,936.09575 C 12465.717,966.55843 12509.13,983.90825 12562.413,983.90825 z M 12560.257,724.03325 C 12496.367,724.03325 12459.382,657.59275 12459.382,563.03325 C 12459.381,456.96772 12502.875,399.877 12561.913,399.877 C 12637.315,399.877 12660.757,469.67788 12660.757,563.03325 C 12660.756,671.41821 12646.079,724.03325 12560.257,724.03325 z "
       id="path1456"
       style="fill:#000000;stroke:none;stroke-width:1;stroke-miterlimit:4;stroke-dasharray:none;stroke-opacity:1;fill-opacity:1"
       sodipodi:nodetypes="cccscscscscccccscc" />
    <path
       d="M 17958.02,987.5424 C 18085.432,987.5424 18145.989,912.02944 18145.989,720.01115 C 18145.989,720.01115 18145.645,361.4174 18145.645,361.4174 C 18145.643,340.7174 18126.844,323.9174 18106.145,323.9174 C 18085.443,323.9174 18068.644,340.7174 18068.645,361.4174 C 18068.644,361.4174 18069.489,564.1049 18069.489,564.1049 C 18069.489,672.48986 18050.811,725.1049 17964.989,725.1049 C 17888.632,725.1049 17866.113,671.2478 17866.113,564.1049 C 17866.113,564.1049 17867.645,361.4174 17867.645,361.4174 C 17867.645,340.7174 17850.844,323.9174 17830.145,323.9174 C 17809.445,323.9174 17792.644,340.7174 17792.645,361.4174 C 17792.644,361.4174 17791.489,564.1049 17791.489,564.1049 C 17791.489,702.33635 17839.978,799.63615 17966.145,799.63615 C 18006.631,799.63615 18044.48,789.72728 18069.176,772.19865 C 18069.176,867.12161 18027.534,913.01115 17956.863,913.01115 C 17922.604,913.01115 17883.207,902.17426 17867.801,880.5424 C 17862.999,865.36431 17848.809,854.3549 17832.051,854.3549 C 17811.349,854.35489 17794.55,871.1549 17794.551,891.8549 C 17794.55,912.77794 17807.425,925.05302 17821.551,939.7299 C 17849.323,970.19258 17904.737,987.5424 17958.02,987.5424 z "
       id="path1462"
       sodipodi:nodetypes="cccsccsccsccscscsccc"
       style="fill:#000000;stroke:none;stroke-width:1;stroke-miterlimit:4;stroke-dasharray:none;stroke-opacity:1;fill-opacity:1" />
    <path
       style="fill:#000000;fill-opacity:1;stroke:none;stroke-width:1;stroke-miterlimit:4;stroke-dasharray:none;stroke-dashoffset:0;stroke-opacity:1"
       d="M 5258.883,96.625 C 5253.3023,96.749964 5247.8017,98.125165 5242.8206,100.625 C 5242.4201,100.82598 5242.0267,101.03447 5241.633,101.25 C 5234.9012,104.79626 5229.386,110.32335 5225.8518,117.0625 C 5223.1749,120.46114 4908.6643,519.78125 4908.6643,519.78125 C 4874.534,581.97916 4892.4265,632.28125 4973.633,632.28125 C 5008.7205,632.28123 5119.3103,632.28125 5221.5706,632.28125 C 5221.5706,673.02736 5221.5706,758.53125 5221.5706,758.53125 C 5221.5703,779.23124 5238.3706,796.03127 5259.0706,796.03125 C 5279.7703,796.03124 5296.5706,779.23124 5296.5706,758.53125 C 5296.5705,758.53125 5296.5706,673.02736 5296.5706,632.28125 C 5311.558,632.28125 5359.508,632.28125 5359.508,632.28125 C 5380.2084,632.28123 5397.008,615.48125 5397.008,594.78125 C 5397.0084,574.08123 5380.208,557.28125 5359.508,557.28125 C 5359.5081,557.28125 5313.7514,557.28125 5296.5706,557.28125 C 5296.5705,375.25823 5296.5705,149.01942 5296.5706,140.71875 C 5299.2701,125.61051 5292.4679,109.73887 5278.4143,101.625 C 5272.252,98.067189 5265.5154,96.476489 5258.883,96.625 z M 5221.5706,242.4375 C 5221.5705,332.54849 5221.5705,419.70571 5221.5706,557.28125 C 5107.6656,557.28125 4973.6018,557.28125 4973.6018,557.28125 C 4973.6019,557.28123 5136.0416,351.02139 5221.5706,242.4375 z "
       id="path1467" />
    <path
       style="fill:#000000;stroke:none;stroke-width:1;stroke-miterlimit:4;stroke-dasharray:none;stroke-opacity:1;fill-opacity:1"
       d="M 11526.761,326.8125 C 11436.956,326.81248 11362.792,424.44766 11362.792,562.34375 C 11367.096,702.80908 11436.746,802.6875 11526.761,802.6875 C 11615.902,802.6875 11671.979,781.35938 11671.979,725.75 C 11671.979,705.05 11659.179,684.24999 11638.479,684.25 C 11594.077,694.73548 11628.041,728.15625 11527.917,728.15625 C 11473.57,728.15623 11437.417,665.03557 11437.417,567.15625 C 11437.416,469.45 11476.916,401.34375 11527.917,401.34375 C 11613.857,401.34375 11610.851,429.60633 11634.479,435.9375 C 11655.179,444.67575 11671.979,419.13749 11671.979,398.4375 C 11671.979,358.40335 11629.943,326.8125 11526.761,326.8125 z "
       id="path1469"
       sodipodi:nodetypes="ccccccccccc" />
    <path
       style="fill:#000000;fill-opacity:1;stroke:none;stroke-width:1;stroke-miterlimit:4;stroke-dasharray:none;stroke-dashoffset:0;stroke-opacity:1"
       d="M 18257.739,331 C 18237.039,331 18220.239,347.8 18220.239,368.5 C 18220.239,389.2 18237.039,406 18257.739,406 C 18257.739,406 18461.645,406 18461.645,406 C 18385.715,507.08023 18233.551,708.90625 18233.551,708.90625 C 18193.786,767.43385 18214.724,797.40625 18298.489,797.40625 L 18298.52,797.40625 C 18298.583,797.40624 18522.395,797.40625 18522.395,797.40625 C 18543.096,797.40624 18559.895,780.60625 18559.895,759.90625 C 18559.896,739.20624 18543.095,722.40625 18522.395,722.40625 C 18522.396,722.40624 18318.458,722.40625 18318.458,722.40625 C 18318.458,722.40625 18540.583,429.5 18540.583,429.5 C 18583.295,375.88365 18554.821,331 18473.614,331 C 18473.614,331 18257.739,331 18257.739,331 z "
       id="path1378"
       sodipodi:nodetypes="csccsccccscccc" />
    <path
       style="fill:#000000;fill-opacity:1;stroke:none;stroke-width:1;stroke-miterlimit:4;stroke-dasharray:none;stroke-dashoffset:0;stroke-opacity:1"
       d="M 9772.4222,54.03125 C 9750.3072,55.034597 9734.8832,72.329163 9733.6092,93.71875 C 9733.6092,93.71875 9733.6092,759.21875 9733.6092,759.21875 C 9734.2192,781.48416 9750.9822,796.55004 9772.4222,798.90625 C 9772.4222,798.90625 9918.1092,798.90625 9918.1092,798.90625 C 9938.8092,798.90625 9955.6092,782.10625 9955.6092,761.40625 C 9955.6092,740.70625 9938.8092,723.90625 9918.1092,723.90625 C 9918.1092,723.90625 9849.4972,723.90625 9808.6092,723.90625 C 9808.6092,723.90625 9808.6092,129.03125 9808.6092,129.03125 C 9849.4972,129.03125 9918.1092,129.03125 9918.1092,129.03125 C 9938.8092,129.03125 9955.6092,112.23125 9955.6092,91.53125 C 9955.6092,70.831247 9938.8092,54.03125 9918.1092,54.03125 C 9918.1092,54.031251 9772.4222,54.03125 9772.4222,54.03125 z "
       id="path2349"
       sodipodi:nodetypes="cccccsccccscc" />
    <path
       sodipodi:nodetypes="cccccccscc"
       id="path2357"
       d="M 3853.8338,101.93608 C 3875.9488,102.93943 3891.3728,120.234 3892.6468,141.62358 C 3892.6468,141.62358 3892.6468,759.12356 3892.6468,759.12356 C 3892.0368,781.38896 3875.2738,796.45486 3853.8338,798.81106 C 3831.7741,798.81106 3818.6468,785.1094 3818.6468,761.31106 C 3818.6468,761.31106 3817.6468,176.93608 3817.6468,176.93608 C 3776.7588,176.93608 3768.1468,176.93608 3768.1468,176.93608 C 3747.4468,176.93608 3730.6468,160.13608 3730.6468,139.43608 C 3730.6468,118.73608 3747.4468,101.93608 3768.1468,101.93608 C 3768.1468,101.93608 3853.8338,101.93608 3853.8338,101.93608 z "
       style="fill:#000000;fill-opacity:1;stroke:none;stroke-width:1;stroke-miterlimit:4;stroke-dasharray:none;stroke-dashoffset:0;stroke-opacity:1" />
    <path
       style="fill:#000000;fill-opacity:1;stroke:none;stroke-width:1;stroke-miterlimit:4;stroke-dasharray:none;stroke-dashoffset:0;stroke-opacity:1"
       d="M 18729.727,102.03125 C 18707.612,103.0346 18692.189,120.32916 18690.914,141.71875 C 18690.914,378.57428 18690.284,413.5 18660.914,413.5 C 18634.233,413.5 18627.852,413.5 18627.852,413.5 C 18607.153,413.49999 18590.352,430.299 18590.352,451 C 18590.353,471.69999 18607.152,488.499 18627.852,488.5 C 18627.852,488.5 18634.233,488.5 18660.914,488.5 C 18694.371,488.5 18690.914,532.30803 18690.914,759.21875 C 18691.524,781.48416 18708.287,796.55004 18729.727,798.90625 C 18729.727,798.90625 18863.414,798.90625 18863.414,798.90625 C 18884.114,798.90625 18900.914,782.10625 18900.914,761.40625 C 18900.914,740.70625 18884.115,723.90625 18863.414,723.90625 C 18863.414,723.90625 18806.802,723.90625 18765.914,723.90625 C 18765.914,517.32776 18775.807,471.80897 18729.619,451 C 18776.555,429.75941 18765.915,345.64158 18765.914,177.03125 C 18806.802,177.03125 18863.414,177.03125 18863.414,177.03125 C 18884.114,177.03125 18900.914,160.23125 18900.914,139.53125 C 18900.914,118.83125 18884.115,102.03125 18863.414,102.03125 C 18863.414,102.03125 18729.727,102.03125 18729.727,102.03125 z "
       id="path2359"
       sodipodi:nodetypes="ccccccccccscccccscc" />
    <path
       style="fill:#000000;fill-opacity:1;stroke:none;stroke-width:1;stroke-miterlimit:4;stroke-dasharray:none;stroke-dashoffset:0;stroke-opacity:1"
       d="M 13547.178,129.9375 C 13526.478,129.9375 13509.68,146.73751 13509.678,167.4375 C 13509.678,167.4375 13509.678,764.9375 13509.678,764.9375 C 13509.678,785.6375 13526.479,802.4375 13547.178,802.4375 C 13567.878,802.4375 13584.68,785.6375 13584.678,764.9375 C 13584.678,764.9375 13584.679,675.4543 13584.678,625.65625 C 13610.584,598.83011 13613.46,595.84336 13639.022,569.375 C 13671.135,612.2734 13800.116,784.5625 13800.116,784.5625 C 13812.577,801.09336 13836.083,804.39529 13852.616,791.9375 C 13869.145,779.4808 13872.447,755.96832 13859.991,739.4375 C 13859.991,739.4375 13714.589,545.18799 13691.804,514.75 C 13751.881,452.54597 13837.054,364.34375 13837.054,364.34375 C 13851.434,349.45255 13851.035,325.69019 13836.147,311.3125 C 13821.257,296.93191 13797.494,297.32876 13783.116,312.21875 C 13783.116,312.21875 13683.709,415.16981 13584.678,517.71875 C 13584.679,347.78902 13584.678,167.4375 13584.678,167.4375 C 13584.678,146.7375 13567.879,129.93751 13547.178,129.9375 z "
       id="path1373" />
    <path
       style="fill:#000000;stroke:none;stroke-width:1;stroke-miterlimit:4;stroke-dasharray:none;stroke-opacity:1;fill-opacity:1"
       sodipodi:nodetypes="ccsccccccc"
       id="path1379"
       d="M 13449.739,831.85412 C 13449.738,831.85412 13449.27,357.16612 13449.27,357.16612 C 13449.268,336.46612 13432.469,319.66612 13411.77,319.66612 C 13391.068,319.66612 13374.269,336.46612 13374.27,357.16612 C 13374.269,357.16612 13375.114,829.85412 13375.114,829.85412 C 13375.114,893.54692 13362.756,910.85412 13334.614,910.85412 C 13292.764,910.85412 13296.076,894.06607 13264.519,903.60747 C 13245.658,912.13925 13238.301,918.99712 13238.302,939.69712 C 13238.302,974.9462 13281.195,985.38512 13335.77,985.38512 C 13409.619,985.38512 13449.739,944.1394 13449.739,831.85412 z " />
    <path
       d="M 3503.6564,102.65515 C 3344.2277,102.65515 3255.6884,214.47104 3255.6884,452.18645 C 3255.6884,663.84269 3331.9172,799.71765 3502.9384,799.71765 C 3680.5989,799.71765 3754.3134,651.9903 3754.3134,452.18645 C 3754.3134,260.5007 3681.3574,102.65515 3503.6564,102.65515 z M 3504.8134,177.18645 C 3617.4668,177.18645 3679.6884,263.84679 3679.6884,452.18645 C 3679.6884,639.53442 3610.9606,725.34265 3503.1564,725.34265 C 3400.0138,725.34265 3330.3134,629.805 3330.3134,452.18645 C 3330.3134,262.5003 3393.303,177.18645 3504.8134,177.18645 z "
       id="path1390"
       sodipodi:nodetypes="cccccccccc"
       style="fill:#000000;stroke:none;stroke-width:1;stroke-miterlimit:4;stroke-dasharray:none;stroke-opacity:1;fill-opacity:1" />
    <path
       style="fill:#000000;stroke:none;stroke-width:1;stroke-miterlimit:4;stroke-dasharray:none;stroke-opacity:1;fill-opacity:1"
       d="M 6777.1744,299.89442 C 6777.1743,370.99522 6807.7682,428.94062 6856.4869,458.01942 C 6810.1444,488.75892 6774.7681,543.21912 6774.7681,610.14442 C 6774.7681,741.77562 6879.5182,800.11322 7010.2995,800.11322 C 7155.1155,800.11312 7239.8305,739.19312 7239.8305,610.86322 C 7239.8305,538.64322 7214.5805,483.02542 7165.8615,453.08192 C 7209.5945,423.41192 7234.2365,366.78332 7234.2365,300.61322 C 7234.2365,169.91107 7159.5465,103.23817 7004.7365,103.23817 C 6866.5054,103.23807 6777.1744,173.72737 6777.1744,299.89442 z M 6851.7369,298.73822 C 6851.7369,222.38112 6897.594,177.86317 7004.7365,177.86317 C 7110.8025,177.86307 7159.8615,218.28142 7159.8615,300.39442 C 7150.2839,390.67663 7089.9821,417.8064 7010.2995,417.48822 C 6923.8728,423.42947 6861.8474,392.00414 6851.7369,298.73822 z M 6849.2994,608.98822 C 6856.4994,513.0305 6920.8335,493.40221 7004.7365,493.86322 C 7090.35,488.08952 7154.4168,519.09911 7165.4555,610.64442 C 7165.4555,686.04662 7103.6545,725.48822 7010.2995,725.48822 C 6901.9144,725.48812 6849.2994,694.81022 6849.2994,608.98822 z "
       id="path1393"
       sodipodi:nodetypes="ccscscsccccccccccsc" />
    <path
       sodipodi:nodetypes="cccscscscscccccscc"
       style="fill:#000000;stroke:none;stroke-width:1;stroke-miterlimit:4;stroke-dasharray:none;stroke-opacity:1;fill-opacity:1"
       id="path1399"
       d="M 7469.9548,799.47737 C 7597.4808,799.47737 7673.9238,749.54435 7673.9238,525.94607 C 7673.9238,525.94607 7672.2368,313.72737 7672.2368,313.72737 C 7672.2368,167.7051 7606.5979,103.07107 7469.6738,103.07107 C 7363.9958,103.07107 7262.2988,166.15117 7262.2988,308.60237 C 7262.2988,438.49727 7335.062,508.13357 7468.9548,508.13357 C 7515.0158,508.13357 7571.3448,495.28867 7599.1428,473.00857 C 7599.1428,681.4601 7579.1636,724.94607 7468.7988,724.94607 C 7434.5378,724.94607 7401.1418,714.10917 7385.7368,692.47737 C 7380.9348,677.29927 7366.7438,666.28987 7349.9868,666.28987 C 7329.2848,666.28987 7312.4848,683.08987 7312.4868,703.78987 C 7312.4858,724.71287 7325.3598,736.98797 7339.4868,751.66487 C 7367.2588,782.12757 7416.6718,799.47737 7469.9548,799.47737 z M 7467.7988,433.60237 C 7379.9202,433.60237 7336.9238,403.16187 7336.9238,308.60237 C 7336.9228,202.53687 7410.4168,177.44607 7469.4548,177.44607 C 7568.7445,177.44607 7598.2988,225.77388 7598.2988,340.60237 C 7598.2988,420.92558 7553.6208,433.60237 7467.7988,433.60237 z " />
    <path
       d="M 6067.169,107.25212 C 5939.643,107.25212 5861.2,174.198 5861.2,378.78342 C 5861.2,378.78342 5862.887,591.00212 5862.887,591.00212 C 5869.474,720.31182 5949.248,801.65842 6069.45,801.65842 C 6175.128,801.65842 6280.825,746.57822 6280.825,604.12712 C 6280.825,474.23222 6175.346,418.59592 6070.169,418.59592 C 6024.108,418.59592 5963.779,431.44072 5935.981,453.72092 C 5935.981,271.44924 5943.622,181.78342 6068.325,181.78342 C 6162.3547,181.78342 6203.387,249.60485 6203.387,322.25212 C 6208.189,337.43012 6222.38,348.43962 6239.137,348.43962 C 6259.839,348.43962 6276.639,331.63952 6276.637,310.93962 C 6276.637,229.38461 6220.0327,107.25212 6067.169,107.25212 z M 6071.325,493.12712 C 6135.215,493.12712 6206.2,509.56762 6206.2,604.12712 C 6206.201,710.19262 6128.707,727.28342 6069.669,727.28342 C 5994.267,727.28342 5936.825,657.48252 5936.825,564.12712 C 5936.825,520.09674 5985.503,493.12712 6071.325,493.12712 z "
       id="path1405"
       style="fill:#000000;stroke:none;stroke-width:1;stroke-miterlimit:4;stroke-dasharray:none;stroke-opacity:1;fill-opacity:1"
       sodipodi:nodetypes="cccscscscsccccscc" />
    <path
       style="fill:#000000;fill-opacity:1;stroke:none;stroke-width:1;stroke-miterlimit:4;stroke-dasharray:none;stroke-dashoffset:0;stroke-opacity:1"
       d="M 13449.852,168.81278 C 13449.852,189.51278 13433.052,206.31278 13412.352,206.31278 C 13391.652,206.31278 13374.852,189.51278 13374.852,168.81278 C 13374.852,148.11278 13391.652,131.31278 13412.352,131.31278 C 13433.052,131.31278 13449.852,148.11278 13449.852,168.81278 z "
       id="path1414" />
    <path
       style="fill:#000000;stroke:none;stroke-width:1;stroke-miterlimit:4;stroke-dasharray:none;stroke-opacity:1;fill-opacity:1"
       d="M 12246.3,140.71875 C 12172.451,140.71875 12130.332,181.96472 12130.332,294.25 C 12130.332,294.25 12130.384,336.50029 12130.394,346.875 C 12123.218,346.875 12101.05,346.875 12101.05,346.875 C 12080.351,346.87501 12063.55,363.675 12063.55,384.375 C 12063.551,405.07501 12080.35,421.875 12101.05,421.875 C 12101.051,421.875 12123.252,421.875 12130.457,421.875 C 12130.591,558.32263 12130.8,768.9375 12130.8,768.9375 C 12130.802,789.63751 12147.601,806.4375 12168.3,806.4375 C 12189.002,806.43751 12205.802,789.6375 12205.8,768.9375 C 12205.801,768.93751 12205.418,557.32334 12205.176,421.875 C 12255.959,421.875 12306.769,421.875 12306.769,421.875 C 12327.469,421.87501 12344.269,405.075 12344.269,384.375 C 12344.269,363.67501 12327.469,346.875 12306.769,346.875 C 12306.769,346.875 12255.898,346.875 12205.05,346.875 C 12205.033,337.19246 12204.957,296.25 12204.957,296.25 C 12204.956,232.5572 12219.315,215.25 12247.457,215.25 C 12289.306,215.25 12287.993,232.0414 12319.55,222.5 C 12338.412,213.96822 12345.77,207.10625 12345.769,186.40625 C 12345.768,151.15717 12300.876,140.71875 12246.3,140.71875 z "
       id="path1418" />
    <path
       id="path1423"
       d="M 16788.823,799.36871 C 16714.974,799.36871 16672.855,758.12274 16672.855,645.83746 C 16672.855,645.83746 16672.907,413.58717 16672.917,403.21246 C 16665.741,403.21246 16625.573,403.21246 16625.573,403.21246 C 16604.874,403.21245 16588.073,386.41246 16588.073,365.71246 C 16588.074,345.01245 16604.873,328.21246 16625.573,328.21246 C 16625.574,328.21246 16665.775,328.21246 16672.98,328.21246 C 16673.114,191.76483 16673.323,171.14996 16673.323,171.14996 C 16673.325,150.44995 16690.124,133.64996 16710.823,133.64996 C 16731.525,133.64995 16748.325,150.44996 16748.323,171.14996 C 16748.324,171.14995 16747.941,192.76412 16747.699,328.21246 C 16798.482,328.21246 16833.292,328.21246 16833.292,328.21246 C 16853.992,328.21245 16870.792,345.01246 16870.792,365.71246 C 16870.792,386.41245 16853.992,403.21246 16833.292,403.21246 C 16833.292,403.21246 16798.421,403.21246 16747.573,403.21246 C 16747.556,412.895 16747.48,643.83746 16747.48,643.83746 C 16747.479,707.53026 16761.838,724.83746 16789.98,724.83746 C 16831.829,724.83746 16830.516,708.04606 16862.073,717.58746 C 16880.935,726.11924 16888.293,732.98121 16888.292,753.68121 C 16888.291,788.93029 16843.399,799.36871 16788.823,799.36871 z "
       style="fill:#000000;stroke:none;stroke-width:1;stroke-miterlimit:4;stroke-dasharray:none;stroke-opacity:1;fill-opacity:1"
       sodipodi:nodetypes="cccccsccscccscccsccc" />
    <path
       style="fill:#000000;stroke:none;stroke-width:1;stroke-miterlimit:4;stroke-dasharray:none;stroke-opacity:1;fill-opacity:1"
       d="M 11883.586,320.8125 C 11771.123,320.8125 11699.617,424.44766 11699.617,562.34375 C 11703.921,702.80908 11793.571,802.6875 11883.586,802.6875 C 11972.726,802.6875 12048.805,781.35938 12048.805,725.75 C 12048.803,705.05 12036.004,684.24999 12015.305,684.25 C 11970.901,694.73548 11984.866,728.15625 11884.742,728.15625 C 11836.002,728.15623 11781.917,677.39003 11775.398,596.3125 C 11821.914,596.3125 12011.679,596.3125 12011.679,596.3125 C 12032.381,596.3125 12049.179,579.5125 12049.179,558.8125 C 12049.179,416.31194 12010.598,320.8125 11883.586,320.8125 z M 11880.742,401.34375 C 11946.655,401.34375 11972.695,453.16534 11976.023,521.3125 C 11924.764,521.3125 11777.367,521.3125 11777.367,521.3125 C 11787.626,448.79735 11815.483,401.34375 11880.742,401.34375 z "
       id="path1366"
       sodipodi:nodetypes="ccsccscccccccc" />
    <path
       sodipodi:nodetypes="ccccccsccc"
       id="path1383"
       d="M 10188.544,6.7879735 C 10188.544,6.7879735 10040.807,186.82097 10040.807,186.82097 C 10025.546,206.05605 10016.738,220.11297 10027.088,238.03997 C 10037.438,255.96597 10060.38,262.10897 10078.307,251.75897 C 10078.307,251.75897 10206.151,88.888973 10206.151,88.888973 C 10206.151,88.888973 10341.901,251.75897 10341.901,251.75897 C 10359.828,262.10897 10382.801,255.96697 10393.151,238.03997 C 10403.501,220.11297 10392.885,206.05605 10379.401,186.82097 C 10379.401,186.82097 10233.851,6.7879735 10233.851,6.7879735 C 10216.685,-2.5200265 10204.632,-3.3100265 10188.544,6.7879735 z "
       style="fill:#000000;fill-opacity:1;stroke:none;stroke-width:1;stroke-miterlimit:4;stroke-dasharray:none;stroke-dashoffset:0;stroke-opacity:1" />
    <path
       style="fill:#000000;stroke:none;stroke-width:1;stroke-miterlimit:4;stroke-dasharray:none;stroke-opacity:1;fill-opacity:1"
       sodipodi:nodetypes="ccscccscc"
       id="path1385"
       d="M 15207.373,279.81457 C 15141.509,279.81457 15091.873,238.67842 15091.873,159.59582 C 15091.874,138.89582 15108.674,122.09582 15129.373,122.09582 C 15150.074,122.09582 15166.874,138.89582 15166.873,159.59582 C 15166.873,190.99558 15180.261,205.28332 15204.529,205.28332 C 15237.375,205.28332 15247.873,189.99242 15247.873,159.59582 C 15247.872,138.89582 15264.674,122.09582 15285.373,122.09582 C 15306.072,122.09582 15322.874,138.89582 15322.873,159.59582 C 15322.873,237.90128 15279.89,279.81457 15207.373,279.81457 z " />
    <path
       d="M 11642.111,844.73019 C 11642.111,910.59419 11600.975,960.23019 11521.893,960.23019 C 11501.193,960.22919 11484.393,943.42919 11484.393,922.73019 C 11484.393,902.02919 11501.193,885.22919 11521.893,885.23019 C 11553.292,885.23019 11567.58,871.84219 11567.58,847.57419 C 11567.58,814.72819 11552.289,804.23019 11521.893,804.23019 C 11501.193,804.23119 11484.393,787.42919 11484.393,766.73019 C 11484.393,746.03119 11501.193,729.22919 11521.893,729.23019 C 11600.198,729.23019 11642.111,772.21319 11642.111,844.73019 z "
       id="path1391"
       sodipodi:nodetypes="ccscccscc"
       style="fill:#000000;stroke:none;stroke-width:1;stroke-miterlimit:4;stroke-dasharray:none;stroke-opacity:1;fill-opacity:1" />
    <path
       style="fill:#000000;fill-opacity:1;stroke:none;stroke-width:1;stroke-miterlimit:4;stroke-dasharray:none;stroke-dashoffset:0;stroke-opacity:1"
       d="M 17078.63,795.64235 C 17012.2,770.05541 16928.256,511.47282 16910.893,383.60939 C 16897.338,347.31633 16912.53,328.14204 16929.703,322.15562 C 16950.288,307.64121 16971.524,321.96775 16980.922,345.96412 C 16994.778,419.69999 17072.27,713.54125 17096.237,713.54125 C 17118.706,713.54125 17212.1,421.02536 17220.635,342.55253 C 17230.033,313.43878 17251.3,316.16919 17273.591,325.56721 C 17292.665,333.60918 17306.971,352.43372 17293.487,390.43257 C 17283.252,468.74726 17194.46,780.10968 17123.937,795.64235 C 17105.267,799.75433 17094.718,805.74035 17078.63,795.64235 z "
       id="path1395"
       sodipodi:nodetypes="ccccscscsc" />
    <path
       style="fill:#000000;stroke:none;stroke-width:1;stroke-miterlimit:4;stroke-dasharray:none;stroke-opacity:1;fill-opacity:1"
       d="M 4642.3772,103.25 C 4532.3926,103.24992 4425.6585,135.73471 4425.6585,229.65625 C 4425.6585,299.84325 4507.6272,284.13968 4507.6272,229.65625 C 4529.9549,196.24761 4573.5199,177.875 4642.3772,177.875 C 4748.4431,177.8749 4797.5022,238.29325 4797.5022,320.40625 C 4797.5022,414.2476 4752.6455,417.5 4639.9398,417.5 C 4622.7527,417.5 4601.8448,426.43983 4601.8448,454.47525 C 4601.8448,488.6441 4617.7268,493.77738 4642.3772,493.875 C 4792.043,493.875 4797.096,503.48957 4797.096,584.65625 C 4797.0961,660.05846 4741.2948,725.5 4647.9398,725.5 C 4547.7127,725.5 4518.846,708.22395 4518.846,682.53125 C 4518.846,615.48459 4427.4085,618.67743 4427.4085,682.53125 C 4427.4085,760.59906 4510.4079,800.125 4647.9398,800.125 C 4792.7556,800.125 4871.471,713.2049 4871.471,584.875 C 4871.4711,512.655 4874.2213,483.03725 4825.5022,453.09375 C 4869.2351,423.42376 4871.8772,386.7951 4871.8772,320.625 C 4871.8771,189.92285 4797.1873,103.25 4642.3772,103.25 z "
       id="path1358"
       sodipodi:nodetypes="cccscccccsccsccsc" />
    <path
       style="fill:#000000;stroke:none;stroke-width:1;stroke-miterlimit:4;stroke-dasharray:none;stroke-opacity:1;fill-opacity:1"
       d="M 16355.278,322.7074 C 16258.157,322.7074 16200.091,368.62547 16200.091,460.2386 C 16200.091,541.45097 16256.507,596.3948 16361.466,596.3948 C 16432.951,596.3948 16458.466,613.52324 16458.466,654.8948 C 16458.466,707.39113 16426.994,723.1761 16354.372,723.1761 C 16320.111,723.1761 16288.715,708.3394 16273.309,686.7074 C 16268.508,671.5293 16254.318,660.5198 16237.559,660.5198 C 16216.858,660.5198 16200.058,677.3198 16200.059,698.0198 C 16200.059,718.9428 16212.933,731.2178 16227.059,745.8948 C 16254.832,776.3578 16302.245,797.7074 16355.528,797.7074 C 16487.69,792.6067 16532.997,753.94935 16532.997,652.7698 C 16532.997,568.40712 16473.452,521.7698 16361.466,521.7698 C 16303.386,521.7698 16275.216,498.68378 16275.216,463.1448 C 16275.216,420.56813 16297.224,397.2386 16356.435,397.2386 C 16390.695,397.2385 16426.091,408.0755 16441.497,429.7074 C 16446.298,444.8854 16460.489,455.8948 16477.247,455.8948 C 16497.948,455.8948 16514.748,439.0949 16514.747,418.3948 C 16514.747,397.4717 16501.873,385.1968 16487.747,370.5198 C 16459.974,340.0571 16408.561,322.7074 16355.278,322.7074 z "
       id="path1363"
       sodipodi:nodetypes="ccccccsccccccccsccc" />
    <path
       sodipodi:nodetypes="cccccccccscc"
       id="path1374"
       d="M 8766.3875,83.45697 C 8863.5085,83.45697 8971.5745,131.31746 8971.5745,260.98815 C 8971.5745,358.07326 8927.1585,419.14435 8822.1995,419.14435 C 8750.7145,419.14435 8725.1995,434.80713 8725.1995,547.64435 C 8725.1995,599.27201 8650.6685,596.78146 8650.6685,545.51935 C 8650.6685,378.82557 8710.2135,344.51935 8822.1995,344.51935 C 8880.2795,344.51935 8896.4495,299.43335 8896.4495,263.89435 C 8896.4495,192.83961 8854.5157,157.98817 8765.2305,157.98817 C 8657.9702,157.98817 8638.1685,162.59696 8638.1685,236.45695 C 8633.3675,251.63495 8619.1765,262.64435 8602.4185,262.64435 C 8581.7175,262.64435 8564.9175,245.84445 8564.9185,225.14435 C 8564.9185,121.53755 8607.4558,83.45697 8766.3875,83.45697 z "
       style="fill:#000000;stroke:none;stroke-width:1;stroke-miterlimit:4;stroke-dasharray:none;stroke-opacity:1;fill-opacity:1" />
    <path
       style="fill:#000000;stroke:none;stroke-width:1;stroke-miterlimit:4;stroke-dasharray:none;stroke-opacity:1;fill-opacity:1"
       d="M 4156.1502,98.53383 C 3978.5528,98.53383 3946.6814,148.76837 3946.6814,236.22133 C 3946.6804,256.92143 3963.4806,273.72133 3984.1814,273.72133 C 4000.9394,273.72133 4015.1306,262.71183 4019.9314,247.53383 C 4019.9314,175.68635 4036.8525,173.06503 4154.994,173.06503 C 4278.4717,173.06503 4310.2127,206.19193 4310.2127,314.97133 C 4310.2127,430.99827 4272.4234,459.59633 4149.9627,459.59633 C 4037.9767,459.59633 3946.4316,542.23363 3946.4314,626.59633 C 3945.6404,664.36793 3945.5253,718.32213 3945.5252,756.28383 C 3946.5288,778.39883 3963.8232,793.82233 3985.2127,795.09633 C 3985.2129,795.09633 4345.5281,795.09633 4345.5281,795.09633 C 4367.7937,794.48633 4382.8594,777.72383 4385.2156,756.28383 C 4385.2158,734.22413 4371.514,721.09633 4347.7156,721.09633 C 4347.7158,721.09633 4020.5252,720.09633 4020.5252,720.09633 C 4020.5252,720.09633 4020.9627,628.72133 4020.9627,628.72133 C 4020.9627,587.34973 4078.4776,534.22133 4149.9627,534.22133 C 4344.1838,534.22133 4385.3377,450.39077 4385.3377,312.06503 C 4385.3377,165.03428 4303.5055,98.53383 4156.1502,98.53383 z "
       id="path1377"
       sodipodi:nodetypes="ccscsssccsccsccssc" />
    <path
       style="fill:#000000;stroke:none;stroke-width:1;stroke-miterlimit:4;stroke-dasharray:none;stroke-opacity:1;fill-opacity:1"
       d="M 5420.2111,103.0354 C 5398.0962,104.0388 5382.6726,121.3333 5381.3986,142.723 C 5381.3986,142.723 5381.3986,402.1542 5381.3986,402.1542 C 5382.6726,423.5438 5398.0962,440.8384 5420.2111,441.8417 C 5420.2111,441.8417 5607.2424,441.5605 5607.2424,441.5605 C 5704.9403,441.5605 5744.8986,489.91832 5744.8986,569.1855 C 5744.8986,684.55529 5699.6091,725.43045 5592.8048,725.4667 C 5454.4039,725.4667 5455.7424,699.34188 5455.7424,662.9979 C 5450.9413,647.8198 5436.7514,636.8105 5419.9924,636.8105 C 5399.2913,636.8104 5382.4913,653.6104 5382.4924,674.3105 C 5382.4924,750.04399 5421.3172,799.9979 5593.9611,799.9979 C 5760.7019,799.9979 5819.4298,717.0658 5819.4298,567.0605 C 5819.4298,427.6652 5731.9505,366.0605 5581.8986,366.0605 C 5581.8986,366.0605 5456.3986,366.8417 5456.3986,366.8417 C 5456.3986,366.8417 5456.3986,178.0354 5456.3986,178.0354 C 5456.3986,178.0354 5782.6486,178.0354 5782.6486,178.0354 C 5803.3486,178.0355 5820.1486,161.2356 5820.1486,140.5354 C 5820.1486,119.8355 5803.3486,103.0354 5782.6486,103.0354 C 5782.6486,103.0355 5420.2111,103.0354 5420.2111,103.0354 z "
       id="path1380"
       sodipodi:nodetypes="cccccsscsccsccccssc" />
    <path
       style="fill:#000000;fill-opacity:1;stroke:none;stroke-width:1;stroke-miterlimit:4;stroke-dasharray:none;stroke-dashoffset:0;stroke-opacity:1"
       d="M 8725.3382,755.43626 C 8725.3382,776.13626 8708.5382,792.93626 8687.8382,792.93626 C 8667.1382,792.93626 8650.3382,776.13626 8650.3382,755.43626 C 8650.3382,734.73626 8667.1382,717.93626 8687.8382,717.93626 C 8708.5382,717.93626 8725.3382,734.73626 8725.3382,755.43626 z "
       id="path1349" />
    <path
       sodipodi:nodetypes="cccsccc"
       id="path1342"
       d="M 11991.592,128.9796 C 12002.255,146.72247 11996.506,169.77586 11978.763,180.43745 C 11978.763,180.43745 11795.776,293.99183 11795.776,293.99183 C 11778.035,304.65198 11754.982,298.9046 11744.319,281.16164 C 11733.656,263.41877 11739.405,240.36538 11757.148,229.70379 C 11757.148,229.70379 11940.135,116.14941 11940.135,116.14941 C 11957.876,105.48925 11980.929,111.23664 11991.592,128.9796 z "
       style="fill:#000000;fill-opacity:1;stroke:none;stroke-width:1;stroke-miterlimit:4;stroke-dasharray:none;stroke-dashoffset:0;stroke-opacity:1" />
    <path
       style="fill:#000000;stroke:none;stroke-width:1;stroke-miterlimit:4;stroke-dasharray:none;stroke-opacity:1;fill-opacity:1"
       d="M 10764.125,71.25 C 10701.376,71.250001 10653.37,108.61418 10648.969,180.53125 C 10648.967,180.56241 10648.971,180.59383 10648.969,180.625 C 10648.754,182.24873 10648.625,183.91159 10648.625,185.59375 C 10648.625,186.33728 10648.648,187.07568 10648.656,187.8125 C 10648.662,188.30019 10648.647,188.7965 10648.656,189.28125 C 10648.648,190.01394 10648.625,190.72943 10648.625,191.46875 C 10648.625,193.1615 10648.751,194.83521 10648.969,196.46875 C 10648.97,196.47897 10648.967,196.48978 10648.969,196.5 C 10653.346,268.45764 10701.358,305.8125 10764.125,305.8125 C 10833.413,305.8125 10875.744,267.55608 10879.375,195.84375 C 10879.541,194.41147 10879.625,192.9454 10879.625,191.46875 C 10879.625,190.71983 10879.602,189.99225 10879.594,189.25 C 10879.598,189.01299 10879.59,188.76894 10879.594,188.53125 C 10879.591,188.30195 10879.598,188.07241 10879.594,187.84375 C 10879.602,187.09751 10879.625,186.34672 10879.625,185.59375 C 10879.625,184.1171 10879.541,182.65103 10879.375,181.21875 C 10875.733,109.52643 10833.403,71.25 10764.125,71.25 z M 10761.281,145.78125 C 10792.995,145.78125 10803.881,160.06365 10804.594,188.40625 C 10804.596,188.50103 10804.592,188.5924 10804.594,188.6875 C 10803.881,217.0301 10792.995,231.28124 10761.281,231.28125 C 10737.797,231.28125 10724.491,217.91233 10723.656,188.59375 C 10723.657,188.57273 10723.656,188.55226 10723.656,188.53125 C 10723.656,188.52063 10723.657,188.51063 10723.656,188.5 C 10724.49,159.18067 10737.797,145.78125 10761.281,145.78125 z "
       id="path1344" />
    <path
       style="fill:#000000;stroke:none;stroke-width:1;stroke-miterlimit:4;stroke-dasharray:none;stroke-opacity:1;fill-opacity:1"
       d="M 12503.157,129.68202 C 12437.292,129.68202 12407.657,170.81817 12407.657,249.90077 C 12407.657,270.60077 12424.458,287.40077 12445.157,287.40077 C 12465.857,287.40077 12482.658,270.60077 12482.657,249.90077 C 12482.656,218.50101 12485.676,204.21327 12500.313,204.21327 C 12546.561,204.21327 12504.801,287.40077 12602.938,287.40077 C 12675.455,287.40077 12708.438,257.48748 12708.438,179.18202 C 12708.439,158.48202 12691.637,141.68202 12670.938,141.68202 C 12650.239,141.68202 12633.437,158.48202 12633.438,179.18202 C 12633.438,209.57862 12631.756,212.86952 12614.094,212.86952 C 12561.93,212.86952 12607.537,129.68202 12503.157,129.68202 z "
       id="path1346"
       sodipodi:nodetypes="cssccccsccc" />
    <path
       sodipodi:nodetypes="ccccccsccc"
       id="path1354"
       d="M 15965.234,119.19114 C 15965.234,119.19114 15853.497,211.22414 15853.497,211.22414 C 15835.57,221.57414 15829.428,244.51614 15839.778,262.44314 C 15850.128,280.36914 15873.07,286.51214 15890.997,276.16214 C 15890.997,276.16214 15982.841,195.29214 15982.841,195.29214 C 15982.841,195.29214 16074.591,276.16214 16074.591,276.16214 C 16092.518,286.51214 16115.491,280.37014 16125.841,262.44314 C 16136.191,244.51614 16130.018,221.57414 16112.091,211.22414 C 16112.091,211.22414 16010.541,119.19114 16010.541,119.19114 C 15993.375,109.88314 15981.322,109.09314 15965.234,119.19114 z "
       style="fill:#000000;fill-opacity:1;stroke:none;stroke-width:1;stroke-miterlimit:4;stroke-dasharray:none;stroke-dashoffset:0;stroke-opacity:1" />
  </g>
</svg>
