<?xml version="1.0" encoding="UTF-8" standalone="no"?>
<!-- Created with Inkscape (http://www.inkscape.org/) -->
<svg
   xmlns:dc="http://purl.org/dc/elements/1.1/"
   xmlns:cc="http://web.resource.org/cc/"
   xmlns:rdf="http://www.w3.org/1999/02/22-rdf-syntax-ns#"
   xmlns:svg="http://www.w3.org/2000/svg"
   xmlns="http://www.w3.org/2000/svg"
   xmlns:sodipodi="http://sodipodi.sourceforge.net/DTD/sodipodi-0.dtd"
   xmlns:inkscape="http://www.inkscape.org/namespaces/inkscape"
   width="25000"
   height="1000"
   id="svg1282"
   sodipodi:version="0.32"
   inkscape:version="0.45"
   sodipodi:docname="ubuntutitle65_bold_sketch.svg"
   sodipodi:docbase="/home/guest/Documents/Trabalhos/UbuntuTitleFont/svg_pesos/sketches_svg"
   inkscape:output_extension="org.inkscape.output.svg.inkscape"
   sodipodi:modified="true">
  <defs
     id="defs3" />
  <sodipodi:namedview
     inkscape:document-units="px"
     id="base"
     pagecolor="#ffffff"
     bordercolor="#666666"
     borderopacity="1.0"
     inkscape:pageopacity="0.0"
     inkscape:pageshadow="2"
     inkscape:zoom="1.3621685"
     inkscape:cx="14321.879"
     inkscape:cy="778.42303"
     inkscape:current-layer="layer1"
     inkscape:window-width="1264"
     inkscape:window-height="734"
     inkscape:window-x="0"
     inkscape:window-y="0"
     showguides="true"
     inkscape:guide-bbox="true">
    <sodipodi:guide
       orientation="horizontal"
       position="200"
       id="guide1331" />
    <sodipodi:guide
       orientation="horizontal"
       position="895.91289"
       id="guide1716" />
    <sodipodi:guide
       orientation="horizontal"
       position="671.22362"
       id="guide1718" />
  </sodipodi:namedview>
  <metadata
     id="metadata4">
    <rdf:RDF>
      <cc:Work
         rdf:about="">
        <dc:format>image/svg+xml</dc:format>
        <dc:type
           rdf:resource="http://purl.org/dc/dcmitype/StillImage" />
      </cc:Work>
    </rdf:RDF>
  </metadata>
  <g
     inkscape:label="Layer 1"
     inkscape:groupmode="layer"
     id="layer1">
    <path
       d="M 14958.389,87.98647 C 14874.147,89.05584 14828.264,126.85337 14828.264,207.36148 C 14828.264,253.15448 14852.297,283.36148 14894.483,283.36148 C 14933.752,283.36148 14956.483,263.43348 14956.483,213.36148 C 14956.483,205.74348 14955.344,204.79898 14962.295,204.79898 C 14966.822,256.60086 15011.386,284.77693 15058.077,289.86148 C 15138.727,289.86148 15192.914,259.13448 15193.795,170.48648 C 15193.795,124.47154 15166.479,94.50575 15129.795,94.48647 L 15129.764,94.48647 C 15088.013,94.49839 15063.576,114.357 15063.577,164.48648 C 15064.853,172.57184 15060.724,172.49885 15054.608,173.42398 C 15034.213,118.49059 15023.895,87.56219 14958.389,87.98647 z "
       id="path1379"
       sodipodi:nodetypes="cssscccccccc" />
    <path
       style="opacity:1;fill:#000000;fill-opacity:1;stroke:#000000;stroke-width:0.1;stroke-miterlimit:4;stroke-dasharray:none;stroke-dashoffset:0;stroke-opacity:1"
       d="M 15881.86,138.65625 C 15786.633,139.51052 15737.847,207.8105 15733.235,296.25 L 15733.235,338.15625 C 15691.454,338.15625 15665.673,364.06114 15665.673,412.78125 C 15665.673,458.52358 15691.882,487.4375 15733.235,487.4375 L 15733.235,732.25 C 15733.235,768.88028 15764.006,801.25 15809.391,801.25 C 15855.633,801.25 15883.517,773.45705 15883.517,732.25 L 15882.923,488.31482 C 15913.296,488.31482 15921.529,487.78125 15948.454,487.78125 C 15989.854,487.78125 16023.455,454.18126 16023.454,412.78125 C 16024.16,365.10352 15992.933,340.13349 15948.454,337.78125 L 15883.517,338.25 C 15883.517,280.70315 15914.695,283.9666 15947.001,297.64398 C 15985.622,297.64398 16023.517,281.07456 16023.517,219.7213 C 16023.517,148.39698 15946.236,138.63721 15881.86,138.65625 z "
       id="path1363"
       sodipodi:nodetypes="ccccccsccscccccc" />
    <path
       transform="translate(-1145.0937,22.969952)"
       d="M 16732.113 188.28508 A 75 75 0 1 1  16582.113,188.28508 A 75 75 0 1 1  16732.113 188.28508 z"
       sodipodi:ry="75"
       sodipodi:rx="75"
       sodipodi:cy="188.28508"
       sodipodi:cx="16657.113"
       id="path1345"
       style="opacity:1;fill:#000000;fill-opacity:1;stroke:#000000;stroke-width:0.1;stroke-miterlimit:4;stroke-dasharray:none;stroke-dashoffset:0;stroke-opacity:1"
       sodipodi:type="arc" />
    <path
       transform="translate(-1322.4826,18.590132)"
       d="M 16732.113 188.28508 A 75 75 0 1 1  16582.113,188.28508 A 75 75 0 1 1  16732.113 188.28508 z"
       sodipodi:ry="75"
       sodipodi:rx="75"
       sodipodi:cy="188.28508"
       sodipodi:cx="16657.113"
       id="path1347"
       style="opacity:1;fill:#000000;fill-opacity:1;stroke:#000000;stroke-width:0.1;stroke-miterlimit:4;stroke-dasharray:none;stroke-dashoffset:0;stroke-opacity:1"
       sodipodi:type="arc" />
    <path
       d="M 14141.188,22.84375 C 14056.489,22.84375 13991.812,71.536075 13991.812,167.5625 C 13991.812,261.98883 14059.224,312.28125 14141.188,312.28125 C 14225.378,312.28125 14293.031,258.95489 14293.031,167.5625 C 14293.031,72.808054 14222.22,22.84375 14141.188,22.84375 z M 14141.312,151.65625 C 14152.94,151.65625 14159.125,158.87327 14159.125,168.21875 C 14159.125,178.94109 14151.325,185.46875 14141.312,185.46875 C 14129.238,185.46875 14123.688,178.61525 14123.688,168.90625 C 14123.688,157.38332 14134.176,151.65625 14141.312,151.65625 z "
       id="breve"
       sodipodi:nodetypes="cccccccccc" />
    <path
       d="M 9041.7533,306.25 C 9040.4201,366.25 9062.4203,416.25 9107.7533,456.25 C 9056.5413,489.53921 9037.7533,521.34069 9037.7533,600.25 C 9037.7533,740.67144 9138.2092,799.875 9307.9409,799.875 C 9480.8861,799.875 9579.7531,740.92266 9579.7531,600.25 C 9579.7531,523.20983 9563.1141,489.65242 9509.7531,454.25 C 9553.7531,412.91667 9575.7531,363.58334 9575.7531,306.25 C 9575.7531,162.80866 9467.7531,100.6875 9309.8159,100.6875 C 9152.6219,100.6875 9041.7533,159.28496 9041.7533,306.25 z M 9309.1909,249.56976 C 9376.3361,249.56976 9427.7531,267.10954 9427.7531,312.25 C 9427.7531,379.27224 9374.8561,382.4586 9309.7533,382.4586 C 9245.4206,383.24235 9193.237,380.52511 9191.7533,314.25 C 9191.7533,264.44277 9235.075,249.56976 9309.1909,249.56976 z M 9310.8783,535.66371 C 9378.5861,535.66371 9429.7531,541.26967 9429.7531,592.25 C 9429.7531,646.85206 9373.7551,652.2297 9308.4721,652.2297 C 9241.8177,652.2297 9187.7533,636.9257 9187.7533,592.25 C 9187.7531,539.10787 9229.7897,535.66371 9310.8783,535.66371 z "
       id="eight"
       sodipodi:nodetypes="ccccccccccccccccccc" />
    <path
       style="opacity:1;fill:#000000;fill-opacity:1;stroke:#000000;stroke-width:0.1;stroke-miterlimit:4;stroke-dasharray:none;stroke-dashoffset:0;stroke-opacity:1"
       d="M 8476.3864,115.375 C 8434.9864,115.375 8401.3864,148.975 8401.3864,190.375 C 8401.3864,231.775 8434.9864,265.37499 8476.3864,265.375 C 8478.4014,265.375 8480.4114,265.28119 8482.3864,265.125 L 8767.6054,265.125 L 8423.9174,684.09375 C 8410.1124,697.69843 8401.5424,716.57026 8401.5424,737.46875 C 8401.5424,778.86875 8435.1424,812.46878 8476.5424,812.46875 C 8502.7644,812.46875 8525.8224,798.99749 8539.2294,778.59375 L 8976.5114,245.90625 C 8991.6084,232.1835 9001.0734,212.36875 9001.0734,190.375 C 9001.0734,148.975 8967.4734,115.375 8926.0734,115.375 C 8922.1924,115.375 8918.3904,115.68063 8914.6674,116.25 L 8896.6674,116.25 L 8487.8234,116.25 C 8484.1004,115.68063 8480.2674,115.375 8476.3864,115.375 z "
       id="path1767" />
    <path
       d="M 8112.8125,106.875 C 7983.24,106.875 7867.0312,174.24261 7867.0312,288.25 L 7867.0312,576.25 C 7867.0312,705.08954 7984.0732,800.5101 8107.0312,800.25 C 8250.3954,800.25 8359.0312,745.34884 8359.0312,598.25 C 8359.0312,443.74115 8304.835,378.375 8115.0625,378.375 C 8066.7544,378.375 8034.4438,387.16902 8017.0312,396.3125 L 8017.0312,344.25 C 8017.0312,277.48628 8051.0573,255.25 8112.5938,255.25 C 8173.976,255.25 8208.0938,279.41018 8208.0938,304.5625 C 8208.2122,304.5063 8208.3196,304.46188 8208.4375,304.40625 C 8214.6193,339.59237 8245.3634,366.34374 8282.3125,366.34375 C 8323.7125,366.34375 8357.3125,332.74374 8357.3125,291.34375 C 8357.3125,190.94659 8257.547,106.875 8112.8125,106.875 z M 8134.0938,523.59375 C 8181.9319,523.59375 8207.0312,546.75964 8207.0312,588.25 C 8207.0312,628.81048 8158.6146,650.40625 8107.0312,650.40625 C 8038.7548,646.15472 8017.0312,621.48276 8017.0312,562.25 C 8017.0312,537.13249 8074.2747,523.59375 8134.0938,523.59375 z "
       id="six"
       sodipodi:nodetypes="ccccccccsccsccccccc" />
    <path
       style="opacity:1;fill:#000000;fill-opacity:1;stroke:#000000;stroke-width:0.1;stroke-miterlimit:4;stroke-dasharray:none;stroke-dashoffset:0;stroke-opacity:1"
       d="M 7054.1732,97.375 C 7031.2851,97.375 7010.7773,107.6328 6997.0169,123.8125 L 6687.4498,461.8907 C 6687.4498,461.8907 6651.3294,504.12081 6651.3294,533.14648 C 6651.3294,613.65818 6703.5457,667.75 6777.752,667.75 L 6978.0794,667.46875 L 6979.2356,722.75 C 6980.434,763.10397 7013.5303,795.49998 7054.1732,795.5 C 7095.5732,795.5 7129.1729,761.89998 7129.1732,720.5 L 7128.7982,667.46875 C 7137.2388,667.27464 7145.6762,667.58763 7154.1106,667.65625 C 7195.5107,667.65625 7229.1108,634.05627 7229.1106,592.65625 C 7229.1106,551.25625 7195.5109,517.65627 7154.1106,517.65625 L 7128.7982,518.625 C 7128.7982,518.625 7129.1732,172.375 7129.1732,172.375 C 7129.1732,130.975 7095.5728,97.374998 7054.1732,97.375 z M 6978.0794,363.07629 L 6978.0794,518.625 L 6834.5751,518.625 L 6978.0794,363.07629 z "
       id="path1765"
       sodipodi:nodetypes="cccccccscccscccccccc" />
    <path
       d="M 6270.5079,104.25 C 6188.8479,104.25 6089.2892,141.15698 6089.2892,225.0625 C 6089.2892,266.4625 6122.8893,300.06249 6164.2892,300.0625 C 6186.0992,300.0625 6205.7371,290.75291 6219.4455,275.875 C 6252.0665,249.49927 6273.5063,253.21875 6356.6642,253.21875 C 6421.0386,253.21874 6458.5079,276.75441 6458.5079,334.25 C 6458.5079,385.98507 6436.8115,381.1875 6344.1642,381.1875 C 6302.7642,381.1875 6269.1641,414.78751 6269.1642,456.1875 C 6269.1642,497.5875 6302.7641,531.18748 6344.1642,531.1875 C 6426.1631,531.1875 6458.5079,536.84184 6458.5079,576.25 C 6458.5079,636.74362 6433.9536,651.8125 6332.8829,651.8125 C 6266.5434,651.8125 6256.4375,649.39114 6217.9142,627.21875 C 6204.294,613.28445 6185.2988,604.625 6164.2892,604.625 C 6122.8892,604.625 6089.2893,638.22501 6089.2892,679.625 C 6089.2892,756.45492 6187.7333,800.25 6270.5079,800.25 L 6406.0392,800.25 C 6534.8447,800.25 6608.0392,707.0575 6608.0392,576.25 C 6608.0392,517.16346 6601.5038,492.23898 6568.0392,454.25 C 6600.8731,417.01033 6608.0392,389.96742 6608.0392,332.25 C 6608.0521,206.68239 6533.0258,104.25 6406.0392,104.25 L 6270.5079,104.25 z "
       id="three"
       sodipodi:nodetypes="ccscsssscsscscccccccc" />
    <path
       d="M 5658.6414,100.25 C 5580.0459,100.25 5516.2169,135.43072 5507.6414,210.5625 C 5507.6332,210.61525 5507.6182,210.66597 5507.6102,210.71875 C 5507.1365,213.81599 5506.911,216.97818 5506.8289,220.1875 C 5506.8123,220.83579 5506.7664,221.47274 5506.7664,222.125 C 5506.7664,222.13543 5506.7664,222.14582 5506.7664,222.15625 C 5506.6922,224.16178 5506.6414,226.19277 5506.6414,228.25 C 5506.7858,228.28447 5506.9037,228.30937 5507.0476,228.34375 C 5510.2148,266.83516 5542.4623,297.12499 5581.7664,297.125 C 5608.4608,297.125 5631.8804,283.14743 5645.1726,262.125 C 5666.8515,242.8787 5698.9833,249.4375 5750.7352,249.4375 C 5823.9096,249.4375 5870.6414,262.75215 5870.6414,328.25 C 5870.6415,368.25 5860.829,415.9375 5765.9226,415.9375 C 5623.2902,417.07413 5506.6414,498.32238 5506.6414,642.25 L 5506.6414,720.8125 C 5506.6414,721.23015 5506.7733,721.64864 5507.0164,722.03125 C 5507.3216,763.17052 5540.8056,796.46878 5582.0164,796.46875 C 5583.8298,796.46875 5585.6101,796.37676 5587.3914,796.25 L 5939.9852,796.25 C 5941.7664,796.37676 5943.578,796.46875 5945.3914,796.46875 C 5986.7914,796.46875 6020.3914,762.86878 6020.3914,721.46875 C 6020.3914,680.48949 5987.4611,647.17339 5946.6414,646.5 L 5946.6414,646.25 L 5656.6414,646.25 C 5656.6414,572.06521 5697.8928,566.625 5775.3914,566.625 C 5934.3177,566.62501 6020.6414,473.24394 6020.6414,328.25 C 6021.1536,199.90558 5942.0289,100.25 5816.6414,100.25 L 5658.6414,100.25 z "
       id="two" />
    <path
       d="M 1779.8364,103.75 C 1726.3341,103.75 1704.8364,139.55624 1704.8364,172.75 L 1704.8364,184.25 L 1662.8364,184.25 C 1570.7723,184.25 1508.8364,258.52892 1508.8364,356.25 C 1508.8364,451.32979 1566.1939,526.25 1662.8364,526.25 L 1704.8364,526.25 L 1704.8364,572.25 C 1668.2373,571.74174 1631.6474,572.65621 1595.0552,572.90625 C 1553.6552,572.90625 1520.0552,606.50627 1520.0552,647.90625 C 1520.0552,689.30625 1553.6552,722.90627 1595.0552,722.90625 L 1704.8364,722.25 C 1705.9965,733.67264 1703.0593,727.73534 1705.524,739.03125 C 1710.4243,775.70177 1741.8321,804.03124 1779.8364,804.03125 C 1820.6265,804.03125 1853.8352,779.40181 1854.8052,738.84375 L 1854.8364,724.25 L 1894.8364,724.25 C 1985.1916,724.25 2050.8364,644.4974 2050.8364,552.25 C 2050.8364,458.8298 2002.614,376.25 1894.8364,376.25 L 1854.8364,376.25 L 1854.8364,336.25 C 1886.6588,336.86461 1918.4631,335.6404 1950.274,335.34375 C 1991.6556,335.34375 2026.2114,307.68685 2026.2114,258.93782 C 2026.2114,214.99014 1995.2957,185.34375 1950.274,185.34375 L 1854.8364,184.25 L 1854.8364,172.75 C 1854.8364,131.35 1821.2366,103.75 1779.8364,103.75 z M 1704.8364,336.25 L 1704.8364,376.25 C 1672.7746,376.25 1658.8364,375.7644 1658.8364,358.25 C 1658.8364,338.01693 1671.7884,336.25 1704.8364,336.25 z M 1854.8364,526.25 C 1877.3888,526.25 1900.8364,528.11814 1900.8364,550.25 C 1900.8364,569.62039 1881.1212,574.25 1854.8364,574.25 L 1854.8364,526.25 z "
       id="path1590"
       sodipodi:nodetypes="cccccccccscccsccccccccccccccccccccc" />
    <path
       d="M 4460.893,100.84375 C 4436.1346,100.84375 4414.1792,112.85969 4400.518,131.375 C 4266.8786,315.80267 4122.4478,494.02488 3990.1743,679.28125 C 3981.7767,691.39493 3976.8304,706.09199 3976.8306,721.9375 C 3976.8306,763.3375 4010.4303,796.93748 4051.8306,796.9375 C 4079.8301,796.9375 4104.2602,781.53763 4117.143,758.78125 L 4517.9243,224.5 C 4529.1223,211.39549 4535.8931,194.41927 4535.893,175.84375 C 4535.893,134.44375 4502.2932,100.84375 4460.893,100.84375 z "
       id="path1700"
       sodipodi:nodetypes="cccssccsc" />
    <path
       transform="translate(-4930.7665,529.75235)"
       d="M 16732.113 188.28508 A 75 75 0 1 1  16582.113,188.28508 A 75 75 0 1 1  16732.113 188.28508 z"
       sodipodi:ry="75"
       sodipodi:rx="75"
       sodipodi:cy="188.28508"
       sodipodi:cx="16657.113"
       id="path1633"
       style="opacity:1;fill:#000000;fill-opacity:1;stroke:#000000;stroke-width:0.1;stroke-miterlimit:4;stroke-dasharray:none;stroke-dashoffset:0;stroke-opacity:1"
       sodipodi:type="arc" />
    <path
       d="M 11796.242,84.25 C 11685.475,84.25 11563.251,122.29926 11563.251,204.53125 C 11563.251,245.93125 11596.851,279.53125 11638.251,279.53125 C 11699.842,279.53125 11723.65,230.04975 11798.077,232.03554 C 11865.621,232.03554 11895.814,230.69264 11895.814,274.25 C 11895.814,302.6158 11867.424,313.29465 11832.424,309.7336 C 11731.281,309.7336 11651.345,391.83934 11651.345,511.59375 C 11651.345,552.99375 11684.945,586.59374 11726.345,586.59375 C 11765.04,586.59375 11800.939,561.22568 11800.939,519.59375 C 11800.939,479.30266 11812.808,461.30468 11836.16,461.30468 C 11985.774,461.30468 12046.033,353.63053 12046.033,260.25 C 12046.033,181.22362 11944.254,84.25 11796.242,84.25 z "
       id="path1612"
       sodipodi:nodetypes="cccccccscccc" />
    <path
       d="M 10997.958,54.28125 C 10978.002,54.28125 10959.867,62.090465 10946.426,74.8125 C 10946.407,74.824568 10946.383,74.83125 10946.364,74.84375 C 10945.884,75.150021 10945.439,75.578254 10945.02,76.15625 C 10944.994,76.182126 10944.981,76.224087 10944.958,76.25 C 10943.612,77.5925 10942.321,78.965562 10941.082,80.40625 L 10652.958,390.25 C 10647.621,394.25 10643.622,398.91667 10640.958,404.25 C 10631.621,426.91667 10635.622,447.58334 10652.958,466.25 L 10944.958,782.25 C 10945.397,782.68974 10945.787,782.78724 10946.145,782.59375 C 10959.393,794.37115 10976.851,801.53125 10995.958,801.53125 C 11037.358,801.53125 11070.958,767.93125 11070.958,726.53125 C 11070.958,703.98966 11060.965,683.78345 11045.208,670.03125 L 10823.395,428.25 L 11049.832,183.40625 C 11064.074,169.75264 11072.958,150.55267 11072.958,129.28125 C 11072.956,87.88125 11039.356,54.281249 10997.958,54.28125 z "
       id="path1620" />
    <path
       sodipodi:nodetypes="ccccccc"
       id="path1588"
       d="M 288.64176,529.99956 L 288.64176,204.47425 C 288.64176,163.97025 260.29376,133.32925 214.84376,133.32925 C 169.39376,133.32925 139.61076,166.77325 139.61076,206.42825 L 139.61076,532.86356 C 139.61076,580.18656 171.03376,608.34356 215.95476,608.34356 C 259.61276,608.34356 288.64176,571.97656 288.64176,529.99956 z " />
    <path
       sodipodi:type="arc"
       style="opacity:1;fill:#000000;fill-opacity:1;stroke:#000000;stroke-width:0.1;stroke-miterlimit:4;stroke-dasharray:none;stroke-dashoffset:0;stroke-opacity:1"
       id="path1586"
       sodipodi:cx="16657.113"
       sodipodi:cy="188.28508"
       sodipodi:rx="75"
       sodipodi:ry="75"
       d="M 16732.113 188.28508 A 75 75 0 1 1  16582.113,188.28508 A 75 75 0 1 1  16732.113 188.28508 z"
       transform="translate(-16442.578,537.63763)" />
    <path
       d="M 12962.657,56.25 C 12923.132,56.25 12887.344,91.240376 12887.344,131.5625 C 12887.515,329.32446 12890.253,527.23143 12887.344,724.9375 C 12887.344,765.475 12919.573,798.51513 12959.781,799.875 L 13108.594,800.25 C 13108.562,800.12974 13108.532,800.02566 13108.5,799.90625 C 13148.716,799.90625 13184.344,765.53312 13184.344,724.9375 C 13184.344,683.5375 13150.744,649.9375 13109.344,649.9375 L 13038.657,649.86191 L 13038.657,206.25 C 13062.22,206.23562 13085.781,206.51106 13109.344,206.5625 C 13150.744,206.5625 13184.344,172.9625 13184.344,131.5625 C 13184.344,91.172686 13144.683,56.8125 13103.969,56.8125 L 12962.657,56.25 z "
       id="path1397"
       sodipodi:nodetypes="cccccccccccccc" />
    <path
       d="M 974.25 91.1875 C 928.79998 91.187499 899.03125 124.62625 899.03125 164.28125 L 899.03125 231.625 L 821.28125 231.625 C 780.77726 231.62499 750.15625 259.9875 750.15625 305.4375 C 750.15628 350.8875 783.595 380.65625 823.25 380.65625 L 899.03125 380.65625 L 899.03125 523.4375 L 821.28125 523.4375 C 780.77726 523.43753 750.15625 551.76875 750.15625 597.21875 C 750.15628 642.66874 783.595 672.46875 823.25 672.46875 L 899.03125 672.46875 L 899.03125 725.84375 C 899.03126 773.16674 930.454 801.34375 975.375 801.34375 C 1019.033 801.34376 1048.0625 764.977 1048.0625 723 L 1048.0625 672.46875 L 1190.4062 672.46875 L 1190.4062 725.84375 C 1190.4063 773.16674 1221.829 801.34375 1266.75 801.34375 C 1310.408 801.34376 1339.4375 764.977 1339.4375 723 L 1339.4375 672.46875 L 1410.8125 672.46875 C 1458.1355 672.46877 1486.3125 641.046 1486.3125 596.125 C 1486.3125 552.46702 1449.9456 523.4375 1407.9688 523.4375 L 1339.4375 523.4375 L 1339.4375 380.65625 L 1410.8125 380.65625 C 1458.1355 380.65625 1486.3125 349.2335 1486.3125 304.3125 C 1486.3125 260.6545 1449.9456 231.625 1407.9688 231.625 L 1339.4375 231.625 L 1339.4375 162.3125 C 1339.4375 121.80851 1311.075 91.1875 1265.625 91.1875 C 1220.175 91.187499 1190.4062 124.62625 1190.4062 164.28125 L 1190.4062 231.625 L 1048.0625 231.625 L 1048.0625 162.3125 C 1048.0625 121.80851 1019.7 91.1875 974.25 91.1875 z M 1048.0625 380.65625 L 1190.4062 380.65625 L 1190.4062 523.4375 L 1048.0625 523.4375 L 1048.0625 380.65625 z "
       id="path1574" />
    <path
       sodipodi:nodetypes="ccccccc"
       id="path1572"
       d="M 712.57374,314.30578 L 712.57374,250.28176 C 712.57374,209.77776 684.22574,179.13676 638.77574,179.13676 C 593.32574,179.13676 563.54274,212.58076 563.54274,252.23576 L 563.54274,317.16978 C 563.54274,364.49278 594.96574,392.64978 639.88674,392.64978 C 683.54474,392.64978 712.57374,356.28278 712.57374,314.30578 z " />
    <path
       d="M 13461.632,3.5 C 13434.558,3.5 13409.068,12.020249 13390.5,28.044012 L 13285.695,131.875 C 13267.231,145.54093 13255.257,167.46944 13255.257,192.1875 C 13255.257,233.5875 13288.858,267.18751 13330.257,267.1875 C 13353.545,267.1875 13374.341,256.5769 13388.101,239.90625 C 13388.134,239.86636 13388.162,239.82121 13388.195,239.78125 L 13462.601,164 L 13529.757,232.4375 C 13543.077,253.32219 13566.418,267.18751 13593.007,267.1875 C 13634.407,267.1875 13668.007,233.58749 13668.007,192.1875 C 13668.007,169.63424 13658.029,149.44011 13642.257,135.6875 L 13531.697,27.069761 C 13514.587,10.75987 13486.289,3.5 13461.632,3.5 z "
       id="path1542"
       sodipodi:nodetypes="cccssscccssccc" />
    <path
       d="M 23712.628,100.25 C 23658.753,100.25 23618.628,142.36189 23618.628,202.25 L 23620.628,304.25 C 23620.628,350.40672 23620.776,372.25 23594.441,372.25 C 23554.094,372.25 23520.206,404.72929 23520.206,446.86095 C 23520.206,487.09669 23552.481,522.25 23594.441,522.25 C 23614.759,522.25 23620.628,544.23815 23620.628,596.25 C 23620.628,633.62552 23620.628,667.07871 23620.628,702.25 C 23620.628,758.26411 23658.559,798.25 23712.628,798.25 L 23832.628,798.25 C 23875.074,798.25 23907.316,773.15404 23907.316,722.875 C 23907.316,681.475 23873.717,647.87498 23832.316,647.875 C 23806.746,647.875 23802.076,648.25 23770.628,648.25 L 23770.628,596.25 C 23770.628,530.79261 23769.676,472.7942 23730.628,450.25 C 23768.849,428.18295 23770.628,380.52288 23770.628,304.25 L 23770.628,251.36834 C 23797.846,251.36834 23806.746,250.4375 23832.316,250.4375 C 23873.716,250.4375 23907.317,216.8375 23907.316,175.4375 C 23907.316,131.9179 23874.171,100.25 23832.912,100.25 L 23712.628,100.25 z "
       id="braceleft"
       sodipodi:nodetypes="cccccccccccscccccsccc" />
    <path
       d="M 22831.715,396.25 L 22831.715,589.82188 C 22831.715,630.09263 22812.385,652.45226 22772.118,652.45226 C 22732.54,652.45226 22707.246,630.41596 22707.246,586.25 L 22707.246,396.25 C 22707.246,352.84644 22670.783,324.59375 22630.496,324.59375 C 22588.466,324.59375 22555.715,355.73521 22555.715,396.25 L 22555.715,562.25 C 22555.715,711.46437 22652.64,798.59375 22770.903,798.59375 C 22791.746,800.93215 22811.935,800.00724 22831.465,795.78125 C 22831.465,824.02589 22819.762,835.38438 22756,835.38438 C 22710.009,835.38438 22681.676,821.625 22630.059,821.625 C 22588.659,821.625 22555.058,855.22498 22555.059,896.625 C 22555.059,963.08661 22649.399,985.84375 22762.138,985.84375 C 22896.878,985.84375 22983.246,887.50795 22983.246,770.25 L 22983.246,396.25 C 22983.246,356.88018 22952.428,324.15625 22903.778,324.15625 C 22865.493,324.15625 22831.715,353.88542 22831.715,396.25 z "
       id="path1486"
       sodipodi:nodetypes="cccccccccccccccccc" />
    <path
       d="M 21955.887,313.42347 C 21925.242,313.42347 21895.73,331.71402 21883.811,369.97193 C 21855.318,478.24738 21828.859,575.64649 21803.288,637.15756 C 21779.638,578.3403 21756.833,493.06681 21728.048,368.76599 C 21720.134,335.89313 21692.685,314.77611 21655.824,313.40241 C 21615.733,313.40241 21581.587,346.63773 21581.587,380.35412 C 21581.587,392.42787 21580.948,394.63485 21583.506,404.18309 C 21617.047,549.38923 21674.402,799.38903 21799.196,799.38903 C 21929.195,799.38903 21996.222,540.33235 22028.658,410.71247 C 22030.367,402.45291 22031.465,395.48454 22031.995,387.50531 C 22031.995,345.02376 21993.382,313.42347 21955.887,313.42347 z "
       id="path1475"
       sodipodi:nodetypes="ccccccccccc" />
    <path
       d="M 20717.123,474.25 C 20717.123,609.60783 20814.662,629.24018 20917.596,636.25802 C 20954.532,636.25802 20977.123,635.24874 20977.123,644.25 C 20977.123,652.3965 20955.846,650.76988 20919.153,650.76988 C 20833.464,650.76988 20838.711,629.40625 20790.811,629.40625 C 20753.771,631.2234 20715.967,654.15046 20715.967,699.6875 C 20715.967,781.71362 20828.588,798.28125 20905.655,798.28125 C 21046.098,798.28125 21125.498,763.89159 21125.498,652.25 C 21125.498,534.29082 21053.713,486.47869 20918.429,486.47869 C 20874.114,486.47869 20865.498,487.4495 20865.498,479.30316 C 20865.498,471.21732 20878.023,472.19157 20917.373,472.19157 C 20985.756,472.19157 20973.152,483.59375 21022.998,483.59375 C 21070.493,483.59375 21094.046,470.78767 21097.998,408.84375 C 21097.998,341.11253 20985.793,319.30473 20911.655,322.75 C 20806.24,322.75 20717.123,362.72359 20717.123,474.25 z "
       id="path1463"
       sodipodi:nodetypes="ccccccccccccccc" />
    <path
       d="M 20252.082,516.25 L 20252.082,726.25 C 20252.082,769.66904 20288.207,800.93722 20329.114,800.84576 C 20373.452,800.84576 20402.489,766.97735 20402.489,726.25 L 20402.489,532.25 C 20402.489,497.85465 20428.849,471.66224 20472.391,471.66224 C 20554.454,471.66224 20531.159,525.375 20588.676,525.375 C 20637.372,525.375 20662.489,497.58536 20662.489,445.125 C 20662.489,385.79378 20583.911,325.40625 20469.395,325.40625 C 20338.351,325.40625 20252.082,416.4672 20252.082,516.25 z "
       id="path1461"
       sodipodi:nodetypes="cccccccccc" />
    <path
       d="M 18135.131,486.25 L 18135.131,728.25 C 18137.028,767.42753 18168.85,797.1875 18209.788,797.1875 C 18251.387,797.1875 18282.657,768.60493 18284.069,728.25 L 18284.069,508.25 C 18284.069,486.38171 18299.086,469.50578 18325.975,469.50578 C 18349.956,469.50578 18365.131,486.35872 18365.131,508.25 L 18365.131,581.25 C 18366.67,620.16936 18397.825,650.1875 18439.788,650.1875 C 18478.255,650.1875 18510.541,620.06468 18514.069,581.25 L 18514.069,508.25 C 18514.069,480.77783 18532.732,469.38078 18555.475,469.38078 C 18578.759,469.38078 18595.131,484.90733 18595.131,508.25 L 18595.131,728.25 C 18597.028,767.42714 18625.05,795.1875 18669.788,795.1875 C 18713.867,795.1875 18740.448,764.08752 18744.069,724.25 L 18744.069,486.25 C 18744.069,387.12149 18663.709,319.375 18555.163,319.375 C 18507.262,319.375 18473.267,334.06964 18440.569,360.83957 C 18408.38,332.28822 18364.514,321.34375 18324.475,321.34375 C 18217.611,321.34375 18135.131,393.08526 18135.131,486.25 z "
       id="path1443"
       sodipodi:nodetypes="ccccccccccccccccccccc" />
    <path
       style="opacity:1;fill:#000000;fill-opacity:1;stroke:#000000;stroke-width:0.1;stroke-miterlimit:4;stroke-dasharray:none;stroke-dashoffset:0;stroke-opacity:1"
       d="M 17244.844,982.1868 C 17340.071,981.33253 17388.857,913.03255 17393.469,824.59305 L 17393.469,388.59305 C 17393.469,351.96277 17362.698,319.59305 17317.313,319.59305 C 17271.071,319.59305 17243.187,347.386 17243.187,388.59305 L 17243.187,658.59305 C 17243.187,716.1399 17266.899,853.50988 17179.703,823.19907 C 17141.082,823.19907 17103.187,839.76849 17103.187,901.12175 C 17103.187,972.44607 17180.468,982.20584 17244.844,982.1868 z "
       id="path1419"
       sodipodi:nodetypes="cccsccccc" />
    <path
       d="M 17018.616,402.59441 L 17018.616,729.1043 C 17018.616,769.60866 17048.503,800.25 17092.414,800.25 C 17139.403,800.25 17167.647,766.80578 17167.647,727.15066 L 17167.647,399.73036 C 17167.647,352.40747 17136.224,324.25 17091.303,324.25 C 17047.645,324.25 17018.616,360.61733 17018.616,402.59441 z "
       id="path1417"
       sodipodi:nodetypes="ccccccc" />
    <path
       sodipodi:nodetypes="ccccccc"
       id="path1415"
       d="M 17923.189,216.59441 L 17923.189,727.1043 C 17923.189,767.60866 17953.076,798.25 17996.987,798.25 C 18043.976,798.25 18072.22,764.80578 18072.22,725.15066 L 18072.22,213.73036 C 18070.137,165.09358 18040.797,138.25 17995.876,138.25 C 17952.218,138.25 17923.189,174.61733 17923.189,216.59441 z " />
    <path
       d="M 19775.163,910.25738 L 19775.163,544.25738 C 19775.163,417.58109 19864.036,326.25738 19991.163,326.25738 C 20119.11,326.25738 20199.163,431.15218 20199.163,564.25738 C 20199.163,709.65392 20140.49,800.25738 20007.163,800.25738 C 19976.989,799.91799 19953.071,799.45301 19923.163,792.94488 L 19923.163,910.25738 C 19920.378,952.39734 19894.717,985.94488 19847.194,985.94488 C 19803.273,985.94488 19775.163,956.52525 19775.163,910.25738 z M 19982.132,653.5046 C 20035.014,653.5046 20048.163,616.68958 20051.163,564.25738 C 20051.163,507.55966 20039.748,472.11942 19978.444,472.11942 C 19927.379,471.32221 19923.163,564.49225 19923.163,590.24488 C 19923.163,634.30373 19937.656,653.5046 19982.132,653.5046 z "
       id="path1413"
       sodipodi:nodetypes="cccccccccccccc" />
    <path
       d="M 16546.413,216.59441 L 16546.413,727.1043 C 16546.413,767.60866 16576.3,798.25 16620.211,798.25 C 16667.2,798.25 16695.444,764.80578 16695.444,725.15066 L 16695.444,536.66088 C 16695.444,500.09657 16727.403,473.79041 16758.663,473.79041 C 16794.732,473.79041 16822.413,506.10772 16822.413,538.25 L 16822.413,725.5198 C 16822.413,767.46252 16855.633,799.27056 16896.958,798.91646 C 16936.442,798.91646 16971.444,764.93854 16971.444,724.70544 L 16971.444,514.25 C 16971.444,407.03896 16875.313,324.25 16751.444,324.25 C 16732.66,324.25701 16714.065,333.13312 16695.444,337.03125 L 16695.444,213.73036 C 16693.361,165.09358 16664.021,138.25 16619.1,138.25 C 16575.442,138.25 16546.413,174.61733 16546.413,216.59441 z "
       id="path1402"
       sodipodi:nodetypes="cccccccccccccccc" />
    <path
       d="M 2407.868,99.5 C 2385.4697,99.5 2365.3644,109.35342 2351.618,124.9375 C 2268.4209,222.60785 2242.4305,343.60535 2242.4305,450.25 C 2242.4305,545.47658 2275.0419,678.45247 2344.3368,764.6875 C 2361.0477,788.9321 2382.9704,800.9375 2408.5555,800.9375 C 2449.9555,800.9375 2483.5554,767.33748 2483.5555,725.9375 C 2483.5555,709.28116 2478.0965,693.88853 2468.8992,681.4375 C 2468.8848,681.40942 2468.8825,681.37189 2468.868,681.34375 C 2421.6625,611.99905 2411.7641,531.77417 2406.3992,450.25 C 2406.7432,371.46691 2422.24,291.19225 2464.4305,223.71875 C 2475.9012,210.54436 2482.868,193.3268 2482.868,174.5 C 2482.868,133.1 2449.2679,99.5 2407.868,99.5 z "
       id="parenleft"
       sodipodi:nodetypes="cccccsccccsc" />
    <path
       d="M 4572.7713,452.25 C 4572.7713,688.19811 4688.8507,799.65625 4858.8963,799.65625 C 5042.7178,799.65625 5146.74,684.59492 5146.74,454.25 C 5146.74,222.29068 5050.3615,104.90625 4859.9587,104.90625 C 4665.822,104.90625 4572.7713,225.97596 4572.7713,452.25 z M 4860.0213,253.5073 C 4962.5572,253.5073 4996.7713,318.83434 4996.7713,454.25 C 4996.7713,592.48126 4947.1323,650.05107 4859.0837,650.05107 C 4766.2428,650.05107 4720.2422,600.35184 4722.74,454.25 C 4722.74,312.47115 4767.9811,253.5073 4860.0213,253.5073 z "
       id="zero"
       sodipodi:nodetypes="cccccccccc" />
    <path
       d="M 5251.349,104.15625 C 5209.9489,104.15625 5176.3491,137.75625 5176.349,179.15625 C 5176.349,220.55625 5209.9491,254.15625 5251.349,254.15625 C 5251.349,254.15625 5265.3802,252.8125 5265.3802,252.8125 L 5265.3802,725.59375 C 5265.3802,765.3046 5299.9544,799.9375 5340.8177,799.9375 C 5382.2177,799.9375 5415.8176,766.3375 5415.8177,724.9375 C 5416.7657,543.01185 5416.2337,361.08307 5416.0364,179.15625 C 5416.0364,137.75625 5382.4364,104.15625 5341.0364,104.15625 C 5341.0364,104.15625 5251.349,104.15625 5251.349,104.15625 z "
       id="one"
       sodipodi:nodetypes="cssccccccc" />
    <path
       d="M 7687.3514,103.46875 C 7687.3514,103.46875 7321.1639,104.15625 7321.1639,104.15625 C 7279.7639,104.15625 7244.1641,137.75625 7244.1639,179.15625 C 7244.1639,179.15625 7244.1639,407.53125 7244.1639,407.53125 C 7244.1639,448.93125 7277.7641,482.53125 7319.1639,482.53125 L 7477.8514,482.25 C 7566.4772,482.25 7609.8514,510.71952 7609.8514,576.25 C 7607.3463,643.91463 7571.8133,645.89771 7503.8514,650.25 L 7420.8826,650.25 C 7401.5534,650.02386 7393.9426,643.07293 7382.8514,632.59375 C 7369.4131,612.36806 7346.4687,599.00002 7320.3826,599 C 7278.9826,599 7245.3827,632.60003 7245.3826,674 C 7245.3826,740.37974 7320.617,800.25 7397.8514,800.25 L 7545.8514,800.25 C 7678.4722,800.25 7761.8514,720.59961 7761.8514,576.25 C 7761.8514,411.93674 7690.2329,332.25 7471.8514,332.25 L 7395.8514,332.25 L 7395.8514,253 C 7395.8514,253 7687.3514,253.46875 7687.3514,253.46875 C 7728.7514,253.46875 7762.3514,219.86875 7762.3514,178.46875 C 7762.3514,137.06875 7728.7514,103.46875 7687.3514,103.46875 z "
       id="five"
       sodipodi:nodetypes="ccccccccccscccsccccsc" />
    <path
       d="M 9915.2808,106.25 C 9770.9138,106.25 9662.4058,176.53874 9662.4058,308.25 C 9662.4058,437.69678 9747.7378,527.3125 9903.2808,527.3125 C 9948.3718,527.31249 9970.2668,525.88178 10000.406,512.21875 L 10000.406,572.8125 C 10000.406,632.25946 9968.1538,649.09375 9908.0938,649.09375 C 9875.1288,649.09376 9854.9378,650.04792 9834.8118,642.71875 C 9821.5668,630.95281 9804.1278,627.78125 9785.0308,627.78125 C 9743.6308,627.78125 9710.0308,661.38125 9710.0308,702.78125 C 9710.0308,785.68561 9831.9368,799.59375 9908.4058,799.59375 C 10064.095,799.59375 10152.406,728.22127 10152.406,616.25 L 10152.406,332.25 C 10152.406,209.52488 10074.503,106.25 9915.2808,106.25 z M 9908.8118,256.15625 C 9991.1638,256.15625 10000.406,290.91667 10000.406,332.25 C 10004.462,390.89882 9955.8218,375.90395 9906.6558,379.9375 C 9843.8128,379.9375 9812.4058,355.89213 9812.4058,308.25 C 9812.4058,267.08706 9859.7958,256.15625 9908.8118,256.15625 z "
       id="nine"
       sodipodi:nodetypes="cssccscsccccccccsc" />
    <path
       d="M 13918.457,565.02547 C 13918.457,755.63838 14029.335,797.125 14127.725,797.125 C 14148.679,799.74697 14168.85,786.68268 14188.225,781.9375 C 14204.444,806.2306 14224.111,810.34375 14253.131,810.34375 C 14297.163,810.34375 14326.569,788.54065 14326.569,740.25 L 14326.569,536.25 C 14326.569,453.88431 14254.729,345.625 14126.975,345.625 C 14008.76,345.625 13918.457,415.76266 13918.457,565.02547 z M 14177.038,572.18519 C 14177.038,626.59208 14161.265,651.30995 14123.007,651.30995 C 14087.271,651.30995 14066.35,613.17935 14066.35,572.97315 C 14066.35,511.87078 14089.09,492.90834 14124.569,492.90834 C 14162.142,492.90834 14177.038,512.31336 14177.038,572.18519 z "
       id="a"
       sodipodi:nodetypes="ccccccccccccc" />
    <path
       d="M 14379.607,216.25 L 14379.607,582.25 C 14379.607,708.92629 14468.48,800.25 14595.607,800.25 C 14723.554,800.25 14803.607,695.3552 14803.607,562.25 C 14803.607,416.85346 14744.934,326.25 14611.607,326.25 C 14581.433,326.58939 14557.515,327.05437 14527.607,333.5625 L 14527.607,216.25 C 14524.822,174.11004 14499.161,140.5625 14451.638,140.5625 C 14407.717,140.5625 14379.607,169.98213 14379.607,216.25 z M 14586.576,473.00278 C 14639.458,473.00278 14652.607,509.8178 14655.607,562.25 C 14655.607,618.94772 14644.192,654.38796 14582.888,654.38796 C 14531.823,655.18517 14527.607,562.01513 14527.607,536.2625 C 14527.607,492.20365 14542.1,473.00278 14586.576,473.00278 z "
       id="b"
       sodipodi:nodetypes="cccccccccccccc" />
    <path
       d="M 14817.858,560.25 C 14817.858,701.40632 14902.303,800.21875 15021.795,800.21875 C 15074.106,800.21875 15102.444,796.4157 15140.608,784.90625 C 15180.611,773.68096 15198.577,752.99988 15200.795,711.375 C 15200.795,669.975 15167.195,636.37502 15125.795,636.375 C 15087.564,636.375 15071.538,653.15963 15033.827,651.1875 C 14981.341,651.1875 14968.733,615.35002 14968.733,562.25 C 14968.733,511.40015 14992.706,475.875 15033.827,475.875 C 15088.2,475.875 15088.482,485.50412 15125.795,488.59375 C 15167.196,488.59375 15200.795,454.99374 15200.795,413.59375 C 15200.795,359.68338 15122.894,325.34375 15040.421,325.34375 C 14914.723,325.34375 14817.858,418.83589 14817.858,560.25 z "
       id="c"
       sodipodi:nodetypes="cccccccccccc" />
    <path
       d="M 15417.778,320.25 C 15302.029,320.25 15213.778,435.81417 15213.778,570.25 C 15213.778,708.58438 15312.909,798.5 15441.528,798.5 C 15516.227,798.41768 15636.654,814.59269 15636.654,716.25 C 15636.654,676.88516 15609.906,646.10787 15564.075,646.10787 C 15533.857,646.10787 15484.838,654.98909 15439.637,650.76296 C 15421.958,650.76296 15397.366,646.75306 15378.654,634.25 L 15569.325,634.25 C 15610.642,631.25647 15635.079,599.61832 15636.654,560.25 C 15636.654,406.10577 15562.855,321.74066 15417.778,320.25 z M 15432.716,469.08079 C 15468.029,469.08079 15487.778,486.25 15487.778,486.25 L 15372.654,486.25 C 15384.364,476.85403 15399.666,469.08079 15432.716,469.08079 z "
       id="e"
       sodipodi:nodetypes="cccccccccccccc" />
    <path
       d="M 16051.985,562.25 C 16055.929,677.32004 16121.774,799.96875 16263.36,799.96875 C 16284.635,804.39 16305.947,798.97173 16326.954,794.8125 C 16326.954,828.00888 16303.836,836.15347 16265.454,836.15347 C 16207.242,836.15347 16202.449,822.46736 16146.86,822.46736 C 16105.348,822.46736 16081.469,856.58095 16081.469,893.79861 C 16081.469,946.3621 16105.89,958.44048 16133.546,968.84352 C 16178.098,976.75764 16213.785,985.03279 16258.922,983.59375 C 16394.94,983.59375 16479.954,886.10004 16479.954,748.25 L 16479.954,568.09537 C 16479.954,428.96795 16405.725,325.46875 16278.36,325.46875 C 16122.482,325.46875 16054.005,431.98121 16051.985,562.25 z M 16271.985,473.08079 C 16319.845,470.51087 16329.985,512.20748 16329.985,566.39213 C 16334.117,624.23936 16309.054,653.48194 16269.078,653.48194 C 16230.211,653.48194 16203.954,627.3386 16203.954,568.25 C 16203.954,517.33863 16210.544,473.08079 16271.985,473.08079 z "
       id="g"
       sodipodi:nodetypes="ccccccccccccccccc" />
    <path
       d="M 19294.211,562.25 C 19294.211,705.95404 19371.131,802.27045 19514.148,799.21875 C 19658.628,799.21875 19738.398,717.95746 19738.398,562.25 C 19738.398,427.08424 19668.367,327.34375 19515.242,327.34375 C 19353.921,327.34375 19294.211,415.09898 19294.211,562.25 z M 19516.773,473.65082 C 19564.435,473.65082 19590.211,513.73157 19590.211,562.25 C 19590.211,624.07752 19557.969,649.6446 19514.43,649.6446 C 19469.148,649.6446 19442.398,614.68531 19442.398,570.25 C 19441.277,515.43029 19470.141,473.65082 19516.773,473.65082 z "
       id="o"
       sodipodi:nodetypes="ccccccsccc" />
    <path
       sodipodi:type="arc"
       style="opacity:1;fill:#000000;fill-opacity:1;stroke:#000000;stroke-width:0.1;stroke-miterlimit:4;stroke-dasharray:none;stroke-dashoffset:0;stroke-opacity:1"
       id="path1356"
       sodipodi:cx="16657.113"
       sodipodi:cy="188.28508"
       sodipodi:rx="75"
       sodipodi:ry="75"
       d="M 16732.113 188.28508 A 75 75 0 1 1  16582.113,188.28508 A 75 75 0 1 1  16732.113 188.28508 z"
       transform="translate(663.41811,22.969952)" />
    <path
       style="opacity:1;fill:#000000;fill-opacity:1;stroke:#000000;stroke-width:0.1;stroke-miterlimit:4;stroke-dasharray:none;stroke-dashoffset:0;stroke-opacity:1"
       d="M 22148.535,325.15625 C 22107.135,325.15625 22073.535,358.75625 22073.535,400.15625 C 22073.535,422.83659 22083.64,443.14979 22099.566,456.90625 L 22188.91,559.3125 L 22083.41,679.59375 L 22083.785,679.9375 C 22072.413,693.08694 22065.535,710.20196 22065.535,728.9375 C 22065.535,770.3375 22099.135,803.93752 22140.535,803.9375 C 22170.068,803.9375 22195.619,786.83122 22207.847,762 L 22286.816,671.5625 L 22370.035,766.9375 C 22383.21,788.51252 22406.985,802.93749 22434.097,802.9375 C 22475.497,802.9375 22509.067,769.33749 22509.066,727.9375 L 22509.097,727.9375 C 22509.097,712.1938 22504.209,697.56885 22495.91,685.5 L 22495.972,685.4375 L 22495.378,684.78125 L 22385.441,558.65625 L 22468.972,463 C 22489.509,449.61554 22503.097,426.4803 22503.097,400.15625 C 22503.097,358.75625 22469.497,325.15625 22428.097,325.15625 C 22407.913,325.15625 22389.615,333.14178 22376.128,346.125 L 22376.004,346.03125 L 22374.504,347.75 L 22287.785,446.625 C 22256.271,415.72785 22230.474,374.31661 22198.566,344.28125 L 22197.535,343.09375 L 22197.378,343.25 C 22184.254,331.97398 22167.182,325.15625 22148.535,325.15625 z "
       id="path1382"
       sodipodi:nodetypes="csccccsscccscccccccsscccccccc" />
    <path
       sodipodi:type="arc"
       style="opacity:1;fill:#000000;fill-opacity:1;stroke:#000000;stroke-width:0.1;stroke-miterlimit:4;stroke-dasharray:none;stroke-dashoffset:0;stroke-opacity:1"
       id="path1404"
       sodipodi:cx="16657.113"
       sodipodi:cy="188.28508"
       sodipodi:rx="75"
       sodipodi:ry="75"
       d="M 16732.113 188.28508 A 75 75 0 1 1  16582.113,188.28508 A 75 75 0 1 1  16732.113 188.28508 z"
       transform="translate(436.02921,18.590132)" />
    <path
       sodipodi:nodetypes="ccccccsccscccccc"
       id="path1409"
       d="M 21372.632,801.11724 C 21277.405,800.26297 21228.619,731.96299 21224.007,643.52349 L 21224.007,477.61724 C 21172.219,477.61724 21138.445,445.09185 21138.445,402.99224 C 21138.445,357.24991 21176.001,328.33599 21224.007,328.33599 L 21224.007,207.52349 C 21224.007,170.89321 21254.778,138.52349 21300.163,138.52349 C 21346.405,138.52349 21374.289,166.31644 21374.289,207.52349 L 21373.695,327.45867 C 21404.068,327.45867 21394.301,327.99224 21421.226,327.99224 C 21462.626,327.99224 21496.227,361.59223 21496.226,402.99224 C 21496.932,450.66997 21465.705,475.64 21421.226,477.99224 L 21374.289,477.52349 C 21374.289,535.07034 21350.577,672.44032 21437.773,642.12951 C 21476.394,642.12951 21514.289,658.69893 21514.289,720.05219 C 21514.289,791.37651 21437.008,801.13628 21372.632,801.11724 z "
       style="opacity:1;fill:#000000;fill-opacity:1;stroke:#000000;stroke-width:0.1;stroke-miterlimit:4;stroke-dasharray:none;stroke-dashoffset:0;stroke-opacity:1" />
    <path
       style="opacity:1;fill:#000000;fill-opacity:1;stroke:#000000;stroke-width:0.1;stroke-miterlimit:4;stroke-dasharray:none;stroke-dashoffset:0;stroke-opacity:1"
       d="M 17524.724,138.25 C 17481.066,138.25 17452.036,174.61667 17452.036,216.59375 L 17452.036,727.09375 C 17452.037,767.5981 17481.907,798.25 17525.818,798.25 C 17572.806,798.25 17601.068,764.81137 17601.068,725.15625 L 17601.068,632.09375 L 17618.88,616.71875 L 17749.193,776.65625 L 17749.349,776.53125 C 17763.11,793.00469 17783.784,803.49998 17806.912,803.5 C 17848.312,803.5 17881.911,769.89997 17881.912,728.5 C 17881.912,712.3405 17876.772,697.3735 17868.068,685.125 L 17868.412,684.875 L 17732.974,518.09375 L 17824.005,439.40625 C 17847.451,426.72109 17863.412,401.9187 17863.412,373.40625 C 17863.412,332.00625 17829.812,298.40626 17788.412,298.40625 C 17771.209,298.40625 17755.351,304.21754 17742.693,313.96875 L 17742.349,313.5625 L 17601.068,434.5625 L 17601.068,213.71875 C 17598.985,165.08197 17569.645,138.25 17524.724,138.25 z "
       id="path1425" />
    <path
       sodipodi:nodetypes="ccccccccccccc"
       id="path1452"
       d="M 18793.897,520.99397 L 18793.897,727.1043 C 18793.897,767.60866 18823.784,798.25 18867.695,798.25 C 18914.684,798.25 18942.928,764.80578 18942.928,725.15066 L 18942.928,536.66088 C 18942.928,500.09657 18974.887,473.79041 19006.147,473.79041 C 19042.216,473.79041 19069.897,506.10772 19069.897,538.25 L 19069.897,725.5198 C 19069.897,767.46252 19103.117,799.27056 19144.442,798.91646 C 19183.926,798.91646 19218.928,764.93854 19218.928,724.70544 L 19218.928,514.25 C 19218.928,412.19609 19127.851,324.25 18998.928,324.25 C 18883.516,324.25 18793.897,412.29934 18793.897,520.99397 z " />
    <path
       d="M 24189.384,225.15916 L 24189.384,357.36791 C 24189.384,397.87227 24219.271,428.51361 24263.182,428.51361 C 24310.171,428.51361 24338.415,395.06939 24338.415,355.41427 L 24338.415,222.29511 C 24338.415,174.97222 24306.992,146.81475 24262.071,146.81475 C 24218.413,146.81475 24189.384,183.18208 24189.384,225.15916 z "
       id="path1496"
       sodipodi:nodetypes="ccccccc" />
    <path
       sodipodi:nodetypes="ccccccc"
       id="path1498"
       d="M 23957.943,112.42106 L 23957.943,888.53475 C 23957.943,929.03911 23987.83,959.68045 24031.741,959.68045 C 24078.73,959.68045 24106.974,926.23623 24106.974,886.58111 L 24106.974,109.55701 C 24106.974,62.234125 24075.551,34.076655 24030.63,34.076655 C 23986.972,34.076655 23957.943,70.443985 23957.943,112.42106 z " />
    <path
       sodipodi:nodetypes="ccccccc"
       id="path1500"
       d="M 24189.384,595.68691 L 24189.384,727.89566 C 24189.384,768.40002 24219.271,799.04136 24263.182,799.04136 C 24310.171,799.04136 24338.415,765.59714 24338.415,725.94202 L 24338.415,592.82286 C 24338.415,545.49997 24306.992,517.3425 24262.071,517.3425 C 24218.413,517.3425 24189.384,553.70983 24189.384,595.68691 z " />
    <path
       style="opacity:1;fill:#000000;fill-opacity:1;stroke:#000000;stroke-width:0.1;stroke-miterlimit:4;stroke-dasharray:none;stroke-dashoffset:0;stroke-opacity:1"
       d="M 23125.907,333.03125 C 23125.907,333.03125 23125.907,333.42991 23125.907,333.4375 C 23125.374,333.42628 23124.85,333.40625 23124.314,333.40625 C 23082.913,333.40625 23049.314,367.00625 23049.314,408.40625 C 23049.314,448.18398 23080.349,480.72675 23119.501,483.21875 L 23119.501,483.25 L 23120.032,483.25 C 23121.454,483.33046 23122.871,483.40625 23124.314,483.40625 C 23125.904,483.40625 23127.466,483.31649 23129.032,483.21875 L 23242.782,482.8125 L 23068.376,676.09375 L 23068.532,676.46875 C 23057.703,689.47181 23051.157,706.17403 23051.157,724.40625 C 23051.157,765.05938 23083.569,798.16157 23123.938,799.34375 L 23123.751,800 L 23414.626,800 L 23414.626,799.375 C 23455.234,798.46148 23487.938,765.2325 23487.938,724.40625 L 23487.907,724.40625 C 23487.907,683.00625 23454.307,649.40626 23412.907,649.40625 C 23412.045,649.40625 23411.2,649.43982 23410.345,649.46875 L 23292.72,649.46875 L 23453.688,470.125 C 23473.253,456.58583 23486.064,433.98288 23486.064,408.40625 C 23486.064,367.84094 23453.811,334.78602 23413.564,333.46875 L 23413.564,333.03125 L 23125.907,333.03125 z "
       id="path1509" />
    <path
       d="M 13826.015,258.14993 L 13826.015,320.13746 C 13826.015,360.64182 13855.902,391.28316 13899.813,391.28316 C 13946.802,391.28316 13975.046,357.83894 13975.046,318.18382 L 13975.046,255.28588 C 13975.046,207.96299 13943.623,179.80552 13898.702,179.80552 C 13855.044,179.80552 13826.015,216.17285 13826.015,258.14993 z "
       id="path1538"
       sodipodi:nodetypes="ccccccc" />
    <path
       sodipodi:nodetypes="ccccccc"
       id="path1540"
       d="M 13355.16,800.97106 L 13740.567,800.97106 C 13781.071,800.97106 13811.712,772.62306 13811.712,727.17306 C 13811.712,681.72306 13778.268,651.94006 13738.613,651.94006 L 13352.296,651.94006 C 13304.973,651.94006 13276.816,683.36306 13276.816,728.28406 C 13276.816,771.94206 13313.183,800.97106 13355.16,800.97106 z " />
    <path
       sodipodi:nodetypes="ccccccc"
       id="path1550"
       d="M 3519.5968,635.39435 L 3715.8664,635.39435 C 3756.3704,635.39435 3787.0114,607.04635 3787.0114,561.59635 C 3787.0114,516.14635 3753.5674,486.36335 3713.9124,486.36335 L 3516.7328,486.36335 C 3469.4098,486.36335 3441.2528,517.78635 3441.2528,562.70735 C 3441.2528,606.36535 3477.6198,635.39435 3519.5968,635.39435 z " />
    <path
       d="M 3420.2891,721.83706 L 3420.2891,657.81304 C 3420.2891,617.30904 3391.9411,586.66804 3346.4911,586.66804 C 3301.0411,586.66804 3271.2581,620.11204 3271.2581,659.76704 L 3271.2581,724.70106 C 3271.2581,772.02406 3302.6811,800.18106 3347.6021,800.18106 C 3391.2601,800.18106 3420.2891,763.81406 3420.2891,721.83706 z "
       id="path1553"
       sodipodi:nodetypes="ccccccc" />
    <path
       d="M 3158.473,158.5 C 3113.0229,158.5 3083.2543,191.93875 3083.2543,231.59375 L 3083.2543,335.59375 L 2981.6293,335.59375 C 2934.3063,335.59376 2906.1606,367.0165 2906.1606,411.9375 C 2906.1605,455.59551 2942.5273,484.625 2984.5043,484.625 L 3083.2543,484.625 L 3083.2543,586.25 C 3083.2543,633.57298 3114.6771,661.71875 3159.598,661.71875 C 3203.2561,661.71874 3232.2856,625.352 3232.2856,583.375 L 3232.2856,484.625 L 3338.223,484.625 C 3378.7271,484.625 3409.3793,456.29375 3409.3793,410.84375 C 3409.3793,365.39375 3375.9093,335.59375 3336.2543,335.59375 L 3232.2856,335.59375 L 3232.2856,229.65625 C 3232.2856,189.15224 3203.923,158.5 3158.473,158.5 z "
       id="path1555" />
    <path
       d="M 2669.1683,1.625 C 2656.3351,1.6472034 2642.73,5.3132976 2629.1995,13.125 C 2589.8388,35.85004 2580.7783,79.689012 2600.6058,114.03125 L 2612.9495,135.4375 L 2590.2308,135.4375 C 2542.9078,135.4375 2514.7308,166.86025 2514.7308,211.78125 C 2514.7308,255.43926 2551.0976,284.46875 2593.0745,284.46875 L 2612.8871,284.46875 L 2601.5433,304.09375 C 2577.8818,345.07668 2591.0156,385.1645 2629.9183,407.625 C 2667.7274,429.454 2711.0548,412.47815 2732.0433,376.125 L 2741.9808,358.9375 L 2753.5121,378.90625 C 2777.1735,419.88918 2818.4842,428.55423 2857.3871,406.09375 C 2895.1959,384.26469 2902.1568,338.2594 2881.1683,301.90625 L 2871.1058,284.46875 L 2898.0121,284.46875 C 2938.516,284.46875 2969.1683,256.10625 2969.1683,210.65625 C 2969.1682,165.20625 2935.7296,135.4375 2896.0745,135.4375 L 2871.0121,135.4375 L 2884.5121,112.03125 C 2904.764,76.953753 2895.5291,36.25625 2856.1683,13.53125 C 2816.8073,-9.19375 2774.3083,4.8765126 2754.4808,39.21875 L 2741.9808,60.84375 L 2728.6995,37.84375 C 2715.4091,14.824145 2693.668,1.5826118 2669.1683,1.625 z "
       id="path1560" />
    <path
       sodipodi:nodetypes="ccccccc"
       id="path1568"
       d="M 2215.9095,306.30578 L 2215.9095,242.28176 C 2215.9095,201.77776 2187.5615,171.13676 2142.1115,171.13676 C 2096.6615,171.13676 2066.8785,204.58076 2066.8785,244.23576 L 2066.8785,309.16978 C 2066.8785,356.49278 2098.3015,384.64978 2143.2225,384.64978 C 2186.8805,384.64978 2215.9095,348.28278 2215.9095,306.30578 z " />
    <path
       d="M 506.77278,314.30578 L 506.77278,250.28176 C 506.77278,209.77776 478.42478,179.13676 432.97478,179.13676 C 387.52478,179.13676 357.74178,212.58076 357.74178,252.23576 L 357.74178,317.16978 C 357.74178,364.49278 389.16478,392.64978 434.08578,392.64978 C 477.74378,392.64978 506.77278,356.28278 506.77278,314.30578 z "
       id="path1570"
       sodipodi:nodetypes="ccccccc" />
    <path
       transform="translate(-12789.053,537.63763)"
       d="M 16732.113 188.28508 A 75 75 0 1 1  16582.113,188.28508 A 75 75 0 1 1  16732.113 188.28508 z"
       sodipodi:ry="75"
       sodipodi:rx="75"
       sodipodi:cy="188.28508"
       sodipodi:cx="16657.113"
       id="path1594"
       style="opacity:1;fill:#000000;fill-opacity:1;stroke:#000000;stroke-width:0.1;stroke-miterlimit:4;stroke-dasharray:none;stroke-dashoffset:0;stroke-opacity:1"
       sodipodi:type="arc" />
    <path
       d="M 10567.396,722.53017 L 10567.396,658.50607 C 10567.396,618.00207 10539.048,587.36107 10493.598,587.36107 C 10448.148,587.36107 10418.365,620.80507 10418.365,660.46007 L 10418.365,725.39417 C 10418.365,772.71717 10449.788,800.87417 10494.709,800.87417 C 10538.367,800.87417 10567.396,764.50717 10567.396,722.53017 z "
       id="path1599"
       sodipodi:nodetypes="ccccccc" />
    <path
       transform="translate(-6361.5188,457.26518)"
       d="M 16732.113 188.28508 A 75 75 0 1 1  16582.113,188.28508 A 75 75 0 1 1  16732.113 188.28508 z"
       sodipodi:ry="75"
       sodipodi:rx="75"
       sodipodi:cy="188.28508"
       sodipodi:cx="16657.113"
       id="path1601"
       style="opacity:1;fill:#000000;fill-opacity:1;stroke:#000000;stroke-width:0.1;stroke-miterlimit:4;stroke-dasharray:none;stroke-dashoffset:0;stroke-opacity:1"
       sodipodi:type="arc" />
    <path
       sodipodi:type="arc"
       style="opacity:1;fill:#000000;fill-opacity:1;stroke:#000000;stroke-width:0.1;stroke-miterlimit:4;stroke-dasharray:none;stroke-dashoffset:0;stroke-opacity:1"
       id="path1603"
       sodipodi:cx="16657.113"
       sodipodi:cy="188.28508"
       sodipodi:rx="75"
       sodipodi:ry="75"
       d="M 16732.113 188.28508 A 75 75 0 1 1  16582.113,188.28508 A 75 75 0 1 1  16732.113 188.28508 z"
       transform="translate(-6361.5188,230.96714)" />
    <path
       transform="translate(-6164.8022,192.51127)"
       d="M 16732.113 188.28508 A 75 75 0 1 1  16582.113,188.28508 A 75 75 0 1 1  16732.113 188.28508 z"
       sodipodi:ry="75"
       sodipodi:rx="75"
       sodipodi:cy="188.28508"
       sodipodi:cx="16657.113"
       id="path1605"
       style="opacity:1;fill:#000000;fill-opacity:1;stroke:#000000;stroke-width:0.1;stroke-miterlimit:4;stroke-dasharray:none;stroke-dashoffset:0;stroke-opacity:1"
       sodipodi:type="arc" />
    <path
       d="M 12399.864,150.625 C 12174.349,150.625 12023.146,334.42291 12023.146,548.25 C 12023.146,698.52927 12117.493,915.0625 12269.677,915.0625 C 12311.077,915.0625 12344.677,881.46247 12344.677,840.0625 C 12344.677,801.8699 12321.201,770.34749 12284.267,765.6875 C 12224.97,745.28556 12173.333,649.07825 12173.333,548.25 C 12173.333,395.95832 12245.259,300.46204 12401.083,299.59375 C 12575.778,306.81621 12663.146,386.60564 12663.146,548.25 C 12663.146,657.58331 12650.922,756.78125 12621.146,756.78125 C 12588.963,756.78127 12603.241,605.78744 12599.333,532.25 C 12600.015,403.52745 12528.818,326.01746 12404.021,322.25 C 12260.323,322.25 12195.146,431.43043 12195.146,548.25 C 12197.571,678.03223 12280.354,776.29825 12399.923,776.29825 C 12412.632,774.39201 12442.284,770.13684 12454.083,767.625 C 12467.962,856.2525 12511.964,904.74151 12604.792,903.62774 C 12715.988,903.62774 12813.333,794.9559 12813.333,563.625 C 12815.192,304.25456 12644.613,150.625 12399.864,150.625 z M 12399.864,470.875 C 12440.424,470.87499 12451.146,498.74623 12451.146,551.71875 C 12451.146,601.82489 12441.683,625 12401.927,625 C 12367.207,625 12345.689,598.57496 12343.333,549 C 12343.333,508.5805 12355.327,470.875 12399.864,470.875 z "
       id="path1610"
       sodipodi:nodetypes="cccscccsscccccccccsscc" />
    <path
       d="M 11140.233,614.68171 L 11458.877,614.68171 C 11499.381,614.68171 11530.022,586.33371 11530.022,540.88371 C 11530.022,495.43371 11496.578,465.65071 11456.923,465.65071 L 11137.369,465.65071 C 11090.046,465.65071 11061.889,497.07371 11061.889,541.99471 C 11061.889,585.65271 11098.256,614.68171 11140.233,614.68171 z "
       id="path1616"
       sodipodi:nodetypes="ccccccc" />
    <path
       sodipodi:nodetypes="ccccccc"
       id="path1618"
       d="M 11140.233,379.25319 L 11458.877,379.25319 C 11499.381,379.25319 11530.022,350.90519 11530.022,305.45519 C 11530.022,260.00519 11496.578,230.22219 11456.923,230.22219 L 11137.369,230.22219 C 11090.046,230.22219 11061.889,261.64519 11061.889,306.56619 C 11061.889,350.22419 11098.256,379.25319 11140.233,379.25319 z " />
    <path
       style="opacity:1;fill:#000000;fill-opacity:1;stroke:#000000;stroke-width:0.1;stroke-miterlimit:4;stroke-dasharray:none;stroke-dashoffset:0;stroke-opacity:1"
       d="M 16292.532,81.59375 C 16274.095,76.26381 16274.46,75.81439 16258.828,82.99598 C 16258.828,82.99598 16131.497,166.51757 16131.497,166.51757 C 16120.089,172.11612 16105.531,185.19376 16105.532,226.59375 C 16105.532,267.99375 16139.131,301.59376 16180.532,301.59375 C 16227.364,292.23784 16240.372,270.84807 16278.532,237.59375 C 16316.237,270.63936 16332.938,296.07514 16380.532,301.59375 C 16421.932,301.59375 16455.532,267.99376 16455.532,226.59375 C 16455.532,185.19375 16447.515,184.63936 16427.435,167.58356 C 16427.435,167.58356 16292.532,81.59375 16292.532,81.59375 z "
       id="path1351"
       sodipodi:nodetypes="ccsccccscc" />
    <path
       style="opacity:1;fill:#000000;fill-opacity:1;stroke:#000000;stroke-width:0.1;stroke-miterlimit:4;stroke-dasharray:none;stroke-dashoffset:0;stroke-opacity:1"
       d="M 19095.645,81.75 C 19085.594,81.75 19076.032,83.752553 19067.27,87.34375 L 19066.863,87.25 L 18877.52,163.53125 C 18851.781,175.03254 18839.918,203.9339 18836.739,231.6875 C 18836.739,273.0875 18870.339,306.68749 18911.739,306.6875 C 18925.739,306.6875 18938.832,302.8127 18950.051,296.125 L 19107.02,230.90625 C 19150.933,218.81173 19164.226,200.66015 19170.645,156.75 C 19170.645,115.35 19137.044,81.749998 19095.645,81.75 z "
       id="path1360"
       sodipodi:nodetypes="cccccscccc" />
    <path
       sodipodi:nodetypes="ccccccccc"
       id="path1374"
       d="M 14944.381,881.87789 C 14944.381,918.57389 14978.353,951.87789 15024.381,951.87789 C 15113.029,950.99589 15161.756,882.84089 15161.756,802.18989 C 15162.442,715.96589 15106.167,650.03389 15024.381,650.03389 C 14978.588,650.03389 14944.381,684.06689 14944.381,726.25289 C 14944.381,765.52189 14968.309,796.25289 15018.381,796.25289 C 15025.999,796.25289 15026.944,795.11489 15026.944,802.06589 C 15026.944,808.38589 15024.744,807.68989 15018.381,807.68989 C 14968.239,807.68989 14944.381,840.11189 14944.381,881.87789 z " />
    <path
       sodipodi:nodetypes="ccccccccc"
       id="path1381"
       d="M 18516.508,294.64393 C 18553.204,294.64393 18586.508,260.67193 18586.508,214.64393 C 18585.626,125.99593 18517.471,77.268929 18436.82,77.268929 C 18350.596,76.582929 18284.664,132.85793 18284.664,214.64393 C 18284.664,260.43693 18318.697,294.64393 18360.883,294.64393 C 18400.152,294.64393 18430.883,270.71593 18430.883,220.64393 C 18430.883,213.02593 18429.745,212.08093 18436.696,212.08093 C 18443.016,212.08093 18442.32,214.28093 18442.32,220.64393 C 18442.32,270.78593 18474.742,294.64393 18516.508,294.64393 z " />
  </g>
</svg>
