<?xml version="1.0" encoding="UTF-8" standalone="no"?>
<!-- Created with Inkscape (http://www.inkscape.org/) -->
<svg
   xmlns:dc="http://purl.org/dc/elements/1.1/"
   xmlns:cc="http://web.resource.org/cc/"
   xmlns:rdf="http://www.w3.org/1999/02/22-rdf-syntax-ns#"
   xmlns:svg="http://www.w3.org/2000/svg"
   xmlns="http://www.w3.org/2000/svg"
   xmlns:sodipodi="http://sodipodi.sourceforge.net/DTD/sodipodi-0.dtd"
   xmlns:inkscape="http://www.inkscape.org/namespaces/inkscape"
   width="20000"
   height="1000"
   id="svg1282"
   sodipodi:version="0.32"
   inkscape:version="0.45"
   sodipodi:docname="UbuntuTitle15_ultralight_sketch.svg"
   sodipodi:docbase="/home/guest/Documents/Trabalhos/UbuntuTitleFont/svg_pesos/sketches_svg"
   inkscape:output_extension="org.inkscape.output.svg.inkscape"
   sodipodi:modified="true">
  <defs
     id="defs3" />
  <sodipodi:namedview
     inkscape:document-units="px"
     id="base"
     pagecolor="#ffffff"
     bordercolor="#666666"
     borderopacity="1.0"
     inkscape:pageopacity="0.0"
     inkscape:pageshadow="2"
     inkscape:zoom="0.21767703"
     inkscape:cx="14419.206"
     inkscape:cy="542.63358"
     inkscape:current-layer="layer1"
     inkscape:window-width="1264"
     inkscape:window-height="708"
     inkscape:window-x="0"
     inkscape:window-y="6"
     showguides="true"
     inkscape:guide-bbox="true">
    <sodipodi:guide
       orientation="horizontal"
       position="200"
       id="guide1331" />
    <sodipodi:guide
       orientation="horizontal"
       position="900.58783"
       id="guide1346" />
    <sodipodi:guide
       orientation="horizontal"
       position="666.37818"
       id="guide1474" />
    <sodipodi:guide
       orientation="vertical"
       position="6805.2153"
       id="guide1334" />
    <sodipodi:guide
       orientation="vertical"
       position="6459.2694"
       id="guide1336" />
  </sodipodi:namedview>
  <metadata
     id="metadata4">
    <rdf:RDF>
      <cc:Work
         rdf:about="">
        <dc:format>image/svg+xml</dc:format>
        <dc:type
           rdf:resource="http://purl.org/dc/dcmitype/StillImage" />
      </cc:Work>
    </rdf:RDF>
  </metadata>
  <g
     inkscape:label="Layer 1"
     inkscape:groupmode="layer"
     id="layer1">
    <path
       d="M 15422.582,314.84375 C 15415.185,314.84375 15409.177,320.8532 15409.176,328.25 C 15409.176,498.56531 15504.48,801.53125 15573.458,801.53125 C 15640.595,801.53125 15735.114,483.69348 15735.114,326.09375 C 15735.105,326.06177 15735.091,326.03131 15735.082,326 C 15734.007,319.6786 15728.521,314.84374 15721.895,314.84375 C 15714.498,314.84375 15708.489,320.8532 15708.489,328.25 C 15708.489,512.87123 15606.086,774.53125 15573.676,774.53125 C 15542.646,774.53125 15435.989,525.78399 15435.989,328.25 C 15435.99,320.8532 15429.98,314.84374 15422.582,314.84375 z "
       id="v"
       sodipodi:nodetypes="cccccscccc"
       style="stroke:none;fill:#000000;fill-opacity:1" />
    <path
       d="M 9002.979,152.125 C 8806.898,152.125 8683.822,313.50901 8683.822,548.25 C 8683.822,709.93369 8778.059,840.48012 8860.072,888.6875 C 8862.211,890.13282 8864.798,891 8867.572,891 C 8874.969,891 8880.978,884.99058 8880.979,877.59375 C 8880.979,871.15607 8876.409,865.78751 8870.353,864.5 C 8767.104,804.86459 8711.541,667.19319 8711.541,548.25 C 8709.057,369.29723 8787.562,183.09375 9005.353,183.09375 C 9206.786,183.09375 9325.8225,285.04966 9325.8225,548.25 C 9325.8225,727.79713 9279.892,868.4375 9214.229,868.4375 C 9160.03,868.43752 9136.208,738.91667 9137.541,720.25 C 9137.541,720.25 9139.541,550.25 9139.541,550.25 C 9139.541,408.28562 9090.113,326.40625 9003.76,326.40625 C 8903.507,326.40625 8857.822,411.8103 8857.822,548.25 C 8857.822,692.55389 8921.445,773.90625 9002.76,773.90625 C 9031.281,774.3443 9085.34,761.25107 9110.947,741 C 9116.786,803.67238 9143.83,894.4375 9207.416,894.4375 C 9310.1015,894.4375 9351.5415,750.0426 9351.5415,548.25 C 9351.5415,298.45582 9265.561,152.125 9002.979,152.125 z M 9002.26,352.6875 C 9089.281,352.6875 9113.822,443.6729 9113.822,597.46875 C 9113.822,726.06393 9075.281,746.625 8999.822,746.625 C 8933.276,746.62499 8885.541,669.76936 8885.541,548.25 C 8885.541,425.82444 8923.171,352.6875 9002.26,352.6875 z "
       id="at"
       style="stroke:none;fill:#000000;fill-opacity:1" />
    <path
       d="M 11268.631,320.4375 C 11182.356,320.4375 11108.412,390.34154 11108.412,558.25 C 11108.412,702.69328 11182.153,799.75 11282.412,799.75 C 11370.354,799.75 11393.534,751.05995 11407.318,728.875 C 11410.066,724.01792 11411.789,722.16233 11412.35,717.09375 C 11412.35,709.69695 11406.371,703.68751 11398.974,703.6875 C 11392.019,703.6875 11388.065,709.75287 11383.631,715.78125 C 11359.368,748.74788 11346.852,772.71875 11284.474,772.71875 C 11190.665,772.71873 11138.693,654.26501 11138.693,573.1875 L 11394.568,573.1875 C 11394.56,573.14247 11394.545,573.10728 11394.537,573.0625 C 11394.836,573.08253 11395.139,573.09375 11395.443,573.09375 C 11402.84,573.09375 11408.819,567.08428 11408.818,559.6875 C 11409.512,444.88036 11385.696,320.4375 11268.631,320.4375 z M 11267.724,346.5625 C 11335.081,346.5625 11384.412,415.56726 11384.412,545.3125 L 11138.693,545.3125 C 11138.693,417.78734 11199.031,346.5625 11267.724,346.5625 z "
       id="e"
       sodipodi:nodetypes="cssccscscccscccccc"
       style="stroke:none;fill:#000000;fill-opacity:1" />
    <path
       d="M 14675.989,323.6875 C 14589.528,323.6875 14525.864,372.49642 14525.864,510.25 C 14525.865,510.25 14527.239,786.53125 14527.239,786.53125 C 14527.24,793.92805 14533.248,799.9375 14540.645,799.9375 C 14548.041,799.9375 14554.05,793.92807 14554.052,786.53125 L 14555.145,510.25 C 14555.145,403.39354 14609.675,350.96875 14675.239,350.96875 C 14728.58,350.96876 14774.04,407.55364 14785.614,450.75 C 14786.577,457.20313 14792.143,462.15626 14798.864,462.15625 C 14806.261,462.15625 14810.424,455.91274 14812.27,448.75 C 14809.547,404.62382 14757.021,323.6875 14675.989,323.6875 z "
       id="path1586"
       sodipodi:nodetypes="cccsccscscc"
       style="stroke:none;fill:#000000;fill-opacity:1" />
    <path
       d="M 13055.093,321.6875 C 12987.92,321.6875 12930.968,346.49642 12930.968,484.25 C 12930.968,484.25 12932.343,786.53125 12932.343,786.53125 C 12932.343,793.92805 12938.352,799.9375 12945.75,799.9375 C 12953.146,799.9375 12959.155,793.92807 12959.156,786.53125 L 12960.25,484.25 C 12960.25,377.39354 13008.042,348.96875 13054.343,348.96875 C 13132.057,348.96876 13162.968,391.12234 13162.968,484.25 C 13162.968,484.25 13162.656,638.53125 13162.656,638.53125 C 13162.656,645.92805 13168.666,651.9375 13176.062,651.9375 C 13176.272,651.9375 13176.479,651.91585 13176.687,651.90625 C 13176.895,651.91585 13177.102,651.9375 13177.312,651.9375 C 13184.708,651.9375 13190.719,645.92805 13190.718,638.53125 C 13190.718,638.53125 13190.405,484.25 13190.406,484.25 C 13190.406,391.12234 13221.316,348.96876 13299.031,348.96875 C 13345.332,348.96875 13393.125,377.39354 13393.124,484.25 L 13394.218,786.53125 C 13394.219,793.92807 13400.229,799.9375 13407.624,799.9375 C 13415.022,799.9375 13421.03,793.92805 13421.031,786.53125 C 13421.031,786.53125 13422.405,484.25 13422.406,484.25 C 13422.406,346.49642 13365.453,321.6875 13298.281,321.6875 C 13234.409,321.6875 13195.442,346.66913 13176.687,395.3125 C 13157.932,346.66913 13118.965,321.6875 13055.093,321.6875 z "
       id="path1434"
       style="stroke:none;fill:#000000;fill-opacity:1" />
    <path
       d="M 12467.039,324.375 C 12459.643,324.37501 12453.664,330.38445 12453.664,337.78125 L 12453.602,828.25 C 12453.601,925.22876 12446.102,958.5 12395.227,958.5 C 12377.443,958.0181 12355.936,957.65576 12341.196,938.53125 C 12341.167,938.49463 12341.161,938.44301 12341.133,938.40625 C 12338.724,934.84164 12334.631,932.49998 12330.008,932.5 C 12322.611,932.5 12316.602,938.50946 12316.602,945.90625 C 12316.602,950.99155 12319.456,955.41748 12323.633,957.6875 C 12344.547,978.16231 12367.51,982.60338 12395.352,984 C 12459.552,984 12481.133,945.15581 12481.133,828.25 C 12482,664.81529 12480.446,501.091 12480.446,337.78125 C 12480.446,330.38446 12474.436,324.375 12467.039,324.375 z "
       id="j"
       sodipodi:nodetypes="ccccccsscccsc"
       style="stroke:none;fill:#000000;fill-opacity:1" />
    <path
       d="M 5195.0708,103.5 C 5187.674,103.5 5179.6956,109.50945 5179.6958,116.90625 C 5179.6958,116.90625 5180.602,404.90625 5180.602,404.90625 C 5180.602,412.30305 5186.6115,418.31251 5194.0082,418.3125 L 5388.7582,417.21875 C 5496.8869,417.21875 5544.4458,482.00423 5544.4458,582.25 C 5544.4458,690.13728 5505.1947,775.28125 5357.6958,775.28125 C 5246.1733,775.28125 5206.4458,742.35061 5206.4458,664.6875 C 5206.4458,657.2907 5200.4361,651.28127 5193.0395,651.28125 C 5185.6427,651.28125 5179.6334,657.2907 5179.6332,664.6875 C 5184.0746,755.25606 5211.6564,800.25 5357.6958,800.25 C 5525.6225,800.25 5573.6958,735.2443 5573.6958,582.25 C 5573.6958,435.84599 5519.8616,390.3125 5345.1958,390.3125 L 5207.6958,390.3125 L 5207.6958,130.1875 C 5207.6958,130.1875 5559.852,130.3125 5559.852,130.3125 C 5567.2488,130.3125 5573.258,124.30305 5573.2582,116.90625 C 5573.2582,109.50945 5567.249,103.5 5559.852,103.5 C 5559.852,103.5 5195.0708,103.5 5195.0708,103.5 z "
       id="path1476"
       sodipodi:nodetypes="cccccsccsccsccccscc"
       style="stroke:none;fill:#000000;fill-opacity:1" />
    <path
       style="opacity:1;fill:#000000;fill-opacity:1;stroke:none;stroke-width:0.1;stroke-miterlimit:4;stroke-dasharray:none;stroke-dashoffset:0;stroke-opacity:1"
       d="M 5073.2557,101.21875 C 5067.1322,101.21875 5061.9727,105.35399 5060.3807,110.96875 C 5054.8613,118.77562 4738.5683,566.15625 4738.5683,566.15625 C 4736.4213,570.90738 4733.6447,575.98562 4733.2245,581.28125 C 4733.2245,596.07485 4745.2122,608.0625 4760.0057,608.0625 C 4762.4902,608.0625 4764.9097,607.72736 4767.1933,607.09375 C 4778.0729,607.09374 4945.5485,607.09375 5059.8807,607.09375 C 5059.8808,676.9619 5059.8807,785.875 5059.8807,785.875 C 5059.8807,793.27179 5065.859,799.25 5073.2557,799.25 C 5080.6525,799.24999 5086.6621,793.27179 5086.662,785.875 C 5086.662,785.875 5086.662,676.9619 5086.662,607.09375 C 5114.8491,607.09375 5173.3807,607.09375 5173.3807,607.09375 C 5180.7775,607.09373 5186.7557,601.11555 5186.7557,593.71875 C 5186.7557,586.32193 5180.7776,580.3124 5173.3807,580.3125 C 5173.3807,580.3125 5115.2399,580.3125 5086.662,580.3125 C 5086.662,384.42984 5086.662,125.70601 5086.662,119.3125 C 5088.67,113.80238 5086.8712,107.44379 5081.8495,103.875 C 5080.063,102.60533 5078.0687,101.83623 5076.037,101.53125 C 5076.0051,101.52646 5075.9752,101.50455 5075.9433,101.5 C 5075.071,101.32123 5074.1804,101.21875 5073.2557,101.21875 z M 5059.8807,158.03125 C 5059.8807,209.11258 5059.8807,400.88175 5059.8807,580.3125 C 4941.6659,580.3125 4764.2953,580.3125 4761.3807,580.3125 C 4763.1613,577.7939 5017.3822,218.15132 5059.8807,158.03125 z "
       id="path1348" />
    <path
       d="M 4056.4389,100.25 C 3941.648,100.25 3887.2202,148.42387 3887.2202,228.25 C 3887.385,228.02663 3887.5287,227.83058 3887.6889,227.625 C 3887.1271,229.10312 3886.8139,230.70059 3886.8139,232.375 C 3886.8139,239.7718 3892.8232,245.78126 3900.2202,245.78125 C 3907.6169,245.78125 3913.6264,239.7718 3913.6264,232.375 C 3913.6264,230.92941 3913.3631,229.55472 3912.9389,228.25 C 3912.9454,228.24443 3912.9637,228.25559 3912.9702,228.25 C 3912.9702,155.22504 3969.1592,122.15625 4056.4389,122.15625 C 4205.1218,122.15625 4251.2202,177.10659 4251.2202,320.25 C 4251.2202,445.34231 4194.8664,482.3125 4060.1576,482.3125 C 3932.219,482.3125 3887.2202,581.71239 3887.2202,642.25 C 3887.2202,642.25 3886.9955,779.53125 3886.9955,779.53125 C 3886.9955,787.90693 3895.7289,796.09375 3905.2202,796.09375 C 3905.1981,796.14815 3905.1801,796.19525 3905.1576,796.25 L 4260.0014,796.25 C 4260.1624,796.09953 4260.2804,795.99193 4260.4389,795.84375 C 4261.3109,796.02235 4262.2018,796.09375 4263.1264,796.09375 C 4270.5232,796.09375 4276.5325,790.0843 4276.5326,782.6875 C 4276.5326,781.69385 4276.3944,780.74467 4276.1889,779.8125 C 4276.1941,779.80283 4276.1838,779.79087 4276.1889,779.78125 C 4277.0042,778.25669 4276.653,777.3943 4275.1889,776.875 C 4273.0189,772.39764 4268.4331,769.31252 4263.1264,769.3125 L 3912.9702,769.84375 L 3913.7514,650.5625 C 3913.7514,560.28537 3971.2032,509.1875 4058.5014,509.1875 C 4229.5309,509.1875 4276.9702,447.49558 4276.9702,320.25 C 4276.9702,160.35687 4218.8945,100.25 4056.4389,100.25 z "
       id="two"
       sodipodi:nodetypes="cccsssccsssccccccssssccccssc"
       style="stroke:none;fill:#000000;fill-opacity:1" />
    <path
       d="M 3523.6187,103.59375 C 3367.2747,103.59375 3297.8374,243.31214 3297.8374,464.25 C 3297.8374,693.12351 3370.5118,797.21875 3521.5561,797.21875 C 3686.3067,797.21875 3748.6811,696.97585 3748.6811,466.25 C 3748.6811,243.26685 3688.638,103.59375 3523.6187,103.59375 z M 3523.7749,129.48457 C 3651.4774,129.48457 3721.8374,236.27793 3721.8374,466.25 C 3721.8374,691.77563 3663.3504,769.90287 3522.0874,769.90287 C 3391.708,769.90287 3324.6811,667.47106 3324.6811,466.25 C 3324.6811,233.55946 3389.1956,129.48457 3523.7749,129.48457 z "
       id="zero"
       sodipodi:nodetypes="cccccccccc"
       style="stroke:none;fill:#000000;fill-opacity:1" />
    <path
       sodipodi:nodetypes="cccsccc"
       id="path1411"
       d="M 86.498234,133.02119 C 79.101534,133.02119 73.123134,139.03064 73.123234,146.42744 C 73.123234,146.42744 73.123234,593.6373 73.123234,593.6373 C 73.123234,601.0341 79.101434,607.0123 86.498234,607.0123 C 93.895034,607.0123 99.904634,601.03409 99.904534,593.6373 C 99.904534,593.6373 99.904534,146.42744 99.904534,146.42744 C 99.904534,139.03064 93.895034,133.02119 86.498234,133.02119 z "
       style="opacity:1;fill:#000000;fill-opacity:1;stroke:none;stroke-width:0.1;stroke-miterlimit:4;stroke-dasharray:none;stroke-dashoffset:0;stroke-opacity:1" />
    <path
       d="M 1272.6239,103.46875 C 1265.2273,103.46875 1259.2489,109.4782 1259.2489,116.875 C 1259.249,116.875 1259.249,184.54105 1259.2489,204.25 L 1218.2802,204.25 C 1136.0173,204.25 1064.2802,257.68737 1064.2802,342.25 C 1064.2802,418.00646 1122.0476,468.03125 1218.2802,468.03125 L 1259.2489,468.03125 C 1259.2491,572.61373 1259.2489,618.84863 1259.2489,677.5625 L 1089.8585,677.5625 C 1081.8796,677.5625 1076.2685,683.36147 1076.2685,690.87486 C 1076.2685,698.99167 1081.8907,704.25 1089.8585,704.25 L 1259.2489,704.25 C 1259.2491,723.77661 1259.2489,791.1875 1259.2489,791.1875 C 1259.249,798.58431 1265.2272,804.5625 1272.6239,804.5625 C 1280.0208,804.56251 1286.0303,798.58429 1286.0302,791.1875 C 1286.0302,791.1875 1286.0302,723.77661 1286.0302,704.25 L 1325.6239,704.25 C 1419.7362,704.25 1481.6239,661.23019 1481.6239,566.25 C 1483.6005,488.75808 1423.9061,439.6875 1325.6239,439.6875 L 1286.0302,439.6875 C 1286.0302,335.48831 1286.0302,289.5766 1286.0302,230.90625 C 1339.0523,232.86713 1445.4052,230.90625 1445.4052,230.90625 C 1453.6081,230.90625 1458.7183,224.92784 1458.7183,216.58911 C 1458.7183,210.10137 1452.8049,204.125 1445.4052,204.125 L 1286.0302,204.25 C 1286.0302,184.54105 1286.0302,116.875 1286.0302,116.875 C 1286.0302,109.4782 1280.0208,103.46875 1272.6239,103.46875 z M 1218.2802,230.90625 L 1259.2489,230.90625 C 1259.249,289.57659 1259.2489,335.48831 1259.2489,439.6875 L 1218.2802,439.6875 C 1144.9581,439.6875 1089.7177,396.96573 1089.7177,342.25 C 1089.7177,272.07062 1154.6983,230.90625 1218.2802,230.90625 z M 1286.0302,468.03125 L 1325.6239,468.03125 C 1398.4096,468.03125 1450.0927,505.01415 1450.0927,568.09375 C 1450.0927,631.33641 1398.8011,677.5625 1325.6239,677.5625 L 1286.0302,677.5625 C 1286.0302,618.84863 1286.0302,468.03125 1286.0302,468.03125 z "
       id="path1363"
       sodipodi:nodetypes="csccsccccccccscccccccccccccccccscccsccc"
       style="stroke:none;fill:#000000;fill-opacity:1" />
    <path
       d="M 1719.2402,99.46875 C 1711.8434,99.46875 1710.3637,101.99385 1707.9246,103.8157 C 1611.1261,209.89265 1581.9902,308.92622 1581.9902,449.375 C 1584.5582,573.04557 1618.5381,705.32041 1709.5214,794.3125 C 1711.9644,796.89354 1715.4085,798.49999 1719.2402,798.5 C 1726.637,798.5 1732.6465,792.5218 1732.6464,785.125 C 1732.6464,781.48912 1731.1875,778.16497 1728.834,775.75 C 1728.8592,775.71245 1728.8706,775.66182 1728.8964,775.625 C 1728.532,775.35431 1728.1652,775.08784 1727.8027,774.8125 C 1638.0146,695.695 1608.8027,580.97296 1608.8027,449.375 C 1610.2016,322.8633 1640.7619,214.58956 1727.6026,122.44847 C 1730.4698,121.40316 1732.6464,116.80293 1732.6464,112.875 C 1732.6463,105.4782 1726.6369,99.468747 1719.2402,99.46875 z "
       id="parenleft"
       sodipodi:nodetypes="ccccsscccccsc"
       style="stroke:none;fill:#000000;fill-opacity:1" />
    <path
       d="M 4483.0395,104.25 C 4364.8796,104.25 4303.1332,139.10903 4303.1332,237.5625 C 4303.1332,244.9593 4309.1428,250.96875 4316.5395,250.96875 C 4323.9363,250.96875 4329.9455,244.9593 4329.9458,237.5625 C 4334.4748,165.88386 4389.974,131.34375 4483.0395,131.34375 C 4613.174,131.34376 4671.0395,213.83256 4671.0395,332.25 C 4671.0395,353.58334 4653.5913,414.72917 4648.2582,424.0625 C 4622.4257,453.77359 4598.129,443.875 4493.1332,443.875 C 4485.7365,443.875 4479.7268,449.88444 4479.727,457.28125 C 4479.727,464.67805 4485.7363,470.65624 4493.1332,470.65625 C 4608.599,470.65625 4624.6981,470.15318 4647.6497,487.91211 C 4663.3851,516.52403 4670.1665,543.29763 4671.0395,576.25 C 4671.0395,714.80992 4624.7594,773.15625 4494.8208,773.15625 C 4401.9494,773.15625 4330.8208,741.93927 4330.8208,672.25 C 4330.6593,672.28163 4330.5085,672.28895 4330.352,672.3125 C 4330.1334,663.76524 4325.033,659.36404 4316.977,658.0625 C 4309.5802,658.0625 4303.5706,664.07197 4303.5708,671.46875 C 4303.5708,738.93506 4352.6192,800.25 4492.8208,800.25 C 4653.3127,800.25 4696.8208,723.41518 4696.8208,576.25 C 4696.3743,524.07105 4690.2854,492.239 4656.8208,454.25 C 4689.6547,417.01038 4696.8208,389.50531 4696.8208,332.25 C 4696.8208,196.16738 4640.0801,104.25 4483.0395,104.25 z "
       id="three"
       sodipodi:nodetypes="ccsccsccscccsccccccccc"
       style="stroke:none;fill:#000000;fill-opacity:1" />
    <path
       sodipodi:type="arc"
       style="opacity:1;fill:#000000;fill-opacity:1;stroke:none;stroke-width:0.1;stroke-miterlimit:4;stroke-dasharray:none;stroke-dashoffset:0;stroke-opacity:1"
       id="path1334"
       sodipodi:cx="4244.4194"
       sodipodi:cy="252.09859"
       sodipodi:rx="13.4"
       sodipodi:ry="13.4"
       d="M 4257.8194 252.09859 A 13.4 13.4 0 1 1  4231.0194,252.09859 A 13.4 13.4 0 1 1  4257.8194 252.09859 z"
       transform="translate(-4157.9041,534.93878)" />
    <path
       style="opacity:1;fill:#000000;fill-opacity:1;stroke:none;stroke-width:0.1;stroke-miterlimit:4;stroke-dasharray:none;stroke-dashoffset:0;stroke-opacity:1"
       d="M 1528.3691,172.53125 C 1520.9724,172.53125 1514.994,178.5407 1514.9941,185.9375 C 1514.9941,185.9375 1514.9941,369.25 1514.9941,369.25 C 1514.9941,376.6468 1520.9723,382.625 1528.3691,382.625 C 1535.7659,382.625 1541.7755,376.64679 1541.7754,369.25 C 1541.7754,369.25 1541.7754,185.9375 1541.7754,185.9375 C 1541.7754,178.5407 1535.7659,172.53125 1528.3691,172.53125 z "
       id="path1336"
       sodipodi:nodetypes="cccsccc" />
    <path
       transform="translate(-1447.8761,534.43891)"
       d="M 4257.8194 252.09859 A 13.4 13.4 0 1 1  4231.0194,252.09859 A 13.4 13.4 0 1 1  4257.8194 252.09859 z"
       sodipodi:ry="13.4"
       sodipodi:rx="13.4"
       sodipodi:cy="252.09859"
       sodipodi:cx="4244.4194"
       id="path1378"
       style="opacity:1;fill:#000000;fill-opacity:1;stroke:none;stroke-width:0.1;stroke-miterlimit:4;stroke-dasharray:none;stroke-dashoffset:0;stroke-opacity:1"
       sodipodi:type="arc" />
    <path
       style="opacity:1;fill:#000000;fill-opacity:1;stroke:none;stroke-width:0.1;stroke-miterlimit:4;stroke-dasharray:none;stroke-dashoffset:0;stroke-opacity:1"
       d="M 591.92544,87.15625 C 584.52876,87.156251 578.55034,93.1657 578.55044,100.5625 C 578.55045,100.5625 578.55044,215.48285 578.55044,293.5 C 531.63769,293.5 421.37005,293.5 421.37005,293.5 C 413.97325,293.5 407.9638,299.50945 407.9638,306.90625 C 407.9638,314.30294 413.97325,320.28135 421.37005,320.28125 C 421.37005,320.28125 531.63769,320.28125 578.55044,320.28125 C 578.55044,435.60015 578.55044,475.26312 578.55044,585.09375 C 531.63769,585.09375 421.37005,585.09375 421.37005,585.09375 C 413.97325,585.09374 407.9638,591.1032 407.9638,598.5 C 407.9638,605.89667 413.97325,611.8751 421.37005,611.875 C 421.37005,611.87499 531.63769,611.875 578.55044,611.875 C 578.55044,678.10051 578.55044,786.40625 578.55044,786.40625 C 578.55046,793.80306 584.52864,799.78125 591.92544,799.78125 C 599.32226,799.78126 605.33179,793.80304 605.33169,786.40625 C 605.33169,786.40625 605.33169,611.875 605.33169,611.875 C 605.33169,611.875 815.12193,611.875 815.12193,611.875 C 815.12193,611.875 815.12193,786.40625 815.12193,786.40625 C 815.12203,793.80306 821.10013,799.78125 828.49693,799.78125 C 835.89383,799.78126 841.90323,793.80304 841.90323,786.40625 C 841.90313,786.40625 841.90323,611.875 841.90323,611.875 C 841.90323,611.875 1006.4013,611.875 1006.4013,611.875 C 1013.7981,611.87497 1019.7763,605.8968 1019.7763,598.5 C 1019.7763,591.10317 1013.7981,585.09365 1006.4013,585.09375 C 1006.4013,585.09375 841.90323,585.09375 841.90323,585.09375 C 841.90323,585.09375 841.90323,320.28125 841.90323,320.28125 C 841.90323,320.28125 1006.4013,320.28125 1006.4013,320.28125 C 1013.7981,320.28124 1019.7763,314.30305 1019.7763,306.90625 C 1019.7763,299.50944 1013.7981,293.4999 1006.4013,293.5 C 1006.4013,293.5 841.90323,293.5 841.90323,293.5 C 841.90323,293.5 841.90323,100.5625 841.90323,100.5625 C 841.90313,93.165701 835.89373,87.15625 828.49693,87.15625 C 821.10033,87.156251 815.12183,93.1657 815.12193,100.5625 C 815.12193,100.5625 815.12193,293.5 815.12193,293.5 C 815.12193,293.5 605.33169,293.5 605.33169,293.5 C 605.33169,293.5 605.33169,100.5625 605.33169,100.5625 C 605.3317,93.165701 599.32224,87.15625 591.92544,87.15625 z M 605.33169,320.28125 C 605.33169,320.28125 815.12193,320.28125 815.12193,320.28125 C 815.12193,320.28125 815.12193,585.09375 815.12193,585.09375 C 815.12193,585.09375 605.33169,585.09375 605.33169,585.09375 C 605.33169,585.09375 605.33169,320.28125 605.33169,320.28125 z "
       id="path1396"
       sodipodi:nodetypes="csccsccccssccsccccssccsccccscccscccccccccc" />
    <path
       sodipodi:nodetypes="cccsccc"
       id="path1407"
       d="M 358.34259,172.53125 C 350.94589,172.53125 344.96749,178.5407 344.96759,185.9375 C 344.96759,185.9375 344.96759,369.25 344.96759,369.25 C 344.96759,376.6468 350.94579,382.625 358.34259,382.625 C 365.73939,382.625 371.74899,376.64679 371.74889,369.25 C 371.74889,369.25 371.74889,185.9375 371.74889,185.9375 C 371.74889,178.5407 365.73939,172.53125 358.34259,172.53125 z "
       style="opacity:1;fill:#000000;fill-opacity:1;stroke:none;stroke-width:0.1;stroke-miterlimit:4;stroke-dasharray:none;stroke-dashoffset:0;stroke-opacity:1" />
    <path
       style="opacity:1;fill:#000000;fill-opacity:1;stroke:none;stroke-width:0.1;stroke-miterlimit:4;stroke-dasharray:none;stroke-dashoffset:0;stroke-opacity:1"
       d="M 153.70696,172.53125 C 146.31026,172.53125 140.33186,178.5407 140.33196,185.9375 C 140.33196,185.9375 140.33196,369.25 140.33196,369.25 C 140.33196,376.6468 146.31016,382.625 153.70696,382.625 C 161.10376,382.625 167.11336,376.64679 167.11326,369.25 C 167.11326,369.25 167.11326,185.9375 167.11326,185.9375 C 167.11326,178.5407 161.10376,172.53125 153.70696,172.53125 z "
       id="path1409"
       sodipodi:nodetypes="cccsccc" />
    <path
       sodipodi:nodetypes="cccsccc"
       id="path1413"
       d="M 2556.3417,589.37302 C 2548.945,589.37302 2542.9666,595.38247 2542.9667,602.77927 C 2542.9667,602.77927 2542.9667,786.09177 2542.9667,786.09177 C 2542.9667,793.48857 2548.9449,799.46677 2556.3417,799.46677 C 2563.7385,799.46677 2569.7481,793.48856 2569.748,786.09177 C 2569.748,786.09177 2569.748,602.77927 2569.748,602.77927 C 2569.748,595.38247 2563.7385,589.37302 2556.3417,589.37302 z "
       style="opacity:1;fill:#000000;fill-opacity:1;stroke:none;stroke-width:0.1;stroke-miterlimit:4;stroke-dasharray:none;stroke-dashoffset:0;stroke-opacity:1" />
    <path
       style="opacity:1;fill:#000000;fill-opacity:1;stroke:none;stroke-width:0.1;stroke-miterlimit:4;stroke-dasharray:none;stroke-dashoffset:0;stroke-opacity:1"
       d="M 2586.2271,561.63353 C 2586.2271,569.03023 2592.2365,575.00863 2599.6333,575.00853 C 2599.6333,575.00853 2793.9552,575.00853 2793.9552,575.00853 C 2801.352,575.00853 2807.3302,569.03033 2807.3302,561.63353 C 2807.3302,554.23673 2801.352,548.22713 2793.9552,548.22723 C 2793.9552,548.22723 2599.6333,548.22723 2599.6333,548.22723 C 2592.2365,548.22723 2586.2271,554.23673 2586.2271,561.63353 z "
       id="path1415"
       sodipodi:nodetypes="cccsccc" />
    <path
       style="opacity:1;fill:#000000;fill-opacity:1;stroke:none;stroke-width:0.1;stroke-miterlimit:4;stroke-dasharray:none;stroke-dashoffset:0;stroke-opacity:1"
       d="M 2363.8116,158.25 C 2356.4147,158.25 2350.4052,164.2282 2350.4053,171.625 C 2350.4054,171.625 2350.4054,284.9154 2350.4053,397.5 C 2237.8552,397.5 2124.5929,397.5 2124.5929,397.5 C 2117.196,397.49999 2111.1866,403.50945 2111.1866,410.90625 C 2111.1866,418.30295 2117.1961,424.28135 2124.5929,424.28125 C 2124.5928,424.28125 2237.8552,424.28125 2350.4053,424.28125 C 2350.4053,536.8314 2350.4053,650.09375 2350.4053,650.09375 C 2350.4054,657.49056 2356.4148,663.5 2363.8116,663.5 C 2371.2082,663.50002 2377.1867,657.49055 2377.1866,650.09375 C 2377.1866,650.09375 2377.1866,536.8314 2377.1866,424.28125 C 2489.7712,424.28125 2603.0616,424.28125 2603.0616,424.28125 C 2610.4584,424.28125 2616.4366,418.30305 2616.4366,410.90625 C 2616.4366,403.50945 2610.4584,397.4999 2603.0616,397.5 C 2603.0616,397.49999 2489.7712,397.5 2377.1866,397.5 C 2377.1866,284.9154 2377.1866,171.625 2377.1866,171.625 C 2377.1865,164.2282 2371.2084,158.25 2363.8116,158.25 z "
       id="path1417" />
    <path
       style="opacity:1;fill:#000000;fill-opacity:1;stroke:none;stroke-width:0.1;stroke-miterlimit:4;stroke-dasharray:none;stroke-dashoffset:0;stroke-opacity:1"
       d="M 1839.8326,6.71875 C 1837.6771,6.7757113 1835.522,7.3442545 1833.5202,8.5 C 1827.1143,12.198385 1824.8842,20.375495 1828.5826,26.78125 C 1828.5826,26.78125 1876.7301,110.14081 1923.7389,191.5625 C 1829.737,191.5625 1733.4889,191.5625 1733.4889,191.5625 C 1726.0922,191.5625 1720.0826,197.57195 1720.0826,204.96875 C 1720.0826,212.36545 1726.0921,218.34385 1733.4889,218.34375 C 1733.489,218.34375 1829.7242,218.34375 1923.7076,218.34375 C 1876.714,299.73916 1828.6139,383.09375 1828.6139,383.09375 C 1824.9155,389.49955 1827.1144,397.70785 1833.5202,401.40625 C 1839.9257,405.10459 1848.1031,402.90586 1851.8014,396.5 C 1851.8014,396.49999 1899.9281,313.1534 1946.9264,231.75 C 1993.9226,313.14984 2042.0514,396.5 2042.0514,396.5 C 2045.7497,402.90581 2053.958,405.10464 2060.3639,401.40625 C 2066.7696,397.70793 2068.9373,389.4995 2065.2389,383.09375 C 2065.2388,383.09376 2017.087,299.75776 1970.0826,218.34375 C 2064.1215,218.34375 2160.3952,218.34375 2160.3952,218.34375 C 2167.792,218.34375 2173.7702,212.36555 2173.7702,204.96875 C 2173.7702,197.57195 2167.7919,191.5624 2160.3952,191.5625 C 2160.3952,191.5625 2064.1343,191.5625 1970.1139,191.5625 C 2017.1202,110.14525 2065.2389,26.78125 2065.2389,26.78125 C 2068.9372,20.375432 2066.7697,12.1984 2060.3639,8.5 C 2053.9582,4.8015999 2045.7497,6.9691329 2042.0514,13.375 C 2042.0514,13.375 1993.9407,96.756395 1946.9264,178.1875 C 1899.914,96.759637 1851.7702,13.40625 1851.7702,13.40625 C 1849.2274,9.0022512 1844.5749,6.5934351 1839.8326,6.71875 z "
       id="path1419" />
    <path
       sodipodi:nodetypes="cccsccc"
       id="path1443"
       d="M 2830.673,794.68359 C 2836.5802,799.13496 2844.9713,797.93354 2849.4228,792.02614 C 2849.4228,792.02614 3352.0677,120.67747 3352.0677,120.67747 C 3356.5193,114.77007 3355.3426,106.39795 3349.4353,101.94641 C 3343.528,97.49487 3335.1305,98.65269 3330.6793,104.56006 C 3330.6793,104.56006 2828.0342,775.90877 2828.0342,775.90877 C 2823.5826,781.81611 2824.7656,790.232 2830.673,794.68359 z "
       style="opacity:1;fill:#000000;fill-opacity:1;stroke:none;stroke-width:0.1;stroke-miterlimit:4;stroke-dasharray:none;stroke-dashoffset:0;stroke-opacity:1" />
    <path
       style="opacity:1;fill:#000000;fill-opacity:1;stroke:none;stroke-width:0.1;stroke-miterlimit:4;stroke-dasharray:none;stroke-dashoffset:0;stroke-opacity:1"
       d="M 5777.469,104.96875 C 5670.8169,104.9687 5601.344,160.7947 5601.344,325.53125 C 5601.3439,325.53123 5600.0003,620.84375 5600.0003,620.84375 C 5601.6633,740.79064 5663.1803,801.33599 5781.6253,801.1875 C 5896.7629,800.67838 5967.2816,752.36391 5967.2816,618.59375 C 5967.2813,471.0077 5896.996,424.80102 5776.1253,434.28125 C 5695.6833,440.59052 5657.0303,450.12065 5630.3753,475.65625 C 5630.3753,475.65624 5629.344,413.83924 5629.344,351.40625 C 5629.3439,213.05813 5665.0361,132.25 5776.719,132.25 C 5876.829,132.25 5939.8128,176.30785 5939.8128,274.21875 C 5939.8128,281.61555 5945.8221,287.62501 5953.219,287.625 C 5960.3739,287.625 5966.1876,281.99937 5966.5628,274.9375 C 5966.5628,143.27505 5867.745,104.96875 5777.469,104.96875 z M 5795.5628,459.03125 C 5897.3199,459.40367 5940.0003,517.9917 5940.0003,620.71875 C 5940.0003,731.2806 5878.4983,773.875 5775.3753,773.875 C 5697.1833,773.87502 5629.8128,762.54624 5629.8128,560.28125 C 5629.8128,476.497 5692.9703,469.13364 5755.3753,461.5625 C 5769.6843,459.8265 5783.0663,458.98551 5795.5628,459.03125 z "
       id="path1467"
       sodipodi:nodetypes="cccccsssccscccssssc" />
    <path
       style="opacity:1;fill:#000000;fill-opacity:1;stroke:none;stroke-width:0.1;stroke-miterlimit:4;stroke-dasharray:none;stroke-dashoffset:0;stroke-opacity:1"
       d="M 3719.853,99.46875 C 3712.4562,99.46875 3706.4468,105.4782 3706.4468,112.875 C 3706.4468,120.2717 3712.4562,126.2501 3719.853,126.25 C 3719.853,126.25 3777.2678,126.25 3796.5718,126.25 C 3796.5717,151.66052 3796.5718,787.0625 3796.5718,787.0625 C 3796.5717,794.45932 3802.55,800.4375 3809.9468,800.4375 C 3817.3435,800.43752 3823.3531,794.45929 3823.353,787.0625 C 3823.353,787.06252 3823.353,113.03125 3823.353,113.03125 C 3823.353,110.25745 3822.5182,107.70236 3821.0718,105.5625 C 3821.0515,105.53134 3821.0297,105.49973 3821.0092,105.46875 C 3820.9884,105.43849 3820.9678,105.40508 3820.9468,105.375 C 3820.7356,105.06142 3820.4954,104.76271 3820.2592,104.46875 C 3820.226,104.42875 3820.1992,104.38336 3820.1655,104.34375 C 3817.714,101.3635 3814.0137,99.468694 3809.853,99.46875 C 3809.853,99.46875 3719.853,99.46875 3719.853,99.46875 z "
       id="path1469" />
    <path
       sodipodi:nodetypes="cccsccc"
       id="path1392"
       d="M 7507.022,588.67117 C 7499.626,588.67117 7493.647,594.68062 7493.647,602.07742 C 7493.647,602.07742 7493.647,785.38992 7493.647,785.38992 C 7493.647,792.78672 7499.626,798.76492 7507.022,798.76492 C 7514.419,798.76492 7520.429,792.78671 7520.429,785.38992 C 7520.429,785.38992 7520.429,602.07742 7520.429,602.07742 C 7520.429,594.68062 7514.419,588.67117 7507.022,588.67117 z "
       style="opacity:1;fill:#000000;fill-opacity:1;stroke:none;stroke-width:0.1;stroke-miterlimit:4;stroke-dasharray:none;stroke-dashoffset:0;stroke-opacity:1" />
    <path
       sodipodi:nodetypes="cccsccc"
       id="path1395"
       d="M 10079.954,180.55672 C 10072.558,180.55672 10066.579,186.56617 10066.579,193.96297 C 10066.579,193.96297 10066.579,377.27547 10066.579,377.27547 C 10066.579,384.67227 10072.557,390.65047 10079.954,390.65047 C 10087.351,390.65047 10093.361,384.67227 10093.361,377.27547 C 10093.361,377.27547 10093.361,193.96297 10093.361,193.96297 C 10093.361,186.56617 10087.351,180.55672 10079.954,180.55672 z "
       style="opacity:1;fill:#000000;fill-opacity:1;stroke:none;stroke-width:0.1;stroke-miterlimit:4;stroke-dasharray:none;stroke-dashoffset:0;stroke-opacity:1" />
    <path
       sodipodi:nodetypes="cccsccc"
       id="path1397"
       d="M 12881.489,146.75711 C 12874.093,146.75711 12868.114,152.76656 12868.114,160.16336 C 12868.114,160.16336 12868.114,784.83231 12868.114,784.83231 C 12868.114,792.22911 12874.093,798.20731 12881.489,798.20731 C 12888.886,798.20731 12894.896,792.2291 12894.896,784.83231 C 12894.896,784.83231 12894.896,160.16336 12894.896,160.16336 C 12894.896,152.76656 12888.886,146.75711 12881.489,146.75711 z "
       style="opacity:1;fill:#000000;fill-opacity:1;stroke:none;stroke-width:0.1;stroke-miterlimit:4;stroke-dasharray:none;stroke-dashoffset:0;stroke-opacity:1" />
    <path
       style="opacity:1;fill:#000000;fill-opacity:1;stroke:none;stroke-width:0.1;stroke-miterlimit:4;stroke-dasharray:none;stroke-dashoffset:0;stroke-opacity:1"
       d="M 12391.754,324.38764 C 12384.358,324.38764 12378.379,330.39709 12378.379,337.79389 C 12378.379,337.79389 12378.379,787.04369 12378.379,787.04369 C 12378.379,794.44049 12384.358,800.41869 12391.754,800.41869 C 12399.151,800.41869 12405.161,794.44048 12405.161,787.04369 C 12405.161,787.04369 12405.161,337.79389 12405.161,337.79389 C 12405.161,330.39709 12399.151,324.38764 12391.754,324.38764 z "
       id="path1399"
       sodipodi:nodetypes="cccsccc" />
    <path
       transform="translate(3261.9115,128.26814)"
       d="M 4257.8194 252.09859 A 13.4 13.4 0 1 1  4231.0194,252.09859 A 13.4 13.4 0 1 1  4257.8194 252.09859 z"
       sodipodi:ry="13.4"
       sodipodi:rx="13.4"
       sodipodi:cy="252.09859"
       sodipodi:cx="4244.4194"
       id="path1373"
       style="opacity:1;fill:#000000;fill-opacity:1;stroke:none;stroke-width:0.1;stroke-miterlimit:4;stroke-dasharray:none;stroke-dashoffset:0;stroke-opacity:1"
       sodipodi:type="arc" />
    <path
       sodipodi:type="arc"
       style="opacity:1;fill:#000000;fill-opacity:1;stroke:none;stroke-width:0.1;stroke-miterlimit:4;stroke-dasharray:none;stroke-dashoffset:0;stroke-opacity:1"
       id="path1402"
       sodipodi:cx="4244.4194"
       sodipodi:cy="252.09859"
       sodipodi:rx="13.4"
       sodipodi:ry="13.4"
       d="M 4257.8194 252.09859 A 13.4 13.4 0 1 1  4231.0194,252.09859 A 13.4 13.4 0 1 1  4257.8194 252.09859 z"
       transform="translate(3183.9935,167.84552)" />
    <path
       transform="translate(3183.9935,394.17864)"
       d="M 4257.8194 252.09859 A 13.4 13.4 0 1 1  4231.0194,252.09859 A 13.4 13.4 0 1 1  4257.8194 252.09859 z"
       sodipodi:ry="13.4"
       sodipodi:rx="13.4"
       sodipodi:cy="252.09859"
       sodipodi:cx="4244.4194"
       id="path1404"
       style="opacity:1;fill:#000000;fill-opacity:1;stroke:none;stroke-width:0.1;stroke-miterlimit:4;stroke-dasharray:none;stroke-dashoffset:0;stroke-opacity:1"
       sodipodi:type="arc" />
    <path
       sodipodi:type="arc"
       style="opacity:1;fill:#000000;fill-opacity:1;stroke:none;stroke-width:0.1;stroke-miterlimit:4;stroke-dasharray:none;stroke-dashoffset:0;stroke-opacity:1"
       id="path1375"
       sodipodi:cx="4244.4194"
       sodipodi:cy="252.09859"
       sodipodi:rx="13.4"
       sodipodi:ry="13.4"
       d="M 4257.8194 252.09859 A 13.4 13.4 0 1 1  4231.0194,252.09859 A 13.4 13.4 0 1 1  4257.8194 252.09859 z"
       transform="translate(8146.805,-107.22863)" />
    <path
       transform="translate(8222.082,-107.22863)"
       d="M 4257.8194 252.09859 A 13.4 13.4 0 1 1  4231.0194,252.09859 A 13.4 13.4 0 1 1  4257.8194 252.09859 z"
       sodipodi:ry="13.4"
       sodipodi:rx="13.4"
       sodipodi:cy="252.09859"
       sodipodi:cx="4244.4194"
       id="path1414"
       style="opacity:1;fill:#000000;fill-opacity:1;stroke:none;stroke-width:0.1;stroke-miterlimit:4;stroke-dasharray:none;stroke-dashoffset:0;stroke-opacity:1"
       sodipodi:type="arc" />
    <path
       sodipodi:nodetypes="cccsccc"
       id="path1426"
       d="M 17196.427,34.076098 C 17189.031,34.076098 17183.052,40.085548 17183.052,47.482348 C 17183.052,47.482348 17183.052,945.72335 17183.052,945.72335 C 17183.052,953.12015 17189.031,959.09835 17196.427,959.09835 C 17203.824,959.09835 17209.834,953.12014 17209.834,945.72335 C 17209.834,945.72335 17209.834,47.482348 17209.834,47.482348 C 17209.834,40.085548 17203.824,34.076098 17196.427,34.076098 z "
       style="opacity:1;fill:#000000;fill-opacity:1;stroke:none;stroke-width:0.1;stroke-miterlimit:4;stroke-dasharray:none;stroke-dashoffset:0;stroke-opacity:1" />
    <path
       style="opacity:1;fill:#000000;fill-opacity:1;stroke:none;stroke-width:0.1;stroke-miterlimit:4;stroke-dasharray:none;stroke-dashoffset:0;stroke-opacity:1"
       d="M 17196.427,34.076098 C 17189.031,34.076098 17183.052,40.085548 17183.052,47.482348 C 17183.052,47.482348 17183.052,945.72335 17183.052,945.72335 C 17183.052,953.12015 17189.031,959.09835 17196.427,959.09835 C 17203.824,959.09835 17209.834,953.12014 17209.834,945.72335 C 17209.834,945.72335 17209.834,47.482348 17209.834,47.482348 C 17209.834,40.085548 17203.824,34.076098 17196.427,34.076098 z "
       id="path1428"
       sodipodi:nodetypes="cccsccc" />
    <path
       sodipodi:nodetypes="cccsccc"
       id="path1430"
       d="M 17253.465,146.25946 C 17246.069,146.25946 17240.09,152.26891 17240.09,159.66571 C 17240.09,159.66571 17240.09,414.5627 17240.09,414.5627 C 17240.09,421.9595 17246.069,427.9377 17253.465,427.9377 C 17260.862,427.9377 17266.872,421.9595 17266.872,414.5627 C 17266.872,414.5627 17266.872,159.66571 17266.872,159.66571 C 17266.872,152.26891 17260.862,146.25946 17253.465,146.25946 z "
       style="opacity:1;fill:#000000;fill-opacity:1;stroke:none;stroke-width:0.1;stroke-miterlimit:4;stroke-dasharray:none;stroke-dashoffset:0;stroke-opacity:1" />
    <path
       style="opacity:1;fill:#000000;fill-opacity:1;stroke:none;stroke-width:0.1;stroke-miterlimit:4;stroke-dasharray:none;stroke-dashoffset:0;stroke-opacity:1"
       d="M 17253.465,516.26791 C 17246.069,516.26791 17240.09,522.27736 17240.09,529.67416 C 17240.09,529.67416 17240.09,784.57115 17240.09,784.57115 C 17240.09,791.96795 17246.069,797.94615 17253.465,797.94615 C 17260.862,797.94615 17266.872,791.96795 17266.872,784.57115 C 17266.872,784.57115 17266.872,529.67416 17266.872,529.67416 C 17266.872,522.27736 17260.862,516.26791 17253.465,516.26791 z "
       id="path1432"
       sodipodi:nodetypes="cccsccc" />
    <path
       style="opacity:1;fill:#000000;fill-opacity:1;stroke:none;stroke-width:0.1;stroke-miterlimit:4;stroke-dasharray:none;stroke-dashoffset:0;stroke-opacity:1"
       d="M 12537.063,130.75 C 12529.666,130.75 12523.687,136.75945 12523.687,144.15625 C 12523.687,144.15625 12523.687,788.84375 12523.687,788.84375 C 12523.687,796.24052 12529.666,802.21875 12537.063,802.21875 C 12544.459,802.21872 12550.469,796.24054 12550.469,788.84375 C 12550.469,788.84374 12550.469,667.38719 12550.469,567.75 C 12563.282,555.69272 12577.682,542.15894 12598.375,522.6875 C 12610.046,537.84076 12807.281,793.9375 12807.281,793.9375 C 12811.756,799.82724 12820.169,800.9732 12826.063,796.5 C 12831.953,792.02776 12833.098,783.61068 12828.625,777.71875 C 12828.625,777.71876 12626.471,515.25836 12617.969,504.21875 C 12707.333,420.12846 12807.687,325.71875 12807.687,325.71875 C 12813.08,320.65522 12813.345,312.20395 12808.281,306.8125 C 12803.217,301.42186 12794.734,301.12411 12789.344,306.1875 C 12789.344,306.18751 12632.178,454.08216 12550.469,530.96875 C 12550.469,345.30409 12550.469,144.15625 12550.469,144.15625 C 12550.469,136.75945 12544.46,130.75 12537.063,130.75 z "
       id="path1442"
       sodipodi:nodetypes="cccssccccsccssccc" />
    <path
       sodipodi:nodetypes="cccscccccsccc"
       id="path1508"
       d="M 13617.017,333.6875 C 13530.555,333.6875 13474.892,382.49642 13474.892,520.25 C 13474.892,520.25 13476.267,786.53125 13476.267,786.53125 C 13476.267,793.92805 13482.277,799.9375 13489.674,799.9375 C 13497.07,799.9375 13503.079,793.92807 13503.08,786.53125 L 13504.174,520.25 C 13504.174,413.39354 13550.703,360.96101 13616.267,360.96101 C 13703.605,360.96101 13746.892,406.4048 13746.892,520.25 C 13746.892,520.25 13746.58,786.53125 13746.58,786.53125 C 13746.58,793.92805 13752.59,799.9375 13759.986,799.9375 C 13767.383,799.9375 13773.392,793.92807 13773.392,786.53125 L 13774.174,520.25 C 13774.174,395.37834 13734.447,333.6875 13617.017,333.6875 z "
       style="stroke:none;fill:#000000;fill-opacity:1" />
    <path
       style="opacity:1;fill:#000000;fill-opacity:1;stroke:none;stroke-width:0.1;stroke-miterlimit:4;stroke-dasharray:none;stroke-dashoffset:0;stroke-opacity:1"
       d="M 12042.149,140.75 C 12034.754,140.75 12028.774,146.75945 12028.774,154.15625 C 12028.775,154.15625 12028.774,323.38393 12028.774,491.03125 C 12028.13,500.29397 12027.805,510.02327 12027.805,520.25 C 12027.806,520.25 12028.371,629.73651 12028.774,707.84375 C 12028.774,724.34949 12028.774,784.84375 12028.774,784.84375 C 12028.774,786.27592 12028.984,787.64479 12029.399,788.9375 C 12030.539,795.18376 12036.014,799.9375 12042.586,799.9375 C 12049.982,799.9375 12055.992,793.92807 12055.993,786.53125 L 12057.086,520.25 C 12057.086,413.39354 12107.616,360.96875 12173.18,360.96875 C 12260.519,360.96876 12305.805,406.4048 12305.805,520.25 C 12305.806,520.25 12305.493,786.53125 12305.493,786.53125 C 12305.492,793.92805 12311.503,799.9375 12318.899,799.9375 C 12326.295,799.9375 12332.305,793.92807 12332.305,786.53125 L 12333.086,520.25 C 12333.086,395.37834 12291.36,333.6875 12173.93,333.6875 C 12122.86,333.6875 12081.153,350.73372 12055.555,393.0625 C 12055.555,280.63115 12055.555,154.15625 12055.555,154.15625 C 12055.555,146.75945 12049.546,140.75 12042.149,140.75 z "
       id="path1517" />
    <path
       d="M 13964.094,325.6875 C 13863.36,325.6875 13809.969,392.55019 13809.969,564.25 C 13809.969,725.61793 13861.1,802.5625 13964.094,802.5625 C 14082.492,802.5625 14133.25,722.30632 14133.25,562 C 14133.25,389.70995 14085.336,325.6875 13964.094,325.6875 z M 13963.344,352.96875 C 14065.07,352.96875 14105.969,406.66254 14105.969,564.125 C 14105.969,690.44782 14066.467,775.28125 13963.344,775.28125 C 13881.895,775.28125 13839.281,706.46172 13839.281,564.125 C 13839.281,410.49646 13877.329,352.96875 13963.344,352.96875 z "
       id="path1526"
       sodipodi:nodetypes="cccccccscc"
       style="stroke:none;fill:#000000;fill-opacity:1" />
    <path
       style="opacity:1;fill:#000000;fill-opacity:1;stroke:none;stroke-width:0.1;stroke-miterlimit:4;stroke-dasharray:none;stroke-dashoffset:0;stroke-opacity:1"
       d="M 14334.429,323.875 C 14233.695,323.87499 14190.305,390.73769 14190.305,562.4375 C 14190.305,562.4375 14191.961,972 14191.961,972 C 14191.96,979.39683 14197.94,985.375 14205.336,985.375 C 14212.732,985.37503 14218.742,979.39679 14218.742,972 C 14218.742,972.00002 14218.742,750.70653 14218.742,750.70653 C 14241.573,778.54197 14279.048,800.75 14334.429,800.75 C 14452.827,800.74999 14493.586,720.49382 14493.586,560.1875 C 14493.585,387.89744 14455.671,323.875 14334.429,323.875 z M 14333.679,351.15625 C 14435.405,351.15624 14466.305,404.85004 14466.305,562.3125 C 14466.304,688.63531 14436.802,773.46876 14333.679,773.46875 C 14237.955,773.46875 14219.617,726.08873 14219.617,596.21554 C 14219.617,417.55548 14247.665,351.15625 14333.679,351.15625 z "
       id="path1531"
       sodipodi:nodetypes="cccsscsccccscc" />
    <path
       sodipodi:nodetypes="cccsscsccccscc"
       id="path1540"
       d="M 10603.84,804.19016 C 10503.106,804.19017 10459.716,737.32747 10459.716,565.62766 C 10459.716,565.62766 10461.372,156.06516 10461.372,156.06516 C 10461.371,148.66833 10467.351,142.69016 10474.747,142.69016 C 10482.143,142.69013 10488.153,148.66837 10488.153,156.06516 C 10488.153,156.06514 10488.153,377.35863 10488.153,377.35863 C 10510.984,349.52319 10548.459,327.31516 10603.84,327.31516 C 10722.238,327.31517 10762.997,407.57134 10762.997,567.87766 C 10762.996,740.16772 10725.082,804.19016 10603.84,804.19016 z M 10603.09,776.90891 C 10704.816,776.90892 10735.716,723.21512 10735.716,565.75266 C 10735.715,439.42985 10706.213,354.5964 10603.09,354.59641 C 10507.366,354.59641 10489.028,401.97643 10489.028,531.84962 C 10489.028,710.50968 10517.076,776.90891 10603.09,776.90891 z "
       style="opacity:1;fill:#000000;fill-opacity:1;stroke:none;stroke-width:0.1;stroke-miterlimit:4;stroke-dasharray:none;stroke-dashoffset:0;stroke-opacity:1" />
    <path
       style="opacity:1;fill:#000000;fill-opacity:1;stroke:none;stroke-width:0.1;stroke-miterlimit:4;stroke-dasharray:none;stroke-dashoffset:0;stroke-opacity:1"
       d="M 10273.188,343.99348 C 10351.938,343.99348 10409.312,407.54794 10409.312,572.55598 C 10409.312,572.55598 10407.656,799.17625 10407.656,799.17625 C 10407.657,806.57308 10401.677,812.55127 10394.281,812.55127 C 10386.885,812.55127 10380.875,806.57304 10380.875,799.17625 C 10380.875,799.17627 10380.875,750.82501 10380.875,750.82501 C 10358.044,778.66045 10328.569,800.86848 10273.188,800.86848 C 10170.008,800.86848 10122.031,710.31282 10122.031,570.30598 C 10122.031,426.77802 10185.779,343.99348 10273.188,343.99348 z M 10273.938,371.27473 C 10200.964,371.27473 10149.312,445.42181 10149.312,572.43098 C 10149.312,691.98389 10187.74,773.58723 10273.938,773.58723 C 10339.395,773.58723 10380,736.20721 10380,606.33402 C 10380,430.65897 10346.412,371.27473 10273.938,371.27473 z "
       id="path1550"
       sodipodi:nodetypes="cccsscsccccscc" />
    <path
       d="M 11594.549,137.59375 C 11530.349,137.59375 11508.767,176.43794 11508.767,293.34375 C 11508.673,311.02497 11508.622,328.76064 11508.58,346.53125 C 11488.309,346.53125 11455.236,346.53125 11455.236,346.53125 C 11447.839,346.53124 11441.83,352.54051 11441.83,359.9375 C 11441.829,367.3335 11447.839,373.3125 11455.236,373.3125 C 11455.236,373.3125 11488.297,373.3125 11508.549,373.3125 C 11508.393,511.17526 11509.455,651.02922 11509.455,787.8125 C 11509.455,795.20926 11515.464,801.21875 11522.861,801.21875 C 11530.256,801.21871 11536.236,795.2093 11536.236,787.8125 L 11536.299,373.3125 C 11597.109,373.3125 11664.392,373.3125 11664.392,373.3125 C 11671.788,373.31249 11677.767,367.33351 11677.767,359.9375 C 11677.767,352.5405 11671.788,346.53125 11664.392,346.53125 C 11664.392,346.53124 11597.109,346.53125 11536.299,346.53125 L 11536.299,293.34375 C 11536.3,196.36499 11543.799,163.09375 11594.673,163.09375 C 11612.458,163.57565 11633.965,163.93799 11648.705,183.0625 C 11651.389,187.07273 11655.264,188.62766 11659.892,189.09375 C 11667.288,189.09375 11673.299,183.08429 11673.299,175.6875 C 11673.299,170.6022 11670.444,166.17627 11666.267,163.90625 C 11645.352,143.43144 11622.391,138.99037 11594.549,137.59375 z "
       id="path1580"
       style="stroke:none;fill:#000000;fill-opacity:1" />
    <path
       d="M 11840.983,323.59375 C 11722.585,323.59376 11679.827,403.84993 11679.827,564.15625 C 11679.827,736.44628 11719.741,800.46875 11840.983,800.46875 C 11894.926,800.46874 11935.125,794.41492 11956.733,765.09375 C 11960.833,857.39796 11928.528,958.5 11836.389,958.5 C 11783.049,958.50002 11737.588,925.91511 11726.014,882.71875 C 11725.052,876.26565 11719.485,871.31249 11712.764,871.3125 C 11705.368,871.31253 11701.204,877.55601 11699.358,884.71875 C 11702.08,928.84496 11754.607,985.78125 11835.639,985.78125 C 11922.101,985.78128 11985.764,936.97233 11985.764,799.21875 C 11985.764,799.21875 11987.108,561.90625 11987.108,561.90625 C 11987.108,400.5383 11943.977,323.59375 11840.983,323.59375 z M 11841.733,350.875 C 11918.898,350.87501 11954.032,412.65218 11957.514,540.1875 L 11957.295,622.46875 C 11957.295,747.58629 11921.399,773.1875 11841.733,773.1875 C 11740.007,773.18748 11707.108,719.49371 11707.108,562.03125 C 11707.108,435.70841 11738.61,350.875 11841.733,350.875 z "
       id="path1591"
       sodipodi:nodetypes="csscccscsccccccssc"
       style="stroke:none;fill:#000000;fill-opacity:1" />
    <path
       style="opacity:1;fill:#000000;fill-opacity:1;stroke:none;stroke-width:0.1;stroke-miterlimit:4;stroke-dasharray:none;stroke-dashoffset:0;stroke-opacity:1"
       d="M 10981.903,323.375 C 10854.202,323.375 10824.867,437.53102 10821.684,561.3125 C 10821.684,729.22096 10895.629,801.125 10981.903,801.125 C 11037.895,801.125 11060.939,775.12985 11071.341,760.90625 C 11074.143,758.44957 11075.934,754.86114 11075.934,750.84375 C 11075.934,743.44696 11069.925,737.46874 11062.528,737.46875 C 11057.527,738.01416 11053.516,739.82668 11050.841,744.3125 C 11039.187,757.8183 11020.347,775 10980.997,775 C 10886.471,775 10854.596,656.54305 10852.153,562.25 C 10854.596,467.95694 10886.471,349.5 10980.997,349.5 C 11020.347,349.49999 11039.187,366.6817 11050.841,380.1875 C 11053.516,384.67331 11057.527,386.48584 11062.528,387.03125 C 11069.925,387.03125 11075.934,381.05304 11075.934,373.65625 C 11075.934,369.63885 11074.143,366.05043 11071.341,363.59375 C 11060.939,349.37014 11037.895,323.375 10981.903,323.375 z "
       id="path1367"
       sodipodi:nodetypes="ccscsccscsccscc" />
    <path
       style="opacity:1;fill:#000000;fill-opacity:1;stroke:none;stroke-width:0.1;stroke-miterlimit:4;stroke-dasharray:none;stroke-dashoffset:0;stroke-opacity:1"
       d="M 7889.341,304.96736 C 7889.341,312.36406 7895.35,318.34246 7902.747,318.34236 C 7902.747,318.34236 8227.544,318.34236 8227.544,318.34236 C 8234.941,318.34236 8240.919,312.36416 8240.919,304.96736 C 8240.919,297.57056 8234.941,291.56096 8227.544,291.56106 C 8227.544,291.56106 7902.747,291.56106 7902.747,291.56106 C 7895.35,291.56106 7889.341,297.57056 7889.341,304.96736 z "
       id="path1406"
       sodipodi:nodetypes="cccsccc" />
    <path
       sodipodi:nodetypes="cccsccc"
       id="path1408"
       d="M 7889.341,541.756 C 7889.341,549.1527 7895.35,555.1311 7902.747,555.131 C 7902.747,555.131 8227.544,555.131 8227.544,555.131 C 8234.941,555.131 8240.919,549.1528 8240.919,541.756 C 8240.919,534.3592 8234.941,528.3496 8227.544,528.3497 C 8227.544,528.3497 7902.747,528.3497 7902.747,528.3497 C 7895.35,528.3497 7889.341,534.3592 7889.341,541.756 z "
       style="opacity:1;fill:#000000;fill-opacity:1;stroke:none;stroke-width:0.1;stroke-miterlimit:4;stroke-dasharray:none;stroke-dashoffset:0;stroke-opacity:1" />
    <path
       sodipodi:nodetypes="cccsccc"
       id="path1410"
       d="M 9635.7995,785.77831 C 9635.7995,793.17501 9641.8085,799.15341 9649.2055,799.15331 C 9649.2055,799.15331 10051.322,799.15331 10051.322,799.15331 C 10058.719,799.15331 10064.697,793.17511 10064.697,785.77831 C 10064.697,778.38151 10058.719,772.37191 10051.322,772.37201 C 10051.322,772.37201 9649.2055,772.37201 9649.2055,772.37201 C 9641.8085,772.37201 9635.7995,778.38151 9635.7995,785.77831 z "
       style="opacity:1;fill:#000000;fill-opacity:1;stroke:none;stroke-width:0.1;stroke-miterlimit:4;stroke-dasharray:none;stroke-dashoffset:0;stroke-opacity:1" />
    <path
       style="opacity:1;fill:#000000;fill-opacity:1;stroke:none;stroke-width:0.1;stroke-miterlimit:4;stroke-dasharray:none;stroke-dashoffset:0;stroke-opacity:1"
       d="M 9397.9335,56.625 C 9393.7725,56.624944 9390.0725,58.519748 9387.6205,61.5 C 9387.5875,61.53961 9387.5605,61.584998 9387.5265,61.625 C 9387.2895,61.91896 9387.0505,62.217668 9386.8395,62.53125 C 9386.8185,62.56133 9386.7975,62.594738 9386.7765,62.625 C 9386.7555,62.65598 9386.7345,62.687588 9386.7145,62.71875 C 9385.2685,64.85861 9384.4335,67.413702 9384.4335,70.1875 C 9384.4335,70.1875 9384.4335,788.625 9384.4335,788.625 C 9384.4335,791.39878 9385.2685,793.95389 9386.7145,796.09375 C 9386.7345,796.12489 9386.7555,796.15652 9386.7765,796.1875 C 9386.7975,796.21774 9386.8185,796.25117 9386.8395,796.28125 C 9387.0505,796.59481 9387.2895,796.89354 9387.5265,797.1875 C 9387.5605,797.22748 9387.5875,797.27289 9387.6205,797.3125 C 9390.0725,800.29273 9393.7725,802.18756 9397.9335,802.1875 C 9397.9335,802.18748 9541.8395,802.1875 9541.8395,802.1875 C 9549.2365,802.18748 9555.2455,796.17805 9555.2455,788.78125 C 9555.2465,781.38453 9549.2365,775.40615 9541.8395,775.40625 C 9541.8395,775.40623 9430.5185,775.40625 9411.2145,775.40625 C 9411.2145,775.40625 9411.2145,83.40625 9411.2145,83.40625 C 9430.5185,83.40625 9541.8395,83.406252 9541.8395,83.40625 C 9549.2365,83.40635 9555.2465,77.427952 9555.2455,70.03125 C 9555.2455,62.63445 9549.2365,56.624998 9541.8395,56.625 C 9541.8395,56.625 9397.9335,56.624998 9397.9335,56.625 z "
       id="path1412"
       sodipodi:nodetypes="csssssccsssssscssccsscc" />
    <path
       style="opacity:1;fill:#000000;fill-opacity:1;stroke:none;stroke-width:0.1;stroke-miterlimit:4;stroke-dasharray:none;stroke-dashoffset:0;stroke-opacity:1"
       d="M 9765.3725,-0.25 C 9762.2915,-0.2550574 9759.2385,0.82456462 9756.7485,2.9375 C 9756.4685,3.1746383 9756.1685,3.3923789 9755.9045,3.65625 C 9755.9045,3.65625 9568.8845,235 9568.8845,235 C 9563.6545,240.23 9563.6535,248.73775 9568.8845,253.96875 C 9574.1145,259.19775 9582.5915,259.1675 9587.8215,253.9375 C 9587.8215,253.9375 9747.5385,49.823696 9765.2165,32.1875 C 9782.6535,49.419358 9948.9545,251.96875 9948.9545,251.96875 C 9954.1845,257.19906 9962.6625,257.19922 9967.8925,251.96875 C 9973.1235,246.73827 9973.1225,238.26158 9967.8925,233.03125 C 9967.8925,233.03125 9779.7805,8.8987475 9776.4045,5.5625 C 9775.9485,4.9020272 9775.4295,4.2755895 9774.8415,3.6875 C 9772.2265,1.072 9768.7995,-0.244375 9765.3725,-0.25 z "
       id="path1424"
       sodipodi:nodetypes="csccscccsccsc" />
    <path
       id="path1431"
       d="M 15323.286,801.21875 C 15259.086,801.21875 15237.504,762.37456 15237.504,645.46875 C 15237.41,627.78753 15237.359,374.98899 15237.317,357.21838 C 15217.046,357.21838 15162.844,357.21838 15162.844,357.21838 C 15155.447,357.21839 15149.438,351.20912 15149.438,343.81213 C 15149.437,336.41613 15155.447,330.43713 15162.844,330.43713 C 15162.844,330.43713 15217.034,330.43713 15237.286,330.43713 C 15237.13,192.57437 15238.192,287.78328 15238.192,151 C 15238.192,143.60324 15244.201,137.59375 15251.598,137.59375 C 15258.993,137.59379 15264.973,143.6032 15264.973,151 L 15265.036,330.43713 C 15325.846,330.43713 15367.472,330.43713 15367.472,330.43713 C 15374.868,330.43714 15380.847,336.41612 15380.847,343.81213 C 15380.847,351.20913 15374.868,357.21838 15367.472,357.21838 C 15367.472,357.21839 15325.846,357.21838 15265.036,357.21838 L 15265.036,645.46875 C 15265.037,742.44751 15272.536,775.71875 15323.41,775.71875 C 15341.195,775.23685 15362.702,774.87451 15377.442,755.75 C 15380.126,751.73977 15384.001,750.18484 15388.629,749.71875 C 15396.025,749.71875 15402.036,755.72821 15402.036,763.125 C 15402.036,768.2103 15399.181,772.63623 15395.004,774.90625 C 15374.089,795.38106 15351.128,799.82213 15323.286,801.21875 z "
       sodipodi:nodetypes="ccccsccsscccsscccccscc"
       style="stroke:none;fill:#000000;fill-opacity:1" />
    <path
       d="M 16193.572,322.46951 C 16186.175,322.46951 16180.165,328.47899 16180.166,335.87576 C 16180.166,335.87576 16178.79,614.15696 16178.79,614.15696 C 16178.79,751.91056 16236.453,800.71956 16322.916,800.71956 C 16386.366,800.71956 16429.127,794.69436 16453.197,758.43826 C 16453.197,919.91673 16416.713,959.87576 16329.009,959.87576 C 16275.668,959.87576 16220.332,936.93168 16202.24,904.07001 C 16201.277,897.61691 16189.726,893.86077 16183.005,899.44702 C 16177.316,904.17518 16175.834,908.53879 16177.978,916.49973 C 16190.348,950.66948 16247.227,987.15687 16328.259,987.15696 C 16455.53,987.15696 16482.384,939.08592 16482.384,746.59456 L 16481.29,335.87576 C 16481.29,328.47896 16475.281,322.46953 16467.884,322.46951 C 16460.488,322.46951 16454.478,328.47899 16454.478,335.87576 C 16454.478,335.87576 16454.79,644.15696 16454.79,644.15696 C 16454.79,758.00216 16409.503,773.43836 16322.166,773.43826 C 16256.602,773.43826 16208.072,721.01336 16208.072,614.15696 L 16206.978,335.87576 C 16206.977,328.47896 16200.968,322.46953 16193.572,322.46951 z "
       id="path1433"
       sodipodi:nodetypes="cccscscscsccsccsccc"
       style="stroke:none;fill:#000000;fill-opacity:1" />
    <path
       sodipodi:nodetypes="csccscccsccsc"
       id="path1439"
       d="M 7574.67,427.83974 C 7574.665,430.92074 7575.745,433.97374 7577.858,436.46374 C 7578.095,436.74374 7578.313,437.04374 7578.577,437.30774 C 7578.577,437.30774 7855.834,796.90286 7855.834,796.90286 C 7861.064,802.13286 7869.572,802.13386 7874.803,796.90286 C 7880.032,791.67286 7880.002,783.19586 7874.772,777.96586 C 7874.772,777.96586 7624.744,445.67374 7607.108,427.99574 C 7624.34,410.55874 7875.97,79.59891 7875.97,79.59891 C 7881.2,74.36891 7881.201,65.89091 7875.97,60.66091 C 7870.74,55.42991 7862.263,55.43091 7857.033,60.66091 C 7857.033,60.66091 7583.819,413.43174 7580.483,416.80774 C 7579.822,417.26374 7579.196,417.78274 7578.608,418.37074 C 7575.992,420.98574 7574.676,424.41274 7574.67,427.83974 z "
       style="opacity:1;fill:#000000;fill-opacity:1;stroke:none;stroke-width:0.1;stroke-miterlimit:4;stroke-dasharray:none;stroke-dashoffset:0;stroke-opacity:1" />
    <path
       d="M 8430.718,82.625 C 8313.316,82.625 8261.094,127.77985 8261.094,214.75 C 8261.094,222.1468 8267.072,228.15626 8274.468,228.15625 C 8281.865,228.15625 8287.906,222.1468 8287.906,214.75 C 8287.906,125.96997 8351.021,104.53125 8430.718,104.53125 C 8537.874,104.53125 8597.468,155.32042 8597.468,258.625 C 8597.468,335.94372 8567.396,370.6875 8484.437,370.6875 C 8392.241,370.6875 8351.562,426.08629 8351.562,530.75 C 8351.562,530.75 8350.687,569.86517 8350.687,571.5625 C 8350.687,578.9593 8356.697,584.96877 8364.094,584.96875 C 8371.49,584.96875 8377.468,578.95929 8377.468,571.5625 L 8378.031,536.9375 C 8378.031,427.01099 8417.39,397.5625 8482.781,397.5625 C 8582.291,397.5625 8623.218,352.35196 8623.218,258.625 C 8623.218,134.18223 8571.266,82.625 8430.718,82.625 z "
       id="path1444"
       sodipodi:nodetypes="cssccsccssccssc"
       style="stroke:none;fill:#000000;fill-opacity:1" />
    <path
       transform="translate(4109.7009,526.59519)"
       d="M 4257.8194 252.09859 A 13.4 13.4 0 1 1  4231.0194,252.09859 A 13.4 13.4 0 1 1  4257.8194 252.09859 z"
       sodipodi:ry="13.4"
       sodipodi:rx="13.4"
       sodipodi:cy="252.09859"
       sodipodi:cx="4244.4194"
       id="path1450"
       style="opacity:1;fill:#000000;fill-opacity:1;stroke:none;stroke-width:0.1;stroke-miterlimit:4;stroke-dasharray:none;stroke-dashoffset:0;stroke-opacity:1"
       sodipodi:type="arc" />
    <path
       d="M 7157.9414,103.5625 C 7042.8038,104.07164 6972.2853,152.38609 6972.2853,286.15625 C 6972.2854,433.74232 7042.5707,479.94898 7163.4414,470.46875 C 7243.8834,464.15947 7282.5364,454.62935 7309.1914,429.09375 C 7309.1914,429.09375 7310.2194,490.89818 7310.2194,553.33117 C 7310.2194,691.67928 7294.5304,772.5 7182.8474,772.5 C 7129.5074,772.50003 7069.1154,751.58091 7043.4192,699.55793 C 7037.6706,689.13764 7028.4349,687.88978 7021.9268,692.60847 C 7012.2093,699.65415 7014.253,705.80606 7019.0316,714.54612 C 7037.8422,758.35688 7101.0654,799.78121 7182.0974,799.78125 C 7288.7494,799.78125 7338.2224,743.9553 7338.2224,579.21875 C 7338.2224,579.21876 7339.5664,283.90625 7339.5664,283.90625 C 7337.9034,163.95938 7276.3864,103.41401 7157.9414,103.5625 z M 7164.1914,130.875 C 7242.3834,130.875 7309.7544,142.20376 7309.7544,344.46875 C 7309.7544,428.25302 7246.5964,435.61636 7184.1914,443.1875 C 7053.3664,459.05948 6999.5665,399.3739 6999.5665,284.03125 C 6999.5664,173.46942 7061.0684,130.875 7164.1914,130.875 z "
       id="path1477"
       sodipodi:nodetypes="ccsccccscscccccscc"
       style="stroke:none;fill:#000000;fill-opacity:1" />
    <path
       id="path1487"
       d="M 6428.0133,117.78329 C 6334.0114,117.78329 5987.7633,117.78329 5987.7633,117.78329 C 5980.3666,117.78329 5974.357,123.79274 5974.357,131.18954 C 5974.357,138.58624 5980.3665,144.56464 5987.7633,144.56454 C 5987.7634,144.56454 6333.9986,144.56454 6427.982,144.56454 C 6427.982,144.56454 5976.6016,787.6407 5976.6016,787.6407 C 5972.9032,794.0465 5975.1021,802.2548 5981.5079,805.9532 C 5987.9134,809.65154 5996.0908,807.45281 5999.7891,801.04695 C 5999.7891,801.04694 6451.2008,157.97079 6451.2008,157.97079 C 6474.8647,127.72048 6458.0086,109.74607 6428.0133,117.78329 z "
       style="opacity:1;fill:#000000;fill-opacity:1;stroke:none;stroke-width:0.1;stroke-miterlimit:4;stroke-dasharray:none;stroke-dashoffset:0;stroke-opacity:1"
       sodipodi:nodetypes="ccssccsscc" />
    <path
       d="M 6637.2596,99.94858 C 6506.8572,99.94858 6458.4001,173.86283 6458.4001,295.10483 C 6458.4001,389.08392 6492.9625,443.9826 6552.8678,454.22983 C 6493.7358,463.81776 6457.8324,520.99761 6457.8324,627.85483 C 6457.8324,752.8066 6508.4392,801.97983 6638.3949,801.97983 C 6771.6591,801.97983 6818.768,748.00431 6818.768,627.85483 C 6818.768,526.45279 6778.9995,471.02763 6720.7525,455.57353 C 6778.2307,446.2207 6819.3357,395.08402 6819.3357,291.10483 C 6819.3357,172.70687 6758.5918,99.94858 6637.2596,99.94858 z M 6638.868,127.22983 C 6734.4788,127.22982 6796.6872,188.73183 6796.6872,291.85483 C 6796.6872,385.43228 6746.5994,439.91733 6638.868,439.91733 C 6522.59,439.91733 6481.0486,381.86983 6481.0486,295.85483 C 6481.0486,194.12883 6519.6883,127.22983 6638.868,127.22983 z M 6638.9626,469.22983 C 6725.4591,461.72317 6796.1195,527.63948 6796.1195,628.60483 C 6796.1195,719.76368 6746.0317,772.66733 6638.3003,772.66733 C 6522.0224,772.66733 6480.481,726.83625 6480.481,628.60483 C 6480.959,501.19769 6556.3174,468.80273 6638.9626,469.22983 z "
       id="path1491"
       sodipodi:nodetypes="cscssscsccssscccscc"
       style="stroke:none;fill:#000000;fill-opacity:1" />
    <path
       style="opacity:1;fill:#000000;fill-opacity:1;stroke:none;stroke-width:0.1;stroke-miterlimit:4;stroke-dasharray:none;stroke-dashoffset:0;stroke-opacity:1"
       d="M 15000.382,323.375 C 14901.772,323.375 14854.163,361.57046 14854.163,447.3125 C 14854.163,563.25425 14928.108,573.125 15014.382,573.125 C 15103.159,574.67048 15128.788,617.84844 15128.788,664.25 C 15126.345,758.5431 15092.471,773 14997.944,773 C 14958.594,773 14900.085,750.9433 14886.101,708.3125 C 14883.425,703.8267 14879.414,702.0142 14874.413,701.4688 C 14867.016,701.4688 14861.007,707.447 14861.007,714.8438 C 14861.007,718.8612 14862.799,722.4497 14865.601,724.9062 C 14874.837,765.925 14941.046,799.125 14997.038,799.125 C 15107.289,799.125 15157.257,781.21449 15157.257,665.1875 C 15157.257,574.13918 15100.813,545.375 14997.038,545.375 C 14904.888,545.375 14884.632,505.62176 14884.632,460.25 C 14884.632,373.9798 14919.958,349.5 14999.476,349.5 C 15059.807,349.5 15085.995,381.6917 15095.32,402.1875 C 15097.994,406.67331 15102.006,408.48584 15107.007,409.03125 C 15114.404,409.03125 15120.413,403.05304 15120.413,395.65625 C 15120.413,391.63885 15118.621,388.05043 15115.82,385.59375 C 15107.747,369.04014 15080.847,323.375 15000.382,323.375 z "
       id="path1496"
       sodipodi:nodetypes="ccccsccscscccsccscc" />
    <path
       style="opacity:1;fill:#000000;fill-opacity:1;stroke:none;stroke-width:0.1;stroke-miterlimit:4;stroke-dasharray:none;stroke-dashoffset:0;stroke-opacity:1"
       d="M 15781.092,320.99887 C 15777.666,320.99117 15774.239,322.29062 15771.624,324.90512 C 15766.393,330.13612 15766.394,338.64387 15771.624,343.87387 C 15771.624,343.87387 15925.436,560.28012 15925.436,560.28012 C 15925.436,560.28012 15771.624,776.71762 15771.624,776.71762 C 15766.394,781.94761 15766.393,790.45537 15771.624,795.68637 C 15776.854,800.91535 15785.331,800.88512 15790.561,795.65512 C 15790.561,795.65511 15941.967,579.90512 15941.967,579.90512 C 15941.967,579.90512 16095.686,793.68637 16095.686,793.68637 C 16100.916,798.91665 16109.394,798.91687 16114.624,793.68637 C 16119.855,788.45585 16119.853,779.97917 16114.624,774.74887 C 16114.624,774.74885 15959.186,560.28012 15959.186,560.28012 C 15959.186,560.28012 16114.624,345.84263 16114.624,345.84262 C 16119.853,340.61232 16119.855,332.13563 16114.624,326.90512 C 16109.394,321.67462 16100.916,321.67483 16095.686,326.90512 C 16095.686,326.90512 15941.967,540.68637 15941.967,540.68637 C 15941.967,540.68637 15790.561,324.93637 15790.561,324.93637 C 15787.946,322.32137 15784.519,321.00657 15781.092,320.99887 z "
       id="path1501"
       sodipodi:nodetypes="cscccssccsscsscccc" />
    <path
       style="opacity:1;fill:#000000;fill-opacity:1;stroke:none;stroke-width:0.1;stroke-miterlimit:4;stroke-dasharray:none;stroke-dashoffset:0;stroke-opacity:1"
       d="M 16572.308,331.40625 C 16564.912,331.40626 16558.902,337.4157 16558.902,344.8125 C 16558.902,352.20921 16564.911,358.1876 16572.308,358.1875 C 16572.309,358.18751 16836.527,358.1875 16836.527,358.1875 C 16836.527,358.18751 16550.84,779.5 16550.84,779.5 C 16547.142,785.90581 16549.341,794.1141 16555.746,797.8125 C 16658.191,799.46634 16764.108,797.75909 16867.527,797.6875 C 16874.924,797.68749 16880.934,791.67805 16880.934,784.28125 C 16880.934,776.88454 16874.924,770.90615 16867.527,770.90625 C 16867.527,770.90624 16591.308,770.90625 16591.308,770.90625 C 16591.309,770.90624 16876.996,349.59375 16876.996,349.59375 C 16880.694,343.18797 16878.495,334.97965 16872.09,331.28125 C 16872.09,331.28125 16572.308,331.40625 16572.308,331.40625 z "
       id="path1515"
       sodipodi:nodetypes="cssccccsscccc" />
    <path
       style="opacity:1;fill:#000000;fill-opacity:1;stroke:none;stroke-width:0.1;stroke-miterlimit:4;stroke-dasharray:none;stroke-dashoffset:0;stroke-opacity:1"
       d="M 17053.684,99.5 C 17029.529,99.561206 17010.997,99.8125 17010.997,99.8125 L 17010.965,99.8125 C 16993.955,99.8125 16982.059,111.77514 16982.059,127.59375 L 16980.497,361.92051 C 16980.497,406.7227 16968.663,437.125 16947.341,437.125 C 16947.34,437.125 16893.059,437.125 16893.059,437.125 C 16885.663,437.125 16879.653,443.13425 16879.653,450.53125 C 16879.654,457.92724 16885.662,463.90625 16893.059,463.90625 C 16893.06,463.90624 16948.091,463.90625 16948.091,463.90625 C 16969.522,463.90625 16981.122,494.82537 16981.122,532.99628 C 16981.122,532.99628 16982.059,769.78125 16982.059,769.78125 C 16982.059,785.55455 16990.424,797.53125 17008.591,797.53125 C 17008.591,797.53125 17129.997,797.1875 17129.997,797.1875 C 17137.394,797.18749 17143.372,791.2085 17143.372,783.8125 C 17143.372,776.41549 17137.394,770.40625 17129.997,770.40625 C 17129.997,770.40628 17029.882,770.40625 17008.841,770.40625 C 17008.841,531.59125 17020.967,472.13409 16975.841,448.6875 C 17022.321,439.12183 17008.841,337.56084 17008.841,127.0625 C 17029.882,127.0625 17129.997,127.0625 17129.997,127.0625 C 17137.394,127.0625 17143.372,121.0835 17143.372,113.6875 C 17143.372,106.2905 17137.394,100.28125 17129.997,100.28125 C 17107.611,99.567675 17077.84,99.438794 17053.684,99.5 z "
       id="path1527"
       sodipodi:nodetypes="cccccscsscccccssccccscc" />
    <path
       transform="translate(10181.132,-107.22863)"
       d="M 4257.8194 252.09859 A 13.4 13.4 0 1 1  4231.0194,252.09859 A 13.4 13.4 0 1 1  4257.8194 252.09859 z"
       sodipodi:ry="13.4"
       sodipodi:rx="13.4"
       sodipodi:cy="252.09859"
       sodipodi:cx="4244.4194"
       id="path2311"
       style="opacity:1;fill:#000000;fill-opacity:1;stroke:none;stroke-width:0.1;stroke-miterlimit:4;stroke-dasharray:none;stroke-dashoffset:0;stroke-opacity:1"
       sodipodi:type="arc" />
    <path
       sodipodi:type="arc"
       style="opacity:1;fill:#000000;fill-opacity:1;stroke:none;stroke-width:0.1;stroke-miterlimit:4;stroke-dasharray:none;stroke-dashoffset:0;stroke-opacity:1"
       id="path2313"
       sodipodi:cx="4244.4194"
       sodipodi:cy="252.09859"
       sodipodi:rx="13.4"
       sodipodi:ry="13.4"
       d="M 4257.8194 252.09859 A 13.4 13.4 0 1 1  4231.0194,252.09859 A 13.4 13.4 0 1 1  4257.8194 252.09859 z"
       transform="translate(10005.034,-107.22863)" />
    <path
       style="opacity:1;fill:#000000;fill-opacity:1;stroke:none;stroke-width:0.1;stroke-miterlimit:4;stroke-dasharray:none;stroke-dashoffset:0;stroke-opacity:1"
       d="M 13870.078,117.1024 C 13865.32,122.77036 13866.079,131.21307 13871.749,135.96611 C 13871.749,135.96611 14059.009,295.81223 14059.009,295.81223 C 14064.676,300.56679 14073.098,299.82861 14077.85,294.165 C 14082.609,288.49617 14081.892,280.05069 14076.225,275.29608 C 14076.225,275.29608 13888.964,115.45074 13888.964,115.45074 C 13883.296,110.69602 13874.829,111.43864 13870.078,117.1024 z "
       id="path2317"
       sodipodi:nodetypes="cccsccc" />
    <path
       style="opacity:1;fill:#000000;fill-opacity:1;stroke:none;stroke-width:0.1;stroke-miterlimit:4;stroke-dasharray:none;stroke-dashoffset:0;stroke-opacity:1"
       d="M 14899.972,119.28125 C 14896.967,119.20064 14893.927,120.10216 14891.378,122.09375 C 14885.547,126.64862 14884.539,135.07825 14889.097,140.90625 C 14889.097,140.90625 14981.459,275.57146 14985.847,281.96875 C 14986.696,284.12402 14988.107,286.09528 14990.065,287.625 C 14992.526,289.54705 14995.454,290.44678 14998.347,290.4375 C 14998.451,290.43716 14998.555,290.44027 14998.659,290.4375 C 15001.552,290.44678 15004.449,289.54705 15006.909,287.625 C 15008.857,286.10348 15010.277,284.14169 15011.128,282 C 15015.472,275.66786 15107.909,140.90625 15107.909,140.90625 C 15112.467,135.07825 15111.459,126.64862 15105.628,122.09375 C 15099.802,117.54154 15091.37,118.57719 15086.815,124.40625 C 15086.815,124.40625 15015.581,228.25968 14998.503,253.15625 C 14981.425,228.25968 14910.191,124.40625 14910.191,124.40625 C 14907.629,121.1274 14903.834,119.3849 14899.972,119.28125 z "
       id="path2321" />
    <path
       style="fill:#000000;fill-opacity:1;stroke:none"
       d="M 14664.897,265.02857 C 14600.392,265.02857 14572.147,229.76237 14572.147,159.68764 C 14572.147,152.29084 14578.157,146.28139 14585.554,146.28139 C 14592.95,146.28139 14598.959,152.29082 14598.96,159.68764 C 14598.96,211.26646 14616.28,237.75506 14664.147,237.75506 C 14711.388,237.75506 14727.46,213.11163 14727.46,159.68764 C 14727.46,152.29084 14733.47,146.28139 14740.866,146.28139 C 14748.263,146.28139 14754.272,152.29082 14754.272,159.68764 C 14754.272,236.07464 14726.627,265.02857 14664.897,265.02857 z "
       id="path2326"
       sodipodi:nodetypes="ccscccscc" />
    <path
       sodipodi:nodetypes="ccscccscc"
       id="path2334"
       d="M 14952.844,860.03293 C 14952.844,795.52793 14988.11,767.28293 15058.185,767.28293 C 15065.582,767.28293 15071.591,773.29293 15071.591,780.68993 C 15071.591,788.08593 15065.582,794.09493 15058.185,794.09593 C 15006.606,794.09593 14980.117,811.41593 14980.117,859.28293 C 14980.117,906.52393 15004.761,922.59593 15058.185,922.59593 C 15065.582,922.59593 15071.591,928.60593 15071.591,936.00193 C 15071.591,943.39893 15065.582,949.40793 15058.185,949.40793 C 14981.798,949.40793 14952.844,921.76293 14952.844,860.03293 z "
       style="fill:#000000;fill-opacity:1;stroke:none" />
    <path
       style="fill:#000000;fill-opacity:1;stroke:none"
       d="M 13563.259,125.63372 C 13511.459,125.63372 13490.54,179.90274 13490.54,249.97747 C 13490.541,257.37428 13496.549,263.38372 13503.946,263.38372 C 13511.343,263.38373 13517.352,257.37429 13517.353,249.97747 C 13517.353,198.39866 13524.169,152.91497 13562.54,152.91497 C 13598.824,152.91497 13598.69,167.46579 13605.04,198.41497 C 13603.986,249.60522 13620.136,288.38372 13674.728,288.38372 C 13723.753,288.38372 13742.103,241.42698 13742.103,165.03997 C 13742.103,157.64315 13736.093,151.63373 13728.696,151.63372 C 13721.301,151.63372 13715.29,157.64318 13715.29,165.03997 C 13715.29,218.46396 13703.792,261.10247 13673.978,261.10247 C 13646.202,261.10247 13641.119,245.15598 13634.572,213.94622 C 13635.229,161.7109 13620.885,125.63372 13563.29,125.63372 L 13563.259,125.63372 z "
       id="path2338"
       sodipodi:nodetypes="ccscsccssssccc" />
    <path
       style="fill:#000000;fill-opacity:1;stroke:none"
       d="M 13202.031 72.40625 C 13147.231 73.359131 13119.475 100.70774 13113.531 154.09375 C 13112.744 155.79948 13112.281 157.68757 13112.281 159.6875 C 13112.281 162.77505 13112.358 165.76639 13112.469 168.71875 C 13112.359 171.66704 13112.281 174.66691 13112.281 177.75 C 13112.281 179.74667 13112.746 181.60892 13113.531 183.3125 C 13119.577 237.67997 13148.236 265.03125 13205.031 265.03125 C 13260.101 265.03125 13288.018 241.95678 13293.406 182.75 C 13294.037 181.19559 13294.406 179.5293 13294.406 177.75 C 13294.406 174.65577 13294.372 171.65855 13294.281 168.71875 C 13294.372 165.77895 13294.406 162.78173 13294.406 159.6875 C 13294.406 157.90669 13294.038 156.21173 13293.406 154.65625 C 13288.011 95.472415 13260.092 72.40625 13205.031 72.40625 C 13204.023 72.40625 13203.021 72.389032 13202.031 72.40625 z M 13204.281 99.65625 C 13248.774 99.656247 13265.628 121.54389 13267.438 168.71875 C 13265.628 215.8936 13248.774 237.74999 13204.281 237.75 C 13159.295 237.75 13141.317 214.35067 13139.312 168.71875 C 13141.316 123.08532 13159.294 99.65625 13204.281 99.65625 z "
       id="path2343" />
  </g>
</svg>
