<?xml version="1.0" encoding="UTF-8" standalone="no"?>
<!-- Created with Inkscape (http://www.inkscape.org/) -->
<svg
   xmlns:dc="http://purl.org/dc/elements/1.1/"
   xmlns:cc="http://web.resource.org/cc/"
   xmlns:rdf="http://www.w3.org/1999/02/22-rdf-syntax-ns#"
   xmlns:svg="http://www.w3.org/2000/svg"
   xmlns="http://www.w3.org/2000/svg"
   xmlns:sodipodi="http://sodipodi.sourceforge.net/DTD/sodipodi-0.dtd"
   xmlns:inkscape="http://www.inkscape.org/namespaces/inkscape"
   width="30000"
   height="1000"
   id="svg1282"
   sodipodi:version="0.32"
   inkscape:version="0.45"
   sodipodi:docname="UbuntuTitle55_regular_sketch.svg"
   sodipodi:docbase="/home/guest/Documents/Trabalhos/UbuntuTitleFont/svg_pesos/UbuntuTitle55_Regular"
   inkscape:output_extension="org.inkscape.output.svg.inkscape"
   sodipodi:modified="true">
  <defs
     id="defs3" />
  <sodipodi:namedview
     inkscape:document-units="px"
     id="base"
     pagecolor="#ffffff"
     bordercolor="#666666"
     borderopacity="1.0"
     inkscape:pageopacity="0.0"
     inkscape:pageshadow="2"
     inkscape:zoom="0.028642369"
     inkscape:cx="16477.199"
     inkscape:cy="-1125.8883"
     inkscape:current-layer="layer1"
     inkscape:window-width="1103"
     inkscape:window-height="651"
     inkscape:window-x="8"
     inkscape:window-y="32"
     showguides="true"
     inkscape:guide-bbox="true">
    <sodipodi:guide
       orientation="horizontal"
       position="200"
       id="guide1331" />
  </sodipodi:namedview>
  <metadata
     id="metadata4">
    <rdf:RDF>
      <cc:Work
         rdf:about="">
        <dc:format>image/svg+xml</dc:format>
        <dc:type
           rdf:resource="http://purl.org/dc/dcmitype/StillImage" />
      </cc:Work>
    </rdf:RDF>
  </metadata>
  <g
     inkscape:label="Layer 1"
     inkscape:groupmode="layer"
     id="layer1">
    <path
       id="grave"
       d="M 20348.11,294.47627 L 20172.897,220.98827 C 20151.995,212.22294 20140.235,197.16961 20137.618,175.82827 C 20135.002,154.49027 20142.222,137.27661 20159.277,124.18727 C 20177.565,111.61461 20196.544,109.45427 20216.217,117.70625 L 20391.43,191.19225 C 20411.101,199.44425 20422.246,214.23992 20424.865,235.57925 C 20427.48,256.91792 20420.26,274.13159 20403.204,287.22025 C 20386.148,300.30892 20367.783,302.72758 20348.11,294.47623 L 20348.11,294.47627 z " />
    <path
       id="asciitilde"
       d="M 19318.132,126.39827 C 19352.362,126.39827 19376.473,130.94627 19390.464,140.04227 C 19404.456,149.13961 19411.452,163.29494 19411.452,182.50827 C 19411.452,183.5003 19411.439,184.83498 19411.413,186.5123 C 19411.339,191.32496 19411.779,194.26263 19412.735,195.32529 C 19413.691,196.38795 19416.729,196.91928 19421.849,196.91928 C 19427.868,196.91928 19431.366,196.30962 19432.343,195.0903 C 19433.319,193.87094 19433.808,190.33194 19433.808,184.4733 C 19434.115,171.13397 19438.871,160.72997 19448.077,153.2613 C 19457.283,145.7933 19469.089,141.68697 19483.497,140.9423 C 19498.178,141.09229 19510.369,146.13662 19520.069,156.0753 C 19529.768,166.0133 19534.911,178.3023 19535.497,192.9423 C 19535.497,264.92697 19499.614,300.9193 19427.849,300.9193 C 19401.085,300.9193 19379.226,295.4113 19362.272,284.3953 C 19345.316,273.37864 19336.839,258.9003 19336.839,240.9603 C 19336.839,235.54364 19336.38,232.4293 19335.462,231.61728 C 19334.544,230.80462 19330.767,230.39829 19324.132,230.39829 C 19318.086,230.39829 19314.561,230.73362 19313.558,231.40427 C 19312.554,232.07427 19312.082,234.39361 19312.144,238.36228 C 19312.163,239.61631 19312.173,240.60732 19312.173,241.3353 C 19311.856,255.08797 19306.571,267.01397 19296.317,277.1133 C 19286.063,287.21264 19274.015,292.61997 19260.173,293.3353 C 19245.493,293.18532 19233.302,288.14099 19223.602,278.2023 C 19213.902,268.2643 19208.758,255.9753 19208.172,241.3353 C 19208.174,202.44064 19216.879,173.56097 19234.29,154.6963 C 19251.7,135.83097 19279.647,126.3983 19318.132,126.3983 L 19318.132,126.39827 z " />
    <path
       id="dieresis"
       d="M 19735.659,160.17327 C 19750.327,157.50726 19763.66,161.50726 19775.659,172.17327 C 19787.659,184.17327 19793.659,198.17327 19793.659,214.17327 L 19793.659,222.17327 C 19793.659,242.17327 19784.992,257.50661 19767.659,268.17327 C 19748.992,278.83994 19730.992,278.83994 19713.659,268.17327 C 19696.327,257.50727 19687.66,242.17394 19687.659,222.17327 L 19687.659,214.17327 C 19687.659,207.50726 19688.992,201.50726 19691.659,196.17327 C 19698.327,174.83994 19712.993,162.83994 19735.659,160.17327 z M 19915.659,164.17327 C 19934.243,164.17327 19947.577,168.83994 19955.659,178.17327 C 19964.992,188.95194 19969.659,202.28527 19969.659,218.17327 L 19969.659,228.17327 C 19969.659,245.95127 19960.992,260.61794 19943.659,272.17327 C 19927.659,282.83994 19910.325,282.83994 19891.659,272.17327 C 19872.992,261.50727 19863.659,246.84061 19863.659,228.17327 L 19863.659,218.17327 C 19863.659,212.07859 19865.659,204.74525 19869.659,196.17327 C 19879.615,174.83994 19894.948,164.17327 19915.659,164.17327 z " />
    <path
       id="caron"
       d="M 20809.618,276.42927 C 20778.567,296.02927 20754.731,308.46294 20738.111,313.73027 C 20721.489,318.99691 20704.927,319.1459 20688.423,314.17723 C 20671.919,309.20791 20649.765,296.97925 20621.962,277.49123 L 20582.212,248.61723 C 20563.885,235.29723 20555.895,217.9429 20558.243,196.55423 C 20560.588,175.1909 20571.557,160.09723 20591.15,151.27323 C 20611.845,143.22323 20630.814,145.46257 20648.056,157.99125 L 20715.275,206.83525 L 20785.025,155.39825 C 20803.273,141.93692 20822.232,139.55126 20841.9,148.24127 C 20861.566,156.93127 20872.65,171.95227 20875.15,193.30427 C 20876.574,215.45027 20868.699,232.85661 20851.525,245.52327 L 20809.618,276.42927 z " />
    <path
       id="breve"
       d="M 21173.131,298.29227 C 21133.585,298.29227 21101.448,286.92027 21076.72,264.17627 C 21051.992,241.43161 21039.628,211.67361 21039.628,174.90227 C 21039.835,160.70027 21044.977,148.69327 21055.054,138.88127 C 21065.13,129.06927 21077.321,123.74294 21091.628,122.90227 C 21106.122,122.96758 21117.933,127.99825 21127.061,137.99427 C 21136.188,147.99094 21141.044,160.29361 21141.629,174.90227 C 21141.629,180.70025 21144.116,185.38158 21149.09,188.94627 C 21154.064,192.51024 21160.077,194.29222 21167.131,194.29222 C 21175.909,194.29222 21182.792,192.4699 21187.779,188.82524 C 21192.766,185.18059 21195.26,180.53959 21195.26,174.90224 C 21195.577,161.14891 21200.863,149.22254 21211.117,139.12314 C 21221.369,129.02454 21233.417,123.61758 21247.26,122.90224 C 21261.939,123.05223 21274.129,128.09623 21283.83,138.03424 C 21293.53,147.97358 21298.674,160.26291 21299.26,174.90224 C 21299.26,213.11691 21288.015,243.23558 21265.527,265.25824 C 21243.04,287.28091 21212.241,298.29224 21173.131,298.29224 L 21173.131,298.29227 z " />
    <path
       id="ogonek"
       d="M 21458.019,837.31307 C 21459.086,797.78181 21471.323,765.96344 21494.728,741.85797 C 21518.133,717.75284 21548.213,706.19727 21584.97,707.19127 C 21599.161,707.78127 21611.025,713.24504 21620.562,723.58257 C 21630.097,733.91984 21635.092,746.25091 21635.548,760.57577 C 21635.091,775.06144 21629.742,786.73167 21619.503,795.58647 C 21609.264,804.44134 21596.835,808.96381 21582.216,809.15387 C 21576.419,808.99697 21571.672,811.35667 21567.974,816.23297 C 21564.276,821.10863 21562.332,827.07216 21562.142,834.12357 C 21561.906,842.89964 21563.542,849.82901 21567.05,854.91167 C 21570.559,859.99501 21575.132,862.61284 21580.767,862.76517 C 21594.506,863.45397 21606.286,869.05944 21616.105,879.58157 C 21625.922,890.10437 21631.002,902.29384 21631.345,916.14997 C 21630.798,930.82217 21625.427,942.87194 21615.23,952.29927 C 21605.033,961.72794 21592.609,966.53727 21577.958,966.72727 C 21539.757,965.6946 21509.953,953.6416 21488.546,930.56827 C 21467.138,907.49447 21456.963,876.40941 21458.019,837.31307 L 21458.019,837.31307 z " />
    <path
       id="hungarumlaut"
       d="M 19074.118,201.87427 L 18908.979,295.83927 C 18889.28,307.04994 18870.178,307.18062 18851.675,296.2313 C 18833.174,285.28264 18823.942,269.05863 18823.979,247.5593 C 18825.178,225.39997 18835.049,209.0453 18853.591,198.4953 L 19018.727,104.5303 C 19037.269,93.980302 19055.792,94.1793 19074.296,105.12729 C 19092.797,116.07662 19102.028,132.30095 19101.989,153.80029 C 19101.95,175.29895 19092.659,191.32362 19074.118,201.87429 L 19074.118,201.87427 z M 18827.128,201.87427 L 18661.989,295.83927 C 18642.29,307.04994 18623.188,307.18062 18604.684,296.2313 C 18586.183,285.28264 18576.951,269.05863 18576.989,247.5593 C 18578.188,225.39997 18588.059,209.0453 18606.6,198.4953 L 18771.737,104.5303 C 18790.279,93.980302 18808.802,94.1793 18827.305,105.12729 C 18845.806,116.07662 18855.038,132.30095 18854.999,153.80029 C 18854.96,175.29895 18845.669,191.32362 18827.128,201.87429 L 18827.128,201.87427 z " />
    <path
       id="dotaccent"
       d="M 23001.054,160.17327 C 23015.722,157.50726 23029.055,161.50726 23041.054,172.17327 C 23053.054,184.17327 23059.054,198.17327 23059.054,214.17327 L 23059.054,222.17327 C 23059.054,242.17327 23050.387,257.50661 23033.054,268.17327 C 23014.387,278.83994 22996.387,278.83994 22979.054,268.17327 C 22961.722,257.50727 22953.055,242.17394 22953.054,222.17327 L 22953.054,214.17327 C 22953.054,207.50726 22954.387,201.50726 22957.054,196.17327 C 22963.722,174.83994 22978.388,162.83994 23001.054,160.17327 z " />
    <path
       id="exclam"
       d="M 261.34054,800.24448 C 240.00724,797.57782 225.34054,785.57782 217.34054,764.24448 C 216.00724,758.91115 215.34054,752.91115 215.34054,746.24448 L 215.34054,740.24448 C 215.34054,718.91115 224.00724,702.91115 241.34054,692.24448 C 260.00724,681.57782 278.00724,681.57782 295.34054,692.24448 C 312.67384,702.91115 321.34054,718.91115 321.34054,740.24448 L 321.34054,746.24448 C 321.34054,762.24448 315.34054,775.57782 303.34054,786.24448 C 292.67384,796.91115 278.67384,801.57782 261.34054,800.24448 z M 267.34054,608.24448 C 246.00724,606.91115 230.00724,596.91115 219.34054,578.24448 C 216.67384,568.91115 215.34054,560.91115 215.34054,554.24448 L 215.34054,186.24448 C 215.34054,166.24448 224.00724,150.91115 241.34054,140.24448 C 260.00724,129.57782 278.00724,129.57782 295.34054,140.24448 C 312.67384,150.91115 321.34054,166.24448 321.34054,186.24448 L 321.34054,554.24448 C 321.34054,570.24448 316.67384,582.91115 307.34054,592.24448 C 296.67384,602.91115 283.34054,608.24448 267.34054,608.24448 z " />
    <path
       id="quotedbl"
       d="M 656.88254,180.24448 C 671.54914,178.91115 684.88254,184.24448 696.88254,196.24448 C 708.88254,206.91115 714.21584,220.24448 712.88254,236.24448 L 712.88254,334.24448 C 712.88254,354.24448 703.54914,370.24448 684.88254,382.24448 C 666.21584,394.24448 647.54914,394.24448 628.88254,382.24448 C 610.21584,370.24448 600.88254,354.24448 600.88254,334.24448 L 600.88254,236.24448 C 600.88254,220.24448 606.21584,206.91115 616.88254,196.24448 C 627.54914,185.57782 640.88254,180.24448 656.88254,180.24448 z M 450.88254,180.24448 C 466.88254,178.91115 480.21584,184.24448 490.88254,196.24448 C 502.88254,206.91115 508.21584,220.24448 506.88254,236.24448 L 506.88254,334.24448 C 506.88254,354.24448 497.54914,370.24448 478.88254,382.24448 C 460.21584,394.24448 442.21584,394.24448 424.88254,382.24448 C 404.88254,370.24448 394.88254,354.24448 394.88254,334.24448 L 394.88254,236.24448 C 394.88254,220.24448 400.21584,206.91115 410.88254,196.24448 C 421.54914,185.57782 434.88254,180.24448 450.88254,180.24448 z " />
    <path
       id="numbersign"
       d="M 992.86014,90.244485 C 970.19344,92.911151 954.86014,105.57782 946.86014,128.24448 C 944.19344,133.57782 942.86014,139.57782 942.86014,146.24448 L 942.86014,250.24448 L 854.86014,250.24448 C 832.19344,250.24448 815.52674,259.57782 804.86014,278.24448 C 794.19344,296.91115 794.19344,315.57782 804.86014,334.24448 C 815.52674,354.24448 832.19344,362.91115 854.86014,360.24448 L 942.86014,360.24448 L 942.86014,542.24448 L 854.86014,542.24448 C 832.19344,542.24448 815.52674,551.57782 804.86014,570.24448 C 794.19344,588.91115 794.19344,607.57782 804.86014,626.24448 C 815.52674,644.91115 832.19344,654.24448 854.86014,654.24448 L 942.86014,654.24448 L 942.86014,744.24448 C 942.86014,765.57782 952.86014,782.24448 972.86014,794.24448 C 990.19344,803.57782 1008.1934,803.57782 1026.8601,794.24448 C 1046.8601,782.24448 1056.8601,765.57782 1056.8601,744.24448 L 1056.8601,654.24448 L 1236.8601,654.24448 L 1236.8601,744.24448 C 1235.5267,765.57782 1244.8601,782.24448 1264.8601,794.24448 C 1283.5267,803.57782 1301.5267,803.57782 1318.8601,794.24448 C 1338.8601,782.24448 1348.8601,765.57782 1348.8601,744.24448 L 1348.8601,654.24448 L 1438.8601,654.24448 C 1460.1934,654.24448 1476.1934,644.91115 1486.8601,626.24448 C 1497.5267,607.57782 1497.5267,588.91115 1486.8601,570.24448 C 1476.1934,551.57782 1460.1934,542.24448 1438.8601,542.24448 L 1348.8601,542.24448 L 1348.8601,360.24448 L 1438.8601,360.24448 C 1460.1934,362.91115 1476.1934,354.24448 1486.8601,334.24448 C 1497.5267,315.57782 1497.5267,296.91115 1486.8601,278.24448 C 1476.1934,259.57782 1460.1934,250.24448 1438.8601,250.24448 L 1348.8601,250.24448 L 1348.8601,146.24448 C 1348.8601,126.24448 1338.8601,110.24448 1318.8601,98.244485 C 1301.5267,86.244485 1283.5267,86.244485 1264.8601,98.244485 C 1244.8601,110.24448 1235.5267,126.24448 1236.8601,146.24448 L 1236.8601,250.24448 L 1056.8601,250.24448 L 1056.8601,146.24448 C 1056.8601,128.91115 1050.8601,114.91115 1038.8601,104.24448 C 1025.5267,93.577818 1010.1934,88.911151 992.86014,90.244485 z M 1056.8601,360.24448 L 1236.8601,360.24448 L 1236.8601,542.24448 L 1056.8601,542.24448 L 1056.8601,360.24448 z " />
    <path
       id="dollar"
       d="M 1829.3866,104.24448 C 1814.72,104.24448 1802.0533,110.24448 1791.3866,122.24448 C 1780.72,132.91115 1775.3866,146.24448 1775.3866,162.24448 L 1775.3866,204.24448 L 1733.3866,204.24448 L 1699.3866,208.24448 C 1684.72,210.91115 1671.3866,214.91115 1659.3866,220.24448 C 1627.3866,236.24448 1604.72,263.57782 1591.3866,302.24448 C 1583.3866,319.57782 1579.3866,337.57782 1579.3866,356.24448 C 1579.3866,405.57782 1598.72,445.57782 1637.3866,476.24448 C 1645.3866,481.57782 1652.72,486.91115 1659.3866,492.24448 C 1684.72,504.24448 1709.3866,509.57782 1733.3866,508.24448 L 1775.3866,508.24448 L 1775.3866,592.24448 L 1649.3866,592.24448 C 1626.72,592.24448 1610.0533,601.57782 1599.3866,620.24448 C 1588.72,638.91115 1588.72,657.57782 1599.3866,676.24448 C 1610.0533,694.91115 1626.72,704.24448 1649.3866,704.24448 L 1775.3866,704.24448 L 1775.3866,744.24448 C 1775.3866,766.91115 1784.72,784.24448 1803.3866,796.24448 C 1822.0533,806.91115 1840.72,806.91115 1859.3866,796.24448 C 1878.0533,784.24448 1887.3866,766.91115 1887.3866,744.24448 L 1887.3866,704.24448 L 1927.3866,704.24448 L 1963.3866,700.24448 C 1976.72,697.57782 1990.0533,692.91115 2003.3866,686.24448 C 2035.3866,668.91115 2058.0533,641.57782 2071.3866,604.24448 C 2079.3866,588.24448 2083.3866,570.91115 2083.3866,552.24448 C 2083.3866,501.57782 2064.0533,461.57782 2025.3866,432.24448 C 2017.3866,424.24448 2010.0533,418.91115 2003.3866,416.24448 C 1976.72,402.91115 1951.3866,396.91115 1927.3866,398.24448 L 1887.3866,398.24448 L 1887.3866,316.24448 L 2001.3866,316.24448 C 2021.3866,316.24448 2038.0533,306.91115 2051.3866,288.24448 C 2062.0533,269.57782 2062.0533,250.91115 2051.3866,232.24448 C 2038.0533,213.57782 2021.3866,204.24448 2001.3866,204.24448 L 1887.3866,204.24448 L 1887.3866,162.24448 C 1887.3866,146.24448 1882.0533,132.24448 1871.3866,120.24448 C 1859.3866,109.57782 1845.3866,104.24448 1829.3866,104.24448 z M 1733.3866,316.24448 L 1775.3866,316.24448 L 1775.3866,398.24448 L 1733.3866,398.24448 C 1732.0533,396.91115 1724.72,394.91115 1711.3866,392.24448 C 1700.72,386.91115 1695.3866,382.91115 1695.3866,380.24448 C 1692.72,374.91115 1691.3866,366.91115 1691.3866,356.24448 C 1691.3866,338.91115 1695.3866,328.24448 1703.3866,324.24448 C 1688.72,332.24448 1691.3866,330.91115 1711.3866,320.24448 C 1718.0533,317.57782 1725.3866,316.24448 1733.3866,316.24448 z M 1887.3866,508.24448 L 1927.3866,508.24448 L 1949.3866,514.24448 L 1951.3866,516.24448 C 1960.72,518.91115 1966.0533,522.91115 1967.3866,528.24448 C 1970.0533,533.57782 1971.3866,541.57782 1971.3866,552.24448 C 1971.3866,569.57782 1967.3866,580.24448 1959.3866,584.24448 L 1951.3866,584.24448 C 1944.72,589.57782 1936.72,592.24448 1927.3866,592.24448 L 1887.3866,592.24448 L 1887.3866,508.24448 z " />
    <path
       id="quotesingle"
       d="M 2203.52,172.24448 C 2219.52,170.91115 2233.52,175.57782 2245.52,186.24448 C 2256.1866,198.24448 2260.8533,212.24448 2259.52,228.24448 L 2259.52,324.24448 C 2259.52,346.91115 2250.1866,363.57782 2231.52,374.24448 C 2214.1866,386.24448 2195.52,386.24448 2175.52,374.24448 C 2156.8533,363.57782 2147.52,346.91115 2147.52,324.24448 L 2147.52,228.24448 C 2147.52,212.24448 2153.52,198.91115 2165.52,188.24448 C 2174.8533,177.57782 2187.52,172.24448 2203.52,172.24448 z " />
    <path
       id="parenleft"
       d="M 2497.6539,100.24448 C 2521.6539,97.577818 2540.3209,106.24448 2553.6539,126.24448 C 2553.6539,127.57782 2554.9879,129.57782 2557.6539,132.24448 C 2566.9879,154.91115 2563.6539,174.91115 2547.6539,192.24448 C 2546.3209,194.91115 2545.6539,196.91115 2545.6539,198.24448 L 2525.6539,222.24448 C 2518.9879,231.57782 2512.3209,242.91115 2505.6539,256.24448 C 2478.9879,312.24448 2465.6539,376.91115 2465.6539,450.24448 C 2465.6539,520.91115 2478.9879,584.24448 2505.6539,640.24448 C 2518.9879,669.57782 2532.3209,689.57782 2545.6539,700.24448 C 2560.3209,716.24448 2565.6539,734.91115 2561.6539,756.24448 C 2556.3209,777.57782 2542.9879,791.57782 2521.6539,798.24448 C 2497.6539,802.24448 2478.9879,796.24448 2465.6539,780.24448 L 2437.6539,744.24448 C 2425.6539,728.24448 2414.9879,710.91115 2405.6539,692.24448 C 2369.6539,620.24448 2351.6539,539.57782 2351.6539,450.24448 C 2351.6539,359.57782 2369.6539,277.57782 2405.6539,204.24448 C 2424.3209,168.24448 2444.3209,140.24448 2465.6539,120.24448 C 2473.6539,108.24448 2484.3209,101.57782 2497.6539,100.24448 z " />
    <path
       id="asterisk"
       d="M 2919.6537,2.24448 C 2940.9877,0.91115 2957.6537,10.24448 2969.6537,30.24448 C 2980.3207,47.57782 2980.3207,65.57782 2969.6537,84.24448 L 2935.6537,148.24448 L 3009.6537,148.24448 C 3032.3207,148.24448 3048.9877,158.24448 3059.6537,178.24448 C 3070.3207,195.57782 3070.3207,213.57782 3059.6537,232.24448 C 3048.9877,252.24448 3032.3207,261.57782 3009.6537,260.24448 L 2937.6537,260.24448 L 2977.6537,324.24448 C 2990.9877,345.57782 2990.9877,366.91115 2977.6537,388.24448 C 2972.3207,393.57782 2966.3207,398.24448 2959.6537,402.24448 C 2939.6537,414.24448 2918.9877,413.57782 2897.6537,400.24448 C 2892.3207,394.91115 2886.9877,388.91115 2881.6537,382.24448 L 2843.6537,322.24448 L 2809.6537,386.24448 C 2798.9877,408.91115 2780.9877,418.91115 2755.6537,416.24448 C 2748.9877,416.24448 2741.6537,414.24448 2733.6537,410.24448 C 2712.3207,398.24448 2702.9877,380.24448 2705.6537,356.24448 C 2705.6537,348.24448 2706.9877,340.91115 2709.6537,334.24448 L 2749.6537,260.24448 L 2669.6537,260.24448 C 2648.3207,261.57782 2632.3207,252.24448 2621.6537,232.24448 C 2610.9877,213.57782 2610.9877,195.57782 2621.6537,178.24448 C 2632.3207,158.24448 2648.3207,148.24448 2669.6537,148.24448 L 2735.6537,148.24448 L 2701.6537,96.244485 C 2688.3207,73.57782 2689.6537,52.24448 2705.6537,32.24448 C 2708.3207,25.57782 2712.9877,20.24448 2719.6537,16.24448 C 2742.3207,5.57782 2762.9877,6.91115 2781.6537,20.24448 C 2788.3207,22.91115 2793.6537,28.24448 2797.6537,36.24448 L 2833.6537,98.244485 L 2871.6537,34.24448 C 2880.9877,12.91115 2896.9877,2.24448 2919.6537,2.24448 z " />
    <path
       id="plus"
       d="M 3327.0075,158.24448 C 3343.0075,158.24448 3357.0075,164.24448 3369.0075,176.24448 C 3379.6741,186.91115 3385.0075,200.24448 3385.0075,216.24448 L 3385.0075,354.24448 L 3523.0075,354.24448 C 3543.0075,354.24448 3559.0075,362.91115 3571.0075,380.24448 C 3583.0075,400.24448 3583.0075,419.57782 3571.0075,438.24448 C 3559.0075,456.91115 3543.0075,466.24448 3523.0075,466.24448 L 3385.0075,466.24448 L 3385.0075,604.24448 C 3385.0075,625.57782 3375.6741,642.24448 3357.0075,654.24448 C 3338.3408,664.91115 3319.0075,664.91115 3299.0075,654.24448 C 3280.3408,642.24448 3271.0075,625.57782 3271.0075,604.24448 L 3271.0075,466.24448 L 3133.0075,466.24448 C 3111.6741,466.24448 3095.6741,456.91115 3085.0075,438.24448 C 3074.3408,419.57782 3074.3408,400.24448 3085.0075,380.24448 C 3095.6741,362.91115 3111.6741,354.24448 3133.0075,354.24448 L 3271.0075,354.24448 L 3271.0075,216.24448 C 3271.0075,200.24448 3277.0075,186.91115 3289.0075,176.24448 C 3298.3408,164.24448 3311.0075,158.24448 3327.0075,158.24448 z " />
    <path
       id="comma"
       d="M 3519.7336,588.24448 C 3534.4003,588.24448 3547.7336,593.57782 3559.7336,604.24448 C 3570.4003,616.24448 3575.7336,630.24448 3575.7336,646.24448 L 3575.7336,744.24448 C 3575.7336,765.57782 3566.4003,781.57782 3547.7336,792.24448 C 3529.0669,802.91115 3509.7336,802.91115 3489.7336,792.24448 C 3471.0669,781.57782 3461.7336,765.57782 3461.7336,744.24448 L 3461.7336,646.24448 C 3461.7336,630.24448 3467.7336,616.24448 3479.7336,604.24448 C 3489.0669,593.57782 3502.4003,588.24448 3519.7336,588.24448 z " />
    <path
       id="hyphen"
       d="M 3874.6726,616.24448 L 3684.6726,616.24448 C 3662.0059,616.24448 3645.3392,606.91115 3634.6726,588.24448 C 3624.0059,569.57782 3624.0059,550.91115 3634.6726,532.24448 C 3646.6726,513.57782 3663.3392,504.24448 3684.6726,504.24448 L 3874.6726,504.24448 C 3896.0059,504.24448 3912.0059,513.57782 3922.6726,532.24448 C 3933.3392,550.91115 3933.3392,569.57782 3922.6726,588.24448 C 3912.0059,606.91115 3896.0059,616.24448 3874.6726,616.24448 z " />
    <path
       id="period"
       d="M 3777.8931,800.24448 C 3756.5598,797.57782 3741.8931,785.57782 3733.8931,764.24448 C 3732.5598,758.91115 3731.8931,752.91115 3731.8931,746.24448 L 3731.8931,740.24448 C 3731.8931,718.91115 3740.5598,702.91115 3757.8931,692.24448 C 3776.5598,681.57782 3794.5598,681.57782 3811.8931,692.24448 C 3829.2264,702.91115 3837.8931,718.91115 3837.8931,740.24448 L 3837.8931,746.24448 C 3837.8931,763.57782 3831.8931,777.57782 3819.8931,788.24448 C 3807.8931,797.57782 3793.8931,801.57782 3777.8931,800.24448 z " />
    <path
       id="slash"
       d="M 4394.0256,100.24448 C 4416.6926,98.911151 4434.0256,108.91115 4446.0256,130.24448 C 4458.0256,151.57782 4456.6926,171.57782 4442.0256,190.24448 L 4004.0256,776.24448 C 3989.3596,794.91115 3970.0256,801.57782 3946.0256,796.24448 C 3938.0256,794.91115 3931.3596,791.57782 3926.0256,786.24448 C 3904.6926,771.57782 3896.6926,752.24448 3902.0256,728.24448 C 3904.6926,721.57782 3908.6926,714.91115 3914.0256,708.24448 L 4352.0256,124.24448 C 4362.6926,109.57782 4376.6926,101.57782 4394.0256,100.24448 z " />
    <path
       id="zero"
       d="M 4788.9303,104.24448 C 4732.9303,104.24448 4682.9303,120.91115 4638.9303,154.24448 C 4560.2633,212.91115 4520.9303,312.24448 4520.9303,452.24448 C 4518.2633,590.91115 4554.2633,689.57782 4628.9303,748.24448 C 4671.5973,782.91115 4724.9303,800.24448 4788.9303,800.24448 C 4844.9303,800.24448 4894.2643,784.24448 4936.9303,752.24448 C 5016.9303,693.57782 5056.9303,594.24448 5056.9303,454.24448 C 5056.9303,318.24448 5020.9303,220.24448 4948.9303,160.24448 L 4936.9303,152.24448 C 4894.2643,120.24448 4844.9303,104.24448 4788.9303,104.24448 z M 4788.9303,688.24448 C 4682.2633,688.24448 4630.2633,610.24448 4632.9303,454.24448 C 4632.9303,350.24448 4656.9303,280.24448 4704.9303,244.24448 C 4728.9303,225.57782 4756.9303,216.24448 4788.9303,216.24448 C 4820.9303,216.24448 4848.2643,224.91115 4870.9303,242.24448 C 4920.2643,278.24448 4944.9303,348.91115 4944.9303,454.24448 C 4944.9303,556.91115 4920.2643,626.91115 4870.9303,664.24448 C 4848.2643,680.24448 4820.9303,688.24448 4788.9303,688.24448 z " />
    <path
       id="one"
       d="M 5294.4572,132.24448 C 5309.1242,132.24448 5321.7912,137.57782 5332.4572,148.24448 C 5343.1242,158.91115 5348.4572,171.57782 5348.4572,186.24448 L 5348.4572,744.24448 C 5348.4572,765.57782 5339.1242,781.57782 5320.4572,792.24448 C 5303.1242,802.91115 5285.7912,802.91115 5268.4572,792.24448 C 5249.7912,781.57782 5241.1242,765.57782 5242.4572,744.24448 L 5242.4572,240.24448 L 5206.4572,240.24448 C 5186.4572,240.24448 5171.1242,231.57782 5160.4572,214.24448 C 5149.7912,195.57782 5149.7912,177.57782 5160.4572,160.24448 C 5169.7912,142.91115 5185.1242,134.24448 5206.4572,134.24448 L 5294.4572,132.24448 z " />
    <path
       id="two"
       d="M 5848.1091,328.24448 C 5848.1091,250.91115 5817.4431,212.24448 5756.1091,212.24448 L 5636.1091,212.24448 C 5621.4431,212.24448 5609.4431,214.91115 5600.1091,220.24448 C 5597.4431,222.91115 5596.1091,225.57782 5596.1091,228.24448 C 5596.1091,250.91115 5586.7761,267.57782 5568.1091,278.24448 C 5548.1091,290.24448 5529.4431,290.24448 5512.1091,278.24448 C 5493.4431,267.57782 5484.1091,250.91115 5484.1091,228.24448 C 5485.4431,185.57782 5502.7761,152.24448 5536.1091,128.24448 C 5564.1091,109.57782 5597.4431,100.24448 5636.1091,100.24448 L 5756.1091,100.24448 C 5812.1091,100.24448 5859.4431,118.91115 5898.1091,156.24448 C 5939.4431,197.57782 5960.1091,254.91115 5960.1091,328.24448 C 5960.1091,402.91115 5935.4431,460.24448 5886.1091,500.24448 C 5844.7761,534.91115 5785.4431,552.24448 5708.1091,552.24448 C 5662.7761,552.24448 5632.1091,560.24448 5616.1091,576.24448 C 5602.7761,586.91115 5596.1091,608.91115 5596.1091,642.24448 L 5596.1091,684.24448 L 5904.1091,684.24448 C 5925.4431,684.24448 5941.4431,693.57782 5952.1091,712.24448 C 5962.7761,730.91115 5962.7761,749.57782 5952.1091,768.24448 C 5941.4431,786.91115 5925.4431,796.24448 5904.1091,796.24448 L 5538.1091,796.24448 C 5515.4431,796.24448 5498.7761,785.57782 5488.1091,764.24448 C 5485.4431,756.24448 5484.1091,748.24448 5484.1091,740.24448 L 5484.1091,642.24448 C 5484.1091,576.91115 5502.7761,526.91115 5540.1091,492.24448 C 5577.4431,457.57782 5633.4431,440.24448 5708.1091,440.24448 C 5757.4431,440.24448 5793.4431,431.57782 5816.1091,414.24448 C 5837.4431,396.91115 5848.1091,368.24448 5848.1091,328.24448 z " />
    <path
       id="three"
       d="M 6179.1543,668.24448 C 6196.4873,680.24448 6218.4873,686.24448 6245.1543,686.24448 L 6343.1543,688.24448 C 6368.4873,688.24448 6388.4873,680.24448 6403.1543,664.24448 C 6423.1543,645.57782 6433.1543,616.24448 6433.1543,576.24448 C 6433.1543,554.91115 6430.4873,539.57782 6425.1543,530.24448 C 6423.8203,526.24448 6420.4873,522.91115 6415.1543,520.24448 C 6403.1543,516.24448 6362.4873,514.24448 6293.1543,514.24448 C 6269.1543,514.24448 6253.1543,501.57782 6245.1543,476.24448 C 6239.8203,450.91115 6244.4873,430.91115 6259.1543,416.24448 C 6267.1543,405.57782 6278.4873,400.24448 6293.1543,400.24448 C 6373.1543,400.24448 6417.1543,392.91115 6425.1543,378.24448 C 6430.4873,368.91115 6433.1543,353.57782 6433.1543,332.24448 C 6433.1543,289.57782 6423.1543,258.91115 6403.1543,240.24448 C 6388.4873,225.57782 6368.4873,218.24448 6343.1543,218.24448 L 6341.1543,218.24448 L 6245.1543,216.24448 C 6225.1543,216.24448 6207.1543,220.24448 6191.1543,228.24448 C 6183.1543,233.57782 6179.1543,235.57782 6179.1543,234.24448 C 6179.1543,255.57782 6169.8203,272.24448 6151.1543,284.24448 C 6132.4873,294.91115 6113.8203,294.91115 6095.1543,284.24448 C 6075.1543,272.24448 6065.1543,255.57782 6065.1543,234.24448 C 6067.8203,187.57782 6093.1543,152.24448 6141.1543,128.24448 C 6171.8203,112.24448 6206.4873,104.24448 6245.1543,104.24448 L 6343.1543,104.24448 C 6397.8203,104.24448 6443.8203,122.91115 6481.1543,160.24448 C 6523.8203,201.57782 6545.1543,258.91115 6545.1543,332.24448 C 6545.1543,369.57782 6538.4873,401.57782 6525.1543,428.24448 L 6505.1543,454.24448 C 6515.8203,466.24448 6522.4873,474.24448 6525.1543,478.24448 C 6538.4873,503.57782 6545.1543,536.24448 6545.1543,576.24448 C 6545.1543,645.57782 6523.8203,701.57782 6481.1543,744.24448 C 6443.8203,781.57782 6397.8203,800.24448 6343.1543,800.24448 L 6341.1543,800.24448 L 6245.1543,800.24448 C 6207.8203,800.24448 6173.1543,792.24448 6141.1543,776.24448 C 6090.4873,752.24448 6065.1543,717.57782 6065.1543,672.24448 C 6065.1543,649.57782 6075.1543,632.91115 6095.1543,622.24448 C 6113.8203,610.24448 6132.4873,610.24448 6151.1543,622.24448 C 6169.8203,632.91115 6179.1543,649.57782 6179.1543,672.24448 L 6179.1543,668.24448 z " />
    <path
       id="four"
       d="M 6986.9661,100.24448 C 6972.3001,101.57782 6960.3001,108.24448 6950.9661,120.24448 L 6662.9661,458.24448 C 6628.3001,491.57782 6610.9661,526.24448 6610.9661,562.24448 C 6610.9661,587.57782 6619.6331,609.57782 6636.9661,628.24448 C 6654.3001,641.57782 6675.6331,648.24448 6700.9661,648.24448 L 6938.9661,648.24448 L 6938.9661,740.24448 C 6938.9661,761.57782 6947.6331,777.57782 6964.9661,788.24448 C 6984.9661,798.91115 7003.6331,798.91115 7020.9661,788.24448 C 7040.9661,777.57782 7050.3001,761.57782 7048.9661,740.24448 L 7048.9661,648.24448 L 7090.9661,648.24448 C 7112.3001,649.57782 7128.3001,640.91115 7138.9661,622.24448 C 7150.9661,602.24448 7150.9661,582.91115 7138.9661,564.24448 C 7128.3001,546.91115 7112.3001,538.24448 7090.9661,538.24448 L 7048.9661,538.24448 L 7048.9661,156.24448 C 7048.9661,138.91115 7042.9661,124.91115 7030.9661,114.24448 C 7017.6331,102.24448 7002.9661,97.577818 6986.9661,100.24448 z M 6938.9661,306.24448 L 6938.9661,538.24448 L 6738.9661,538.24448 L 6938.9661,306.24448 z " />
    <path
       id="five"
       d="M 7253.351,402.24448 L 7253.351,160.24448 C 7253.351,136.24448 7263.351,119.57782 7283.351,110.24448 C 7290.017,106.24448 7296.017,104.24448 7301.351,104.24448 L 7673.351,104.24448 C 7694.684,104.24448 7710.684,113.57782 7721.351,132.24448 C 7732.017,150.91115 7732.017,169.57782 7721.351,188.24448 C 7710.684,208.24448 7694.684,217.57782 7673.351,216.24448 L 7363.351,216.24448 L 7363.351,348.24448 L 7479.351,348.24448 C 7555.351,348.24448 7614.684,365.57782 7657.351,400.24448 C 7705.351,440.24448 7729.351,498.91115 7729.351,576.24448 C 7729.351,646.91115 7705.351,703.57782 7657.351,746.24448 C 7617.351,782.24448 7569.351,800.24448 7513.351,800.24448 L 7405.351,800.24448 C 7368.017,800.24448 7335.351,790.91115 7307.351,772.24448 C 7271.351,748.24448 7253.351,714.91115 7253.351,672.24448 C 7253.351,649.57782 7262.684,632.91115 7281.351,622.24448 C 7300.017,610.24448 7318.684,610.24448 7337.351,622.24448 C 7354.684,632.91115 7363.351,649.57782 7363.351,672.24448 C 7363.351,674.91115 7365.351,677.57782 7369.351,680.24448 C 7378.684,685.57782 7390.684,688.24448 7405.351,688.24448 L 7513.351,688.24448 C 7541.351,688.24448 7564.684,679.57782 7583.351,662.24448 C 7606.017,642.24448 7617.351,613.57782 7617.351,576.24448 C 7617.351,533.57782 7606.684,502.91115 7585.351,484.24448 C 7564.017,468.24448 7528.684,460.24448 7479.351,460.24448 L 7309.351,460.24448 C 7285.351,460.24448 7268.684,449.57782 7259.351,428.24448 C 7255.351,420.24448 7253.351,411.57782 7253.351,402.24448 z " />
    <path
       id="six"
       d="M 8031.6097,396.24448 C 7991.6097,396.24448 7948.2767,404.24448 7901.6097,420.24448 L 7901.6097,308.24448 C 7901.6097,280.24448 7911.6097,258.24448 7931.6097,242.24448 C 7954.2767,226.24448 7982.9427,218.24448 8017.6097,218.24448 C 8050.9427,218.24448 8078.2767,226.24448 8099.6097,242.24448 C 8120.9427,258.24448 8131.6097,280.24448 8131.6097,308.24448 C 8131.6097,329.57782 8140.9427,345.57782 8159.6097,356.24448 C 8178.2767,368.24448 8196.9427,368.24448 8215.6097,356.24448 C 8234.2767,345.57782 8243.6097,329.57782 8243.6097,308.24448 C 8243.6097,246.91115 8218.2767,194.91115 8167.6097,152.24448 C 8126.2767,121.57782 8076.2767,106.24448 8017.6097,106.24448 C 7957.6097,106.24448 7906.9427,121.57782 7865.6097,152.24448 C 7821.6097,186.91115 7796.9427,232.24448 7791.6097,288.24448 L 7791.6097,552.24448 C 7790.2767,552.24448 7790.2767,553.57782 7791.6097,556.24448 L 7791.6097,576.24448 C 7791.6097,645.57782 7811.6097,701.57782 7851.6097,744.24448 C 7888.9427,781.57782 7935.6097,800.24448 7991.6097,800.24448 L 8039.6097,800.24448 C 8079.6097,798.91115 8112.9427,790.91115 8139.6097,776.24448 C 8180.9427,754.91115 8210.2767,720.91115 8227.6097,674.24448 C 8238.2767,650.24448 8243.6097,624.91115 8243.6097,598.24448 C 8243.6097,532.91115 8218.9427,480.24448 8169.6097,440.24448 C 8160.2767,432.24448 8150.2767,425.57782 8139.6097,420.24448 C 8104.9427,404.24448 8071.6097,396.24448 8039.6097,396.24448 L 8035.6097,396.24448 L 8031.6097,396.24448 z M 7901.6097,576.24448 L 7901.6097,552.24448 C 7901.6097,546.91115 7904.2767,542.91115 7909.6097,540.24448 C 7929.6097,525.57782 7964.9427,515.57782 8015.6097,510.24448 C 8018.2767,508.91115 8024.9427,508.24448 8035.6097,508.24448 L 8039.6097,508.24448 L 8041.6097,508.24448 C 8057.6097,508.24448 8072.9427,512.24448 8087.6097,520.24448 C 8107.6097,530.91115 8119.6097,542.91115 8123.6097,556.24448 C 8128.9427,566.91115 8131.6097,580.91115 8131.6097,598.24448 C 8131.6097,638.24448 8116.9427,664.24448 8087.6097,676.24448 C 8074.2767,682.91115 8058.2767,686.91115 8039.6097,688.24448 L 7991.6097,688.24448 C 7967.6097,688.24448 7947.6097,680.24448 7931.6097,664.24448 C 7911.6097,645.57782 7901.6097,616.24448 7901.6097,576.24448 z " />
    <path
       id="seven"
       d="M 8332.8243,116.24448 L 8776.8243,116.24448 C 8799.4913,116.24448 8816.8243,126.24448 8828.8243,146.24448 C 8838.1573,167.57782 8836.1573,186.91115 8822.8243,204.24448 L 8384.8243,788.24448 C 8370.1573,808.24448 8350.8243,815.57782 8326.8243,810.24448 C 8317.4903,807.57782 8310.1573,804.24448 8304.8243,800.24448 C 8284.8243,785.57782 8278.1573,766.24448 8284.8243,742.24448 C 8287.4903,735.57782 8290.1573,728.24448 8292.8243,720.24448 L 8664.8243,228.24448 L 8338.8243,228.24448 C 8314.8243,228.24448 8297.4903,218.91115 8286.8243,200.24448 C 8282.8243,190.91115 8280.8243,182.24448 8280.8243,174.24448 C 8279.4903,151.57782 8288.8243,134.24448 8308.8243,122.24448 C 8316.8243,118.24448 8324.8243,116.24448 8332.8243,116.24448 z " />
    <path
       id="eight"
       d="M 9114.0655,100.24448 C 9068.7325,100.24448 9026.0651,108.24448 8986.0651,124.24448 C 8939.3991,145.57782 8905.3991,178.91115 8884.0651,224.24448 C 8872.0651,249.57782 8866.0651,276.91115 8866.0651,306.24448 L 8866.0651,306.24448 C 8864.7321,366.24448 8886.7321,416.24448 8932.0651,456.24448 C 8917.3991,466.91115 8907.3991,474.91115 8902.0651,480.24448 C 8875.3991,513.57782 8862.0651,552.91115 8862.0651,598.24448 L 8862.0651,600.24448 C 8860.7321,646.91115 8872.7321,686.91115 8898.0651,720.24448 C 8920.7321,746.91115 8950.0651,766.91115 8986.0651,780.24448 C 9020.7321,793.57782 9063.3995,800.24448 9114.0655,800.24448 C 9162.0655,800.24448 9204.7325,792.91115 9242.0655,778.24448 C 9276.7325,764.91115 9305.3995,744.91115 9328.0655,718.24448 C 9353.3995,684.91115 9366.0655,645.57782 9366.0655,600.24448 C 9366.0655,552.24448 9353.3995,512.24448 9328.0655,480.24448 C 9321.3995,472.24448 9310.7325,463.57782 9296.0655,454.24448 C 9340.0655,412.91115 9362.0655,363.57782 9362.0655,306.24448 C 9362.0655,240.91115 9335.3995,187.57782 9282.0655,146.24448 C 9240.7325,115.57782 9184.7325,100.24448 9114.0655,100.24448 z M 9114.0655,212.24448 C 9146.0655,212.24448 9174.0655,216.91115 9198.0655,226.24448 C 9222.0655,236.91115 9236.7325,249.57782 9242.0655,264.24448 C 9248.7325,274.91115 9252.0655,288.91115 9252.0655,306.24448 C 9252.0655,340.91115 9240.7325,364.91115 9218.0655,378.24448 C 9195.3995,391.57782 9167.3995,398.91115 9134.0655,400.24448 L 9114.0655,400.24448 L 9096.0655,400.24448 C 9068.0655,400.24448 9045.3991,396.24448 9028.0651,388.24448 C 9005.3991,378.91115 8990.7321,366.91115 8984.0651,352.24448 C 8980.0651,341.57782 8978.0651,326.91115 8978.0651,308.24448 L 8978.0651,306.24448 C 8978.0651,272.91115 8988.7321,249.57782 9010.0651,236.24448 C 9039.3991,220.24448 9074.0655,212.24448 9114.0655,212.24448 z M 9254.0655,600.24448 C 9254.0655,658.91115 9207.3995,688.24448 9114.0655,688.24448 C 9050.0651,688.24448 9008.0651,674.91115 8988.0651,648.24448 C 8978.7321,637.57782 8974.0651,621.57782 8974.0651,600.24448 L 8974.0651,600.24448 C 8974.0651,546.91115 9015.3991,517.57782 9098.0655,512.24448 L 9114.0655,512.24448 L 9134.0655,512.24448 C 9186.0655,514.91115 9221.3995,528.24448 9240.0655,552.24448 C 9249.3995,562.91115 9254.0655,578.91115 9254.0655,600.24448 z " />
    <path
       id="nine"
       d="M 9874.8605,616.24448 L 9874.8605,332.24448 C 9874.8605,260.24448 9854.8605,203.57782 9814.8605,162.24448 C 9777.5275,124.91115 9730.8605,106.24448 9674.8605,106.24448 L 9626.8605,106.24448 C 9530.8605,110.24448 9468.1935,152.24448 9438.8605,232.24448 C 9429.5275,254.91115 9424.8605,280.24448 9424.8605,308.24448 C 9424.8605,374.91115 9448.8605,426.91115 9496.8605,464.24448 C 9507.5275,472.24448 9518.1935,478.91115 9528.8605,484.24448 C 9560.8605,501.57782 9593.5275,509.57782 9626.8605,508.24448 L 9636.8605,508.24448 C 9686.1935,502.91115 9719.5275,498.91115 9736.8605,496.24448 C 9739.5275,494.91115 9748.1935,490.91115 9762.8605,484.24448 L 9762.8605,598.24448 C 9762.8605,626.24448 9753.5275,648.24448 9734.8605,664.24448 C 9712.1935,680.24448 9684.1935,688.24448 9650.8605,688.24448 C 9616.1935,688.24448 9588.1935,680.24448 9566.8605,664.24448 C 9549.5275,648.24448 9530.8605,644.24448 9510.8605,652.24448 C 9489.5275,660.24448 9477.5275,676.24448 9474.8605,700.24448 C 9472.1935,721.57782 9480.1935,738.91115 9498.8605,752.24448 C 9541.5275,784.24448 9592.1935,800.24448 9650.8605,800.24448 C 9709.5275,800.24448 9759.5275,784.24448 9800.8605,752.24448 C 9846.1935,717.57782 9870.8605,672.24448 9874.8605,616.24448 z M 9630.8605,396.24448 L 9624.8605,396.24448 C 9608.8605,396.24448 9593.5275,392.24448 9578.8605,384.24448 C 9560.1935,376.24448 9548.1935,364.24448 9542.8605,348.24448 C 9537.5275,338.91115 9534.8605,325.57782 9534.8605,308.24448 C 9534.8605,272.24448 9545.5275,248.24448 9566.8605,236.24448 C 9585.5275,224.24448 9605.5275,218.24448 9626.8605,218.24448 L 9674.8605,218.24448 C 9700.1935,218.24448 9720.1935,225.57782 9734.8605,240.24448 C 9753.5275,260.24448 9762.8605,290.91115 9762.8605,332.24448 L 9762.8605,356.24448 C 9762.8605,358.91115 9760.1935,362.24448 9754.8605,366.24448 C 9737.5275,380.91115 9703.5275,390.91115 9652.8605,396.24448 L 9630.8605,396.24448 z " />
    <path
       id="colon"
       d="M 9984.9345,476.24448 C 9963.6015,473.57782 9948.9345,461.57782 9940.9345,440.24448 C 9939.6015,434.91115 9938.9345,428.91115 9938.9345,422.24448 L 9938.9345,416.24448 C 9938.9345,394.91115 9947.6015,378.91115 9964.9345,368.24448 C 9983.6015,357.57782 10001.602,357.57782 10018.935,368.24448 C 10036.268,378.91115 10044.935,394.91115 10044.935,416.24448 L 10044.935,422.24448 C 10044.935,438.24448 10038.935,451.57782 10026.935,462.24448 C 10014.935,474.24448 10000.935,478.91115 9984.9345,476.24448 z M 9984.9345,702.24448 C 9963.6015,700.91115 9948.9345,689.57782 9940.9345,668.24448 C 9939.6015,662.91115 9938.9345,656.24448 9938.9345,648.24448 L 9938.9345,640.24448 C 9938.9345,620.24448 9947.6015,605.57782 9964.9345,596.24448 C 9983.6015,585.57782 10001.602,585.57782 10018.935,596.24448 C 10036.268,605.57782 10044.935,620.24448 10044.935,640.24448 L 10044.935,648.24448 C 10044.935,664.24448 10038.935,677.57782 10026.935,688.24448 C 10014.935,700.24448 10000.935,704.91115 9984.9345,702.24448 z " />
    <path
       id="semicolon"
       d="M 10261.376,588.24448 C 10276.043,588.24448 10289.376,593.57782 10301.376,604.24448 C 10312.043,614.91115 10317.376,628.24448 10317.376,644.24448 L 10317.376,742.24448 C 10317.376,764.91115 10308.043,781.57782 10289.376,792.24448 C 10270.709,801.57782 10252.043,801.57782 10233.376,792.24448 C 10214.709,781.57782 10205.376,764.91115 10205.376,742.24448 L 10205.376,644.24448 C 10205.376,628.24448 10210.709,614.91115 10221.376,604.24448 C 10232.043,593.57782 10245.376,588.24448 10261.376,588.24448 z M 10251.376,436.24448 C 10230.043,433.57782 10215.376,421.57782 10207.376,400.24448 C 10204.709,394.91115 10203.376,388.91115 10203.376,382.24448 L 10203.376,376.24448 C 10203.376,354.91115 10212.043,338.91115 10229.376,328.24448 C 10248.043,317.57782 10266.043,317.57782 10283.376,328.24448 C 10300.709,338.91115 10309.376,354.91115 10309.376,376.24448 L 10309.376,382.24448 C 10309.376,399.57782 10303.376,412.91115 10291.376,422.24448 C 10280.709,434.24448 10267.376,438.91115 10251.376,436.24448 z " />
    <path
       id="less"
       d="M 10736.746,56.24448 C 10760.746,53.57782 10779.412,64.24448 10792.746,88.244485 C 10803.412,109.57782 10800.079,130.24448 10782.746,150.24448 L 10526.746,428.24448 L 10782.746,706.24448 C 10800.079,723.57782 10803.412,743.57782 10792.746,766.24448 C 10790.079,772.91115 10785.412,778.91115 10778.746,784.24448 C 10761.412,801.57782 10740.746,805.57782 10716.746,796.24448 C 10711.412,792.24448 10706.079,787.57782 10700.746,782.24448 L 10408.746,466.24448 C 10391.412,447.57782 10387.412,426.91115 10396.746,404.24448 C 10399.412,398.91115 10403.412,394.24448 10408.746,390.24448 L 10700.746,76.24448 C 10710.079,62.91115 10722.079,56.24448 10736.746,56.24448 z " />
    <path
       id="equal"
       d="M 11140.944,360.24448 L 10832.944,360.24448 C 10810.277,360.24448 10793.611,351.57782 10782.944,334.24448 C 10772.277,315.57782 10772.277,296.91115 10782.944,278.24448 C 10793.611,259.57782 10810.277,250.24448 10832.944,250.24448 L 11140.944,250.24448 C 11162.277,250.24448 11178.944,259.57782 11190.944,278.24448 C 11201.611,296.91115 11201.611,315.57782 11190.944,334.24448 C 11178.944,351.57782 11162.277,360.24448 11140.944,360.24448 z M 11140.944,598.24448 L 10832.944,598.24448 C 10810.277,598.24448 10793.611,588.91115 10782.944,570.24448 C 10772.277,551.57782 10772.277,532.91115 10782.944,514.24448 C 10793.611,494.24448 10810.277,484.24448 10832.944,484.24448 L 11140.944,484.24448 C 11162.277,484.24448 11178.944,494.24448 11190.944,514.24448 C 11201.611,532.91115 11201.611,551.57782 11190.944,570.24448 C 11178.944,588.91115 11162.277,598.24448 11140.944,598.24448 z " />
    <path
       id="question"
       d="M 11426.309,792.24448 C 11404.975,789.57782 11390.975,778.24448 11384.309,758.24448 C 11381.642,751.57782 11380.309,745.57782 11380.309,740.24448 L 11380.309,730.24448 C 11380.309,710.24448 11388.975,694.24448 11406.309,682.24448 C 11424.975,672.91115 11443.642,672.91115 11462.309,682.24448 C 11478.309,694.24448 11486.309,710.24448 11486.309,730.24448 L 11486.309,740.24448 C 11486.309,754.91115 11480.309,767.57782 11468.309,778.24448 C 11456.309,788.91115 11442.309,793.57782 11426.309,792.24448 z M 11450.309,196.24448 C 11423.642,196.24448 11410.309,201.57782 11410.309,212.24448 C 11410.309,234.91115 11400.975,251.57782 11382.309,262.24448 C 11363.642,274.24448 11344.975,274.24448 11326.309,262.24448 C 11307.642,251.57782 11298.309,234.91115 11298.309,212.24448 C 11298.309,180.24448 11314.309,149.57782 11346.309,120.24448 C 11347.642,117.57782 11350.309,114.24448 11354.309,110.24448 C 11380.975,92.911151 11412.975,84.24448 11450.309,84.24448 L 11564.309,84.24448 C 11606.975,82.91115 11644.309,94.911151 11676.309,120.24448 C 11710.975,146.91115 11732.309,188.24448 11740.309,244.24448 C 11741.642,249.57782 11742.309,254.91115 11742.309,260.24448 C 11742.309,324.24448 11714.309,372.24448 11658.309,404.24448 C 11622.309,426.91115 11582.975,438.24448 11540.309,438.24448 C 11530.975,439.57782 11522.309,441.57782 11514.309,444.24448 C 11506.309,449.57782 11502.309,454.24448 11502.309,458.24448 C 11499.642,462.24448 11498.309,469.57782 11498.309,480.24448 L 11498.309,528.24448 C 11498.309,549.57782 11488.975,566.24448 11470.309,578.24448 C 11451.642,588.91115 11432.309,588.91115 11412.309,578.24448 C 11394.975,566.24448 11386.309,549.57782 11386.309,528.24448 L 11386.309,480.24448 C 11386.309,430.91115 11404.975,390.91115 11442.309,360.24448 C 11448.975,353.57782 11456.975,348.24448 11466.309,344.24448 C 11491.642,330.91115 11516.309,324.91115 11540.309,326.24448 C 11562.975,326.24448 11583.642,320.91115 11602.309,310.24448 C 11620.975,299.57782 11630.309,282.91115 11630.309,260.24448 C 11630.309,234.91115 11622.975,217.57782 11608.309,208.24448 C 11596.309,200.24448 11581.642,196.24448 11564.309,196.24448 L 11450.309,196.24448 z " />
    <path
       id="at"
       d="M 12331.921,900.24448 L 12335.921,900.24448 C 12374.588,900.24448 12408.588,881.57782 12437.921,844.24448 C 12489.921,785.57782 12515.921,686.91115 12515.921,548.24448 C 12515.921,412.24448 12475.254,309.57782 12393.921,240.24448 C 12384.588,232.24448 12375.921,225.57782 12367.921,220.24448 C 12302.588,173.57782 12219.921,150.24448 12119.921,150.24448 C 12027.921,150.24448 11949.254,180.24448 11883.921,240.24448 C 11806.587,316.24448 11766.588,418.91115 11763.921,548.24448 C 11763.921,670.91115 11797.254,766.24448 11863.921,834.24448 C 11899.921,867.57782 11937.921,889.57782 11977.921,900.24448 C 12000.588,906.91115 12019.921,900.24448 12035.921,880.24448 C 12039.921,874.91115 12042.588,868.24448 12043.921,860.24448 C 12050.588,836.24448 12043.921,816.24448 12023.921,800.24448 C 12018.588,797.57782 12011.921,794.91115 12003.921,792.24448 C 11979.921,784.24448 11959.921,770.91115 11943.921,752.24448 C 11898.588,706.91115 11875.921,638.91115 11875.921,548.24448 C 11875.921,448.24448 11903.921,373.57782 11959.921,324.24448 C 12002.588,282.91115 12055.921,262.24448 12119.921,262.24448 C 12309.254,262.24448 12403.921,357.57782 12403.921,548.24448 C 12403.921,657.57782 12386.588,732.24448 12351.921,772.24448 C 12343.921,780.24448 12337.254,785.57782 12331.921,788.24448 L 12331.921,792.24448 L 12327.921,792.24448 C 12322.588,792.24448 12319.921,790.91115 12319.921,788.24448 C 12314.588,784.24448 12310.588,777.57782 12307.921,768.24448 C 12302.588,754.91115 12300.588,738.91115 12301.921,720.24448 L 12301.921,532.24448 C 12301.921,454.91115 12279.254,396.91115 12233.921,358.24448 C 12197.921,330.24448 12159.921,318.24448 12119.921,322.24448 L 12111.921,322.24448 L 12111.921,324.24448 C 12079.921,324.24448 12050.588,333.57782 12023.921,352.24448 C 11965.254,392.24448 11935.921,457.57782 11935.921,548.24448 C 11935.921,628.24448 11959.921,689.57782 12007.921,732.24448 C 12011.921,737.57782 12017.254,741.57782 12023.921,744.24448 C 12054.588,764.24448 12086.588,774.24448 12119.921,774.24448 C 12146.588,770.24448 12171.254,764.91115 12193.921,758.24448 C 12197.921,806.24448 12213.254,842.91115 12239.921,868.24448 C 12265.254,890.91115 12295.921,901.57782 12331.921,900.24448 L 12331.921,900.24448 z M 12191.921,532.24448 L 12191.921,592.24448 C 12191.921,620.24448 12183.921,638.91115 12167.921,648.24448 C 12165.254,648.24448 12161.921,649.57782 12157.921,652.24448 C 12145.921,658.91115 12133.254,662.24448 12119.921,662.24448 C 12073.254,655.57782 12048.588,621.57782 12045.921,560.24448 L 12045.921,548.24448 C 12045.921,497.57782 12058.588,462.91115 12083.921,444.24448 C 12097.254,437.57782 12109.254,434.24448 12119.921,434.24448 C 12119.921,432.91115 12121.254,432.24448 12123.921,432.24448 L 12123.921,432.24448 C 12159.921,434.91115 12181.254,454.24448 12187.921,490.24448 C 12190.588,502.24448 12191.921,516.24448 12191.921,532.24448 z " />
    <path
       id="bracketleft"
       d="M 12714.324,56.24448 L 12864.324,56.24448 C 12886.99,54.91115 12903.657,63.57782 12914.324,82.24448 C 12924.99,100.91115 12924.99,120.24448 12914.324,140.24448 C 12903.657,158.91115 12886.99,168.24448 12864.324,168.24448 L 12776.324,168.24448 L 12776.324,686.24448 L 12864.324,686.24448 C 12886.99,686.24448 12903.657,696.24448 12914.324,716.24448 C 12924.99,734.91115 12924.99,753.57782 12914.324,772.24448 C 12903.657,790.91115 12886.99,800.24448 12864.324,800.24448 L 12720.324,800.24448 C 12696.324,800.24448 12678.99,789.57782 12668.324,768.24448 C 12664.324,760.24448 12662.324,752.24448 12662.324,744.24448 L 12662.324,110.24448 C 12662.324,87.577818 12673.657,70.91115 12696.324,60.24448 C 12701.657,57.57782 12707.657,56.24448 12714.324,56.24448 z " />
    <path
       id="path55"
       d="M 13261.589,0.24448 C 13278.923,-2.42218 13293.589,2.24448 13305.589,14.24448 L 13453.589,160.24448 C 13469.589,174.91115 13474.923,193.57782 13469.589,216.24448 C 13464.256,237.57782 13450.923,250.91115 13429.589,256.24448 C 13408.256,261.57782 13389.589,256.24448 13373.589,240.24448 L 13267.589,132.24448 L 13161.589,240.24448 C 13146.923,256.24448 13128.256,261.57782 13105.589,256.24448 C 13084.256,250.91115 13070.923,237.57782 13065.589,216.24448 C 13060.256,193.57782 13065.589,174.91115 13081.589,160.24448 L 13227.589,14.24448 C 13236.923,4.91115 13248.256,0.24448 13261.589,0.24448 z " />
    <path
       id="underscore"
       d="M 13495.812,800.24448 L 13105.812,800.24448 C 13084.478,800.24448 13068.478,790.91115 13057.812,772.24448 C 13045.812,753.57782 13045.812,734.91115 13057.812,716.24448 C 13068.478,697.57782 13084.478,688.24448 13105.812,688.24448 L 13495.812,688.24448 C 13517.145,688.24448 13533.145,697.57782 13543.812,716.24448 C 13554.478,734.91115 13554.478,753.57782 13543.812,772.24448 C 13533.145,790.91115 13517.145,800.24448 13495.812,800.24448 z " />
    <path
       id="path58"
       d="M 13645.832,180.24448 C 13660.498,178.91115 13673.832,184.24448 13685.832,196.24448 C 13697.832,206.91115 13703.165,220.24448 13701.832,236.24448 L 13701.832,334.24448 C 13701.832,354.24448 13691.832,370.24448 13671.832,382.24448 C 13654.498,394.24448 13636.498,394.24448 13617.832,382.24448 C 13599.165,370.24448 13589.832,354.24448 13589.832,334.24448 L 13589.832,236.24448 C 13589.832,220.24448 13595.165,206.91115 13605.832,196.24448 C 13616.498,185.57782 13629.832,180.24448 13645.832,180.24448 z " />
    <path
       id="a"
       d="M 14235.64,740.24448 L 14235.64,536.24448 C 14231.64,473.57782 14209.64,424.24448 14169.64,388.24448 C 14158.973,378.91115 14147.64,370.91115 14135.64,364.24448 C 14110.307,350.91115 14084.973,344.24448 14059.64,344.24448 C 13999.64,344.24448 13950.973,369.57782 13913.64,420.24448 C 13872.307,481.57782 13860.973,556.24448 13879.64,644.24448 C 13891.64,700.24448 13919.64,742.24448 13963.64,770.24448 C 13974.307,776.91115 13985.64,782.91115 13997.64,788.24448 C 14046.973,804.24448 14092.307,801.57782 14133.64,780.24448 C 14141.64,801.57782 14157.64,812.91115 14181.64,814.24448 C 14197.64,815.57782 14210.973,810.24448 14221.64,798.24448 C 14230.973,786.24448 14235.64,766.91115 14235.64,740.24448 z M 14055.64,452.24448 C 14082.307,452.24448 14102.973,464.24448 14117.64,488.24448 C 14126.973,505.57782 14130.973,544.91115 14129.64,606.24448 C 14125.64,650.24448 14110.307,677.57782 14083.64,688.24448 C 14074.307,690.91115 14061.64,691.57782 14045.64,690.24448 C 14018.973,686.24448 14000.307,671.57782 13989.64,646.24448 C 13986.973,640.91115 13985.64,635.57782 13985.64,630.24448 C 13974.973,588.91115 13974.973,548.24448 13985.64,508.24448 C 13990.973,481.57782 14006.973,464.24448 14033.64,456.24448 C 14041.64,453.57782 14048.973,452.24448 14055.64,452.24448 z " />
    <path
       id="b"
       d="M 14481.068,800.24448 L 14489.068,800.24448 L 14489.068,800.24448 C 14521.068,798.91115 14551.735,788.24448 14581.068,768.24448 C 14629.068,736.24448 14658.402,683.57782 14669.068,610.24448 C 14671.735,595.57782 14673.068,579.57782 14673.068,562.24448 C 14673.068,478.24448 14647.735,414.91115 14597.068,372.24448 C 14562.402,341.57782 14523.735,326.24448 14481.068,326.24448 C 14449.068,330.24448 14421.068,336.91115 14397.068,346.24448 L 14397.068,196.24448 C 14397.068,180.24448 14391.735,167.57782 14381.068,158.24448 C 14370.402,146.24448 14357.735,140.24448 14343.068,140.24448 C 14320.402,140.24448 14305.068,150.91115 14297.068,172.24448 C 14293.068,178.91115 14291.068,186.91115 14291.068,196.24448 L 14291.068,582.24448 C 14291.068,676.91115 14323.735,742.91115 14389.068,780.24448 C 14419.735,796.24448 14450.402,802.91115 14481.068,800.24448 z M 14397.068,582.24448 L 14397.068,516.24448 C 14397.068,484.24448 14406.402,462.24448 14425.068,450.24448 L 14437.068,444.24448 C 14451.735,436.24448 14466.402,432.24448 14481.068,432.24448 C 14497.068,434.91115 14510.402,439.57782 14521.068,446.24448 C 14551.735,466.24448 14567.068,504.91115 14567.068,562.24448 C 14567.068,619.57782 14551.735,658.91115 14521.068,680.24448 C 14507.735,689.57782 14494.402,694.91115 14481.068,696.24448 L 14475.068,696.24448 C 14431.068,696.24448 14405.735,670.91115 14399.068,620.24448 C 14397.735,608.24448 14397.068,595.57782 14397.068,582.24448 z " />
    <path
       id="c"
       d="M 14928.783,324.24448 C 14970.116,324.24448 15007.449,334.91115 15040.783,356.24448 C 15058.116,368.24448 15066.783,384.24448 15066.783,404.24448 C 15064.116,425.57782 15053.449,440.91115 15034.783,450.24448 C 15016.116,458.24448 14998.783,456.24448 14982.783,444.24448 C 14968.116,436.24448 14950.116,432.24448 14928.783,432.24448 C 14911.449,432.24448 14894.783,436.91115 14878.783,446.24448 C 14849.449,466.24448 14834.783,504.24448 14834.783,560.24448 L 14834.783,562.24448 C 14834.783,622.24448 14848.783,661.57782 14876.783,680.24448 C 14891.449,689.57782 14908.783,694.24448 14928.783,694.24448 C 14950.116,694.24448 14968.116,689.57782 14982.783,680.24448 C 14998.783,666.91115 15016.116,664.91115 15034.783,674.24448 C 15053.449,683.57782 15064.116,698.91115 15066.783,720.24448 C 15066.783,741.57782 15058.116,756.91115 15040.783,766.24448 C 15007.449,788.91115 14970.116,800.24448 14928.783,800.24448 C 14887.449,800.24448 14851.449,789.57782 14820.783,768.24448 C 14759.449,729.57782 14728.783,660.24448 14728.783,560.24448 C 14728.783,474.91115 14754.783,410.91115 14806.783,368.24448 C 14840.116,338.91115 14880.783,324.24448 14928.783,324.24448 z " />
    <path
       id="d"
       d="M 15487.926,582.24448 L 15487.926,196.24448 C 15487.926,180.24448 15482.592,167.57782 15471.926,158.24448 C 15462.592,146.24448 15449.926,140.24448 15433.926,140.24448 C 15411.259,140.24448 15395.259,150.91115 15385.926,172.24448 C 15383.259,178.91115 15381.926,186.91115 15381.926,196.24448 L 15381.926,348.24448 C 15352.592,334.91115 15323.926,328.24448 15295.926,328.24448 C 15257.259,330.91115 15225.259,340.91115 15199.926,358.24448 C 15137.259,399.57782 15105.926,468.24448 15105.926,564.24448 C 15105.926,648.24448 15131.926,712.91115 15183.926,758.24448 L 15199.926,768.24448 C 15229.259,788.24448 15259.259,798.91115 15289.926,800.24448 L 15289.926,800.24448 L 15291.926,800.24448 L 15295.926,800.24448 L 15295.926,800.24448 C 15327.926,802.91115 15359.926,796.24448 15391.926,780.24448 C 15437.259,756.24448 15466.592,713.57782 15479.926,652.24448 C 15485.259,630.91115 15487.926,607.57782 15487.926,582.24448 z M 15381.926,518.24448 L 15381.926,582.24448 C 15383.259,639.57782 15369.926,674.24448 15341.926,686.24448 C 15329.926,694.24448 15317.259,697.57782 15303.926,696.24448 L 15295.926,696.24448 C 15281.259,692.24448 15267.926,686.91115 15255.926,680.24448 C 15227.926,653.57782 15213.259,614.91115 15211.926,564.24448 C 15211.926,505.57782 15226.592,466.24448 15255.926,446.24448 C 15271.926,436.91115 15285.259,432.24448 15295.926,432.24448 C 15314.592,434.91115 15329.926,438.91115 15341.926,444.24448 C 15360.592,454.91115 15372.592,466.91115 15377.926,480.24448 C 15380.592,490.91115 15381.926,503.57782 15381.926,518.24448 z " />
    <path
       id="e"
       d="M 15780.372,690.24448 L 15762.372,690.24448 C 15718.372,683.57782 15691.705,657.57782 15682.372,612.24448 L 15900.372,612.24448 C 15924.372,612.24448 15940.372,601.57782 15948.372,580.24448 C 15951.039,573.57782 15952.372,566.91115 15952.372,560.24448 L 15952.372,540.24448 C 15952.372,446.91115 15920.372,380.24448 15856.372,340.24448 C 15832.372,326.91115 15805.039,320.24448 15774.372,320.24448 C 15733.039,320.24448 15696.372,331.57782 15664.372,354.24448 C 15605.705,392.91115 15574.372,457.57782 15570.372,548.24448 C 15569.039,556.24448 15569.039,563.57782 15570.372,570.24448 C 15574.372,656.91115 15605.705,721.57782 15664.372,764.24448 C 15696.372,786.91115 15729.039,798.24448 15762.372,798.24448 C 15809.039,799.57782 15842.372,798.24448 15862.372,794.24448 C 15890.372,787.57782 15913.705,776.24448 15932.372,760.24448 C 15949.705,748.24448 15956.372,732.24448 15952.372,712.24448 C 15949.705,690.91115 15939.705,676.24448 15922.372,668.24448 C 15902.372,661.57782 15884.372,664.91115 15868.372,678.24448 C 15856.372,686.24448 15827.039,690.24448 15780.372,690.24448 z M 15772.372,428.24448 C 15785.705,428.24448 15797.039,430.91115 15806.372,436.24448 C 15827.705,446.91115 15841.039,468.91115 15846.372,502.24448 L 15846.372,506.24448 L 15682.372,506.24448 C 15687.705,476.91115 15701.039,454.91115 15722.372,440.24448 C 15737.039,432.24448 15750.372,428.24448 15762.372,428.24448 L 15768.372,428.24448 L 15772.372,428.24448 z " />
    <path
       id="f"
       d="M 16269.515,140.24448 L 16297.515,144.24448 C 16317.515,149.57782 16330.848,162.24448 16337.515,182.24448 C 16342.848,203.57782 16337.515,221.57782 16321.515,236.24448 C 16306.848,250.91115 16289.515,254.91115 16269.515,248.24448 L 16235.515,244.24448 C 16223.515,244.24448 16214.182,248.24448 16207.515,256.24448 C 16200.848,262.91115 16197.515,276.24448 16197.515,296.24448 L 16197.515,346.24448 L 16283.515,346.24448 C 16303.515,344.91115 16318.848,353.57782 16329.515,372.24448 C 16340.182,390.91115 16340.182,408.24448 16329.515,424.24448 C 16318.848,442.91115 16303.515,452.24448 16283.515,452.24448 L 16197.515,452.24448 L 16197.515,748.24448 C 16197.515,769.57782 16189.515,785.57782 16173.515,796.24448 C 16154.848,806.91115 16136.182,806.91115 16117.515,796.24448 C 16100.182,785.57782 16091.515,769.57782 16091.515,748.24448 L 16091.515,452.24448 L 16079.515,452.24448 C 16058.182,452.24448 16042.182,442.91115 16031.515,424.24448 C 16022.182,408.24448 16022.182,390.91115 16031.515,372.24448 C 16042.182,353.57782 16058.182,344.91115 16079.515,346.24448 L 16091.515,346.24448 L 16091.515,296.24448 C 16091.515,250.91115 16102.848,214.91115 16125.515,188.24448 C 16144.182,164.24448 16170.182,148.91115 16203.515,142.24448 C 16224.848,138.24448 16246.848,137.57782 16269.515,140.24448 z " />
    <path
       id="g"
       d="M 16775.229,748.24448 L 16775.229,544.24448 C 16775.229,462.91115 16751.896,401.57782 16705.229,360.24448 C 16674.563,336.24448 16638.563,324.24448 16597.229,324.24448 C 16555.896,324.24448 16519.229,334.91115 16487.229,356.24448 C 16437.896,388.24448 16407.896,440.24448 16397.229,512.24448 C 16394.563,528.24448 16393.229,544.91115 16393.229,562.24448 C 16393.229,647.57782 16419.229,712.24448 16471.229,756.24448 L 16487.229,768.24448 C 16519.229,789.57782 16551.896,800.24448 16585.229,800.24448 C 16615.896,797.57782 16643.896,790.91115 16669.229,780.24448 C 16666.563,828.24448 16658.563,857.57782 16645.229,868.24448 C 16635.896,874.91115 16610.563,878.24448 16569.229,878.24448 C 16558.563,876.91115 16548.563,874.91115 16539.229,872.24448 L 16515.229,860.24448 L 16517.229,866.24448 C 16506.563,848.91115 16491.229,840.24448 16471.229,840.24448 C 16449.896,840.24448 16434.563,849.57782 16425.229,868.24448 C 16415.896,886.91115 16416.563,904.24448 16427.229,920.24448 C 16441.896,945.57782 16464.563,962.91115 16495.229,972.24448 C 16504.563,973.57782 16509.896,974.24448 16511.229,974.24448 L 16557.229,984.24448 L 16565.229,984.24448 C 16614.563,984.24448 16649.229,980.91115 16669.229,974.24448 C 16683.896,967.57782 16697.896,959.57782 16711.229,950.24448 C 16753.896,911.57782 16775.229,844.24448 16775.229,748.24448 z M 16595.229,430.24448 C 16608.563,430.24448 16619.896,433.57782 16629.229,440.24448 C 16657.229,453.57782 16671.229,488.24448 16671.229,544.24448 L 16671.229,608.24448 C 16671.229,642.91115 16661.229,666.24448 16641.229,678.24448 L 16631.229,680.24448 C 16616.563,688.24448 16601.229,692.91115 16585.229,694.24448 C 16529.229,686.24448 16500.563,644.24448 16499.229,568.24448 L 16499.229,562.24448 C 16499.229,504.91115 16514.563,465.57782 16545.229,444.24448 C 16559.896,436.24448 16573.229,432.24448 16585.229,432.24448 C 16587.896,432.24448 16589.896,431.57782 16591.229,430.24448 L 16595.229,430.24448 z " />
    <path
       id="h"
       d="M 16836.569,744.24448 L 16836.569,192.24448 C 16836.569,170.91115 16845.902,154.24448 16864.569,142.24448 C 16872.569,139.57782 16880.569,138.24448 16888.569,138.24448 C 16904.569,138.24448 16917.236,142.91115 16926.569,152.24448 C 16937.236,162.91115 16942.569,176.24448 16942.569,192.24448 L 16942.569,344.24448 C 16970.569,330.91115 16998.569,324.24448 17026.569,324.24448 C 17091.902,324.24448 17141.902,347.57782 17176.569,394.24448 C 17205.902,430.24448 17219.902,470.24448 17218.569,514.24448 L 17218.569,744.24448 C 17219.902,765.57782 17211.236,781.57782 17192.569,792.24448 C 17173.902,801.57782 17156.569,801.57782 17140.569,792.24448 C 17121.902,781.57782 17112.569,765.57782 17112.569,744.24448 L 17112.569,514.24448 C 17107.236,468.91115 17091.236,442.24448 17064.569,434.24448 C 17055.236,430.24448 17042.569,428.24448 17026.569,428.24448 C 16993.236,428.24448 16971.236,438.91115 16960.569,460.24448 C 16949.902,481.57782 16943.902,499.57782 16942.569,514.24448 L 16942.569,744.24448 C 16942.569,770.91115 16929.902,788.24448 16904.569,796.24448 C 16883.236,801.57782 16864.569,796.24448 16848.569,780.24448 C 16840.569,770.91115 16836.569,758.91115 16836.569,744.24448 z " />
    <path
       id="i"
       d="M 17375.997,132.24448 C 17353.331,134.91115 17338.664,146.91115 17331.997,168.24448 C 17329.331,173.57782 17327.997,179.57782 17327.997,186.24448 L 17327.997,194.24448 C 17327.997,214.24448 17336.664,229.57782 17353.997,240.24448 C 17371.331,250.91115 17389.331,250.91115 17407.997,240.24448 C 17425.331,229.57782 17433.997,214.24448 17433.997,194.24448 L 17433.997,186.24448 C 17433.997,170.24448 17427.997,156.24448 17415.997,144.24448 C 17403.997,133.57782 17390.664,129.57782 17375.997,132.24448 z M 17379.997,324.24448 C 17357.331,324.24448 17341.997,334.91115 17333.997,356.24448 C 17329.997,362.91115 17327.997,370.24448 17327.997,378.24448 L 17327.997,746.24448 C 17327.997,766.24448 17336.664,781.57782 17353.997,792.24448 C 17371.331,802.91115 17389.331,802.91115 17407.997,792.24448 C 17425.331,781.57782 17433.997,766.24448 17433.997,746.24448 L 17433.997,378.24448 C 17433.997,363.57782 17428.664,350.91115 17417.997,340.24448 C 17408.664,329.57782 17395.997,324.24448 17379.997,324.24448 z " />
    <path
       id="j"
       d="M 17637.712,136.24448 C 17616.379,137.57782 17601.045,148.24448 17591.712,168.24448 C 17587.712,174.91115 17585.712,182.24448 17585.712,190.24448 L 17585.712,200.24448 C 17585.712,218.91115 17595.045,233.57782 17613.712,244.24448 C 17632.379,254.91115 17649.712,254.91115 17665.712,244.24448 C 17684.379,233.57782 17693.045,218.91115 17691.712,200.24448 L 17691.712,190.24448 C 17693.045,175.57782 17688.379,162.24448 17677.712,150.24448 C 17667.045,140.91115 17653.712,136.24448 17637.712,136.24448 z M 17637.712,320.24448 C 17616.379,320.24448 17601.045,330.91115 17591.712,352.24448 C 17587.712,357.57782 17585.712,364.91115 17585.712,374.24448 L 17585.712,828.24448 C 17585.712,846.91115 17583.045,860.24448 17577.712,868.24448 C 17567.045,880.24448 17547.045,882.91115 17517.712,876.24448 C 17496.379,869.57782 17477.712,873.57782 17461.712,888.24448 C 17448.379,902.91115 17444.379,920.24448 17449.712,940.24448 C 17455.045,960.24448 17467.045,972.24448 17485.712,976.24448 L 17525.712,984.24448 C 17584.379,986.91115 17629.045,970.91115 17659.712,936.24448 C 17681.045,908.24448 17691.712,872.24448 17691.712,828.24448 L 17691.712,374.24448 C 17693.045,359.57782 17688.379,346.91115 17677.712,336.24448 C 17667.045,325.57782 17653.712,320.24448 17637.712,320.24448 z " />
    <path
       id="k"
       d="M 17880.283,130.24448 C 17894.95,130.24448 17907.617,135.57782 17918.283,146.24448 C 17928.95,156.91115 17934.283,169.57782 17934.283,184.24448 L 17934.283,478.24448 L 18104.283,316.24448 C 18121.617,300.24448 18141.617,296.91115 18164.283,306.24448 C 18169.617,308.91115 18174.95,312.91115 18180.283,318.24448 C 18196.283,335.57782 18199.617,354.91115 18190.283,376.24448 C 18186.283,382.91115 18182.283,388.91115 18178.283,394.24448 L 18054.283,510.24448 L 18204.283,714.24448 C 18218.95,734.24448 18219.617,754.24448 18206.283,774.24448 C 18202.283,779.57782 18197.617,784.24448 18192.283,788.24448 C 18173.617,802.91115 18153.617,803.57782 18132.283,790.24448 C 18126.95,787.57782 18122.283,783.57782 18118.283,778.24448 L 17976.283,584.24448 L 17934.283,624.24448 L 17934.283,746.24448 C 17934.283,766.24448 17925.617,781.57782 17908.283,792.24448 C 17889.617,802.91115 17871.617,802.91115 17854.283,792.24448 C 17836.95,781.57782 17828.283,766.24448 17828.283,746.24448 L 17828.283,184.24448 C 17828.283,161.57782 17838.283,145.57782 17858.283,136.24448 C 17864.95,132.24448 17872.283,130.24448 17880.283,130.24448 z " />
    <path
       id="l"
       d="M 18380.569,200.24448 C 18380.569,176.24448 18369.902,159.57782 18348.569,150.24448 C 18343.236,147.57782 18336.569,146.24448 18328.569,146.24448 C 18307.236,146.24448 18291.236,156.24448 18280.569,176.24448 C 18277.902,182.91115 18276.569,190.91115 18276.569,200.24448 L 18276.569,748.24448 C 18276.569,769.57782 18286.569,784.91115 18306.569,794.24448 C 18313.236,796.91115 18320.569,798.24448 18328.569,798.24448 C 18351.236,798.24448 18367.236,788.24448 18376.569,768.24448 C 18379.236,761.57782 18380.569,754.91115 18380.569,748.24448 L 18380.569,200.24448 z " />
    <path
       id="m"
       d="M 18701.855,322.24448 C 18747.189,322.24448 18785.855,336.24448 18817.855,364.24448 C 18849.855,336.24448 18887.855,322.24448 18931.855,322.24448 C 18987.855,322.24448 19031.855,342.24448 19063.855,382.24448 C 19089.189,412.91115 19101.189,447.57782 19099.855,486.24448 L 19099.855,744.24448 C 19099.855,764.24448 19091.189,779.57782 19073.855,790.24448 C 19056.522,800.91115 19038.522,800.91115 19019.855,790.24448 C 19002.522,779.57782 18993.855,764.24448 18993.855,744.24448 L 18993.855,486.24448 C 18989.855,457.57782 18979.189,439.57782 18961.855,432.24448 C 18955.189,429.57782 18945.189,428.24448 18931.855,428.24448 C 18906.522,428.24448 18889.855,434.91115 18881.855,448.24448 C 18875.189,460.24448 18871.189,472.91115 18869.855,486.24448 L 18869.855,597.24448 C 18869.855,617.24448 18861.189,632.57782 18843.855,643.24448 C 18826.522,653.91115 18808.522,653.91115 18789.855,643.24448 C 18772.522,633.91115 18763.855,618.57782 18763.855,597.24448 L 18763.855,486.24448 C 18759.855,457.57782 18749.189,439.57782 18731.855,432.24448 C 18725.189,429.57782 18715.189,428.24448 18701.855,428.24448 C 18677.855,428.24448 18661.855,434.91115 18653.855,448.24448 C 18645.855,462.24448 18641.188,474.91115 18639.855,486.24448 L 18639.855,744.24448 C 18641.188,764.24448 18632.521,779.57782 18613.855,790.24448 C 18596.521,800.91115 18578.521,800.91115 18559.855,790.24448 C 18542.521,779.57782 18533.855,764.24448 18533.855,744.24448 L 18533.855,486.24448 C 18539.188,403.57782 18576.521,351.57782 18645.855,330.24448 C 18663.188,324.91115 18681.855,322.24448 18701.855,322.24448 z " />
    <path
       id="n"
       d="M 19186.855,520.24448 C 19186.855,473.57782 19200.855,432.91115 19228.855,398.24448 C 19262.189,355.57782 19310.855,334.24448 19374.855,334.24448 C 19470.855,343.57782 19530.189,386.91115 19552.855,464.24448 C 19556.855,481.57782 19559.522,500.24448 19560.855,520.24448 L 19560.855,748.24448 C 19560.855,769.57782 19550.855,784.91115 19530.855,794.24448 C 19522.855,798.24448 19515.522,800.24448 19508.855,800.24448 C 19486.189,800.24448 19470.855,789.57782 19462.855,768.24448 C 19460.189,761.57782 19458.855,754.91115 19458.855,748.24448 L 19458.855,520.24448 C 19456.189,470.91115 19428.189,443.57782 19374.855,438.24448 C 19329.522,438.24448 19302.189,459.57782 19292.855,502.24448 C 19291.522,508.91115 19290.855,514.91115 19290.855,520.24448 L 19290.855,748.24448 C 19290.855,769.57782 19280.189,784.91115 19258.855,794.24448 C 19253.522,798.24448 19246.855,800.24448 19238.855,800.24448 C 19216.189,800.24448 19200.189,789.57782 19190.855,768.24448 C 19188.189,761.57782 19186.855,754.91115 19186.855,748.24448 L 19186.855,520.24448 z " />
    <path
       id="o"
       d="M 19837.998,326.24448 C 19797.998,326.24448 19761.998,337.57782 19729.998,360.24448 C 19669.998,400.24448 19639.998,467.57782 19639.998,562.24448 C 19638.665,651.57782 19663.332,717.57782 19713.998,760.24448 C 19749.998,786.91115 19791.332,800.24448 19837.998,800.24448 C 19879.332,800.24448 19916.665,789.57782 19949.998,768.24448 C 20009.998,728.24448 20039.998,659.57782 20039.998,562.24448 C 20039.998,471.57782 20009.998,403.57782 19949.998,358.24448 C 19917.998,336.91115 19880.665,326.24448 19837.998,326.24448 z M 19743.998,570.24448 L 19743.998,562.24448 C 19743.998,504.91115 19758.665,466.91115 19787.998,448.24448 C 19803.998,437.57782 19820.665,432.24448 19837.998,432.24448 C 19903.332,432.24448 19935.998,475.57782 19935.998,562.24448 C 19935.998,651.57782 19903.332,696.24448 19837.998,696.24448 C 19775.332,696.24448 19743.998,654.24448 19743.998,570.24448 z " />
    <path
       id="p"
       d="M 20297.141,326.24448 L 20291.141,326.24448 C 20257.808,323.57782 20226.474,330.24448 20197.141,346.24448 C 20151.808,370.24448 20122.474,413.57782 20109.141,476.24448 C 20103.808,497.57782 20101.141,520.24448 20101.141,544.24448 L 20101.141,932.24448 C 20101.141,952.24448 20109.141,967.57782 20125.141,978.24448 C 20143.808,988.91115 20162.474,988.91115 20181.141,978.24448 C 20197.141,967.57782 20205.141,952.24448 20205.141,932.24448 L 20205.141,780.24448 C 20234.474,793.57782 20263.141,800.24448 20291.141,800.24448 C 20329.808,796.24448 20362.474,785.57782 20389.141,768.24448 C 20438.474,734.91115 20468.474,682.24448 20479.141,610.24448 C 20480.474,595.57782 20481.141,579.57782 20481.141,562.24448 C 20481.141,467.57782 20450.474,399.57782 20389.141,358.24448 C 20361.141,338.24448 20330.474,328.24448 20297.141,328.24448 L 20297.141,326.24448 z M 20205.141,608.24448 L 20205.141,544.24448 C 20205.141,488.24448 20219.141,453.57782 20247.141,440.24448 C 20259.141,433.57782 20271.808,430.91115 20285.141,432.24448 L 20291.141,432.24448 L 20313.141,436.24448 C 20354.474,454.91115 20375.141,496.91115 20375.141,562.24448 C 20375.141,619.57782 20360.474,658.91115 20331.141,680.24448 C 20317.808,689.57782 20304.474,694.24448 20291.141,694.24448 C 20247.141,687.57782 20220.474,672.24448 20211.141,648.24448 C 20207.141,637.57782 20205.141,624.24448 20205.141,608.24448 z " />
    <path
       id="q"
       d="M 20701.998,326.24448 L 20707.998,326.24448 C 20742.665,323.57782 20774.665,330.24448 20803.998,346.24448 C 20849.332,370.24448 20878.665,413.57782 20891.998,476.24448 C 20897.332,497.57782 20899.998,520.24448 20899.998,544.24448 L 20899.998,932.24448 C 20899.998,952.24448 20891.998,967.57782 20875.998,978.24448 C 20857.332,988.91115 20838.665,988.91115 20819.998,978.24448 C 20802.665,967.57782 20793.998,952.24448 20793.998,932.24448 L 20793.998,780.24448 C 20764.665,793.57782 20735.998,800.24448 20707.998,800.24448 C 20670.665,796.24448 20638.665,785.57782 20611.998,768.24448 C 20549.332,725.57782 20517.998,656.91115 20517.998,562.24448 C 20517.998,467.57782 20549.332,399.57782 20611.998,358.24448 C 20641.332,338.24448 20671.332,328.24448 20701.998,328.24448 L 20701.998,326.24448 z M 20793.998,608.24448 L 20793.998,544.24448 C 20795.332,488.24448 20781.998,453.57782 20753.998,440.24448 C 20741.998,433.57782 20729.332,430.91115 20715.998,432.24448 L 20707.998,432.24448 L 20687.998,436.24448 C 20681.332,438.91115 20674.665,442.24448 20667.998,446.24448 C 20638.665,466.24448 20623.998,504.91115 20623.998,562.24448 C 20623.998,619.57782 20638.665,658.91115 20667.998,680.24448 C 20683.998,689.57782 20697.332,694.24448 20707.998,694.24448 C 20726.665,691.57782 20741.998,686.91115 20753.998,680.24448 C 20772.665,672.24448 20784.665,661.57782 20789.998,648.24448 C 20792.665,637.57782 20793.998,624.24448 20793.998,608.24448 z " />
    <path
       id="r"
       d="M 21184.57,324.24448 C 21257.903,324.24448 21313.236,356.91115 21350.57,422.24448 C 21361.236,442.24448 21361.236,461.57782 21350.57,480.24448 C 21338.57,497.57782 21321.903,505.57782 21300.57,504.24448 C 21279.236,501.57782 21264.57,490.24448 21256.57,470.24448 C 21247.236,451.57782 21235.236,440.24448 21220.57,436.24448 C 21209.903,433.57782 21197.903,432.24448 21184.57,432.24448 C 21149.903,432.24448 21126.57,441.57782 21114.57,460.24448 C 21113.236,462.91115 21111.236,466.24448 21108.57,470.24448 C 21101.903,484.91115 21097.903,500.24448 21096.57,516.24448 L 21096.57,746.24448 C 21096.57,766.24448 21088.57,781.57782 21072.57,792.24448 C 21053.903,802.91115 21035.903,802.91115 21018.57,792.24448 C 21001.236,781.57782 20992.57,766.24448 20992.57,746.24448 L 20992.57,516.24448 C 20999.236,424.24448 21039.903,364.91115 21114.57,338.24448 C 21135.903,328.91115 21159.236,324.24448 21184.57,324.24448 z " />
    <path
       id="s"
       d="M 21574.319,322.24448 C 21612.986,322.24448 21646.319,329.57782 21674.319,344.24448 C 21719.652,369.57782 21738.986,398.24448 21732.319,430.24448 C 21729.652,450.24448 21716.986,463.57782 21694.319,470.24448 C 21674.319,475.57782 21657.652,470.91115 21644.319,456.24448 C 21625.652,428.24448 21595.652,416.91115 21554.319,422.24448 C 21551.652,422.24448 21549.652,422.91115 21548.319,424.24448 C 21525.652,426.91115 21510.319,438.24448 21502.319,458.24448 C 21498.319,468.91115 21499.652,480.24448 21506.319,492.24448 C 21522.319,502.91115 21548.319,507.57782 21584.319,506.24448 C 21605.652,506.24448 21621.652,507.57782 21632.319,510.24448 C 21674.986,514.24448 21709.652,535.57782 21736.319,574.24448 C 21753.652,598.24448 21761.652,624.24448 21760.319,652.24448 C 21761.652,694.91115 21744.319,730.24448 21708.319,758.24448 C 21693.652,768.91115 21678.319,776.91115 21662.319,782.24448 C 21591.652,804.91115 21528.986,804.91115 21474.319,782.24448 C 21430.319,760.91115 21404.319,735.57782 21396.319,706.24448 C 21390.986,683.57782 21399.652,665.57782 21422.319,652.24448 C 21443.652,638.91115 21462.986,639.57782 21480.319,654.24448 C 21482.986,655.57782 21484.986,656.91115 21486.319,658.24448 C 21508.986,687.57782 21548.986,697.57782 21606.319,688.24448 C 21628.986,686.91115 21644.319,678.24448 21652.319,662.24448 C 21657.652,652.91115 21657.652,642.91115 21652.319,632.24448 C 21640.319,618.91115 21618.986,612.24448 21588.319,612.24448 C 21521.652,614.91115 21472.986,601.57782 21442.319,572.24448 C 21408.986,544.24448 21393.652,507.57782 21396.319,462.24448 C 21396.319,432.91115 21404.986,406.91115 21422.319,384.24448 C 21452.986,341.57782 21502.319,320.91115 21570.319,322.24448 L 21574.319,322.24448 z " />
    <path
       id="t"
       d="M 21950.033,136.24448 C 21966.033,136.24448 21979.367,141.57782 21990.033,152.24448 C 22000.7,162.91115 22005.367,175.57782 22004.033,190.24448 L 22004.033,328.24448 L 22070.033,328.24448 C 22091.367,328.24448 22107.367,337.57782 22118.033,356.24448 C 22128.7,372.24448 22128.7,389.57782 22118.033,408.24448 C 22107.367,426.91115 22091.367,435.57782 22070.033,434.24448 L 22004.033,434.24448 L 22004.033,642.24448 C 22004.033,662.24448 22007.367,675.57782 22014.033,682.24448 C 22018.033,687.57782 22024.7,690.91115 22034.033,692.24448 C 22044.7,696.24448 22058.033,695.57782 22074.033,690.24448 C 22095.367,683.57782 22114.033,688.24448 22130.033,704.24448 C 22143.367,717.57782 22147.367,734.91115 22142.033,756.24448 C 22136.7,776.24448 22124.033,788.91115 22104.033,794.24448 L 22066.033,800.24448 C 22007.367,804.24448 21963.367,788.24448 21934.033,752.24448 C 21910.033,724.24448 21898.033,687.57782 21898.033,642.24448 L 21898.033,434.24448 L 21866.033,434.24448 C 21844.7,435.57782 21829.367,426.91115 21820.033,408.24448 C 21809.367,389.57782 21809.367,372.24448 21820.033,356.24448 C 21829.367,337.57782 21844.7,328.24448 21866.033,328.24448 L 21898.033,328.24448 L 21898.033,190.24448 C 21898.033,168.91115 21907.367,152.24448 21926.033,140.24448 C 21934.033,137.57782 21942.033,136.24448 21950.033,136.24448 z " />
    <path
       id="v"
       d="M 22288.953,316.24448 C 22311.62,314.91115 22328.286,324.24448 22338.953,344.24448 L 22342.953,352.24448 C 22372.286,478.91115 22398.953,571.57782 22422.953,630.24448 L 22438.953,662.24448 C 22441.62,666.24448 22444.286,664.24448 22446.953,656.24448 C 22476.286,593.57782 22507.62,498.91115 22540.953,372.24448 C 22543.62,345.57782 22555.62,328.24448 22576.953,320.24448 L 22584.953,316.24448 C 22607.62,310.91115 22626.953,318.24448 22642.953,338.24448 C 22653.62,350.24448 22657.62,363.57782 22654.953,378.24448 C 22640.286,443.57782 22620.286,514.91115 22594.953,592.24448 C 22568.286,665.57782 22546.286,715.57782 22528.953,742.24448 C 22523.62,750.24448 22518.286,757.57782 22512.953,764.24448 C 22494.286,789.57782 22469.62,801.57782 22438.953,800.24448 C 22432.286,800.24448 22425.62,798.91115 22418.953,796.24448 C 22385.62,785.57782 22356.286,753.57782 22330.953,700.24448 C 22328.286,696.24448 22326.286,691.57782 22324.953,686.24448 C 22292.953,611.57782 22262.953,510.91115 22234.953,384.24448 C 22229.62,361.57782 22236.953,342.24448 22256.953,326.24448 C 22266.286,318.24448 22276.953,314.91115 22288.953,316.24448 z " />
    <path
       id="x"
       d="M 22814.027,324.24448 C 22831.36,324.24448 22845.36,330.91115 22856.027,344.24448 L 22964.027,478.24448 L 23072.027,344.24448 C 23085.36,328.24448 23102.027,321.57782 23122.027,324.24448 C 23142.027,328.24448 23156.027,339.57782 23164.027,358.24448 C 23170.693,376.91115 23167.36,394.24448 23154.027,410.24448 L 23032.027,562.24448 L 23154.027,712.24448 C 23167.36,728.24448 23170.693,746.24448 23164.027,766.24448 C 23156.027,784.91115 23142.027,795.57782 23122.027,798.24448 C 23102.027,802.24448 23085.36,796.24448 23072.027,780.24448 L 22964.027,646.24448 L 22856.027,780.24448 C 22842.693,796.24448 22826.027,802.24448 22806.027,798.24448 C 22786.027,795.57782 22772.027,784.91115 22764.027,766.24448 C 22757.36,746.24448 22760.693,728.24448 22774.027,712.24448 L 22896.027,562.24448 L 22774.027,410.24448 C 22759.36,392.91115 22756.693,374.24448 22766.027,354.24448 C 22775.36,334.24448 22791.36,324.24448 22814.027,324.24448 z " />
    <path
       id="y"
       d="M 23574.884,378.24448 L 23574.884,770.24448 C 23574.884,850.24448 23557.551,906.91115 23522.884,940.24448 C 23494.884,969.57782 23448.884,984.24448 23384.884,984.24448 C 23323.551,992.24448 23267.551,980.91115 23216.884,950.24448 C 23199.551,939.57782 23190.884,924.24448 23190.884,904.24448 C 23190.884,882.91115 23200.217,867.57782 23218.884,858.24448 C 23236.217,847.57782 23253.551,848.24448 23270.884,860.24448 C 23292.217,872.24448 23328.217,878.24448 23378.884,878.24448 L 23382.884,878.24448 C 23417.551,878.24448 23439.551,873.57782 23448.884,864.24448 C 23460.884,853.57782 23466.884,825.57782 23466.884,780.24448 C 23429.551,798.91115 23389.551,804.24448 23346.884,796.24448 C 23261.551,773.57782 23210.884,712.24448 23194.884,612.24448 C 23192.217,596.24448 23190.884,579.57782 23190.884,562.24448 L 23190.884,378.24448 C 23190.884,354.24448 23201.551,337.57782 23222.884,328.24448 C 23228.217,325.57782 23234.884,324.24448 23242.884,324.24448 C 23258.884,324.24448 23272.217,329.57782 23282.884,340.24448 C 23293.551,350.91115 23298.884,363.57782 23298.884,378.24448 L 23298.884,562.24448 C 23298.884,619.57782 23313.551,658.91115 23342.884,680.24448 C 23356.217,689.57782 23369.551,694.24448 23382.884,694.24448 C 23400.217,692.91115 23414.884,688.24448 23426.884,680.24448 C 23445.551,672.24448 23457.551,661.57782 23462.884,648.24448 C 23465.551,637.57782 23466.884,624.24448 23466.884,608.24448 L 23466.884,378.24448 C 23466.884,358.24448 23476.217,342.24448 23494.884,330.24448 C 23513.551,320.91115 23530.884,320.91115 23546.884,330.24448 C 23565.551,342.24448 23574.884,358.24448 23574.884,378.24448 z " />
    <path
       id="z"
       d="M 23676.884,334.24448 L 23952.884,334.24448 C 23974.217,334.24448 23989.551,344.24448 23998.884,364.24448 C 24009.551,382.91115 24008.217,401.57782 23994.884,420.24448 L 23784.884,694.24448 L 23952.884,694.24448 C 23972.884,694.24448 23988.217,702.91115 23998.884,720.24448 C 24009.551,737.57782 24009.551,755.57782 23998.884,774.24448 C 23988.217,791.57782 23972.884,800.24448 23952.884,800.24448 L 23676.884,800.24448 C 23655.551,800.24448 23639.551,790.24448 23628.884,770.24448 C 23619.551,750.24448 23621.551,731.57782 23634.884,714.24448 L 23844.884,440.24448 L 23676.884,440.24448 C 23656.884,440.24448 23641.551,431.57782 23630.884,414.24448 C 23620.217,395.57782 23620.217,377.57782 23630.884,360.24448 C 23641.551,342.91115 23656.884,334.24448 23676.884,334.24448 z " />
    <path
       id="braceleft"
       d="M 24329.957,100.24448 L 24425.957,100.24448 C 24448.624,100.24448 24465.29,110.24448 24475.957,130.24448 C 24486.624,150.24448 24486.624,168.91115 24475.957,186.24448 C 24465.29,206.24448 24448.624,215.57782 24425.957,214.24448 L 24347.957,214.24448 L 24347.957,304.24448 C 24347.957,357.57782 24339.957,400.24448 24323.957,432.24448 C 24321.29,434.91115 24315.957,440.91115 24307.957,450.24448 C 24317.29,460.91115 24322.624,466.91115 24323.957,468.24448 C 24339.957,498.91115 24347.957,541.57782 24347.957,596.24448 L 24347.957,686.24448 L 24425.957,686.24448 C 24448.624,686.24448 24465.29,695.57782 24475.957,714.24448 C 24486.624,732.91115 24486.624,751.57782 24475.957,770.24448 C 24465.29,788.91115 24448.624,798.24448 24425.957,798.24448 L 24329.957,798.24448 C 24299.29,798.24448 24275.29,785.57782 24257.957,760.24448 C 24245.957,746.91115 24239.29,727.57782 24237.957,702.24448 C 24236.624,691.57782 24235.957,658.24448 24235.957,602.24448 C 24237.29,600.91115 24237.957,598.91115 24237.957,596.24448 C 24237.957,541.57782 24228.624,512.24448 24209.957,508.24448 C 24203.29,506.91115 24193.957,506.24448 24181.957,506.24448 C 24159.29,506.24448 24145.29,493.57782 24139.957,468.24448 C 24131.957,442.91115 24135.957,422.24448 24151.957,406.24448 C 24159.957,398.24448 24169.957,394.24448 24181.957,394.24448 C 24204.624,394.24448 24217.957,390.24448 24221.957,382.24448 C 24232.624,372.91115 24237.957,346.91115 24237.957,304.24448 L 24235.957,212.24448 C 24235.957,206.91115 24236.624,202.24448 24237.957,198.24448 C 24244.624,140.91115 24271.957,108.91115 24319.957,102.24448 C 24322.624,100.91115 24325.957,100.24448 24329.957,100.24448 z " />
    <path
       id="bar"
       d="M 24694.619,84.24448 C 24694.619,62.91115 24685.285,48.24448 24666.619,40.24448 C 24658.619,36.24448 24651.285,34.24448 24644.619,34.24448 C 24621.952,34.24448 24605.285,43.57782 24594.619,62.24448 C 24593.285,70.24448 24592.619,77.57782 24592.619,84.24448 L 24592.619,908.24448 C 24592.619,929.57782 24602.619,944.91115 24622.619,954.24448 C 24629.285,958.24448 24636.619,960.24448 24644.619,960.24448 C 24665.952,960.24448 24681.952,949.57782 24692.619,928.24448 C 24693.952,922.91115 24694.619,916.24448 24694.619,908.24448 L 24694.619,84.24448 z " />
    <path
       id="brokenbar"
       d="M 24865.473,566.24448 C 24865.473,546.24448 24855.473,530.91115 24835.473,520.24448 C 24828.807,517.57782 24821.473,516.24448 24813.473,516.24448 C 24790.807,516.24448 24774.807,525.57782 24765.473,544.24448 C 24762.807,552.24448 24761.473,559.57782 24761.473,566.24448 L 24761.473,746.24448 C 24761.473,768.91115 24771.473,784.91115 24791.473,794.24448 C 24798.14,796.91115 24805.473,798.24448 24813.473,798.24448 C 24837.473,798.24448 24853.473,787.57782 24861.473,766.24448 C 24864.14,760.91115 24865.473,754.24448 24865.473,746.24448 L 24865.473,566.24448 z M 24865.473,200.24448 C 24865.473,177.57782 24855.473,160.91115 24835.473,150.24448 C 24828.807,147.57782 24821.473,146.24448 24813.473,146.24448 C 24790.807,146.24448 24774.807,156.24448 24765.473,176.24448 C 24762.807,182.91115 24761.473,190.91115 24761.473,200.24448 L 24761.473,378.24448 C 24761.473,400.91115 24771.473,416.24448 24791.473,424.24448 C 24798.14,426.91115 24805.473,428.24448 24813.473,428.24448 C 24837.473,428.24448 24853.473,418.24448 24861.473,398.24448 C 24864.14,391.57782 24865.473,384.91115 24865.473,378.24448 L 24865.473,200.24448 z " />
    <path
       id="path1332"
       d="M 14168.735,173.94539 L 14003.597,267.91056 C 13983.896,279.12061 13964.795,279.25083 13946.292,268.30212 C 13927.789,257.3535 13918.558,241.12939 13918.597,219.62988 C 13919.795,197.47121 13929.666,181.11639 13948.207,170.56608 L 14113.345,76.600911 C 14131.887,66.050601 14150.409,66.249841 14168.912,77.198461 C 14187.415,88.147161 14196.646,104.37127 14196.607,125.8707 C 14196.567,147.37021 14187.277,163.39508 14168.735,173.94539 z " />
    <path
       d="M 14910.92,98.363151 C 14989.796,98.363151 15044.423,148.01339 15044.423,221.75425 C 15044.002,250.61898 15020.542,272.10026 14992.423,273.75425 C 14962.594,273.61819 14943.554,250.01049 14942.423,221.75425 C 14942.423,209.78548 14930.509,202.36315 14916.92,202.36315 C 14898.83,202.36315 14888.792,210.86768 14888.792,221.75425 C 14888.151,249.52636 14864.196,272.3368 14836.792,273.75425 C 14807.011,273.44909 14785.946,250.5902 14784.792,221.75425 C 14784.792,145.36853 14832.654,98.363151 14910.92,98.363151 z "
       id="path1336"
       sodipodi:nodetypes="ccccccccc" />
    <path
       sodipodi:nodetypes="ccccccccc"
       id="path1338"
       d="M 15007.743,818.61664 C 15005.612,897.46387 14954.505,950.73006 14880.791,948.73856 C 14851.948,947.53817 14831.108,923.50659 14830.214,895.35318 C 14831.156,865.53873 14855.269,847.14324 14883.546,846.77576 C 14895.51,847.099 14903.252,835.3898 14903.619,821.80576 C 14904.107,803.72236 14895.877,793.45834 14884.994,793.16433 C 14857.249,791.77353 14835.094,767.21123 14834.417,739.77894 C 14835.527,710.01705 14858.946,689.57708 14887.803,689.20226 C 14964.161,691.26519 15009.856,740.37919 15007.743,818.61664 z " />
    <path
       d="M 15677.407,152.5 L 15635.501,183.40625 C 15618.334,196.07003 15610.451,213.47962 15611.876,235.625 C 15614.373,256.97897 15625.459,271.99796 15645.126,280.6875 C 15664.791,289.37714 15683.759,286.98706 15702.001,273.53125 L 15771.751,222.09375 L 15838.97,270.9375 C 15856.227,283.47892 15875.195,285.70153 15895.876,277.65625 C 15915.479,268.82732 15926.436,253.74623 15928.782,232.375 C 15931.127,211.00367 15923.149,193.63844 15904.813,180.3125 L 15865.063,151.4375 C 15785.34,95.560975 15764.7,97.39769 15677.407,152.5 z "
       id="path1340"
       sodipodi:nodetypes="cccccccccccc" />
    <path
       d="M 16581.547,33.914179 C 16503.281,33.914179 16455.421,80.903462 16455.422,157.28918 C 16455.593,161.56165 16456.226,165.70805 16457.235,169.66418 C 16456.114,173.76632 16455.488,178.09152 16455.422,182.60168 C 16455.422,256.34268 16510.046,305.97669 16588.922,305.97668 C 16667.188,305.97668 16715.046,258.98768 16715.047,182.60168 C 16714.875,178.3063 16714.253,174.13952 16713.235,170.16418 C 16714.345,166.07942 16714.981,161.77783 16715.047,157.28918 C 16715.047,83.54832 16660.423,33.914177 16581.547,33.914179 z M 16585.891,137.91418 C 16586.44,137.89776 16586.982,137.91418 16587.547,137.91418 C 16601.136,137.91418 16613.046,145.32041 16613.047,157.28918 C 16613.174,160.46092 16613.541,163.5737 16614.109,166.60168 C 16612.262,171.64441 16611.176,177.02605 16611.047,182.60168 C 16611.047,193.48868 16601.012,201.97669 16582.922,201.97668 C 16569.333,201.97668 16557.421,194.57068 16557.422,182.60168 C 16557.295,179.4292 16556.928,176.31783 16556.359,173.28918 C 16558.208,168.2448 16559.293,162.86695 16559.422,157.28918 C 16559.422,146.74282 16568.856,138.42331 16585.891,137.91418 z "
       id="path1345" />
  </g>
</svg>
