<?xml version="1.0" encoding="UTF-8" standalone="no"?>
<!-- Created with Inkscape (http://www.inkscape.org/) -->
<svg
   xmlns:dc="http://purl.org/dc/elements/1.1/"
   xmlns:cc="http://web.resource.org/cc/"
   xmlns:rdf="http://www.w3.org/1999/02/22-rdf-syntax-ns#"
   xmlns:svg="http://www.w3.org/2000/svg"
   xmlns="http://www.w3.org/2000/svg"
   xmlns:sodipodi="http://sodipodi.sourceforge.net/DTD/sodipodi-0.dtd"
   xmlns:inkscape="http://www.inkscape.org/namespaces/inkscape"
   width="17000"
   height="1000"
   id="svg1282"
   sodipodi:version="0.32"
   inkscape:version="0.45"
   sodipodi:docname="_UbuntuTitle05_skinny_sketch.svg"
   sodipodi:docbase="/home/guest/Documents/Trabalhos/UbuntuTitleFont/svg_pesos/sketches_svg"
   inkscape:output_extension="org.inkscape.output.svg.inkscape"
   sodipodi:modified="true">
  <defs
     id="defs3" />
  <sodipodi:namedview
     inkscape:document-units="px"
     id="base"
     pagecolor="#ffffff"
     bordercolor="#666666"
     borderopacity="1.0"
     inkscape:pageopacity="0.0"
     inkscape:pageshadow="2"
     inkscape:zoom="0.16467349"
     inkscape:cx="11003.265"
     inkscape:cy="-64.586283"
     inkscape:current-layer="layer1"
     inkscape:window-width="1103"
     inkscape:window-height="651"
     inkscape:window-x="69"
     inkscape:window-y="53"
     showguides="true"
     inkscape:guide-bbox="true">
    <sodipodi:guide
       orientation="horizontal"
       position="200"
       id="guide1331" />
    <sodipodi:guide
       orientation="horizontal"
       position="869.80232"
       id="guide1641" />
  </sodipodi:namedview>
  <metadata
     id="metadata4">
    <rdf:RDF>
      <cc:Work
         rdf:about="">
        <dc:format>image/svg+xml</dc:format>
        <dc:type
           rdf:resource="http://purl.org/dc/dcmitype/StillImage" />
      </cc:Work>
    </rdf:RDF>
  </metadata>
  <g
     inkscape:label="Layer 1"
     inkscape:groupmode="layer"
     id="layer1">
    <path
       d="M 1622.3877,99.53125 C 1617.2126,99.53125 1615.4186,102.52824 1612.7119,106.19949 C 1590.6624,129.62578 1518.1689,256.59771 1518.1689,450.25 C 1518.1689,641.54048 1566.4702,740.71906 1614.2157,795.63626 C 1617.8247,800.81128 1617.2125,800.5 1622.3877,800.5 C 1627.5626,800.50002 1631.7627,796.3 1631.7627,791.125 C 1631.7627,786.60752 1630.3541,784.07796 1626.6999,780.43701 C 1563.355,700.07017 1540.82,574.99416 1536.0127,450.25 C 1536.0127,298.69859 1603.5695,142.72698 1627.4772,116.88027 C 1630.2964,113.69204 1631.7627,113.47147 1631.7627,108.90625 C 1631.7627,103.73125 1627.5626,99.531254 1622.3877,99.53125 z "
       id="parenleft"
       sodipodi:nodetypes="ccccsscccsc" />
    <path
       d="M 13374.199,326.5625 C 13284.721,326.5625 13217.48,392.75757 13217.48,562.25 C 13217.48,717.93275 13276.861,799.025 13372.23,799.025 C 13476.432,799.025 13531.324,715.65909 13531.324,562.25 C 13531.324,417.17103 13475.906,326.5625 13374.199,326.5625 z M 13375.086,345.40472 C 13456.328,345.40472 13513.48,416.57981 13513.48,562.25 C 13513.48,705.89363 13453.386,779.63281 13372.73,779.63281 C 13281.446,779.63281 13235.324,703.43359 13235.324,562.25 C 13235.324,419.28661 13283.258,345.40472 13375.086,345.40472 z "
       id="o"
       sodipodi:nodetypes="cccccccccc" />
    <path
       sodipodi:nodetypes="cccsccc"
       id="path1499"
       d="M 12296.37,145.42789 C 12291.195,145.42789 12286.995,149.6279 12286.995,154.80289 C 12286.995,154.80289 12286.995,788.56289 12286.995,788.56289 C 12286.995,793.73789 12291.195,797.93789 12296.37,797.93789 C 12301.545,797.93789 12305.745,793.73789 12305.745,788.56289 C 12305.745,788.56289 12305.745,154.80289 12305.745,154.80289 C 12305.745,149.62789 12301.545,145.4279 12296.37,145.42789 z "
       style="opacity:1;color:#000000;fill:#000000;fill-opacity:1;fill-rule:nonzero;stroke:none;stroke-width:1;stroke-linecap:butt;stroke-linejoin:miter;marker:none;marker-start:none;marker-mid:none;marker-end:none;stroke-miterlimit:4;stroke-dasharray:none;stroke-dashoffset:0;stroke-opacity:1;visibility:visible;display:inline;overflow:visible;enable-background:accumulate" />
    <path
       d="M 13692.373,326.5625 C 13602.895,326.5625 13541.854,392.75757 13541.854,562.25 C 13541.854,562.25 13541.854,976.68841 13541.854,976.68841 C 13541.854,981.86341 13546.054,986.06341 13551.229,986.06341 C 13556.404,986.06341 13560.604,981.86341 13560.604,976.68841 C 13560.604,976.68841 13560.604,721.0125 13560.604,721.0125 C 13574.834,774.11994 13626.67,799.03125 13690.404,799.03125 C 13794.606,799.03123 13833.898,715.65909 13833.898,562.25 C 13833.898,417.17103 13794.08,326.5625 13692.373,326.5625 z M 13693.248,345.40625 C 13774.49,345.40625 13816.054,416.57981 13816.054,562.25 C 13816.054,705.89363 13771.56,779.625 13690.904,779.625 C 13587.468,779.625 13559.698,703.35661 13559.698,624.33824 C 13559.698,425.12204 13598.385,345.40625 13693.248,345.40625 z "
       id="path1504"
       sodipodi:nodetypes="cccsccssccsssc" />
    <path
       sodipodi:nodetypes="cccsccssccsssc"
       id="path1510"
       d="M 13993.192,326.5625 C 14082.67,326.5625 14143.711,392.75757 14143.711,562.25 C 14143.711,562.25 14143.711,976.68841 14143.711,976.68841 C 14143.711,981.86341 14139.511,986.06341 14134.336,986.06341 C 14129.161,986.06341 14124.961,981.86341 14124.961,976.68841 C 14124.961,976.68841 14124.961,721.0125 14124.961,721.0125 C 14110.731,774.11994 14058.895,799.03125 13995.161,799.03125 C 13890.959,799.03123 13851.667,715.65909 13851.667,562.25 C 13851.667,417.17103 13891.485,326.5625 13993.192,326.5625 z M 13992.317,345.40625 C 13911.075,345.40625 13869.511,416.57981 13869.511,562.25 C 13869.511,705.89363 13914.005,779.625 13994.661,779.625 C 14098.097,779.625 14125.867,703.35661 14125.867,624.33824 C 14125.867,425.12204 14087.18,345.40625 13992.317,345.40625 z " />
    <path
       sodipodi:nodetypes="cccsccssccsssc"
       id="path1512"
       d="M 9722.8023,800.48418 C 9633.3243,800.48418 9572.2833,734.28911 9572.2833,564.79668 C 9572.2833,564.79668 9572.2833,150.35827 9572.2833,150.35827 C 9572.2833,145.18327 9576.4833,140.98327 9581.6583,140.98327 C 9586.8333,140.98327 9591.0333,145.18327 9591.0333,150.35827 C 9591.0333,150.35827 9591.0333,406.03418 9591.0333,406.03418 C 9605.2633,352.92674 9657.0993,328.01543 9720.8333,328.01543 C 9825.0353,328.01545 9864.3273,411.38759 9864.3273,564.79668 C 9864.3273,709.87565 9824.5093,800.48418 9722.8023,800.48418 z M 9723.6773,781.64043 C 9804.9193,781.64043 9846.4833,710.46687 9846.4833,564.79668 C 9846.4833,421.15305 9801.9893,347.42168 9721.3333,347.42168 C 9617.8973,347.42168 9590.1273,423.69007 9590.1273,502.70844 C 9590.1273,701.92464 9628.8143,781.64043 9723.6773,781.64043 z " />
    <path
       d="M 10330.31,800.48418 C 10419.788,800.48418 10480.829,734.28911 10480.829,564.79668 C 10480.829,564.79668 10480.829,150.35827 10480.829,150.35827 C 10480.829,145.18327 10476.629,140.98327 10471.454,140.98327 C 10466.279,140.98327 10462.079,145.18327 10462.079,150.35827 C 10462.079,150.35827 10462.079,406.03418 10462.079,406.03418 C 10447.849,352.92674 10396.013,328.01543 10332.279,328.01543 C 10228.077,328.01545 10188.785,411.38759 10188.785,564.79668 C 10188.785,709.87565 10228.603,800.48418 10330.31,800.48418 z M 10329.435,781.64043 C 10248.193,781.64043 10206.629,710.46687 10206.629,564.79668 C 10206.629,421.15305 10251.123,347.42168 10331.779,347.42168 C 10435.215,347.42168 10462.985,423.69007 10462.985,502.70844 C 10462.985,701.92464 10424.298,781.64043 10329.435,781.64043 z "
       id="path1516"
       sodipodi:nodetypes="cccsccssccsssc" />
    <path
       d="M 9381.6193,342.68168 C 9471.0973,342.68168 9523.2383,403.87668 9523.2383,573.36868 C 9523.2383,573.36868 9523.2383,803.50668 9523.2383,803.50668 C 9523.2383,808.68168 9519.0383,812.8817 9513.8633,812.8817 C 9508.6883,812.8817 9504.4883,808.68168 9504.4883,803.50668 C 9504.4883,803.50668 9504.4883,721.63168 9504.4883,721.63168 C 9490.2583,774.73868 9447.3223,799.64968 9383.5883,799.64968 C 9279.3863,799.64968 9244.7943,726.77768 9244.7943,573.36868 C 9244.7943,428.28968 9279.9123,342.68168 9381.6193,342.68168 z M 9380.7443,361.52468 C 9299.5023,361.52468 9262.6383,427.69868 9262.6383,573.36868 C 9262.6383,717.01268 9302.4323,780.24368 9383.0883,780.24368 C 9486.5243,780.24368 9505.3943,703.97568 9505.3943,624.95668 C 9505.3943,425.74068 9475.6073,361.52468 9380.7443,361.52468 z "
       id="path1518"
       sodipodi:nodetypes="cccsccssccsssc" />
    <path
       d="M 13046.479,332.9875 C 12944.772,332.9875 12904.067,418.59603 12904.066,563.675 C 12904.066,563.675 12904.066,790.6172 12904.066,790.6172 C 12904.066,795.79223 12908.266,799.9922 12913.441,799.9922 C 12918.616,799.99223 12922.816,795.7922 12922.816,790.6172 C 12922.816,790.6172 12921.91,563.675 12921.91,563.675 C 12921.91,418.005 12964.361,351.83125 13045.604,351.83125 C 13130.591,351.83125 13175.56,424.66827 13175.56,563.54369 C 13175.56,563.54369 13174.654,790 13174.654,790 C 13174.654,795.175 13178.853,799.37499 13184.029,799.375 C 13189.204,799.375 13193.403,795.17503 13193.404,790 C 13193.404,790 13193.404,563.675 13193.404,563.675 C 13193.404,404.07262 13135.956,332.98751 13046.479,332.9875 z "
       id="path1520"
       sodipodi:nodetypes="cccsccsccsccc" />
    <path
       style="opacity:1;color:#000000;fill:#000000;fill-opacity:1;fill-rule:nonzero;stroke:none;stroke-width:1;stroke-linecap:butt;stroke-linejoin:miter;marker:none;marker-start:none;marker-mid:none;marker-end:none;stroke-miterlimit:4;stroke-dasharray:none;stroke-dashoffset:0;stroke-opacity:1;visibility:visible;display:inline;overflow:visible;enable-background:accumulate"
       d="M 11792.301,324.18078 C 11787.126,324.18078 11782.926,328.38079 11782.926,333.55578 C 11782.926,333.55578 11782.926,790.84331 11782.926,790.84331 C 11782.926,796.01831 11787.126,800.21831 11792.301,800.21831 C 11797.476,800.21831 11801.676,796.01831 11801.676,790.84331 C 11801.676,790.84331 11801.676,333.55578 11801.676,333.55578 C 11801.676,328.38078 11797.476,324.18079 11792.301,324.18078 z "
       id="path1525"
       sodipodi:nodetypes="cccsccc" />
    <path
       d="M 12484.288,323 C 12382.58,323.00001 12367.883,418.60853 12367.881,563.6875 C 12367.882,563.68751 12367.881,790.625 12367.881,790.625 C 12367.882,795.80004 12372.082,800 12377.257,800 C 12382.432,800.00004 12386.631,795.8 12386.631,790.625 C 12386.632,790.62501 12385.725,563.6875 12385.725,563.6875 C 12385.726,418.01751 12414.264,341.84375 12483.413,341.84375 C 12568.468,341.84375 12598.381,434.55162 12598.381,517.53125 C 12598.381,517.53125 12598.975,644.625 12598.975,644.625 C 12598.975,649.80004 12603.175,654 12608.35,654 C 12613.525,654.00004 12617.725,649.8 12617.725,644.625 C 12617.725,644.62501 12616.819,517.6875 12616.819,517.6875 C 12616.819,429.72969 12643.329,341.84375 12718.507,341.84375 C 12790.072,341.84375 12824.475,424.65583 12824.475,563.53125 C 12824.475,563.53125 12823.569,790 12823.569,790 C 12823.569,795.175 12827.768,799.37499 12832.944,799.375 C 12838.119,799.375 12842.318,795.17503 12842.319,790 C 12842.319,790 12842.319,563.6875 12842.319,563.6875 C 12842.319,404.08513 12808.858,323 12719.381,323 C 12655.397,323 12620.309,363.09925 12607.038,432.75 C 12590.52,362.91739 12543.656,323 12484.288,323 z "
       id="path1530"
       sodipodi:nodetypes="cccsscsccsscsscsccscc" />
    <path
       transform="matrix(0.1540252,0,0,0.1540252,9133.4063,154.178)"
       d="M 17323.591 -87.17244 A 60.866673 60.866673 0 1 1  17201.858,-87.17244 A 60.866673 60.866673 0 1 1  17323.591 -87.17244 z"
       sodipodi:ry="60.866673"
       sodipodi:rx="60.866673"
       sodipodi:cy="-87.17244"
       sodipodi:cx="17262.725"
       id="path1534"
       style="opacity:1;fill:#aa0000;fill-opacity:1;stroke:none;stroke-width:0.1;stroke-miterlimit:4;stroke-dasharray:none;stroke-dashoffset:0;stroke-opacity:1"
       sodipodi:type="arc" />
    <path
       style="opacity:1;color:#000000;fill:#000000;fill-opacity:1;fill-rule:nonzero;stroke:none;stroke-width:1;stroke-linecap:butt;stroke-linejoin:miter;marker:none;marker-start:none;marker-mid:none;marker-end:none;stroke-miterlimit:4;stroke-dasharray:none;stroke-dashoffset:0;stroke-opacity:1;visibility:visible;display:inline;overflow:visible;enable-background:accumulate"
       d="M 11438.11,138.1375 C 11432.934,138.1375 11428.735,142.33751 11428.735,147.5125 C 11428.735,147.5125 11428.735,790.825 11428.735,790.825 C 11428.734,796.00004 11432.935,800.2 11438.11,800.2 C 11443.284,800.20004 11447.485,796 11447.485,790.825 C 11447.484,790.82501 11446.579,541.3875 11446.579,541.3875 C 11446.579,400.04715 11492.223,344.14375 11573.466,344.14375 C 11658.453,344.14376 11703.435,424.65583 11703.435,563.53125 C 11703.434,563.53124 11702.529,790.2 11702.529,790.2 C 11702.528,795.375 11706.727,799.57499 11711.903,799.575 C 11717.078,799.575 11721.277,795.37503 11721.279,790.2 C 11721.278,790.2 11721.279,563.6875 11721.279,563.6875 C 11721.278,404.08513 11663.818,325.30001 11574.341,325.3 C 11511.271,325.30001 11468.479,347.12389 11447.485,406.73125 C 11447.485,406.73125 11447.485,147.5125 11447.485,147.5125 C 11447.484,142.3375 11443.285,138.13751 11438.11,138.1375 z "
       id="path1536"
       sodipodi:nodetypes="cccsscsccsscsccc" />
    <path
       sodipodi:nodetypes="cccsccc"
       id="path1544"
       d="M 9169.4393,179.09357 C 9164.2643,179.09357 9160.0643,183.29358 9160.0643,188.46857 C 9160.0643,188.46857 9160.0643,382.15607 9160.0643,382.15607 C 9160.0643,387.33107 9164.2643,391.53107 9169.4393,391.53107 C 9174.6143,391.53107 9178.8143,387.33107 9178.8143,382.15607 C 9178.8143,382.15607 9178.8143,188.46857 9178.8143,188.46857 C 9178.8143,183.29357 9174.6143,179.09358 9169.4393,179.09357 z "
       style="opacity:1;color:#000000;fill:#000000;fill-opacity:1;fill-rule:nonzero;stroke:none;stroke-width:1;stroke-linecap:butt;stroke-linejoin:miter;marker:none;marker-start:none;marker-mid:none;marker-end:none;stroke-miterlimit:4;stroke-dasharray:none;stroke-dashoffset:0;stroke-opacity:1;visibility:visible;display:inline;overflow:visible;enable-background:accumulate" />
    <path
       style="opacity:1;color:#000000;fill:#000000;fill-opacity:1;fill-rule:nonzero;stroke:none;stroke-width:1;stroke-linecap:butt;stroke-linejoin:miter;marker:none;marker-start:none;marker-mid:none;marker-end:none;stroke-miterlimit:4;stroke-dasharray:none;stroke-dashoffset:0;stroke-opacity:1;visibility:visible;display:inline;overflow:visible;enable-background:accumulate"
       d="M 9218.8523,790.41732 C 9218.8523,785.24232 9214.6523,781.04232 9209.4773,781.04232 C 9209.4773,781.04232 8723.7893,781.04232 8723.7893,781.04232 C 8718.6143,781.04232 8714.4143,785.24232 8714.4143,790.41732 C 8714.4143,795.59232 8718.6143,799.79232 8723.7893,799.79232 C 8723.7893,799.79232 9209.4773,799.79232 9209.4773,799.79232 C 9214.6523,799.79232 9218.8523,795.59232 9218.8523,790.41732 z "
       id="path1546"
       sodipodi:nodetypes="cccsccc" />
    <path
       style="opacity:1;color:#000000;fill:#000000;fill-opacity:1;fill-rule:nonzero;stroke:none;stroke-width:1;stroke-linecap:butt;stroke-linejoin:miter;marker:none;marker-start:none;marker-mid:none;marker-end:none;stroke-miterlimit:4;stroke-dasharray:none;stroke-dashoffset:0;stroke-opacity:1;visibility:visible;display:inline;overflow:visible;enable-background:accumulate"
       d="M 373.37423,179.09357 C 368.19923,179.09357 363.99923,183.29358 363.99923,188.46857 C 363.99923,188.46857 363.99923,382.15607 363.99923,382.15607 C 363.99923,387.33107 368.19923,391.53107 373.37423,391.53107 C 378.54923,391.53107 382.74923,387.33107 382.74923,382.15607 C 382.74923,382.15607 382.74923,188.46857 382.74923,188.46857 C 382.74923,183.29357 378.54923,179.09358 373.37423,179.09357 z "
       id="path1548"
       sodipodi:nodetypes="cccsccc" />
    <path
       sodipodi:nodetypes="cccsccc"
       id="path1550"
       d="M 166.37423,179.09357 C 161.19923,179.09357 156.99923,183.29358 156.99923,188.46857 C 156.99923,188.46857 156.99923,382.15607 156.99923,382.15607 C 156.99923,387.33107 161.19923,391.53107 166.37423,391.53107 C 171.54923,391.53107 175.74923,387.33107 175.74923,382.15607 C 175.74923,382.15607 175.74923,188.46857 175.74923,188.46857 C 175.74923,183.29357 171.54923,179.09358 166.37423,179.09357 z "
       style="opacity:1;color:#000000;fill:#000000;fill-opacity:1;fill-rule:nonzero;stroke:none;stroke-width:1;stroke-linecap:butt;stroke-linejoin:miter;marker:none;marker-start:none;marker-mid:none;marker-end:none;stroke-miterlimit:4;stroke-dasharray:none;stroke-dashoffset:0;stroke-opacity:1;visibility:visible;display:inline;overflow:visible;enable-background:accumulate" />
    <path
       style="opacity:1;color:#000000;fill:#000000;fill-opacity:1;fill-rule:nonzero;stroke:none;stroke-width:1;stroke-linecap:butt;stroke-linejoin:miter;marker:none;marker-start:none;marker-mid:none;marker-end:none;stroke-miterlimit:4;stroke-dasharray:none;stroke-dashoffset:0;stroke-opacity:1;visibility:visible;display:inline;overflow:visible;enable-background:accumulate"
       d="M 100.45801,132.09357 C 95.283011,132.09357 91.083011,136.29358 91.083011,141.46857 C 91.083011,141.46857 91.083011,599.15607 91.083011,599.15607 C 91.083011,604.33107 95.283011,608.53107 100.45801,608.53107 C 105.63301,608.53107 109.83301,604.33107 109.83301,599.15607 C 109.83301,599.15607 109.83301,141.46857 109.83301,141.46857 C 109.83301,136.29357 105.63301,132.09358 100.45801,132.09357 z "
       id="path1552"
       sodipodi:nodetypes="cccsccc" />
    <path
       sodipodi:nodetypes="cccsccc"
       id="path1554"
       d="M 1483.9512,179.09357 C 1478.7762,179.09357 1474.5762,183.29358 1474.5762,188.46857 C 1474.5762,188.46857 1474.5762,382.15607 1474.5762,382.15607 C 1474.5762,387.33107 1478.7762,391.53107 1483.9512,391.53107 C 1489.1262,391.53107 1493.3262,387.33107 1493.3262,382.15607 C 1493.3262,382.15607 1493.3262,188.46857 1493.3262,188.46857 C 1493.3262,183.29357 1489.1262,179.09358 1483.9512,179.09357 z "
       style="opacity:1;color:#000000;fill:#000000;fill-opacity:1;fill-rule:nonzero;stroke:none;stroke-width:1;stroke-linecap:butt;stroke-linejoin:miter;marker:none;marker-start:none;marker-mid:none;marker-end:none;stroke-miterlimit:4;stroke-dasharray:none;stroke-dashoffset:0;stroke-opacity:1;visibility:visible;display:inline;overflow:visible;enable-background:accumulate" />
    <path
       style="opacity:1;color:#000000;fill:#000000;fill-opacity:1;fill-rule:nonzero;stroke:none;stroke-width:1;stroke-linecap:butt;stroke-linejoin:miter;marker:none;marker-start:none;marker-mid:none;marker-end:none;stroke-miterlimit:4;stroke-dasharray:none;stroke-dashoffset:0;stroke-opacity:1;visibility:visible;display:inline;overflow:visible;enable-background:accumulate"
       d="M 2283.5172,587.14896 C 2278.3422,587.14896 2274.1422,591.34897 2274.1422,596.52396 C 2274.1422,596.52396 2274.1422,790.21146 2274.1422,790.21146 C 2274.1422,795.38646 2278.3422,799.58646 2283.5172,799.58646 C 2288.6922,799.58646 2292.8922,795.38646 2292.8922,790.21146 C 2292.8922,790.21146 2292.8922,596.52396 2292.8922,596.52396 C 2292.8922,591.34896 2288.6922,587.14897 2283.5172,587.14896 z "
       id="path1556"
       sodipodi:nodetypes="cccsccc" />
    <path
       transform="matrix(0.1540252,0,0,0.1540252,10624.824,181.64476)"
       d="M 17323.591 -87.17244 A 60.866673 60.866673 0 1 1  17201.858,-87.17244 A 60.866673 60.866673 0 1 1  17323.591 -87.17244 z"
       sodipodi:ry="60.866673"
       sodipodi:rx="60.866673"
       sodipodi:cy="-87.17244"
       sodipodi:cx="17262.725"
       id="path1558"
       style="opacity:1;fill:#aa0000;fill-opacity:1;stroke:none;stroke-width:0.1;stroke-miterlimit:4;stroke-dasharray:none;stroke-dashoffset:0;stroke-opacity:1"
       sodipodi:type="arc" />
    <path
       sodipodi:type="arc"
       style="opacity:1;fill:#aa0000;fill-opacity:1;stroke:none;stroke-width:0.1;stroke-miterlimit:4;stroke-dasharray:none;stroke-dashoffset:0;stroke-opacity:1"
       id="path1560"
       sodipodi:cx="17262.725"
       sodipodi:cy="-87.17244"
       sodipodi:rx="60.866673"
       sodipodi:ry="60.866673"
       d="M 17323.591 -87.17244 A 60.866673 60.866673 0 1 1  17201.858,-87.17244 A 60.866673 60.866673 0 1 1  17323.591 -87.17244 z"
       transform="matrix(0.1540252,0,0,0.1540252,10800.714,181.64476)" />
    <path
       d="M 14328.156,324 C 14226.448,324.00001 14185.719,409.60853 14185.718,554.6875 C 14185.718,554.68751 14185.718,781.625 14185.718,781.625 C 14185.718,786.80004 14189.919,791 14195.093,791 C 14200.27,791.00004 14204.468,786.8 14204.468,781.625 C 14204.468,781.62501 14203.562,554.6875 14203.562,554.6875 C 14203.56,409.01751 14246.038,342.84375 14327.281,342.84375 C 14370.913,341.35014 14421.031,368.67435 14442.656,402.25 C 14447.419,407.70063 14445.201,407.74317 14452.281,408.65625 C 14457.456,408.65625 14461.657,404.45625 14461.656,399.28125 C 14461.432,393.42938 14458.285,390.4831 14455.406,386.625 C 14429.019,343.66336 14370.465,324 14328.156,324 z "
       id="path1562"
       sodipodi:nodetypes="cscssccccccc" />
    <path
       d="M 14612.389,324 C 14532.618,324 14474.952,360.70916 14474.952,443.6875 C 14474.952,534.96607 14525.384,567.125 14612.764,567.125 C 14683.184,567.125 14735.046,600.72533 14735.046,672.3125 C 14735.046,740.88166 14691.57,781.15625 14610.327,781.15625 C 14566.695,782.65024 14516.577,755.326 14494.952,721.75 C 14490.189,716.3 14492.407,716.25675 14485.327,715.34375 C 14480.152,715.34376 14475.951,719.54375 14475.952,724.71875 C 14476.176,730.57076 14479.323,733.517 14482.202,737.375 C 14508.589,780.337 14567.143,800 14609.452,800 C 14711.16,800 14752.889,754.05898 14752.889,672.3125 C 14752.889,582.70287 14691.527,545.875 14614.077,545.875 C 14521.696,545.875 14492.796,513.69846 14492.796,443.6875 C 14492.796,380.80877 14542.681,342.84375 14611.514,342.84375 C 14655.147,341.35014 14696.264,368.67435 14717.889,402.25 C 14722.653,407.70063 14720.434,407.74317 14727.514,408.65625 C 14732.69,408.65625 14736.89,404.45625 14736.889,399.28125 C 14736.666,393.42938 14733.518,390.4831 14730.639,386.625 C 14704.253,343.66336 14654.698,324 14612.389,324 z "
       id="path1575"
       sodipodi:nodetypes="cccccccccsccccccccc" />
    <path
       d="M 10014.388,324 C 9927.1613,324 9884.5133,410.91442 9884.5133,562 C 9884.5133,730.64328 9929.7803,800 10017.388,800 C 10059.697,800 10103.251,788.33664 10129.638,745.375 C 10132.517,741.5169 10135.664,738.57062 10135.888,732.71875 C 10135.889,727.54375 10131.688,723.34375 10126.513,723.34375 C 10119.433,724.25683 10121.651,724.29937 10116.888,729.75 C 10095.263,763.32565 10060.145,782.64986 10016.513,781.15625 C 9915.1533,781.15625 9901.1693,638.64231 9901.1693,562 C 9901.1693,453.50051 9932.8753,342.84375 10013.513,342.84375 C 10057.145,341.35014 10095.263,360.67435 10116.888,394.25 C 10121.651,399.70063 10119.433,399.74317 10126.513,400.65625 C 10131.688,400.65625 10135.889,396.45625 10135.888,391.28125 C 10135.664,385.42938 10132.517,382.4831 10129.638,378.625 C 10103.251,335.66336 10056.697,324 10014.388,324 z "
       id="path1580"
       sodipodi:nodetypes="ccccccccccccccc" />
    <path
       d="M 11863.766,324.1875 C 11858.59,324.18749 11854.391,328.38751 11854.391,333.5625 C 11854.391,485.94792 11854.391,790.71875 11854.391,790.71875 C 11854.391,790.71882 11854.391,790.84375 11854.391,790.84375 C 11854.391,892.72239 11851.959,962.5 11783.141,962.5 C 11762.944,962.5 11746.486,961.32671 11729.766,949.09375 C 11725.002,943.64278 11727.221,943.6005 11720.141,942.6875 C 11714.965,942.68751 11710.765,946.8875 11710.766,952.0625 C 11710.989,957.91451 11714.137,959.85973 11717.016,963.71875 C 11733.755,976.00361 11756.045,981.34375 11782.266,981.34375 C 11858.663,981.34375 11871.172,922.90588 11871.172,796.59375 C 11871.172,796.59375 11873.141,333.5625 11873.141,333.5625 C 11873.14,328.38749 11868.941,324.18751 11863.766,324.1875 z "
       id="path1585"
       sodipodi:nodetypes="cccccccccsccc" />
    <path
       sodipodi:type="arc"
       style="opacity:1;fill:#aa0000;fill-opacity:1;stroke:none;stroke-width:0.1;stroke-miterlimit:4;stroke-dasharray:none;stroke-dashoffset:0;stroke-opacity:1"
       id="path1589"
       sodipodi:cx="17262.725"
       sodipodi:cy="-87.17244"
       sodipodi:rx="60.866673"
       sodipodi:ry="60.866673"
       d="M 17323.591 -87.17244 A 60.866673 60.866673 0 1 1  17201.858,-87.17244 A 60.866673 60.866673 0 1 1  17323.591 -87.17244 z"
       transform="matrix(0.1540252,0,0,0.1540252,9204.8723,154.178)" />
    <path
       d="M 10991.008,136.25 C 10914.611,136.25 10902.102,194.688 10902.102,321 C 10902.102,321 10902.019,343.66294 10902.008,346.21875 C 10880.051,346.21875 10846.477,346.21875 10846.477,346.21875 C 10841.302,346.21877 10837.102,350.41875 10837.102,355.59375 C 10837.102,360.76877 10841.302,364.96875 10846.477,364.96875 C 10846.477,364.96875 10880.018,364.96875 10901.914,364.96875 C 10901.612,437.25544 10900.133,792.03125 10900.133,792.03125 C 10900.134,797.20626 10904.333,801.40625 10909.508,801.40625 C 10914.684,801.40626 10918.883,797.20625 10918.883,792.03125 C 10918.883,792.03126 10918.883,429.18864 10918.883,364.96875 C 10979.364,364.96875 11051.164,364.96875 11051.164,364.96875 C 11056.339,364.96877 11060.539,360.76875 11060.539,355.59375 C 11060.539,350.41877 11056.339,346.21875 11051.164,346.21875 C 11051.164,346.21876 10979.364,346.21875 10918.883,346.21875 C 10918.883,344.67681 10918.883,326.875 10918.883,326.875 C 10918.883,326.87499 10918.883,326.75 10918.883,326.75 C 10918.883,224.87199 10921.315,155.09375 10990.133,155.09375 C 11010.33,155.09374 11026.788,156.267 11043.508,168.5 C 11048.272,173.951 11046.053,173.99325 11053.133,174.90625 C 11058.309,174.90626 11062.509,170.70625 11062.508,165.53125 C 11062.285,159.67926 11059.137,157.734 11056.258,153.875 C 11039.519,141.591 11017.229,136.25 10991.008,136.25 z "
       id="path1592" />
    <path
       d="M 14929.622,800.43684 C 14853.225,800.43684 14840.716,741.99884 14840.716,615.68683 C 14840.716,615.68683 14840.633,349.02389 14840.622,346.46808 C 14818.665,346.46808 14762.091,346.46808 14762.091,346.46808 C 14756.916,346.46806 14752.716,342.26808 14752.716,337.09308 C 14752.716,331.91806 14756.916,327.71808 14762.091,327.71808 C 14762.091,327.71808 14818.632,327.71808 14840.528,327.71808 C 14840.528,327.71808 14838.747,144.65558 14838.747,144.65558 C 14838.748,139.48057 14842.947,135.28058 14848.122,135.28058 C 14853.298,135.28057 14857.497,139.48058 14857.497,144.65558 C 14857.497,144.65557 14857.497,327.71808 14857.497,327.71808 C 14917.978,327.71808 14970.778,327.71808 14970.778,327.71808 C 14975.953,327.71806 14980.153,331.91808 14980.153,337.09308 C 14980.153,342.26806 14975.953,346.46808 14970.778,346.46808 C 14970.778,346.46807 14917.978,346.46808 14857.497,346.46808 C 14857.497,348.01002 14857.497,609.81183 14857.497,609.81183 C 14857.497,609.81184 14857.497,609.93683 14857.497,609.93683 C 14857.497,711.81485 14859.929,781.59308 14928.747,781.59308 C 14948.944,781.59309 14965.402,780.41983 14982.122,768.18684 C 14986.886,762.73584 14984.667,762.69359 14991.747,761.78059 C 14996.923,761.78058 15001.123,765.98059 15001.122,771.15559 C 15000.899,777.00757 14997.751,778.95283 14994.872,782.81183 C 14978.133,795.09583 14955.843,800.43684 14929.622,800.43684 z "
       id="path1597"
       sodipodi:nodetypes="ccccscccssccsscccsccccc" />
    <path
       d="M 11238.196,323.0625 C 11148.718,323.06251 11091.477,391.2576 11091.477,560.75 C 11091.477,716.43278 11140.858,800.53124 11236.227,800.53125 C 11280.389,800.53125 11336.938,786.01425 11368.914,732.25 C 11368.914,732.25 11369.477,753.75 11369.477,753.75 C 11369.479,899.42001 11327.001,965.59375 11245.758,965.59375 C 11202.126,967.08774 11152.008,939.7635 11130.383,906.1875 C 11125.62,900.7365 11127.838,900.69425 11120.758,899.78125 C 11115.583,899.78125 11111.382,903.98125 11111.383,909.15625 C 11111.607,915.00825 11114.754,917.9545 11117.633,921.8125 C 11144.02,964.7745 11202.574,984.4375 11244.883,984.4375 C 11346.591,984.4375 11387.319,898.829 11387.32,753.75 C 11387.32,753.75 11387.32,560.75 11387.32,560.75 C 11387.32,380.88989 11339.902,323.0625 11238.196,323.0625 z M 11239.102,341.90625 C 11345.607,341.90625 11369.477,409.28264 11369.477,668.75 C 11369.477,720.95785 11317.383,781.125 11236.727,781.125 C 11145.443,781.12502 11109.32,701.9336 11109.32,560.75 C 11109.321,417.78658 11147.274,341.90625 11239.102,341.90625 z "
       id="path1599"
       sodipodi:nodetypes="csscccccccsccccsscc" />
    <path
       d="M 16044.189,323 C 16039.014,323 16034.814,327.2 16034.814,332.375 C 16034.814,332.375 16035.72,614.3125 16035.72,614.3125 C 16035.72,708.91577 15988.244,781.15625 15907.002,781.15625 C 15822.015,781.15627 15777.064,708.3135 15777.064,569.4375 C 15777.064,569.43753 15777.97,333 15777.97,333 C 15777.97,327.82499 15773.771,323.625 15768.595,323.625 C 15763.42,323.62499 15759.221,327.825 15759.22,333 C 15759.22,332.99999 15759.22,569.3125 15759.22,569.3125 C 15759.22,741.77247 15816.649,800 15906.126,800 C 15968.852,800 16021.005,762.8483 16036.158,713.53125 C 16036.158,713.53125 16035.72,747.25 16035.72,747.25 C 16035.722,892.91899 15978.244,966.09375 15897.002,966.09375 C 15853.369,967.58778 15801.252,940.2635 15779.626,906.6875 C 15774.863,901.23647 15777.082,901.19425 15770.002,900.28125 C 15764.826,900.28123 15760.625,904.48125 15760.626,909.65625 C 15760.85,915.50823 15763.997,918.4545 15766.876,922.3125 C 15793.263,965.27447 15853.817,984.9375 15896.126,984.9375 C 15997.834,984.93747 16053.563,892.328 16053.564,747.25 C 16053.564,747.25 16053.564,332.375 16053.564,332.375 C 16053.564,327.2 16049.364,323 16044.189,323 z "
       id="path1603"
       sodipodi:nodetypes="cccsscsscscccccccsccc" />
    <path
       style="opacity:1;color:#000000;fill:#000000;fill-opacity:1;fill-rule:nonzero;stroke:none;stroke-width:1;stroke-linecap:butt;stroke-linejoin:miter;marker:none;marker-start:none;marker-mid:none;marker-end:none;stroke-miterlimit:4;stroke-dasharray:none;stroke-dashoffset:0;stroke-opacity:1;visibility:visible;display:inline;overflow:visible;enable-background:accumulate"
       d="M 16690.151,34.42789 C 16684.976,34.42789 16680.776,38.6279 16680.776,43.80289 C 16680.776,43.80289 16680.776,950.56289 16680.776,950.56289 C 16680.776,955.73789 16684.976,959.93789 16690.151,959.93789 C 16695.326,959.93789 16699.526,955.73789 16699.526,950.56289 C 16699.526,950.56289 16699.526,43.80289 16699.526,43.80289 C 16699.526,38.62789 16695.326,34.4279 16690.151,34.42789 z "
       id="path1607"
       sodipodi:nodetypes="cccsccc" />
    <path
       d="M 10660.441,320 C 10573.213,320 10516.566,410.91442 10516.566,562 C 10516.565,730.64328 10592.833,800 10680.441,800 C 10722.749,800 10779.304,788.33664 10805.691,745.375 C 10808.569,741.5169 10811.717,738.57062 10811.941,732.71875 C 10811.941,727.54375 10807.741,723.34375 10802.566,723.34375 C 10795.485,724.25683 10797.704,724.29937 10792.941,729.75 C 10771.315,763.32565 10723.198,782.64986 10679.566,781.15625 C 10580.661,781.15625 10533.284,691.25886 10533.284,567.71875 C 10533.284,567.71875 10803.784,567.71875 10803.784,567.71875 C 10808.96,567.71876 10813.16,563.51875 10813.16,558.34375 C 10813.16,412.77476 10759.811,320 10660.441,320 z M 10663.628,338.75 C 10766.797,338.75 10795.691,474.0267 10795.691,548.96875 C 10795.691,548.96875 10533.41,548.96875 10533.41,548.96875 C 10538.318,475.94788 10563.097,340.12918 10663.628,338.75 z "
       id="path1609"
       sodipodi:nodetypes="ccsccccccccccccc" />
    <path
       style="opacity:1;color:#000000;fill:#000000;fill-opacity:1;fill-rule:nonzero;stroke:none;stroke-width:1;stroke-linecap:butt;stroke-linejoin:miter;marker:none;marker-start:none;marker-mid:none;marker-end:none;stroke-miterlimit:4;stroke-dasharray:none;stroke-dashoffset:0;stroke-opacity:1;visibility:visible;display:inline;overflow:visible;enable-background:accumulate"
       d="M 8537.8173,55.103659 C 8532.6423,55.103659 8528.4423,59.303649 8528.4423,64.478659 C 8528.4423,314.07241 8528.4423,541.66611 8528.4423,791.25991 C 8528.4423,796.43491 8532.6423,800.63491 8537.8173,800.63491 C 8537.8173,800.63491 8680.5053,800.63491 8680.5053,800.63491 C 8685.6803,800.63491 8689.8793,796.43491 8689.8793,791.25991 C 8689.8803,786.08491 8685.6793,781.88491 8680.5053,781.88491 C 8680.5053,781.88491 8547.1923,781.88491 8547.1923,781.88491 C 8547.1923,781.88491 8547.1923,73.853659 8547.1923,73.853659 C 8547.1923,73.853659 8680.5053,73.853649 8680.5053,73.853659 C 8685.6793,73.853659 8689.8803,69.653649 8689.8793,64.478659 C 8689.8793,59.303659 8685.6803,55.103649 8680.5053,55.103659 C 8680.5053,55.103659 8537.8173,55.103649 8537.8173,55.103659 z "
       id="path1613"
       sodipodi:nodetypes="cccccscccsscc" />
    <path
       sodipodi:nodetypes="cccsccc"
       id="path1628"
       d="M 16750.567,515.83779 C 16745.392,515.83779 16741.192,520.0378 16741.192,525.21279 C 16741.192,525.21279 16741.192,788.97279 16741.192,788.97279 C 16741.192,794.14779 16745.392,798.34779 16750.567,798.34779 C 16755.742,798.34779 16759.942,794.14779 16759.942,788.97279 C 16759.942,788.97279 16759.942,525.21279 16759.942,525.21279 C 16759.942,520.03779 16755.742,515.8378 16750.567,515.83779 z "
       style="opacity:1;color:#000000;fill:#000000;fill-opacity:1;fill-rule:nonzero;stroke:none;stroke-width:1;stroke-linecap:butt;stroke-linejoin:miter;marker:none;marker-start:none;marker-mid:none;marker-end:none;stroke-miterlimit:4;stroke-dasharray:none;stroke-dashoffset:0;stroke-opacity:1;visibility:visible;display:inline;overflow:visible;enable-background:accumulate" />
    <path
       style="opacity:1;color:#000000;fill:#000000;fill-opacity:1;fill-rule:nonzero;stroke:none;stroke-width:1;stroke-linecap:butt;stroke-linejoin:miter;marker:none;marker-start:none;marker-mid:none;marker-end:none;stroke-miterlimit:4;stroke-dasharray:none;stroke-dashoffset:0;stroke-opacity:1;visibility:visible;display:inline;overflow:visible;enable-background:accumulate"
       d="M 16750.567,146.51666 C 16745.392,146.51666 16741.192,150.71667 16741.192,155.89166 C 16741.192,155.89166 16741.192,419.65166 16741.192,419.65166 C 16741.192,424.82666 16745.392,429.02666 16750.567,429.02666 C 16755.742,429.02666 16759.942,424.82666 16759.942,419.65166 C 16759.942,419.65166 16759.942,155.89166 16759.942,155.89166 C 16759.942,150.71666 16755.742,146.51667 16750.567,146.51666 z "
       id="path1630"
       sodipodi:nodetypes="cccsccc" />
    <path
       transform="matrix(0.1540252,0,0,0.1540252,-2558.4366,804.05175)"
       style="fill:#aa0000;fill-opacity:1;stroke:none;stroke-width:0.1;stroke-miterlimit:4;stroke-dashoffset:0;stroke-opacity:1"
       d="M 17323.591,-87.17244 C 17323.591,-53.574036 17296.323,-26.305767 17262.725,-26.305767 C 17229.126,-26.305767 17201.858,-53.574036 17201.858,-87.17244 C 17201.858,-120.77084 17229.126,-148.03911 17262.725,-148.03911 C 17296.323,-148.03911 17323.591,-120.77084 17323.591,-87.17244 z "
       id="path1633" />
    <path
       transform="matrix(0.1540252,0,0,0.1540252,-282.00189,804.05175)"
       style="fill:#aa0000;fill-opacity:1;stroke:none;stroke-width:0.1;stroke-miterlimit:4;stroke-dashoffset:0;stroke-opacity:1"
       d="M 17323.591,-87.17244 C 17323.591,-53.574036 17296.323,-26.305767 17262.725,-26.305767 C 17229.126,-26.305767 17201.858,-53.574036 17201.858,-87.17244 C 17201.858,-120.77084 17229.126,-148.03911 17262.725,-148.03911 C 17296.323,-148.03911 17323.591,-120.77084 17323.591,-87.17244 z "
       id="path1635" />
    <path
       style="opacity:1;color:#000000;fill:#000000;fill-opacity:1;fill-rule:nonzero;stroke:none;stroke-width:1;stroke-linecap:butt;stroke-linejoin:miter;marker:none;marker-start:none;marker-mid:none;marker-end:none;stroke-miterlimit:4;stroke-dasharray:none;stroke-dashoffset:0;stroke-opacity:1;visibility:visible;display:inline;overflow:visible;enable-background:accumulate"
       d="M 11941.099,130.5 C 11935.924,130.5 11931.725,134.70001 11931.725,139.875 C 11931.725,139.875 11931.725,790.625 11931.725,790.625 C 11931.724,795.8 11935.925,800 11941.099,800 C 11946.274,800 11950.475,795.8 11950.475,790.625 C 11950.474,790.625 11950.474,667.39947 11950.475,565.5625 C 11961.631,554.83803 11984.197,533.14753 12006.099,512.09375 C 12052.864,576.14861 12213.225,795.8125 12213.225,795.8125 C 12216.268,799.99909 12222.131,800.94805 12226.318,797.90625 C 12230.503,794.86443 12231.452,788.99912 12228.412,784.8125 C 12228.412,784.81249 12064.86,560.74962 12019.756,498.96875 C 12099.307,422.49981 12208.569,317.46876 12208.568,317.46875 C 12212.289,313.8736 12212.38,307.94115 12208.787,304.21875 C 12205.192,300.49611 12199.264,300.40571 12195.537,304 C 12195.537,304 11950.475,539.5625 11950.475,539.5625 C 11950.475,539.5625 11950.475,139.875 11950.475,139.875 C 11950.474,134.7 11946.274,130.50001 11941.099,130.5 z "
       id="path1637"
       sodipodi:nodetypes="cccsscccsscsscccc" />
    <path
       sodipodi:nodetypes="cccsccc"
       id="path1647"
       d="M 2522.7483,561.35537 C 2522.7483,556.18037 2518.5483,551.98037 2513.3733,551.98037 C 2513.3733,551.98037 2319.6858,551.98037 2319.6858,551.98037 C 2314.5108,551.98037 2310.3108,556.18037 2310.3108,561.35537 C 2310.3108,566.53037 2314.5108,570.73037 2319.6858,570.73037 C 2319.6858,570.73037 2513.3733,570.73037 2513.3733,570.73037 C 2518.5483,570.73037 2522.7483,566.53037 2522.7483,561.35537 z "
       style="opacity:1;color:#000000;fill:#000000;fill-opacity:1;fill-rule:nonzero;stroke:none;stroke-width:1;stroke-linecap:butt;stroke-linejoin:miter;marker:none;marker-start:none;marker-mid:none;marker-end:none;stroke-miterlimit:4;stroke-dasharray:none;stroke-dashoffset:0;stroke-opacity:1;visibility:visible;display:inline;overflow:visible;enable-background:accumulate" />
    <path
       style="opacity:1;color:#000000;fill:#000000;fill-opacity:1;fill-rule:nonzero;stroke:none;stroke-width:1;stroke-linecap:butt;stroke-linejoin:miter;marker:none;marker-start:none;marker-mid:none;marker-end:none;stroke-miterlimit:4;stroke-dasharray:none;stroke-dashoffset:0;stroke-opacity:1;visibility:visible;display:inline;overflow:visible;enable-background:accumulate"
       d="M 2230.5263,158.96875 C 2225.3513,158.96875 2221.1513,163.16876 2221.1513,168.34375 C 2221.1513,168.34375 2221.1513,284.70146 2221.1513,400.71875 C 2105.134,400.71875 1988.7763,400.71875 1988.7763,400.71875 C 1983.6012,400.71874 1979.4013,404.91875 1979.4013,410.09375 C 1979.4012,415.26874 1983.6013,419.46875 1988.7763,419.46875 C 1988.7762,419.46874 2105.134,419.46875 2221.1513,419.46875 C 2221.1513,535.48604 2221.1513,651.84375 2221.1513,651.84375 C 2221.1513,657.01874 2225.3513,661.21875 2230.5263,661.21875 C 2235.7013,661.21874 2239.9013,657.01875 2239.9013,651.84375 C 2239.9013,651.84374 2239.9013,535.48604 2239.9013,419.46875 C 2355.9186,419.46875 2472.2763,419.46875 2472.2763,419.46875 C 2477.4512,419.46874 2481.6513,415.26875 2481.6513,410.09375 C 2481.6512,404.91874 2477.4513,400.71875 2472.2763,400.71875 C 2472.2762,400.71874 2355.9186,400.71875 2239.9013,400.71875 C 2239.9013,284.70146 2239.9013,168.34375 2239.9013,168.34375 C 2239.9013,163.16875 2235.7013,158.96876 2230.5263,158.96875 z "
       id="path1649" />
    <path
       style="opacity:1;color:#000000;fill:#000000;fill-opacity:1;fill-rule:nonzero;stroke:none;stroke-width:1;stroke-linecap:butt;stroke-linejoin:miter;marker:none;marker-start:none;marker-mid:none;marker-end:none;stroke-miterlimit:4;stroke-dasharray:none;stroke-dashoffset:0;stroke-opacity:1;visibility:visible;display:inline;overflow:visible;enable-background:accumulate"
       d="M 1738.0927,7.25 C 1736.5814,7.2889929 1735.0557,7.6914012 1733.6552,8.5 C 1729.1735,11.087516 1727.6613,16.830819 1730.249,21.3125 C 1730.2489,21.3125 1780.8195,108.91973 1830.8427,195.5625 C 1730.792,195.5625 1629.624,195.5625 1629.624,195.5625 C 1624.4489,195.5625 1620.249,199.7625 1620.249,204.9375 C 1620.2489,210.1125 1624.4489,214.3125 1629.624,214.3125 C 1629.6239,214.3125 1730.5445,214.3125 1830.8427,214.3125 C 1780.8195,300.95528 1730.249,388.5625 1730.249,388.5625 C 1727.6614,393.04417 1729.1735,398.7875 1733.6552,401.375 C 1738.1369,403.96249 1743.8802,402.41918 1746.4677,397.9375 C 1746.4677,397.93749 1797.0671,310.3344 1847.0927,223.6875 C 1897.2386,310.54535 1947.6864,397.9375 1947.6864,397.9375 C 1950.2739,402.41919 1956.0171,403.96251 1960.499,401.375 C 1964.9807,398.78748 1966.5241,393.04418 1963.9364,388.5625 C 1963.9365,388.56249 1913.3372,300.95939 1863.3114,214.3125 C 1963.3621,214.3125 2064.5302,214.3125 2064.5302,214.3125 C 2069.7053,214.3125 2073.9052,210.1125 2073.9052,204.9375 C 2073.9053,199.7625 2069.7052,195.5625 2064.5302,195.5625 C 2064.5302,195.5625 1963.6105,195.5625 1863.3114,195.5625 C 1913.3371,108.9156 1963.9364,21.3125 1963.9364,21.3125 C 1966.5241,16.83082 1964.9806,11.0875 1960.499,8.5 C 1956.0173,5.9125002 1950.274,7.455819 1947.6864,11.9375 C 1947.6864,11.9375 1897.1159,99.544716 1847.0927,186.1875 C 1796.9421,99.326504 1746.4677,11.9375 1746.4677,11.9375 C 1744.6887,8.8563446 1741.4176,7.1642155 1738.0927,7.25 z "
       id="path1653" />
    <path
       style="opacity:1;color:#000000;fill:#000000;fill-opacity:1;fill-rule:nonzero;stroke:none;stroke-width:1;stroke-linecap:butt;stroke-linejoin:miter;marker:none;marker-start:none;marker-mid:none;marker-end:none;stroke-miterlimit:4;stroke-dasharray:none;stroke-dashoffset:0;stroke-opacity:1;visibility:visible;display:inline;overflow:visible;enable-background:accumulate"
       d="M 15429.652,324.38349 C 15428.141,324.42248 15426.615,324.82489 15425.215,325.63349 C 15420.733,328.221 15419.221,333.9643 15421.808,338.44599 C 15421.808,338.44599 15565.615,561.5695 15565.615,561.5695 C 15565.615,561.5695 15421.808,784.69599 15421.808,784.69599 C 15419.221,789.17766 15420.733,794.92099 15425.215,797.50849 C 15429.696,800.09598 15435.44,798.55267 15438.027,794.07099 C 15438.027,794.07098 15576.652,579.82099 15576.652,579.82099 C 15576.652,579.82099 15720.246,794.07099 15720.246,794.07099 C 15722.833,798.55268 15728.576,800.096 15733.058,797.50849 C 15737.54,794.92097 15739.083,789.17767 15736.496,784.69599 C 15736.496,784.69598 15588.583,561.87024 15588.583,561.87024 C 15588.583,561.87024 15736.496,338.44599 15736.496,338.44599 C 15739.083,333.96431 15737.54,328.22099 15733.058,325.63349 C 15728.577,323.04599 15722.833,324.5893 15720.246,329.07099 C 15720.246,329.07099 15576.652,542.32099 15576.652,542.32099 C 15576.652,542.32099 15438.027,329.07099 15438.027,329.07099 C 15436.248,325.98983 15432.977,324.2977 15429.652,324.38349 z "
       id="path1662"
       sodipodi:nodetypes="cscccssccssccscccc" />
    <path
       style="opacity:1;color:#000000;fill:#000000;fill-opacity:1;fill-rule:nonzero;stroke:none;stroke-width:1;stroke-linecap:butt;stroke-linejoin:miter;marker:none;marker-start:none;marker-mid:none;marker-end:none;stroke-miterlimit:4;stroke-dasharray:none;stroke-dashoffset:0;stroke-opacity:1;visibility:visible;display:inline;overflow:visible;enable-background:accumulate"
       d="M 6914.5237,439.09777 C 6914.5237,439.09777 7216.1552,796.0154 7216.1552,796.0154 C 7218.7422,800.4971 7224.4852,802.0405 7228.9672,799.4529 C 7233.4492,796.8654 7234.9922,791.1221 7232.4052,786.6404 C 7232.4052,786.6404 6933.5937,428.26953 6933.5937,428.26953 C 6933.5937,428.26953 7232.4052,69.3904 7232.4052,69.3904 C 7234.9922,64.9088 7233.4492,59.1654 7228.9672,56.5779 C 7224.4852,53.9904 7218.7422,55.5338 7216.1552,60.0154 C 7216.1552,60.0154 6914.8937,418.26685 6914.8937,418.26685 C 6907.9537,427.28559 6908.9267,431.69924 6914.5237,439.09777 z "
       id="path1664"
       sodipodi:nodetypes="ccscccsccc" />
    <path
       style="opacity:1;color:#000000;fill:#000000;fill-opacity:1;fill-rule:nonzero;stroke:none;stroke-width:1;stroke-linecap:butt;stroke-linejoin:miter;marker:none;marker-start:none;marker-mid:none;marker-end:none;stroke-miterlimit:4;stroke-dasharray:none;stroke-dashoffset:0;stroke-opacity:1;visibility:visible;display:inline;overflow:visible;enable-background:accumulate"
       d="M 15038.601,316 C 15037.091,316.03901 15035.565,316.4415 15034.164,317.25 C 15029.683,319.83761 15028.17,325.5809 15030.758,330.0625 C 15030.758,521.38702 15140.986,803.15625 15197.32,803.15625 C 15257.942,803.15625 15363.445,517.58332 15363.445,330.0625 C 15366.033,325.58091 15364.49,319.8375 15360.008,317.25 C 15355.526,314.66251 15349.782,316.2059 15347.195,320.6875 C 15347.195,510.13007 15236.406,778.9375 15196.601,778.9375 C 15162.162,778.9375 15046.977,515.99904 15046.977,320.6875 C 15045.198,317.60641 15041.927,315.9143 15038.601,316 z "
       id="path1666"
       sodipodi:nodetypes="cscccscscc" />
    <path
       style="opacity:1;color:#000000;fill:#000000;fill-opacity:1;fill-rule:nonzero;stroke:none;stroke-width:1;stroke-linecap:butt;stroke-linejoin:miter;marker:none;marker-start:none;marker-mid:none;marker-end:none;stroke-miterlimit:4;stroke-dasharray:none;stroke-dashoffset:0;stroke-opacity:1;visibility:visible;display:inline;overflow:visible;enable-background:accumulate"
       d="M 16131.506,334.69662 C 16126.332,334.69663 16122.131,338.89662 16122.131,344.07162 C 16122.132,349.24663 16126.331,353.44662 16131.506,353.44662 C 16131.507,353.44663 16392.725,353.44662 16392.725,353.44662 C 16392.725,353.44662 16122.287,780.16537 16122.287,780.16537 C 16115.162,794.50338 16126.956,801.32162 16137.818,801.32162 C 16137.819,801.32164 16400.756,801.32162 16400.756,801.32162 C 16405.93,801.32164 16410.131,797.12162 16410.131,791.94662 C 16410.13,786.77164 16405.931,782.57162 16400.756,782.57162 C 16400.755,782.57164 16142.537,782.57162 16142.537,782.57162 C 16142.537,782.57162 16412.943,355.82162 16412.943,355.82162 C 16420.068,341.48385 16408.274,334.69662 16397.412,334.69662 C 16397.411,334.69663 16131.506,334.69662 16131.506,334.69662 z "
       id="path1668"
       sodipodi:nodetypes="cssccscssccsc" />
    <path
       id="path1686"
       d="M 5901.9489,116.82416 C 5901.9489,116.82416 5465.7299,116.82416 5465.7299,116.82416 C 5460.5549,116.82416 5456.3549,121.02416 5456.3549,126.19916 C 5456.3549,131.37416 5460.5549,135.57416 5465.7299,135.57416 C 5465.7299,135.57416 5901.9489,135.57416 5901.9489,135.57416 C 5901.9489,135.57416 5457.3549,796.82416 5457.3549,796.82416 C 5454.7679,801.30586 5456.2799,807.04916 5460.7609,809.63666 C 5465.2429,812.22416 5470.9859,810.68086 5473.5739,806.19916 C 5473.5739,806.19916 5918.1989,144.94916 5918.1989,144.94916 C 5930.2576,126.19032 5924.1112,116.82416 5901.9489,116.82416 z "
       style="opacity:1;color:#000000;fill:#000000;fill-opacity:1;fill-rule:nonzero;stroke:none;stroke-width:1;stroke-linecap:butt;stroke-linejoin:miter;marker:none;marker-start:none;marker-mid:none;marker-end:none;stroke-miterlimit:4;stroke-dasharray:none;stroke-dashoffset:0;stroke-opacity:1;visibility:visible;display:inline;overflow:visible;enable-background:accumulate"
       sodipodi:nodetypes="ccscccsccc" />
    <path
       style="opacity:1;color:#000000;fill:#000000;fill-opacity:1;fill-rule:nonzero;stroke:none;stroke-width:1;stroke-linecap:butt;stroke-linejoin:miter;marker:none;marker-start:none;marker-mid:none;marker-end:none;stroke-miterlimit:4;stroke-dasharray:none;stroke-dashoffset:0;stroke-opacity:1;visibility:visible;display:inline;overflow:visible;enable-background:accumulate"
       d="M 16506.766,100.5625 C 16501.591,100.5625 16497.391,104.76249 16497.391,109.9375 C 16497.391,322.74183 16486.304,439.96875 16457.391,439.96875 C 16415.762,439.96875 16405.641,439.96875 16405.641,439.96875 C 16400.467,439.96876 16396.266,444.16875 16396.266,449.34375 C 16396.267,454.51876 16400.466,458.71875 16405.641,458.71875 C 16405.641,458.71876 16457.391,458.71875 16457.391,458.71875 C 16487.336,458.71875 16497.391,552.83566 16497.391,788.71875 C 16497.391,793.89376 16501.591,798.09375 16506.766,798.09375 C 16506.766,798.09376 16649.453,798.09375 16649.453,798.09375 C 16654.629,798.09376 16658.829,793.89375 16658.829,788.71875 C 16658.829,783.54376 16654.628,779.34375 16649.453,779.34375 C 16649.454,779.34376 16516.141,779.34375 16516.141,779.34375 C 16516.141,582.28198 16508.943,467.59636 16480.141,448.71875 C 16509.575,431.26354 16516.141,300.48359 16516.141,119.3125 C 16516.141,119.3125 16649.453,119.31249 16649.453,119.3125 C 16654.628,119.3125 16658.83,115.11249 16658.829,109.9375 C 16658.828,104.7625 16654.629,100.56249 16649.453,100.5625 C 16649.454,100.5625 16506.766,100.56249 16506.766,100.5625 z "
       id="path1688"
       sodipodi:nodetypes="ccccssccscsscccsssc" />
    <path
       style="opacity:1;color:#000000;fill:#000000;fill-opacity:1;fill-rule:nonzero;stroke:none;stroke-width:1;stroke-linecap:butt;stroke-linejoin:miter;marker:none;marker-start:none;marker-mid:none;marker-end:none;stroke-miterlimit:4;stroke-dasharray:none;stroke-dashoffset:0;stroke-opacity:1;visibility:visible;display:inline;overflow:visible;enable-background:accumulate"
       d="M 584.77765,89.5 C 579.60268,89.500001 575.40265,93.70001 575.40265,98.875 C 575.40266,98.875001 575.40265,298.0625 575.40265,298.0625 C 575.40265,298.0625 418.90265,298.0625 418.90265,298.0625 C 413.72768,298.06251 409.52766,302.2625 409.52765,307.4375 C 409.52768,312.61251 413.72766,316.8125 418.90265,316.8125 C 418.90266,316.8125 575.40265,316.8125 575.40265,316.8125 C 575.40265,316.8125 575.40265,590.0625 575.40265,590.0625 C 575.40265,590.0625 418.90265,590.0625 418.90265,590.0625 C 413.72768,590.06248 409.52766,594.2625 409.52765,599.4375 C 409.52768,604.61248 413.72766,608.8125 418.90265,608.8125 C 418.90266,608.81249 575.40265,608.8125 575.40265,608.8125 C 575.40265,608.8125 575.40265,790.5625 575.40265,790.5625 C 575.40268,795.73747 579.60265,799.9375 584.77765,799.9375 C 589.95268,799.93747 594.15265,795.7375 594.15265,790.5625 C 594.15266,790.56249 594.15265,608.8125 594.15265,608.8125 C 594.15265,608.8125 828.4026,608.8125 828.4026,608.8125 C 828.4026,608.8125 828.4026,790.5625 828.4026,790.5625 C 828.4027,795.73747 832.6027,799.9375 837.7776,799.9375 C 842.9527,799.93747 847.1526,795.7375 847.1526,790.5625 C 847.1527,790.56249 847.1526,608.8125 847.1526,608.8125 C 847.1526,608.8125 1002.5902,608.8125 1002.5902,608.8125 C 1007.7653,608.81248 1011.9652,604.6125 1011.9652,599.4375 C 1011.9652,594.26248 1007.7653,590.0625 1002.5902,590.0625 C 1002.5902,590.06249 847.1526,590.0625 847.1526,590.0625 C 847.1526,590.0625 847.1526,316.8125 847.1526,316.8125 C 847.1526,316.8125 1002.5902,316.8125 1002.5902,316.8125 C 1007.7653,316.81251 1011.9652,312.6125 1011.9652,307.4375 C 1011.9652,302.26251 1007.7653,298.0625 1002.5902,298.0625 C 1002.5902,298.0625 847.1526,298.0625 847.1526,298.0625 C 847.1526,298.0625 847.1526,98.875 847.1526,98.875 C 847.1527,93.700004 842.9527,89.50001 837.7776,89.5 C 832.6027,89.500001 828.4026,93.70001 828.4026,98.875 C 828.4027,98.875001 828.4026,298.0625 828.4026,298.0625 C 828.4026,298.0625 594.15265,298.0625 594.15265,298.0625 C 594.15265,298.0625 594.15265,98.875 594.15265,98.875 C 594.15268,93.700004 589.95265,89.50001 584.77765,89.5 z M 594.15265,316.8125 C 594.15265,316.8125 828.4026,316.8125 828.4026,316.8125 C 828.4026,316.8125 828.4026,590.0625 828.4026,590.0625 C 828.4026,590.0625 594.15265,590.0625 594.15265,590.0625 C 594.15265,590.0625 594.15265,316.8125 594.15265,316.8125 z "
       id="path1693"
       sodipodi:nodetypes="csccsscccssccsscccssccsscccscccssccccccccc" />
    <path
       sodipodi:nodetypes="cccsccc"
       id="path1711"
       d="M 7447.8592,306.89913 C 7447.8592,301.72413 7443.6592,297.52413 7438.4842,297.52413 C 7438.4842,297.52413 7120.7962,297.52413 7120.7962,297.52413 C 7115.6212,297.52413 7111.4212,301.72413 7111.4212,306.89913 C 7111.4212,312.07413 7115.6212,316.27413 7120.7962,316.27413 C 7120.7962,316.27413 7438.4842,316.27413 7438.4842,316.27413 C 7443.6592,316.27413 7447.8592,312.07413 7447.8592,306.89913 z "
       style="opacity:1;color:#000000;fill:#000000;fill-opacity:1;fill-rule:nonzero;stroke:none;stroke-width:1;stroke-linecap:butt;stroke-linejoin:miter;marker:none;marker-start:none;marker-mid:none;marker-end:none;stroke-miterlimit:4;stroke-dasharray:none;stroke-dashoffset:0;stroke-opacity:1;visibility:visible;display:inline;overflow:visible;enable-background:accumulate" />
    <path
       style="opacity:1;color:#000000;fill:#000000;fill-opacity:1;fill-rule:nonzero;stroke:none;stroke-width:1;stroke-linecap:butt;stroke-linejoin:miter;marker:none;marker-start:none;marker-mid:none;marker-end:none;stroke-miterlimit:4;stroke-dasharray:none;stroke-dashoffset:0;stroke-opacity:1;visibility:visible;display:inline;overflow:visible;enable-background:accumulate"
       d="M 7447.8592,542.5621 C 7447.8592,537.3871 7443.6592,533.1871 7438.4842,533.1871 C 7438.4842,533.1871 7120.7962,533.1871 7120.7962,533.1871 C 7115.6212,533.1871 7111.4212,537.3871 7111.4212,542.5621 C 7111.4212,547.7371 7115.6212,551.9371 7120.7962,551.9371 C 7120.7962,551.9371 7438.4842,551.9371 7438.4842,551.9371 C 7443.6592,551.9371 7447.8592,547.7371 7447.8592,542.5621 z "
       id="path1713"
       sodipodi:nodetypes="cccsccc" />
    <path
       style="opacity:1;color:#000000;fill:#000000;fill-opacity:1;fill-rule:nonzero;stroke:none;stroke-width:1;stroke-linecap:butt;stroke-linejoin:miter;marker:none;marker-start:none;marker-mid:none;marker-end:none;stroke-miterlimit:4;stroke-dasharray:none;stroke-dashoffset:0;stroke-opacity:1;visibility:visible;display:inline;overflow:visible;enable-background:accumulate"
       d="M 6893.0357,800.943 C 6887.8607,800.943 6883.6607,796.743 6883.6607,791.568 C 6883.6607,791.568 6883.6607,598.88054 6883.6607,598.88054 C 6883.6607,593.70554 6887.8607,589.50554 6893.0357,589.50554 C 6898.2107,589.50554 6902.4107,593.70554 6902.4107,598.88054 C 6902.4107,598.88054 6902.4107,791.568 6902.4107,791.568 C 6902.4107,796.743 6898.2107,800.943 6893.0357,800.943 z "
       id="path1374"
       sodipodi:nodetypes="cccsccc" />
    <path
       transform="matrix(0.1540252,0,0,-0.1540252,4234.1416,365.98486)"
       d="M 17323.591 -87.17244 A 60.866673 60.866673 0 1 1  17201.858,-87.17244 A 60.866673 60.866673 0 1 1  17323.591 -87.17244 z"
       sodipodi:ry="60.866673"
       sodipodi:rx="60.866673"
       sodipodi:cy="-87.17244"
       sodipodi:cx="17262.725"
       id="path1376"
       style="opacity:1;fill:#aa0000;fill-opacity:1;stroke:none;stroke-width:0.1;stroke-miterlimit:4;stroke-dasharray:none;stroke-dashoffset:0;stroke-opacity:1"
       sodipodi:type="arc" />
    <path
       sodipodi:type="arc"
       style="opacity:1;fill:#aa0000;fill-opacity:1;stroke:none;stroke-width:0.1;stroke-miterlimit:4;stroke-dasharray:none;stroke-dashoffset:0;stroke-opacity:1"
       id="path1378"
       sodipodi:cx="17262.725"
       sodipodi:cy="-87.17244"
       sodipodi:rx="60.866673"
       sodipodi:ry="60.866673"
       d="M 17323.591 -87.17244 A 60.866673 60.866673 0 1 1  17201.858,-87.17244 A 60.866673 60.866673 0 1 1  17323.591 -87.17244 z"
       transform="matrix(0.1540252,0,0,-0.1540252,4194.0153,406.11114)" />
    <path
       transform="matrix(0.1540252,0,0,-0.1540252,4194.0153,636.11114)"
       d="M 17323.591 -87.17244 A 60.866673 60.866673 0 1 1  17201.858,-87.17244 A 60.866673 60.866673 0 1 1  17323.591 -87.17244 z"
       sodipodi:ry="60.866673"
       sodipodi:rx="60.866673"
       sodipodi:cy="-87.17244"
       sodipodi:cx="17262.725"
       id="path1381"
       style="opacity:1;fill:#aa0000;fill-opacity:1;stroke:none;stroke-width:0.1;stroke-miterlimit:4;stroke-dasharray:none;stroke-dashoffset:0;stroke-opacity:1"
       sodipodi:type="arc" />
    <path
       d="M 8064.5429,150.03125 C 7895.8989,150.03125 7746.5429,273.74188 7746.5429,555.90625 C 7746.5429,770.82331 7872.2059,853.76925 7915.1679,880.15625 C 7919.0259,883.03525 7921.9719,886.18225 7927.8239,886.40625 C 7932.9989,886.40725 7937.1989,882.20625 7937.1989,877.03125 C 7936.2859,869.95125 7936.2429,872.16925 7930.7929,867.40625 C 7897.2169,845.78125 7765.3859,748.9124 7765.3859,555.03125 C 7765.3859,291.09351 7909.0769,166.6875 8064.5429,166.6875 C 8242.0639,166.6875 8386.6989,301.36476 8386.6989,552.03125 C 8386.6989,749.62063 8334.0249,882.53125 8256.4179,882.53125 C 8212.8039,882.53125 8196.0119,839.93728 8196.0119,795.7081 C 8196.0119,795.7081 8196.0119,540.15626 8196.0119,540.15625 C 8196.0119,370.66425 8143.8639,322.46875 8054.3859,322.46875 C 7952.6789,322.46875 7917.5739,395.07726 7917.5739,540.15625 C 7917.5739,693.56525 7952.1529,775.43751 8056.3549,775.4375 C 8120.0889,775.4375 8163.0319,741.54451 8177.2619,688.4375 C 8177.2619,688.4375 8177.2619,807.21071 8177.2619,807.2107 C 8179.2989,845.43596 8194.9569,901.40625 8255.7189,901.40625 C 8381.7909,901.40625 8405.5429,723.0883 8405.5429,552.90625 C 8405.5429,308.02314 8277.2079,150.03125 8064.5429,150.03125 z M 8053.5119,341.3125 C 8148.3739,341.3125 8178.1679,392.534 8178.1679,591.75 C 8178.1679,670.769 8159.2909,756.03126 8055.8549,756.03125 C 7975.1989,756.03125 7935.4179,683.80026 7935.4179,540.15625 C 7935.4179,394.48625 7972.2689,341.31251 8053.5119,341.3125 z "
       id="path1383"
       sodipodi:nodetypes="cscccccscccssssccccccsssc" />
    <path
       sodipodi:nodetypes="ccccccsscc"
       id="path1389"
       d="M 3313.6448,102.10366 C 3318.8198,102.10366 3323.0198,106.30365 3323.0198,111.47866 C 3323.0198,361.07241 3323.0198,540.66611 3323.0198,790.25991 C 3323.0198,795.43491 3318.8198,799.63491 3313.6448,799.63491 C 3307.7222,799.37915 3304.7389,795.82788 3303.8402,790.25991 C 3303.8402,790.25991 3304.2698,120.85366 3304.2698,120.85366 C 3304.2698,120.85366 3222.9568,120.85365 3222.9568,120.85366 C 3217.7828,120.85366 3213.5818,116.65365 3213.5828,111.47866 C 3213.5828,106.30366 3217.7818,102.10365 3222.9568,102.10366 C 3222.9568,102.10366 3313.6448,102.10365 3313.6448,102.10366 z "
       style="opacity:1;color:#000000;fill:#000000;fill-opacity:1;fill-rule:nonzero;stroke:none;stroke-width:1;stroke-linecap:butt;stroke-linejoin:miter;marker:none;marker-start:none;marker-mid:none;marker-end:none;stroke-miterlimit:4;stroke-dasharray:none;stroke-dashoffset:0;stroke-opacity:1;visibility:visible;display:inline;overflow:visible;enable-background:accumulate" />
    <path
       style="opacity:1;color:#000000;fill:#000000;fill-opacity:1;fill-rule:nonzero;stroke:none;stroke-width:1;stroke-linecap:butt;stroke-linejoin:miter;marker:none;marker-start:none;marker-mid:none;marker-end:none;stroke-miterlimit:4;stroke-dasharray:none;stroke-dashoffset:0;stroke-opacity:1;visibility:visible;display:inline;overflow:visible;enable-background:accumulate"
       d="M 4544.7919,98.625 C 4541.4651,98.540991 4538.1961,100.23133 4536.4169,103.3125 C 4536.4169,103.3125 4208.7919,575.5625 4208.7919,575.5625 C 4196.7332,594.32141 4202.8796,603.6875 4225.0419,603.6875 C 4225.0419,603.6875 4414.6485,603.6875 4534.3231,603.6875 C 4534.3231,676.15953 4534.3231,786.46875 4534.3231,786.46875 C 4534.3233,791.64378 4538.5231,795.84375 4543.6981,795.84375 C 4548.8733,795.84378 4553.0731,791.64375 4553.0731,786.46875 C 4553.0732,786.46876 4553.0731,676.15953 4553.0731,603.6875 C 4584.114,603.6875 4644.2606,603.6875 4644.2606,603.6875 C 4649.4354,603.68751 4653.6356,599.4875 4653.6356,594.3125 C 4653.6354,589.13751 4649.4356,584.9375 4644.2606,584.9375 C 4644.2606,584.9375 4553.0731,584.9375 4553.0731,584.9375 C 4553.0731,584.9375 4553.0731,107.71875 4553.0731,107.71875 C 4553.0731,101.22225 4551.7388,98.625 4544.7919,98.625 z M 4534.3231,139.09375 C 4534.3232,169.08574 4534.3232,397.51767 4534.3231,584.9375 C 4414.6485,584.9375 4225.0419,584.9375 4225.0419,584.9375 C 4225.0419,584.93751 4501.6728,186.16145 4534.3231,139.09375 z "
       id="path1391"
       sodipodi:nodetypes="ccccccssccscccccccc" />
    <path
       style="opacity:1;color:#000000;fill:#000000;fill-opacity:1;fill-rule:nonzero;stroke:none;stroke-width:1;stroke-linecap:butt;stroke-linejoin:miter;marker:none;marker-start:none;marker-mid:none;marker-end:none;stroke-miterlimit:4;stroke-dasharray:none;stroke-dashoffset:0;stroke-opacity:1;visibility:visible;display:inline;overflow:visible;enable-background:accumulate"
       d="M 1255.089,106.21875 C 1249.9139,106.21875 1245.714,110.41876 1245.714,115.59375 C 1245.714,115.59375 1245.714,184.30176 1245.714,204.53125 C 1245.714,204.53125 1172.9457,204.53125 1172.9457,204.53125 C 1097.8917,204.53125 1049.5577,257.94787 1049.5577,330.5691 C 1049.2572,415.87345 1093.728,464.65625 1176.4117,464.65625 C 1176.4117,464.65625 1245.714,464.65625 1245.714,464.65625 C 1245.714,563.32265 1245.714,633.0606 1245.714,685.46875 C 1162.6005,685.46875 1078.589,685.46875 1078.589,685.46875 C 1073.414,685.46877 1069.214,689.66875 1069.214,694.84375 C 1069.214,700.01877 1073.414,704.21875 1078.589,704.21875 C 1078.589,704.21876 1162.6004,704.21875 1245.714,704.21875 C 1245.714,722.71166 1245.714,795.28125 1245.714,795.28125 C 1245.7139,800.45625 1249.914,804.65625 1255.089,804.65625 C 1260.2639,804.65625 1264.464,800.45625 1264.464,795.28125 C 1264.464,795.28125 1264.464,704.21875 1264.464,704.21875 C 1264.464,704.21875 1338.8829,704.21875 1338.8829,704.21875 C 1405.0817,704.21875 1463.2059,656.22898 1459.839,568.03878 C 1459.839,471.56031 1373.9385,445.90625 1339.6963,445.90625 C 1339.6963,445.90625 1264.464,445.90625 1264.464,445.90625 C 1264.464,445.90625 1264.464,282.64847 1264.464,223.28125 C 1344.9812,223.28125 1426.8703,223.28125 1426.8703,223.28125 C 1432.0453,223.28125 1436.2451,219.08125 1436.2453,213.90625 C 1436.2453,208.73125 1432.045,204.53125 1426.8703,204.53125 C 1426.8703,204.53125 1344.9812,204.53125 1264.464,204.53125 C 1264.464,184.30176 1264.464,115.59375 1264.464,115.59375 C 1264.4639,110.41875 1260.264,106.21876 1255.089,106.21875 z M 1068.3077,329.40526 C 1068.3077,274.703 1108.7744,223.28125 1183.8767,223.28125 C 1183.8767,223.28125 1245.714,223.28125 1245.714,223.28125 C 1245.714,223.28125 1245.714,445.90625 1245.714,445.90625 C 1245.714,445.90625 1186.1248,445.90625 1186.1248,445.90625 C 1101.259,445.90625 1068.3077,396.6087 1068.3077,329.40526 z M 1264.464,464.65625 C 1264.464,464.65625 1331.326,464.65625 1331.326,464.65625 C 1389.4712,464.65625 1441.1203,504.82055 1441.1203,570.10035 C 1441.1203,638.5641 1407.1471,685.46875 1327.9519,685.46875 C 1327.9519,685.46875 1264.464,685.46875 1264.464,685.46875 C 1264.464,685.46875 1264.464,464.65625 1264.464,464.65625 z "
       id="path1396"
       sodipodi:nodetypes="cccccccccssccsccccccccscccccscccccccscc" />
    <path
       d="M 7584.6439,83 C 7492.8825,83 7413.144,131.84846 7413.1439,207.28125 C 7413.1428,212.45625 7417.343,216.65625 7422.5189,216.65625 C 7429.5988,215.74317 7427.38,215.70063 7432.1439,210.25 C 7432.1439,136.54392 7507.7741,101.84375 7585.5189,101.84375 C 7673.8731,101.84375 7742.2376,148.76763 7742.2376,227.6875 C 7742.2376,310.19415 7713.3374,353.87499 7620.9563,353.875 C 7543.5064,353.875 7500.144,390.70286 7500.1439,480.3125 C 7500.1439,480.3125 7499.6751,576.84375 7499.6751,576.84375 C 7499.675,582.01873 7503.875,586.21875 7509.0501,586.21875 C 7514.225,586.21873 7518.4251,582.01875 7518.4251,576.84375 C 7518.4251,576.84375 7517.9876,480.3125 7517.9876,480.3125 C 7517.9876,408.72533 7551.8489,375.12499 7622.2689,375.125 C 7709.6489,375.125 7760.0813,335.00721 7760.0813,227.6875 C 7760.0813,130.45037 7689.0782,83.000002 7584.6439,83 z "
       id="path1371"
       sodipodi:nodetypes="ccccscsccsccssc" />
    <path
       d="M 4633.9821,104.4375 C 4628.8076,104.43749 4624.6071,108.63749 4624.6071,113.8125 C 4624.6076,113.81249 4624.6071,396.59375 4624.6071,396.59375 C 4624.6076,401.76875 4628.8071,405.96875 4633.9821,405.96875 C 4633.9825,405.96875 4752.0446,405.96875 4752.0446,405.96875 C 4941.1756,405.96875 4995.9821,459.56405 4995.9821,596.84375 C 4995.9823,704.93787 4937.9637,781.6875 4779.2634,781.6875 C 4689.1181,781.6875 4642.7946,740.28719 4642.7946,663.21875 C 4642.7946,658.04375 4638.5945,653.84378 4633.4196,653.84375 C 4628.2445,653.84375 4624.0445,658.04378 4624.0446,663.21875 C 4624.0446,767.0371 4696.1528,800.53125 4778.3884,800.53125 C 4955.57,800.53126 5013.8258,716.69739 5013.8258,596.84375 C 5013.8261,439.45637 4946.9687,386.40625 4758.0134,386.40625 C 4758.0136,386.40626 4643.3571,387.21875 4643.3571,387.21875 C 4643.3576,387.21875 4643.3571,123.1875 4643.3571,123.1875 C 4643.3576,123.18749 5005.6696,123.18749 5005.6696,123.1875 C 5010.8436,123.18749 5015.0455,118.98749 5015.0446,113.8125 C 5015.0445,108.63749 5010.8446,104.43749 5005.6696,104.4375 C 5005.6696,104.43749 4633.9821,104.43749 4633.9821,104.4375 z "
       id="path1373"
       sodipodi:nodetypes="cscsccccscccsccsssc" />
    <path
       d="M 3550.7923,99.40625 C 3423.9719,99.40625 3352.5423,124.05033 3352.5423,243.65625 C 3352.5423,248.83125 3356.7423,253.03124 3361.9173,253.03125 C 3367.0921,253.03125 3371.2923,248.83124 3371.2923,243.65625 C 3371.2923,139.5583 3443.1128,118.25 3551.6673,118.25 C 3673.1242,118.25 3720.386,187.93715 3720.386,318.09375 C 3720.3862,431.05251 3675.0843,484.28125 3549.1047,484.28125 C 3419.2687,484.28126 3351.2923,559.12233 3351.2923,684.71875 C 3351.292,684.71873 3351.0735,786.84375 3351.0735,786.84375 C 3351.0736,792.01875 3355.2735,796.21875 3360.4485,796.21875 C 3360.4486,796.21875 3729.2297,796.21875 3729.2297,796.21875 C 3734.4048,796.21875 3738.6047,792.01875 3738.6047,786.84375 C 3738.3491,780.92115 3734.7978,777.9612 3729.2297,777.0625 C 3729.2298,777.06246 3369.8235,777.46875 3369.8235,777.46875 C 3369.8237,777.46873 3369.136,684.71875 3369.136,684.71875 C 3369.1362,560.80982 3451.9978,505.53126 3550.4173,505.53125 C 3684.5146,505.53123 3738.2297,450.55649 3738.2297,318.09375 C 3738.2299,164.18369 3680.9753,99.40625 3550.7923,99.40625 z "
       id="path1375"
       sodipodi:nodetypes="ccscccsccsccsccscc" />
    <path
       sodipodi:nodetypes="cccccccccc"
       id="path1377"
       d="M 3023.6376,104.32036 C 2901.6617,104.32036 2804.9186,205.62489 2804.9186,454.00786 C 2804.9186,695.23662 2881.8943,800.78286 3021.6686,800.78286 C 3175.3996,800.78286 3244.7626,679.20689 3244.7626,454.00786 C 3244.7626,220.04798 3147.559,104.32036 3023.6376,104.32036 z M 3024.5246,123.16258 C 3121.1377,123.16258 3226.9186,233.18406 3226.9186,454.00786 C 3226.9186,681.39614 3147.2416,781.39067 3022.1686,781.39067 C 2898.4346,781.39067 2822.7626,689.01201 2822.7626,454.00786 C 2822.7626,205.00843 2932.6966,123.16258 3024.5246,123.16258 z " />
    <path
       d="M 5244.8806,106.53125 C 5143.1726,106.53125 5062.4441,192.13975 5062.4431,337.21875 C 5062.4431,337.21875 5062.4431,530.21875 5062.4431,530.21875 C 5062.4431,732.86058 5112.0687,800.90625 5244.5681,800.90625 C 5365.2657,800.90625 5426.2869,748.34757 5426.2869,624.21875 C 5426.287,495.75073 5363.504,444.43762 5246.5369,444.4375 C 5142.3008,444.4375 5108.5057,472.99104 5080.8493,485.71875 C 5080.8496,485.71875 5080.2869,337.21875 5080.2869,337.21875 C 5080.285,191.54875 5162.7626,125.375 5244.0056,125.375 C 5345.3842,125.375 5403.8493,219.31136 5403.8493,309.09375 C 5403.8493,314.26875 5408.0493,318.46874 5413.2243,318.46875 C 5418.3994,318.46875 5422.5993,314.26874 5422.5993,309.09375 C 5422.5993,196.4962 5364.5023,106.53125 5244.8806,106.53125 z M 5246.0369,463.84375 C 5355.7007,463.84375 5408.4431,516.29794 5408.4431,624.21875 C 5408.4431,728.81123 5356.9756,782.0625 5243.6619,782.0625 C 5104.7555,782.0625 5080.2869,674.43724 5080.2869,533.0201 C 5080.2869,509.86891 5124.038,463.84375 5246.0369,463.84375 z "
       id="path1384"
       sodipodi:nodetypes="cccscsccccscccsssc" />
    <path
       d="M 6138.1211,100.7102 C 5982.4383,100.7102 5934.3399,189.0912 5934.3399,284.4602 C 5934.3401,366.13279 5952.5456,436.52918 6048.5587,454.92895 C 5957.7276,475.56534 5933.8711,539.25796 5933.8711,611.74145 C 5933.871,715.94348 5994.2121,801.8352 6147.6211,801.8352 C 6292.7006,801.83517 6351.3087,715.4172 6351.3087,613.7102 C 6351.309,541.77918 6340.5159,472.20711 6235.6837,452.3977 C 6322.6533,432.11403 6335.8087,362.84457 6335.8087,286.42895 C 6335.8085,196.95094 6307.6137,100.7102 6138.1211,100.7102 z M 6138.1211,118.55395 C 6281.0844,118.55394 6316.9649,195.5071 6316.9649,287.3352 C 6316.9653,368.57721 6283.7914,444.7102 6138.1211,444.7102 C 5994.4774,444.71019 5953.7461,365.6162 5953.7461,284.9602 C 5953.746,193.67619 5996.9376,118.55395 6138.1211,118.55395 z M 6147.6211,462.8352 C 6290.585,462.8352 6332.4649,522.7571 6332.4649,614.5852 C 6332.465,695.82719 6293.2913,783.99145 6147.6211,783.99145 C 6003.978,783.99148 5953.2461,692.89745 5953.2461,612.24145 C 5953.2461,520.95748 6006.4376,462.8352 6147.6211,462.8352 z "
       id="path1387"
       sodipodi:nodetypes="cccssccccccssccsssc" />
    <path
       sodipodi:nodetypes="cccsccc"
       id="path1408"
       d="M 2413.8569,795.73536 C 2418.147,798.62928 2423.9776,797.49614 2426.8714,793.20553 C 2426.8714,793.20553 2872.9298,115.86948 2872.9298,115.86948 C 2875.8237,111.57979 2874.6902,105.74865 2870.3999,102.85507 C 2866.1098,99.961129 2860.2792,101.09429 2857.3854,105.38489 C 2857.3854,105.38489 2411.327,782.72095 2411.327,782.72095 C 2408.4331,787.01063 2409.5666,792.84178 2413.8569,795.73536 z "
       style="opacity:1;color:#000000;fill:#000000;fill-opacity:1;fill-rule:nonzero;stroke:none;stroke-width:1;stroke-linecap:butt;stroke-linejoin:miter;marker:none;marker-start:none;marker-mid:none;marker-end:none;stroke-miterlimit:4;stroke-dasharray:none;stroke-dashoffset:0;stroke-opacity:1;visibility:visible;display:inline;overflow:visible;enable-background:accumulate" />
    <path
       d="M 3969.9541,104.16894 C 3843.1335,104.16894 3771.7041,128.81302 3771.7041,248.41894 C 3771.7042,253.59394 3775.9041,257.79393 3781.0791,257.79394 C 3786.254,257.79394 3790.4541,253.59393 3790.4541,248.41894 C 3790.4542,144.32099 3862.2746,123.01269 3970.8291,123.01269 C 4092.2858,123.01269 4139.5479,177.78175 4139.5479,280.85644 C 4139.5479,449.36116 4080.5448,444.22309 3961.8916,446.91894 C 3952.9722,446.13402 3948.9915,447.65614 3950.3603,457.45019 C 3948.069,469.67256 3952.6358,468.37288 3961.8916,468.23144 C 4080.5448,470.92729 4139.5479,460.38289 4139.5479,613.29394 C 4139.5479,719.05907 4092.2858,780.13769 3970.8291,780.13769 C 3862.2746,780.13769 3790.4542,758.82939 3790.4541,654.73144 C 3790.4541,649.55645 3786.254,645.35644 3781.0791,645.35644 C 3775.9041,645.35645 3771.7042,649.55644 3771.7041,654.73144 C 3771.7041,774.33736 3843.1335,798.98144 3969.9541,798.98144 C 4100.1371,798.98144 4157.3916,736.65952 4157.3916,613.29394 C 4157.3916,535.17665 4147.8693,476.23267 4094.653,457.57519 C 4147.8692,432.80881 4157.3916,380.11563 4157.3916,280.85644 C 4157.3916,156.88728 4100.1371,104.16894 3969.9541,104.16894 z "
       id="path1420"
       sodipodi:nodetypes="ccssscccccssscscccc" />
    <path
       sodipodi:nodetypes="csscccccccsccccsscc"
       id="path1429"
       d="M 6591.5311,112.56967 C 6502.0531,112.56967 6409.8121,176.12837 6409.8121,300.25717 C 6409.8121,428.72517 6494.1931,469.03837 6589.5621,469.03847 C 6633.7241,469.03847 6723.2731,454.52147 6755.2491,400.75717 C 6755.2491,400.75717 6755.8121,576.25717 6755.8121,576.25717 C 6755.8121,745.23162 6673.3361,788.10097 6592.0931,788.10097 C 6548.4611,789.59487 6501.3431,753.27067 6479.7181,719.69467 C 6474.9551,714.24367 6477.1731,714.20137 6470.0931,713.28847 C 6464.9181,713.28847 6460.7171,717.48837 6460.7181,722.66347 C 6460.9421,728.51537 6464.0891,731.46167 6466.9681,735.31967 C 6493.3551,778.28167 6548.9091,806.94467 6591.2181,806.94467 C 6692.9261,806.94467 6773.6551,744.22764 6773.6551,576.25717 C 6773.6551,576.25717 6773.6551,383.25717 6773.6551,383.25717 C 6773.6551,166.88845 6715.6728,112.56967 6591.5311,112.56967 z M 6592.4371,131.41347 C 6721.6071,131.41347 6755.8121,217.6361 6755.8121,337.25717 C 6755.8121,389.46497 6670.7181,449.63217 6590.0621,449.63217 C 6498.7781,449.63217 6427.6551,408.17797 6427.6551,300.25717 C 6427.6551,205.38947 6500.6091,131.41347 6592.4371,131.41347 z " />
    <path
       transform="matrix(0.1540252,0,0,-0.1540252,4850.149,768.10989)"
       d="M 17323.591 -87.17244 A 60.866673 60.866673 0 1 1  17201.858,-87.17244 A 60.866673 60.866673 0 1 1  17323.591 -87.17244 z"
       sodipodi:ry="60.866673"
       sodipodi:rx="60.866673"
       sodipodi:cy="-87.17244"
       sodipodi:cx="17262.725"
       id="path1436"
       style="opacity:1;fill:#aa0000;fill-opacity:1;stroke:none;stroke-width:0.1;stroke-miterlimit:4;stroke-dasharray:none;stroke-dashoffset:0;stroke-opacity:1"
       sodipodi:type="arc" />
    <path
       style="opacity:1;color:#000000;fill:#000000;fill-opacity:1;fill-rule:nonzero;stroke:none;stroke-width:1;stroke-linecap:butt;stroke-linejoin:miter;marker:none;marker-start:none;marker-mid:none;marker-end:none;stroke-miterlimit:4;stroke-dasharray:none;stroke-dashoffset:0;stroke-opacity:1;visibility:visible;display:inline;overflow:visible;enable-background:accumulate"
       d="M 9479.5722,71.22676 C 9475.9132,67.56756 9469.9732,67.56748 9466.3141,71.22682 C 9466.3141,71.22682 9297.3563,259.18457 9297.3563,259.18457 C 9293.6972,262.84389 9293.697,268.78349 9297.3564,272.44281 C 9301.0154,276.10201 9306.9554,276.10211 9310.6145,272.44277 C 9310.6145,272.44277 9479.5723,84.48501 9479.5723,84.48501 C 9483.2314,80.82569 9483.2316,74.8861 9479.5722,71.22676 z "
       id="path1359"
       sodipodi:nodetypes="cccsccc" />
    <path
       style="opacity:1;color:#000000;fill:#000000;fill-opacity:1;fill-rule:nonzero;stroke:none;stroke-width:1;stroke-linecap:butt;stroke-linejoin:miter;marker:none;marker-start:none;marker-mid:none;marker-end:none;stroke-miterlimit:4;stroke-dasharray:none;stroke-dashoffset:0;stroke-opacity:1;visibility:visible;display:inline;overflow:visible;enable-background:accumulate"
       d="M 8884.5625,1.34375 C 8835.2182,80.854032 8784.7266,160.81561 8734.7812,240.3125 C 8731.5248,244.33426 8732.1345,250.24323 8736.1562,253.5 C 8740.1779,256.75669 8746.0871,256.14677 8749.3438,252.125 C 8749.344,252.125 8890.9375,26.5 8890.9375,26.5 C 8890.9375,26.5 9034.5623,252.125 9034.5625,252.125 C 9037.8192,256.14677 9043.7283,256.75669 9047.75,253.5 C 9051.7718,250.24323 9052.3815,244.33426 9049.125,240.3125 C 9049.125,240.3125 8897.3438,1.34375 8897.3438,1.34375 C 8895.6588,-0.57123181 8893.1792,-0.84311742 8890.9375,-0.71875 C 8888.5463,-0.89689741 8886.284,-0.7833263 8884.5625,1.34375 z "
       id="path1361"
       sodipodi:nodetypes="ccsscsscccc" />
    <path
       sodipodi:nodetypes="ccscccscc"
       id="path1366"
       d="M 10029.93,97.638651 C 9969.9416,97.638651 9943.5173,118.98123 9943.5173,210.18301 C 9943.5173,215.35804 9947.7173,219.55801 9952.8923,219.55801 C 9958.0673,219.55804 9962.2673,215.35801 9962.2673,210.18301 C 9962.2673,142.81909 9979.0595,116.4824 10029.055,116.4824 C 10073.099,116.4824 10101.105,142.24799 10101.105,209.56581 C 10101.105,214.74081 10105.304,218.9408 10110.48,218.94081 C 10115.655,218.94081 10119.854,214.74084 10119.855,209.56581 C 10119.855,118.71584 10088.429,97.638651 10029.93,97.638651 z " />
    <path
       d="M 10103.812,863.09247 C 10103.812,803.10447 10082.47,776.68047 9991.2677,776.68047 C 9986.0927,776.68047 9981.8927,780.88047 9981.8927,786.05547 C 9981.8927,791.23047 9986.0927,795.43047 9991.2677,795.43047 C 10058.632,795.43047 10084.968,812.22247 10084.968,862.21747 C 10084.968,906.26147 10059.203,934.26747 9991.8847,934.26747 C 9986.7097,934.26747 9982.5097,938.46647 9982.5097,943.64247 C 9982.5097,948.81747 9986.7097,953.01647 9991.8847,953.01747 C 10082.735,953.01747 10103.812,921.59147 10103.812,863.09247 z "
       id="path1368"
       sodipodi:nodetypes="ccscccscc" />
    <path
       d="M 10332.938,63.687393 C 10273.495,63.687393 10246.625,98.551533 10246.625,166.53114 C 10246.625,238.38135 10275.691,269.37489 10332.938,269.37489 C 10394.814,269.37489 10422.751,239.89724 10422.751,166.53114 C 10422.751,102.12361 10397.606,63.687393 10332.938,63.687393 z M 10332.063,82.531143 C 10374.057,82.531141 10401.446,106.00231 10403.907,166.53114 C 10401.45,227.07127 10374.06,250.53115 10332.063,250.53114 C 10284.55,250.53114 10267.031,226.71015 10265.407,166.53114 C 10267.033,106.36152 10284.554,82.531143 10332.063,82.531143 z "
       id="path1370"
       sodipodi:nodetypes="cccccccscc" />
    <path
       style="opacity:1;color:#000000;fill:#000000;fill-opacity:1;fill-rule:nonzero;stroke:none;stroke-width:1;stroke-linecap:butt;stroke-linejoin:miter;marker:none;marker-start:none;marker-mid:none;marker-end:none;stroke-miterlimit:4;stroke-dasharray:none;stroke-dashoffset:0;stroke-opacity:1;visibility:visible;display:inline;overflow:visible;enable-background:accumulate"
       d="M 10660.906,109.96875 C 10658.207,110.0883 10655.564,111.39397 10653.812,113.71875 C 10653.812,113.71875 10548.812,270.1875 10548.812,270.1875 C 10545.698,274.32042 10546.522,280.1981 10550.656,283.3125 C 10554.788,286.4269 10560.667,285.60169 10563.781,281.46875 C 10563.781,281.46874 10650.298,152.53279 10662.062,135 C 10673.812,152.5109 10760.375,281.46874 10760.375,281.46875 C 10763.489,285.60169 10769.368,286.4269 10773.5,283.3125 C 10777.634,280.1981 10778.489,274.32042 10775.375,270.1875 C 10775.375,270.1875 10670.375,113.71875 10670.375,113.71875 C 10668.361,111.04639 10665.169,109.76736 10662.062,110.03125 C 10661.669,109.99911 10661.3,109.95133 10660.906,109.96875 z "
       id="path1379" />
    <path
       d="M 13000.428,113.58048 C 12940.439,113.58048 12926.021,161.9412 12926.021,253.14298 C 12926.022,258.31801 12930.222,262.51798 12935.397,262.51798 C 12940.572,262.51801 12944.771,258.31798 12944.771,253.14298 C 12944.772,185.77906 12949.557,132.42423 12999.553,132.42423 C 13032.306,132.42423 13040.303,157.68153 13040.303,192.67423 C 13040.303,247.97544 13044.173,286.04924 13103.678,286.04923 C 13162.177,286.04923 13172.616,238.99295 13172.615,148.14298 C 13172.614,142.96795 13168.416,138.76798 13163.24,138.76798 C 13158.064,138.76799 13153.866,142.96798 13153.865,148.14298 C 13153.865,215.4608 13146.847,267.20549 13102.803,267.20548 C 13067.503,267.20548 13063.803,243.29524 13063.803,208.64298 C 13063.803,160.69007 13062.741,113.58048 13000.428,113.58048 z "
       id="path1388"
       sodipodi:nodetypes="ccssscscscscc" />
  </g>
</svg>
