<?xml version="1.0" encoding="UTF-8" standalone="no"?>
<!-- Created with Inkscape (http://www.inkscape.org/) -->
<svg
   xmlns:dc="http://purl.org/dc/elements/1.1/"
   xmlns:cc="http://web.resource.org/cc/"
   xmlns:rdf="http://www.w3.org/1999/02/22-rdf-syntax-ns#"
   xmlns:svg="http://www.w3.org/2000/svg"
   xmlns="http://www.w3.org/2000/svg"
   xmlns:sodipodi="http://sodipodi.sourceforge.net/DTD/sodipodi-0.dtd"
   xmlns:inkscape="http://www.inkscape.org/namespaces/inkscape"
   width="17000"
   height="1000"
   id="svg1282"
   sodipodi:version="0.32"
   inkscape:version="0.45"
   sodipodi:docname="ubuntutitle25_extralight_sketch.svg"
   sodipodi:docbase="/home/guest/Documents/Trabalhos/UbuntuTitleFont/svg_pesos/UbuntuTitle25_Extralight_starting"
   inkscape:output_extension="org.inkscape.output.svg.inkscape"
   sodipodi:modified="true">
  <defs
     id="defs3" />
  <sodipodi:namedview
     inkscape:document-units="px"
     id="base"
     pagecolor="#ffffff"
     bordercolor="#666666"
     borderopacity="1.0"
     inkscape:pageopacity="0.0"
     inkscape:pageshadow="2"
     inkscape:zoom="0.17312337"
     inkscape:cx="14412.687"
     inkscape:cy="234.51152"
     inkscape:current-layer="layer1"
     inkscape:window-width="1264"
     inkscape:window-height="734"
     inkscape:window-x="0"
     inkscape:window-y="0"
     showguides="true"
     inkscape:guide-bbox="true">
    <sodipodi:guide
       orientation="horizontal"
       position="200"
       id="guide1331" />
    <sodipodi:guide
       orientation="horizontal"
       position="675.60011"
       id="guide1654" />
    <sodipodi:guide
       orientation="horizontal"
       position="14.208974"
       id="guide1665" />
    <sodipodi:guide
       orientation="horizontal"
       position="46.850231"
       id="guide1388" />
    <sodipodi:guide
       orientation="horizontal"
       position="898.92104"
       id="guide1370" />
  </sodipodi:namedview>
  <metadata
     id="metadata4">
    <rdf:RDF>
      <cc:Work
         rdf:about="">
        <dc:format>image/svg+xml</dc:format>
        <dc:type
           rdf:resource="http://purl.org/dc/dcmitype/StillImage" />
      </cc:Work>
    </rdf:RDF>
  </metadata>
  <g
     inkscape:label="Layer 1"
     inkscape:groupmode="layer"
     id="layer1">
    <path
       d="M 1263.942,125.8125 L 1263.942,205.3125 C 1263.942,205.3125 1195.442,206.375 1195.442,206.375 C 1129.287,206.375 1069.2857,248.91086 1069.2857,337.21875 C 1069.2857,419.56731 1125.6978,470.5625 1194.1607,470.5625 L 1263.942,470.59375 L 1263.942,667.96875 L 1095.567,667.96875 L 1095.567,668.0625 C 1095.4298,668.05949 1095.2987,668.03025 1095.1607,668.03125 C 1084.8107,668.03122 1076.4107,676.43025 1076.4107,686.78125 C 1076.4107,697.55722 1085.8867,705.46875 1096.442,705.46875 L 1263.942,705.46875 L 1263.942,780.96875 C 1263.9421,792.89651 1272.5705,801 1282.6295,801 C 1292.9806,801.00001 1301.3795,792.6 1301.3795,782.25 C 1301.3806,782.11196 1301.3514,781.98109 1301.3483,781.84375 L 1301.442,781.84375 L 1301.442,705.46875 C 1301.442,705.46875 1361.2233,704.90625 1361.2233,704.90625 C 1455.562,704.90625 1495.4107,652.90603 1495.4107,570.0625 C 1495.4107,490.67892 1441.3607,434.71875 1362.5045,434.71875 L 1301.442,433.09375 L 1301.442,242.8125 L 1452.9733,242.8125 C 1464.9009,242.8125 1473.0045,234.184 1473.0045,224.125 C 1473.0047,213.774 1464.6045,205.375 1454.2545,205.375 C 1454.1167,205.374 1453.9858,205.40315 1453.8483,205.40625 L 1453.8483,205.3125 L 1301.442,205.3125 L 1301.442,124.9375 L 1301.3483,124.9375 C 1301.3513,124.8001 1301.3805,124.66925 1301.3795,124.53125 C 1301.3796,114.18115 1292.9805,105.78125 1282.6295,105.78125 C 1270.7799,106.82332 1265.5243,114.7839 1263.942,125.8125 z M 1263.942,242.8125 L 1263.942,433.09375 C 1263.942,433.09375 1195.442,433.125 1195.442,433.125 C 1139.6751,433.125 1106.5045,390.72527 1106.5045,335.40625 C 1106.5045,274.90862 1144.2962,243.8125 1194.1607,243.8125 L 1263.942,242.8125 z M 1361.2233,472.15625 C 1421.4369,472.15625 1458.192,512.18728 1458.192,571.875 C 1458.192,627.92582 1421.2622,667.46875 1362.5045,667.46875 L 1301.442,667.96875 L 1301.442,470.59375 C 1301.442,470.59375 1361.2233,472.15625 1361.2233,472.15625 z "
       id="path1397"
       sodipodi:nodetypes="cccsccccccscccscccccsccccsccccccccccccscccscccc"
       style="fill:#000000;stroke:none;stroke-opacity:1;fill-opacity:1" />
    <path
       style="fill:#000000;fill-opacity:1;stroke:none;stroke-width:0.1;stroke-miterlimit:4;stroke-dashoffset:0;stroke-opacity:1"
       d="M 585.71515,88.397253 C 575.45425,88.963053 568.02775,98.202953 568.02775,108.4285 L 568.02775,287.9285 L 441.65267,287.9285 L 441.65267,288.02225 C 441.51549,288.01929 441.38442,287.99 441.24642,287.991 C 430.89633,287.99102 422.49642,296.39 422.49642,306.741 C 422.49633,317.51702 431.97237,325.4285 442.52767,325.4285 L 568.02775,325.4285 L 568.02775,578.8035 L 441.65267,578.8035 L 441.65267,578.89725 C 441.51549,578.89425 441.38442,578.865 441.24642,578.866 C 430.89633,578.86598 422.49642,587.265 422.49642,597.616 C 422.49633,608.39198 431.97237,616.3035 442.52767,616.3035 L 568.02775,616.3035 L 568.02775,779.8035 C 568.02775,791.73127 576.65625,799.83475 586.71515,799.83475 C 597.06625,799.83477 605.46515,791.43475 605.46515,781.08475 C 605.46625,780.94672 605.43705,780.81584 605.43395,780.6785 L 605.52775,780.6785 L 605.52775,616.3035 L 860.62145,616.3035 L 860.62145,779.8035 C 860.62145,791.73127 869.24995,799.83475 879.30895,799.83475 C 889.65995,799.83477 898.05895,791.43475 898.05895,781.08475 C 898.05995,780.94672 898.03085,780.81584 898.02775,780.6785 L 898.12145,780.6785 L 898.12145,616.3035 L 1021.6528,616.3035 C 1033.5803,616.30349 1041.684,607.675 1041.684,597.616 C 1041.6841,587.26498 1033.284,578.866 1022.934,578.866 C 1022.7961,578.86498 1022.6652,578.89425 1022.5278,578.89725 L 1022.5278,578.8035 L 898.12145,578.8035 L 898.12145,325.4285 L 1021.6528,325.4285 C 1033.5803,325.42853 1041.684,316.8 1041.684,306.741 C 1041.6841,296.39002 1033.284,287.991 1022.934,287.991 C 1022.7961,287.99002 1022.6652,288.01925 1022.5278,288.02225 L 1022.5278,287.9285 L 898.12145,287.9285 L 898.12145,107.5535 L 898.02775,107.5535 C 898.03065,107.41619 898.05995,107.28531 898.05895,107.14725 C 898.05895,96.797253 889.65995,88.397253 879.30895,88.397253 C 878.97215,88.397253 878.63995,88.378953 878.30895,88.397253 C 868.04795,88.963053 860.62145,98.202953 860.62145,108.4285 L 860.62145,287.9285 L 605.52775,287.9285 L 605.52775,107.5535 L 605.43395,107.5535 C 605.43695,107.41619 605.46615,107.28531 605.46515,107.14725 C 605.46525,96.797253 597.06625,88.397253 586.71515,88.397253 C 586.37845,88.397253 586.04625,88.378953 585.71515,88.397253 z M 605.52775,325.4285 L 860.62145,325.4285 L 860.62145,578.8035 L 605.52775,578.8035 L 605.52775,325.4285 z "
       id="path1361"
       sodipodi:nodetypes="ccccccsccccccscccsccccccscccccsccccccscccccccssccccccscccccc" />
    <path
       d="M 13767.604,326.90625 C 13651.423,326.90625 13602.167,402.17651 13602.167,562.25 C 13602.167,726.02596 13655.542,799.71875 13766.073,799.71875 C 13882.812,799.71875 13934.167,717.81297 13934.167,562.25 C 13934.167,404.36153 13879.142,326.90625 13767.604,326.90625 z M 13769.417,364.125 C 13865.326,364.125 13898.167,433.3402 13898.167,562.25 C 13898.167,690.26759 13860.946,761.21875 13766.417,761.21875 C 13680.994,761.21875 13638.167,696.94238 13638.167,562.25 C 13638.167,428.50901 13675.087,364.125 13769.417,364.125 z "
       id="o"
       sodipodi:nodetypes="cccccccccc"
       style="fill:#000000;fill-opacity:1;stroke:none;stroke-opacity:1" />
    <path
       sodipodi:type="arc"
       style="opacity:1;fill:#000000;fill-opacity:1;stroke:none;stroke-width:0.1;stroke-miterlimit:4;stroke-dasharray:none;stroke-dashoffset:0;stroke-opacity:1"
       id="path1340"
       sodipodi:cx="4433.7617"
       sodipodi:cy="334.14685"
       sodipodi:rx="18.75"
       sodipodi:ry="18.75"
       d="M 4452.5117 334.14685 A 18.75 18.75 0 1 1  4415.0117,334.14685 A 18.75 18.75 0 1 1  4452.5117 334.14685 z"
       transform="translate(-4350.0339,447.90156)" />
    <path
       style="opacity:1;fill:#000000;fill-opacity:1;stroke:none;stroke-width:0.1;stroke-miterlimit:4;stroke-dasharray:none;stroke-dashoffset:0;stroke-opacity:1"
       d="M 2627.7015,762.14526 C 2617.3244,762.14526 2608.9203,770.58071 2608.9203,780.95776 C 2608.9203,791.33481 2617.3244,799.73901 2627.7015,799.73901 C 2638.0786,799.73901 2646.514,791.33481 2646.514,780.95776 C 2646.514,770.58071 2638.0786,762.14526 2627.7015,762.14526 z M 2627.7015,762.23901 C 2638.0244,762.23901 2646.4203,770.63481 2646.4203,780.95776 C 2646.4203,791.28071 2638.0244,799.64526 2627.7015,799.64526 C 2617.3786,799.64526 2609.014,791.28071 2609.014,780.95776 C 2609.014,770.63481 2617.3786,762.23901 2627.7015,762.23901 z "
       id="path1628" />
    <path
       style="fill:#000000;fill-opacity:1;stroke:none;stroke-width:0.1;stroke-miterlimit:4;stroke-dashoffset:0;stroke-opacity:1"
       d="M 12684.108,145.5 C 12673.332,145.5 12665.421,154.97587 12665.421,165.53125 L 12665.421,778.5 C 12665.421,790.42776 12674.049,798.53125 12684.108,798.53125 C 12694.459,798.53126 12702.858,790.13125 12702.858,779.78125 C 12702.859,779.64321 12702.83,779.51234 12702.827,779.375 L 12702.921,779.375 L 12702.921,164.65625 L 12702.827,164.65625 C 12702.83,164.51891 12702.859,164.38806 12702.858,164.25 C 12702.858,153.9 12694.459,145.50001 12684.108,145.5 z "
       id="path1639"
       sodipodi:nodetypes="ccccccccccc" />
    <path
       id="path1643"
       d="M 7317.1011,379.68343 C 7317.1011,390.03343 7308.7011,398.43343 7298.3511,398.43343 C 7288.0011,398.43343 7279.6011,390.03343 7279.6011,379.68343 C 7279.6011,369.33343 7288.0011,360.93343 7298.3511,360.93343 C 7308.7011,360.93343 7317.1011,369.33343 7317.1011,379.68343 z "
       style="fill:#000000;fill-opacity:1;stroke:none;stroke-width:0.1;stroke-miterlimit:4;stroke-dashoffset:0;stroke-opacity:1" />
    <path
       style="fill:#000000;fill-opacity:1;stroke:none;stroke-width:0.1;stroke-miterlimit:4;stroke-dashoffset:0;stroke-opacity:1"
       d="M 14451.7,324.90625 C 14347.769,324.90625 14291.918,396.76817 14291.918,514.4375 L 14290.356,778.5 C 14290.356,790.42776 14298.984,798.53125 14309.044,798.53125 C 14319.394,798.53126 14327.794,790.13125 14327.794,779.78125 C 14327.794,779.64321 14327.765,779.51234 14327.762,779.375 L 14327.856,779.375 L 14327.856,521.53125 L 14327.762,521.53125 C 14327.839,520.85464 14327.746,520.17536 14327.7,519.5 C 14327.699,414.74172 14369.859,362.125 14453.512,362.125 C 14493.118,362.91495 14524.754,380.02145 14545.512,413.40625 C 14548.896,418.30165 14554.521,421.53125 14560.918,421.53125 C 14571.268,421.53125 14579.668,413.13124 14579.668,402.78125 C 14579.668,399.21864 14578.677,395.89998 14576.95,393.0625 C 14550.776,359.72565 14521.813,324.90625 14451.7,324.90625 z "
       id="path1656"
       sodipodi:nodetypes="cccsscccccccsscc" />
    <path
       style="fill:#000000;fill-opacity:1;stroke:none;stroke-width:0.1;stroke-miterlimit:4;stroke-dashoffset:0;stroke-opacity:1"
       d="M 7383.6498,339.94908 C 7383.6498,350.29908 7375.2498,358.69908 7364.9,358.69908 C 7354.55,358.69908 7346.15,350.29908 7346.15,339.94908 C 7346.15,329.59908 7354.55,321.19908 7364.9,321.19908 C 7375.2498,321.19908 7383.6498,329.59908 7383.6498,339.94908 z "
       id="path1658" />
    <path
       d="M 14108.528,324.90625 C 13994.596,324.90625 13957.03,397.30595 13955.153,551.0625 L 13955.153,964.03125 C 13955.153,975.95904 13963.782,984.0625 13973.841,984.0625 C 13984.191,984.0626 13992.591,975.6625 13992.591,965.3125 C 13992.591,965.1745 13992.562,965.04355 13992.559,964.90625 L 13992.653,964.90625 L 13992.653,754 C 14021.535,788.79355 14049.693,797.71875 14106.997,797.71875 C 14223.735,797.71875 14263.091,715.81297 14263.091,560.25 C 14263.09,402.36153 14220.066,324.90625 14108.528,324.90625 z M 14110.341,362.125 C 14206.249,362.125 14227.091,431.3402 14227.091,560.25 C 14227.09,688.26759 14201.871,759.21875 14107.341,759.21875 C 14011.419,759.21875 13992.653,725.96628 13992.653,572.1875 C 13992.653,419.59445 14020.079,362.125 14110.341,362.125 z "
       id="path1660"
       sodipodi:nodetypes="cccsscccsccccccc"
       style="fill:#000000;fill-opacity:1;stroke:none;stroke-opacity:1" />
    <path
       d="M 10342.873,799.54279 C 10228.941,799.54279 10189.375,727.14309 10187.498,573.38649 L 10187.498,160.41779 C 10187.498,148.48999 10196.127,140.38649 10206.186,140.38649 C 10216.536,140.38639 10224.936,148.78649 10224.936,159.13649 C 10224.936,159.27449 10224.907,159.40549 10224.904,159.54279 L 10224.998,159.54279 L 10224.998,370.44899 C 10253.88,335.65549 10284.038,326.73029 10341.342,326.73029 C 10458.08,326.73029 10499.436,408.63599 10499.436,564.19899 C 10499.435,722.08749 10454.411,799.54279 10342.873,799.54279 z M 10344.686,762.32399 C 10440.594,762.32399 10463.436,693.10879 10463.436,564.19899 C 10463.435,436.18139 10436.216,365.23029 10341.686,365.23029 C 10245.764,365.23029 10224.998,398.48269 10224.998,552.26149 C 10224.998,704.85459 10254.424,762.32399 10344.686,762.32399 z "
       id="path1403"
       sodipodi:nodetypes="cccsscccsccccccc"
       style="fill:#000000;stroke:none;stroke-opacity:1;fill-opacity:1" />
    <path
       sodipodi:nodetypes="cccsccsccccccc"
       id="path1405"
       d="M 9966.1262,342.1234 C 10080.058,342.1234 10113.501,407.70258 10113.501,560.2797 L 10113.501,791.2484 C 10113.501,803.1762 10104.872,811.2797 10094.813,811.2797 C 10084.463,811.2798 10076.063,802.8797 10076.063,792.5297 L 10076.001,755.2172 C 10047.119,790.0107 10019.998,798.9359 9967.6572,798.9359 C 9862.0792,798.9359 9817.5632,725.0302 9817.5632,569.4672 C 9817.5642,411.5787 9864.4852,342.1234 9966.1262,342.1234 z M 9964.3132,379.3422 C 9886.9282,379.3422 9853.5632,440.5574 9853.5632,569.4672 C 9853.5642,697.4848 9891.3552,760.4359 9967.3132,760.4359 C 10044.622,760.4359 10076.001,716.5707 10076.001,581.4047 C 10076.001,428.8116 10045.889,379.3422 9964.3132,379.3422 z "
       style="fill:#000000;stroke:none;stroke-opacity:1;fill-opacity:1" />
    <path
       sodipodi:nodetypes="ccccccccccc"
       id="path1407"
       d="M 12178.926,325.5 C 12168.15,325.5 12160.239,334.97587 12160.239,345.53125 L 12160.239,778.5 C 12160.239,790.42776 12168.867,798.53125 12178.926,798.53125 C 12189.277,798.53126 12197.676,790.13125 12197.676,779.78125 C 12197.677,779.64321 12197.648,779.51234 12197.645,779.375 L 12197.739,779.375 L 12197.739,344.65625 L 12197.645,344.65625 C 12197.648,344.51891 12197.677,344.38806 12197.676,344.25 C 12197.676,333.9 12189.277,325.50001 12178.926,325.5 z "
       style="fill:#000000;fill-opacity:1;stroke:none;stroke-width:0.1;stroke-miterlimit:4;stroke-dashoffset:0;stroke-opacity:1" />
    <path
       style="fill:#000000;fill-opacity:1;stroke:none;stroke-width:0.1;stroke-miterlimit:4;stroke-dashoffset:0;stroke-opacity:1"
       d="M 12196.475,150.0749 C 12196.475,160.4249 12188.075,168.8249 12177.725,168.8249 C 12167.375,168.8249 12158.975,160.4249 12158.975,150.0749 C 12158.975,139.7249 12167.375,131.3249 12177.725,131.3249 C 12188.075,131.3249 12196.475,139.7249 12196.475,150.0749 z "
       id="path1409" />
    <path
       d="M 13412.807,326.90625 C 13308.877,326.90625 13261.026,371.61502 13261.026,514.4375 L 13259.463,778.5 C 13259.464,790.42776 13268.092,798.53125 13278.151,798.53125 C 13288.502,798.53126 13296.901,790.13125 13296.901,779.78125 C 13296.902,779.64321 13296.873,779.51234 13296.87,779.375 L 13296.963,779.375 L 13296.963,521.53125 L 13296.87,521.53125 C 13296.947,520.85464 13296.853,520.17536 13296.807,519.5 C 13296.807,393.719 13330.967,364.125 13414.62,364.125 C 13500.313,364.125 13530.213,419.35372 13530.213,523.09375 L 13530.213,778.5 C 13530.214,790.42776 13538.842,798.53125 13548.901,798.53125 C 13559.252,798.53126 13567.651,790.13125 13567.651,779.78125 C 13567.652,779.64321 13567.623,779.51234 13567.62,779.375 L 13567.713,779.375 C 13567.713,779.375 13565.276,511.96875 13565.276,511.96875 C 13565.276,379.38984 13511.786,326.90625 13412.807,326.90625 z "
       id="path1411"
       sodipodi:nodetypes="cccsccccccsccsccccc"
       style="fill:#000000;fill-opacity:1;stroke:none;stroke-opacity:1" />
    <path
       d="M 12856.804,326.90625 C 12752.875,326.90625 12734.491,387.14779 12725.023,514.4375 L 12723.46,778.5 C 12723.462,790.42776 12732.089,798.53125 12742.148,798.53125 C 12752.498,798.53126 12760.898,790.13125 12760.898,779.78125 C 12760.898,779.64321 12760.87,779.51234 12760.867,779.375 L 12760.96,779.375 L 12760.96,521.53125 L 12760.867,521.53125 C 12760.943,520.85464 12760.85,520.17536 12760.804,519.5 C 12768.45,414.76437 12774.964,364.125 12858.617,364.125 C 12944.309,364.125 12947.653,419.37416 12954.21,523.09375 L 12954.148,632.5 C 12954.273,642.37025 12960.021,649.40591 12969.148,652.15625 C 12969.168,652.16043 12969.19,652.15213 12969.21,652.15625 C 12981.248,653.87297 12990.692,645.48246 12991.648,633.78125 C 12991.648,633.64321 12991.62,633.51234 12991.617,633.375 L 12991.648,633.375 L 12991.71,633.375 L 12991.648,521.53125 L 12991.586,521.53125 C 12991.662,520.85464 12991.569,520.17536 12991.523,519.5 C 12999.169,414.76437 13005.683,364.125 13089.336,364.125 C 13175.028,364.125 13178.372,419.37416 13184.929,523.09375 L 13184.898,778.5 C 13184.899,790.42776 13193.558,798.53125 13203.617,798.53125 C 13213.969,798.53126 13222.367,790.13125 13222.367,779.78125 C 13222.369,779.64321 13222.339,779.51234 13222.336,779.375 L 13222.398,779.375 C 13222.398,779.375 13219.992,511.96875 13219.992,511.96875 C 13219.993,395.00023 13186.502,326.90625 13087.523,326.90625 C 13015.326,326.90625 12994.738,355.98328 12973.523,416.40625 C 12950.956,358.7997 12924.531,326.90625 12856.804,326.90625 z "
       id="path1421"
       sodipodi:nodetypes="cccsscccccscccccccccccsccsccccscc"
       style="fill:#000000;fill-opacity:1;stroke:none;stroke-opacity:1" />
    <path
       style="fill:#000000;fill-opacity:1;stroke:none;stroke-width:0.1;stroke-miterlimit:4;stroke-dashoffset:0;stroke-opacity:1"
       d="M 11827.011,145.5 C 11816.235,145.5 11808.323,154.97587 11808.323,165.53125 L 11808.323,778.5 C 11808.324,790.42776 11816.952,798.53125 11827.011,798.53125 C 11827.199,798.53125 11827.387,798.5055 11827.573,798.5 C 11827.751,798.50506 11827.926,798.53125 11828.105,798.53125 C 11838.456,798.53126 11846.855,790.13125 11846.855,779.78125 C 11846.856,779.64321 11846.826,779.51234 11846.823,779.375 L 11846.917,779.375 L 11846.917,521.53125 L 11846.823,521.53125 C 11846.901,520.85464 11846.807,520.17536 11846.761,519.5 C 11854.406,414.76437 11884.92,364.125 11968.573,364.125 C 12054.267,364.125 12081.61,419.37416 12088.167,523.09375 L 12088.167,778.5 C 12088.168,790.42776 12096.796,798.53125 12106.855,798.53125 C 12117.206,798.53126 12125.605,790.13125 12125.605,779.78125 C 12125.606,779.64321 12125.576,779.51234 12125.573,779.375 L 12125.667,779.375 C 12125.667,779.375 12123.229,511.96875 12123.229,511.96875 C 12123.23,395.00023 12065.74,326.90625 11966.761,326.90625 C 11910.54,326.90625 11869.481,344.54186 11845.823,380.875 L 11845.823,164.65625 L 11845.729,164.65625 C 11845.733,164.51891 11845.762,164.38806 11845.761,164.25 C 11845.761,153.9 11837.362,145.50001 11827.011,145.5 z "
       id="path1426"
       sodipodi:nodetypes="cccsssccccccsccsccccsccccc" />
    <path
       style="fill:#000000;fill-opacity:1;stroke:none;stroke-width:0.1;stroke-miterlimit:4;stroke-dashoffset:0;stroke-opacity:1"
       d="M 16863.821,33.16057 C 16853.045,33.16057 16845.134,42.63644 16845.134,53.19182 L 16845.134,940.16057 C 16845.134,952.08833 16853.762,960.19182 16863.821,960.19182 C 16874.172,960.19183 16882.571,951.79182 16882.571,941.44182 C 16882.572,941.30378 16882.543,941.17291 16882.54,941.03557 L 16882.634,941.03557 L 16882.634,52.31682 L 16882.54,52.31682 C 16882.543,52.17948 16882.572,52.04863 16882.571,51.91057 C 16882.571,41.56057 16874.172,33.16058 16863.821,33.16057 z "
       id="path1430"
       sodipodi:nodetypes="ccccccccccc" />
    <path
       sodipodi:nodetypes="ccccccccccc"
       id="path1432"
       d="M 16943.306,145.35655 C 16932.53,145.35655 16924.619,154.83242 16924.619,165.3878 L 16924.619,407.56892 C 16924.619,419.49668 16933.247,427.60017 16943.306,427.60017 C 16953.657,427.60018 16962.056,419.20017 16962.056,408.85017 C 16962.057,408.71213 16962.028,408.58126 16962.025,408.44392 L 16962.119,408.44392 L 16962.119,164.5128 L 16962.025,164.5128 C 16962.028,164.37546 16962.057,164.24461 16962.056,164.10655 C 16962.056,153.75655 16953.657,145.35656 16943.306,145.35655 z "
       style="fill:#000000;fill-opacity:1;stroke:none;stroke-width:0.1;stroke-miterlimit:4;stroke-dashoffset:0;stroke-opacity:1" />
    <path
       style="fill:#000000;fill-opacity:1;stroke:none;stroke-width:0.1;stroke-miterlimit:4;stroke-dashoffset:0;stroke-opacity:1"
       d="M 16943.306,516.07432 C 16932.53,516.07432 16924.619,525.55019 16924.619,536.10557 L 16924.619,778.28669 C 16924.619,790.21445 16933.247,798.31794 16943.306,798.31794 C 16953.657,798.31795 16962.056,789.91794 16962.056,779.56794 C 16962.057,779.4299 16962.028,779.29903 16962.025,779.16169 L 16962.119,779.16169 L 16962.119,535.23057 L 16962.025,535.23057 C 16962.028,535.09323 16962.057,534.96238 16962.056,534.82432 C 16962.056,524.47432 16953.657,516.07433 16943.306,516.07432 z "
       id="path1434"
       sodipodi:nodetypes="ccccccccccc" />
    <path
       sodipodi:nodetypes="ccccccccccc"
       id="path1436"
       d="M 9783.8392,180.27223 C 9773.0632,180.27223 9765.1522,189.7481 9765.1522,200.30348 L 9765.1522,372.4846 C 9765.1522,384.41236 9773.7802,392.51585 9783.8392,392.51585 C 9794.1902,392.51586 9802.5892,384.11585 9802.5892,373.76585 C 9802.5902,373.62781 9802.5612,373.49694 9802.5582,373.3596 L 9802.6522,373.3596 L 9802.6522,199.42848 L 9802.5582,199.42848 C 9802.5612,199.29114 9802.5902,199.16029 9802.5892,199.02223 C 9802.5892,188.67223 9794.1902,180.27224 9783.8392,180.27223 z "
       style="fill:#000000;fill-opacity:1;stroke:none;stroke-width:0.1;stroke-miterlimit:4;stroke-dashoffset:0;stroke-opacity:1" />
    <path
       sodipodi:nodetypes="ccccccccccc"
       id="path1438"
       d="M 1515.7445,170.17359 C 1504.9685,170.17359 1497.0575,179.64946 1497.0575,190.20484 L 1497.0575,362.38596 C 1497.0575,374.31372 1505.6855,382.41721 1515.7445,382.41721 C 1526.0955,382.41722 1534.4945,374.01721 1534.4945,363.66721 C 1534.4955,363.52917 1534.4665,363.3983 1534.4635,363.26096 L 1534.5575,363.26096 L 1534.5575,189.32984 L 1534.4635,189.32984 C 1534.4665,189.1925 1534.4955,189.06165 1534.4945,188.92359 C 1534.4945,178.57359 1526.0955,170.1736 1515.7445,170.17359 z "
       style="fill:#000000;fill-opacity:1;stroke:none;stroke-width:0.1;stroke-miterlimit:4;stroke-dashoffset:0;stroke-opacity:1" />
    <path
       style="fill:#000000;fill-opacity:1;stroke:none;stroke-width:0.1;stroke-miterlimit:4;stroke-dashoffset:0;stroke-opacity:1"
       d="M 370.17244,180.17359 C 359.39644,180.17359 351.48544,189.64946 351.48544,200.20484 L 351.48544,372.38596 C 351.48544,384.31372 360.11344,392.41721 370.17244,392.41721 C 380.52344,392.41722 388.92244,384.01721 388.92244,373.66721 C 388.92344,373.52917 388.89444,373.3983 388.89144,373.26096 L 388.98544,373.26096 L 388.98544,199.32984 L 388.89144,199.32984 C 388.89444,199.1925 388.92344,199.06165 388.92244,198.92359 C 388.92244,188.57359 380.52344,180.1736 370.17244,180.17359 z "
       id="path1440"
       sodipodi:nodetypes="ccccccccccc" />
    <path
       sodipodi:nodetypes="ccccccccccc"
       id="path1442"
       d="M 162.44242,180.17359 C 151.66642,180.17359 143.75542,189.64946 143.75542,200.20484 L 143.75542,372.38596 C 143.75542,384.31372 152.38342,392.41721 162.44242,392.41721 C 172.79342,392.41722 181.19242,384.01721 181.19242,373.66721 C 181.19342,373.52917 181.16442,373.3983 181.16142,373.26096 L 181.25542,373.26096 L 181.25542,199.32984 L 181.16142,199.32984 C 181.16442,199.1925 181.19342,199.06165 181.19242,198.92359 C 181.19242,188.57359 172.79342,180.1736 162.44242,180.17359 z "
       style="fill:#000000;fill-opacity:1;stroke:none;stroke-width:0.1;stroke-miterlimit:4;stroke-dashoffset:0;stroke-opacity:1" />
    <path
       style="fill:#000000;fill-opacity:1;stroke:none;stroke-width:0.1;stroke-miterlimit:4;stroke-dashoffset:0;stroke-opacity:1"
       d="M 2320.9962,159.34375 C 2310.7352,159.90954 2303.3087,169.14948 2303.3087,179.375 L 2303.3087,390.875 L 2090.9337,390.875 L 2090.9337,390.96875 C 2090.7965,390.96576 2090.6655,390.9365 2090.5275,390.9375 C 2080.1774,390.93749 2071.7775,399.3365 2071.7775,409.6875 C 2071.7774,420.46349 2081.2534,428.375 2091.8087,428.375 L 2303.3087,428.375 L 2303.3087,639.875 C 2303.3087,651.80277 2311.9372,659.90625 2321.9962,659.90625 C 2332.3472,659.90627 2340.7462,651.50625 2340.7462,641.15625 C 2340.7472,641.01822 2340.718,640.88734 2340.7149,640.75 L 2340.8087,640.75 L 2340.8087,428.375 L 2552.3399,428.375 C 2564.2675,428.375 2572.3712,419.7465 2572.3712,409.6875 C 2572.3713,399.33649 2563.9712,390.9375 2553.6212,390.9375 C 2553.4833,390.93649 2553.3523,390.96575 2553.2149,390.96875 L 2553.2149,390.875 L 2340.8087,390.875 L 2340.8087,178.5 L 2340.7149,178.5 C 2340.7179,178.36266 2340.7472,178.23181 2340.7462,178.09375 C 2340.7462,167.74375 2332.3472,159.34376 2321.9962,159.34375 C 2321.6594,159.34375 2321.3272,159.3255 2320.9962,159.34375 z "
       id="path1446" />
    <path
       style="fill:#000000;fill-opacity:1;stroke:none;stroke-width:0.1;stroke-miterlimit:4;stroke-dashoffset:0;stroke-opacity:1"
       d="M 1820.179,5.65625 C 1817.1629,5.7208346 1814.1513,6.5220176 1811.429,8.09375 C 1802.4648,13.269225 1799.379,24.755386 1804.554,33.71875 C 1804.6222,33.838703 1804.7327,33.91389 1804.804,34.03125 L 1804.7102,34.09375 L 1892.0852,185.40625 L 1717.3665,185.40625 L 1717.3665,185.5 C 1717.2291,185.497 1717.0982,185.46775 1716.9602,185.46875 C 1706.6102,185.46876 1698.2102,193.86775 1698.2102,204.21875 C 1698.2102,214.99476 1707.6862,222.90625 1718.2415,222.90625 L 1892.054,222.90625 L 1804.7102,374.1875 L 1804.804,374.21875 C 1804.7326,374.33616 1804.6222,374.44248 1804.554,374.5625 C 1799.3789,383.52587 1802.4648,395.012 1811.429,400.1875 C 1820.7612,405.57551 1832.3389,401.32866 1837.6165,392.1875 L 1924.554,241.625 L 2011.8665,392.875 L 2011.929,392.8125 C 2011.9949,392.93295 2012.0467,393.06843 2012.1165,393.1875 C 2017.2916,402.15085 2028.7773,405.23798 2037.7415,400.0625 C 2047.0738,394.6745 2049.1754,382.51612 2043.8978,373.375 L 1957.0228,222.90625 L 2130.7728,222.90625 C 2142.7004,222.90625 2150.804,214.27775 2150.804,204.21875 C 2150.8039,193.86776 2142.404,185.46875 2132.054,185.46875 C 2131.9159,185.46776 2131.7851,185.497 2131.6478,185.5 L 2131.6478,185.40625 L 1956.9915,185.40625 L 2043.8978,34.90625 C 2049.8617,24.576558 2046.4217,13.24825 2037.7102,8.21875 C 2028.746,3.0432495 2017.2915,6.1303866 2012.1165,15.09375 C 2012.0467,15.212761 2011.995,15.348345 2011.929,15.46875 L 2011.8665,15.40625 L 1924.554,166.65625 L 1837.6165,16.09375 C 1833.5164,8.992057 1826.8144,5.5141638 1820.179,5.65625 z "
       id="path1452" />
    <path
       sodipodi:nodetypes="ccccccccccc"
       id="path1460"
       d="M 2473.6608,561.34815 C 2473.6608,572.12415 2483.1367,580.03515 2493.692,580.03515 L 2683.8732,580.03515 C 2695.8009,580.03515 2703.9044,571.40715 2703.9044,561.34815 C 2703.9044,550.99715 2695.5044,542.59815 2685.1544,542.59815 C 2685.0164,542.59715 2684.8855,542.62615 2684.7482,542.62915 L 2684.7482,542.53515 L 2492.817,542.53515 L 2492.817,542.62915 C 2492.6797,542.62615 2492.5488,542.59715 2492.4108,542.59815 C 2482.0608,542.59815 2473.6608,550.99715 2473.6608,561.34815 z "
       style="fill:#000000;fill-opacity:1;stroke:none;stroke-width:0.1;stroke-miterlimit:4;stroke-dashoffset:0;stroke-opacity:1" />
    <path
       style="fill:#000000;fill-opacity:1;stroke:none;stroke-width:0.1;stroke-miterlimit:4;stroke-dashoffset:0;stroke-opacity:1"
       d="M 83.581875,132.74083 C 72.805875,132.74083 64.894875,142.2167 64.894875,152.77208 L 64.894875,588.9532 C 64.894875,600.88096 73.522875,608.98445 83.581875,608.98445 C 93.932875,608.98446 102.33188,600.58445 102.33188,590.23445 C 102.33288,590.09641 102.30388,589.96554 102.30088,589.8282 L 102.39488,589.8282 L 102.39488,151.89708 L 102.30088,151.89708 C 102.30388,151.75974 102.33288,151.62889 102.33188,151.49083 C 102.33188,141.14083 93.932875,132.74084 83.581875,132.74083 z "
       id="path1462"
       sodipodi:nodetypes="ccccccccccc" />
    <path
       d="M 11617.709,986.80262 C 11721.64,986.80262 11775.49,914.94067 11775.49,797.27134 C 11775.49,797.27134 11776.803,529.74009 11776.803,529.74009 C 11770.47,386.91608 11727.068,322.24009 11623.521,322.24009 C 11506.783,322.24009 11465.428,404.14587 11465.428,559.70884 C 11465.428,717.59731 11510.452,795.05259 11621.99,795.05259 C 11681.021,795.05259 11712.759,775.6029 11739.553,735.49009 L 11739.553,790.17759 L 11739.647,790.17759 C 11739.57,790.85419 11739.663,791.53348 11739.709,792.20884 C 11739.71,896.96711 11699.549,949.58384 11615.897,949.58384 C 11576.291,948.7939 11546.654,931.68739 11525.897,898.30259 C 11522.513,893.4072 11516.887,890.17759 11510.49,890.17759 C 11500.139,890.1776 11491.74,898.5776 11491.74,908.92759 C 11491.739,912.49021 11492.732,915.80886 11494.459,918.64634 C 11520.633,951.9832 11547.596,986.80262 11617.709,986.80262 z M 11620.178,757.83384 C 11524.269,757.83384 11501.428,688.61864 11501.428,559.70884 C 11501.428,431.69125 11528.649,360.74009 11623.178,360.74009 C 11701.216,360.74009 11733.696,414.39678 11740.459,526.36509 L 11739.553,607.70884 C 11731.009,708.88139 11702.418,757.83384 11620.178,757.83384 z "
       id="path1468"
       sodipodi:nodetypes="cccsssccccccsccccssccc"
       style="fill:#000000;fill-opacity:1;stroke:none;stroke-opacity:1" />
    <path
       style="fill:#000000;fill-opacity:1;stroke:none;stroke-width:0.1;stroke-miterlimit:4;stroke-dashoffset:0;stroke-opacity:1"
       d="M 10698.062,324.90625 C 10594.132,324.90625 10548.281,396.01466 10548.281,560.4375 C 10548.281,742.99139 10599.959,800.75 10698.062,800.75 C 10768.175,800.75 10787.139,765.93062 10813.312,732.59375 C 10815.039,729.75627 10816.031,726.43763 10816.031,722.875 C 10816.031,712.52501 10807.631,704.12502 10797.281,704.125 C 10790.884,704.125 10785.259,707.35462 10781.875,712.25 C 10761.117,745.6348 10739.481,762.74132 10699.875,763.53125 C 10585.104,760.19314 10584.359,659.5099 10584.218,567.53125 L 10584.125,567.53125 C 10584.125,426.69276 10616.939,362.125 10699.875,362.125 C 10739.481,362.91495 10761.117,380.02145 10781.875,413.40625 C 10785.259,418.30165 10790.884,421.53125 10797.281,421.53125 C 10807.631,421.53125 10816.031,413.13124 10816.031,402.78125 C 10816.031,399.21864 10815.039,395.89998 10813.312,393.0625 C 10787.139,359.72565 10768.175,324.90625 10698.062,324.90625 z "
       id="path1473"
       sodipodi:nodetypes="ccccssccccccsscc" />
    <path
       style="fill:#000000;fill-opacity:1;stroke:none;stroke-width:0.1;stroke-miterlimit:4;stroke-dashoffset:0;stroke-opacity:1"
       d="M 16015.7,986.21239 C 16119.631,986.21238 16183.481,912.35047 16183.481,794.68114 L 16184.762,344.49364 C 16184.761,332.56588 16176.134,324.46239 16166.075,324.46239 C 16155.725,324.46238 16147.325,332.86239 16147.325,343.21239 C 16147.325,343.35043 16147.353,343.4813 16147.356,343.61864 L 16147.262,343.61864 L 16147.262,607.46239 L 16147.356,607.46239 C 16147.28,608.139 16147.373,608.81828 16147.419,609.49364 C 16139.773,714.22927 16111.259,764.86864 16027.606,764.86864 C 15941.914,764.86864 15916.57,709.61948 15910.012,605.89989 L 15910.012,344.49364 C 15910.011,332.56588 15901.384,324.46239 15891.325,324.46239 C 15880.975,324.46238 15872.575,332.86239 15872.575,343.21239 C 15872.575,343.35043 15872.603,343.4813 15872.606,343.61864 L 15872.512,343.61864 C 15872.512,343.61864 15874.95,617.02489 15874.95,617.02489 C 15874.951,733.99341 15930.44,802.08739 16029.419,802.08739 C 16085.022,802.08739 16123.854,784.83526 16147.544,749.30614 L 16147.544,787.58739 L 16147.638,787.58739 C 16151.81,880.91589 16104.563,934.66803 16013.888,948.99364 C 15974.282,948.20368 15928.645,931.09719 15907.888,897.71239 C 15904.504,892.81698 15898.878,889.58739 15892.481,889.58739 C 15882.13,889.58738 15873.731,897.9874 15873.731,908.33739 C 15873.73,911.89999 15874.723,915.21866 15876.45,918.05614 C 15902.624,951.39298 15945.587,986.21239 16015.7,986.21239 z "
       id="path1478"
       sodipodi:nodetypes="cccsscccccsccsscccscccccsccc" />
    <path
       style="fill:#000000;fill-opacity:1;stroke:none;stroke-width:0.1;stroke-miterlimit:4;stroke-dashoffset:0;stroke-opacity:1"
       d="M 11024.746,320.90625 C 10931.453,320.90625 10874.965,396.01466 10874.965,560.4375 C 10874.965,718.14117 10944.643,800.75 11042.746,800.75 C 11112.859,800.75 11153.823,765.93062 11179.996,732.59375 C 11181.723,729.75627 11182.715,726.43763 11182.715,722.875 C 11182.714,712.52501 11174.315,704.12502 11163.965,704.125 C 11157.567,704.125 11151.944,707.35462 11148.558,712.25 C 11127.801,745.6348 11084.164,762.74132 11044.558,763.53125 C 10962.953,763.53125 10910.902,679.70053 10910.902,570.8125 L 11164.746,571.4375 C 11176.672,571.43749 11184.777,562.809 11184.777,552.75 C 11184.777,432.55299 11150.164,320.90625 11024.746,320.90625 z M 11026.558,358.125 C 11117.094,358.125 11148.965,455.75026 11148.965,533.9375 L 10912.996,533.9375 C 10912.996,426.0039 10953.935,358.125 11026.558,358.125 z "
       id="path1483"
       sodipodi:nodetypes="ccscsscccccccccc" />
    <path
       style="fill:#000000;fill-opacity:1;stroke:none;stroke-width:0.1;stroke-miterlimit:4;stroke-dashoffset:0;stroke-opacity:1"
       d="M 9334.0852,781.59516 C 9334.0852,792.37116 9343.5612,800.28216 9354.1162,800.28216 L 9742.2982,800.28216 C 9754.2252,800.28216 9762.3292,791.65416 9762.3292,781.59516 C 9762.3292,771.24416 9753.9292,762.84516 9743.5792,762.84516 C 9743.4412,762.84416 9743.3102,762.87316 9743.1732,762.87616 L 9743.1732,762.78216 L 9353.2412,762.78216 L 9353.2412,762.87616 C 9353.1042,762.87316 9352.9732,762.84416 9352.8352,762.84516 C 9342.4852,762.84516 9334.0852,771.24416 9334.0852,781.59516 z "
       id="path1485"
       sodipodi:nodetypes="ccccccccccc" />
    <path
       style="fill:#000000;fill-opacity:1;stroke:none;stroke-width:0.1;stroke-miterlimit:4;stroke-dashoffset:0;stroke-opacity:1"
       d="M 9136.5512,55.90625 C 9131.6872,55.906249 9127.2592,57.771958 9123.9262,60.8125 C 9119.5802,64.247188 9116.7702,69.565528 9116.7702,75.53125 C 9116.7692,77.648509 9117.1642,79.642216 9117.8322,81.5 L 9117.8322,776.03125 C 9117.1632,777.95736 9116.7702,780.03447 9116.7702,782.1875 C 9116.7682,792.9635 9126.2462,800.875 9136.8012,800.875 L 9280.9882,800.875 C 9292.9162,800.87499 9301.0202,792.24651 9301.0202,782.1875 C 9301.0182,771.83651 9292.6202,763.4375 9282.2702,763.4375 C 9282.1302,763.4365 9282.0012,763.46574 9281.8632,763.46875 L 9281.8632,763.375 L 9155.2382,763.375 L 9155.2382,94.21875 L 9280.9882,94.21875 C 9292.9162,94.218746 9301.0202,85.59026 9301.0202,75.53125 C 9301.0192,65.18026 9292.6202,56.78125 9282.2702,56.78125 C 9282.1312,56.78025 9282.0012,56.80949 9281.8632,56.8125 L 9281.8632,56.71875 L 9142.0202,56.71875 C 9140.2812,56.177143 9138.4372,55.90625 9136.5512,55.90625 z "
       id="path1487" />
    <path
       style="fill:#000000;fill-opacity:1;stroke:none;stroke-width:0.1;stroke-miterlimit:4;stroke-dashoffset:0;stroke-opacity:1"
       d="M 14757.705,324.90625 C 14653.774,324.90625 14607.923,366.76754 14607.923,450.4375 C 14607.923,548.38078 14658.145,582.71875 14764.955,582.71875 C 14825.391,582.71875 14867.829,605.87113 14867.829,662.5625 C 14867.829,736.32234 14821.646,760.5625 14738.079,760.5625 C 14698.474,759.7726 14662.837,742.666 14642.079,709.2812 C 14638.695,704.386 14633.07,701.1562 14626.673,701.1562 C 14616.323,701.1563 14607.923,709.5563 14607.923,719.9062 C 14607.923,723.469 14608.915,726.7875 14610.642,729.625 C 14636.815,762.9619 14669.779,797.7812 14739.892,797.7812 C 14837.995,797.7812 14903.673,761.33295 14903.673,655.46875 C 14903.673,570.08538 14837.195,542 14743.579,542 C 14679.318,542 14643.861,490.85549 14643.861,457.53125 L 14643.767,457.53125 C 14643.767,389.8077 14676.581,362.125 14759.517,362.125 C 14799.123,362.91495 14828.759,380.02145 14849.517,413.40625 C 14852.901,418.30165 14858.526,421.53125 14864.923,421.53125 C 14875.273,421.53125 14883.673,413.13124 14883.673,402.78125 C 14883.673,399.21864 14882.681,395.89998 14880.955,393.0625 C 14854.781,359.72565 14827.817,324.90625 14757.705,324.90625 z "
       id="path1375"
       sodipodi:nodetypes="ccccccsscsccccccsscc" />
    <path
       sodipodi:nodetypes="ccscccscc"
       id="path1386"
       d="M 10753.711,853.39404 C 10753.711,913.48802 10727.283,954.73801 10658.82,954.73801 C 10646.892,954.73701 10638.788,946.10901 10638.788,936.05001 C 10638.788,925.69901 10647.188,917.30001 10657.538,917.30001 C 10702.906,917.30001 10716.492,897.92452 10716.492,851.58104 C 10716.492,811.86024 10693.835,793.98804 10658.82,793.98804 C 10646.892,793.98704 10638.788,785.35904 10638.788,775.30002 C 10638.788,764.94902 10647.188,756.55002 10657.538,756.55002 C 10723.693,756.55002 10753.711,791.78808 10753.711,853.39404 z "
       style="fill:#000000;stroke:none;stroke-opacity:1;fill-opacity:1" />
    <path
       sodipodi:nodetypes="cccsscccccsccc"
       id="path1390"
       d="M 12189.793,986.21239 C 12250.641,986.21239 12279.574,952.35039 12279.574,834.68109 L 12280.855,340.49359 C 12280.854,328.56589 12272.227,320.46239 12262.168,320.46239 C 12251.818,320.46239 12243.418,328.86239 12243.418,339.21239 C 12243.418,339.35039 12243.446,339.48129 12243.449,339.61859 L 12243.355,339.61859 L 12243.637,827.58739 C 12243.637,927.37605 12229.342,948.99359 12187.981,948.99359 C 12164.248,948.99359 12153.26,945.35371 12140.265,936.61597 C 12137.191,932.6495 12132.815,931.58739 12128.574,931.58739 C 12118.223,931.58739 12109.824,939.98739 12109.824,950.33739 C 12109.824,956.99641 12112.364,962.17286 12116.259,966.55857 C 12137.148,979.41785 12149.779,986.21239 12189.793,986.21239 z "
       style="fill:#000000;fill-opacity:1;stroke:none;stroke-width:0.1;stroke-miterlimit:4;stroke-dashoffset:0;stroke-opacity:1" />
    <path
       d="M 14422.853,245.15865 C 14482.947,245.15865 14524.196,218.73065 14524.196,150.26765 C 14524.195,138.33964 14515.567,130.23564 14505.508,130.23564 C 14495.157,130.23564 14486.758,138.63564 14486.758,148.98565 C 14486.758,194.35365 14467.383,207.93965 14421.04,207.93965 C 14381.319,207.93965 14363.447,185.28265 14363.447,150.26765 C 14363.446,138.33964 14354.818,130.23564 14344.759,130.23564 C 14334.408,130.23564 14326.009,138.63564 14326.009,148.98565 C 14326.009,215.14065 14361.247,245.15865 14422.853,245.15865 z "
       id="path1396"
       sodipodi:nodetypes="ccscccscc"
       style="fill:#000000;fill-opacity:1;stroke:none;stroke-opacity:1" />
    <path
       id="path1398"
       d="M 12280.047,150.0749 C 12280.047,160.4249 12271.647,168.8249 12261.297,168.8249 C 12250.947,168.8249 12242.547,160.4249 12242.547,150.0749 C 12242.547,139.7249 12250.947,131.3249 12261.297,131.3249 C 12271.647,131.3249 12280.047,139.7249 12280.047,150.0749 z "
       style="fill:#000000;fill-opacity:1;stroke:none;stroke-width:0.1;stroke-miterlimit:4;stroke-dashoffset:0;stroke-opacity:1" />
    <path
       style="fill:#000000;fill-opacity:1;stroke:none;stroke-width:0.1;stroke-miterlimit:4;stroke-dashoffset:0;stroke-opacity:1"
       d="M 13694.999,150.0749 C 13694.999,160.4249 13686.599,168.8249 13676.249,168.8249 C 13665.899,168.8249 13657.499,160.4249 13657.499,150.0749 C 13657.499,139.7249 13665.899,131.3249 13676.249,131.3249 C 13686.599,131.3249 13694.999,139.7249 13694.999,150.0749 z "
       id="path1402" />
    <path
       id="path1404"
       d="M 13870.876,150.0749 C 13870.876,160.4249 13862.476,168.8249 13852.126,168.8249 C 13841.776,168.8249 13833.376,160.4249 13833.376,150.0749 C 13833.376,139.7249 13841.776,131.3249 13852.126,131.3249 C 13862.476,131.3249 13870.876,139.7249 13870.876,150.0749 z "
       style="fill:#000000;fill-opacity:1;stroke:none;stroke-width:0.1;stroke-miterlimit:4;stroke-dashoffset:0;stroke-opacity:1" />
    <path
       style="fill:#000000;fill-opacity:1;stroke:none;stroke-width:0.1;stroke-miterlimit:4;stroke-dashoffset:0;stroke-opacity:1"
       d="M 12334.243,129.5 C 12323.467,129.5 12315.556,138.97587 12315.556,149.53125 L 12315.556,780.5 C 12315.556,792.42776 12324.184,800.53125 12334.243,800.53125 C 12344.594,800.53126 12352.993,792.13125 12352.993,781.78125 L 12353.025,596.21875 L 12399.587,548.8125 L 12604.868,792.40625 C 12612.212,801.8054 12624.005,802.88065 12631.931,796.6875 C 12640.088,790.31512 12641.522,778.53095 12635.149,770.375 L 12427.118,521.125 L 12610.806,333.84375 C 12619.53,325.70841 12619.572,313.88782 12612.712,306.53125 C 12605.651,298.96256 12593.784,298.53424 12586.212,305.59375 L 12353.025,539 L 12353.056,148.65625 L 12352.962,148.65625 C 12352.965,148.51891 12352.994,148.38806 12352.993,148.25 C 12352.993,137.9 12344.594,129.50001 12334.243,129.5 z "
       id="path1406"
       sodipodi:nodetypes="cccsccccccccccccccc" />
    <path
       style="fill:#000000;fill-opacity:1;stroke:none;stroke-width:0.1;stroke-miterlimit:4;stroke-dashoffset:0;stroke-opacity:1"
       d="M 11385.662,138.875 C 11324.815,138.87501 11291.88,172.73695 11291.88,290.40625 L 11291.724,346.53125 L 11245.13,346.53125 L 11245.13,346.625 C 11244.994,346.622 11244.862,346.59275 11244.724,346.59375 C 11234.373,346.59376 11225.974,354.99275 11225.974,365.34375 C 11225.973,376.11976 11235.45,384.03125 11246.006,384.03125 L 11291.63,384.03125 L 11290.599,784.59375 C 11290.6,796.52148 11299.228,804.625 11309.287,804.625 C 11319.638,804.62498 11328.037,796.225 11328.037,785.875 C 11328.038,785.73698 11328.009,785.60605 11328.006,785.46875 L 11328.099,785.46875 L 11327.88,384.03125 L 11446.193,384.03125 C 11458.119,384.03125 11466.224,375.40275 11466.224,365.34375 C 11466.225,354.99276 11457.824,346.59375 11447.474,346.59375 C 11447.337,346.59276 11447.205,346.622 11447.068,346.625 L 11447.068,346.53125 L 11327.849,346.53125 L 11327.818,297.5 C 11327.819,197.71135 11346.113,176.09375 11387.474,176.09375 C 11411.208,176.09375 11424.167,179.73101 11437.162,188.46875 C 11440.235,192.43523 11444.64,193.5 11448.88,193.5 C 11459.231,193.50001 11467.63,185.1 11467.63,174.75 C 11467.63,168.09099 11465.088,162.91696 11461.193,158.53125 C 11440.304,145.67197 11425.676,138.875 11385.662,138.875 z "
       id="path1422" />
    <path
       id="path1427"
       d="M 15044.365,802.48315 C 14983.518,802.48314 14950.583,768.6212 14950.583,650.9519 L 14950.427,364.8269 L 14903.833,364.8269 L 14903.833,364.73315 C 14903.697,364.73615 14903.565,364.7654 14903.427,364.7644 C 14893.076,364.76439 14884.677,356.3654 14884.677,346.0144 C 14884.676,335.23839 14894.153,327.3269 14904.709,327.3269 L 14950.333,327.3269 L 14949.302,156.7644 C 14949.303,144.83667 14957.931,136.73315 14967.99,136.73315 C 14978.341,136.73317 14986.74,145.13315 14986.74,155.48315 C 14986.741,155.62117 14986.712,155.7521 14986.709,155.8894 L 14986.802,155.8894 L 14986.583,327.3269 L 15104.896,327.3269 C 15116.822,327.3269 15124.927,335.9554 15124.927,346.0144 C 15124.928,356.36539 15116.527,364.7644 15106.177,364.7644 C 15106.04,364.76539 15105.908,364.73615 15105.771,364.73315 L 15105.771,364.8269 L 14986.552,364.8269 L 14986.521,643.85815 C 14986.522,743.6468 15004.816,765.2644 15046.177,765.2644 C 15069.911,765.2644 15082.87,761.62714 15095.865,752.8894 C 15098.938,748.92292 15103.343,747.85815 15107.583,747.85815 C 15117.934,747.85814 15126.333,756.25815 15126.333,766.60815 C 15126.333,773.26716 15123.791,778.44119 15119.896,782.8269 C 15099.007,795.68618 15084.379,802.48315 15044.365,802.48315 z "
       style="fill:#000000;fill-opacity:1;stroke:none;stroke-width:0.1;stroke-miterlimit:4;stroke-dashoffset:0;stroke-opacity:1"
       sodipodi:nodetypes="ccccccccccscccccccccccscsscc" />
    <path
       style="fill:#000000;fill-opacity:1;stroke:none;stroke-width:0.1;stroke-miterlimit:4;stroke-dashoffset:0;stroke-opacity:1"
       d="M 7398.4988,408.14651 C 7389.9248,419.16926 7390.9048,436.36004 7398.4678,445.64651 L 7668.2788,789.61525 L 7668.3418,789.55275 C 7668.4078,789.6732 7668.4588,789.80868 7668.5288,789.92775 C 7673.7038,798.8911 7685.1898,801.97823 7694.1538,796.80275 C 7703.4858,791.41475 7705.5878,779.25637 7700.3098,770.11525 C 7612.1948,655.02378 7525.3008,538.99558 7436.8788,424.13959 L 7700.3098,83.64651 C 7706.2738,73.31682 7702.8338,61.98851 7694.1228,56.95901 C 7685.1588,51.78351 7673.7038,54.87064 7668.5288,63.83401 C 7668.4588,63.95302 7668.4078,64.0886 7668.3418,64.20901 L 7668.2788,64.14651 L 7398.4988,408.14651 z "
       id="path1431"
       sodipodi:nodetypes="cccccscccscccc" />
    <path
       id="path1433"
       d="M 15546.341,324.79455 C 15543.325,324.85915 15540.313,325.66035 15537.591,327.23205 C 15528.626,332.40755 15525.541,343.89375 15530.716,352.85705 C 15530.784,352.97705 15530.894,353.05225 15530.966,353.16955 L 15530.872,353.23205 L 15666.216,560.82062 L 15530.872,771.32589 L 15530.966,771.35709 C 15530.894,771.47449 15530.784,771.58079 15530.716,771.70089 C 15525.541,780.66419 15528.626,792.15039 15537.591,797.32589 C 15546.923,802.71389 15558.501,798.46699 15563.778,789.32589 L 15688.716,598.76339 L 15812.028,790.01339 L 15812.091,789.95089 C 15812.157,790.07129 15812.208,790.20679 15812.278,790.32589 C 15817.453,799.28919 15828.939,802.37629 15837.903,797.20089 C 15847.235,791.81289 15849.337,779.65449 15844.059,770.51339 L 15709.523,562.48208 L 15844.059,354.04459 C 15850.023,343.71485 15846.583,332.38655 15837.872,327.35705 C 15828.908,322.18155 15817.453,325.26875 15812.278,334.23205 L 15688.716,523.79459 L 15563.778,335.23205 C 15559.678,328.13035 15552.976,324.65245 15546.341,324.79455 z "
       style="fill:#000000;fill-opacity:1;stroke:none;stroke-width:0.1;stroke-miterlimit:4;stroke-dashoffset:0;stroke-opacity:1"
       sodipodi:nodetypes="cscccccccscccccscccscccc" />
    <path
       sodipodi:nodetypes="ccccccccccc"
       id="path1435"
       d="M 7588.6488,308.01934 C 7588.6488,318.79534 7598.1248,326.70634 7608.6798,326.70634 L 7918.8618,326.70634 C 7930.7888,326.70634 7938.8928,318.07834 7938.8928,308.01934 C 7938.8928,297.66834 7930.4928,289.26934 7920.1428,289.26934 C 7920.0048,289.26834 7919.8738,289.29734 7919.7368,289.30034 L 7919.7368,289.20634 L 7607.8048,289.20634 L 7607.8048,289.30034 C 7607.6678,289.29734 7607.5368,289.26834 7607.3988,289.26934 C 7597.0488,289.26934 7588.6488,297.66834 7588.6488,308.01934 z "
       style="fill:#000000;fill-opacity:1;stroke:none;stroke-width:0.1;stroke-miterlimit:4;stroke-dashoffset:0;stroke-opacity:1" />
    <path
       style="fill:#000000;fill-opacity:1;stroke:none;stroke-width:0.1;stroke-miterlimit:4;stroke-dashoffset:0;stroke-opacity:1"
       d="M 7588.6488,545.19514 C 7588.6488,555.97114 7598.1248,563.88214 7608.6798,563.88214 L 7918.8618,563.88214 C 7930.7888,563.88214 7938.8928,555.25414 7938.8928,545.19514 C 7938.8928,534.84414 7930.4928,526.44514 7920.1428,526.44514 C 7920.0048,526.44414 7919.8738,526.47314 7919.7368,526.47614 L 7919.7368,526.38214 L 7607.8048,526.38214 L 7607.8048,526.47614 C 7607.6678,526.47314 7607.5368,526.44414 7607.3988,526.44514 C 7597.0488,526.44514 7588.6488,534.84414 7588.6488,545.19514 z "
       id="path1437"
       sodipodi:nodetypes="ccccccccccc" />
    <path
       style="fill:#000000;fill-opacity:1;stroke:none;stroke-width:0.1;stroke-miterlimit:4;stroke-dashoffset:0;stroke-opacity:1"
       d="M 6335.8307,117.84169 L 5937.1117,117.84169 L 5937.1117,117.93539 C 5936.9747,117.93239 5936.8437,117.90319 5936.7057,117.90419 C 5926.3557,117.90419 5917.9557,126.30319 5917.9557,136.65419 C 5917.9557,147.43019 5927.4317,155.34169 5937.9867,155.34169 L 6335.7997,155.34169 L 5920.4557,782.62289 L 5920.5497,782.65419 C 5920.4777,782.77159 5920.3677,782.87789 5920.2997,782.99789 C 5915.1247,791.96129 5918.2107,803.44739 5927.1747,808.62289 C 5936.5067,814.01089 5948.0847,809.76409 5953.3617,800.62289 L 6368.2997,174.06039 C 6388.5161,143.61366 6375.5648,117.84169 6335.8307,117.84169 z "
       id="path1439"
       sodipodi:nodetypes="ccccscccccsccc" />
    <path
       id="path1441"
       d="M 15175.388,314.11336 C 15164.767,315.45479 15154.086,328.08947 15159.763,340.28552 C 15170.24,528.90052 15264.712,800.34726 15331.273,800.34726 C 15408.756,800.34726 15486.65,506.10279 15503.107,343.36336 C 15509.07,333.03366 15505.63,321.70536 15496.919,316.67586 C 15487.955,311.50036 15476.5,314.58746 15471.325,323.55086 C 15471.255,323.66986 15471.204,323.80546 15471.138,323.92586 L 15471.075,323.86336 C 15440.489,543.88528 15363.341,743.39678 15331.763,753.11336 C 15301.003,740.13557 15219.99,548.32446 15192.825,324.55086 C 15188.725,317.44916 15182.023,313.97126 15175.388,314.11336 z "
       style="fill:#000000;fill-opacity:1;stroke:none;stroke-width:0.1;stroke-miterlimit:4;stroke-dashoffset:0;stroke-opacity:1"
       sodipodi:nodetypes="ccccscccccc" />
    <path
       style="fill:#000000;fill-opacity:1;stroke:none;stroke-width:0.1;stroke-miterlimit:4;stroke-dashoffset:0;stroke-opacity:1"
       d="M 16240.706,333.11525 L 16240.706,333.209 C 16240.569,333.206 16240.437,333.17675 16240.299,333.17775 C 16229.948,333.17775 16221.549,341.57675 16221.549,351.92775 C 16221.548,362.70375 16231.025,370.61525 16241.58,370.61525 L 16477.393,370.61525 L 16229.362,743.0244 C 16209.146,773.4712 16222.097,799.2432 16261.831,799.2432 L 16500.549,799.2432 L 16500.549,799.1494 C 16500.687,799.1524 16500.818,799.1817 16500.956,799.1807 C 16511.306,799.1807 16519.706,790.7817 16519.706,780.4307 C 16519.706,769.6547 16510.23,761.7432 16499.675,761.7432 L 16261.862,761.7432 L 16509.893,389.334 C 16530.103,358.89539 16517.165,333.129 16477.456,333.11525 L 16240.706,333.11525 z "
       id="path1443"
       sodipodi:nodetypes="cccccccccccsccccc" />
    <path
       sodipodi:nodetypes="cccccccccc"
       id="path1362"
       d="M 3302.1779,102.56666 C 3150.0729,102.56666 3074.7409,212.27132 3074.7409,465.91041 C 3074.7409,712.54984 3154.2213,801.37916 3300.6469,801.37916 C 3456.2717,801.37916 3534.7409,710.6689 3534.7409,465.91041 C 3534.7409,216.11572 3461.8277,102.56666 3302.1779,102.56666 z M 3303.9909,139.78541 C 3423.8669,139.78541 3498.7409,245.60809 3498.7409,465.91041 C 3498.7409,674.25893 3434.4392,762.87916 3300.9909,762.87916 C 3182.524,762.87916 3110.7409,657.82854 3110.7409,465.91041 C 3110.7409,221.81203 3185.7312,139.78541 3303.9909,139.78541 z "
       style="fill:#000000;stroke:none;stroke-opacity:1;fill-opacity:1" />
    <path
       id="path1364"
       d="M 3623.7838,101.38032 C 3628.6478,101.38032 3633.0758,103.24603 3636.4088,106.28657 C 3640.7548,109.72126 3643.5648,115.0396 3643.5648,121.00532 C 3643.5648,121.00532 3643.2079,546.19773 3643.5648,781.66157 C 3643.5668,792.43757 3634.0888,800.34907 3623.5338,800.34907 C 3613.0971,800.34907 3605.3148,793.31189 3605.3148,781.66157 L 3605.0968,139.69282 L 3537.3468,139.69282 C 3525.4188,139.69282 3517.3148,131.06433 3517.3148,121.00532 C 3517.3148,108.81384 3524.6694,100.28657 3536.4718,100.28657 C 3536.4718,100.28657 3623.7838,101.38032 3623.7838,101.38032 z "
       style="fill:#000000;fill-opacity:1;stroke:none;stroke-width:0.1;stroke-miterlimit:4;stroke-dashoffset:0;stroke-opacity:1"
       sodipodi:nodetypes="ccccccccccc" />
    <path
       sodipodi:nodetypes="ccccccc"
       id="path1366"
       d="M 2426.2888,592.90278 C 2415.5128,592.90278 2407.6018,602.37865 2407.6018,612.93403 L 2407.6018,785.11515 C 2407.6018,797.04291 2416.2298,805.1464 2426.2888,805.1464 C 2436.6398,805.14641 2445.0388,796.7464 2445.0388,786.3964 L 2445.1018,612.05903 C 2444.0463,600.37959 2436.9432,595.61673 2426.2888,592.90278 z "
       style="fill:#000000;fill-opacity:1;stroke:none;stroke-width:0.1;stroke-miterlimit:4;stroke-dashoffset:0;stroke-opacity:1" />
    <path
       style="fill:#000000;fill-opacity:1;stroke:none;stroke-width:0.1;stroke-miterlimit:4;stroke-dashoffset:0;stroke-opacity:1"
       d="M 2684.3731,791.98578 C 2692.9792,798.4709 2704.9998,795.66406 2711.3523,787.23419 L 3128.8123,131.12028 C 3135.9906,121.59423 3133.977,109.93002 3125.9434,103.87635 C 3117.6765,97.647078 3105.9138,99.300919 3099.6849,107.5667 L 2680.877,765.36494 C 2674.6909,775.32766 2677.4972,783.40631 2684.3731,791.98578 z "
       id="path1368"
       sodipodi:nodetypes="ccccccc" />
    <path
       style="fill:#000000;fill-opacity:1;stroke:none;stroke-width:0.1;stroke-miterlimit:4;stroke-dashoffset:0;stroke-opacity:1"
       d="M 4950.1713,98.90625 C 4940.8433,98.906251 4933.6826,105.99505 4931.9213,114.75 L 4614.3588,591.25 C 4594.1422,621.69671 4607.0934,647.46875 4646.8276,647.46875 L 4931.4838,647.46875 L 4931.4838,777.125 C 4931.484,789.05274 4940.1123,797.15625 4950.1713,797.15625 C 4960.5225,797.15624 4968.9213,788.75625 4968.9213,778.40625 L 4968.9213,647.46875 L 5045.5463,647.46875 L 5045.5463,647.375 C 5045.6831,647.37798 5045.8146,647.40725 5045.9526,647.40625 C 5056.3026,647.40624 5064.7026,639.00725 5064.7026,628.65625 C 5064.7026,617.88024 5055.2263,609.96875 5044.6713,609.96875 L 4968.9526,609.96875 L 4968.9838,118.0625 C 4967.9285,106.38306 4960.8257,101.6202 4950.1713,98.90625 z M 4931.4838,182.78125 L 4931.4838,609.96875 L 4646.8588,609.96875 L 4931.4838,182.78125 z "
       id="path1372" />
    <path
       sodipodi:nodetypes="cccsssccccccsccccsscc"
       id="path1374"
       d="M 7048.9885,802.23885 C 7152.9195,802.23885 7224.7695,730.3769 7224.7695,612.70757 C 7224.7695,612.70757 7226.0825,317.17632 7226.0825,317.17632 C 7219.7495,174.35231 7146.3475,109.67632 7042.8005,109.67632 C 6926.0625,109.67632 6854.7075,152.29005 6854.7075,291.14507 C 6854.7075,428.22796 6929.7315,470.48882 7041.2695,470.48882 C 7100.3005,470.48882 7153.6126,454.18731 7188.8325,430.92632 L 7188.8325,605.61382 L 7188.9265,605.61382 C 7188.8495,606.29042 7188.9425,606.96971 7188.9885,607.64507 C 7188.9895,712.40334 7130.8285,765.02007 7047.1765,765.02007 C 7007.5705,764.23013 6959.9335,747.12362 6939.1765,713.73882 C 6935.7925,708.84343 6930.1665,705.61382 6923.7695,705.61382 C 6913.4185,705.61383 6905.0195,714.01383 6905.0195,724.36382 C 6905.0185,727.92644 6906.0115,731.24509 6907.7385,734.08257 C 6933.9125,767.41943 6978.8755,802.23885 7048.9885,802.23885 z M 7039.4575,433.27007 C 6943.5485,433.27007 6890.7075,392.69251 6890.7075,291.14507 C 6890.7075,177.85324 6941.5871,148.17632 7042.4575,148.17632 C 7120.4955,148.17632 7182.9755,201.83301 7189.7385,313.80132 C 7189.7385,388.20626 7172.4372,433.27007 7039.4575,433.27007 z "
       style="fill:#000000;stroke:none;stroke-opacity:1;fill-opacity:1" />
    <path
       d="M 5701.9597,109.67632 C 5598.0287,109.67632 5510.1787,181.53827 5510.1787,299.2076 C 5510.1787,299.2076 5508.8657,612.73885 5508.8657,612.73885 C 5508.8657,737.84206 5586.6007,800.23885 5690.1477,800.23885 C 5806.8857,800.23885 5886.2407,753.65008 5886.2407,618.7701 C 5886.2407,515.42162 5816.5968,435.42635 5691.6787,435.42635 C 5632.6477,435.42635 5575.8656,455.65539 5546.1157,480.98885 L 5546.1157,306.30135 L 5546.0217,306.30135 C 5546.0987,305.62475 5546.0057,304.94546 5545.9597,304.2701 C 5545.9587,199.51183 5620.1197,146.8951 5703.7717,146.8951 C 5802.9663,146.8951 5851.7717,232.30117 5851.7717,328.17635 C 5855.1557,333.07174 5860.7817,336.30135 5867.1787,336.30135 C 5877.5297,336.30134 5885.9287,327.90134 5885.9287,317.55135 C 5885.9287,196.6616 5822.4771,109.67632 5701.9597,109.67632 z M 5693.4907,472.6451 C 5789.3997,472.6451 5850.2407,523.80679 5850.2407,618.7701 C 5850.2407,732.00834 5785.0197,761.73885 5690.4907,761.73885 C 5612.4527,761.73885 5551.9727,718.08216 5545.2097,606.11385 L 5546.1157,546.7701 C 5546.1157,495.74029 5643.568,472.6451 5693.4907,472.6451 z "
       id="path1376"
       sodipodi:nodetypes="cccsssccccccscccssccc"
       style="fill:#000000;stroke:none;stroke-opacity:1;fill-opacity:1" />
    <path
       sodipodi:nodetypes="cccccscccscccc"
       id="path1378"
       d="M 9518.9012,7.42421 C 9507.8782,-1.1497896 9490.6882,-0.1697896 9481.4012,7.39321 L 9275.4322,219.20521 L 9275.4952,219.26821 C 9275.3742,219.33421 9275.2392,219.38521 9275.1202,219.45521 C 9266.1572,224.63021 9263.0692,236.11621 9268.2452,245.08021 C 9273.6332,254.41221 9285.7912,256.51421 9294.9322,251.23621 C 9294.9322,251.23621 9502.9082,45.80421 9502.9082,45.80421 L 9711.4012,251.23621 C 9721.7312,257.20021 9733.0592,253.76021 9738.0892,245.04921 C 9743.2642,236.08521 9740.1772,224.63021 9731.2142,219.45521 C 9731.0952,219.38521 9730.9592,219.33421 9730.8392,219.26821 L 9730.9012,219.20521 L 9518.9012,7.42421 z "
       style="fill:#000000;fill-opacity:1;stroke:none;stroke-width:0.1;stroke-miterlimit:4;stroke-dashoffset:0;stroke-opacity:1" />
    <path
       style="fill:#000000;fill-opacity:1;stroke:none;stroke-width:0.1;stroke-miterlimit:4;stroke-dashoffset:0;stroke-opacity:1"
       d="M 16636.489,99.03125 C 16631.625,99.031247 16627.197,100.89696 16623.864,103.9375 C 16619.518,107.37219 16616.708,112.69053 16616.708,118.65625 C 16616.708,298.71289 16624.11,429.40625 16579.77,429.40625 L 16537.208,429.40625 L 16537.208,429.5 C 16537.071,429.49701 16536.939,429.46775 16536.802,429.46875 C 16526.452,429.46874 16518.052,437.86775 16518.052,448.21875 C 16518.052,458.99474 16538.083,466.90625 16538.083,466.90625 C 16538.083,466.90625 16541.556,466.90625 16579.77,466.90625 C 16608.735,466.90625 16616.708,526.18512 16616.708,781.3125 C 16616.706,792.08853 16626.184,800 16636.739,800 L 16780.926,800 C 16792.854,800.00002 16800.958,791.37151 16800.958,781.3125 C 16800.956,770.96154 16792.558,762.5625 16782.208,762.5625 C 16782.068,762.56153 16781.939,762.59074 16781.802,762.59375 L 16781.802,762.5 L 16655.176,762.5 C 16655.176,521.87252 16653.236,482.03306 16621.805,448.21875 C 16657.634,429.74529 16655.176,295.04298 16655.176,137.34375 L 16780.926,137.34375 C 16792.854,137.34374 16800.958,128.71526 16800.958,118.65625 C 16800.957,108.30526 16792.558,99.90625 16782.208,99.90625 C 16782.069,99.905247 16781.939,99.93449 16781.802,99.9375 L 16781.802,99.84375 C 16733.398,99.714333 16684.751,100.42439 16636.489,99.03125 z "
       id="path1380"
       sodipodi:nodetypes="cccccccscccccccccccccccccc" />
    <path
       d="M 1689.0841,97.75 C 1682.1228,97.75 1676.7885,99.207286 1670.3341,106.5 C 1606.9856,194.00199 1570.2716,294.82144 1570.2716,450.25 C 1570.2716,607.66458 1624.4738,736.97237 1676.3341,793.5625 C 1679.7311,797.45823 1683.8187,800.3125 1689.0841,800.3125 C 1699.4341,800.31249 1707.8342,791.91251 1707.8341,781.5625 C 1707.8341,776.28481 1705.6285,771.5334 1702.1153,768.125 C 1631.7697,669.14019 1610.2716,599.62051 1610.2716,450.25 C 1610.2716,289.63141 1645.475,227.29185 1702.2716,132.25 C 1705.257,127.22862 1707.8341,122.54387 1707.8341,116.5 C 1707.8341,106.15 1699.4342,97.750001 1689.0841,97.75 z "
       id="path1384"
       sodipodi:nodetypes="ccccssccccc"
       style="fill:#000000;stroke:none;stroke-opacity:1;fill-opacity:1" />
    <path
       style="fill:#000000;fill-opacity:1;stroke:none;stroke-width:0.1;stroke-miterlimit:4;stroke-dashoffset:0;stroke-opacity:1"
       d="M 7317.1011,683.68343 C 7317.1011,694.03343 7308.7011,702.43343 7298.3511,702.43343 C 7288.0011,702.43343 7279.6011,694.03343 7279.6011,683.68343 C 7279.6011,673.33343 7288.0011,664.93343 7298.3511,664.93343 C 7308.7011,664.93343 7317.1011,673.33343 7317.1011,683.68343 z "
       id="path1399" />
    <path
       style="fill:#000000;fill-opacity:1;stroke:none;stroke-width:0.1;stroke-miterlimit:4;stroke-dashoffset:0;stroke-opacity:1"
       d="M 7364.9087,589.1875 C 7354.5587,589.1875 7346.1588,597.58748 7346.1587,607.9375 C 7346.1587,607.9375 7346.1587,779.9375 7346.1587,779.9375 C 7346.1587,790.2875 7354.5588,798.68748 7364.9087,798.6875 C 7375.2588,798.6875 7383.6588,790.28748 7383.6588,779.9375 C 7383.6588,779.9375 7383.6588,607.9375 7383.6588,607.9375 C 7383.6588,597.5875 7375.2588,589.18748 7364.9087,589.1875 z "
       id="path1401"
       sodipodi:nodetypes="cccsccc" />
    <path
       d="M 6598.7835,102.23159 C 6440.8952,102.23156 6387.4397,177.25609 6387.4397,288.79409 C 6387.4399,366.05029 6420.7274,433.68429 6490.096,456.95039 C 6421.3736,481.69239 6387.4397,546.75329 6387.4397,620.57539 C 6387.4399,736.75639 6438.7101,802.01279 6598.7835,802.01279 C 6762.5595,802.01279 6812.2523,732.63759 6812.2523,622.10659 C 6812.2523,545.28939 6776.7695,480.79879 6708.1897,456.60659 C 6779.1931,432.71329 6812.2523,364.33699 6812.2523,290.32539 C 6812.2523,173.58629 6754.3464,102.23159 6598.7835,102.23159 z M 6598.7835,138.23159 C 6726.8012,138.23159 6773.7523,195.45259 6773.7523,289.98159 C 6765.9586,397.49683 6691.1205,438.15274 6598.7835,438.01279 C 6494.8617,442.48555 6440.7879,394.12005 6424.6585,286.98159 C 6424.6587,191.07249 6469.8737,138.23159 6598.7835,138.23159 z M 6598.7835,474.23159 C 6703.6054,468.0536 6773.7523,526.63902 6773.7523,621.76279 C 6773.7523,707.18579 6733.4758,766.01279 6598.7835,766.01279 C 6465.0426,766.01279 6424.6585,713.09279 6424.6585,618.76279 C 6424.6585,522.80064 6505.1027,473.95917 6598.7835,474.23159 z "
       id="path1352"
       sodipodi:nodetypes="ccccsscsccccccccscc"
       style="fill:#000000;stroke:none;stroke-opacity:1;fill-opacity:1" />
    <path
       style="fill:#000000;fill-opacity:1;stroke:none;stroke-width:0.1;stroke-miterlimit:4;stroke-dashoffset:0;stroke-opacity:1"
       d="M 3917.2192,99.24029 C 4054.0507,99.24029 4119.0004,165.30948 4119.0004,306.77154 C 4119.0004,457.69075 4061.2824,517.05279 3909.9692,517.05279 C 3819.4554,517.05279 3751.0942,569.5801 3751.0942,654.89654 L 3753.8754,756.42779 L 4099.8442,756.64654 C 4111.4946,756.64654 4118.5317,764.42861 4118.5317,774.86529 C 4118.5317,785.42029 4110.6202,794.89855 4099.8442,794.89654 C 3864.3804,794.53964 3735.1877,794.89655 3735.188,794.89654 C 3729.2223,794.89654 3723.9041,792.08631 3720.4692,787.74029 C 3717.4287,784.40729 3715.5627,779.97931 3715.563,775.11529 C 3715.563,775.11529 3715.2504,647.80279 3715.2504,647.80279 C 3715.2504,535.92652 3799.045,476.33404 3931.3442,476.33404 C 4028.8765,476.33404 4083.063,420.2802 4083.063,313.86529 C 4083.063,192.50874 4028.6162,136.45904 3915.4067,136.45904 C 3801.415,136.45904 3753.4067,142.6736 3753.4067,197.74029 C 3753.4067,208.36914 3744.3974,213.86529 3738.0004,213.86529 C 3727.6505,213.86529 3719.2504,205.46528 3719.2504,195.11529 C 3719.2504,113.53502 3792.3855,99.24029 3917.2192,99.24029 z "
       id="path1357"
       sodipodi:nodetypes="csscccscscccscccscc" />
    <path
       style="fill:#000000;fill-opacity:1;stroke:none;stroke-width:0.1;stroke-miterlimit:4;stroke-dashoffset:0;stroke-opacity:1"
       d="M 5057.9558,127.99648 C 5057.956,127.99648 5056.8932,403.07957 5056.8932,403.07957 C 5056.891,413.85559 5066.3695,421.76707 5076.9245,421.76707 L 5262.5808,421.76707 C 5355.6774,421.76707 5424.2682,484.51703 5424.2682,582.04832 C 5424.2682,683.18241 5367.2095,764.04832 5244.5182,764.04832 C 5112.8462,764.04832 5092.5182,720.97706 5092.5182,668.76707 C 5089.1342,663.87188 5083.509,660.64207 5077.112,660.64207 C 5066.7622,660.64218 5058.362,669.04217 5058.362,679.39207 C 5058.7885,788.43292 5159.4544,794.91992 5246.3308,801.26707 C 5386.9088,801.26707 5460.112,710.56668 5460.112,574.95457 C 5460.112,458.87717 5375.6286,383.98582 5250.7995,383.98582 L 5095.362,384.26707 L 5095.362,140.71523 L 5438.2241,140.71523 C 5450.1521,140.71522 5458.2553,132.08674 5458.2553,122.02773 C 5458.2541,111.67674 5449.8554,103.27773 5439.5053,103.27773 C 5439.3661,103.27673 5439.2371,103.30597 5439.0991,103.30898 L 5439.0991,103.21523 L 5082.1432,103.21523 C 5066.641,103.21523 5057.292,113.70642 5057.9558,127.99648 z "
       id="path1359"
       sodipodi:nodetypes="cccccccsccccccccccccc" />
    <path
       style="fill:#000000;stroke:none;stroke-opacity:1;fill-opacity:1"
       d="M 4335.5343,102.21875 C 4216.6298,102.21875 4141.7219,138.65336 4141.7219,240 C 4141.722,250.37705 4150.126,258.78125 4160.5031,258.78125 C 4170.8803,258.78125 4179.3156,250.37705 4179.3156,240 C 4179.3156,166.30112 4245.6997,138.21875 4335.5343,138.21875 C 4463.5518,138.21876 4506.5031,203.43975 4506.5031,297.96875 C 4506.5031,428.07765 4480.8582,437.8125 4338.3469,437.8125 C 4312.8801,437.8125 4309.8022,473.84375 4338.3469,473.84375 C 4476.8142,473.84375 4506.5031,468.62572 4506.5031,613.75 C 4506.5029,699.17297 4466.2265,766 4331.5343,766 C 4232.4924,766 4194.5719,727.15882 4180.2219,675.09375 C 4178.7955,664.26455 4172.2177,657.76729 4160.5031,654.65625 C 4150.1261,654.65625 4141.7219,663.0917 4141.7219,673.46875 C 4142.2854,754.26762 4218.3876,802 4331.5343,802 C 4495.3101,801.99997 4545.0031,724.62475 4545.0031,614.09375 C 4545.0031,492.79693 4532.8639,477.23174 4490.9406,456.59375 C 4533.5101,438.03175 4545.0031,402.59543 4545.0031,298.3125 C 4545.0029,181.57341 4491.0971,102.21875 4335.5343,102.21875 z "
       id="path1355"
       sodipodi:nodetypes="ccsccccccscccccccc" />
    <path
       style="fill:#000000;fill-opacity:1;stroke:none;stroke-width:0.1;stroke-miterlimit:4;stroke-dashoffset:0;stroke-opacity:1"
       d="M 8157.3567,84.375 C 8002.0419,84.375 7973.388,131.09276 7973.388,214.25 C 7973.388,224.59999 7981.7875,233 7992.138,233 C 7998.535,233 8004.1605,229.7704 8007.5443,224.875 C 8007.5443,139.89021 8051.1537,121.59375 8155.5443,121.59375 C 8275.0078,121.59375 8305.2943,150.22301 8305.2943,249 C 8302.8874,320.79745 8264.8677,351.79374 8197.4817,359.46875 C 8113.4609,359.46875 8053.4505,410.42326 8053.4505,491.73597 C 8053.0704,493.22345 8052.8568,565.95711 8052.8567,567.5625 C 8052.8567,577.9125 8061.2569,586.31248 8071.6067,586.3125 C 8081.9568,586.3125 8090.3569,577.91248 8090.3567,567.5625 C 8090.3567,565.62188 8090.0611,498.03651 8089.513,496.27551 C 8093.3869,445.42437 8134.6112,400.1875 8192.1067,400.1875 C 8280.6787,400.1875 8341.138,369.11283 8341.138,241.90625 C 8341.138,123.20793 8286.8599,84.375 8157.3567,84.375 z "
       id="path1360"
       sodipodi:nodetypes="ccscccccssscscc" />
    <path
       d="M 8678.3726,149.71123 C 8495.8189,149.71113 8326.0609,233.94163 8326.0609,555.49248 C 8326.0609,682.44644 8391.0689,873.46123 8527.9349,873.46123 C 8538.2859,873.46125 8546.6849,865.06123 8546.6849,854.71123 C 8546.6859,848.31424 8543.4559,842.68898 8538.5609,839.30498 C 8439.2269,839.30498 8363.2789,666.70908 8363.2789,557.30498 C 8363.2789,315.94501 8480.2699,185.64873 8671.2786,185.64873 L 8671.2786,185.55503 C 8894.0606,185.55503 8976.6846,305.55793 8976.6846,565.30498 C 8976.6846,697.54052 8959.5046,854.92455 8862.3106,855.27373 C 8822.5896,855.27374 8804.7166,794.63248 8804.7166,759.61748 L 8804.2166,537.67998 C 8804.2166,408.36794 8759.4346,323.52371 8656.8416,323.52373 C 8568.6869,323.52373 8508.2789,398.54435 8508.2789,546.86748 C 8508.2789,702.43048 8572.1607,776.33623 8658.3726,776.33623 C 8710.7136,776.33624 8737.8346,767.41101 8766.7166,732.61748 C 8769.0726,746.99915 8762.8966,763.57349 8768.3726,777.46123 C 8774.7506,830.29357 8808.8066,892.49248 8864.1226,892.49248 C 8984.4306,890.2387 9013.9036,745.24583 9013.9036,563.49248 C 9013.9036,273.41029 8921.8906,149.71123 8678.3726,149.71123 z M 8655.0286,360.74248 C 8717.2476,360.74248 8766.7166,433.29459 8766.7166,558.80498 C 8766.7166,693.97098 8735.3376,737.83623 8658.0286,737.83623 C 8593.7034,737.83623 8544.2799,674.88511 8544.2789,546.86748 C 8544.2789,441.15162 8577.6439,360.74251 8655.0286,360.74248 z "
       id="path1363"
       sodipodi:nodetypes="ccccccccccccscsccccccsscc"
       style="fill:#000000;stroke:none;stroke-opacity:1;fill-opacity:1" />
    <path
       d="M 13356.983,125.15853 C 13295.377,125.15853 13280.14,166.6074 13280.14,265.34603 C 13280.14,275.69604 13288.538,284.09603 13298.89,284.09603 C 13308.948,284.09603 13317.576,275.96154 13317.577,264.03353 C 13317.577,229.01853 13315.45,162.37728 13355.171,162.37728 C 13389.908,162.37728 13396.89,184.79242 13396.89,220.81478 C 13396.89,268.51446 13425.239,288.81478 13471.233,288.81478 C 13531.327,288.81478 13540.577,218.40278 13540.577,149.93978 C 13540.576,138.01177 13531.948,129.90853 13521.89,129.90853 C 13511.539,129.90853 13503.14,138.30852 13503.14,148.65853 C 13503.14,216.54291 13499.166,251.59603 13469.421,251.59603 C 13440.257,251.59603 13431.796,222.11361 13431.796,192.90853 C 13431.796,145.34618 13403.523,125.15853 13356.983,125.15853 z "
       id="path1370"
       style="fill:#000000;fill-opacity:1;stroke:none;stroke-opacity:1"
       sodipodi:nodetypes="ccscccccssccc" />
    <path
       id="path1347"
       d="M 8090.3491,774.1295 C 8090.3491,784.4795 8081.9491,792.8795 8071.5991,792.8795 C 8061.2491,792.8795 8052.8491,784.4795 8052.8491,774.1295 C 8052.8491,763.7795 8061.2491,755.3795 8071.5991,755.3795 C 8081.9491,755.3795 8090.3491,763.7795 8090.3491,774.1295 z "
       style="fill:#000000;fill-opacity:1;stroke:none;stroke-width:0.1;stroke-miterlimit:4;stroke-dashoffset:0;stroke-opacity:1" />
    <path
       style="fill:#000000;fill-opacity:1;stroke:none;stroke-width:0.1;stroke-miterlimit:4;stroke-dashoffset:0;stroke-opacity:1"
       d="M 11052.182,131.26667 C 11041.159,122.69267 11023.969,123.67267 11014.682,131.23567 L 10912.713,263.04767 L 10912.776,263.11067 C 10912.655,263.17667 10912.52,263.22767 10912.401,263.29767 C 10903.438,268.47267 10900.35,279.95867 10905.526,288.92267 C 10910.914,298.25467 10923.072,300.35667 10932.213,295.07867 C 10932.213,295.07867 11036.189,169.64667 11036.189,169.64667 L 11124.682,295.07867 C 11135.012,301.04267 11146.34,297.60267 11151.37,288.89167 C 11156.545,279.92767 11153.458,268.47267 11144.495,263.29767 C 11144.376,263.22767 11144.24,263.17667 11144.12,263.11067 L 11144.182,263.04767 L 11052.182,131.26667 z "
       id="path1358"
       sodipodi:nodetypes="cccccscccscccc" />
    <path
       style="fill:#000000;fill-opacity:1;stroke:none;stroke-width:0.1;stroke-miterlimit:4;stroke-dashoffset:0;stroke-opacity:1"
       d="M 9867.6862,291.11846 C 9874.6122,299.37369 9886.9572,299.34271 9895.0422,292.55949 L 10084.781,145.80761 C 10093.918,138.14138 10094.581,126.32221 10088.115,118.61774 C 10081.461,110.68867 10069.627,109.65293 10061.7,116.30758 C 10061.593,116.39525 10061.511,116.50255 10061.409,116.59204 L 10061.347,116.51954 L 9870.2682,264.39537 L 9870.3272,264.46748 C 9870.2212,264.55292 9870.1022,264.61232 9869.9972,264.70255 C 9862.0692,271.35564 9861.0322,283.18861 9867.6862,291.11846 z "
       id="path1367"
       sodipodi:nodetypes="ccccccccccc" />
    <path
       style="fill:#000000;fill-opacity:1;stroke:none;stroke-opacity:1"
       d="M 14105.543,102.43505 C 14043.937,102.43505 14008.7,132.4363 14008.699,198.5913 C 14008.699,199.71318 14008.823,200.8047 14009.012,201.87255 C 14008.82,202.94745 14008.699,204.05529 14008.699,205.18505 C 14008.7,271.34004 14043.937,301.3413 14105.543,301.3413 C 14165.637,301.3413 14206.887,274.9293 14206.887,206.4663 C 14206.887,204.86918 14206.71,203.32228 14206.418,201.87255 C 14206.71,200.42409 14206.887,198.90561 14206.887,197.31005 C 14206.887,128.84705 14165.637,102.43505 14105.543,102.43505 z M 14103.731,139.6538 C 14150.073,139.6538 14169.45,153.2233 14169.449,198.5913 C 14169.449,199.71318 14169.573,200.8047 14169.762,201.87255 C 14169.57,202.94745 14169.449,204.05529 14169.449,205.18505 C 14169.45,250.55304 14150.073,264.12255 14103.731,264.12255 C 14064.01,264.12255 14046.137,241.4813 14046.137,206.4663 C 14046.137,204.86918 14045.96,203.32228 14045.668,201.87255 C 14045.96,200.42409 14046.137,198.90561 14046.137,197.31005 C 14046.137,162.29505 14064.01,139.6538 14103.731,139.6538 z "
       id="path1369" />
  </g>
</svg>
