<?xml version="1.0" encoding="UTF-8" standalone="no"?>
<!-- Created with Inkscape (http://www.inkscape.org/) -->
<svg
   xmlns:dc="http://purl.org/dc/elements/1.1/"
   xmlns:cc="http://web.resource.org/cc/"
   xmlns:rdf="http://www.w3.org/1999/02/22-rdf-syntax-ns#"
   xmlns:svg="http://www.w3.org/2000/svg"
   xmlns="http://www.w3.org/2000/svg"
   xmlns:sodipodi="http://sodipodi.sourceforge.net/DTD/sodipodi-0.dtd"
   xmlns:inkscape="http://www.inkscape.org/namespaces/inkscape"
   width="20000"
   height="1000"
   id="svg1282"
   sodipodi:version="0.32"
   inkscape:version="0.45"
   sodipodi:docname="UbuntuTitle35_light_sketch.svg"
   sodipodi:docbase="/home/guest/Documents/Trabalhos/UbuntuTitleFont/svg_pesos/sketches_svg"
   inkscape:output_extension="org.inkscape.output.svg.inkscape"
   sodipodi:modified="true">
  <defs
     id="defs3" />
  <sodipodi:namedview
     inkscape:document-units="px"
     id="base"
     pagecolor="#ffffff"
     bordercolor="#666666"
     borderopacity="1.0"
     inkscape:pageopacity="0.0"
     inkscape:pageshadow="2"
     inkscape:zoom="0.1881324"
     inkscape:cx="12273.2"
     inkscape:cy="697.33846"
     inkscape:current-layer="layer1"
     inkscape:window-width="1103"
     inkscape:window-height="708"
     inkscape:window-x="0"
     inkscape:window-y="26"
     showguides="true"
     inkscape:guide-bbox="true">
    <sodipodi:guide
       orientation="horizontal"
       position="200"
       id="guide1331" />
    <sodipodi:guide
       orientation="horizontal"
       position="864.98773"
       id="guide2305" />
    <sodipodi:guide
       orientation="horizontal"
       position="667.66898"
       id="guide3307" />
    <sodipodi:guide
       orientation="horizontal"
       position="34.353413"
       id="guide1533" />
    <sodipodi:guide
       orientation="horizontal"
       position="896.372"
       id="guide1536" />
  </sodipodi:namedview>
  <metadata
     id="metadata4">
    <rdf:RDF>
      <cc:Work
         rdf:about="">
        <dc:format>image/svg+xml</dc:format>
        <dc:type
           rdf:resource="http://purl.org/dc/dcmitype/StillImage" />
      </cc:Work>
    </rdf:RDF>
  </metadata>
  <g
     inkscape:label="Layer 1"
     inkscape:groupmode="layer"
     id="layer1">
    <path
       sodipodi:nodetypes="cccsccc"
       id="path1369"
       d="M 12007.045,123.51763 C 11998.366,111.57142 11981.626,108.92023 11969.682,117.59993 C 11958.988,125.36845 11811.262,229.07343 11784.041,248.85366 C 11772.094,257.53279 11769.441,274.27103 11778.123,286.21785 C 11786.802,298.16404 11803.542,300.81523 11815.486,292.13551 C 11848.745,267.97091 11986.984,171.1593 12001.127,160.88182 C 12013.074,152.20268 12015.727,135.46445 12007.045,123.51763 z "
       style="opacity:1;fill:#000000;fill-opacity:1;stroke:none" />
    <path
       style="fill:#000000;fill-opacity:1;stroke:none"
       d="M 7415.0689,99.3125 C 7268.8608,99.3125 7200.0453,170.74015 7194.9751,292.99415 C 7194.9751,384.49823 7240.4968,442.7617 7310.6846,456.25 C 7241.9789,481.29387 7190.9751,514.55859 7190.9751,606.25 C 7190.9751,728.15214 7253.7529,799.34375 7412.2251,799.34375 C 7553.9344,799.34375 7636.0376,743.1075 7636.0376,608.25 C 7636.0376,519.70016 7571.3465,479.71033 7513.0142,454.25 C 7571.9274,437.77139 7632.0376,382.0571 7632.0376,292.99415 C 7632.0376,161.10698 7547.1203,99.3125 7415.0689,99.3125 z M 7414.4634,150.94169 C 7520.73,150.94169 7580.9751,205.12907 7580.9751,292.99415 C 7580.9751,366.91936 7495.4223,433.13763 7411.7192,430.07567 C 7321.4181,433.26902 7248.0376,389.66441 7248.0376,290.0232 C 7248.0376,203.58036 7297.9429,150.94169 7414.4634,150.94169 z M 7417.747,484.08132 C 7490.1082,485.04024 7579.1366,524.8909 7582.9751,608.25 C 7582.9751,693.80307 7523.9251,745.1506 7413.1313,745.1506 C 7308.4928,745.1506 7244.0376,704.91599 7244.0376,608.25 C 7244.0376,548.26582 7296.8826,484.08132 7417.747,484.08132 z "
       id="eight"
       sodipodi:nodetypes="ccccccccccccccccccc" />
    <path
       style="fill:#000000;fill-opacity:1;stroke:none"
       d="M 1850.5984,99.4375 C 1841.2369,99.4375 1833.0037,104.27357 1828.2234,111.5625 C 1807.1245,132.48144 1778.4979,170.21214 1760.8484,204.25 C 1724.8484,277.58334 1706.8484,359.58334 1706.8484,450.25 C 1714.714,558.51133 1729.4645,691.19517 1830.5047,788.875 C 1835.3289,795.88731 1843.4184,800.49998 1852.5672,800.5 C 1867.3332,800.5 1879.3173,788.51597 1879.3172,773.75 C 1879.3172,763.83685 1873.8979,755.18352 1865.8797,750.5625 C 1790.4511,669.62932 1764.5935,565.27611 1760.161,450.25 C 1760.3351,324.31598 1793.3401,235.91686 1867.9734,146.5 C 1873.6951,141.59275 1877.3484,134.31071 1877.3484,126.1875 C 1877.3484,111.4215 1865.3645,99.437503 1850.5984,99.4375 z "
       id="path1496" />
    <path
       style="fill:#000000;fill-opacity:1;stroke:none"
       d="M 11930.239,325.75 C 11810.814,325.75 11756.27,442.0149 11756.27,560.25 C 11760.418,683.8912 11801.537,801.25 11927.208,801.25 C 11994.942,801.25 12044.458,771.33134 12044.458,721.96875 C 12044.458,707.20275 12032.474,695.21874 12017.708,695.21875 C 12003.037,695.54807 11995.846,704.58782 11991.396,717.25 C 11976.474,753.12484 11952.31,746.375 11926.927,746.375 C 11871.821,746.37502 11815.256,669.17744 11809.896,562.25 C 11809.895,457.66906 11854.195,378.875 11927.896,378.875 C 11939.804,378.52885 11972.646,386.64263 11996.392,419.48685 C 12002.818,426.75643 12007.84,428.03124 12015.646,428.03125 C 12030.411,428.03127 12042.395,416.04724 12042.396,401.28125 C 12037.345,356.56371 11977.223,325.75 11930.239,325.75 z "
       id="path1372"
       sodipodi:nodetypes="ccccccscccscc" />
    <path
       style="fill:#000000;fill-opacity:1;stroke:none"
       d="M 19471.69,100.25 C 19432.725,100.25 19417.349,115.44981 19417.349,152.25471 L 19419.349,304.25 C 19419.349,377.01874 19405.51,424.46875 19363.349,424.46875 C 19357.89,424.46875 19350.321,424.38246 19343.599,424.15625 C 19328.833,424.15625 19316.849,436.14025 19316.849,450.90625 C 19316.849,465.67225 19328.833,477.65625 19343.599,477.65625 C 19350.126,477.65625 19355.772,477.3125 19363.349,477.3125 C 19406.362,477.31249 19419.349,512.58248 19419.349,596.25 C 19419.349,632.20451 19419.349,706.46756 19419.349,745.25756 C 19419.349,782.47666 19432.501,798.25 19472.345,798.25 C 19489.724,798.25 19543.286,798.21875 19580.349,798.21875 C 19595.115,798.21875 19607.099,786.23473 19607.099,771.46875 C 19607.099,756.70275 19595.115,744.71873 19580.349,744.71875 L 19471.849,744.6875 L 19471.849,596.25 C 19470.378,540.24523 19470.69,488.12945 19431.849,450.25 C 19469.233,411.66354 19470.252,355.3608 19471.849,304.25 L 19471.849,153.625 C 19494.095,153.625 19547.982,154.0625 19580.974,154.0625 C 19595.74,154.0625 19607.723,142.0785 19607.724,127.3125 C 19607.724,112.5465 19595.739,100.5625 19580.974,100.5625 L 19471.69,100.25 z "
       id="path1568"
       sodipodi:nodetypes="cccccsccssccscccccccccc" />
    <path
       style="fill:#000000;fill-opacity:1;stroke:none"
       d="M 12865.366,325.875 C 12721.582,325.875 12693.546,440.88492 12688.429,562.25 C 12692.163,679.13653 12710.734,801.9375 12866.022,801.9375 C 12910.197,801.93753 12917.136,798.89639 12964.429,780.25 C 12961.363,844.00925 12942.305,931.28125 12864.429,931.28125 C 12793.122,931.28125 12777.377,901.05842 12761.741,885.28125 C 12756.839,879.10844 12749.261,875.15625 12740.772,875.15625 C 12726.006,875.15625 12714.022,887.14025 12714.022,901.90625 C 12714.022,906.28751 12715.121,910.41146 12716.991,914.0625 C 12717.016,914.11207 12717.028,914.16936 12717.053,914.21875 C 12717.339,915.0583 12717.769,915.96373 12718.397,916.90625 C 12734.101,944.23691 12792.37,984.6875 12865.772,984.6875 C 13003.399,984.68752 13012.967,851.23762 13017.835,748.25 L 13017.835,544.25 C 13017.835,436.35678 12975.402,325.875 12865.366,325.875 z M 12860.929,378.875 C 12921.277,378.87501 12966.429,436.12014 12966.429,568.90625 C 12966.429,707.59557 12966.447,747.1875 12863.96,747.1875 C 12751.232,747.1875 12741.835,644.10904 12741.835,568.25 C 12741.835,438.41839 12785.098,378.875 12860.929,378.875 z "
       id="path1554" />
    <path
       style="fill:#000000;fill-opacity:1;stroke:none"
       d="M 13582.233,320.4375 C 13567.467,320.4375 13555.483,332.4215 13555.483,347.1875 L 13555.295,828.25 C 13555.295,910.78989 13542.552,934.34375 13519.639,934.34375 C 13496.151,934.34377 13482.24,933.14203 13458.452,925.0625 C 13454.157,922.12418 13448.981,920.40625 13443.389,920.40625 C 13428.623,920.40625 13416.639,932.39024 13416.639,947.15625 C 13416.639,957.80419 13422.876,967.00842 13431.889,971.3125 C 13431.877,971.35544 13431.869,971.39439 13431.858,971.4375 C 13432.661,971.73006 13433.414,971.99448 13434.202,972.28125 C 13434.611,972.43133 13435.002,972.58842 13435.42,972.71875 C 13454.676,979.70673 13470.498,984.84375 13509.733,984.84375 C 13588.808,984.84375 13608.795,950.45268 13608.795,828.25 C 13608.795,678.30627 13608.983,407.25924 13608.983,347.1875 C 13608.983,332.4215 13596.999,320.4375 13582.233,320.4375 z "
       id="path1523" />
    <path
       sodipodi:nodetypes="cccsccc"
       id="path1516"
       d="M 13453.958,324.17668 C 13439.192,324.17668 13427.208,336.16068 13427.208,350.92668 C 13427.208,364.14382 13427.208,739.59937 13427.208,773.25 C 13427.208,788.016 13439.192,800 13453.958,800 C 13468.724,800 13480.708,788.016 13480.708,773.25 C 13480.708,732.13892 13480.708,368.40959 13480.708,350.92668 C 13480.708,336.16068 13468.724,324.17668 13453.958,324.17668 z "
       style="opacity:1;fill:#000000;fill-opacity:1;stroke:none" />
    <path
       style="opacity:1;fill:#000000;fill-opacity:1;stroke:none"
       d="M 13686.812,129.5625 C 13672.046,129.5625 13660.062,141.5465 13660.062,156.3125 C 13660.062,169.52964 13660.062,739.59937 13660.062,773.25 C 13660.062,788.016 13672.046,800 13686.812,800 C 13701.578,800 13713.562,788.016 13713.562,773.25 C 13713.562,760.30778 13713.562,661.483 13713.562,579.03125 C 13725.846,568.89844 13737.213,559.52722 13755.593,544.375 C 13845.276,659.16656 13937.416,777.1047 13947.906,790.53125 C 13956.998,802.16661 13973.802,804.21572 13985.437,795.125 C 13997.072,786.03396 13999.153,769.19832 13990.062,757.5625 C 13977.191,741.08743 13885.118,623.25028 13796.906,510.34375 C 13867.254,452.35303 13957.367,378.06874 13966.625,370.4375 C 13978.017,361.04506 13979.612,344.17494 13970.219,332.78125 C 13964.935,326.37213 13957.303,323.06741 13949.593,323.0625 C 13943.597,323.05868 13937.548,325.04703 13932.562,329.15625 C 13917.968,341.18614 13808.93,431.06846 13713.562,509.6875 C 13713.562,343.61644 13713.562,166.32652 13713.562,156.3125 C 13713.562,141.5465 13701.578,129.5625 13686.812,129.5625 z "
       id="path1498" />
    <path
       style="fill:#000000;fill-opacity:1;stroke:none"
       d="M 16023.611,324.53125 C 15912.263,324.53125 15857.018,375.53336 15857.018,516.25 C 15857.018,612.26684 15856.643,663.52763 15856.643,773.25 C 15856.643,788.016 15868.627,800 15883.393,800 C 15898.159,800 15910.143,788.016 15910.143,773.25 L 15910.33,516.25 C 15910.33,415.04574 15947.024,377.40625 16023.299,377.40625 C 16063.627,377.40626 16099.628,393.0879 16118.205,445.53125 C 16118.203,445.68784 16118.205,445.84277 16118.205,446 C 16118.205,460.766 16130.189,472.75 16144.955,472.75 C 16159.721,472.75 16171.705,460.766 16171.705,446 C 16171.705,440.92419 16170.289,436.16957 16167.83,432.125 C 16167.827,432.11274 16167.802,432.10601 16167.799,432.09375 C 16154.603,376.35943 16110.627,324.53125 16023.611,324.53125 z "
       id="path1456" />
    <path
       style="fill:#000000;fill-opacity:1;stroke:none"
       d="M 15645.171,326.1875 C 15522.877,326.1875 15479.671,410.3268 15479.671,561.625 C 15479.671,568.38033 15479.72,574.96146 15479.858,581.40625 L 15479.765,581.40625 L 15479.765,959.9375 L 15479.952,959.9375 C 15480.384,974.32677 15492.177,985.87503 15506.671,985.875 C 15521.437,985.875 15533.42,973.89103 15533.421,959.125 C 15533.421,958.20213 15533.356,957.30514 15533.265,956.40625 L 15533.265,764.03125 C 15559.089,788.47737 15595.497,799.96875 15645.171,799.96875 C 15775.916,799.96875 15809.296,721.56945 15809.296,563.0625 C 15809.296,417.39609 15774.435,326.1875 15645.171,326.1875 z M 15644.546,379.59375 C 15726.089,379.59375 15755.734,450.06562 15755.734,562.25 C 15755.734,682.76696 15729.095,746.5625 15644.546,746.5625 C 15622.797,746.5625 15533.234,752.84147 15533.234,603.96362 C 15533.234,460.30295 15553.036,379.59375 15644.546,379.59375 z "
       id="path1445"
       sodipodi:nodetypes="csccccssccssccsssc" />
    <path
       style="fill:#000000;fill-opacity:1;stroke:none"
       d="M 15251.068,326.1875 C 15128.775,326.1875 15078.568,410.3268 15078.568,561.625 C 15078.566,561.84409 15078.568,562.02302 15078.568,562.25 C 15078.568,723.51137 15127.85,799.96875 15251.068,799.96875 C 15381.814,799.96875 15428.13,721.56945 15428.13,563.0625 C 15428.13,417.39609 15380.332,326.1875 15251.068,326.1875 z M 15250.443,379.59375 C 15341.944,379.59375 15374.568,450.06562 15374.568,562.25 C 15374.568,682.76696 15348.926,746.5625 15250.443,746.5625 C 15171.549,746.5625 15132.13,687.79374 15132.13,563.90625 C 15132.13,440.12024 15155.7,379.59375 15250.443,379.59375 z "
       id="path1430"
       sodipodi:nodetypes="ccccccccccc" />
    <path
       style="fill:#000000;fill-opacity:1;stroke:none"
       d="M 17704.958,325.3125 C 17690.192,325.3125 17678.208,337.29651 17678.208,352.0625 C 17678.208,352.83512 17678.237,353.61893 17678.302,354.375 L 17678.302,648.25 C 17678.302,724.3284 17733.936,800.125 17817.088,800.125 C 17879.599,800.125 17927.684,769.16894 17934.895,742.82809 C 17942.869,768.90324 17999.526,800.40625 18051.708,800.40625 C 18161.904,800.40625 18189.489,725.46445 18189.489,647.58184 L 18189.489,355.71875 C 18189.651,354.52897 18189.739,353.29651 18189.739,352.0625 C 18189.739,337.2965 18177.756,325.31251 18162.989,325.3125 C 18148.223,325.3125 18136.24,337.29651 18136.239,352.0625 C 18136.239,352.64196 18136.265,353.24217 18136.302,353.8125 L 18136.302,647.89786 C 18136.302,714.94992 18107.533,747.78501 18043.489,747.78501 C 18008.418,747.78501 17963.489,714.14752 17963.489,648.6202 C 17961.793,591.75074 17962.009,590.5649 17960.989,533.6875 C 17960.241,519.58968 17948.554,508.37501 17934.27,508.375 C 17920.169,508.375 17908.596,519.31247 17907.583,533.15625 C 17907.503,533.47748 17907.437,591.69043 17907.364,592.03021 L 17906.302,647.71276 C 17906.302,714.22447 17885.43,746.69245 17818.415,746.69245 C 17764.02,746.69245 17731.489,713.69593 17731.489,647.98817 L 17731.489,355.34375 C 17731.619,354.27346 17731.708,353.16783 17731.708,352.0625 C 17731.708,337.2965 17719.724,325.31251 17704.958,325.3125 z "
       id="path1398"
       sodipodi:nodetypes="cscccccccssscccccsccccccsc" />
    <path
       style="fill:#000000;fill-opacity:1;stroke:none"
       d="M 18929.156,323.25 C 18914.39,323.25 18902.406,335.23401 18902.406,350 L 18902.343,608.25 C 18906.613,692.32618 18863.988,740.84375 18792.281,740.84375 C 18718.889,740.84373 18680.062,677.84431 18680.062,599.0625 C 18680.062,533.46806 18680.093,420.34107 18680.093,351 C 18680.093,336.234 18668.109,324.24999 18653.343,324.25 C 18638.577,324.25 18626.593,336.23399 18626.593,351 L 18626.343,601.6875 C 18626.343,714.34449 18677.342,797.37549 18792.5,797.90625 C 18836.92,797.90625 18876.07,784.99127 18902.343,751.34375 C 18902.343,898.24073 18850.261,930.09375 18776.406,930.09375 C 18776.374,930.09375 18776.344,930.09376 18776.312,930.09375 C 18776.311,930.01223 18776.312,929.92385 18776.312,929.84375 C 18715.527,929.84375 18695.653,910.00569 18670.187,890.90625 C 18670.152,890.88023 18670.128,890.83852 18670.093,890.8125 C 18665.286,886.20328 18658.772,883.375 18651.593,883.375 C 18636.827,883.375 18624.843,895.359 18624.843,910.125 C 18624.843,919.25647 18629.416,927.32892 18636.406,932.15625 C 18656.575,950.80789 18688.813,973.67183 18742.562,981.1875 C 18752.272,983.11831 18763.047,984.25 18775.25,984.25 C 18902.816,984.25 18956.062,900.12946 18956.062,770.25 C 18956.062,642.60362 18955.906,492.23987 18955.906,350 C 18954.362,335.3149 18943.922,323.25001 18929.156,323.25 z "
       id="path1365" />
    <path
       style="fill:#000000;fill-opacity:1;fill-rule:evenodd;stroke:none;stroke-width:1px;stroke-linecap:butt;stroke-linejoin:miter;stroke-opacity:1"
       d="M 18253.191,315.4375 C 18238.425,315.4375 18226.442,327.42152 18226.441,342.1875 C 18226.441,348.71097 18228.807,354.69972 18232.691,359.34375 L 18374.473,559.8125 L 18234.379,757.5 C 18230.451,762.15603 18228.098,768.18639 18228.097,774.75 C 18228.097,789.516 18240.082,801.5 18254.847,801.5 C 18264.999,801.5 18273.816,795.80717 18278.347,787.46875 C 18278.354,787.45617 18278.372,787.45009 18278.379,787.4375 L 18407.066,605.875 L 18534.223,785.65625 C 18538.696,794.18246 18547.651,800 18557.941,800 C 18572.707,800 18584.692,788.016 18584.691,773.25 C 18584.691,766.06593 18581.836,759.55726 18577.223,754.75 L 18439.597,560.03125 L 18582.66,358.1875 C 18582.917,357.84416 18583.17,357.51205 18583.41,357.15625 C 18586.295,352.8867 18587.973,347.72476 18587.973,342.1875 C 18587.973,327.4215 18575.989,315.43752 18561.223,315.4375 C 18553.338,315.4375 18546.245,318.87966 18541.347,324.3125 C 18539.939,325.8746 18538.703,327.57537 18537.691,329.4375 C 18537.669,329.47825 18537.651,329.52162 18537.629,329.5625 L 18407.004,513.90625 L 18277.035,330.03125 C 18272.606,321.37044 18263.582,315.43751 18253.191,315.4375 z "
       id="path3329" />
    <path
       style="fill:#000000;fill-opacity:1;stroke:none"
       d="M 17279.145,313.53125 C 17264.38,313.53125 17252.395,325.51524 17252.395,340.28125 C 17252.408,388.86209 17351.656,803.03248 17432.804,803.12181 C 17490.576,803.04684 17622.521,466.87177 17622.927,341.84375 C 17622.927,327.07775 17610.944,315.09374 17596.177,315.09375 C 17581.411,315.09375 17569.428,327.07774 17569.427,341.84375 C 17569.424,415.27966 17450.277,729.89971 17432.647,729.82492 C 17414.437,727.39423 17332.367,472.03398 17305.895,340.28125 C 17305.895,325.51525 17293.911,313.53124 17279.145,313.53125 z "
       id="path3305"
       sodipodi:nodetypes="ccccscccc" />
    <path
       style="fill:#000000;fill-opacity:1;stroke:none"
       d="M 16678.391,135.25 C 16663.625,135.25 16651.642,147.234 16651.641,162 C 16651.641,162.45096 16651.65,162.89825 16651.672,163.34375 L 16651.391,163.34375 L 16651.391,328.125 L 16591.797,328.125 C 16577.774,328.95204 16566.673,340.61394 16566.672,354.84375 C 16566.672,369.07356 16577.774,380.73546 16591.797,381.5625 L 16591.797,381.625 L 16651.391,381.625 L 16651.329,695.65625 C 16651.677,757.19263 16685.409,800.67514 16748.679,800.26345 C 16787.255,799.3482 16801.353,792.35892 16829.311,785.45965 C 16840.537,782.28291 16846.215,772.86194 16846.422,760.625 C 16846.717,742.91199 16834.438,733.87502 16819.672,733.875 C 16795.741,737.48418 16773.296,746.64972 16748.961,748.05421 C 16721.551,748.05421 16705.11,725.78191 16705.11,694.8125 L 16704.891,381.625 L 16801.703,381.625 L 16801.703,381.5625 C 16816.078,381.11488 16827.61,369.3265 16827.61,354.84375 C 16827.61,340.07775 16815.626,328.09375 16800.86,328.09375 C 16800.398,328.09375 16799.94,328.10187 16799.485,328.125 L 16704.891,328.125 C 16704.891,265.97162 16705.046,162.80181 16705.141,162 C 16705.141,144.08928 16693.158,135.25 16678.391,135.25 z "
       id="path2327"
       sodipodi:nodetypes="cscccccccccccsccccccsscccc" />
    <path
       style="fill:#000000;fill-opacity:1;stroke:none"
       d="M 4163.1573,103.82884 C 4148.3914,103.82884 4136.4073,115.81284 4136.4073,130.57884 C 4136.4073,145.34484 4148.3913,157.32884 4163.1573,157.32884 L 4226.4699,156.98509 L 4226.4699,744.25 C 4226.036,751.19325 4226.6589,757.56344 4228.3449,763.375 C 4227.1273,766.43286 4226.4698,769.75975 4226.4699,773.25 C 4226.4699,788.016 4238.4538,800 4253.2199,800 C 4267.9858,800 4279.9698,788.016 4279.9699,773.25 C 4279.9699,769.28052 4279.0857,765.51362 4277.5323,762.125 C 4279.238,756.65406 4280.0948,750.69656 4280.0949,744.25 L 4280.0949,157.39134 C 4280.0949,120.23581 4260.7704,104.36009 4225.3757,104.36009 C 4209.5602,104.36009 4180.4266,103.82884 4163.1573,103.82884 z "
       id="one"
       sodipodi:nodetypes="csccccsssccccc" />
    <path
       style="fill:#000000;fill-opacity:1;stroke:none"
       d="M 4477.4557,100.25 C 4380.4128,100.25 4324.8307,135.09819 4324.8307,231.625 C 4324.8307,246.391 4336.8147,258.375 4351.5807,258.375 C 4366.3467,258.375 4378.3307,246.391 4378.3307,231.625 C 4377.8809,204.53994 4387.1691,153.34375 4418.612,153.34375 L 4566.6745,153.34375 C 4657.0206,153.34375 4689.4557,221.92249 4689.4557,328.25 C 4687.8259,409.24739 4634.6324,469.25 4549.4557,469.25 C 4410.6095,469.25001 4325.4557,497.8524 4325.4557,642.25 L 4325.4557,740.25 C 4325.4557,778.96012 4343.5543,796.25 4379.4557,796.25 C 4482.9373,796.25 4617.103,795.28125 4715.8307,795.28125 C 4730.5967,795.28125 4742.5808,783.29722 4742.5807,768.53125 C 4742.5807,753.76525 4730.5968,741.78122 4715.8307,741.78125 C 4637.6279,741.78125 4488.9165,742.25009 4378.612,742.25 L 4378.612,642.25 C 4378.6119,571.5064 4406.6462,526.60601 4490.612,523.4375 C 4638.8579,523.4375 4742.612,480.46167 4742.612,328.25 C 4742.612,169.04547 4702.7963,100.25 4538.612,100.25 L 4477.4557,100.25 z "
       id="two"
       sodipodi:nodetypes="ccsccccsccccsccccccc" />
    <path
       style="fill:#000000;fill-opacity:1;stroke:none"
       d="M 4951.2794,104.25 C 4837.199,104.25 4771.3106,151.32726 4771.3106,237.4179 C 4771.3106,253.26166 4783.2948,263.68751 4798.0606,263.6875 C 4812.8266,263.6875 4824.8108,251.70349 4824.8106,236.9375 C 4824.8106,183.51373 4898.1018,158.09375 4951.2794,158.09375 L 5027.1856,160.09375 C 5083.1661,160.09375 5139.2794,249.57533 5139.2794,332.25 C 5139.2795,353.58334 5109.7254,428.1875 5074.1231,428.1875 C 5041.0012,428.01772 5007.7242,430.45778 4974.6544,429.25 C 4959.8884,429.25 4947.9044,441.23399 4947.9044,456 C 4947.9044,470.766 4959.8884,482.74999 4974.6544,482.75 C 5012.8535,482.06105 5051.6598,482.81895 5090.0606,482.84375 C 5118.784,482.84375 5138.0482,529.7846 5139.2794,576.25 C 5139.2795,678.52176 5075.9334,745.90625 5003.7481,745.90625 L 4923.6544,744.84375 C 4851.9183,744.84375 4821.6231,684.73473 4821.6231,658.65625 C 4818.1604,651.15224 4808.1122,645.38601 4797.7794,644.1875 C 4783.0134,644.1875 4771.0292,656.17151 4771.0294,670.9375 C 4771.0294,755.39465 4850.2068,800.25 4923.4044,800.25 L 4989.4668,800.25 C 5112.9938,800.25 5191.4668,708.28143 5191.4668,576.25 C 5191.0205,524.07092 5184.9314,492.23911 5151.4668,454.25 C 5184.3009,417.01033 5189.6592,381.41123 5191.4668,332.25 C 5191.4798,206.6824 5120.6815,104.25 4989.4668,104.25 L 4951.2794,104.25 z "
       id="three"
       sodipodi:nodetypes="ccscccsccsccccccccccccccc" />
    <path
       style="fill:#000000;fill-opacity:1;stroke:none"
       d="M 5776.5315,104.25 C 5747.8572,104.25 5728.5315,120.99614 5728.5315,154.25 L 5728.5315,394.47145 C 5728.5315,420.50337 5736.6643,431.25 5758.7626,431.25 L 5898.7191,431.25 C 6029.3658,431.25 6092.5315,490.17474 6092.5315,576.25 C 6087.3005,668.10917 6030.0715,748.96875 5914.5003,748.96875 C 5863.5485,750.67752 5780.005,737.64738 5782.0003,666.375 C 5782.0003,651.609 5770.0161,639.62499 5755.2503,639.625 C 5740.4843,639.625 5728.5001,651.60899 5728.5003,666.375 C 5728.5003,758.69328 5798.9734,801.59375 5915.8441,801.59375 C 6053.4799,799.79916 6148.7191,716.00083 6148.7191,576.25 C 6148.7191,439.05246 6042.8626,374.60577 5898.7191,377.9375 C 5860.0524,377.93749 5821.3858,377.9375 5782.7191,377.9375 L 5782.7191,158.15625 C 5900.5961,158.15625 6002.6176,157.9375 6122.8753,157.9375 C 6141.0277,157.9375 6149.6251,145.95351 6149.6253,131.1875 C 6149.6253,116.4215 6137.6411,104.4375 6122.8753,104.4375 L 5776.5315,104.25 z "
       id="five"
       sodipodi:nodetypes="ccccccccsccccccsscc" />
    <path
       style="fill:#000000;fill-opacity:1;stroke:none"
       d="M 6372.9943,103.5 C 6254.5604,103.5 6177.6193,165.69886 6177.6193,288.25 L 6177.6193,576.25 C 6177.6193,728.37488 6248.6205,800.15625 6371.1506,800.15625 C 6507.4159,800.15625 6572.9631,730.47726 6572.9631,613.96875 C 6572.9631,493.56273 6501.9874,432.40627 6375.6193,432.40625 C 6303.719,432.40625 6255.0456,456.42984 6230.9631,489.22948 L 6230.9631,308.25 C 6230.9631,206.20595 6280.9689,158.3125 6372.9631,158.3125 C 6465.7449,160.57845 6522.4946,216.00596 6520.4006,310.125 C 6520.4006,324.891 6532.3848,336.87499 6547.1506,336.875 C 6561.9166,336.875 6573.9008,324.89099 6573.9006,310.125 C 6575.6487,180.18664 6510.3286,103.5 6372.9943,103.5 z M 6376.4943,484.9375 C 6466.3502,484.9375 6517.6193,535.38817 6517.6193,613.10627 C 6517.6193,693.31426 6466.3583,746.75001 6372.3693,746.75 C 6258.8144,746.75 6230.9631,662.26569 6230.9631,574.50725 C 6230.9631,545.1972 6284.0418,484.9375 6376.4943,484.9375 z "
       id="six"
       sodipodi:nodetypes="cccsssccccscccsscc" />
    <path
       style="fill:#000000;fill-opacity:1;stroke:none"
       d="M 16363.531,322.9375 C 16289.902,322.9375 16216.156,371.45789 16216.156,462.25 C 16216.156,550.43458 16281.24,584.625 16364.062,584.625 C 16420.011,584.62498 16475.687,604.84015 16475.687,661.15625 C 16475.688,720.0592 16461.452,748.15625 16369.343,748.15625 C 16290.179,748.15626 16282.843,714.03386 16264.281,687.25 C 16260.271,677.53374 16250.689,670.68749 16239.531,670.6875 C 16224.765,670.6875 16212.781,682.67148 16212.781,697.4375 C 16212.781,704.4862 16215.539,710.8764 16220,715.65625 C 16245.47,772.93667 16299.143,800.375 16369.812,800.375 C 16483.7,800.37499 16529.937,756.77584 16529.937,661.25 C 16529.937,568.90824 16467.924,532.125 16365.093,532.125 C 16311.752,532.12501 16271.937,517.397 16271.937,458.25 C 16271.937,394.85024 16313.626,375.75 16364.374,375.75 C 16421.381,375.75 16444.071,394.25672 16463.709,421.99932 C 16467.823,431.48259 16477.282,438.12433 16488.272,438.12432 C 16503.037,438.12432 16515.022,426.14033 16515.022,411.37432 C 16515.022,404.3433 16512.306,397.96285 16507.865,393.18682 C 16467.542,333.81282 16436.488,322.9375 16363.531,322.9375 z "
       id="s"
       sodipodi:nodetypes="csscscsscssssscsscc" />
    <path
       transform="translate(-10628.513,92.777271)"
       d="M 24109.248 64.220436 A 26.75 26.75 0 1 1  24055.748,64.220436 A 26.75 26.75 0 1 1  24109.248 64.220436 z"
       sodipodi:ry="26.75"
       sodipodi:rx="26.75"
       sodipodi:cy="64.220436"
       sodipodi:cx="24082.498"
       id="path1373"
       style="opacity:1;fill:#000000;fill-opacity:1;stroke:none"
       sodipodi:type="arc" />
    <path
       style="opacity:1;fill:#000000;fill-opacity:1;stroke:none"
       d="M 19022.604,332.34375 C 19008.092,332.63804 18996.416,344.51223 18996.416,359.09375 C 18996.416,373.67508 19008.093,385.51791 19022.604,385.8125 L 19022.604,385.84375 L 19023.166,385.84375 L 19248.76,385.84375 L 19000.291,758.3125 C 19000.051,758.6683 18999.827,759.00731 18999.604,759.375 L 18999.416,759.625 L 18999.447,759.65625 C 18997.09,763.64067 18995.728,768.28815 18995.728,773.25 C 18995.728,788.016 19007.712,800 19022.478,800 L 19301.041,800 C 19301.125,800 19301.207,800.00077 19301.291,800 C 19315.941,799.86496 19327.792,787.93214 19327.791,773.25 C 19327.791,758.56785 19315.942,746.63504 19301.291,746.5 L 19301.041,746.5 L 19072.104,746.5 L 19318.135,377.34375 C 19322.605,372.56215 19325.354,366.15067 19325.354,359.09375 C 19325.354,345.17587 19314.692,333.73772 19301.104,332.46875 L 19301.104,332.34375 L 19023.166,332.34375 L 19022.604,332.34375 z "
       id="path1377" />
    <path
       sodipodi:nodetypes="cscccccccssscccccscccccsc"
       id="path1420"
       d="M 14649.755,798.43707 C 14664.521,798.43707 14676.505,786.45306 14676.505,771.68707 C 14676.505,770.91445 14676.476,770.13064 14676.411,769.37457 L 14676.411,475.49957 C 14676.411,399.42117 14620.777,323.62457 14537.625,323.62457 C 14475.114,323.62457 14427.029,354.58063 14419.818,380.92148 C 14411.844,354.84633 14355.187,323.34332 14303.005,323.34332 C 14192.809,323.34332 14165.224,398.28512 14165.224,476.16773 L 14165.224,768.03082 C 14165.062,769.2206 14164.974,770.45306 14164.974,771.68707 C 14164.974,786.45307 14176.957,798.43706 14191.724,798.43707 C 14206.49,798.43707 14218.473,786.45306 14218.474,771.68707 C 14218.474,771.10761 14218.448,770.5074 14218.411,769.93707 L 14218.411,475.85171 C 14218.411,408.79965 14247.18,375.96456 14311.224,375.96456 C 14346.295,375.96456 14391.224,409.60205 14391.224,475.12937 C 14392.92,531.99883 14392.704,568.62997 14393.724,625.50737 C 14394.472,639.60519 14406.159,650.81986 14420.443,650.81987 C 14434.544,650.81987 14446.117,639.8824 14447.13,626.03862 L 14448.411,476.03681 C 14448.411,409.5251 14469.283,377.05712 14536.298,377.05712 C 14590.693,377.05712 14623.224,410.05364 14623.224,475.7614 L 14623.224,768.40582 C 14623.094,769.47611 14623.005,770.58174 14623.005,771.68707 C 14623.005,786.45307 14634.989,798.43706 14649.755,798.43707 z "
       style="fill:#000000;fill-opacity:1;stroke:none" />
    <path
       style="fill:#000000;fill-opacity:1;stroke:none"
       d="M 14882.752,332.01392 C 14779.026,332.79893 14717.805,385.67205 14717.805,520.25 C 14717.805,625.33466 14718.305,701.54819 14718.305,773.25 C 14720.082,787.90873 14730.289,800 14745.055,800 C 14759.821,800 14771.805,788.016 14771.805,773.25 L 14771.524,520.25 C 14770.079,444.01132 14815.418,385.07491 14882.422,385.07491 C 14944.024,385.07491 14989.805,442.69163 14989.805,520.25 C 14989.805,599.82477 14989.055,698.42601 14989.055,773.25 C 14989.055,788.016 15001.039,800 15015.805,800 C 15030.571,800 15042.555,788.016 15042.555,773.25 L 15041.524,520.25 C 15041.524,420.27989 14990.51,332.01392 14882.752,332.01392 z "
       id="path1422"
       sodipodi:nodetypes="cccscccccsccc" />
    <path
       sodipodi:nodetypes="csccccssccssccsssc"
       id="path1450"
       d="M 11541.353,801.1628 C 11419.059,801.1628 11375.853,717.0235 11375.853,565.7253 C 11375.853,558.96997 11375.902,552.38884 11376.04,545.94405 L 11375.947,545.94405 L 11375.947,167.4128 L 11376.134,167.4128 C 11376.566,153.02353 11388.359,141.47527 11402.853,141.4753 C 11417.619,141.4753 11429.602,153.45927 11429.603,168.2253 C 11429.603,169.14817 11429.538,170.04516 11429.447,170.94405 L 11429.447,363.31905 C 11455.271,338.87293 11491.679,327.38155 11541.353,327.38155 C 11672.098,327.38155 11705.478,405.78085 11705.478,564.2878 C 11705.478,709.95421 11670.617,801.1628 11541.353,801.1628 z M 11540.728,747.75655 C 11622.271,747.75655 11651.916,677.28468 11651.916,565.1003 C 11651.916,444.58334 11625.277,380.7878 11540.728,380.7878 C 11518.979,380.7878 11429.416,374.50883 11429.416,523.38668 C 11429.416,667.04735 11449.218,747.75655 11540.728,747.75655 z "
       style="fill:#000000;fill-opacity:1;stroke:none" />
    <path
       style="fill:#000000;fill-opacity:1;stroke:none"
       d="M 11191.327,344.50977 C 11313.621,344.50977 11350.827,428.64907 11350.827,579.94727 L 11350.546,790.45289 C 11350.114,804.84216 11338.321,816.39042 11323.827,816.39042 C 11309.061,816.39042 11297.078,804.40642 11297.077,789.64039 C 11297.077,772.41297 11297.233,774.2311 11297.233,762.05007 C 11297.233,761.61513 11274.428,797.98757 11191.327,797.98757 C 11106.802,797.98757 11040.333,739.89172 11040.333,581.38477 C 11040.333,405.80859 11104.353,344.50977 11191.327,344.50977 z M 11191.952,397.91602 C 11121.788,397.91602 11093.895,466.8836 11093.895,580.57227 C 11093.895,684.04043 11127.339,744.58132 11191.952,744.58132 C 11213.695,744.58132 11297.264,730.91608 11297.264,622.28589 C 11297.264,480.56661 11283.462,397.91602 11191.952,397.91602 z "
       id="path1452"
       sodipodi:nodetypes="cccscszsccsssc" />
    <path
       sodipodi:nodetypes="cccscccccsccc"
       id="path1454"
       d="M 17034.637,800 C 16930.911,799.21499 16869.69,746.34187 16869.69,611.76392 C 16869.69,506.67926 16870.19,422.46573 16870.19,350.76392 C 16871.967,336.10519 16882.174,324.01392 16896.94,324.01392 C 16911.706,324.01392 16923.69,335.99792 16923.69,350.76392 L 16923.409,611.76392 C 16921.964,688.0026 16967.303,746.93901 17034.307,746.93901 C 17095.909,746.93901 17141.69,689.32229 17141.69,611.76392 C 17141.69,532.18915 17140.94,425.58791 17140.94,350.76392 C 17140.94,335.99792 17152.924,324.01392 17167.69,324.01392 C 17182.456,324.01392 17194.44,335.99792 17194.44,350.76392 L 17193.409,611.76392 C 17193.409,711.73403 17142.395,800 17034.637,800 z "
       style="fill:#000000;fill-opacity:1;stroke:none" />
    <path
       style="opacity:1;fill:#000000;fill-opacity:1;stroke:none"
       d="M 14078.426,129.5625 C 14063.66,129.5625 14051.676,141.5465 14051.676,156.3125 C 14051.676,169.52964 14051.676,739.59937 14051.676,773.25 C 14051.676,788.016 14063.66,800 14078.426,800 C 14093.192,800 14105.176,788.016 14105.176,773.25 C 14105.176,732.13892 14105.176,173.79541 14105.176,156.3125 C 14105.176,141.5465 14093.192,129.5625 14078.426,129.5625 z "
       id="path1468"
       sodipodi:nodetypes="cccsccc" />
    <path
       sodipodi:type="arc"
       style="opacity:1;fill:#000000;fill-opacity:1;stroke:none"
       id="path1472"
       sodipodi:cx="24082.498"
       sodipodi:cy="64.220436"
       sodipodi:rx="26.75"
       sodipodi:ry="26.75"
       d="M 24109.248 64.220436 A 26.75 26.75 0 1 1  24055.748,64.220436 A 26.75 26.75 0 1 1  24109.248 64.220436 z"
       transform="translate(-10500.903,92.523791)" />
    <path
       style="fill:#000000;fill-opacity:1;stroke:none"
       d="M 13082.299,129.5625 C 13067.533,129.5625 13055.549,141.5465 13055.549,156.3125 C 13055.549,222.4958 13055.549,708.65877 13055.549,773.25 C 13055.549,788.016 13067.534,800 13082.299,800 C 13097.065,800 13109.049,788.016 13109.049,773.25 C 13109.049,754.77479 13109.049,627.36173 13109.049,496 C 13114.112,427.7964 13159.327,377.0625 13221.487,377.0625 C 13283.089,377.06249 13332.862,434.69163 13332.862,512.25 C 13332.862,591.82477 13332.112,698.42601 13332.112,773.25 C 13332.112,788.016 13344.096,800 13358.862,800 C 13373.628,800 13385.612,788.016 13385.612,773.25 L 13384.581,512.25 C 13384.581,412.27989 13329.589,324 13221.831,324 C 13175.467,324.35089 13137.199,335.12799 13109.049,358.9375 C 13109.05,273.99628 13109.049,162.05453 13109.049,156.3125 C 13109.049,141.5465 13097.065,129.5625 13082.299,129.5625 z "
       id="path1518"
       sodipodi:nodetypes="cccsscssssccccsc" />
    <path
       style="fill:#000000;fill-opacity:1;stroke:none"
       d="M 12581.696,136.84375 C 12502.621,136.84375 12482.633,171.23482 12482.633,293.4375 C 12482.633,307.78091 12482.605,329.63719 12482.602,345.90625 L 12440.227,345.90625 C 12426.204,346.7333 12415.103,358.39519 12415.102,372.625 C 12415.102,386.85482 12426.204,398.51671 12440.227,399.34375 L 12440.227,399.40625 L 12482.602,399.40625 C 12482.555,548.13426 12482.446,726.03396 12482.446,774.5 C 12482.446,789.26599 12494.43,801.25 12509.196,801.25 C 12523.962,801.24999 12535.946,789.266 12535.946,774.5 L 12536.102,399.40625 L 12650.133,399.40625 L 12650.133,399.34375 C 12664.508,398.89614 12676.04,387.10775 12676.04,372.625 C 12676.04,357.85901 12664.055,345.875 12649.29,345.875 L 12536.102,345.90625 L 12536.133,293.4375 C 12536.134,210.8976 12548.876,187.34375 12571.79,187.34375 C 12595.278,187.34373 12609.189,188.54547 12632.977,196.625 C 12637.272,199.56332 12642.447,201.28125 12648.04,201.28125 C 12662.806,201.28125 12674.79,189.29726 12674.79,174.53125 C 12674.79,163.88331 12668.552,154.67908 12659.54,150.375 C 12659.552,150.33206 12659.56,150.29311 12659.571,150.25 C 12658.768,149.95744 12658.015,149.69302 12657.227,149.40625 C 12656.818,149.25617 12656.426,149.09908 12656.008,148.96875 C 12636.753,141.98077 12620.931,136.84375 12581.696,136.84375 z "
       id="path1536" />
    <path
       sodipodi:nodetypes="ccccccscc"
       id="path1538"
       d="M 10578.841,746.5 C 10564.818,747.327 10553.717,758.9889 10553.716,773.2187 C 10553.716,787.4485 10564.818,799.1104 10578.841,799.9375 L 10578.841,800 L 10788.747,800 L 10976.856,799.9375 C 10991.231,799.4898 11002.763,787.7015 11002.763,773.2187 C 11002.763,758.4527 10990.779,746.4687 10976.013,746.4687 L 10578.841,746.5 z "
       style="fill:#000000;fill-opacity:1;stroke:none" />
    <path
       sodipodi:nodetypes="cccsccc"
       id="path1543"
       d="M 19671.925,34.152088 C 19657.159,34.152088 19645.175,46.136088 19645.175,60.902088 C 19645.175,74.119228 19645.175,899.91445 19645.175,933.56508 C 19645.175,948.33108 19657.159,960.31508 19671.925,960.31508 C 19686.691,960.31508 19698.675,948.33108 19698.675,933.56508 C 19698.675,892.454 19698.675,78.384998 19698.675,60.902088 C 19698.675,46.136088 19686.691,34.152088 19671.925,34.152088 z "
       style="opacity:1;fill:#000000;fill-opacity:1;stroke:none" />
    <path
       style="opacity:1;fill:#000000;fill-opacity:1;stroke:none"
       d="M 19790.146,516.22902 C 19775.38,516.22902 19763.396,528.21302 19763.396,542.97902 C 19763.396,556.19616 19763.396,737.73551 19763.396,771.38614 C 19763.396,786.15214 19775.38,798.13614 19790.146,798.13614 C 19804.912,798.13614 19816.896,786.15214 19816.896,771.38614 C 19816.896,730.27506 19816.896,560.46193 19816.896,542.97902 C 19816.896,528.21302 19804.912,516.22902 19790.146,516.22902 z "
       id="path1545"
       sodipodi:nodetypes="cccsccc" />
    <path
       sodipodi:nodetypes="cccsccc"
       id="path1547"
       d="M 19790.146,146.53637 C 19775.38,146.53637 19763.396,158.52037 19763.396,173.28637 C 19763.396,186.50351 19763.396,367.74162 19763.396,401.39225 C 19763.396,416.15825 19775.38,428.14225 19790.146,428.14225 C 19804.912,428.14225 19816.896,416.15825 19816.896,401.39225 C 19816.896,360.28117 19816.896,190.76928 19816.896,173.28637 C 19816.896,158.52037 19804.912,146.53637 19790.146,146.53637 z "
       style="opacity:1;fill:#000000;fill-opacity:1;stroke:none" />
    <path
       style="opacity:1;fill:#000000;fill-opacity:1;stroke:none"
       d="M 10988.369,179.96356 C 10973.603,179.96356 10961.619,191.94756 10961.619,206.71356 C 10961.619,219.9307 10961.619,330.75304 10961.619,364.40367 C 10961.619,379.16967 10973.603,391.15367 10988.369,391.15367 C 11003.135,391.15367 11015.119,379.16967 11015.119,364.40367 C 11015.119,323.29259 11015.119,224.19647 11015.119,206.71356 C 11015.119,191.94756 11003.135,179.96356 10988.369,179.96356 z "
       id="path1552"
       sodipodi:nodetypes="cccsccc" />
    <path
       style="fill:#000000;fill-opacity:1;stroke:none"
       d="M 10229.021,56.09375 C 10220.205,56.093751 10212.395,60.382994 10207.521,66.96875 C 10206.248,68.689347 10205.169,70.560999 10204.334,72.5625 C 10204.182,72.924196 10204.031,73.286728 10203.896,73.65625 C 10203.595,74.465503 10203.338,75.312218 10203.115,76.15625 C 10202.999,76.594094 10202.896,77.022438 10202.802,77.46875 C 10202.793,77.511406 10202.78,77.551019 10202.771,77.59375 C 10202.601,78.423064 10202.487,79.269741 10202.396,80.125 C 10202.296,81.065042 10202.208,82.002292 10202.208,82.96875 L 10202.24,774.96875 C 10203.066,788.99175 10214.729,800.09275 10228.958,800.09375 C 10229.7,800.09375 10230.451,800.05908 10231.177,800 C 10246.663,800 10341.557,800 10374.708,800 C 10389.474,800 10401.458,788.016 10401.458,773.25 C 10401.458,758.484 10389.474,746.5 10374.708,746.5 C 10341.119,746.5 10287.613,746.5 10255.677,746.5 L 10255.74,270.25 L 10255.677,109.59375 C 10287.947,109.59375 10347.215,109.59375 10374.708,109.59375 C 10389.474,109.59375 10401.458,97.60975 10401.458,82.84375 C 10401.458,68.077751 10389.474,56.09375 10374.708,56.09375 C 10333.597,56.093751 10246.504,56.09375 10229.021,56.09375 z "
       id="path1562" />
    <path
       style="opacity:1;fill:#000000;fill-opacity:1;stroke:none"
       d="M 8608.2184,305.05796 C 8608.2184,319.82397 8620.2024,331.80796 8634.9684,331.80796 C 8648.1854,331.80796 8972.2433,331.80796 9005.8943,331.80796 C 9020.6603,331.80796 9032.6443,319.82397 9032.6443,305.05796 C 9032.6443,290.29196 9020.6603,278.30796 9005.8943,278.30796 C 8964.7833,278.30796 8652.4514,278.30796 8634.9684,278.30796 C 8620.2024,278.30796 8608.2184,290.29196 8608.2184,305.05796 z "
       id="path1355"
       sodipodi:nodetypes="cccsccc" />
    <path
       style="opacity:1;fill:#000000;fill-opacity:1;stroke:none"
       d="M 8234.6504,589.85273 C 8219.8844,589.85273 8207.9004,601.83673 8207.9004,616.60273 C 8207.9004,629.81987 8207.9004,740.64221 8207.9004,774.29284 C 8207.9004,789.05884 8219.8844,801.04284 8234.6504,801.04284 C 8249.4164,801.04284 8261.4004,789.05884 8261.4004,774.29284 C 8261.4004,733.18176 8261.4004,634.08564 8261.4004,616.60273 C 8261.4004,601.83673 8249.4164,589.85273 8234.6504,589.85273 z "
       id="path1357"
       sodipodi:nodetypes="cccsccc" />
    <path
       sodipodi:type="arc"
       style="opacity:1;fill:#000000;fill-opacity:1;stroke:none"
       id="path2301"
       sodipodi:cx="24082.498"
       sodipodi:cy="64.220436"
       sodipodi:rx="26.75"
       sodipodi:ry="26.75"
       d="M 24109.248 64.220436 A 26.75 26.75 0 1 1  24055.748,64.220436 A 26.75 26.75 0 1 1  24109.248 64.220436 z"
       transform="translate(-15956.488,581.79347)" />
    <path
       transform="translate(-15956.488,352.28358)"
       d="M 24109.248 64.220436 A 26.75 26.75 0 1 1  24055.748,64.220436 A 26.75 26.75 0 1 1  24109.248 64.220436 z"
       sodipodi:ry="26.75"
       sodipodi:rx="26.75"
       sodipodi:cy="64.220436"
       sodipodi:cx="24082.498"
       id="path1360"
       style="opacity:1;fill:#000000;fill-opacity:1;stroke:none"
       sodipodi:type="arc" />
    <path
       sodipodi:type="arc"
       style="opacity:1;fill:#000000;fill-opacity:1;stroke:none"
       id="path1362"
       sodipodi:cx="24082.498"
       sodipodi:cy="64.220436"
       sodipodi:rx="26.75"
       sodipodi:ry="26.75"
       d="M 24109.248 64.220436 A 26.75 26.75 0 1 1  24055.748,64.220436 A 26.75 26.75 0 1 1  24109.248 64.220436 z"
       transform="translate(-15847.677,352.28358)" />
    <path
       sodipodi:nodetypes="cccsccc"
       id="path1366"
       d="M 8608.2184,543.11074 C 8608.2184,557.87675 8620.2024,569.86074 8634.9684,569.86074 C 8648.1854,569.86074 8972.2433,569.86074 9005.8943,569.86074 C 9020.6603,569.86074 9032.6443,557.87675 9032.6443,543.11074 C 9032.6443,528.34474 9020.6603,516.36074 9005.8943,516.36074 C 8964.7833,516.36074 8652.4514,516.36074 8634.9684,516.36074 C 8620.2024,516.36074 8608.2184,528.34474 8608.2184,543.11074 z "
       style="opacity:1;fill:#000000;fill-opacity:1;stroke:none" />
    <path
       style="fill:#000000;fill-opacity:1;stroke:none"
       d="M 12251.826,321.90625 C 12147.633,321.90625 12076.364,390.9688 12074.42,559.9375 C 12072.54,716.23533 12153.827,798.36952 12264.42,800.25 C 12306.948,800.61989 12368.039,783.12626 12395.389,741.09375 C 12402.238,736.24793 12406.701,728.27254 12406.701,719.25 C 12406.701,704.484 12394.718,692.5 12379.951,692.5 C 12369.617,692.5 12360.655,698.38328 12356.201,706.96875 C 12335.507,732.84583 12309.904,747.59375 12265.482,747.59375 C 12185.173,747.59374 12135.297,691.10717 12134.357,585.09375 L 12378.451,585.09375 C 12393.273,585.09378 12404.357,572.44776 12404.357,558.375 C 12404.357,465.04164 12372.357,380.25 12308.357,340.25 C 12291.221,330.72986 12272.361,324.62891 12251.826,321.90625 z M 12247.013,376.09375 C 12317.99,376.09374 12350.42,471.30066 12350.42,531.53125 L 12134.357,531.53125 C 12134.357,441.44645 12181.749,376.09375 12247.013,376.09375 z "
       id="path1370" />
    <path
       style="fill:#000000;fill-opacity:1;stroke:none"
       d="M 9064.8693,216.125 C 9064.8693,230.891 9076.8533,242.875 9091.6193,242.875 C 9108.9643,241.97757 9118.4653,228.48554 9118.6813,212.25 C 9127.7463,178.41963 9150.1263,136.4253 9244.3363,136.4253 C 9316.9823,134.329 9393.1113,170.4256 9397.3073,238.20416 C 9396.2073,288.5644 9369.7983,351.4375 9289.9853,351.4375 C 9206.1313,354.12058 9153.3073,419.26465 9153.3073,480.25 C 9153.3073,509.04439 9152.1813,529.30004 9152.1813,559.28125 C 9152.1823,574.04725 9164.1673,586.03127 9178.9313,586.03125 C 9193.6983,586.03125 9205.6833,574.04727 9205.6813,559.28125 L 9206.6813,480.25 C 9206.1973,425.41343 9236.7663,408.18487 9288.0493,403.60744 C 9360.1943,396.11929 9448.6813,368.03838 9448.6813,237.95119 C 9444.7153,123.12539 9349.2773,89.168481 9249.0603,84.25 C 9172.5713,79.954458 9066.7043,122.95223 9064.8693,216.125 z "
       id="path1380"
       sodipodi:nodetypes="ccccccccscccccc" />
    <path
       style="fill:#000000;fill-opacity:1;stroke:none"
       d="M 9788.1953,151.09375 C 9562.1183,151.09375 9458.6643,319.64035 9458.6643,548.25 C 9458.6643,721.33432 9548.6333,892.40625 9654.9773,892.40625 C 9669.7423,892.40625 9681.7273,880.42226 9681.7273,865.65625 C 9681.7273,851.44635 9676.3673,838.96875 9656.6333,838.96875 C 9597.2853,838.96875 9512.1643,697.47462 9512.1643,548.25 C 9512.1643,336.90135 9628.9713,202.09375 9789.9143,202.09375 C 9967.1013,202.09375 10098.664,305.64708 10098.664,548.25 C 10098.664,723.92297 10030.902,847.46875 9993.4143,847.46875 C 9958.8973,847.46874 9936.2603,772.05124 9938.1643,720.25 L 9938.1643,532.25 C 9934.5443,425.85481 9894.9563,319.15625 9792.7893,319.15625 C 9679.0453,319.15625 9630.6643,433.20342 9630.6643,548.25 C 9634.5863,662.3427 9684.2293,775.59375 9782.6953,775.59375 C 9837.4853,775.59375 9853.3493,764.10964 9879.9143,728.5 C 9889.7523,800.76063 9917.5443,894.02599 9992.7273,902 C 10082.877,911.5614 10152.164,729.9487 10152.164,548.25 C 10152.209,317.32547 10007.692,151.09375 9788.1953,151.09375 z M 9789.3833,372.7335 C 9848.8673,372.73349 9886.6643,421.05357 9886.6643,532.25 C 9886.6643,651.60461 9855.3653,722.09785 9789.1013,722.09785 C 9723.1873,722.09783 9682.1643,680.02482 9682.1643,543 C 9682.1643,443.6442 9720.2893,372.7335 9789.3833,372.7335 z "
       id="path1382"
       sodipodi:nodetypes="cccsccsssccscscscccsssc" />
    <path
       style="fill:#000000;fill-opacity:1;stroke:none"
       d="M 3620.5566,101.96877 C 3635.3216,101.96877 3647.3056,113.95277 3647.3066,128.71877 C 3647.3066,133.15951 3646.2236,137.34407 3644.3066,141.03127 L 3166.7746,778.75 C 3157.9146,789.7558 3151.9526,800 3137.6806,800 C 3122.9156,800 3110.9306,788.016 3110.9306,773.25 C 3110.9306,768.1894 3112.3296,763.443 3114.7746,759.4063 L 3114.8066,759.375 C 3115.7446,757.7602 3116.9326,756.3188 3118.1806,754.9375 L 3596.8376,116.40627 C 3601.2956,107.83364 3610.2316,101.96877 3620.5566,101.96877 z "
       id="path1434"
       sodipodi:nodetypes="cscccsccccc" />
    <path
       style="opacity:1;fill:#000000;fill-opacity:1;stroke:none"
       d="M 2514.5205,158.0625 C 2499.7546,158.0625 2487.7705,170.0465 2487.7705,184.8125 C 2487.7705,202.91884 2487.7705,290.71487 2487.7705,382.6875 C 2397.03,382.6875 2297.596,382.6875 2289.8955,382.6875 C 2275.1294,382.68751 2263.1455,394.6715 2263.1455,409.4375 C 2263.1454,424.20352 2275.1295,436.1875 2289.8955,436.1875 C 2295.717,436.1875 2395.71,436.1875 2487.7705,436.1875 C 2487.7705,526.93791 2487.7705,626.39257 2487.7705,634.09375 C 2487.7706,648.85978 2499.7545,660.84375 2514.5205,660.84375 C 2529.2866,660.84378 2541.2705,648.85975 2541.2705,634.09375 C 2541.2705,628.27174 2541.2705,528.25808 2541.2705,436.1875 C 2634.4029,436.1875 2724.3237,436.1875 2739.1455,436.1875 C 2753.9116,436.18751 2765.8955,424.20351 2765.8955,409.4375 C 2765.8956,394.67151 2753.9115,382.6875 2739.1455,382.6875 C 2721.0379,382.6875 2633.2504,382.6875 2541.2705,382.6875 C 2541.2705,289.56255 2541.2705,199.63326 2541.2705,184.8125 C 2541.2706,170.0465 2529.2865,158.0625 2514.5205,158.0625 z "
       id="path1436" />
    <path
       sodipodi:nodetypes="cccsccc"
       id="path1438"
       d="M 2654.4913,589.85273 C 2639.7253,589.85273 2627.7413,601.83673 2627.7413,616.60273 C 2627.7413,629.81987 2627.7413,740.64221 2627.7413,774.29284 C 2627.7413,789.05884 2639.7253,801.04284 2654.4913,801.04284 C 2669.2573,801.04284 2681.2413,789.05884 2681.2413,774.29284 C 2681.2413,733.18176 2681.2413,634.08564 2681.2413,616.60273 C 2681.2413,601.83673 2669.2573,589.85273 2654.4913,589.85273 z "
       style="opacity:1;fill:#000000;fill-opacity:1;stroke:none" />
    <path
       transform="translate(-21018.026,709.02956)"
       d="M 24109.248 64.220436 A 26.75 26.75 0 1 1  24055.748,64.220436 A 26.75 26.75 0 1 1  24109.248 64.220436 z"
       sodipodi:ry="26.75"
       sodipodi:rx="26.75"
       sodipodi:cy="64.220436"
       sodipodi:cx="24082.498"
       id="path1440"
       style="opacity:1;fill:#000000;fill-opacity:1;stroke:none"
       sodipodi:type="arc" />
    <path
       style="opacity:1;fill:#000000;fill-opacity:1;stroke:none"
       d="M 1998.2403,6.0625 C 1993.9279,6.1737574 1989.5802,7.3490717 1985.584,9.65625 C 1972.7962,17.039223 1968.3885,33.399769 1975.7715,46.1875 C 1983.6714,59.870477 2018.1553,119.59711 2052.7403,179.5 C 1982.2499,179.5 1905.5525,179.5 1898.834,179.5 C 1884.068,179.5 1872.084,191.484 1872.084,206.25 C 1872.084,221.01601 1884.068,233 1898.834,233 C 1903.9131,233 1984.5917,233 2052.7403,233 C 2019.2058,291.08344 1979.131,360.49363 1975.7715,366.3125 C 1968.3885,379.10023 1972.7963,395.46075 1985.584,402.84375 C 1998.3716,410.22677 2014.7321,405.85023 2022.1153,393.0625 C 2024.6552,388.66332 2063.3882,321.57934 2099.084,259.75 C 2132.6185,317.83344 2172.6932,387.24363 2176.0527,393.0625 C 2183.4358,405.85022 2199.7963,410.22673 2212.584,402.84375 C 2225.3717,395.46079 2229.7482,379.10023 2222.3653,366.3125 C 2219.8253,361.91332 2179.4767,292.02859 2145.3965,233 C 2215.0784,233 2286.3998,233 2299.334,233 C 2314.0999,233 2326.084,221.01601 2326.084,206.25 C 2326.0839,191.484 2314.1,179.5 2299.334,179.5 C 2283.5324,179.5 2214.5764,179.5 2145.3965,179.5 C 2180.385,118.89805 2215.8986,57.388002 2222.3653,46.1875 C 2229.7482,33.399768 2225.3717,17.039255 2212.584,9.65625 C 2208.1882,7.1183438 2203.3784,5.9557657 2198.6465,6.0625 C 2189.6129,6.2662654 2180.8979,11.045551 2176.0527,19.4375 C 2168.1529,33.120477 2133.3426,93.409934 2099.084,152.75 C 2064.0955,92.148049 2028.5819,30.638002 2022.1153,19.4375 C 2017.0395,10.645935 2007.7273,5.8177337 1998.2403,6.0625 z "
       id="path1446" />
    <path
       style="opacity:1;fill:#000000;fill-opacity:1;stroke:none"
       d="M 10686.572,-0.5625 C 10676.421,-0.5625 10667.573,5.0990757 10663.041,13.4375 C 10652.834,25.028352 10504.308,196.7098 10491.822,212.125 C 10486.618,217.00644 10483.353,223.93182 10483.354,231.625 C 10483.354,246.391 10495.337,258.375 10510.104,258.375 C 10520.027,258.375 10528.705,252.96985 10533.322,244.9375 L 10686.291,66.5 L 10844.197,250.8125 L 10844.354,250.59375 C 10849.19,255.3994 10855.877,258.375 10863.228,258.375 C 10877.994,258.375 10889.979,246.391 10889.978,231.625 C 10889.978,223.08841 10885.961,215.49263 10879.728,210.59375 L 10708.885,11.4375 C 10704.093,4.2146778 10695.883,-0.5625 10686.572,-0.5625 z "
       id="path1393"
       sodipodi:nodetypes="ccccsccccssccc" />
    <path
       style="opacity:1;fill:#000000;fill-opacity:1;stroke:none"
       d="M 198.37577,180.38331 C 183.60977,180.38331 171.62577,192.36731 171.62577,207.13331 C 171.62577,220.35045 171.62577,331.17278 171.62577,364.82338 C 171.62577,379.58938 183.60977,391.57338 198.37577,391.57338 C 213.14177,391.57338 225.12577,379.58938 225.12577,364.82338 C 225.12577,323.71238 225.12577,224.61622 225.12577,207.13331 C 225.12577,192.36731 213.14177,180.38331 198.37577,180.38331 z "
       id="path1478"
       sodipodi:nodetypes="cccsccc" />
    <path
       sodipodi:nodetypes="cccsccc"
       id="path1480"
       d="M 404.13773,180.38331 C 389.37173,180.38331 377.38773,192.36731 377.38773,207.13331 C 377.38773,220.35045 377.38773,331.17278 377.38773,364.82338 C 377.38773,379.58938 389.37173,391.57338 404.13773,391.57338 C 418.90373,391.57338 430.88773,379.58938 430.88773,364.82338 C 430.88773,323.71238 430.88773,224.61622 430.88773,207.13331 C 430.88773,192.36731 418.90373,180.38331 404.13773,180.38331 z "
       style="opacity:1;fill:#000000;fill-opacity:1;stroke:none" />
    <path
       style="opacity:1;fill:#000000;fill-opacity:1;stroke:none"
       d="M 1646.8818,180.38331 C 1632.1158,180.38331 1620.1318,192.36731 1620.1318,207.13331 C 1620.1318,220.35045 1620.1318,331.17278 1620.1318,364.82338 C 1620.1318,379.58938 1632.1158,391.57338 1646.8818,391.57338 C 1661.6478,391.57338 1673.6318,379.58938 1673.6318,364.82338 C 1673.6318,323.71238 1673.6318,224.61622 1673.6318,207.13331 C 1673.6318,192.36731 1661.6478,180.38331 1646.8818,180.38331 z "
       id="path1482"
       sodipodi:nodetypes="cccsccc" />
    <path
       style="fill:#000000;fill-opacity:1;stroke:none"
       d="M 8656.0684,53.3125 C 8647.2984,53.637336 8639.4194,58.29147 8634.7564,65.34375 L 8312.0374,409.375 C 8307.4584,414.67946 8304.9744,418.42774 8304.9744,427.78125 C 8305.0614,438.21988 8306.8384,441.15529 8310.2874,445.125 L 8634.9434,790.09375 C 8640.2724,798.15352 8649.7694,803.04794 8660.0374,801.96875 C 8674.7214,800.42537 8685.3924,787.24767 8683.8504,772.5625 C 8683.3874,768.14601 8681.8584,764.09171 8679.5684,760.625 L 8370.9124,427.59375 L 8679.4124,94.78125 C 8681.7024,91.31454 8683.2004,87.260268 8683.6624,82.84375 C 8685.2064,68.158582 8674.5324,55.012126 8659.8504,53.46875 C 8658.5654,53.333852 8657.3214,53.266095 8656.0684,53.3125 z "
       id="path1484"
       sodipodi:nodetypes="ccccccscccccsc" />
    <path
       style="opacity:1;fill:#000000;fill-opacity:1;stroke:none"
       d="M 2722.7894,560.92908 C 2722.7894,575.69509 2734.7734,587.67908 2749.5394,587.67908 C 2762.7564,587.67908 2966.603,587.67908 3000.254,587.67908 C 3015.02,587.67908 3027.004,575.69509 3027.004,560.92908 C 3027.004,546.16308 3015.02,534.17908 3000.254,534.17908 C 2959.143,534.17908 2767.0224,534.17908 2749.5394,534.17908 C 2734.7734,534.17908 2722.7894,546.16308 2722.7894,560.92908 z "
       id="path1492"
       sodipodi:nodetypes="cccsccc" />
    <path
       style="opacity:1;fill:#000000;fill-opacity:1;stroke:none"
       d="M 80.369406,132.13951 C 65.603406,132.13951 53.619406,144.12351 53.619406,158.88951 C 53.619406,172.10665 53.619406,547.91434 53.619406,581.56497 C 53.619406,596.33097 65.603406,608.31497 80.369406,608.31497 C 95.135406,608.31497 107.11941,596.33097 107.11941,581.56497 C 107.11941,540.45389 107.11941,176.37242 107.11941,158.88951 C 107.11941,144.12351 95.135406,132.13951 80.369406,132.13951 z "
       id="path1512"
       sodipodi:nodetypes="cccsccc" />
    <path
       style="opacity:1;fill:#000000;fill-opacity:1;stroke:none"
       d="M 683.66638,90.34375 C 668.90038,90.343753 656.91635,102.32775 656.91635,117.09375 C 656.91635,120.36394 656.91635,221.09418 656.91635,279.6875 C 605.54705,279.6875 511.44389,279.6875 507.3851,279.6875 C 492.61913,279.6875 480.6351,291.6715 480.6351,306.4375 C 480.63513,321.2035 492.6191,333.1875 507.3851,333.1875 C 510.45357,333.1875 605.25371,333.1875 656.91635,333.1875 C 656.91635,434.5661 656.91635,471.18815 656.91635,572 C 605.54705,572 511.44389,572 507.3851,572 C 492.61913,571.99998 480.6351,583.984 480.6351,598.75 C 480.63513,613.51598 492.6191,625.5 507.3851,625.5 C 510.45357,625.49999 605.25371,625.5 656.91635,625.5 C 656.91635,678.59332 656.91635,766.63304 656.91635,774.25 C 656.91636,789.01601 668.90038,801 683.66638,801 C 698.43238,801.00001 710.41638,789.016 710.41638,774.25 C 710.41638,764.94434 710.41638,678.72391 710.41638,625.5 C 810.18738,625.5 800.55778,625.5 902.60038,625.5 C 902.60038,678.59332 902.60038,766.63304 902.60038,774.25 C 902.60028,789.01601 914.58428,801 929.35038,801 C 944.11628,801.00001 956.10038,789.016 956.10038,774.25 C 956.10028,764.94434 956.10038,678.72391 956.10038,625.5 C 1008.9748,625.5 1095.6277,625.5 1103.3191,625.5 C 1118.0852,625.49998 1130.0691,613.516 1130.0691,598.75 C 1130.0692,583.98398 1118.0851,572 1103.3191,572 C 1093.9225,571.99999 1009.0953,572 956.10038,572 C 956.10028,471.55788 956.10028,433.6766 956.10038,333.1875 C 1008.9748,333.1875 1095.6277,333.1875 1103.3191,333.1875 C 1118.0852,333.1875 1130.0691,321.2035 1130.0691,306.4375 C 1130.0692,291.6715 1118.0851,279.6875 1103.3191,279.6875 C 1093.9225,279.6875 1009.0953,279.6875 956.10038,279.6875 C 956.10038,221.46387 956.10038,121.41938 956.10038,117.09375 C 956.10028,102.32775 944.11638,90.34375 929.35038,90.34375 C 914.58428,90.343753 902.60038,102.32775 902.60038,117.09375 C 902.60028,120.36394 902.60038,221.09418 902.60038,279.6875 C 800.96138,279.6875 809.32138,279.6875 710.41638,279.6875 C 710.41638,221.46387 710.41638,121.41938 710.41638,117.09375 C 710.41638,102.32775 698.43238,90.34375 683.66638,90.34375 z M 710.41638,333.1875 C 810.18738,333.1875 800.55778,333.1875 902.60038,333.1875 C 902.60028,434.5661 902.60028,471.18815 902.60038,572 C 800.96138,572 809.32138,572 710.41638,572 C 710.41638,471.55788 710.41638,433.6766 710.41638,333.1875 z "
       id="path1514"
       sodipodi:nodetypes="cscsssccssscsssccssscsssccssscsssccscccccc" />
    <path
       transform="translate(-24002.305,709.02956)"
       d="M 24109.248 64.220436 A 26.75 26.75 0 1 1  24055.748,64.220436 A 26.75 26.75 0 1 1  24109.248 64.220436 z"
       sodipodi:ry="26.75"
       sodipodi:rx="26.75"
       sodipodi:cy="64.220436"
       sodipodi:cx="24082.498"
       id="path1517"
       style="opacity:1;fill:#000000;fill-opacity:1;stroke:none"
       sodipodi:type="arc" />
    <path
       style="fill:#000000;fill-opacity:1;stroke:none"
       d="M 1380.3046,104.09375 C 1365.5386,104.09375 1353.5544,116.07775 1353.5546,130.84375 L 1353.9296,204.25 L 1307.1333,204.25 C 1218.0677,204.25 1157.9296,249.12123 1157.9296,342.25 C 1157.9296,435.8602 1220.3687,479.46875 1311.9296,479.46875 L 1353.9296,479.46875 L 1353.9296,650.75 C 1301.3496,650.44405 1248.7632,651.78108 1196.2108,649.65625 C 1181.4448,649.65625 1169.4607,661.64023 1169.4608,676.40625 C 1169.4608,691.17225 1181.4447,703.15623 1196.2108,703.15625 L 1353.9296,704.25 C 1353.9296,736.05686 1353.5546,759.54819 1353.5546,781.53125 C 1353.5546,796.29725 1365.5383,808.28127 1380.3046,808.28125 C 1395.0705,808.28125 1407.0544,796.29727 1407.0546,781.53125 L 1406.9608,704.25 L 1446.9608,704.25 C 1541.0935,704.25 1602.9608,644.39159 1602.9608,562.25 C 1602.9608,482.78994 1554.1914,426.0625 1446.9608,426.0625 L 1406.9608,426.0625 L 1406.9608,256.78125 C 1458.4956,256.78125 1512.8956,257.09375 1552.0858,257.09375 C 1566.8518,257.09375 1578.8357,245.10974 1578.8358,230.34375 C 1578.8358,215.57775 1566.8517,203.59374 1552.0858,203.59375 L 1406.9608,204.25 C 1406.9608,179.43961 1407.0546,163.04427 1407.0546,130.84375 C 1407.0546,116.07775 1395.0702,104.09375 1380.3046,104.09375 z M 1291.3313,256.78125 L 1353.9296,256.78125 L 1353.9296,426.0625 L 1294.9608,426.0625 C 1241.6543,426.0625 1210.9608,387.62077 1210.9608,340.90178 C 1210.9608,283.37921 1243.1164,256.78125 1291.3313,256.78125 z M 1406.9608,479.46875 L 1465.9296,479.46875 C 1520.504,479.46875 1549.9296,509.60528 1549.9296,562.25 C 1549.9296,615.87874 1511.1682,650.75 1465.9296,650.75 L 1406.9608,650.75 L 1406.9608,479.46875 z "
       id="path1529"
       sodipodi:nodetypes="cccccccccscccsccccccccscccccccccccccccc" />
    <path
       style="fill:#000000;fill-opacity:1;stroke:none"
       d="M 3904.9458,103.8125 C 3737.6319,103.8125 3666.0708,223.26616 3666.0708,452.25 C 3666.0708,694.78661 3741.8728,800.8125 3903.4145,800.8125 C 4064.7289,800.8125 4143.2895,686.11602 4143.2895,454.25 C 4143.2895,212.40978 4063.9098,103.8125 3904.9458,103.8125 z M 3905.0708,157.09276 C 4027.2297,157.09276 4090.0708,246.98171 4090.0708,454.25 C 4090.0708,659.25622 4027.8567,746.28491 3903.9145,746.28491 C 3784.0014,746.28491 3719.2895,648.96025 3719.2895,454.25 C 3719.2895,247.35519 3789.9173,157.09276 3905.0708,157.09276 z "
       id="path1555"
       sodipodi:nodetypes="cccccccccc" />
    <path
       style="fill:#000000;fill-opacity:1;stroke:none"
       d="M 7872.1472,104.34375 C 7735.8784,104.34375 7668.0847,181.01359 7668.0847,308.25 C 7668.0842,409.93181 7727.7059,476.6875 7867.0222,476.6875 C 7939.8013,476.68749 7978.0972,466.64374 8006.0847,438.65625 L 8006.0847,598.25 C 7997.7055,674.38054 7970.0041,746.8125 7865.5534,746.8125 C 7839.5831,746.66209 7794.3055,726.14025 7761.6784,685.21464 C 7757.2288,679.08625 7750.5999,675.53124 7743.6784,675.53125 C 7728.9125,675.53125 7716.9283,687.51523 7716.9284,702.28125 C 7716.9284,740.27568 7799.1544,800.9375 7867.9597,800.9375 C 7989.117,800.9375 8061.8972,701.55617 8061.8972,597.48114 L 8061.8972,332.25 C 8061.8972,192.54588 7999.005,104.34375 7872.1472,104.34375 z M 7870.0847,158.34375 C 7973.8946,158.34375 8000.9757,224.94786 8006.0847,332.25 C 8006.0842,402.92033 7950.0901,422.28125 7868.0847,422.28125 C 7778.3159,422.28125 7724.4797,388.29839 7721.8972,308.25 C 7721.8972,187.68088 7788.0935,158.34375 7870.0847,158.34375 z "
       id="path1567"
       sodipodi:nodetypes="ccsccccscccccccscc" />
    <path
       style="opacity:1;fill:#000000;fill-opacity:1;stroke:none"
       d="M 5579.8612,99.5625 C 5572.1263,99.5625 5565.153,102.87079 5560.2675,108.125 L 5560.08,107.96875 L 5558.9862,109.59375 C 5558.0404,110.77149 5557.1933,112.01498 5556.455,113.34375 C 5556.4145,113.41665 5556.3698,113.48918 5556.33,113.5625 L 5227.8925,600.90625 C 5223.974,605.55977 5221.6114,611.56984 5221.6112,618.125 C 5221.6112,632.891 5233.5957,644.87497 5248.3612,644.875 C 5248.8227,644.875 5249.2805,644.86688 5249.7362,644.84375 L 5553.2988,644.875 L 5553.2988,766.125 C 5553.1757,767.16526 5553.1112,768.23932 5553.1112,769.3125 C 5553.1112,784.0785 5565.095,796.06249 5579.8612,796.0625 C 5594.6272,796.0625 5606.6111,784.07849 5606.6112,769.3125 C 5606.6112,768.23932 5606.5467,767.16526 5606.4238,766.125 L 5606.4862,644.875 L 5675.5488,644.875 L 5675.5488,644.84375 C 5689.8654,644.33192 5701.33,632.5658 5701.33,618.125 C 5701.33,603.359 5689.346,591.37497 5674.58,591.375 C 5673.9613,591.375 5673.3445,591.39609 5672.7362,591.4375 L 5606.4862,591.4375 L 5606.6738,125.65625 L 5606.6112,125.65625 C 5606.2613,111.19409 5594.407,99.562497 5579.8612,99.5625 z M 5553.2675,213.34375 L 5553.2988,591.4375 L 5298.3925,591.40625 L 5553.2675,213.34375 z "
       id="path1378" />
    <path
       style="opacity:1;fill:#000000;fill-opacity:1;stroke:none"
       d="M 6714.3585,107.34382 C 6699.5925,107.34382 6687.6075,119.32782 6687.6085,134.09382 C 6687.6085,148.65018 6699.2565,160.5102 6713.7335,160.84382 L 6713.7335,160.93757 L 7088.8585,160.56257 L 6662.1085,759.37507 L 6661.6705,759.96882 C 6661.5575,760.11408 6661.4375,760.25869 6661.3265,760.40632 C 6660.9465,760.91566 6660.5775,761.43238 6660.2335,761.96882 C 6657.5575,766.13338 6655.9835,771.09216 6655.9835,776.40632 C 6655.9835,791.17232 6667.9665,803.15631 6682.7335,803.15632 C 6690.3945,803.15632 6697.3235,799.91714 6702.2025,794.75007 L 6702.2645,794.81257 L 6702.7025,794.18757 C 6704.0085,792.72364 6705.1455,791.13214 6706.1085,789.40632 L 7163.8895,147.62507 L 7163.6395,147.43757 C 7165.9055,143.50982 7167.2005,138.95127 7167.2025,134.09382 C 7167.2015,119.32782 7155.2165,107.34382 7140.4525,107.34382 C 7139.2495,107.34382 7138.0805,107.44 7136.9205,107.59382 C 7103.0202,107.59382 6766.5157,107.34382 6714.3585,107.34382 z "
       id="path1371"
       sodipodi:nodetypes="cccccccsssscccccccscc" />
    <path
       transform="translate(-14903.571,700.64459)"
       d="M 24109.248 64.220436 A 26.75 26.75 0 1 1  24055.748,64.220436 A 26.75 26.75 0 1 1  24109.248 64.220436 z"
       sodipodi:ry="26.75"
       sodipodi:rx="26.75"
       sodipodi:cy="64.220436"
       sodipodi:cx="24082.498"
       id="path1356"
       style="opacity:1;fill:#000000;fill-opacity:1;stroke:none"
       sodipodi:type="arc" />
    <path
       sodipodi:type="arc"
       style="opacity:1;fill:#000000;fill-opacity:1;stroke:none"
       id="path1348"
       sodipodi:cx="24082.498"
       sodipodi:cy="64.220436"
       sodipodi:rx="26.75"
       sodipodi:ry="26.75"
       d="M 24109.248 64.220436 A 26.75 26.75 0 1 1  24055.748,64.220436 A 26.75 26.75 0 1 1  24109.248 64.220436 z"
       transform="translate(-11927.259,92.777271)" />
    <path
       transform="translate(-11749.649,92.523791)"
       d="M 24109.248 64.220436 A 26.75 26.75 0 1 1  24055.748,64.220436 A 26.75 26.75 0 1 1  24109.248 64.220436 z"
       sodipodi:ry="26.75"
       sodipodi:rx="26.75"
       sodipodi:cy="64.220436"
       sodipodi:cx="24082.498"
       id="path1350"
       style="opacity:1;fill:#000000;fill-opacity:1;stroke:none"
       sodipodi:type="arc" />
    <path
       style="opacity:1;fill:#000000;fill-opacity:1;stroke:none"
       d="M 11196.906,58 C 11134.686,60.070693 11092.406,101.60015 11092.406,168.625 C 11092.406,234.55461 11138.96,279.21875 11196.906,279.21875 C 11257.823,278.31273 11304.281,230.34064 11304.281,168.625 C 11306.484,107.71858 11258.982,58 11196.906,58 z M 11196.562,111.0625 C 11232.689,111.0625 11248.306,133.22137 11250.781,168.625 C 11248.299,204.01043 11232.678,226.15625 11196.562,226.15625 C 11166.902,226.15625 11149.432,207.16136 11146.219,168.625 C 11149.426,130.06755 11166.894,111.0625 11196.562,111.0625 z "
       id="path1354"
       sodipodi:nodetypes="cccccccscc" />
    <path
       sodipodi:nodetypes="cccccsccccc"
       id="path1364"
       d="M 11857.853,925.80517 C 11857.853,939.97417 11868.884,951.57717 11882.821,952.49317 L 11882.821,952.74317 C 11964.695,952.74317 12007.071,908.74017 12007.071,847.80517 C 12007.071,786.88917 11965.283,740.05518 11884.603,740.05518 C 11869.837,740.05518 11857.853,752.04017 11857.853,766.80517 C 11857.853,781.57117 11869.837,793.55617 11884.603,793.55517 C 11926.845,793.25917 11954.009,808.14417 11954.009,848.14917 C 11954.009,881.12817 11930.544,899.02417 11882.821,899.02417 L 11882.821,899.11817 C 11868.884,900.03517 11857.853,911.63717 11857.853,925.80517 z "
       style="opacity:1;fill:#000000;fill-opacity:1;stroke:none" />
    <path
       sodipodi:nodetypes="cccccsccccc"
       id="path1374"
       d="M 11495.534,130 C 11481.365,130 11469.762,141.03088 11468.846,154.96875 L 11468.596,154.96875 C 11468.596,236.84199 11512.599,279.21874 11573.534,279.21875 C 11634.45,279.21875 11681.284,237.43075 11681.284,156.75 C 11681.284,141.984 11669.299,129.99999 11654.534,130 C 11639.768,130 11627.783,141.98399 11627.784,156.75 C 11628.08,198.9923 11613.195,226.15625 11573.19,226.15625 C 11540.211,226.15625 11522.315,202.6909 11522.315,154.96875 L 11522.221,154.96875 C 11521.304,141.03123 11509.702,130 11495.534,130 z "
       style="opacity:1;fill:#000000;fill-opacity:1;stroke:none" />
    <path
       style="opacity:1;fill:#000000;fill-opacity:1;stroke:none"
       d="M 12860.902,114.9375 C 12854.058,115.1765 12847.311,118.0377 12842.276,123.4375 C 12833.262,133.10298 12757.663,214.13975 12734.714,238.75 C 12724.643,249.5492 12725.258,266.4917 12736.058,276.5625 C 12746.857,286.63235 12763.769,286.0496 12773.839,275.25 C 12796.904,250.51579 12838.752,205.66809 12862.339,180.375 C 12885.931,205.67318 12927.747,250.51986 12950.808,275.25 C 12960.878,286.0496 12977.822,286.63235 12988.62,276.5625 C 12999.42,266.4917 13000.004,249.5492 12989.933,238.75 C 12966.984,214.13975 12891.385,133.10298 12882.37,123.4375 C 12877.021,117.70021 12869.74,114.84473 12862.464,114.9375 C 12862.37,114.93532 12862.277,114.9387 12862.183,114.9375 C 12861.755,114.93204 12861.329,114.92256 12860.902,114.9375 z "
       id="path1387" />
    <path
       style="opacity:1;fill:#000000;fill-opacity:1;stroke:none"
       d="M 14388.669,133.75856 C 14327.734,133.75857 14299.731,163.30306 14299.731,264.00856 C 14302.145,279.16364 14311.893,286.6892 14326.669,288.97731 C 14340.837,288.97731 14352.439,277.94608 14353.356,264.00856 L 14353.45,264.00856 C 14353.45,216.28641 14355.346,186.82106 14388.325,186.82106 C 14425.626,186.82106 14404.127,292.97731 14491.012,292.97731 C 14551.928,292.97731 14578.762,266.48419 14578.762,174.50856 C 14578.762,159.74256 14566.777,147.75855 14552.012,147.75856 C 14537.246,147.75856 14525.261,159.74255 14525.262,174.50856 C 14525.558,216.75086 14518.521,239.91481 14490.669,239.91481 C 14452.146,239.91481 14470.937,133.75856 14388.669,133.75856 z "
       id="path1392"
       sodipodi:nodetypes="cccccccssccc" />
  </g>
</svg>
